<svg width="541" height="485" viewBox="0 0 541 485" fill="none" xmlns="http://www.w3.org/2000/svg">
<path d="M539.932 25.8853L533.04 26.4897C535.672 46.6678 526.145 67.5997 506.902 83.9193C487.66 100.239 462.455 108.775 437.734 107.316C423.339 106.471 408.571 102.761 394.287 99.1732C369.818 93.0278 344.517 86.6718 320.35 94.5994C302.751 100.375 290.553 112.402 278.757 124.034C269.799 132.867 260.536 142.002 249.075 148.136C221.117 163.097 183.72 158.715 158.023 154.116C152.652 153.156 147.155 152.093 141.839 151.066C115.615 145.997 88.5014 140.754 61.4965 144.445C27.9063 149.034 -4.60303 172.778 0.538936 200.81C5.1842 226.128 34.9614 239.111 63.7585 251.668C92.766 264.316 120.165 276.263 122.158 299.468C123.193 311.515 116.397 322.568 109.203 334.269C106.581 338.531 103.871 342.938 101.598 347.369C85.6985 378.352 90.8209 416.052 114.648 443.413C138.475 470.775 180.328 487.007 221.272 484.8L220.813 479.135C182.216 481.237 142.755 465.914 120.291 440.117C97.8277 414.322 92.9988 378.779 107.988 349.57C110.17 345.318 112.825 341 115.393 336.822C122.693 324.95 130.242 312.675 129.073 299.069C126.811 272.729 96.4129 259.475 67.0154 246.656C38.4766 234.213 11.52 222.459 7.39447 199.968C2.92536 175.604 32.921 154.104 62.6375 150.044C88.263 146.542 114.691 151.651 140.248 156.59C145.591 157.623 151.117 158.691 156.545 159.663C183.458 164.479 222.728 169.018 252.868 152.887C265.202 146.286 274.804 136.818 284.09 127.662C295.851 116.064 306.96 105.108 322.927 99.869C344.823 92.687 367.862 98.4748 392.255 104.601C406.908 108.282 422.059 112.087 437.238 112.979C464.013 114.536 491.214 105.395 511.889 87.8622C532.561 70.3298 542.783 47.7401 539.932 25.8853Z" fill="#45C2B1"/>
<path d="M534.201 25.0579L527.312 25.6873C532.281 62.1004 495.124 100.125 449.355 105.464C444.045 106.084 438.678 106.248 433.402 105.959C419.188 105.172 404.59 101.587 390.473 98.1212C366.159 92.1548 341.019 85.9847 317.134 93.9994C299.792 99.7844 287.821 111.725 276.244 123.272C267.549 131.945 258.557 140.914 247.462 146.995C232.71 155.08 214.109 158.491 190.588 157.42C180.926 156.985 170.435 155.789 158.513 153.765C153.026 152.829 147.402 151.785 141.964 150.775C116.367 146.021 89.8943 141.102 63.5427 144.707C44.803 147.271 26.8702 155.658 15.572 167.143C5.39574 177.466 1.18463 189.686 3.71609 201.549C7.8385 220.868 26.6797 232.701 44.5667 241.73C51.2334 245.096 58.3186 248.318 65.1713 251.435C90.4984 262.956 114.421 273.835 120.816 292.16C121.704 294.691 122.243 297.359 122.42 300.091C123.18 312.041 116.271 322.987 108.957 334.576C106.325 338.745 103.604 343.057 101.298 347.389C97.2867 354.929 94.4524 362.961 92.8742 371.266C88.1259 396.247 94.9846 422.132 111.691 442.287C114.568 445.758 117.791 449.124 121.272 452.288C145.367 474.189 180.745 486.284 215.93 484.632L215.534 478.963C182.928 480.5 148.784 468.815 126.421 448.487C123.152 445.516 120.126 442.356 117.426 439.099C101.694 420.119 95.2417 395.714 99.7226 372.139C101.21 364.316 103.878 356.751 107.652 349.656C109.866 345.497 112.535 341.27 115.114 337.182C122.531 325.431 130.199 313.281 129.341 299.794C129.137 296.63 128.511 293.537 127.48 290.597C120.295 270.014 93.9825 258.046 68.5362 246.472C61.7523 243.387 54.7368 240.197 48.204 236.897C31.6284 228.531 14.1936 217.675 10.5442 200.571C8.32992 190.197 11.9345 179.87 20.9676 170.708C31.2319 160.273 47.5738 152.648 64.684 150.307C89.6908 146.888 115.487 151.68 140.43 156.312C145.899 157.326 151.553 158.377 157.103 159.322C169.369 161.407 180.196 162.639 190.206 163.089C215.278 164.231 235.268 160.51 251.317 151.713C263.263 145.165 272.585 135.866 281.601 126.874C293.138 115.368 304.034 104.5 319.755 99.2553C341.378 91.9942 364.26 97.6127 388.482 103.56C402.966 107.115 417.943 110.792 432.934 111.622C438.688 111.944 444.545 111.761 450.333 111.084C473.712 108.358 496.376 97.4687 512.514 81.2113C528.912 64.6921 536.817 44.2244 534.201 25.0582V25.0579Z" fill="#45C2B1"/>
<path d="M528.471 24.2263L521.587 24.8859C526.729 60.943 490.159 98.6866 444.863 104.071C439.605 104.696 434.294 104.874 429.071 104.6C415.032 103.87 400.606 100.419 386.656 97.0816C362.513 91.3022 337.547 85.3273 313.924 93.3964C296.857 99.2244 285.118 111.059 273.765 122.504C265.321 131.018 256.589 139.822 245.847 145.856C231.476 153.926 213.351 157.466 190.443 156.675C180.999 156.359 170.716 155.291 158.999 153.412C153.392 152.507 147.635 151.483 142.068 150.492C117.101 146.05 91.2862 141.455 65.5888 144.969C46.3766 147.599 28.3806 156.122 17.4487 167.766C7.72748 178.075 3.97853 190.338 6.89528 202.288C11.4752 221.048 30.1356 232.878 47.7845 241.977C53.8698 245.121 60.2809 248.16 66.4813 251.1C91.6381 263.029 115.399 274.295 121.294 292.854C122.101 295.37 122.567 298.011 122.681 300.711C123.165 312.567 116.142 323.408 108.705 334.886C106.064 338.962 103.334 343.176 100.999 347.406C96.9009 354.836 93.9359 362.744 92.1887 370.912C86.9244 395.498 92.9543 421.102 108.735 441.157C111.461 444.625 114.529 447.992 117.854 451.166C140.782 473.055 176.322 485.805 210.588 484.461L210.254 478.79C178.072 480.077 144.681 468.058 123.115 447.471C119.995 444.492 117.117 441.333 114.562 438.083C99.7149 419.215 94.0485 395.088 99.0153 371.893C100.664 364.192 103.456 356.74 107.316 349.744C109.559 345.679 112.237 341.544 114.827 337.547C122.363 325.917 130.155 313.891 129.609 300.519C129.476 297.395 128.935 294.333 128 291.419C121.378 270.571 95.2355 258.175 69.9533 246.188C63.8095 243.275 57.4554 240.262 51.4793 237.175C34.248 228.291 17.7463 217.783 13.6923 201.175C11.1378 190.711 14.3353 180.357 22.9386 171.232C32.686 160.848 49.4645 152.933 66.7303 150.569C91.1106 147.235 116.269 151.71 140.596 156.04C146.195 157.037 151.985 158.068 157.663 158.982C169.733 160.919 180.359 162.019 190.155 162.346C214.611 163.198 234.113 159.329 249.766 150.538C261.336 144.039 270.389 134.911 279.144 126.084C290.454 114.683 301.135 103.913 316.59 98.6351C337.951 91.345 360.665 96.7767 384.712 102.53C399.024 105.955 413.825 109.496 428.629 110.266C434.329 110.561 440.125 110.37 445.857 109.69C469.009 106.937 491.409 96.0867 507.313 79.9208C523.465 63.5016 531.177 43.2028 528.47 24.2265L528.471 24.2263Z" fill="#45C2B1"/>
<path d="M522.739 23.3961L515.859 24.0835C521.175 59.7842 485.194 97.2452 440.368 102.678C435.177 103.306 429.915 103.496 424.738 103.245C410.878 102.57 396.626 99.2476 382.844 96.0337C358.859 90.4401 334.06 84.6592 310.709 92.7933C293.905 98.6504 282.395 110.393 271.263 121.749C263.077 130.102 254.612 138.738 244.23 144.719C230.235 152.777 212.597 156.442 190.294 155.929C181.051 155.731 170.975 154.792 159.484 153.06C153.752 152.188 147.859 151.187 142.161 150.219C117.829 146.081 92.6637 141.807 67.6336 145.231C48.2481 147.889 29.7377 156.763 19.3252 168.39C9.90956 178.834 6.70867 190.814 10.0764 203.027C15.0736 221.163 32.6983 232.584 50.9999 242.226C56.4546 245.108 62.1543 247.923 67.665 250.645C92.7213 263.018 116.388 274.706 121.772 293.545C122.497 296.044 122.89 298.661 122.944 301.332C123.149 313.094 116.007 323.831 108.446 335.2C105.799 339.181 103.062 343.296 100.701 347.423C96.5132 354.748 93.42 362.53 91.5041 370.554C85.7217 394.754 90.9237 420.075 105.777 440.024C108.349 443.484 111.263 446.855 114.437 450.043C136.537 472.25 171.313 485.382 205.245 484.29L204.975 478.618C173.206 479.633 140.561 467.309 119.809 446.456C116.835 443.469 114.105 440.311 111.697 437.07C97.7323 418.316 92.852 394.469 98.3071 371.644C100.114 364.074 103.031 356.735 106.978 349.83C109.249 345.861 111.935 341.822 114.533 337.917C122.189 326.405 130.106 314.501 129.875 301.244C129.812 298.158 129.357 295.131 128.518 292.241C122.47 271.082 96.4285 258.22 71.244 245.783C65.7772 243.083 60.1236 240.29 54.7532 237.454C37.6878 228.464 21.2856 217.921 16.837 201.777C13.9271 191.222 16.7184 180.84 24.9082 171.753C34.2992 161.267 51.1063 153.252 68.7767 150.83C92.5246 147.581 117.043 151.747 140.752 155.776C146.486 156.75 152.416 157.759 158.224 158.642C170.079 160.429 180.506 161.398 190.105 161.602C213.932 162.151 232.953 158.15 248.217 149.362C259.402 142.917 268.18 133.963 276.668 125.303C287.751 113.995 298.22 103.315 313.423 98.018C334.52 90.6655 357.07 95.9254 380.945 101.492C395.086 104.79 409.709 108.2 424.325 108.91C429.981 109.187 435.718 108.979 441.382 108.293C464.307 105.514 486.442 94.7024 502.112 78.6282C518.017 62.3114 525.536 42.1792 522.738 23.3953L522.739 23.3961Z" fill="#45C2B1"/>
<path d="M517.007 22.5658L510.132 23.2811C515.622 58.6257 480.228 95.8053 435.874 101.285C430.751 101.917 425.548 102.118 420.403 101.887C406.727 101.27 392.65 98.0738 379.037 94.9845C355.211 89.5765 330.571 83.9842 307.495 92.1947C290.951 98.0794 279.67 109.731 268.76 121C260.833 129.188 252.635 137.655 242.613 143.583C228.994 151.63 211.8 155.416 190.143 155.183C181.098 155.103 171.231 154.294 159.967 152.71C154.11 151.875 148.077 150.9 142.243 149.956C118.55 146.119 94.0516 142.158 69.68 145.493C49.8444 148.216 31.2702 157.229 21.2048 169.014C12.2199 179.445 9.46991 191.466 13.2581 203.77C18.663 221.316 36.138 232.742 54.2161 242.475C58.9619 245.039 63.8804 247.569 68.6374 250.015C93.68 262.893 117.333 275.057 122.252 294.242C122.894 296.746 123.216 299.339 123.208 301.95C123.133 313.623 115.87 324.259 108.182 335.518C105.53 339.402 102.788 343.417 100.403 347.439C96.1286 354.658 92.9047 362.315 90.8217 370.199C84.5205 394.015 88.8934 419.051 102.82 438.888C105.238 442.339 107.995 445.715 111.016 448.918C132.271 471.448 166.334 484.924 199.902 484.12L199.695 478.446C168.351 479.218 136.424 466.565 116.501 445.448C113.675 442.45 111.094 439.291 108.831 436.061C95.7486 417.426 91.6533 393.86 97.5957 371.401C99.562 363.957 102.605 356.729 106.639 349.918C108.936 346.045 111.628 342.102 114.231 338.29C122.011 326.897 130.054 315.117 130.139 301.973C130.149 298.958 129.778 295.967 129.037 293.075C123.512 271.532 97.4893 258.149 72.3235 245.207C67.5995 242.777 62.7143 240.266 58.0282 237.734C41.116 228.628 24.8046 218.045 19.9801 202.381C16.7005 191.732 19.0857 181.323 26.8767 172.278C35.9226 161.687 52.7593 153.572 70.824 151.092C93.9426 147.924 117.814 151.789 140.901 155.525C146.773 156.474 152.844 157.457 158.787 158.303C170.423 159.94 180.65 160.776 190.057 160.86C213.303 161.088 231.799 156.973 246.671 148.186C257.471 141.798 265.971 133.018 274.192 124.528C285.049 113.312 295.305 102.72 310.257 97.4004C331.086 89.9897 353.481 95.0747 377.186 100.455C391.154 103.625 405.597 106.904 420.022 107.555C425.639 107.807 431.318 107.588 436.907 106.898C459.607 104.095 481.477 93.3188 496.911 77.3374C512.571 61.1218 519.896 41.1568 517.007 22.5658Z" fill="#45C2B1"/>
<path d="M511.277 21.7357L504.407 22.4812C510.072 57.4695 475.265 94.3662 431.381 99.8922C426.32 100.527 421.167 100.74 416.072 100.53C402.576 99.9684 388.676 96.9001 375.232 93.9326C351.565 88.7104 327.09 83.3065 304.28 91.593C287.997 97.5082 276.945 109.073 266.256 120.256C258.587 128.279 250.657 136.576 240.996 142.446C227.752 150.486 211.067 154.41 189.991 154.44C181.149 154.483 171.495 153.796 160.449 152.356C154.46 151.564 148.282 150.616 142.306 149.7C119.256 146.166 95.42 142.511 71.7259 145.754C51.5045 148.535 32.8696 157.683 23.0911 169.633C14.5275 180.094 12.2295 192.155 16.4459 204.51C21.9034 220.501 36.7782 231.352 57.4335 242.724C61.4093 244.92 65.4539 247.081 69.482 249.234C94.6083 262.66 118.34 275.339 122.736 294.931C123.295 297.421 123.544 299.99 123.475 302.566C123.117 314.153 115.73 324.689 107.91 335.845C105.257 339.628 102.514 343.539 100.109 347.455C95.7459 354.566 92.3934 362.096 90.142 369.839C83.3207 393.277 86.8649 418.029 99.8664 437.748C102.132 441.196 104.735 444.575 107.6 447.788C127.591 470.204 160.029 483.966 192.641 483.966C193.282 483.966 193.918 483.96 194.559 483.95L194.419 478.273C163.416 478.828 132.269 465.825 113.198 444.439C110.519 441.435 108.087 438.277 105.967 435.054C93.7628 416.543 90.4536 393.253 96.8849 371.154C99.0121 363.838 102.18 356.723 106.301 350.005C108.621 346.231 111.315 342.388 113.921 338.671C121.827 327.395 130.002 315.733 130.405 302.701C130.484 299.73 130.198 296.773 129.553 293.906C124.62 271.918 98.5151 257.969 73.2696 244.48C69.2707 242.343 65.2566 240.199 61.3054 238.014C41.9173 227.341 28.0074 217.302 23.1216 202.983C19.4672 192.274 21.4478 181.835 28.848 172.793C37.601 162.099 54.4701 153.883 72.8715 151.354C95.3528 148.272 118.573 151.835 141.031 155.28C147.047 156.203 153.27 157.157 159.353 157.962C170.785 159.449 180.807 160.166 190.014 160.117C212.615 160.084 230.646 155.796 245.124 147.006C255.538 140.679 263.762 132.075 271.714 123.755C282.346 112.63 292.389 102.122 307.091 96.782C327.655 89.3132 349.889 94.2221 373.428 99.414C387.222 102.459 401.487 105.607 415.719 106.198C421.282 106.431 426.909 106.197 432.433 105.502C454.906 102.672 476.512 91.9366 491.712 76.0454C507.125 59.931 514.257 40.1354 511.277 21.7357Z" fill="#45C2B1"/>
<path d="M505.547 20.9039L498.681 21.68C504.521 56.3107 470.302 92.9249 426.888 98.4979C421.884 99.1381 416.786 99.3696 411.74 99.1713C398.426 98.6653 384.703 95.7244 371.432 92.8806C347.918 87.8412 323.602 82.6286 301.065 90.9929C285.04 96.9384 274.216 108.418 263.748 119.518C256.34 127.375 248.678 135.5 239.377 141.312C226.501 149.347 210.296 153.398 189.835 153.696C181.2 153.847 171.746 153.297 160.93 152.005C154.802 151.259 148.467 150.342 142.341 149.455C119.944 146.214 96.7846 142.865 73.7727 146.016C53.1233 148.859 34.4258 158.146 24.9744 170.255C16.8108 180.713 14.9647 192.814 19.6345 205.252C26.0615 222.371 44.1754 233.697 60.6495 242.97C63.7825 244.742 66.9504 246.498 70.1074 248.247C95.441 262.284 119.37 275.543 123.221 295.619C123.696 298.098 123.872 300.642 123.742 303.182C123.098 314.684 115.235 325.608 107.63 336.171C104.978 339.855 102.237 343.664 99.8137 347.471C95.3614 354.476 91.8797 361.881 89.4641 369.48C82.0122 392.885 84.6563 416.723 96.9097 436.606C99.0241 440.047 101.471 443.429 104.182 446.654C123.674 469.843 156.195 484.046 189.215 483.778L189.141 478.101C188.835 478.104 188.528 478.105 188.224 478.105C157.855 478.105 127.912 464.872 109.892 443.436C107.359 440.423 105.075 437.265 103.1 434.051C91.6052 415.4 89.1457 392.979 96.1711 370.911C98.4564 363.722 101.75 356.719 105.961 350.095C108.3 346.419 110.995 342.675 113.601 339.054C121.635 327.893 129.943 316.352 130.667 303.431C130.816 300.506 130.615 297.586 130.068 294.737C125.75 272.225 99.438 257.645 73.9921 243.544C70.8528 241.804 67.703 240.059 64.5814 238.295C44.7823 227.151 31.4686 217.459 26.2601 203.583C22.2071 192.789 23.7828 182.322 30.8148 173.312C39.2445 162.513 56.1443 154.199 74.9195 151.615C96.7537 148.62 119.316 151.888 141.135 155.046C147.308 155.938 153.689 156.863 159.92 157.622C171.131 158.961 180.96 159.528 189.972 159.372C211.948 159.051 229.488 154.62 243.579 145.826C253.608 139.56 261.552 131.135 269.235 122.988C279.642 111.951 289.472 101.527 303.925 96.1621C324.226 88.6308 346.305 93.3623 369.677 98.3712C383.296 101.29 397.378 104.309 411.417 104.842C416.926 105.052 422.495 104.806 427.96 104.105C474.895 98.0816 511.874 58.424 505.547 20.9034L505.547 20.9039Z" fill="#45C2B1"/>
<path d="M499.815 20.0726L492.955 20.8793C498.97 55.1539 465.338 91.4852 422.393 97.1053C417.452 97.7512 412.411 97.9883 407.407 97.8149C394.277 97.3645 380.733 94.5495 367.634 91.8263C344.275 86.9727 320.117 81.95 297.849 90.3945C282.079 96.3722 271.482 107.77 261.236 118.793C254.089 126.481 246.698 134.43 237.756 140.181C225.311 148.173 209.581 152.352 189.669 152.954C181.13 153.211 171.889 152.786 161.408 151.656C155.142 150.959 148.65 150.078 142.371 149.225C120.629 146.271 98.1457 143.217 75.8201 146.279C54.7493 149.182 35.9899 158.609 26.8599 170.879C19.0816 181.334 17.6864 193.477 22.8265 205.995C29.5719 222.426 46.7979 233.393 63.8639 243.218C66.0546 244.486 68.2587 245.748 70.4577 247.01C96.1551 261.737 120.428 275.649 123.706 296.304C124.109 298.837 124.208 301.286 124.01 303.791C123.109 315.214 115.105 326.027 107.365 336.484C104.709 340.072 101.962 343.783 99.5194 347.489C94.9784 354.388 91.3679 361.664 88.7873 369.119C80.8027 392.151 82.6385 415.712 93.9564 435.461C95.9192 438.899 98.2113 442.284 100.766 445.518C119.345 469.041 151.165 483.592 183.871 483.608L183.864 477.931H183.775C153.451 477.931 123.884 464.337 106.585 442.436C104.202 439.417 102.065 436.26 100.233 433.051C89.6232 414.539 87.9268 392.385 95.4555 370.668C97.8992 363.61 101.319 356.717 105.62 350.184C107.98 346.604 110.68 342.955 113.292 339.428C121.465 328.386 129.917 316.967 130.928 304.156C131.151 301.322 131.034 298.434 130.581 295.572C126.908 272.433 100.231 257.144 74.4323 242.358C72.2407 241.103 70.0451 239.844 67.8569 238.577C51.7257 229.29 35.4733 218.988 29.3958 204.185C24.9301 193.307 26.0993 182.811 32.7796 173.834C40.8931 162.928 57.8247 154.516 76.9672 151.878C98.1507 148.976 120.053 151.949 141.236 154.826C147.565 155.685 154.109 156.574 160.489 157.282C171.371 158.458 180.993 158.9 189.925 158.627C211.351 157.979 228.396 153.405 242.035 144.647C251.675 138.446 259.339 130.203 266.751 122.231C276.933 111.278 286.55 100.931 300.761 95.5459C320.797 87.9481 342.72 92.505 365.928 97.3296C379.37 100.122 393.268 103.012 407.114 103.486C412.58 103.673 418.088 103.417 423.485 102.71C469.958 96.6297 506.34 57.241 499.815 20.0726Z" fill="#45C2B1"/>
<path d="M494.083 19.2409L487.228 20.0807C493.42 53.9962 460.374 90.0448 417.897 95.7121C413.021 96.3605 408.035 96.6156 403.073 96.4563C390.129 96.0613 376.764 93.3712 363.84 90.7697C340.631 86.0989 316.631 81.2674 294.632 89.794C279.114 95.8061 268.747 107.125 258.722 118.07C251.836 125.589 244.716 133.363 236.135 139.049C224.063 147.037 208.809 151.343 189.505 152.212C181.154 152.587 171.864 152.282 161.89 151.305C155.338 150.662 148.547 149.804 141.98 148.974C121.03 146.325 99.3654 143.591 77.8638 146.54C56.3785 149.505 37.5581 159.071 28.7459 171.504C21.3355 181.958 20.3922 194.142 26.0181 206.736C33.0426 222.46 49.4489 233.08 67.0794 243.464L70.4605 245.462C96.719 260.978 121.522 275.632 124.194 296.987C124.511 299.516 124.538 301.943 124.28 304.403C123.091 315.75 114.945 326.462 107.068 336.823C104.419 340.306 101.68 343.908 99.2259 347.503C94.595 354.297 90.856 361.447 88.112 368.758C79.5908 391.422 80.6172 414.704 91.0022 434.311C92.8145 437.746 94.9501 441.135 97.3474 444.38C114.722 467.877 146.586 483.207 178.525 483.436L178.586 477.759C148.995 477.548 119.435 463.291 103.277 441.439C101.043 438.416 99.0532 435.259 97.3636 432.056C87.633 413.685 86.7015 391.801 94.7372 370.428C97.3381 363.497 100.884 356.717 105.277 350.272C107.651 346.796 110.346 343.251 112.953 339.823C121.261 328.894 129.854 317.593 131.186 304.888C131.482 302.07 131.451 299.295 131.09 296.408C128.1 272.519 100.859 256.424 74.5151 240.858L71.1331 238.858C54.4078 229.008 38.8758 218.995 32.5282 204.784C27.5624 193.669 28.3071 183.431 34.74 174.353C42.5454 163.341 59.5093 154.829 79.0122 152.139C99.4086 149.335 120.514 152.006 140.924 154.584C147.548 155.421 154.398 156.287 161.066 156.94C171.439 157.957 181.136 158.273 189.886 157.879C210.693 156.942 227.246 152.226 240.492 143.463C249.745 137.331 257.127 129.272 264.267 121.476C274.224 110.604 283.628 100.336 297.596 94.9237C317.368 87.2609 339.138 91.6433 362.186 96.282C375.448 98.9515 389.163 101.712 402.811 102.129C408.228 102.296 413.678 102.024 419.01 101.313C465.023 95.1745 500.805 56.056 494.083 19.2396L494.083 19.2409Z" fill="#45C2B1"/>
<path d="M488.352 18.408L481.504 19.281C487.871 52.8404 455.413 88.6064 413.404 94.3192C408.598 94.9707 403.661 95.2312 398.737 95.101C385.982 94.7602 372.799 92.1947 360.05 89.7139C336.992 85.2235 313.148 80.5832 291.415 89.1942C276.148 95.2437 266.01 106.487 256.207 117.36C249.583 124.705 242.735 132.3 234.513 137.92C222.809 145.904 208.032 150.338 189.34 151.473C181.17 151.968 172.096 151.793 162.365 150.955C155.656 150.377 148.685 149.562 141.943 148.774C121.668 146.401 100.704 143.948 79.912 146.803C62.7501 149.174 40.7948 157.073 30.6357 172.128C23.5772 182.59 23.0858 194.814 29.2159 207.48C36.4654 222.461 52.1092 232.751 70.295 243.712C97.2236 260.04 122.665 275.468 124.686 297.668C124.916 300.188 124.872 302.591 124.553 305.015C123.071 316.29 114.78 326.905 106.762 337.17C104.124 340.548 101.396 344.039 98.9352 347.521C94.2122 354.212 90.3456 361.236 87.4416 368.396C78.3789 390.7 78.5955 413.7 88.0525 433.157C89.7095 436.586 91.6891 439.979 93.934 443.237C110.364 467.07 141.471 482.781 173.182 483.265L173.311 477.588C144.004 477.143 115.216 462.563 99.97 440.446C97.8799 437.414 96.0381 434.256 94.4957 431.063C85.6393 412.842 85.471 391.225 94.0186 370.188C96.776 363.39 100.448 356.72 104.935 350.363C107.319 346.992 110.003 343.554 112.6 340.229C121.051 329.412 129.788 318.224 131.445 305.622C131.81 302.853 131.859 300.113 131.599 297.246C129.342 272.452 101.417 255.518 74.4115 239.143C57.094 228.707 42.2311 218.968 35.66 205.387C30.2423 194.194 30.5933 183.928 36.7023 174.875C45.6694 161.585 65.4966 154.551 81.061 152.4C100.791 149.696 121.213 152.083 140.964 154.392C147.768 155.189 154.803 156.012 161.641 156.601C171.777 157.473 181.269 157.656 189.852 157.133C210.036 155.91 226.096 151.05 238.952 142.28C247.816 136.221 254.916 128.347 261.783 120.731C271.515 109.938 280.707 99.7441 294.434 94.3055C313.946 86.5718 335.563 90.7796 358.448 95.2368C371.53 97.7829 385.058 100.416 398.511 100.775C403.891 100.926 409.283 100.634 414.539 99.9184C460.09 93.7246 495.273 54.8737 488.352 18.408Z" fill="#45C2B1"/>
<path d="M482.62 17.5763L475.777 18.4799C482.323 51.6832 450.451 87.1665 408.908 92.9265C404.167 93.5821 399.295 93.8566 394.403 93.7442C381.836 93.4572 368.837 91.0151 356.266 88.6535C333.352 84.3474 309.662 79.9001 288.196 88.5967C273.176 94.6837 263.267 105.855 253.685 116.658C247.327 123.828 240.751 131.242 232.889 136.792C221.551 144.779 207.25 149.34 189.172 150.733C181.198 151.348 172.337 151.304 162.838 150.604C155.96 150.099 149.115 149.364 141.868 148.585C122.282 146.483 102.028 144.31 81.9573 147.065C64.4773 149.483 42.3157 157.501 32.5263 172.753C25.7081 183.375 25.6711 195.31 32.4155 208.221C40.4191 223.544 57.2415 233.921 73.5105 243.955C101.063 261.063 123.975 276.97 125.18 298.348C125.322 300.861 125.206 303.241 124.828 305.624C123.048 316.831 114.605 327.353 106.44 337.527C103.818 340.794 101.108 344.172 98.6445 347.535C93.8328 354.119 89.8392 361.015 86.7718 368.033C77.1633 389.983 76.5704 412.701 85.1043 432.001C86.6085 435.427 88.4322 438.822 90.5211 442.089C105.98 466.257 136.328 482.352 167.837 483.093L168.035 477.418C138.992 476.737 110.975 461.835 96.6605 439.456C94.7188 436.418 93.0239 433.262 91.6238 430.074C83.6363 412.008 84.2313 390.658 93.2972 369.947C96.213 363.276 100.012 356.717 104.591 350.453C106.979 347.192 109.649 343.864 112.232 340.646C120.827 329.934 129.716 318.859 131.702 306.356C132.132 303.64 132.264 300.934 132.104 298.087C130.761 274.252 106.666 257.418 77.6898 239.426C62.1373 229.833 46.0653 219.92 38.7887 205.988C32.9047 194.725 32.8624 184.431 38.6626 175.395C47.2744 161.976 67.268 154.854 83.1085 152.662C102.154 150.048 121.886 152.165 140.968 154.213C147.965 154.966 155.2 155.742 162.218 156.259C172.141 156.991 181.427 157.032 189.823 156.385C209.379 154.877 224.946 149.875 237.412 141.094C245.887 135.112 252.703 127.427 259.294 119.996C268.801 109.277 277.782 99.1522 291.271 93.6861C310.522 85.8803 331.989 89.9178 354.717 94.1864C367.618 96.6105 380.957 99.1163 394.21 99.4183C399.539 99.5429 404.877 99.2424 410.065 98.5229C455.159 92.2709 489.741 53.6887 482.621 17.5763H482.62Z" fill="#45C2B1"/>
<path d="M476.888 16.7437L470.051 17.6832C476.775 50.5276 445.49 85.7264 404.413 91.5323C399.728 92.1935 394.899 92.4803 390.068 92.3875C377.69 92.1545 364.874 89.8345 352.481 87.5922C329.713 83.4719 306.173 79.2099 284.977 87.9995C270.202 94.1269 260.522 105.23 251.162 115.968C244.787 123.282 238.765 130.189 231.263 135.665C220.287 143.661 206.461 148.348 189.001 149.995C181.212 150.731 172.568 150.816 163.307 150.257C156.265 149.83 149.234 149.144 141.791 148.417C122.894 146.573 103.355 144.667 84.0035 147.327C66.2089 149.791 43.8416 157.928 34.4175 173.379C27.9252 184.021 28.3288 195.993 35.6164 208.963C43.6984 223.349 59.3254 233.216 75.8704 243.662L76.7235 244.201C101.231 259.786 125.207 276.864 125.676 299.026C125.727 301.533 125.54 303.891 125.103 306.233C123.021 317.378 114.421 327.806 106.104 337.89C103.504 341.044 100.815 344.306 98.3548 347.55C93.4481 354.036 89.3269 360.805 86.103 367.67C75.9429 389.274 74.5409 411.71 82.1567 430.843C83.5071 434.264 85.174 437.662 87.1082 440.94C101.574 465.446 131.163 481.925 162.491 482.92L162.76 477.249C133.96 476.333 106.714 461.111 93.3494 438.47C91.5521 435.425 90.0048 432.269 88.749 429.09C81.6239 411.186 82.9818 390.1 92.5717 369.709C95.6415 363.174 99.5682 356.725 104.246 350.542C106.634 347.392 109.284 344.177 111.849 341.068C120.594 330.463 129.637 319.498 131.955 307.093C132.452 304.429 132.665 301.76 132.606 298.929C132.085 274.257 106.81 256.147 80.9657 239.711L80.1027 239.166C64.2532 229.159 49.2829 219.707 41.9142 206.59C35.5488 195.263 35.1131 184.942 40.6186 175.915C47.4274 164.753 64.9089 155.729 85.1559 152.925C103.523 150.4 122.562 152.257 140.972 154.054C148.163 154.756 155.6 155.482 162.797 155.917C172.492 156.505 181.575 156.409 189.795 155.636C208.72 153.851 223.793 148.706 235.873 139.905C243.958 134.005 250.488 126.513 256.804 119.267C266.087 108.619 274.854 98.5609 288.109 93.0645C307.096 85.1922 328.414 89.0507 350.986 93.1351C363.704 95.437 376.856 97.8182 389.908 98.0621C395.189 98.1755 400.464 97.85 405.591 97.1267C450.228 90.8179 484.21 52.5045 476.889 16.7442L476.888 16.7437Z" fill="#45C2B1"/>
<path d="M471.156 15.9107L464.327 16.8836C471.229 49.3717 440.529 84.2881 399.918 90.1396C395.296 90.8048 390.522 91.1084 385.734 91.0294C373.546 90.8505 360.917 88.6525 348.704 86.5278C326.079 82.589 302.685 78.5196 281.758 87.4023C267.222 93.5712 257.773 104.614 248.634 115.293C242.538 122.417 236.78 129.144 229.637 134.542C219.016 142.549 205.666 147.364 188.826 149.259C181.228 150.114 172.8 150.333 163.775 149.906C156.564 149.568 149.343 148.936 141.698 148.266C123.494 146.674 104.671 145.026 86.049 147.589C67.9438 150.1 45.3736 158.356 36.3115 174.002C30.1316 184.674 30.9753 196.685 38.8202 209.704C46.9269 223.158 61.6021 232.62 77.1394 242.637L79.9382 244.443C107.906 262.666 126.476 279.04 126.174 299.703C126.137 302.202 125.878 304.537 125.381 306.842C122.99 317.928 114.226 328.267 105.752 338.267C103.178 341.304 100.516 344.444 98.0664 347.565C93.0667 353.949 88.8183 360.591 85.4381 367.305C74.7188 388.569 72.5069 410.72 79.2125 429.68C80.4072 433.091 81.9166 436.494 83.6974 439.786C97.1449 464.63 125.975 481.494 157.144 482.75L157.484 477.078C124.986 475.77 100.191 456.252 90.0342 437.487C88.3825 434.433 86.9824 431.276 85.8719 428.107C79.5996 410.372 81.7218 389.55 91.8455 369.472C95.0691 363.067 99.1236 356.729 103.899 350.632C106.28 347.598 108.906 344.5 111.446 341.503C120.346 331.002 129.55 320.142 132.207 307.829C132.77 305.218 133.063 302.582 133.105 299.772C133.461 275.447 109.831 256.666 84.243 239.995L81.4262 238.178C66.5234 228.569 52.4476 219.492 45.0356 207.193C38.0789 195.648 37.2741 185.586 42.5742 176.436C49.1001 165.167 66.6174 156.041 87.2018 153.187C104.881 150.753 123.224 152.358 140.961 153.912C148.352 154.558 155.996 155.227 163.377 155.575C172.847 156.021 181.727 155.788 189.768 154.884C208.056 152.827 222.634 147.538 234.334 138.718C242.027 132.904 248.271 125.608 254.309 118.552C263.367 107.968 271.922 97.9708 284.947 92.4423C303.673 84.4966 324.846 88.1805 347.262 92.0806C359.796 94.2619 372.756 96.5169 385.606 96.7068C390.842 96.7762 396.057 96.4588 401.118 95.7311C445.296 89.3655 478.678 51.3195 471.155 15.9114L471.156 15.9107Z" fill="#45C2B1"/>
<path d="M465.423 15.0763L458.602 16.0851C461.901 31.0589 457.046 47.599 445.282 61.4627C432.986 75.9528 414.813 85.8971 395.423 88.7465C390.872 89.4145 386.153 89.7291 381.397 89.6722C369.402 89.5463 356.96 87.4687 344.927 85.4602C322.444 81.7084 299.195 77.8277 278.537 86.806C264.239 93.0205 255.019 104.005 246.103 114.629C240.287 121.559 234.792 128.105 228.009 133.42C217.743 141.446 204.866 146.387 188.646 148.524C181.244 149.5 173.029 149.846 164.239 149.559C156.856 149.317 149.436 148.743 141.581 148.136C124.078 146.784 105.979 145.389 88.0942 147.852C69.6828 150.406 46.9112 158.781 38.2073 174.627C32.3234 185.336 33.6087 197.387 42.0266 210.445C50.1071 222.978 63.8599 232.009 78.4197 241.571C79.9919 242.604 81.5717 243.64 83.1511 244.687C105.318 259.487 127.833 277.685 126.676 300.378C126.549 302.868 126.216 305.181 125.66 307.448C122.953 318.48 114.021 328.734 105.381 338.65C102.84 341.568 100.212 344.583 97.7781 347.578C92.6819 353.865 88.3077 360.378 84.7741 366.94C73.3237 388.174 70.3827 409.467 76.2688 428.514C77.312 431.925 78.6658 435.33 80.2895 438.63C90.4539 459.262 116.507 480.853 151.796 482.574L152.209 476.909C119.941 475.334 96.0652 455.482 86.7183 436.507C85.213 433.449 83.959 430.293 82.9902 427.126C77.4854 409.314 80.2954 389.297 91.1155 369.231C94.4907 362.964 98.6738 356.737 103.55 350.722C105.919 347.806 108.514 344.827 111.024 341.947C120.086 331.544 129.457 320.789 132.456 308.565C133.083 306.006 133.458 303.405 133.601 300.616C134.886 275.418 111.028 255.975 87.5203 240.281C85.9229 239.222 84.3356 238.18 82.7559 237.142C68.7722 227.96 55.564 219.287 48.1554 207.796C40.6824 196.202 39.4954 186.115 44.5272 176.956C52.1222 163.132 73.3645 155.653 89.2482 153.45C106.236 151.109 123.872 152.471 140.93 153.788C148.531 154.376 156.391 154.983 163.96 155.231C173.21 155.538 181.89 155.166 189.748 154.129C207.398 151.803 221.479 146.372 232.797 137.525C240.099 131.803 246.055 124.706 251.815 117.844C260.646 107.322 268.989 97.3821 281.786 91.8204C300.248 83.7972 321.278 87.3063 343.542 91.0221C355.89 93.0844 368.658 95.2161 381.305 95.3489C386.506 95.4085 391.66 95.0647 396.645 94.3344C417.834 91.2202 437.635 80.421 450.974 64.7026C463.781 49.6111 469.047 31.5231 465.423 15.0758L465.423 15.0763Z" fill="#45C2B1"/>
<path d="M459.69 14.2433L452.877 15.2883C456.259 30.0903 451.569 46.4765 440.009 60.2431C427.95 74.6057 410.059 84.4875 390.926 87.3538C386.438 88.0259 381.791 88.346 377.061 88.3157C365.26 88.2408 353.006 86.2837 341.157 84.3907C318.812 80.822 295.705 77.1311 275.316 86.2106C261.251 92.4722 252.263 103.406 243.57 113.978C238.034 120.712 232.804 127.073 226.38 132.3C216.466 140.349 204.062 145.417 188.463 147.794C181.263 148.89 173.274 149.368 164.7 149.212C157.143 149.076 149.521 148.567 141.449 148.028C124.652 146.908 107.285 145.75 90.1399 148.114C71.4238 150.714 48.4533 159.207 40.103 175.251C34.5035 186.01 36.2305 198.101 45.2356 211.186C53.2492 222.829 66.1297 231.415 79.7667 240.504C81.958 241.965 84.1648 243.436 86.3645 244.93C116.207 265.353 128.798 282.664 127.181 301.053C126.962 303.536 126.557 305.827 125.943 308.054C122.913 319.041 113.801 329.212 104.989 339.05C102.487 341.842 99.9007 344.731 97.4919 347.594C92.2967 353.784 87.7961 360.169 84.1138 366.576C72.0786 387.478 68.3496 408.492 73.3307 427.343C74.2207 430.757 75.418 434.166 76.8854 437.47C86.175 458.379 111.287 480.381 146.449 482.403L146.935 476.74C114.873 474.896 91.9226 454.713 83.3989 435.53C82.0408 432.471 80.9331 429.315 80.1075 426.15C75.4494 408.522 79.0032 388.76 90.3842 368.996C93.9075 362.864 98.2201 356.747 103.201 350.812C105.55 348.021 108.106 345.167 110.578 342.408C119.81 332.102 129.356 321.444 132.703 309.305C133.395 306.798 133.85 304.232 134.094 301.461C136.393 275.324 112.163 255.189 90.7979 240.566C88.5717 239.055 86.349 237.573 84.1415 236.101C71.0283 227.36 58.642 219.106 51.273 208.398C43.2703 196.77 41.7017 186.656 46.479 177.477C53.7419 163.522 75.1606 155.953 91.2946 153.712C107.586 151.466 124.515 152.594 140.886 153.687C148.703 154.208 156.785 154.747 164.547 154.889C173.578 155.054 182.063 154.541 189.729 153.375C206.74 150.783 220.325 145.208 231.262 136.331C238.172 130.707 243.839 123.814 249.319 117.149C257.925 106.682 266.052 96.7964 278.626 91.197C296.827 83.0935 317.715 86.4295 339.829 89.962C351.988 91.9053 364.562 93.9134 377.004 93.9924C382.165 94.0255 387.253 93.6748 392.171 92.9391C413.106 89.8012 432.623 79.0573 445.72 63.4598C458.316 48.4582 463.408 30.5198 459.689 14.2433H459.69Z" fill="#45C2B1"/>
<path d="M453.957 13.4089L447.152 14.4899C450.617 29.1214 446.092 45.3551 434.736 59.0261C422.913 73.26 405.306 83.0778 386.431 85.9622C381.999 86.6371 377.409 86.9379 372.725 86.9585C361.117 86.9364 349.054 85.0973 337.388 83.3177C315.181 79.9345 292.216 76.4308 272.093 85.614C258.258 91.9284 249.502 102.817 241.033 113.346C235.778 119.877 230.816 126.048 224.75 131.183C215.18 139.263 203.249 144.459 188.277 147.063C181.472 148.245 173.901 148.834 165.133 148.865C157.085 148.898 149.011 148.435 140.415 147.954C124.623 147.069 108.292 146.154 92.1858 148.376C73.1675 151.021 50 159.632 42.0017 175.874C36.5977 186.848 38.7062 198.641 48.4477 211.924C56.3511 222.704 68.3965 230.827 81.15 239.427C83.9497 241.315 86.774 243.219 89.5775 245.17C117.921 265.059 130.036 283.033 127.688 301.727C127.379 304.195 126.902 306.463 126.227 308.658C122.866 319.606 113.564 329.702 104.57 339.466C102.118 342.129 99.5823 344.881 97.2061 347.609C91.9094 353.704 87.2838 359.962 83.4558 366.209C70.8265 386.79 66.3101 407.525 70.3961 426.172C71.1312 429.578 72.1704 432.992 73.4843 436.307C81.8795 457.491 106.043 479.905 141.102 482.228L141.661 476.571C109.957 474.47 87.5132 453.319 80.0775 434.556C78.8625 431.489 77.9011 428.334 77.2208 425.177C73.4 407.74 77.6979 388.233 89.6503 368.758C93.3199 362.766 97.7613 356.761 102.852 350.904C105.171 348.24 107.679 345.518 110.103 342.886C119.513 332.67 129.245 322.106 132.949 310.044C133.705 307.58 134.24 305.049 134.584 302.307C137.184 281.596 124.312 262.068 94.0765 240.852C91.235 238.874 88.3837 236.951 85.5559 235.044C73.2771 226.764 61.6785 218.943 54.3891 209.003C45.844 197.35 43.8945 187.207 48.4309 177.998C55.3673 163.911 76.9603 156.252 93.3429 153.974C108.636 151.86 124.551 152.753 139.943 153.619C148.284 154.087 156.869 154.589 165.162 154.542C174.411 154.51 182.442 153.879 189.717 152.615C206.078 149.77 219.167 144.052 229.729 135.133C236.248 129.614 241.623 122.931 246.821 116.468C255.2 106.052 263.114 96.2113 275.468 90.5734C293.405 82.3866 314.155 85.5493 336.12 88.8993C348.091 90.7245 360.47 92.6123 372.705 92.6357C377.779 92.6151 382.841 92.2824 387.699 91.5435C408.38 88.3836 427.613 77.6951 440.467 62.2196C452.855 47.3068 457.771 29.5149 453.957 13.4089Z" fill="#45C2B1"/>
<path d="M448.224 12.5746L441.428 13.6918C444.977 28.1543 440.615 44.2325 429.463 57.8083C417.876 71.9144 400.551 81.6673 381.934 84.5682C377.569 85.2474 373.011 85.5954 368.388 85.6035H368.117C356.79 85.6035 345.018 83.896 333.629 82.2441C311.553 79.0411 288.725 75.7301 268.871 85.0201C255.259 91.3901 246.735 102.24 238.491 112.732C233.52 119.059 228.826 125.034 223.119 130.07C213.889 138.19 202.429 143.511 188.087 146.336C181.293 147.673 173.732 148.409 165.614 148.52C157.691 148.637 149.645 148.267 141.118 147.883C125.76 147.19 109.877 146.477 94.2314 148.639C74.9137 151.328 51.5508 160.058 43.9016 176.497C38.7615 187.546 41.2992 199.376 51.6597 212.662C59.3602 222.537 70.5196 230.132 82.3338 238.172C85.7759 240.514 89.3353 242.937 92.7842 245.408C119.357 264.454 131.273 283.629 128.199 302.4C127.797 304.857 127.246 307.102 126.512 309.264C122.811 320.179 113.312 330.202 104.126 339.897C101.731 342.423 99.2548 345.037 96.9219 347.623C91.5204 353.627 86.7693 359.756 82.7994 365.845C69.5635 386.11 64.261 406.565 67.4653 424.998C68.0448 428.401 68.9265 431.817 70.0848 435.144C77.3232 455.904 100.961 479.439 135.752 482.055L136.387 476.403C104.842 474.029 83.3605 452.544 76.7505 433.586C75.6803 430.513 74.8655 427.357 74.3289 424.206C71.3328 406.969 76.3755 387.715 88.9127 368.521C92.7261 362.672 97.2979 356.775 102.5 350.994C104.781 348.465 107.232 345.878 109.602 343.377C119.199 333.248 129.123 322.775 133.192 310.784C134.011 308.369 134.625 305.873 135.07 303.154C138.472 282.38 125.78 261.515 97.3486 241.137C93.8337 238.617 90.2394 236.171 86.7637 233.806C75.3765 226.056 64.6208 218.737 57.5016 209.608C48.4041 197.941 46.074 187.772 50.3797 178.518C56.9956 164.3 78.761 156.551 95.3888 154.236C110.267 152.181 125.757 152.877 140.738 153.552C149.011 153.923 157.566 154.3 165.729 154.198C174.354 154.078 182.421 153.291 189.707 151.855C205.415 148.763 218.005 142.901 228.195 133.935C234.322 128.528 239.404 122.06 244.319 115.805C252.471 105.43 260.17 95.6317 272.309 89.9492C289.986 81.6777 310.597 84.6686 332.42 87.8341C344.102 89.5291 356.181 91.281 368.112 91.281H368.405C373.454 91.2728 378.442 90.8902 383.228 90.1459C403.652 86.9639 422.6 76.3322 435.214 60.9786C447.392 46.1544 452.134 28.5112 448.224 12.5757V12.5746Z" fill="#45C2B1"/>
<path d="M442.491 11.74L435.704 12.8959C439.336 27.185 435.14 43.1111 424.193 56.5894C412.841 70.5669 395.799 80.2573 377.437 83.1748C373.145 83.8566 368.64 84.217 364.05 84.2461C352.829 84.2864 341.162 82.7188 329.87 81.1652C307.925 78.1465 285.233 75.0254 265.646 84.4263C252.254 90.8572 243.964 101.676 235.946 112.138C231.261 118.252 226.835 124.027 221.486 128.958C212.599 137.124 201.61 142.573 187.893 145.611C181.302 147.07 173.958 147.933 166.068 148.175C157.972 148.424 149.688 148.143 140.918 147.848C126.289 147.353 111.161 146.84 96.2784 148.901C76.6647 151.634 53.1085 160.482 45.8048 177.119C40.9158 188.258 43.8843 200.126 54.8768 213.4C62.4015 222.485 72.8239 229.606 83.8588 237.146C87.8695 239.886 92.0171 242.72 95.9983 245.647C121.612 264.481 132.62 283.801 128.716 303.071C128.221 305.519 127.595 307.742 126.803 309.867C122.748 320.757 113.039 330.715 103.65 340.346C101.324 342.732 98.9181 345.199 96.6403 347.638C91.1252 353.557 86.2509 359.558 82.1481 365.478C68.2938 385.433 62.2051 405.608 64.5396 423.821C64.965 427.223 65.6895 430.643 66.692 433.975C73.0268 454.997 95.6674 478.954 130.405 481.88L131.114 476.234C99.7099 473.588 79.194 451.769 73.4218 432.615C72.4962 429.539 71.8268 426.384 71.4343 423.236C69.2505 406.202 75.0398 387.202 88.1748 368.282C92.1245 362.583 96.8255 356.798 102.149 351.084C104.38 348.694 106.761 346.251 109.065 343.889C118.862 333.841 128.992 323.452 133.433 311.523C134.314 309.157 135.008 306.696 135.554 304C139.81 282.992 127.733 261.352 100.628 241.423C96.5528 238.426 92.357 235.56 88.2981 232.787C77.6488 225.511 67.5892 218.638 60.6132 210.213C50.9514 198.547 48.2413 188.349 52.327 179.04C58.6273 164.687 80.5646 156.848 97.4361 154.497C111.598 152.538 126.356 153.039 140.631 153.52C149.147 153.807 157.956 154.102 166.327 153.848C174.741 153.589 182.606 152.662 189.702 151.091C204.759 147.756 216.85 141.751 226.664 132.732C232.4 127.445 237.187 121.198 241.817 115.156C249.74 104.816 257.223 95.0511 269.152 89.3243C286.565 80.9641 307.04 83.7806 328.721 86.7631C340.308 88.357 352.268 89.9745 364.107 89.9232C369.117 89.8914 374.047 89.4963 378.756 88.7492C398.928 85.5435 417.592 74.9673 429.963 59.7343C441.931 44.9988 446.497 27.5055 442.49 11.7402L442.491 11.74Z" fill="#45C2B1"/>
<path d="M436.756 10.9043L429.98 12.099C433.695 26.2164 429.664 41.99 418.921 55.3728C407.805 69.2225 391.045 78.8479 372.94 81.7832C368.712 82.4679 364.261 82.8395 359.713 82.8892C348.696 83.0223 337.22 81.5256 326.116 80.0826C304.295 77.247 281.735 74.3142 262.422 83.8331C249.242 90.329 241.187 101.126 233.398 111.566C228.999 117.463 224.844 123.032 219.852 127.849C211.301 136.074 200.781 141.649 187.695 144.889C181.316 146.468 174.19 147.459 166.515 147.833C158.23 148.238 149.713 148.046 140.697 147.842C126.804 147.531 112.436 147.208 98.3238 149.162C78.4163 151.938 54.6675 160.904 47.7071 177.741C43.0612 188.981 46.4591 200.885 58.0949 214.136C65.413 222.468 75.1407 229.118 85.439 236.156C90.0074 239.278 94.7301 242.506 99.2105 245.886C116.194 258.701 135.19 279.141 129.234 303.743C128.645 306.177 127.945 308.376 127.094 310.47C122.673 321.346 112.74 331.244 103.134 340.816C100.842 343.1 98.5606 345.373 96.3581 347.651C90.7291 353.486 85.73 359.36 81.4968 365.113C67.0105 384.766 60.1356 404.659 61.6173 422.642C61.8853 426.043 62.4523 429.465 63.302 432.805C68.7147 454.084 90.3482 478.463 125.056 481.706L125.841 476.065C95.9452 473.272 75.1644 451.606 70.0878 431.647C69.3054 428.569 68.7822 425.413 68.5342 422.268C67.1477 405.446 73.6827 386.698 87.4324 368.044C91.5165 362.495 96.3479 356.818 101.795 351.173C103.968 348.924 106.224 346.677 108.488 344.421C118.496 334.449 128.844 324.139 133.67 312.264C134.614 309.942 135.388 307.515 136.034 304.846C141.242 283.331 130.133 261.499 103.906 241.712C99.302 238.237 94.5123 234.964 89.8804 231.798C79.9282 224.996 70.5279 218.571 63.7218 210.82C53.4873 199.166 50.3963 188.94 54.2732 179.562C60.2551 165.09 81.5503 157.26 99.4837 154.759C112.923 152.897 126.944 153.212 140.507 153.517C149.274 153.714 158.342 153.917 166.926 153.499C175.142 153.098 182.804 152.03 189.7 150.322C204.099 146.758 215.689 140.609 225.133 131.526C230.477 126.369 234.969 120.348 239.312 114.526C246.667 104.669 254.271 94.4753 265.995 88.6972C283.144 80.2442 303.489 82.8872 325.029 85.6882C336.421 87.1683 348.201 88.6984 359.808 88.5653C364.772 88.5113 369.644 88.1025 374.284 87.3513C394.202 84.1221 412.583 73.6028 424.714 58.4901C436.47 43.8433 440.859 26.498 436.756 10.9033L436.756 10.9043Z" fill="#45C2B1"/>
<path d="M431.023 10.0672L424.258 11.3035C428.056 25.2503 424.19 40.87 413.651 54.1584C402.769 67.8779 386.292 77.4396 368.443 80.3902C364.27 81.0789 359.873 81.4628 355.375 81.5321C344.575 81.7192 333.277 80.329 322.363 78.996C300.671 76.3446 278.239 73.6017 259.197 83.2412C246.224 89.8076 238.407 100.592 230.848 111.021C226.738 116.692 222.855 122.049 218.218 126.743C210.001 135.037 199.949 140.74 187.493 144.173C181.323 145.872 174.415 146.989 166.961 147.491C158.491 148.065 149.726 147.969 140.45 147.867C127.3 147.725 113.704 147.575 100.369 149.424C80.1694 152.245 56.231 161.328 49.6127 178.363C45.2002 189.718 49.0279 201.66 61.3145 214.869C68.4035 222.491 77.4771 228.67 87.0832 235.215C92.1937 238.696 97.4794 242.297 102.422 246.125C125.593 264.073 135.3 284.774 129.756 304.415C129.075 306.831 128.3 309.008 127.388 311.075C122.587 321.946 112.413 331.792 102.575 341.314C100.381 343.436 98.1968 345.549 96.0783 347.666C90.3338 353.414 85.2109 359.161 80.8491 364.747C65.4988 384.383 58.047 403.465 58.7012 421.462C58.8129 424.863 59.2225 428.288 59.9171 431.633C64.5319 453.853 86.5513 478.127 119.707 481.531L120.57 475.898C90.7668 472.838 70.9365 450.836 66.7506 430.683C66.1101 427.599 65.7335 424.443 65.6302 421.301C65.0177 404.459 72.1029 386.464 86.6882 367.806C90.9052 362.405 95.8686 356.839 101.44 351.263C103.535 349.172 105.696 347.081 107.866 344.981C118.1 335.077 128.683 324.836 133.907 313.004C134.914 310.724 135.766 308.332 136.51 305.693C142.63 284.01 132.216 261.39 107.185 242C102.082 238.048 96.7104 234.389 91.5155 230.85C82.221 224.518 73.4415 218.538 66.8284 211.429C56.0116 199.8 52.5419 189.546 56.218 180.084C61.8927 165.478 83.3463 157.56 101.53 155.021C114.24 153.258 127.519 153.401 140.359 153.543C149.389 153.639 158.729 153.743 167.531 153.148C175.542 152.609 183.002 151.399 189.703 149.553C203.442 145.767 214.531 139.475 223.605 130.318C228.559 125.3 232.753 119.514 236.809 113.917C243.941 104.079 251.315 93.903 262.84 88.0695C279.725 79.5238 299.939 81.995 321.34 84.6102C332.538 85.9794 344.109 87.3946 355.51 87.2088C360.418 87.1326 365.232 86.7097 369.813 85.956C389.478 82.7044 407.574 72.2419 419.464 57.2502C431.011 42.6909 435.224 25.4927 431.023 10.0672Z" fill="#45C2B1"/>
<path d="M425.288 9.23165L418.534 10.5094C422.416 24.2832 418.716 39.7489 408.382 52.9418C397.735 66.5338 381.538 76.0318 363.946 78.999C359.837 79.6905 355.493 80.0856 351.038 80.1771C340.432 80.3891 329.34 79.132 318.619 77.9067C297.047 75.4397 274.74 72.8882 255.969 82.651C243.197 89.2952 235.622 100.077 228.297 110.503C224.475 115.943 220.865 121.081 216.583 125.643C208.695 134.017 199.111 139.846 187.286 143.459C181.336 145.278 174.645 146.52 167.402 147.153C158.743 147.908 149.727 147.915 140.182 147.924C127.786 147.933 114.967 147.945 102.416 149.686C81.9268 152.55 57.7999 161.75 51.5182 178.984C47.3326 190.472 51.591 202.45 64.5365 215.602C71.4129 222.589 79.9173 228.345 88.9218 234.437C94.5181 238.225 100.305 242.142 105.639 246.368C127.993 264.219 136.748 285.076 130.282 305.089C129.51 307.481 128.661 309.636 127.685 311.678C122.486 322.56 112.051 332.361 101.961 341.841C99.8836 343.793 97.8155 345.736 95.7982 347.68C89.9168 353.364 84.6712 358.983 80.2042 364.382C64.1805 383.725 55.9655 402.532 55.7888 420.281C55.7439 423.679 55.9951 427.106 56.5347 430.462C60.162 452.938 81.1883 477.635 114.357 481.355L115.298 475.731C85.5675 472.396 66.6889 450.06 63.4068 429.719C62.9094 426.629 62.6782 423.472 62.7196 420.334C62.8855 403.718 70.6977 385.967 85.9406 367.568C90.27 362.335 95.3637 356.88 101.084 351.353C103.079 349.429 105.127 347.505 107.184 345.572C117.665 335.726 128.502 325.546 134.14 313.745C135.213 311.499 136.142 309.142 136.983 306.541C144.012 284.781 134.349 261.364 110.468 242.295C104.929 237.905 99.0361 233.917 93.3367 230.061C84.6108 224.155 76.3688 218.578 69.9334 212.039C58.5275 200.45 54.6761 190.169 58.1602 180.607C63.5331 165.864 85.1448 157.858 103.577 155.282C115.554 153.619 128.078 153.609 140.189 153.599C149.922 153.591 159.115 153.584 168.136 152.796C175.956 152.114 183.214 150.761 189.709 148.778C202.782 144.782 213.369 138.348 222.075 129.106C226.642 124.239 230.538 118.694 234.304 113.333C241.211 103.501 248.353 93.3368 259.685 87.4424C276.305 78.7968 296.392 81.0934 317.66 83.5286C328.659 84.7857 340.023 86.0926 351.213 85.8499C356.074 85.7515 360.83 85.3177 365.342 84.5584C384.754 81.2848 402.567 70.8777 414.216 56.0063C425.552 41.5342 429.588 24.4856 425.288 9.23037L425.288 9.23165Z" fill="#45C2B1"/>
<path d="M419.553 8.39469L412.812 9.71398C416.778 23.3157 413.242 38.629 403.112 51.7278C392.699 65.1909 376.785 74.6223 359.448 77.6063C355.405 78.3007 351.115 78.7095 346.698 78.8204C336.292 79.0975 325.402 77.9334 314.872 76.8136C293.421 74.5324 271.237 72.1693 252.742 82.0608C240.163 88.7897 232.831 99.5807 225.743 110.017C222.211 115.216 218.876 120.126 214.946 124.544C207.391 133.013 198.274 138.969 187.076 142.752C181.349 144.687 174.877 146.055 167.839 146.817C158.994 147.773 149.718 147.889 139.897 148.014C128.259 148.161 116.225 148.314 104.46 149.949C83.6836 152.856 59.3699 162.173 53.4256 179.606C49.4588 191.237 54.1483 203.252 67.7598 216.335C74.3679 222.687 82.289 227.991 90.6752 233.607C96.7969 237.706 103.126 241.945 108.851 246.606C130.142 264.071 138.149 285.637 130.81 305.764C129.946 308.134 129.022 310.266 127.984 312.282C122.368 323.185 111.656 332.95 101.297 342.394C99.3523 344.167 97.4165 345.931 95.5202 347.697C89.4222 353.383 84.2034 358.722 79.5606 364.019C62.8472 383.072 53.8707 401.605 52.8801 419.101C52.6778 422.495 52.7717 425.926 53.1583 429.289C55.7153 451.463 76.1583 477.185 109.006 481.181L110.025 475.565C80.6654 471.993 62.3679 448.783 60.059 428.756C59.7029 425.661 59.6164 422.504 59.8034 419.372C60.7306 402.984 69.2723 385.477 85.1905 367.33C89.7004 362.184 94.7811 356.988 100.726 351.445C102.605 349.695 104.524 347.946 106.452 346.189C117.194 336.396 128.303 326.27 134.37 314.488C135.508 312.28 136.515 309.957 137.452 307.388C145.542 285.201 136.902 261.582 113.747 242.586C107.774 237.724 101.312 233.397 95.0627 229.212C86.9246 223.762 79.2388 218.615 73.0359 212.654C61.0337 201.117 56.802 190.807 60.1013 181.133C65.1748 166.254 86.9436 158.16 105.623 155.546C116.861 153.984 128.626 153.836 140.004 153.691C150.031 153.564 159.502 153.445 168.746 152.444C176.381 151.618 183.437 150.123 189.719 147.999C202.129 143.808 212.213 137.23 220.546 127.89C224.727 123.189 228.323 117.896 231.8 112.777C238.479 102.943 245.386 92.7759 256.532 86.815C272.882 78.0697 292.846 80.1945 313.979 82.4439C324.782 83.5927 335.954 84.7848 346.915 84.495C351.733 84.3744 356.43 83.9253 360.871 83.1617C380.029 79.8659 397.559 69.5156 408.966 54.7664C420.093 40.3816 423.951 23.4799 419.553 8.39519L419.553 8.39469Z" fill="#45C2B1"/>
<path d="M413.817 7.55747L407.088 8.91857C411.139 22.3498 407.769 37.5109 397.842 50.5151C387.664 63.8495 372.03 73.2157 354.95 76.2135C350.983 76.9093 346.745 77.3306 342.356 77.465C332.16 77.7879 321.472 76.7319 311.137 75.7159C289.797 73.6148 267.729 71.4473 249.513 81.4718C237.118 88.295 230.037 99.1082 223.19 109.565C219.949 114.514 216.889 119.188 213.31 123.449C206.086 132.026 197.434 138.11 186.863 142.048C181.351 144.1 175.097 145.592 168.273 146.48C159.233 147.658 149.682 147.893 139.57 148.141C128.705 148.409 117.47 148.685 106.506 150.211C85.4442 153.16 60.9447 162.594 55.3344 180.226C51.6343 191.853 56.9004 204.248 70.9859 217.063C77.3148 222.823 85.035 227.921 92.5011 232.851C99.1332 237.23 105.991 241.76 112.062 246.84C132.355 263.949 139.566 286.231 131.342 306.436C130.385 308.787 129.386 310.896 128.285 312.885C122.228 323.828 111.207 333.572 100.549 342.995C98.7666 344.571 96.9904 346.141 95.2433 347.711C88.9803 353.349 83.6413 358.563 78.9201 363.655C61.4987 382.422 51.7616 400.679 49.9786 417.919C49.6173 421.312 49.5531 424.745 49.7875 428.114C51.347 450.528 70.7578 476.681 103.656 481.004L104.755 475.399C75.4307 471.546 58.1132 447.994 56.7071 427.791C56.4921 424.694 56.5512 421.535 56.8848 418.406C58.5552 402.25 67.8261 384.986 84.4396 367.091C89.0366 362.132 94.2467 357.044 100.368 351.533C102.101 349.977 103.865 348.418 105.635 346.853C116.668 337.097 128.077 327.01 134.599 315.228C135.799 313.058 136.884 310.77 137.918 308.232C146.976 285.974 139.166 261.542 117.026 242.877C110.66 237.55 103.64 232.914 96.8517 228.432C89.2638 223.422 82.0971 218.688 76.1378 213.265C63.5341 201.796 58.9227 191.457 62.0424 181.657C66.8202 166.639 88.745 158.456 107.67 155.807C118.158 154.347 129.149 154.077 139.778 153.815C149.663 153.572 159.884 153.32 169.361 152.087C176.8 151.118 183.654 149.478 189.733 147.214C201.479 142.84 211.057 136.119 219.018 126.67C222.817 122.146 226.112 117.114 229.298 112.247C235.746 102.401 242.413 92.219 253.379 86.1832C269.46 77.3299 289.304 79.2854 310.311 81.3502C320.912 82.394 331.878 83.4653 342.617 83.1381C347.404 82.9912 352.043 82.5283 356.402 81.7644C375.306 78.4453 392.552 68.1531 403.72 53.5244C414.635 39.224 418.316 22.4706 413.817 7.55644L413.817 7.55747Z" fill="#45C2B1"/>
<path d="M408.083 6.72022L401.367 8.12545C405.503 21.3836 402.299 36.3908 392.577 49.3007C382.632 62.5061 367.278 71.8085 350.453 74.8218C346.542 75.5202 342.358 75.9541 338.018 76.1093C328.024 76.4682 317.54 75.5271 307.401 74.6126C286.173 72.6973 264.222 70.7181 246.284 80.8854C234.065 87.811 227.239 98.6618 220.639 109.155C217.691 113.842 214.906 118.269 211.676 122.36C204.783 131.057 196.596 137.27 186.648 141.349C181.359 143.516 175.321 145.132 168.704 146.148C159.473 147.566 149.637 147.926 139.224 148.306C129.14 148.676 118.712 149.057 108.552 150.472C87.2081 153.464 62.5244 163.015 57.2455 180.844C53.7526 192.644 59.4604 205.075 74.2125 217.792C80.2589 223.003 87.4465 227.667 94.3982 232.178C101.528 236.805 108.901 241.589 115.275 247.076C134.922 264.104 141.133 286.551 131.879 307.113C130.835 309.43 129.76 311.516 128.59 313.488C122.063 324.492 110.703 334.227 99.717 343.642C98.1245 345.007 96.5363 346.367 94.9678 347.728C88.5311 353.317 83.0748 358.408 78.2839 363.294C59.8799 382.038 49.6732 399.521 47.0826 416.737C46.5632 420.131 46.3403 423.566 46.4216 426.941C46.969 449.588 65.34 476.171 98.3065 480.827L99.4842 475.233C71.2441 471.244 53.8513 447.49 53.3512 426.829C53.2768 423.727 53.4816 420.567 53.9605 417.439C56.3905 401.295 66.1133 384.749 83.6864 366.849C88.3618 362.081 93.7011 357.101 100.009 351.624C101.567 350.274 103.145 348.921 104.729 347.564C116.082 337.834 127.823 327.773 134.825 315.969C136.096 313.826 137.259 311.571 138.382 309.075C148.567 286.445 141.809 261.807 120.305 243.169C113.587 237.387 106.021 232.477 98.7024 227.728C91.629 223.138 84.9462 218.803 79.2375 213.881C66.2114 202.652 61.0791 191.987 63.9821 182.183C68.4683 167.028 90.5494 158.756 109.718 156.069C119.45 154.712 129.66 154.339 139.533 153.978C149.728 153.605 160.269 153.22 169.981 151.728C177.233 150.614 183.885 148.83 189.751 146.424C200.832 141.881 209.907 135.02 217.493 125.447C220.911 121.117 223.905 116.358 226.801 111.755C233.012 101.881 239.433 91.6721 250.229 85.5532C266.037 76.5931 285.761 78.374 306.643 80.2548C317.045 81.1931 327.802 82.1607 338.323 81.7809C343.055 81.6116 347.634 81.1365 351.932 80.3685C370.586 77.0269 387.55 66.7902 398.476 52.2806C409.18 38.0677 412.681 21.4613 408.083 6.72022Z" fill="#45C2B1"/>
<path d="M402.347 5.88182L395.645 7.33163C399.865 20.4177 396.826 35.2724 387.308 48.0881C377.597 61.1647 362.523 70.4007 345.953 73.4303C342.106 74.1315 337.976 74.5765 333.676 74.7539C323.887 75.1572 313.61 74.3188 303.669 73.5037C282.545 71.7768 260.706 69.9862 243.053 80.2991C230.998 87.3384 224.436 98.2444 218.088 108.79C215.433 113.203 212.924 117.372 210.037 121.275C203.39 130.234 195.887 136.393 186.427 140.657C181.362 142.939 175.542 144.675 169.129 145.819C159.703 147.498 149.57 147.992 138.842 148.513C129.55 148.965 119.942 149.432 110.597 150.735C88.9723 153.77 64.1049 163.436 59.1566 181.464C55.867 193.45 62.0182 205.915 77.4404 218.517C83.2017 223.225 89.8979 227.482 96.3731 231.597C103.984 236.435 111.855 241.437 118.486 247.31C137.526 264.281 142.735 286.893 132.416 307.789C131.289 310.072 130.137 312.134 128.896 314.093C121.863 325.183 110.124 334.926 98.7711 344.349C97.4054 345.483 96.0429 346.614 94.6928 347.744C88.038 353.319 82.4629 358.287 77.6467 362.934C58.4874 381.395 47.5428 398.608 44.1894 415.558C43.5109 418.944 43.1294 422.381 43.0581 425.769C42.5732 448.965 61.1048 475.836 92.9537 480.651L94.2129 475.068C65.9763 470.799 49.5529 446.699 49.988 425.867C50.054 422.754 50.4051 419.593 51.0306 416.473C54.1774 400.568 64.6107 384.259 82.9294 366.608C87.6412 362.063 93.109 357.192 99.6478 351.714C100.99 350.59 102.346 349.465 103.706 348.337C115.419 338.614 127.532 328.56 135.048 316.709C136.391 314.589 137.633 312.369 138.842 309.918C150.021 287.281 144.174 261.817 123.583 243.463C116.556 237.24 108.456 232.091 100.623 227.113C94.0246 222.918 87.7922 218.957 82.3362 214.498C68.7094 203.363 63.1859 192.668 65.919 182.709C70.1174 167.415 92.3543 159.055 111.765 156.331C120.731 155.08 130.147 154.623 139.253 154.18C149.773 153.669 160.651 153.139 170.603 151.366C177.669 150.106 184.117 148.177 189.769 145.63C200.19 140.934 208.759 133.93 215.964 124.221C219.009 120.103 221.701 115.628 224.305 111.301C230.273 101.384 236.444 91.1309 247.077 84.9205C262.611 75.8494 282.219 77.453 302.979 79.1536C313.177 79.9878 323.718 80.8542 334.026 80.4229C338.712 80.2318 343.232 79.7424 347.461 78.9719C365.863 75.6081 382.545 65.427 393.231 51.0392C403.722 36.9108 407.046 20.4526 402.347 5.88232V5.88182Z" fill="#45C2B1"/>
<path d="M396.611 5.04354L389.925 6.53744C394.23 19.4517 391.357 34.1553 382.043 46.8784C372.564 59.8246 357.771 68.9955 341.455 72.0389C337.675 72.7429 333.597 73.2004 329.338 73.397C319.757 73.8489 309.683 73.1087 299.938 72.3922C278.924 70.8455 257.192 69.2504 239.823 79.7129C227.924 86.8809 221.632 97.8593 215.547 108.476C213.182 112.6 210.949 116.496 208.403 120.194C202.102 129.308 195.049 135.593 186.207 139.97C181.367 142.365 175.763 144.223 169.552 145.493C159.932 147.459 149.49 148.092 138.436 148.761C129.946 149.275 121.167 149.806 112.644 150.997C90.7401 154.073 65.6916 163.854 61.0709 182.081C57.9808 194.266 64.5755 206.769 80.6712 219.242C86.1471 223.486 92.3848 227.357 98.4175 231.102C106.498 236.116 114.853 241.302 121.699 247.545C139.892 264.229 144.208 287.576 132.958 308.47C131.747 310.718 130.52 312.755 129.206 314.698C121.627 325.901 109.465 335.67 97.7023 345.119L94.4202 347.759C87.4178 353.418 81.8877 358.125 77.014 362.572C57.0795 380.751 45.3979 397.699 41.3028 414.38C40.4654 417.763 39.9263 421.203 39.7019 424.597C38.1636 448.017 55.6616 475.32 87.6039 480.472L88.9434 474.904C61.0706 470.406 45.2734 445.448 46.6231 424.903C46.8289 421.784 47.3246 418.623 48.0971 415.504C51.9419 399.84 63.0879 383.769 82.1722 366.364C86.95 362.004 92.3883 357.376 99.2874 351.802L102.556 349.172C114.673 339.439 127.202 329.376 135.27 317.448C136.686 315.354 138.004 313.167 139.301 310.761C151.662 287.804 146.895 262.129 126.862 243.757C119.567 237.106 110.943 231.753 102.604 226.577C96.4494 222.757 90.6358 219.148 85.4347 215.118C71.2029 204.09 65.2895 193.363 67.8564 183.234C71.7697 167.802 94.1622 159.353 113.813 156.593C122.007 155.449 130.618 154.926 138.947 154.423C149.806 153.765 161.035 153.086 171.23 151.001C178.113 149.594 184.359 147.518 189.792 144.829C199.695 139.927 207.525 132.987 214.437 122.987C217.113 119.102 219.507 114.926 221.821 110.888C227.538 100.913 233.45 90.5985 243.929 84.2869C259.184 75.0994 278.68 76.5311 299.318 78.0459C309.313 78.782 319.65 79.5401 329.732 79.066C334.373 78.8496 338.835 78.3495 342.993 77.5746C361.143 74.1889 377.542 64.0644 387.987 49.7975C398.268 35.755 401.411 19.4425 396.611 5.04379L396.611 5.04354Z" fill="#45C2B1"/>
<path d="M390.874 4.20486L384.203 5.74615C388.594 18.4871 385.887 33.037 376.777 45.6656C367.53 58.483 353.016 67.5887 336.954 70.6474C333.248 71.3514 329.224 71.8214 324.993 72.0417C315.622 72.5336 305.757 71.8933 296.212 71.2739C275.296 69.9128 253.667 68.5102 236.588 79.1309C224.834 86.4389 218.826 97.51 213.014 108.215C211.031 111.868 208.98 115.646 206.766 119.116C200.818 128.408 194.213 134.82 185.983 139.29C181.374 141.794 175.986 143.772 169.968 145.17C160.151 147.451 149.384 148.229 137.985 149.053C130.312 149.609 122.379 150.183 114.688 151.258C92.4791 154.381 67.236 164.281 62.9817 182.702C60.1116 194.903 67.3443 207.791 83.9003 219.964C89.097 223.785 94.9109 227.299 100.533 230.697C109.067 235.854 117.892 241.186 124.91 247.778C142.572 264.452 145.866 287.971 133.501 309.149C132.21 311.36 130.907 313.373 129.516 315.304C121.336 326.661 108.686 336.484 96.4518 345.985L94.1469 347.776C89.154 351.666 82.6246 356.822 76.3818 362.214C55.3658 380.355 43.3026 396.557 38.419 413.205C37.4206 416.585 36.7235 420.025 36.3485 423.427C33.7999 446.551 50.626 474.869 82.2515 480.295L83.6728 474.74C55.7754 469.953 40.9701 444.643 43.251 423.937C43.5961 420.813 44.2375 417.65 45.1572 414.536C49.7468 398.892 61.2656 383.51 81.4099 366.122C87.545 360.822 93.9919 355.733 98.9222 351.891L101.22 350.104C113.802 340.334 126.812 330.232 135.486 318.188C136.979 316.114 138.375 313.96 139.753 311.6C153.328 288.349 149.644 262.468 130.14 244.053C122.618 236.989 113.483 231.468 104.649 226.129C98.9051 222.658 93.4796 219.38 88.53 215.74C78.3167 208.231 66.7736 196.588 69.7899 183.766C73.3867 168.193 95.9451 159.654 115.858 156.854C123.268 155.817 131.059 155.255 138.594 154.71C149.813 153.898 161.413 153.06 171.86 150.631C178.567 149.074 184.607 146.849 189.814 144.022C199.055 139.002 206.393 131.925 212.907 121.75C215.225 118.117 217.32 114.256 219.347 110.522C224.803 100.471 230.444 90.0795 240.779 83.6527C255.753 74.342 275.139 75.6017 295.664 76.9337C305.453 77.5684 315.574 78.2227 325.435 77.7086C330.042 77.4672 334.446 76.9531 338.522 76.1785C356.421 72.7706 372.539 62.7014 382.744 48.5553C392.813 34.596 395.776 18.4315 390.873 4.2061L390.874 4.20486Z" fill="#45C2B1"/>
<path d="M385.137 3.36386L378.483 4.95487C382.959 17.5212 380.418 31.92 371.512 44.4557C362.498 57.1427 348.262 66.1818 332.455 69.2545C328.808 69.9626 324.837 70.4451 320.653 70.6862C311.498 71.2185 301.833 70.6753 292.486 70.15C271.669 68.976 250.14 67.7662 233.355 78.5486C221.733 86.0149 216.021 97.2022 210.495 108.022C208.788 111.368 207.022 114.826 205.134 118.043C199.475 127.657 193.499 134.002 185.759 138.616C181.316 141.266 176.287 143.306 170.383 144.851C160.368 147.475 149.261 148.408 137.502 149.393C130.66 149.967 123.584 150.561 116.734 151.52C94.2548 154.684 68.834 164.698 64.8968 183.318C61.5216 199.021 75.1247 212.305 87.1313 220.683C92.0547 224.119 97.4759 227.3 102.719 230.377C111.694 235.643 120.974 241.089 128.121 248.009C145.027 264.445 147.354 288.713 134.047 309.832C132.724 311.929 131.304 313.976 129.827 315.913C120.908 327.521 107.62 337.486 94.7692 347.124L93.8757 347.793C87.9958 352.207 81.7313 356.967 75.7518 361.856C53.9132 379.705 41.1361 395.647 35.5407 412.029C34.3817 415.406 33.5262 418.847 32.999 422.256C29.3988 445.585 45.1596 474.339 76.8999 480.116L78.4043 474.575C51.3528 469.652 36.6431 443.916 39.8763 422.969C40.3593 419.838 41.1464 416.674 42.2148 413.564C47.476 398.156 59.6879 383.005 80.6482 365.875C86.5362 361.06 92.736 356.35 98.5589 351.979L99.4499 351.31C112.639 341.42 126.277 331.191 135.7 318.93C137.283 316.852 138.798 314.671 140.207 312.436C154.802 289.273 152.137 262.546 133.418 244.347C125.71 236.885 116.075 231.231 106.756 225.763C101.394 222.616 96.3287 219.643 91.6262 216.362C80.9971 208.946 68.9174 197.361 71.7256 184.294C75.0481 168.578 97.7597 159.952 117.906 157.116C124.522 156.189 131.481 155.606 138.209 155.041C149.804 154.068 161.792 153.063 172.496 150.259C179.023 148.549 184.858 146.177 189.839 143.206C198.434 138.081 205.279 130.869 211.379 120.506C213.347 117.153 215.148 113.625 216.89 110.214C222.073 100.064 227.431 89.5688 237.633 83.0145C252.32 73.579 271.602 74.6656 292.01 75.8131C301.593 76.3537 311.503 76.9081 321.142 76.3494C325.697 76.0861 330.042 75.558 334.054 74.7793C351.702 71.349 367.538 61.3369 377.503 47.311C387.36 33.4363 390.143 17.4188 385.137 3.36386Z" fill="#45C2B1"/>
<path d="M379.4 2.52381L372.763 4.162C377.325 16.5565 374.95 30.8029 366.248 43.2459C357.466 55.8041 343.509 64.7767 327.955 67.8645C324.374 68.5741 320.455 69.0676 316.309 69.3309C307.365 69.9046 297.909 69.4527 288.764 69.0204C268.04 68.0335 246.604 67.0149 230.12 77.9681C218.617 85.6102 213.218 96.9431 207.997 107.903C206.56 110.92 205.074 114.04 203.5 116.977C198.225 126.803 192.684 133.272 185.536 137.949C181.32 140.709 176.498 142.864 170.794 144.538C160.577 147.537 149.113 148.627 136.977 149.781C130.979 150.352 124.777 150.941 118.78 151.783C96.0307 154.987 70.4348 165.115 66.8134 183.932C63.6903 199.939 77.8959 213.144 90.3624 221.402C95.022 224.488 100.08 227.362 104.972 230.143C114.373 235.487 124.094 241.013 131.333 248.24C147.777 264.714 149.059 289.161 134.595 310.517C133.207 312.565 131.709 314.586 130.143 316.522C120.484 328.377 106.819 338.257 93.6047 347.811C86.9238 352.644 80.9222 357.011 75.1239 361.502C60.8532 372.546 40.9246 389.68 32.6655 410.857C31.3447 414.237 30.331 417.68 29.6551 421.091C24.9728 444.711 40.6884 473.995 71.5474 479.938L73.1336 474.411C46.0376 469.193 32.3144 443.099 36.4969 422C37.1178 418.868 38.0505 415.701 39.268 412.587C45.184 397.416 58.0899 382.495 79.8849 365.628C85.6064 361.197 91.5613 356.865 98.1933 352.066C111.108 342.728 125.749 332.144 135.914 319.666C137.587 317.598 139.18 315.449 140.657 313.269C156.506 289.869 154.952 262.932 136.696 244.644C128.84 236.799 118.715 231.045 108.924 225.479C103.914 222.632 99.1824 219.942 94.7217 216.989C83.6771 209.672 71.0581 198.153 73.6593 184.822C76.7111 168.964 99.5739 160.248 119.952 157.378C125.762 156.563 131.87 155.982 137.776 155.421C149.766 154.28 162.166 153.101 173.132 149.882C179.479 148.02 185.107 145.496 189.862 142.384C197.932 137.104 204.095 129.972 209.847 119.26C211.479 116.214 212.992 113.037 214.455 109.967C219.573 99.2221 224.408 89.0726 234.487 82.3756C248.883 72.8114 268.061 73.7231 288.362 74.6879C297.739 75.1327 307.435 75.5958 316.847 74.9915C321.358 74.7045 325.646 74.1625 329.587 73.3823C346.983 69.9285 362.538 59.9733 372.263 46.068C381.907 32.2764 384.509 16.4059 379.4 2.52434V2.52381Z" fill="#45C2B1"/>
<path d="M373.662 1.68382L367.043 3.37169C371.692 15.5916 369.484 29.6853 360.985 42.037C352.433 54.4662 338.754 63.3724 323.454 66.4726C319.892 67.1934 316.134 67.6854 311.965 67.9765C303.234 68.5877 293.987 68.2301 285.043 67.885C264.405 67.0879 243.061 66.2605 226.883 77.3898C215.488 85.2274 210.425 96.735 205.528 107.863C204.355 110.529 203.14 113.287 201.869 115.914C198.383 123.104 193.69 131.267 185.312 137.291C181.351 140.137 176.733 142.408 171.195 144.23C160.767 147.627 148.368 148.944 136.377 150.217C131.25 150.762 125.948 151.325 120.825 152.045C97.8095 155.29 72.0384 165.531 68.7301 184.546C65.7088 201.731 83.0117 215.462 93.5953 222.116C98.0025 224.89 102.73 227.486 107.301 229.997C117.11 235.385 127.253 240.957 134.546 248.469C152.786 267.308 147.992 293.55 135.148 311.198C133.716 313.179 132.142 315.172 130.461 317.129C120.794 328.34 107.928 337.664 93.3351 347.829L91.2521 349.28C85.7015 353.144 79.9617 357.14 74.4964 361.147C58.4334 372.919 38.8359 389.076 29.7941 409.688C28.3118 413.064 27.14 416.509 26.314 419.925C20.5562 443.734 35.2065 473.457 66.1943 479.758L67.8643 474.247C40.7132 468.727 27.975 442.274 33.1132 421.028C33.8723 417.889 34.9504 414.719 36.3166 411.608C42.9618 396.46 56.1621 382.202 79.1183 365.377C84.5183 361.418 90.2235 357.446 95.7412 353.606L97.826 352.153C112.783 341.735 125.989 332.156 136.127 320.398C137.914 318.317 139.589 316.198 141.107 314.098C155.164 294.782 160.27 265.9 139.973 244.939C132.008 236.734 121.411 230.912 111.162 225.283C106.681 222.822 102.047 220.276 97.8161 217.615C88.4343 211.715 73.0723 199.679 75.591 185.351C78.3754 169.349 101.389 160.545 121.999 157.639C126.98 156.939 132.21 156.383 137.268 155.847C149.683 154.529 162.52 153.165 173.768 149.501C180.056 147.431 185.324 144.834 189.884 141.556C199.367 134.739 204.521 125.826 208.312 118.007C209.625 115.297 210.857 112.496 212.049 109.786C216.844 98.887 221.375 88.5907 231.34 81.7357C245.442 72.0356 264.518 72.7755 284.716 73.5545C293.884 73.9093 303.364 74.2766 312.554 73.6335C317.089 73.3162 321.198 72.777 325.118 71.9828C342.265 68.5081 357.538 58.6097 367.023 44.8235C376.455 31.1152 378.875 15.39 373.661 1.68304L373.662 1.68382Z" fill="#45C2B1"/>
<path d="M367.922 0.841002L361.324 2.58037C366.058 14.6285 364.017 28.5682 355.723 40.8285C347.403 53.1274 334 61.9683 318.954 65.0813C315.459 65.8047 311.752 66.3078 307.621 66.6223C299.103 67.2682 290.065 67.0006 281.323 66.7416C260.764 66.1319 239.509 65.5013 223.646 76.8118C212.345 84.8697 207.645 96.5824 203.1 107.91C202.165 110.238 201.231 112.565 200.242 114.856C196.893 122.603 192.74 130.603 185.094 136.635C181.361 139.593 176.95 141.975 171.601 143.925C160.961 147.785 148.144 149.271 135.748 150.708C131.502 151.2 127.111 151.708 122.87 152.307C99.5888 155.592 73.6452 165.946 70.6475 185.158C67.896 202.692 85.8693 216.287 96.8273 222.831C100.993 225.317 105.411 227.658 109.684 229.922C119.891 235.328 130.445 240.918 137.758 248.699C155.515 267.617 149.519 294.069 135.698 311.891C134.193 313.838 132.539 315.805 130.782 317.738C120.366 329.164 106.44 338.877 93.0687 347.848L88.1063 351.166C83.4078 354.304 78.5488 357.549 73.8721 360.796C57.2131 372.357 36.8214 388.231 26.9277 408.521C25.2848 411.889 23.9553 415.335 22.978 418.762C16.2784 442.257 30.1809 473.011 60.8435 479.576L62.5966 474.085C35.7838 468.343 23.7545 441.001 29.7281 420.054C30.6259 416.903 31.8494 413.732 33.3641 410.628C42.6916 391.5 62.3062 376.263 78.353 365.125C82.9796 361.914 87.8125 358.686 92.4864 355.567L97.4597 352.239C111.163 343.047 125.453 333.073 136.338 321.131C138.202 319.082 139.956 316.997 141.553 314.932C156.664 295.443 163.053 266.332 143.252 245.238C135.209 236.681 124.147 230.823 113.449 225.155C109.256 222.934 104.92 220.637 100.911 218.244C91.1911 212.439 75.2265 200.516 77.5236 185.88C80.0426 169.735 103.207 160.842 124.046 157.901C128.186 157.317 132.524 156.816 136.72 156.329C149.584 154.837 162.887 153.295 174.416 149.114C180.523 146.887 185.589 144.141 189.909 140.719C198.609 133.858 203.318 124.752 206.777 116.749C207.785 114.418 208.735 112.051 209.685 109.682C214.134 98.5976 218.336 88.1267 228.198 81.0943C241.996 71.254 260.978 71.818 281.073 72.4152C290.033 72.6801 299.298 72.9558 308.262 72.2737C312.754 71.933 316.807 71.3811 320.652 70.5856C337.549 67.0888 352.542 57.2459 361.787 43.579C371.005 29.9523 373.241 14.3754 367.923 0.840224L367.922 0.841002Z" fill="#45C2B1"/>
<path d="M362.184 3.49683e-05L355.607 1.79089C360.428 13.6645 358.553 27.4533 350.463 39.6217C342.373 51.7917 329.247 60.5651 314.453 63.6915C302.974 66.1184 290.076 65.8522 277.601 65.5945C257.125 65.176 235.95 64.7366 220.409 76.2372C209.191 84.5405 204.888 96.4944 200.725 108.055C196.915 118.642 193.315 128.64 184.874 135.991C172.751 146.549 153.599 148.937 135.077 151.248C131.654 151.675 128.254 152.099 124.916 152.57C101.372 155.895 75.2554 166.363 72.5671 185.772C70.7574 198.843 80.7771 212.609 100.059 223.544C103.998 225.777 108.137 227.887 112.139 229.927C123.212 235.57 133.67 240.901 140.97 248.927C158.178 267.848 150.587 295.189 136.251 312.585C123.116 328.525 103.899 340.798 85.315 352.665C81.2691 355.25 77.2279 357.831 73.2487 360.446C52.5644 374.038 27.7789 392.818 19.6436 417.603C11.8796 441.262 24.6916 472.46 55.4902 479.398L57.3279 473.924C30.4451 467.868 19.4192 440.159 26.3379 419.077C33.9513 395.881 57.7247 377.924 77.5855 364.873C81.5402 362.274 85.5558 359.71 89.5774 357.142C108.588 345.002 128.245 332.448 141.996 315.762C157.656 296.757 165.754 266.675 146.529 245.537C138.446 236.649 126.934 230.781 115.801 225.106C111.87 223.103 107.805 221.03 104.005 218.877C95.9073 214.285 77.3054 201.929 79.4544 186.412C81.7101 170.122 105.026 161.139 126.093 158.164C129.386 157.699 132.743 157.281 136.121 156.859C155.806 154.405 176.161 151.866 189.924 139.88C199.496 131.543 203.501 120.418 207.374 109.661C211.443 98.3569 215.287 87.6795 225.055 80.449C238.542 70.4688 257.424 70.8555 277.427 71.2699C290.38 71.536 303.77 71.8118 316.185 69.1882C332.832 65.6692 347.545 55.883 356.551 42.3368C365.555 28.7919 367.609 13.3606 362.184 3.49683e-05Z" fill="#45C2B1"/>
</svg>
