<svg width="400" height="485" viewBox="0 0 400 485" fill="none" xmlns="http://www.w3.org/2000/svg">
<g opacity="0.1">
<path d="M139.83 79.009L199.663 157.846H139.76H79.7219L139.76 236.949L199.733 157.936L199.795 158.022L199.799 158.018V158.022L199.869 157.932L259.841 236.949L319.88 157.846H259.841H199.934L259.772 79.0132L259.833 79.0953L319.872 0H259.833H199.799L259.702 78.9228H199.799H199.795H139.896L199.795 0H139.765H79.7219L139.765 79.0953L139.83 79.009Z" fill="#48BEA0"/>
<path d="M239.885 137.95L399.6 137.954L319.741 32.7386L239.885 137.95ZM256.444 129.732L319.741 46.3349L383.046 129.736L256.444 129.732Z" fill="#48BEA0"/>
<path d="M290.154 114.858L319.742 114.862H349.342L319.742 75.8652L290.154 114.858Z" fill="#48BEA0"/>
<path d="M79.8514 32.7434L0 137.95H159.703L79.8514 32.7434ZM79.8514 46.3355L143.148 129.733H16.5586L79.8514 46.3355Z" fill="#48BEA0"/>
<path d="M79.8509 75.8654L50.2549 114.858L79.8509 114.862H109.447L79.8509 75.8654Z" fill="#48BEA0"/>
<path d="M259.772 405.991L199.939 327.155H259.841H319.88L259.841 248.051L199.869 327.064L199.803 326.978L199.799 326.982V326.978L199.733 327.068L139.76 248.051L79.7219 327.155H139.76H199.667L139.83 405.987L139.769 405.905L79.7301 485H139.769H199.799L139.9 406.077H199.799H199.803H259.706L199.803 485H259.837H319.88L259.837 405.905L259.772 405.991Z" fill="#48BEA0"/>
<path d="M159.717 347.049L0.00195312 347.045L79.8657 452.256L159.717 347.049ZM143.158 355.267L79.8615 438.664L16.5565 355.263L143.158 355.267Z" fill="#48BEA0"/>
<path d="M109.45 370.141L79.8621 370.137H50.262L79.8621 409.134L109.45 370.141Z" fill="#48BEA0"/>
<path d="M319.756 452.257L399.607 347.05H239.905L319.756 452.257ZM319.756 438.665L256.459 355.267H383.053L319.756 438.665Z" fill="#48BEA0"/>
<path d="M319.755 409.134L349.351 370.141L319.755 370.137H290.159L319.755 409.134Z" fill="#48BEA0"/>
</g>
</svg>
