<svg width="66" height="64" viewBox="0 0 66 64" fill="none" xmlns="http://www.w3.org/2000/svg">
<path d="M49.5686 40.0738C48.0305 40.0738 46.4924 40.0513 44.9562 40.0851C44.4121 40.0964 44.2672 39.9157 44.2747 39.3886C44.301 37.4438 44.2747 35.4991 44.2935 33.5525C44.2935 32.8823 44.1693 32.278 43.4219 32.2516C42.5879 32.2234 42.4655 32.8955 42.4674 33.5694C42.4674 35.484 42.4373 37.3987 42.4843 39.3114C42.5013 40.0513 42.1982 40.1586 41.5882 40.0287C40.3607 39.767 39.4477 38.8012 39.4063 37.5399C39.3065 34.5936 39.2914 31.6435 39.4063 28.6916C39.4646 27.0951 40.2967 26.0936 41.7859 25.5646C43.2298 25.0487 44.7265 24.7381 46.1949 24.3239C46.5715 24.2166 46.8557 24.3729 47.1683 24.5235C48.7911 25.3085 50.4176 25.318 52.0329 24.5009C52.3473 24.3409 52.6354 24.2298 53.01 24.3334C54.4803 24.7381 55.9807 25.0469 57.4172 25.5759C58.8856 26.1181 59.6763 27.1102 59.7591 28.7255C59.9163 31.6396 59.9126 34.5602 59.7478 37.474C59.7258 38.1053 59.4841 38.7092 59.0645 39.1814C58.6449 39.6536 58.0736 39.9646 57.4492 40.0607C56.922 40.1397 56.6698 40.0494 56.6848 39.4036C56.7319 37.4608 56.6848 35.5142 56.7074 33.5676C56.7074 32.8597 56.5455 32.2384 55.7398 32.2497C54.9961 32.2667 54.8305 32.8766 54.8342 33.5412C54.8455 35.4238 54.8079 37.3064 54.8549 39.189C54.8719 39.8649 54.742 40.1209 53.9965 40.0851C52.5205 40.0249 51.0483 40.0738 49.5686 40.0738Z" fill="#48BEA0"/>
<path d="M5.46313 33.0519C5.46313 31.6418 5.43677 30.228 5.46313 28.8198C5.50455 27.0916 6.1804 26.1841 7.79756 25.5874C9.23399 25.0508 10.7363 24.7534 12.2066 24.3411C12.5832 24.2356 12.8655 24.3637 13.1818 24.5199C14.799 25.3219 16.4293 25.3351 18.0427 24.5199C18.2173 24.4221 18.4096 24.3601 18.6084 24.3375C18.8071 24.3149 19.0085 24.3321 19.2005 24.3881C20.6162 24.7647 22.0433 25.0885 23.4289 25.5742C24.9669 26.1145 25.7539 27.1782 25.8066 28.8047C25.9007 31.6908 25.8819 34.5768 25.8066 37.4647C25.7908 38.0975 25.5521 38.7043 25.1326 39.1782C24.7131 39.6521 24.1397 39.9627 23.5136 40.0552C22.9827 40.1399 22.7172 40.042 22.7304 39.3982C22.7718 37.5796 22.7455 35.7591 22.7455 33.9386C22.7575 33.6875 22.7525 33.4359 22.7304 33.1856C22.6589 32.6208 22.3746 32.1934 21.7722 32.2443C21.2074 32.2913 20.908 32.6697 20.9118 33.2759C20.9231 35.2527 20.8817 37.2294 20.9325 39.2043C20.9513 39.914 20.7537 40.0966 20.0496 40.0872C17.0995 40.0458 14.1495 40.0383 11.2013 40.0872C10.4389 40.1004 10.3428 39.8349 10.3579 39.1798C10.3993 37.3292 10.3579 35.4786 10.3767 33.628C10.3767 32.9408 10.2619 32.265 9.46179 32.2537C8.59391 32.2405 8.48848 32.9389 8.49601 33.6619C8.51295 35.5765 8.46965 37.4911 8.5186 39.4038C8.53555 40.0627 8.26257 40.1305 7.74862 40.0514C6.49856 39.8632 5.50266 38.8108 5.47443 37.5589C5.44242 36.0528 5.47443 34.5467 5.47443 33.0406L5.46313 33.0519Z" fill="#48BEA0"/>
<path d="M25.4659 24.5367C24.5246 24.0925 23.7207 23.6745 22.8302 23.49C22.4914 23.4185 22.4273 23.1944 22.4066 22.8725C22.2742 20.2381 22.29 17.5983 22.4537 14.9656C22.5177 13.7456 23.0994 12.825 24.2403 12.313C25.9008 11.5599 27.6968 11.2662 29.4325 10.7692C29.73 10.6845 29.8975 10.901 30.1103 11.0046C31.767 11.816 33.4312 11.8348 35.0691 10.9951C35.2405 10.9021 35.429 10.845 35.6232 10.8271C35.8174 10.8093 36.0132 10.8313 36.1986 10.8916C37.733 11.3039 39.2955 11.6126 40.7715 12.2283C42.0347 12.7535 42.6842 13.7023 42.7501 15.0522C42.8725 17.6219 42.9628 20.1917 42.7896 22.7709C42.767 23.0966 42.7896 23.4034 42.3792 23.4957C41.4925 23.6839 40.6849 24.0868 39.7323 24.5424V20.5456C39.7486 20.2639 39.7442 19.9814 39.7191 19.7003C39.64 19.1487 39.3633 18.744 38.7439 18.7797C38.1245 18.8155 37.8704 19.1958 37.8704 19.7794C37.8704 21.7241 37.8403 23.6689 37.8854 25.6155C37.9024 26.3215 37.7555 26.5568 36.9874 26.5568C34.0073 26.506 31.0252 26.521 28.0451 26.5568C27.4803 26.5568 27.3033 26.4307 27.3165 25.8358C27.3579 23.8929 27.3165 21.9463 27.3372 19.9997C27.3372 19.3163 27.1659 18.7797 26.3789 18.7929C25.6485 18.8061 25.4696 19.3464 25.4678 19.9677C25.4621 21.4361 25.4659 22.9102 25.4659 24.5367Z" fill="#48BEA0"/>
<path d="M33.1637 64C21.3202 63.8645 10.6985 61.2326 0.782803 55.837C0.176604 55.5076 -0.22251 55.084 0.135186 54.4251C0.511707 53.7379 1.14615 53.9469 1.69775 54.25C5.96713 56.5878 10.4913 58.4266 15.181 59.7303C18.6715 60.6886 22.2327 61.3678 25.8309 61.7616C30.0091 62.2283 34.2239 62.2699 38.4105 61.8858C45.4825 61.2569 52.4001 59.4524 58.8782 56.5468C60.4445 55.8464 61.9801 55.084 63.4849 54.2594C64.0629 53.9431 64.7275 53.7059 65.1021 54.474C65.4316 55.148 64.9647 55.5415 64.3754 55.8596C57.8708 59.4004 50.8219 61.8334 43.518 63.0587C39.8921 63.6724 36.238 63.8927 33.1637 64Z" fill="#48BEA0"/>
<path d="M32.5723 50.4358C22.7395 50.3285 13.5749 47.8396 5.15403 42.7171L4.99024 42.6229C4.42546 42.3198 4.06023 41.8699 4.42546 41.258C4.81704 40.5916 5.427 40.7441 5.97861 41.0886C7.9676 42.321 10.044 43.4064 12.1912 44.3361C17.3491 46.5858 22.8468 47.9576 28.4569 48.395C39.4326 49.2648 49.6118 46.8193 59.055 41.2072C59.1359 41.1601 59.2037 41.0924 59.2847 41.0453C59.8212 40.7384 60.3897 40.601 60.77 41.211C61.1503 41.8209 60.8002 42.2558 60.2561 42.5928C58.64 43.5999 56.9674 44.5132 55.2465 45.3282C50.1945 47.7264 44.7928 49.3043 39.2443 50.0028C37.0341 50.3126 34.804 50.4573 32.5723 50.4358Z" fill="#48BEA0"/>
<path d="M45.1839 17.9268C45.1839 15.0012 47.0345 13.3596 50.1201 13.5554C52.6767 13.7173 54.3315 15.8503 53.9757 18.5255C53.6462 21.0105 52.2964 22.7162 50.2989 23.2132C49.0978 23.5106 48.0774 23.1398 47.1776 22.3867C45.7957 21.2289 45.1782 19.7115 45.1839 17.9268Z" fill="#263C90"/>
<path d="M20.0158 17.9346C20.0158 20.5815 18.5097 22.6994 16.2826 23.2435C15.5754 23.3972 14.8371 23.3097 14.1854 22.995C11.5403 21.8654 10.3072 17.7613 11.8698 15.3667C12.8939 13.7966 15.0702 13.1226 17.1411 13.7288C19.0067 14.2748 20.0177 15.7545 20.0158 17.9346Z" fill="#263C90"/>
<path d="M28.1915 4.76558C28.1275 2.03203 29.3983 0.465704 31.9341 0.0590602C33.7301 -0.228979 36.042 0.512766 36.8026 2.80955C37.5443 5.04609 36.4712 8.11851 34.4474 9.30832C32.4236 10.4981 29.9762 9.52858 28.809 7.12449C28.4061 6.29803 28.1727 5.43203 28.1915 4.76558Z" fill="#263C90"/>
<path d="M29.4696 60.1031C30.6104 58.0981 29.6484 56.8048 28.1141 55.6451C27.5757 55.2385 27.8505 54.7697 28.4266 54.8149C30.4975 54.9805 31.6139 53.979 32.1749 52.087C32.3518 51.4902 32.7397 51.462 33.0371 52.0719C33.3477 52.7158 33.6734 53.354 33.9521 54.0129C34.1234 54.4139 34.3832 54.5607 34.8105 54.5777C35.4318 54.6059 36.0512 54.7113 36.6724 54.7791C36.9247 54.8055 37.2052 54.8205 37.3144 55.0784C37.4556 55.4098 37.1619 55.5811 36.9699 55.775C36.7887 55.9904 36.5834 56.1843 36.358 56.353C35.1626 57.0928 35.0797 58.1358 35.5033 59.3313C35.5465 59.4144 35.5757 59.5041 35.5899 59.5967C35.5899 59.9619 35.8535 60.4025 35.5429 60.6754C35.1758 60.9992 34.7898 60.6001 34.562 60.393C33.1124 59.1148 31.7645 59.5402 30.409 60.5342C30.2207 60.6736 29.9967 60.875 29.7275 60.7376C29.4583 60.6001 29.5298 60.3196 29.4696 60.1031Z" fill="#263C90"/>
<path d="M59.4034 54.587C57.645 53.7492 56.4364 54.6265 55.5215 56.2455C55.3916 56.4752 55.2108 56.7482 54.8569 56.6597C54.5444 56.5825 54.5067 56.2399 54.5067 56.0554C54.4954 54.0542 53.4205 53.0432 51.536 52.7156C51.2875 52.6742 51.0333 52.5745 51.0277 52.2563C51.022 51.9381 51.2705 51.8233 51.5002 51.7405C53.2492 51.1117 54.07 49.9463 53.7217 48.0505C53.669 47.7625 53.6671 47.3822 54.0304 47.2429C54.3561 47.1186 54.5745 47.401 54.7308 47.6044C55.8886 49.1104 57.2987 49.3458 58.9516 48.5137C59.1982 48.3913 59.4787 48.2369 59.7046 48.525C59.9305 48.813 59.7686 49.101 59.6237 49.3081C58.528 50.8669 58.7031 52.2808 60.0322 53.608C60.2205 53.7963 60.3918 54.0674 60.2318 54.361C60.0717 54.6547 59.8025 54.538 59.4034 54.587Z" fill="#263C90"/>
<path d="M14.1832 52.2337C14.1738 52.5123 13.9837 52.6102 13.7709 52.6931C13.304 52.8663 12.8484 53.1223 12.3665 53.1938C11.3235 53.3501 11.0618 54.0391 10.9207 54.939C10.8284 55.5283 10.9207 56.4244 10.337 56.5976C9.65742 56.799 9.36374 55.9104 9.07946 55.421C8.49962 54.4194 7.71457 54.186 6.66972 54.4138C6.33144 54.4802 5.98943 54.5261 5.64558 54.5512C5.40461 54.5719 5.1241 54.651 4.96408 54.3818C4.80406 54.1125 4.96408 53.9074 5.10151 53.6946C5.41967 53.2315 5.687 52.7232 6.05788 52.3053C6.53418 51.7687 6.47958 51.266 6.18589 50.6843C5.91851 50.1563 5.68216 49.6132 5.47803 49.0577C5.27283 48.493 5.54769 48.1974 6.06917 48.4497C7.85388 49.3138 9.37315 49.1613 10.6006 47.482C10.7192 47.322 10.9112 47.145 11.1654 47.2354C11.4553 47.3389 11.461 47.6119 11.4798 47.8548C11.5007 47.9792 11.5039 48.106 11.4892 48.2313C11.1127 50.0066 11.9636 51.0251 13.5299 51.6426C13.801 51.748 14.1324 51.8647 14.1832 52.2337Z" fill="#263C90"/>
<path d="M18.1386 52.87C19.2814 53.3406 19.9817 52.6309 20.5634 51.6425C20.7479 51.3536 20.9517 51.0775 21.1734 50.8161C21.5876 50.2852 21.8511 50.5261 22.0112 51.0043C22.1372 51.3589 22.2157 51.7286 22.2446 52.1038C22.3124 53.4084 23.105 53.9468 24.2741 54.1972C24.7617 54.3008 25.5128 54.3102 25.5919 54.8637C25.671 55.4492 24.9198 55.6318 24.4755 55.8238C23.248 56.3528 22.7397 57.1962 22.9864 58.514C23.0187 58.827 23.0187 59.1424 22.9864 59.4554C22.9657 60.0634 22.5873 60.246 22.2333 59.8168C20.9155 58.2354 19.4207 57.9116 17.5833 58.8755C17.0524 59.156 16.8472 58.7833 17.0053 58.2467C17.036 58.1255 17.0828 58.009 17.1446 57.9003C18.101 56.4168 17.941 55.0764 16.6589 53.8565C16.4575 53.6682 16.1393 53.4028 16.3125 53.0564C16.4857 52.71 16.8679 52.8869 17.1635 52.8681C17.459 52.8493 17.7264 52.87 18.1386 52.87Z" fill="#263C90"/>
<path d="M42.7067 60.0107C42.3301 60.0107 42.1663 59.8093 42.2191 59.5325C42.6257 57.4353 41.8425 56.0497 39.8357 55.2778C39.3688 55.0896 39.4384 54.6848 39.958 54.4965C40.1 54.4323 40.2492 54.3855 40.4023 54.3572C42.2341 54.1426 43.038 53.0168 43.1472 51.2716C43.1679 50.9516 43.2432 50.5882 43.5971 50.5186C43.9096 50.4659 44.096 50.8104 44.2014 51.0401C45.0072 52.7852 46.3777 53.239 48.1549 52.8643C48.4091 52.8097 48.7498 52.7231 48.908 53.0526C49.0379 53.3237 48.8195 53.5364 48.6482 53.7021C47.3303 54.9898 47.0442 56.3961 48.0966 57.9907C48.2491 58.2203 48.3827 58.5441 48.1945 58.7832C47.9497 59.0957 47.6165 58.9 47.3435 58.7625C45.7226 57.9511 44.3313 58.1676 43.1886 59.6417C43.0462 59.7869 42.8839 59.9111 42.7067 60.0107Z" fill="#263C90"/>
</svg>
