<svg width="73" height="64" viewBox="0 0 73 64" fill="none" xmlns="http://www.w3.org/2000/svg">
<path d="M65.3384 58.2262V22.0708L65.4561 22.0501C65.9176 24.3654 66.3797 26.6821 66.8424 29.0002C68.4953 37.2409 70.1481 45.4816 71.8009 53.7223C72.0075 54.7305 72.2141 55.7408 72.3298 56.7614C72.429 57.6726 71.9166 58.2076 71.0034 58.2283C69.1481 58.2531 67.2928 58.2262 65.3384 58.2262Z" fill="#263C90"/>
<path d="M62.3672 20.048C62.3816 20.3723 62.4082 20.7055 62.4082 21.0402V62.046C62.4082 63.4633 61.9476 63.9991 60.6377 63.9991C48.1397 64.0074 35.6304 63.9862 23.1104 63.9366C26.8168 63.1763 29.8524 61.3875 31.9287 58.1935C34.0051 54.9994 34.5835 51.5322 33.6104 47.8361C32.0608 41.9521 26.3293 37.919 20.2305 38.421C17.2212 38.6762 14.3976 39.9832 12.2559 42.1124C10.1141 44.2417 8.79132 47.0578 8.51855 50.0656C7.99378 55.9434 11.7229 62.458 19.4375 63.9972H1.66895C0.547366 63.9971 0 63.4427 0 62.3644V20.5314C3.70706e-05 20.3972 0.0252536 20.2627 0.0458984 20.048H62.3672ZM47.502 48.9191C46.5271 48.9192 45.9945 49.4474 45.9736 50.3644C45.9623 50.8989 45.9539 51.4337 45.9482 51.9679C45.9411 52.5944 45.9393 53.221 45.9404 53.8478C45.9422 54.8223 45.9529 55.7963 45.9736 56.7697C45.975 56.8373 45.9784 56.9024 45.9844 56.965C46.0589 57.8702 46.5784 58.2374 47.5762 58.257C48.6358 58.2776 49.6421 58.2365 50.6729 58.2365C51.7054 58.2365 52.738 58.2488 53.7705 58.2365C54.8035 58.2241 55.3575 57.7262 55.374 56.7531C55.4133 54.6562 55.4091 52.5551 55.374 50.4562C55.3731 50.391 55.3681 50.3278 55.3623 50.2667C55.2874 49.3928 54.7273 48.9191 53.8018 48.9191H47.502ZM47.5059 36.1281C47.2851 36.1281 47.0858 36.1577 46.9092 36.213C46.3228 36.3937 45.9885 36.8661 45.9727 37.5763C45.93 39.7111 45.93 41.8458 45.9727 43.9806C45.9933 44.997 46.5206 45.4269 47.5762 45.4435C47.6536 45.4444 47.7312 45.4428 47.8086 45.4435C48.7236 45.4559 49.6496 45.4435 50.5703 45.4435L52.1719 45.4513C52.7056 45.4541 53.2388 45.4547 53.7686 45.4454C53.9689 45.4419 54.1506 45.4215 54.3135 45.3829C55.0167 45.2196 55.3681 44.7245 55.3799 43.8634C55.4088 41.8318 55.4088 39.8008 55.3799 37.7706C55.3675 36.7252 54.8098 36.1404 53.8057 36.1281C51.7066 36.1053 49.607 36.1157 47.5059 36.1281ZM8.73926 23.3107C7.64649 23.321 7.0594 23.8806 7.04688 24.9464C7.02208 26.9765 7.02209 29.0077 7.04688 31.0392C7.0503 31.3383 7.09331 31.5948 7.17188 31.8107C7.37572 32.383 7.84412 32.6693 8.61133 32.6798C10.7103 32.7087 12.8092 32.7087 14.9082 32.6798C15.9309 32.6653 16.3934 32.1611 16.4141 31.1281C16.4248 30.5906 16.4248 30.0532 16.4219 29.5157C16.4192 29.0208 16.414 28.5275 16.415 28.0294V28.0236C16.415 27.1913 16.4247 26.3571 16.4189 25.5255C16.4183 25.363 16.421 25.2005 16.4189 25.0392C16.4139 24.8439 16.3956 24.6672 16.3662 24.5079C16.2192 23.6763 15.7213 23.3194 14.7305 23.3107C12.7348 23.2928 10.7377 23.2928 8.73926 23.3107ZM27.79 23.3165C25.691 23.2897 23.592 23.2793 21.4951 23.3165C20.5861 23.3351 20.0196 23.8253 20.0176 24.8087L20.0195 28.0109C20.0195 29.0437 20.0051 30.0766 20.0195 31.1095C20.0242 31.3793 20.0553 31.6119 20.1152 31.8087C20.2914 32.3968 20.7263 32.6709 21.502 32.6818C23.5996 32.7079 25.6979 32.7079 27.7969 32.6818C28.8257 32.6693 29.3362 32.1734 29.3486 31.1652C29.3748 29.0675 29.3748 26.9692 29.3486 24.8702C29.3454 24.6201 29.3055 24.3967 29.2314 24.2032C29.0196 23.6409 28.5204 23.3258 27.79 23.3165ZM40.8125 23.3107C38.7465 23.2859 36.6803 23.2859 34.6143 23.3107C33.6227 23.3251 33.0857 23.8744 33.0752 24.8575C33.0532 26.9539 33.0532 29.053 33.0752 31.1534C33.0791 31.5361 33.1505 31.8426 33.293 32.0773C33.5282 32.4741 33.9642 32.6688 34.6211 32.6779C36.7186 32.7095 38.8171 32.7095 40.916 32.6779C41.953 32.6633 42.3702 32.1856 42.3867 31.1134C42.3991 30.0805 42.3867 29.0476 42.3867 28.0148C42.3867 26.9839 42.3988 25.9508 42.3926 24.922C42.3862 24.511 42.3086 24.1812 42.1553 23.9298C41.9122 23.5224 41.4731 23.3184 40.8125 23.3107ZM53.6895 23.3224C51.6635 23.3017 49.6379 23.3017 47.6133 23.3224C46.5598 23.3328 45.9816 23.8373 45.9609 24.8702C45.921 26.9666 45.921 29.0613 45.9609 31.1534C45.9752 31.876 46.2335 32.3192 46.749 32.5333C46.987 32.636 47.2812 32.6891 47.6328 32.6964C48.6509 32.7067 49.6814 32.6886 50.7119 32.6886C51.7074 32.6886 52.7028 32.7072 53.6982 32.6886C54.8261 32.6617 55.3653 32.1594 55.3799 31.0626C55.4061 29.0379 55.4061 27.011 55.3799 24.9835C55.3704 24.1827 55.0298 23.6491 54.4062 23.4357C54.1991 23.361 53.9593 23.3224 53.6895 23.3224Z" fill="#48BEA0"/>
<path d="M31.2856 0.000732422C34.4631 -0.0447191 37.2109 2.10023 38.2378 5.42847C38.2649 5.50836 38.2979 5.58635 38.3354 5.66187H41.4233C41.6057 3.20144 44.0013 0.770562 46.8267 0.185303C48.5448 -0.166177 50.3323 0.131847 51.8433 1.02222C53.3541 1.91253 54.4813 3.33146 55.0063 5.00464C55.0787 5.23397 55.1545 5.46213 55.2495 5.75757H60.603C61.9975 5.75759 62.4066 6.15414 62.4087 7.51147V17.0525H0.00439453V7.32983C0.0229862 6.21021 0.450279 5.77192 1.57178 5.76147C3.52865 5.74294 5.486 5.74893 7.44287 5.74487C8.31092 2.68216 10.198 0.699244 13.4253 0.139404C16.5553 -0.403822 19.9165 1.45402 20.9888 4.52612C21.3648 5.60641 21.8733 5.89553 22.8794 5.76538C23.3862 5.72666 23.8947 5.71374 24.4028 5.72729C25.2862 2.29076 27.9787 0.0503006 31.2856 0.000732422ZM7.45947 5.78003H7.45654C7.42012 6.10917 7.37701 6.43898 7.35107 6.77808C7.05791 10.5877 10.341 14.1888 14.1362 14.2322C14.8656 14.2397 15.4501 13.9388 15.7241 13.4587C15.8233 13.2865 15.8841 13.0916 15.895 12.8787C15.9362 12.1081 15.2272 11.4702 14.2583 11.3503C13.7489 11.313 13.247 11.205 12.7671 11.03C10.792 10.1892 10.0188 8.5155 10.3101 5.77612H7.45947C7.45933 5.77741 7.45961 5.77874 7.45947 5.78003ZM24.4194 5.75269C24.4206 5.74727 24.4221 5.7415 24.4233 5.73608L24.396 5.75464L24.4185 5.75366C24.4113 5.78666 24.4075 5.82027 24.4009 5.85327C23.5695 9.97929 26.7285 14.0726 30.9019 14.2283C31.9394 14.2672 32.5587 13.8902 32.7056 13.1677C32.7229 13.0837 32.736 12.9948 32.7407 12.9011C32.786 11.9964 32.1719 11.4433 31.0708 11.3503C29.0752 11.1829 27.6681 10.0338 27.2466 8.06714C27.0816 7.29566 27.1836 6.46633 27.1675 5.66382L24.4194 5.75269ZM48.4341 2.88354C46.4138 2.8075 45.0078 3.85206 44.2183 5.70972H44.2192V5.71167H44.1743L44.1724 5.70972C44.1703 5.71975 44.1685 5.72997 44.1665 5.73999L44.1587 5.73901L44.1597 5.73804L41.4321 5.68042C41.4349 5.67432 41.4381 5.66795 41.4409 5.66187L41.4224 5.68042H41.4243C41.3017 5.95332 41.2127 6.24018 41.1558 6.53394C40.8479 10.7362 44.1328 14.143 48.019 14.2195C48.0203 14.2195 48.0217 14.2185 48.0229 14.2185L48.0249 14.2195C48.1218 14.2213 48.2147 14.2165 48.3032 14.2087C48.7342 14.1713 49.0638 14.0262 49.2856 13.7849C49.4961 13.5591 49.6118 13.2524 49.6245 12.8806C49.6371 12.5091 49.5397 12.2005 49.3462 11.9568C49.1906 11.7589 48.9717 11.6059 48.6968 11.4949C48.5366 11.4295 48.358 11.3775 48.1616 11.3416C47.9311 11.2996 47.6952 11.2582 47.4604 11.2107C47.3238 11.1831 47.1875 11.1537 47.0532 11.1199C46.6903 11.0278 46.3407 10.9067 46.0317 10.7224C45.1647 10.2026 44.6159 9.54833 44.313 8.79761C44.2869 8.73269 44.2613 8.66766 44.2388 8.60132C43.9489 7.74829 43.9572 6.77848 44.1665 5.73999H44.2017L44.2046 5.74292V5.73999L44.2075 5.74097L44.2056 5.73901C44.2095 5.72963 44.2153 5.72102 44.2192 5.71167H52.2544C52.0664 5.26277 51.8443 4.86604 51.5894 4.52222C50.831 3.4925 49.7744 2.93936 48.4341 2.88354ZM7.43408 5.77612H7.45947C7.46074 5.76441 7.46213 5.7527 7.46338 5.74097L7.43408 5.77612ZM14.229 2.86011C14.1189 2.8674 14.0092 2.87864 13.9009 2.89429C12.287 3.1245 10.9025 4.2632 10.5884 5.70776H18.3608C17.8258 3.6522 15.5905 2.7714 14.229 2.86011ZM27.1743 5.66675C27.1754 5.66518 27.1771 5.66343 27.1782 5.66187H27.1665L27.1743 5.66675ZM31.7876 2.89819C30.3481 2.72402 29.1646 3.24027 28.2388 4.2478C28.0664 4.43519 27.901 4.63792 27.7466 4.85815C27.5576 5.12722 27.3672 5.39485 27.1782 5.66187H35.3188L35.3179 5.65991H35.3208C34.701 3.99064 33.4507 3.10066 31.7876 2.89819Z" fill="#48BEA0"/>
<path d="M21.3398 41.2765C22.6422 41.2863 23.9304 41.5523 25.1299 42.0597C26.3292 42.5671 27.4172 43.3058 28.3311 44.2335C29.2449 45.1612 29.9667 46.2601 30.4561 47.4669C30.9454 48.6738 31.1924 49.9654 31.1826 51.2677C31.1729 52.5699 30.9067 53.8574 30.3994 55.0568C29.8921 56.2561 29.1532 57.344 28.2256 58.2579C27.2978 59.1719 26.199 59.8946 24.9922 60.3839C23.7853 60.8732 22.4937 61.1202 21.1914 61.1105C15.7557 61.0981 11.3631 56.6392 11.3672 51.1456C11.3674 45.58 15.7287 41.2683 21.3398 41.2765ZM26.082 47.0597C25.3321 46.6238 24.7817 46.981 24.2549 47.4913C22.7965 48.9022 21.3335 50.3045 19.7656 51.8146C19.2327 51.2486 18.6474 50.5758 18.0029 49.9562C17.3808 49.3581 16.6809 49.2878 16.0459 49.839C16.0217 49.8599 15.9966 49.8806 15.9727 49.9034C15.3157 50.5294 15.3528 51.2717 15.9727 51.9142C16.9457 52.9306 17.9358 53.9329 18.9688 54.8956C19.459 55.3554 20.0483 55.4735 20.5713 55.1837C20.6933 55.1164 20.8121 55.0273 20.9248 54.9142C22.8234 53.0238 24.7019 51.1091 26.5303 49.1505C27.1706 48.4647 26.8998 47.5329 26.082 47.0597Z" fill="#263C90"/>
<path d="M52.4297 55.3606H48.843V51.8628H52.4297V55.3606Z" fill="#263C90"/>
<path d="M48.8286 29.8493V26.2668H52.4132V29.8493H48.8286Z" fill="#263C90"/>
<path d="M52.423 42.6172H48.8323V39.0905H52.423V42.6172Z" fill="#263C90"/>
<path d="M39.5171 29.8741H36.0193V26.2689H39.5171V29.8741Z" fill="#263C90"/>
<path d="M22.8979 26.246H26.4102V29.8575H22.8979V26.246Z" fill="#263C90"/>
<path d="M13.5861 26.2731V29.839H10.0181V26.2731H13.5861Z" fill="#263C90"/>
</svg>
