<svg width="63" height="64" viewBox="0 0 63 64" fill="none" xmlns="http://www.w3.org/2000/svg">
<path d="M43.8914 0.0112305C47.2516 0.0114406 49.3268 2.0953 49.3269 5.43311C49.3269 11.4925 49.3157 17.5506 49.3513 23.6138C49.3839 24.1156 49.5818 24.5934 49.9138 24.9712C53.0828 28.5659 53.9053 32.6223 52.3347 37.1372C52.1156 37.7686 52.2154 38.1384 52.6501 38.605C55.5002 41.6649 58.3346 44.7411 61.1521 47.8335C62.5856 49.4003 62.6115 51.2485 61.2546 52.5903C59.8978 53.9321 57.9285 53.9543 56.3992 52.564C54.3675 50.716 52.348 48.8549 50.322 46.9995C50.0522 46.7372 49.78 46.5008 49.323 46.0981C49.323 47.6572 49.3417 48.9375 49.323 50.2212C49.2929 51.9509 48.6125 53.3478 47.1658 54.3599C46.9181 54.5572 46.7558 54.8429 46.7136 55.1567C46.6144 56.3146 46.1203 57.4036 45.3132 58.2397C44.5061 59.0759 43.4347 59.6085 42.281 59.7485C36.0772 60.5826 29.8745 61.4351 23.6707 62.2935C19.598 62.8557 15.5283 63.4369 11.4519 63.9673C9.0155 64.2838 6.57944 62.2054 6.21753 59.6323C5.29725 52.9356 4.34312 46.2442 3.42847 39.5493C2.78371 34.8637 2.17283 30.1624 1.52808 25.4712C1.0614 22.077 0.590437 18.6821 0.0769043 15.2974C-0.42331 12.0176 1.54667 9.61135 5.16772 9.15967C6.21906 9.02848 7.2671 8.88056 8.4646 8.72314C8.4646 7.47505 8.45336 6.23937 8.4646 5.00439C8.48897 2.75524 9.75446 0.967258 11.8875 0.27002C12.514 0.0845544 13.1658 -0.00293468 13.8191 0.0112305C23.8429 -0.00376323 33.8676 -0.00376368 43.8914 0.0112305ZM44.45 2.02783C34.1114 2.00284 23.774 2.00327 13.4392 2.03076C12.8513 2.06068 12.2829 2.25583 11.8005 2.59326C11.4514 2.83007 11.1951 3.11407 11.0066 3.43115C10.6377 4.04256 10.5288 4.78217 10.53 5.56787C10.5388 18.0006 10.5388 30.434 10.53 42.8667C10.53 45.2731 10.5113 47.678 10.53 50.0825C10.5508 51.9566 11.8013 53.1978 13.6511 53.1997H44.2947C45.5977 53.1995 46.589 52.6046 47.0408 51.5796C47.1949 51.2349 47.2885 50.8413 47.3113 50.4048C47.4087 48.5662 47.4181 46.7217 47.4275 44.8794C47.4366 44.6834 47.3957 44.4877 47.3083 44.312C47.2209 44.1365 47.0892 43.9864 46.9275 43.8755C46.7656 43.7646 46.5779 43.6964 46.3826 43.6782C46.1871 43.6602 45.9898 43.6927 45.8103 43.772C43.9099 44.5122 41.9301 44.8142 39.9304 44.4976C32.6602 43.3392 28.4023 36.4192 30.5593 29.3589C30.7803 28.6362 31.0827 27.9437 31.4519 27.2896C33.3333 23.9674 36.9713 21.6441 40.7947 21.4751C43.0792 21.3619 45.3529 21.8664 47.3757 22.9341C47.405 22.795 47.4261 22.6537 47.4392 22.5122C47.4392 18.8613 47.4424 15.2105 47.4431 11.5601C47.4434 10.3454 47.4429 9.13031 47.4412 7.91553C47.4401 6.93959 47.4417 5.96284 47.4392 4.98682C47.4435 4.59473 47.3694 4.20503 47.2205 3.84229C47.0715 3.47967 46.8505 3.1504 46.572 2.87451C46.2933 2.59856 45.9607 2.38124 45.5964 2.23584C45.3231 2.12683 45.0351 2.0598 44.7429 2.03662L44.45 2.02783ZM41.5652 23.3892C40.2991 23.3864 39.0445 23.6342 37.8748 24.1187C36.705 24.6032 35.6431 25.3152 34.7498 26.2124C34.6364 26.3263 34.526 26.4429 34.4187 26.562C34.2559 26.7426 34.1022 26.9306 33.9539 27.1226C33.9096 27.1799 33.864 27.2361 33.821 27.2944C33.3536 27.9286 32.9645 28.6196 32.6648 29.3521C32.1854 30.5238 31.9428 31.7794 31.9509 33.0454C31.9511 38.3008 36.2621 42.6541 41.5251 42.6616C45.6601 42.6675 49.2221 39.972 50.5662 36.2349C50.9355 35.2137 51.1405 34.1152 51.1433 32.9722C51.1393 30.4329 50.1276 27.998 48.3318 26.2026C47.1214 24.9929 45.62 24.141 43.9929 23.7124C43.6586 23.6242 43.319 23.5533 42.9753 23.5015C42.51 23.4316 42.0375 23.3946 41.5613 23.394L41.5652 23.3892Z" fill="#48BEA0"/>
<path d="M21.6815 27.6919C23.3328 27.6919 24.9841 27.7031 26.6373 27.6919C27.3514 27.6919 27.9174 27.898 27.9343 28.6852C27.9512 29.4724 27.3889 29.7236 26.6766 29.7236H16.6715C15.9742 29.7236 15.3894 29.5455 15.3838 28.7246C15.3838 27.8437 15.9873 27.6862 16.7239 27.6919C18.3771 27.705 20.0284 27.6919 21.6815 27.6919Z" fill="#263C90"/>
<path d="M18.021 5.19861H21.481C22.1333 5.19861 22.675 5.36729 22.7087 6.15262C22.7462 6.99981 22.182 7.2116 21.4904 7.21535C19.1849 7.22659 16.8789 7.22659 14.5722 7.21535C13.9012 7.21535 13.3689 6.92109 13.3614 6.20511C13.3539 5.48912 13.8787 5.19861 14.561 5.19861H18.021Z" fill="#263C90"/>
<path d="M20.109 23.5349C21.2917 23.5349 22.4763 23.5443 23.6609 23.5349C24.2982 23.5349 24.6993 23.8104 24.7349 24.4402C24.7724 25.1224 24.3713 25.4804 23.6965 25.4823C21.2599 25.4823 18.8345 25.4936 16.4035 25.4823C15.7343 25.4823 15.3501 25.1074 15.382 24.4215C15.4138 23.7355 15.8449 23.5349 16.4616 23.5405C17.6761 23.5424 18.8926 23.5349 20.109 23.5349Z" fill="#263C90"/>
<path d="M40.9798 11.7193C39.9808 11.7193 38.9818 11.7193 37.9809 11.7193C37.3492 11.7193 36.8282 11.4868 36.8338 10.7821C36.8394 10.0774 37.2555 9.70251 37.9753 9.70251H43.9731C44.6347 9.70251 45.0883 10.0005 45.1165 10.6659C45.1464 11.395 44.6779 11.7211 43.9769 11.7249C42.9797 11.7211 41.9807 11.7174 40.9798 11.7193Z" fill="#263C90"/>
<path d="M40.9441 16.2719C39.917 16.2719 38.8823 16.2719 37.8627 16.2719C37.2292 16.2719 36.8131 15.9945 36.8374 15.3479C36.8581 14.7612 37.1673 14.3564 37.8383 14.3564C39.9538 14.3564 42.0699 14.3564 44.1867 14.3564C44.8146 14.3564 45.1145 14.7312 45.1239 15.2935C45.1239 15.9064 44.7827 16.2682 44.1248 16.2644C43.0658 16.2644 42.0087 16.2644 40.9497 16.2644L40.9441 16.2719Z" fill="#263C90"/>
<path d="M16.1337 11.1927C15.5433 11.1927 14.951 11.2077 14.3625 11.1927C13.7327 11.1684 13.2903 10.7617 13.3897 10.1975C13.4553 9.82263 13.952 9.28096 14.2931 9.24722C15.5011 9.15036 16.7145 9.1416 17.9237 9.22098C18.5253 9.25097 18.8609 9.68019 18.8102 10.3156C18.7578 10.9116 18.4035 11.1965 17.815 11.1984C17.2264 11.2002 16.6941 11.1927 16.1337 11.1927Z" fill="#263C90"/>
<path d="M39.3509 5.2137C39.8813 5.2137 40.4136 5.18934 40.9422 5.2137C41.5626 5.24932 42.0181 5.64667 41.9056 6.22208C41.8325 6.59694 41.3433 7.11799 40.9853 7.15923C39.9305 7.26173 38.869 7.27427 37.8121 7.19671C37.1973 7.16485 36.7325 6.82185 36.7699 6.11899C36.8056 5.46298 37.2629 5.22495 37.8552 5.20434C38.3537 5.18747 38.8523 5.20434 39.3546 5.20434L39.3509 5.2137Z" fill="#263C90"/>
<path d="M33.0625 5.19861C34.2377 5.19861 34.6631 5.60531 34.665 6.75232C34.6725 11.027 34.6725 15.3033 34.665 19.5804C34.665 20.6841 34.3705 20.9858 33.291 20.9877C27.7932 20.9952 22.3003 20.9952 16.8125 20.9877C15.7499 20.9877 15.4332 20.6598 15.4219 19.5824C15.4069 18.3023 15.4031 17.0218 15.4219 15.7435C15.4369 14.7202 15.7589 14.4092 16.7842 14.4017C18.2086 14.398 19.6348 14.3978 21.166 14.3978V12.8197C21.1866 11.742 21.3632 11.5597 22.4277 11.5541H26.834V6.724C26.834 5.46471 27.1025 5.20236 28.377 5.19861H33.0625ZM23.082 13.4906V18.8324H26.7832C26.7832 17.1811 26.7982 15.5949 26.7607 14.0111C26.7304 13.8946 26.671 13.7877 26.5879 13.7006C26.5046 13.6134 26.4003 13.5488 26.2852 13.5131C26.2429 13.5111 26.2005 13.5109 26.1582 13.5092C25.1754 13.4646 24.1851 13.4906 23.082 13.4906Z" fill="#48BEA0"/>
<path d="M12.8013 40.9648C13.1669 36.7721 17.0213 32.9864 22.0894 33.4512C26.2632 33.8262 29.7075 37.8574 29.4341 42.2373C29.1436 46.8762 25.264 50.3686 20.7524 50.0537C15.7818 49.7069 12.3758 45.8567 12.8013 40.9648ZM20.0835 35.5918C19.8626 35.6057 19.6427 35.6361 19.4253 35.6826C17.3231 36.1317 15.4467 38.0454 14.9185 40.3096C14.605 41.6571 14.7407 43.0703 15.3062 44.333C15.8717 45.5958 16.836 46.6383 18.0503 47.3018C18.6948 47.6633 19.4233 47.8933 20.1655 47.999C21.9908 48.2613 23.8997 47.7713 24.8462 46.6182C23.4779 45.3418 22.0548 44.0761 20.7222 42.7285C20.3591 42.327 20.1453 41.813 20.1157 41.2725C20.0965 40.8059 20.0852 40.3392 20.0786 39.8711C20.0727 39.4027 20.071 38.933 20.0718 38.4609L20.0835 35.5918ZM22.1851 35.6387V40.8076H27.3638C27.0551 38.1928 24.6208 35.7188 22.4019 35.6387H22.1851Z" fill="#48BEA0"/>
<path d="M40.314 25.0963C41.03 25.0775 41.7484 25.0963 42.4663 25.0963C44.0985 25.1095 44.7811 25.7806 44.8374 27.4166C44.8374 27.604 44.8665 27.7785 44.8853 28.0015C45.1457 28.0203 45.356 28.0409 45.5659 28.0484C47.1421 28.114 48.2031 29.1597 48.2183 30.7076C48.237 32.4869 48.237 34.2657 48.2183 36.0425C48.1994 37.6768 47.129 38.8534 45.4946 38.8834C42.7808 38.9396 40.0676 38.9396 37.355 38.8834C35.7206 38.8459 34.6931 37.6747 34.6743 36.0103C34.6593 34.5447 34.6743 33.0785 34.6743 31.6129C34.6707 28.9968 35.4017 28.1943 38.061 27.9937C38.0798 27.7034 38.095 27.4618 38.1118 27.2183C38.2055 25.8108 38.899 25.1338 40.314 25.0963ZM36.7495 35.4898C36.7466 35.6521 36.7429 35.8132 36.7368 35.9742C36.7237 36.6863 37.1169 37.0317 37.7671 37.0318C37.8246 37.0322 37.8824 37.0323 37.9399 37.0328C39.1211 37.0417 40.3027 37.05 41.4849 37.0494C41.4972 37.0494 41.5096 37.0494 41.522 37.0494C42.773 37.0485 44.0251 37.0372 45.2778 37.0015C45.6359 36.9899 46.215 36.5146 46.2769 36.1773C46.4249 35.3695 46.3247 34.5182 46.3247 33.6373H36.7495C36.7495 34.3034 36.7515 34.9043 36.7495 35.4898ZM40.189 27.1597V27.9625C41.5739 28.1357 42.2342 28.1725 42.5396 27.9625C42.7464 27.8205 42.7915 27.5667 42.7847 27.1597H40.189Z" fill="#263C90"/>
</svg>
