<svg width="55" height="64" viewBox="0 0 55 64" fill="none" xmlns="http://www.w3.org/2000/svg">
<path d="M22.56 57.3872C17.8094 57.3872 13.2605 57.3872 8.71158 57.3872C8.2499 57.3872 8.08889 57.2456 8.09277 56.7801C8.10829 54.2583 8.0695 51.7365 8.11411 49.2263C8.13739 47.9577 8.79111 47.3758 10.0947 47.368C13.0646 47.3486 16.0344 47.368 19.0063 47.368C19.3283 47.368 19.6406 47.3079 19.6619 47.818C19.7744 51.2063 20.7737 54.5059 22.56 57.3872Z" fill="#48BEA0"/>
<path d="M15.2746 10.2415C12.5918 10.2415 9.90903 10.2183 7.22625 10.257C6.54149 10.2667 6.35527 10.0631 6.36884 9.39382C6.40764 7.69259 6.912 7.15332 8.63651 7.15332C13.0981 7.15332 17.5597 7.15332 22.0213 7.15332C23.7478 7.15332 24.5431 8.19889 24.1726 9.87878C24.0581 10.389 23.707 10.2338 23.4238 10.2338C20.7042 10.2454 17.9904 10.2415 15.2746 10.2415Z" fill="#48BEA0"/>
<path d="M26.1454 33.0386C24.5775 34.555 23.2251 36.2795 22.126 38.1636C21.8467 38.6563 21.4257 38.5613 21.032 38.5147C20.5936 38.4643 20.7604 38.0666 20.7565 37.8125C20.741 36.4546 20.7565 35.0967 20.7565 33.7505C20.7565 33.4033 20.6731 33.025 21.2473 33.0308C22.8767 33.0502 24.512 33.0386 26.1454 33.0386Z" fill="#263C90"/>
<path d="M13.9746 3.11469C13.9746 2.43575 13.9649 1.75682 13.9746 1.07982C13.9843 0.402816 14.3626 0.0361884 14.9814 0.007091C15.1206 -0.00984314 15.2619 0.00363958 15.3955 0.0466122C15.529 0.0895848 15.6517 0.161019 15.755 0.255993C15.8582 0.350966 15.9397 0.467216 15.9937 0.596718C16.0476 0.72622 16.0729 0.865896 16.0677 1.0061C16.122 2.45903 16.0909 3.91584 16.1045 5.36683C16.1045 5.69854 15.9629 5.83046 15.6409 5.81882C15.351 5.7955 15.0598 5.7955 14.7699 5.81882C14.1686 5.89253 13.8873 5.71989 13.9513 5.04288C14.0134 4.40274 13.9649 3.7529 13.9649 3.10306L13.9746 3.11469Z" fill="#48BEA0"/>
<path d="M29.5479 12.354C31.2508 12.3541 31.7491 12.8295 31.7529 14.519C31.7646 19.3976 31.753 24.2762 31.7686 29.1548C31.7686 29.6804 31.6524 29.987 31.1211 30.1655C30.6133 30.3635 30.1185 30.594 29.6406 30.856C28.9966 31.1721 28.4146 31.9115 27.6309 31.0327C27.4892 30.8737 27.0761 30.936 26.7871 30.9341C24.5913 30.9341 22.3931 30.9244 20.1914 30.9341C18.8747 30.9341 18.6396 31.1976 18.6299 32.5474V39.0425C18.6299 40.3109 18.8691 40.5944 20.126 40.6235C20.764 40.6371 20.9172 40.7647 20.6709 41.3989C20.2648 42.4152 20.0032 43.4838 19.8945 44.5728C19.8363 45.1836 19.6075 45.2944 19.0566 45.2905C16.1186 45.266 13.1783 45.266 10.2363 45.2905C8.04447 45.3022 6.68876 46.2295 6.16309 48.0063C6.03148 48.5381 5.97711 49.086 6.00195 49.6333C6.00195 51.8951 5.96134 54.1596 6.01953 56.4233C6.04273 57.2572 5.76699 57.4553 4.9834 57.4185C3.66067 57.3515 2.33542 57.3515 1.0127 57.4185C0.209712 57.4631 -0.00382521 57.2359 0 56.4233C0.0310373 49.4012 0.0175781 42.3899 0.0175781 35.3774V14.6353C0.0175781 12.8351 0.502613 12.3559 2.30859 12.354H29.5479ZM3.96875 30.938C3.19294 30.9439 2.77639 31.3877 2.77637 32.1636V39.3413C2.77454 40.1772 3.21652 40.6216 4.01562 40.6313C6.41046 40.6546 8.80272 40.6546 11.1924 40.6313C12.0284 40.6236 12.494 40.1984 12.4727 39.2944C12.4513 38.1307 12.4727 36.967 12.4727 35.8032C12.4727 34.6065 12.4619 33.4111 12.458 32.2163C12.4696 31.3744 12.0598 30.938 11.2354 30.938C8.81837 30.9244 6.39155 30.9205 3.96875 30.938ZM11.0781 16.5942C8.78548 16.5723 6.49284 16.5723 4.2002 16.5942C3.14687 16.6039 2.79688 16.9598 2.79688 17.9976C2.78395 20.2902 2.78395 22.5828 2.79688 24.8755C2.80269 25.8861 3.13281 26.2515 4.11426 26.2612C6.47309 26.2858 8.83125 26.2858 11.1875 26.2612C12.1978 26.2495 12.4727 25.9286 12.4727 24.8696V21.479C12.4727 20.3501 12.4804 19.2212 12.4746 18.0864C12.4688 16.9516 12.1702 16.6039 11.0781 16.5942ZM19.8271 16.5923C19.0009 16.5962 18.6106 17.0426 18.6318 17.8882C18.6532 19.0521 18.6318 20.2165 18.6318 21.3804C18.6318 22.5752 18.6532 23.7704 18.6318 24.9614C18.6106 25.867 19.0453 26.2641 19.9141 26.2642H26.9854C27.8676 26.266 28.3154 25.8049 28.3252 24.9673C28.3472 22.6097 28.3472 20.2522 28.3252 17.896C28.3174 17.1202 27.9374 16.5923 27.0918 16.5923C24.6768 16.5826 22.248 16.5768 19.8271 16.5923Z" fill="#48BEA0"/>
<path d="M38.4912 30.833C40.6629 30.8406 42.8123 31.2755 44.8154 32.1143C46.8186 32.953 48.6368 34.1787 50.166 35.7207C51.6952 37.2627 52.9055 39.0914 53.7275 41.1016C54.5495 43.1116 54.9675 45.264 54.957 47.4355C54.9558 49.6156 54.5242 51.774 53.6875 53.7871C52.8507 55.8002 51.6245 57.6283 50.0801 59.167C48.5356 60.7057 46.7028 61.9247 44.6865 62.7539C42.6703 63.5831 40.5101 64.0069 38.3301 64C29.2228 63.959 21.7861 56.5098 21.7744 47.418C21.7629 38.235 29.2481 30.8099 38.4912 30.833ZM48.5615 45.5967C48.5731 39.0694 42.9689 34.1887 36.7461 35.3154C29.016 36.7063 25.52 46.2852 30.5244 52.4189C32.6893 55.0688 34.9204 57.6663 37.1318 60.2793C38.0648 61.3732 38.5478 61.3522 39.5078 60.21C41.6474 57.6649 43.7814 55.1019 45.9365 52.5801C47.6351 50.6511 48.5692 48.1669 48.5615 45.5967Z" fill="#48BEA0"/>
<path d="M10.2887 35.8185C10.2887 36.6875 10.6301 37.8534 10.1995 38.3403C9.69321 38.9222 8.50022 38.511 7.60595 38.5168C6.74273 38.5168 5.62733 38.8931 5.08418 38.3597C4.54102 37.8262 4.92899 36.7069 4.92123 35.8379C4.92123 34.9398 4.53326 33.7817 5.06284 33.2153C5.59241 32.6488 6.77765 33.0465 7.67191 33.0368C8.53513 33.0271 9.66605 32.6605 10.1937 33.1881C10.7213 33.7157 10.3081 34.8447 10.3566 35.7099C10.3566 35.7429 10.3566 35.7739 10.3566 35.8069L10.2887 35.8185Z" fill="#263C90"/>
<path d="M10.3533 21.4848C10.3533 22.1948 10.3358 22.9047 10.3533 23.6186C10.3669 24.0357 10.2175 24.1812 9.79655 24.1753C8.34556 24.1559 6.88681 24.1598 5.44163 24.1753C5.02069 24.1753 4.88878 24.0085 4.89266 23.5934C4.91206 22.1398 4.91206 20.6882 4.89266 19.2385C4.89266 18.8059 5.06337 18.6798 5.46491 18.6837C6.9159 18.6953 8.37465 18.7011 9.81789 18.6837C10.264 18.6837 10.363 18.8777 10.3513 19.2656C10.3397 20.0008 10.3533 20.7438 10.3533 21.4848Z" fill="#263C90"/>
<path d="M23.6914 18.6876C24.4286 18.7729 25.6138 18.2996 26.1298 18.8816C26.5701 19.3782 26.2714 20.5362 26.2869 21.4033C26.2986 22.1133 26.2617 22.8233 26.2986 23.5371C26.3238 24.059 26.1143 24.1967 25.6235 24.187C24.2385 24.1618 22.8534 24.1598 21.4684 24.187C20.9446 24.1967 20.7216 24.0745 20.7371 23.4964C20.7759 22.1114 20.7701 20.7244 20.7371 19.3394C20.7274 18.8214 20.9155 18.6682 21.4102 18.6915C22.1182 18.7128 22.8282 18.6876 23.6914 18.6876Z" fill="#263C90"/>
<path d="M35.0576 38.1025C36.5796 37.3759 38.2898 37.1383 39.9521 37.4229C43.6475 38.0184 46.4278 41.4964 46.4336 45.5293C46.4995 47.5139 45.8204 49.4515 44.5303 50.9609C42.6448 53.2499 40.6931 55.4845 38.8115 57.7773C38.3597 58.328 38.1408 58.2232 37.7471 57.7461C35.9043 55.5056 34.0185 53.2981 32.168 51.0635C29.9625 48.402 29.6869 44.5783 31.4521 41.4805C32.276 40.009 33.5358 38.8292 35.0576 38.1025ZM40.4492 39.8887C39.4244 39.4741 38.2987 39.3737 37.2168 39.6006C36.135 39.8275 35.1448 40.3709 34.373 41.1621C33.6012 41.9535 33.0827 42.9576 32.8828 44.0449C32.6831 45.1319 32.8112 46.2537 33.251 47.2676C33.691 48.2817 34.423 49.1425 35.3535 49.7393C36.2841 50.3361 37.3713 50.6422 38.4766 50.6191C39.2023 50.6123 39.9194 50.4618 40.5869 50.1768C41.2544 49.8917 41.8594 49.4776 42.3662 48.958C42.8729 48.4385 43.2717 47.8237 43.54 47.1494C43.8083 46.4751 43.941 45.754 43.9297 45.0283C43.9251 43.923 43.5914 42.844 42.9717 41.9287C42.3519 41.0134 41.4739 40.3033 40.4492 39.8887Z" fill="#263C90"/>
<path d="M38.4199 48.5068C37.9684 48.5168 37.5194 48.4372 37.0988 48.2726C36.6783 48.108 36.2945 47.8616 35.9698 47.5477C35.6451 47.2338 35.3858 46.8587 35.207 46.4439C35.0283 46.0292 34.9335 45.5831 34.9282 45.1315C34.9205 44.6721 35.0039 44.2157 35.1735 43.7886C35.3431 43.3615 35.5956 42.9723 35.9165 42.6434C36.2373 42.3144 36.6201 42.0522 37.0428 41.872C37.4655 41.6918 37.9197 41.597 38.3792 41.5933C38.832 41.5943 39.2802 41.6846 39.698 41.8591C40.1159 42.0335 40.4953 42.2887 40.8144 42.61C41.1335 42.9313 41.3861 43.3123 41.5577 43.7314C41.7294 44.1504 41.8167 44.5992 41.8146 45.052C41.8247 45.5034 41.7443 45.9522 41.578 46.372C41.4118 46.7918 41.1631 47.174 40.8466 47.496C40.5302 47.8181 40.1524 48.0735 39.7356 48.2471C39.3188 48.4207 38.8714 48.509 38.4199 48.5068Z" fill="#263C90"/>
</svg>
