<svg width="21" height="8" viewBox="0 0 21 8" fill="none" xmlns="http://www.w3.org/2000/svg">
<path d="M20.5 4.18201C20.7761 4.18201 21 3.95815 21 3.68201C21 3.40586 20.7761 3.18201 20.5 3.18201L20.5 3.68201L20.5 4.18201ZM0.146446 3.32845C-0.0488148 3.52371 -0.0488148 3.8403 0.146446 4.03556L3.32843 7.21754C3.52369 7.4128 3.84027 7.4128 4.03553 7.21754C4.2308 7.02228 4.2308 6.70569 4.03553 6.51043L1.20711 3.68201L4.03553 0.853578C4.2308 0.658316 4.2308 0.341734 4.03553 0.146471C3.84027 -0.0487907 3.52369 -0.0487907 3.32843 0.146471L0.146446 3.32845ZM20.5 3.68201L20.5 3.18201L0.5 3.18201L0.5 3.68201L0.5 4.18201L20.5 4.18201L20.5 3.68201Z" fill="black"/>
</svg>
