<svg width="110" height="115" viewBox="0 0 110 115" fill="none" xmlns="http://www.w3.org/2000/svg">
<path d="M15.8122 14.0364L98.526 1.70992C104.569 0.809342 110 5.49086 110 11.6007V65.3893C110 68.8936 108.166 72.1422 105.165 73.9521L66.7465 97.1262C62.2103 99.8625 56.3272 98.5863 53.3325 94.2164L9.03728 29.5802C4.86158 23.4869 8.5061 15.1252 15.8122 14.0364Z" fill="#C6FCEE"/>
<path d="M87.7675 31.2326L79.2675 22.7326C78.8704 22.3387 78.3994 22.027 77.8816 21.8155C77.3638 21.604 76.8093 21.4968 76.25 21.5001H29.5C27.2457 21.5001 25.0837 22.3956 23.4896 23.9897C21.8955 25.5837 21 27.7457 21 30.0001V98.0001C21 100.254 21.8955 102.416 23.4896 104.01C25.0837 105.605 27.2457 106.5 29.5 106.5H80.5C82.7543 106.5 84.9163 105.605 86.5104 104.01C88.1045 102.416 89 100.254 89 98.0001V34.2501C89.0032 33.6907 88.896 33.1363 88.6845 32.6185C88.473 32.1007 88.1614 31.6297 87.7675 31.2326Z" fill="#45C2B1"/>
<path d="M72 89.5001H38C36.8728 89.5001 35.7918 89.0523 34.9948 88.2553C34.1978 87.4582 33.75 86.3772 33.75 85.2501C33.75 84.1229 34.1978 83.0419 34.9948 82.2449C35.7918 81.4478 36.8728 81.0001 38 81.0001H72C73.1272 81.0001 74.2082 81.4478 75.0052 82.2449C75.8022 83.0419 76.25 84.1229 76.25 85.2501C76.25 86.3772 75.8022 87.4582 75.0052 88.2553C74.2082 89.0523 73.1272 89.5001 72 89.5001ZM72 72.5001H38C36.8728 72.5001 35.7918 72.0523 34.9948 71.2553C34.1978 70.4582 33.75 69.3772 33.75 68.2501C33.75 67.1229 34.1978 66.0419 34.9948 65.2449C35.7918 64.4478 36.8728 64.0001 38 64.0001H72C73.1272 64.0001 74.2082 64.4478 75.0052 65.2449C75.8022 66.0419 76.25 67.1229 76.25 68.2501C76.25 69.3772 75.8022 70.4582 75.0052 71.2553C74.2082 72.0523 73.1272 72.5001 72 72.5001ZM72 55.5001H38C36.8728 55.5001 35.7918 55.0523 34.9948 54.2553C34.1978 53.4582 33.75 52.3772 33.75 51.2501C33.75 50.1229 34.1978 49.0419 34.9948 48.2449C35.7918 47.4478 36.8728 47.0001 38 47.0001H72C73.1272 47.0001 74.2082 47.4478 75.0052 48.2449C75.8022 49.0419 76.25 50.1229 76.25 51.2501C76.25 52.3772 75.8022 53.4582 75.0052 54.2553C74.2082 55.0523 73.1272 55.5001 72 55.5001ZM87.7675 31.2326L79.2675 22.7326C78.8704 22.3387 78.3994 22.027 77.8816 21.8155C77.3638 21.604 76.8093 21.4968 76.25 21.5001V30.0001C76.25 31.1272 76.6978 32.2082 77.4948 33.0053C78.2918 33.8023 79.3728 34.2501 80.5 34.2501H89C89.0032 33.6907 88.896 33.1363 88.6845 32.6185C88.473 32.1007 88.1614 31.6297 87.7675 31.2326Z" fill="#FAFAFA"/>
</svg>
