<svg width="1028" height="463" viewBox="0 0 1028 463" fill="none" xmlns="http://www.w3.org/2000/svg">
<path opacity="0.5" fill-rule="evenodd" clip-rule="evenodd" d="M296.889 324.001C297.042 326.573 297.323 329.049 297.729 331.435L296.889 324.001ZM762.627 367.329C763.133 368.245 763.667 369.224 764.224 370.256L762.627 367.329ZM764.224 370.256C764.721 371.176 765.222 372.111 765.725 373.065L764.224 370.256ZM765.725 373.065C766.214 373.993 766.715 374.952 767.225 375.949L765.725 373.065ZM767.225 375.949C767.731 376.935 768.197 377.858 768.629 378.723L767.225 375.949ZM768.629 378.723C769.044 379.556 769.517 380.515 770.029 381.563L768.629 378.723ZM770.029 381.563C770.473 382.471 770.916 383.388 771.357 384.31L770.029 381.563ZM771.357 384.31C771.801 385.239 772.246 386.178 772.686 387.116L771.357 384.31ZM772.686 387.116C773.11 388.022 773.532 388.932 773.949 389.839L772.686 387.116ZM773.949 389.839H773.95C774.375 390.764 774.798 391.692 775.215 392.619M775.215 392.619C775.624 393.526 776.027 394.428 776.423 395.322L775.215 392.619ZM776.423 395.322C776.781 396.132 777.182 397.045 777.63 398.077L776.423 395.322ZM777.63 398.077C778.047 399.039 778.441 399.95 778.786 400.76L777.63 398.077ZM778.786 400.76L779.482 402.396L778.786 400.76ZM788.662 425.602C788.288 424.596 787.913 423.597 787.539 422.605L788.522 425.229C789.917 428.975 791.312 432.818 792.705 436.762C791.35 432.924 790.003 429.205 788.662 425.602ZM779.482 402.396L779.087 401.461L779.482 402.396ZM779.087 401.461C778.698 400.544 778.315 399.649 777.942 398.785L779.087 401.461ZM777.942 398.785H777.94H777.942ZM777.94 398.785C777.535 397.846 777.135 396.93 776.745 396.04L777.94 398.785ZM776.745 396.04C776.316 395.065 775.916 394.166 775.549 393.345L776.745 396.04ZM775.549 393.345C775.126 392.401 774.707 391.478 774.294 390.575L775.549 393.345ZM774.294 390.575C773.94 389.803 773.516 388.888 773.038 387.859L774.294 390.575ZM773.038 387.859C772.596 386.911 772.156 385.977 771.721 385.062L773.038 387.859ZM771.721 385.062C771.258 384.089 770.816 383.171 770.403 382.322L771.721 385.062ZM770.403 382.322C769.94 381.368 769.476 380.423 769.015 379.493L770.403 382.322ZM769.015 379.493C768.573 378.601 768.111 377.684 767.627 376.731L769.015 379.493ZM767.627 376.731C767.082 375.66 766.591 374.707 766.15 373.861L767.627 376.731ZM766.15 373.861C765.659 372.922 765.166 371.99 764.671 371.066L766.15 373.861ZM764.671 371.066C763.651 369.161 762.616 367.284 761.568 365.434L764.671 371.066ZM663.333 312.595V312.596L662.498 312.836L663.152 312.65H663.155L664.015 312.41V312.41L664.3 312.33L664.305 312.328L665.092 312.116H665.095L665.881 311.91C666.426 311.77 666.955 311.635 667.458 311.511C667.986 311.382 668.513 311.256 669.033 311.137H669.036L670.18 310.881L670.182 310.879L671.323 310.637H671.325L671.911 310.514L671.914 310.513C672.312 310.434 672.757 310.347 673.25 310.257C673.737 310.168 674.178 310.089 674.581 310.02C674.958 309.955 675.386 309.885 675.846 309.814C676.315 309.741 676.732 309.679 677.106 309.625C677.446 309.577 677.816 309.526 678.224 309.474C678.639 309.42 679.008 309.374 679.341 309.335H679.343L679.506 309.318C679.862 309.278 680.243 309.237 680.643 309.197H680.646L681.776 309.093L681.779 309.091L682.642 309.02H682.648L683.509 308.96H683.517L683.929 308.939C684.257 308.921 684.594 308.902 684.945 308.888C685.273 308.874 685.615 308.86 685.959 308.851H685.961L686.913 308.827H686.916C687.231 308.822 687.551 308.818 687.872 308.818H687.876L688.136 308.821L688.748 308.826H688.751L689.364 308.837L689.637 308.841H689.645L690.318 308.862H690.322L690.995 308.891L691.282 308.904H691.285L692.042 308.945H692.046L692.803 308.994H692.81L693.068 309.016L693.071 309.017H693.073V309.016C693.424 309.042 693.77 309.068 694.189 309.108L694.349 309.122H694.35L694.673 309.154H694.68L695.1 309.203H695.101L695.402 309.239L695.876 309.295L696.029 309.313H696.032L696.461 309.363L696.465 309.365L696.859 309.417L696.869 309.418L697.335 309.491V309.49L697.584 309.528L697.586 309.529L698.006 309.595L698.124 309.613L698.458 309.665V309.664L698.504 309.671L698.507 309.672L698.659 309.696H698.664C704.079 310.613 709.432 312.281 714.733 314.835C720.03 317.386 725.28 320.824 730.497 325.284C731.839 326.431 733.18 327.647 734.52 328.933C735.848 330.209 737.186 331.565 738.529 333.001H738.53C739.523 334.063 740.521 335.172 741.521 336.323C742.525 337.479 743.522 338.67 744.508 339.892C745.321 340.9 746.143 341.95 746.97 343.037C747.782 344.103 748.604 345.214 749.431 346.36C750.148 347.354 750.863 348.366 751.571 349.395C752.275 350.417 752.989 351.476 753.71 352.569L753.711 352.568C754.371 353.568 755.013 354.56 755.634 355.538C756.254 356.516 756.889 357.535 757.536 358.593C758.124 359.556 758.707 360.522 759.281 361.489C759.807 362.376 760.33 363.269 760.845 364.166C760.492 363.547 760.141 362.942 759.793 362.348C759.246 361.413 758.674 360.453 758.08 359.471C757.453 358.433 756.828 357.416 756.211 356.428C755.57 355.403 754.945 354.421 754.342 353.495C753.642 352.418 752.948 351.375 752.264 350.367C751.577 349.355 750.878 348.349 750.169 347.35C749.366 346.218 748.567 345.125 747.776 344.07C746.986 343.016 746.187 341.978 745.382 340.959C744.428 339.75 743.479 338.585 742.538 337.469C741.593 336.346 740.644 335.258 739.693 334.209C738.464 332.853 737.22 331.549 735.967 330.299C734.724 329.058 733.478 327.878 732.233 326.756C730.01 324.754 727.781 322.938 725.551 321.305C723.323 319.676 721.084 318.22 718.834 316.932C716.163 315.403 713.485 314.114 710.801 313.046C708.109 311.976 705.405 311.124 702.69 310.472C702.296 310.378 701.859 310.279 701.39 310.177C700.955 310.084 700.519 309.995 700.087 309.912L700.047 309.905H700.046L699.846 309.866H699.844L699.734 309.845V309.844L699.371 309.775L699.275 309.756V309.757L698.691 309.654L698.655 309.648L698.646 309.647L698.031 309.552H698.03L697.8 309.518L697.786 309.515L697.769 309.511L697.504 309.469H697.502C697.261 309.431 697.017 309.392 696.765 309.358L696.753 309.357L696.744 309.355C696.494 309.323 696.209 309.29 695.924 309.257L695.555 309.216H695.553L695.399 309.198C694.99 309.151 694.587 309.105 694.236 309.072V309.073L693.677 309.027L693.406 309.005L692.764 308.954V308.953L692.097 308.911L691.429 308.875L691.185 308.864L690.339 308.828L689.495 308.804L688.872 308.795L688.25 308.79L687.716 308.786L687.346 308.794H687.344L686.58 308.806L685.814 308.825C685.494 308.836 685.163 308.85 684.821 308.866L683.821 308.92C683.494 308.94 683.15 308.963 682.787 308.99H682.786C682.462 309.013 682.11 309.043 681.748 309.074V309.073L680.68 309.173V309.174L679.606 309.288V309.289L678.767 309.389V309.388L677.934 309.495V309.496L677.398 309.569V309.57L676.272 309.736C675.873 309.797 675.495 309.857 675.149 309.915L674.016 310.11V310.11L672.889 310.318V310.318L671.779 310.537V310.536L670.673 310.768L670.192 310.87V310.87L669.427 311.04V311.041L668.658 311.218V311.219L668.185 311.331H668.183L667.822 311.416L667.248 311.552V311.552C666.616 311.708 665.964 311.877 665.297 312.055C664.634 312.232 663.977 312.413 663.333 312.595ZM655.371 315.092L655.195 315.154L655.372 315.093L656.373 314.758L656.74 314.636V314.635L657.1 314.514L657.204 314.479L657.007 314.544V314.543L656.192 314.813V314.814L655.371 315.093V315.092ZM654.095 315.536V315.537L654.03 315.56L654.207 315.498L654.095 315.536ZM643.403 319.637V319.638L643.291 319.684L644.153 319.331C644.709 319.104 645.375 318.836 646.11 318.543L646.464 318.402L646.466 318.401L647.654 317.933H647.655L648.84 317.474L648.842 317.473L650.018 317.025H650.02L651.192 316.588L651.193 316.586L651.852 316.344H651.853L653.099 315.891L652.81 315.994L651.934 316.312V316.313L651.051 316.638V316.638C650.592 316.808 650.093 316.995 649.456 317.238H649.455C648.9 317.448 648.364 317.656 647.855 317.853V317.854L646.615 318.341V318.341L645.362 318.84V318.841L644.382 319.237V319.236L643.403 319.637ZM641.635 320.372L640.799 320.725L641.905 320.26L641.635 320.373V320.372ZM637.378 322.191V322.192L636.698 322.491H636.699L638.204 321.836H638.206C639.011 321.487 639.802 321.148 640.574 320.821V320.82L639.862 321.121V321.122L639.283 321.369V321.368L637.378 322.191ZM613.777 333.109V333.11L612.962 333.498H612.964L614.418 332.807V332.806L615.251 332.409H615.252L618.187 331.015L619.547 330.37L621.246 329.567H621.247L624.363 328.103L624.701 327.944L624.703 327.942L627.623 326.586H627.624L629.907 325.537L630.979 325.047L630.981 325.046L632.752 324.244H632.753L634.518 323.454H634.519L635.186 323.158V323.156L636.542 322.559L635.463 323.033V323.034L634.5 323.46V323.46L633.155 324.061V324.062L631.803 324.672V324.671L629.24 325.839L628.332 326.257V326.257L626.654 327.034V327.034L624.966 327.82L624.965 327.818L624.05 328.247L621.73 329.336V329.337L618.902 330.674L618.561 330.836L615.502 332.289L613.777 333.109ZM598.184 340.472L597.108 340.97L598.824 340.177V340.177L601.435 338.958L604.072 337.718L604.161 337.677V337.676L606.792 336.433L609.296 335.243L609.546 335.124L612.354 333.788V333.788L612.473 333.731H612.472L609.546 335.123L608.653 335.547L606.641 336.502L603.795 337.847L603.515 337.98H603.513L600.983 339.167V339.169L598.186 340.472L598.184 340.472ZM594.075 342.364L593.011 342.848L593.75 342.513V342.514L596.253 341.367V341.366L596.818 341.104H596.818L595.447 341.734L594.076 342.363L594.075 342.364ZM584.531 346.617L583.22 347.183L584.086 346.81L584.087 346.811C584.804 346.502 585.587 346.16 586.437 345.787V345.787L587.628 345.262L588.816 344.736V344.736L591.261 343.641L591.342 343.604H591.341L589.979 344.215L588.626 344.819L588.624 344.82L587.272 345.418H587.271L585.904 346.018L584.532 346.616L584.531 346.617ZM580.45 348.362V348.362L581.766 347.806V347.806L582.927 347.31V347.309L583.18 347.2H583.179L581.823 347.78H581.822L580.45 348.362ZM580.121 348.501L579.208 348.884L579.549 348.742V348.742L580.121 348.501ZM573.602 351.173L573.434 351.24V351.24L573.602 351.173ZM575.353 350.469L575.293 350.494L575.353 350.47V350.469ZM571.817 351.879L570.643 352.338L571.522 351.994L571.817 351.879ZM568.856 353.024L568.854 353.025L570.426 352.421H570.424L568.856 353.024ZM565.538 354.267L565.537 354.267C566.642 353.861 567.743 353.448 568.839 353.032L567.278 353.62H567.277L565.538 354.267ZM556.176 357.53L555.921 357.613L556.576 357.398L556.176 357.53ZM552.788 358.615H552.787H552.788ZM552.787 358.615L552.296 358.767L552.787 358.615ZM552.296 358.767V358.768V358.767ZM481.103 376.732C479.391 377.063 477.676 377.387 475.96 377.703C477.676 377.387 479.391 377.063 481.103 376.732ZM327.767 371.891C327.444 371.718 327.124 371.544 326.806 371.367C327.124 371.544 327.445 371.718 327.767 371.891ZM308.68 356.434C305.804 352.841 303.4 348.869 301.523 344.492C303.4 348.868 305.8 352.837 308.67 356.424C310.555 358.78 312.645 360.972 314.924 363.008C312.649 360.975 310.563 358.786 308.68 356.434ZM297.729 331.435C297.323 329.043 297.041 326.559 296.889 323.979L297.729 331.435ZM298.024 333.053C297.924 332.539 297.829 332.021 297.739 331.499C297.829 332.021 297.924 332.54 298.024 333.053ZM298.545 335.448C298.37 334.718 298.209 333.978 298.06 333.229C298.209 333.978 298.37 334.717 298.545 335.448ZM299.461 338.834C299.362 338.508 299.266 338.179 299.173 337.849C299.266 338.179 299.362 338.507 299.461 338.834ZM296.794 321.892C296.767 321.057 296.754 320.213 296.754 319.36C296.754 320.214 296.768 321.058 296.794 321.892ZM296.889 323.979C296.859 323.478 296.834 322.974 296.814 322.465L296.889 323.979ZM299.125 245.855C295.396 232.824 286.538 225.858 269.664 223.381C286.553 225.864 295.419 232.918 299.153 246.141C302.462 257.858 301.702 274.419 298.919 296.962C301.723 274.255 302.484 257.591 299.125 245.855ZM253.151 222.328C228.276 222.304 191.778 227.631 139.318 235.915C191.778 227.632 228.276 222.305 253.151 222.328ZM62.0316 248.113C47.6675 250.338 34.0035 251.393 21.0249 251.385C34.0036 251.393 47.6676 250.338 62.0316 248.113ZM638.57 325.257L638.486 325.274L638.57 325.257ZM813.324 265.662H813.331L813.883 265.4L813.324 265.662ZM809.127 267.641L809.17 267.64L811.441 266.56L811.409 266.563L809.127 267.641ZM807.2 267.703H807.208L807.764 267.439L807.2 267.703ZM804.861 269.668H804.909L807.394 268.486L807.339 268.49L804.861 269.668ZM803.009 269.679L803.053 269.679L805.315 268.602L805.283 268.606L803.009 269.679ZM801.083 269.742L801.09 269.741L801.644 269.478L801.083 269.742ZM798.914 272.506H798.897L797.198 273.312L798.914 272.506ZM800.513 271.738L800.541 271.739L803.22 270.471L803.173 270.472L802.833 270.633L800.513 271.738ZM798.742 271.706L798.791 271.707L801.276 270.525L801.222 270.528L798.742 271.706ZM796.89 271.719L796.934 271.718L799.198 270.641L799.166 270.643L796.89 271.719ZM794.963 271.781L794.971 271.78L795.525 271.517L794.963 271.781ZM792.795 274.545H792.778L791.079 275.352L792.795 274.545ZM794.393 273.777L794.421 273.778L797.102 272.509L797.055 272.51L796.714 272.672L794.393 273.777ZM792.623 273.745L792.671 273.746L795.159 272.563L795.104 272.565L792.623 273.745ZM790.77 273.758L790.814 273.757L793.08 272.678L793.049 272.681L790.77 273.758ZM788.844 273.82L788.852 273.819L789.405 273.556L788.844 273.82ZM786.674 276.585H786.656L784.959 277.39L786.674 276.585ZM788.272 275.817L788.3 275.818L790.982 274.549L790.935 274.549L790.594 274.711L788.272 275.817ZM786.502 275.785L786.55 275.786L789.039 274.602L788.984 274.604L786.502 275.785ZM784.649 275.798L784.693 275.797L786.961 274.717L786.929 274.72L784.649 275.798ZM782.723 275.86L782.73 275.859L783.286 275.596L782.723 275.86ZM780.552 278.626L780.534 278.625L778.84 279.43L780.552 278.626ZM782.15 277.857L782.178 277.859L784.861 276.588L784.814 276.589L784.475 276.75L782.15 277.857ZM780.38 277.826H780.428L782.918 276.642L782.863 276.645L780.38 277.826ZM778.528 277.837L778.571 277.837L780.84 276.758L780.807 276.76L778.528 277.837ZM776.602 277.9H776.609L777.166 277.635L776.602 277.9ZM774.431 280.665H774.414L772.72 281.469L774.431 280.665ZM776.031 279.897L776.058 279.898L778.738 278.629L778.691 278.63L778.355 278.789L776.031 279.897ZM774.259 279.865L774.308 279.866L776.794 278.683L776.741 278.686L774.259 279.865ZM772.406 279.877L772.45 279.876L774.718 278.798L774.686 278.8L772.406 279.877ZM770.469 279.94L770.487 279.939L771.66 279.383L770.469 279.94ZM768.31 282.705H768.293L766.601 283.508L768.31 282.705ZM769.909 281.936L769.937 281.938L772.619 280.668L772.571 280.669L772.236 280.828L769.909 281.936ZM768.139 281.905H768.188L770.675 280.722L770.62 280.725L768.139 281.905ZM766.277 281.917L766.33 281.916L768.597 280.838L768.553 280.841L766.277 281.917ZM764.335 281.98L764.356 281.978L765.841 281.275L764.335 281.98ZM762.232 284.725L762.215 284.724L760.481 285.547L762.232 284.725ZM763.766 283.986L763.794 283.988L766.498 282.708L766.45 282.709L766.116 282.868L763.766 283.986ZM761.998 283.949H762.057L764.553 282.762L764.489 282.766L761.998 283.949ZM760.129 283.963L760.187 283.961L762.464 282.878L762.416 282.882L760.129 283.963ZM758.204 284.025H758.21L758.618 283.831L758.204 284.025ZM756.107 286.766H756.08L753.705 287.893L756.107 286.766ZM757.631 286.028L757.67 286.029L760.416 284.728L760.358 284.73L759.992 284.904L757.631 286.028ZM755.859 285.991L755.922 285.992L758.452 284.788L758.386 284.791L755.859 285.991ZM754.016 286L754.058 285.999L756.358 284.904L756.328 284.907L754.016 286ZM749.98 288.803H749.949L747.258 290.081L749.98 288.803ZM751.504 288.065L751.546 288.066L754.284 286.769L754.223 286.77L753.866 286.94L751.504 288.065ZM749.737 288.032H749.786L752.319 286.827L752.266 286.83L749.737 288.032ZM747.899 288.042L747.932 288.041L750.233 286.947L750.213 286.948L747.899 288.042ZM678.164 311.627L678.045 311.684L678.131 311.666L678.249 311.61L678.164 311.627ZM743.846 290.843H743.831L742.327 291.556L743.846 290.843ZM745.378 290.107L745.405 290.108L748.146 288.811L748.1 288.811L747.745 288.98L745.378 290.107ZM743.629 290.07H743.67L746.201 288.866L746.158 288.867L743.629 290.07ZM741.787 290.083H741.818L744.121 288.986L744.102 288.988L741.787 290.083ZM739.858 290.143L739.869 290.142L740.783 289.709L739.858 290.143ZM672.033 313.671L671.93 313.72L672.017 313.702L672.119 313.654L672.033 313.671ZM675.095 312.218L674.856 312.332L674.927 312.318L675.163 312.205L675.095 312.218ZM737.723 292.884H737.715L736.867 293.286L737.723 292.884ZM739.266 292.147H739.286L742.031 290.848L741.992 290.849L741.631 291.021L739.266 292.147ZM737.519 292.11H737.555L740.086 290.906L740.047 290.908L737.519 292.11ZM735.663 292.122L735.713 292.12L738.013 291.025L737.978 291.027L735.663 292.122ZM733.732 292.185L733.742 292.184L734.487 291.831L733.732 292.185ZM665.927 315.703L665.813 315.758L665.899 315.741L666.012 315.687L665.927 315.703ZM668.964 314.263L668.744 314.367L668.814 314.353L669.03 314.25L668.964 314.263ZM672.113 312.777L671.759 312.944L671.789 312.938L672.135 312.774L672.113 312.777ZM731.608 294.926H731.601L731.041 295.192L731.608 294.926ZM733.157 294.186L733.174 294.187L735.921 292.887L735.885 292.888L735.517 293.063L733.157 294.186ZM731.391 294.151H731.444L733.977 292.946L733.919 292.948L731.391 294.151ZM729.541 294.161L729.588 294.159L731.891 293.064L731.856 293.066L729.541 294.161ZM727.608 294.225L727.616 294.225L728.192 293.952L727.608 294.225ZM659.81 317.743L659.685 317.802L659.769 317.785L659.889 317.728L659.81 317.743ZM662.865 316.293L662.63 316.405L662.694 316.392L662.927 316.282L662.865 316.293ZM665.991 314.82L665.653 314.979L665.675 314.974L666.008 314.817L665.991 314.82ZM725.496 296.966H725.474L723.292 298.001L725.496 296.966ZM727.034 296.225L727.067 296.226L729.807 294.928L729.756 294.929L729.394 295.101L727.034 296.225ZM725.268 296.191H725.318L727.847 294.987L727.791 294.991L725.268 296.191ZM723.422 296.199L723.466 296.198L725.764 295.105L725.733 295.107L723.422 296.199ZM721.488 296.264H721.495L721.951 296.048L721.488 296.264ZM653.676 319.79L653.588 319.832L653.669 319.815L653.753 319.775L653.676 319.79ZM656.751 318.332L656.505 318.449L656.567 318.436L656.807 318.321L656.751 318.332ZM659.896 316.85L659.546 317.014L659.563 317.012L659.905 316.848L659.896 316.85ZM719.372 299.005H719.353L717.499 299.885L719.372 299.005ZM720.911 298.264L720.943 298.265L723.678 296.97L723.629 296.971L723.272 297.14L720.911 298.264ZM719.148 298.23H719.197L721.722 297.028L721.669 297.03L719.148 298.23ZM717.301 298.24L717.346 298.238L719.64 297.146L719.611 297.148L717.301 298.24ZM715.372 298.303H715.375L715.656 298.171L715.372 298.303ZM647.589 321.816L647.466 321.874L647.544 321.859L647.663 321.802L647.589 321.816ZM650.621 320.379L650.413 320.478L650.47 320.465L650.674 320.369L650.621 320.379ZM653.784 318.888L653.417 319.06L653.434 319.057L653.793 318.886L653.784 318.888ZM713.247 301.046H713.229L711.54 301.848L713.247 301.046ZM714.785 300.306L714.814 300.307L717.557 299.009H717.511L717.151 299.18L714.785 300.306ZM713.025 300.27L713.072 300.271L715.603 299.068L715.55 299.07L713.025 300.27ZM711.176 300.282L711.218 300.281L713.518 299.186L713.49 299.188L711.176 300.282ZM709.251 300.344H709.257L709.716 300.126L709.251 300.344ZM638.486 325.274L638.481 325.275L638.57 325.257M641.451 323.863L641.352 323.91L641.441 323.892L641.537 323.847L641.451 323.863ZM644.522 322.407L644.279 322.522L644.348 322.508L644.586 322.395L644.522 322.407ZM647.639 320.937L647.315 321.089L647.342 321.084L647.658 320.934L647.639 320.937ZM707.129 303.085H707.112L705.535 303.833L707.129 303.085ZM708.665 302.346L708.694 302.346L711.436 301.048L711.39 301.05L711.031 301.22L708.665 302.346ZM706.909 302.309H706.957L709.482 301.108L709.432 301.11L706.909 302.309ZM705.058 302.321L705.1 302.32L707.398 301.228L707.368 301.229L705.058 302.321ZM703.13 302.385H703.135L703.503 302.211L703.13 302.385ZM635.328 325.899L635.198 325.961L635.301 325.939L635.427 325.879L635.328 325.899ZM638.365 324.458L638.147 324.561L638.231 324.545L638.446 324.443L638.365 324.458ZM641.524 322.969L641.165 323.138L641.208 323.129L641.56 322.962L641.524 322.969ZM702.551 304.383L702.579 304.385L705.309 303.092H705.265L704.914 303.259L702.551 304.383ZM700.796 304.346H700.844L703.364 303.147L703.311 303.15L700.796 304.346ZM698.943 304.359L698.985 304.359L701.279 303.266L701.251 303.268L698.943 304.359ZM697.017 304.422L697.021 304.421L697.421 304.232L697.017 304.422ZM626.228 329.356L626.223 329.359L626.3 329.343L626.303 329.341L626.228 329.356ZM629.196 327.945L629.101 327.991L629.18 327.974L629.273 327.93L629.196 327.945ZM632.273 326.487L632.019 326.606L632.077 326.595L632.326 326.477L632.273 326.487ZM635.402 325.013L635.066 325.171L635.077 325.168L635.406 325.012L635.402 325.013ZM689.04 307.346L689.013 307.348L687.581 308.024L687.618 308.023L689.04 307.346ZM694.667 306.39L694.715 306.391L697.251 305.184L697.2 305.186L694.667 306.39ZM692.816 306.403L692.856 306.402L695.171 305.301L695.143 305.303L692.816 306.403ZM690.887 306.467H690.892L691.174 306.332L690.887 306.467ZM623.099 329.975L622.968 330.038L623.045 330.022L623.174 329.961L623.099 329.975ZM626.141 328.533L625.926 328.635L625.987 328.623L626.196 328.523L626.141 328.533ZM629.302 327.043L628.932 327.217L628.953 327.213L629.316 327.041L629.302 327.043ZM577.363 349.65L577.37 349.647L577.408 349.631H577.409L578.48 349.188V349.188L579.072 348.94H579.072L577.663 349.524H577.661L576.247 350.105L576.247 350.107L576.159 350.143L576.357 350.062L576.358 350.063L577.357 349.653V349.653L577.363 349.65ZM530.142 365.248V365.249L530.078 365.266C514.983 369.403 499.067 373.206 482.933 376.376C506.532 371.739 529.661 365.75 550.441 359.343C547.459 360.262 544.413 361.178 541.313 362.085C537.684 363.146 533.958 364.203 530.145 365.248L530.142 365.248ZM274.923 221.607C256.501 219.095 228.699 221.803 187.929 227.747C225.402 222.425 251.377 220.111 268.956 222.508C286.706 224.928 295.98 232.075 299.862 245.644C303.716 259.11 302.212 278.901 298.419 306.715C297.578 312.882 297.339 318.616 297.653 323.935C297.977 329.397 298.887 334.427 300.329 339.046C302.328 345.443 305.357 351.059 309.277 355.953C313.379 361.077 318.46 365.417 324.36 369.051C330.016 372.533 336.429 375.372 343.462 377.63C350.856 380.004 358.933 381.74 367.533 382.911C389.179 385.862 414.142 385.258 439.917 382.339C445.869 381.665 451.865 380.867 457.872 379.962C427.905 384.103 398.505 385.419 373.495 382.009C356.038 379.628 340.71 374.945 328.808 367.318C316.877 359.672 308.385 349.069 304.636 334.867C302.336 326.153 301.825 316.088 303.401 304.524C310.9 249.53 309.404 226.308 274.923 221.607ZM819.457 263.62L820.003 263.361L819.45 263.62L819.457 263.62ZM815.294 265.6L817.568 264.518L817.535 264.52L815.25 265.601L815.294 265.6ZM811.027 267.63L813.519 266.445L813.465 266.447L810.979 267.63H811.027ZM806.659 269.701L809.338 268.433L809.29 268.434L808.953 268.594L806.631 269.699L806.659 269.701ZM803.318 271.273L805.032 270.468H805.015L803.318 271.273ZM700.283 305.462L700.301 305.457L701.015 305.122H700.999L700.283 305.462ZM696.886 306.208L696.949 306.194L699.2 305.128L699.153 305.128L698.794 305.299L696.886 306.208ZM690.291 307.602L690.373 307.585L691.123 307.228L691.071 307.231L690.291 307.602ZM678.26 310.733L678.233 310.738L677.886 310.901L677.918 310.894L678.26 310.733ZM681.288 310.165L681.219 310.178L680.989 310.287L681.061 310.272L681.288 310.165ZM0.0693064 0C27.7927 76.5556 99.5898 205.904 263.919 180.446C283.753 177.373 302.111 174.454 319.007 171.768C397.007 159.369 443.87 151.919 470.85 155.597C506.002 160.39 507.557 183.844 499.985 239.375C498.811 247.986 498.804 255.757 499.839 262.745C502.247 279.001 510.302 291.036 522.406 299.638C534.54 308.262 550.749 313.451 569.422 315.997C595.725 319.583 626.914 317.928 658.51 313.25C659.327 312.989 660.093 312.751 660.805 312.537C661.556 312.311 662.331 312.084 663.122 311.859H663.124C663.794 311.669 664.454 311.487 665.099 311.315C665.736 311.144 666.39 310.976 667.055 310.81C668.717 310.234 670.368 309.69 672.013 309.18C674.042 308.462 676.059 307.789 678.062 307.165C680.118 306.437 682.158 305.755 684.187 305.124C686.242 304.395 688.281 303.713 690.309 303.082C692.379 302.349 694.434 301.661 696.477 301.027C698.513 300.305 700.535 299.629 702.545 299.003C704.596 298.276 706.634 297.596 708.659 296.965C710.726 296.232 712.779 295.545 714.82 294.911C716.869 294.184 718.907 293.502 720.931 292.873C722.969 292.151 724.994 291.473 727.007 290.846C729.075 290.113 731.128 289.427 733.168 288.792C733.713 288.599 734.255 288.409 734.797 288.223C736.284 287.712 737.762 287.229 739.235 286.771C739.796 286.572 740.356 286.376 740.915 286.184C742.399 285.674 743.875 285.192 745.344 284.734C745.909 284.534 746.472 284.337 747.035 284.144C748.514 283.636 749.986 283.156 751.452 282.699C752.02 282.497 752.587 282.298 753.153 282.104C754.64 281.594 756.118 281.11 757.592 280.652C758.153 280.452 758.714 280.256 759.273 280.064C760.765 279.552 762.248 279.067 763.726 278.608C764.283 278.411 764.838 278.216 765.393 278.025C766.892 277.51 768.383 277.023 769.868 276.561C770.418 276.365 770.967 276.174 771.514 275.986C773.023 275.468 774.524 274.978 776.018 274.514C776.559 274.322 777.098 274.133 777.637 273.948C779.092 273.448 780.539 272.976 781.981 272.526C782.571 272.316 783.161 272.109 783.75 271.907C785.212 271.405 786.667 270.929 788.116 270.478C788.7 270.271 789.283 270.067 789.865 269.867C791.351 269.356 792.83 268.872 794.302 268.415C794.864 268.216 795.424 268.02 795.983 267.828C797.525 267.298 799.061 266.797 800.588 266.323C801.097 266.143 801.604 265.965 802.112 265.791C803.628 265.27 805.137 264.777 806.638 264.311C807.171 264.122 807.705 263.935 808.237 263.752C809.728 263.24 811.212 262.755 812.689 262.296C813.246 262.099 813.801 261.904 814.356 261.713C815.848 261.201 817.332 260.716 818.809 260.257C819.365 260.059 819.921 259.865 820.476 259.674C821.967 259.162 823.451 258.678 824.928 258.218C825.485 258.02 826.041 257.825 826.595 257.635C828.087 257.123 829.571 256.638 831.048 256.179C831.605 255.981 832.16 255.786 832.715 255.596C834.207 255.084 835.69 254.598 837.168 254.139C837.725 253.942 838.279 253.747 838.834 253.557C840.326 253.045 841.81 252.559 843.287 252.1C843.845 251.903 844.399 251.708 844.954 251.518C846.446 251.006 847.93 250.521 849.407 250.062C849.963 249.864 850.519 249.669 851.073 249.479C852.565 248.967 854.049 248.482 855.526 248.022C856.084 247.825 856.638 247.63 857.193 247.44C908.469 229.827 951.282 241.953 997.225 375.702C1009.71 412.035 1019.53 440.58 1027.89 462.408H1027.08C1018.71 440.568 1008.92 412.094 996.499 375.95C954.736 254.374 915.683 233.723 870.499 244.353C913.436 237.015 951.084 261.228 991.106 377.741C1003.2 412.952 1012.8 440.852 1020.99 462.408H1020.18C1011.99 440.845 1002.41 413.019 990.38 377.989C948.617 256.414 909.563 235.762 864.38 246.393C907.316 239.055 944.963 263.266 984.987 379.78C996.704 413.892 1006.08 441.14 1014.1 462.408H1013.29C1005.27 441.138 995.917 413.963 984.26 380.028C942.497 258.452 903.444 237.803 858.26 248.432C901.196 241.094 938.844 265.306 978.867 381.819C990.214 414.85 999.362 441.446 1007.21 462.408H1006.4C998.552 441.448 989.429 414.929 978.141 382.067C936.378 260.491 897.323 239.841 852.14 250.471C895.076 243.134 932.724 267.345 972.747 383.858C983.729 415.828 992.653 441.768 1000.33 462.408H999.521C991.844 441.776 982.946 415.91 972.021 384.107C930.258 262.531 891.204 241.88 846.021 252.51C888.957 245.172 926.605 269.384 966.628 385.897C977.251 416.822 985.948 442.107 993.456 462.408H992.644C985.14 442.117 976.47 416.911 965.901 386.145C924.919 266.84 886.544 244.726 842.427 253.986L841.84 254.236C883.974 247.96 921.089 273.179 960.509 387.936C970.779 417.835 979.249 442.46 986.584 462.408H985.774C978.444 442.476 969.999 417.927 959.782 388.185C919.594 271.192 881.915 247.658 838.867 255.521L837.806 255.988C879.082 250.855 915.621 277.116 954.389 389.975C964.313 418.862 972.555 442.828 979.717 462.408H978.906C971.75 442.848 963.534 418.961 953.663 390.224C914.242 275.468 877.238 250.631 835.211 257.143L833.762 257.797C874.19 253.804 910.152 281.05 948.27 392.015C957.852 419.907 965.865 443.21 972.854 462.408H972.042C965.062 443.233 957.074 420.009 947.543 392.263C908.863 279.664 872.509 253.634 831.456 258.848L829.69 259.662C869.287 256.791 904.678 284.968 942.15 394.053C949.931 416.705 956.681 436.331 962.672 453.147C963.806 456.332 964.915 459.419 965.999 462.408H965.184C964.129 459.498 963.051 456.497 961.949 453.402C955.932 436.513 949.191 416.916 941.423 394.302C903.459 283.784 867.734 256.664 827.606 260.629L825.57 261.581C864.362 259.805 899.19 288.848 936.03 396.093C944.061 419.473 950.996 439.637 957.151 456.871C957.823 458.752 958.485 460.597 959.14 462.408H958.323C957.699 460.679 957.068 458.92 956.428 457.129C950.274 439.902 943.338 419.73 935.304 396.342C898.026 287.819 862.905 259.71 823.654 262.482L821.375 263.559C859.397 262.828 893.681 292.663 929.91 398.132C938.237 422.374 945.386 443.154 951.661 460.665L952.286 462.408H951.474L950.941 460.923C944.595 443.22 937.476 422.518 929.184 398.38C892.557 291.755 858.013 262.757 819.589 264.406L817.102 265.588C854.389 265.856 888.148 296.413 923.791 400.171C932.065 424.261 939.176 444.94 945.432 462.408H944.619C938.33 444.837 931.27 424.308 923.064 400.42C887.057 295.597 853.062 265.803 815.414 266.392L815.072 266.555L812.749 267.661C849.338 268.876 882.592 300.091 917.671 402.21C925.626 425.367 932.505 445.367 938.586 462.408H937.775C931.674 445.31 924.84 425.441 916.945 402.459C881.523 299.342 848.051 268.834 811.133 268.43L808.295 269.776C844.23 271.881 877.006 303.682 911.552 404.249C919.185 426.473 925.827 445.79 931.739 462.408H930.926C925.018 445.795 918.411 426.583 910.825 404.498C875.96 303.001 842.983 271.846 806.749 270.507L803.725 271.929C839.055 274.854 871.384 307.17 905.432 406.288C912.755 427.608 919.166 446.252 924.896 462.408H924.083C918.362 446.273 911.985 427.728 904.706 406.537C870.36 306.551 837.846 274.824 802.247 272.621C801.188 273.115 800.124 273.61 799.056 274.103C833.822 277.789 865.731 310.568 899.312 408.327C906.329 428.754 912.508 446.724 918.055 462.408H917.242C911.708 446.757 905.561 428.881 898.586 408.576C864.713 309.969 832.622 277.758 797.596 274.775C796.488 275.284 795.375 275.792 794.258 276.297C828.511 280.673 860.038 313.849 893.193 410.366C899.905 429.906 905.851 447.201 911.214 462.408H910.4C905.057 447.253 899.14 430.044 892.467 410.615C859.031 313.277 827.328 280.635 792.826 276.942C791.663 277.465 790.495 277.986 789.322 278.502C823.118 283.486 854.301 316.999 887.073 412.406C893.488 431.08 899.203 447.7 904.378 462.408H903.564C898.41 447.756 892.724 431.22 886.347 412.654C853.299 316.445 821.946 283.442 787.908 279.124C786.694 279.653 785.475 280.181 784.251 280.703C817.644 286.224 848.52 320.025 880.954 414.445C887.075 432.263 892.558 448.212 897.541 462.408H896.728C891.763 448.262 886.31 432.401 880.228 414.693C847.518 319.47 816.468 286.165 782.833 281.305C781.566 281.84 780.293 282.37 779.013 282.895C812.069 288.864 842.686 322.897 874.834 416.484C880.663 433.452 885.914 448.725 890.706 462.408H889.893C885.122 448.783 879.901 433.595 874.108 416.733C841.681 322.332 810.883 288.787 777.583 283.479C776.252 284.019 774.913 284.551 773.568 285.077C776.737 285.689 779.883 286.559 783.013 287.719C812.268 298.562 839.882 334.585 868.715 418.523C874.255 434.652 879.272 449.25 883.872 462.408H883.06C878.482 449.311 873.494 434.797 867.989 418.772C839.242 335.088 811.789 299.203 782.748 288.439C779.257 287.145 775.741 286.217 772.196 285.611C770.788 286.154 769.372 286.69 767.949 287.215C771.542 287.941 775.108 289.003 778.653 290.443C807.257 302.066 834.34 338.307 862.595 420.562C867.851 435.862 872.637 449.785 877.042 462.408H876.229C871.848 449.85 867.09 436.01 861.869 420.81C833.697 338.798 806.765 302.694 778.364 291.154C774.455 289.564 770.515 288.445 766.539 287.732C765.064 288.268 763.58 288.795 762.088 289.31C766.18 290.153 770.236 291.435 774.265 293.217C802.232 305.588 828.792 342.006 856.476 422.601C861.451 437.082 866.004 450.33 870.211 462.408H869.399C865.215 450.394 860.69 437.231 855.75 422.849C828.145 342.487 801.729 306.204 773.956 293.919C769.554 291.971 765.115 290.629 760.628 289.809C759.214 290.288 757.793 290.755 756.365 291.211L755.965 291.349C760.638 292.313 765.265 293.848 769.858 296.046C797.198 309.135 823.236 345.692 850.356 424.64C855.052 438.312 859.373 450.882 863.382 462.408H862.569C858.585 450.949 854.292 438.461 849.63 424.889C822.586 346.16 796.683 309.736 769.528 296.736C764.571 294.364 759.569 292.773 754.507 291.848C753.094 292.327 751.674 292.794 750.245 293.25L749.846 293.389C755.094 294.472 760.285 296.274 765.432 298.927C792.155 312.7 817.676 349.359 844.236 426.679C848.657 439.548 852.745 451.442 856.554 462.408H855.742C851.957 451.509 847.897 439.699 843.51 426.928C817.023 349.819 791.63 313.291 765.081 299.607C759.575 296.77 754.016 294.918 748.384 293.888C746.972 294.367 745.553 294.834 744.125 295.289L743.731 295.426C749.549 296.627 755.295 298.715 760.991 301.863C787.104 316.293 812.113 353.017 838.117 428.718C842.265 440.794 846.121 452.011 849.727 462.408H848.914C845.331 452.079 841.506 440.946 837.391 428.967C811.457 353.47 786.571 316.875 760.622 302.535C754.575 299.194 748.463 297.061 742.266 295.927C740.854 296.406 739.433 296.872 738.006 297.329L737.605 297.467C743.996 298.785 750.3 301.172 756.546 304.859C782.055 319.92 806.549 356.673 831.997 430.757C835.876 442.047 839.497 452.586 842.899 462.408H842.087C838.71 452.657 835.117 442.2 831.271 431.006C805.889 357.116 781.511 320.489 756.156 305.52C749.566 301.628 742.904 299.206 736.138 297.969C734.729 298.446 733.311 298.912 731.887 299.368L731.486 299.507C738.45 300.942 745.31 303.648 752.107 307.923C777.012 323.592 800.989 360.338 825.878 432.796C829.489 443.31 832.878 453.17 836.074 462.408H835.262C832.091 453.242 828.731 443.464 825.151 433.045C800.326 360.771 776.459 324.148 751.698 308.571C744.565 304.083 737.353 301.348 730.017 300.009C728.607 300.485 727.191 300.952 725.767 301.407L725.363 301.547C732.913 303.104 740.343 306.153 747.698 311.076C771.992 327.337 795.44 364.039 819.758 434.836C823.106 444.579 826.261 453.761 829.25 462.408H828.437C825.474 453.834 822.347 444.734 819.032 435.084C794.773 364.462 771.428 327.879 747.273 311.712C739.587 306.567 731.813 303.493 723.895 302.049C722.486 302.525 721.07 302.991 719.647 303.446L719.244 303.586C727.414 305.269 735.444 308.703 743.392 314.367C767.039 331.222 789.924 367.839 813.639 436.875C816.724 445.856 819.646 454.36 822.425 462.408H821.614C818.861 454.434 815.966 446.012 812.912 437.123C789.255 368.253 766.467 331.754 742.948 314.991C734.676 309.096 726.307 305.647 717.773 304.088C716.365 304.565 714.95 305.029 713.528 305.485L713.133 305.622C722.024 307.456 730.743 311.363 739.373 317.957C762.278 335.458 784.507 371.922 807.519 438.913C810.344 447.139 813.035 454.967 815.603 462.408H814.79C812.248 455.04 809.587 447.296 806.793 439.162C783.835 372.326 761.694 335.975 738.908 318.564C729.96 311.727 720.906 307.816 711.658 306.126C710.199 306.62 708.732 307.102 707.257 307.572L706.995 307.663C716.985 309.722 726.761 314.392 736.433 322.554C758.218 340.94 779.453 377.061 801.4 440.952C803.968 448.431 806.424 455.578 808.779 462.408H807.968C805.639 455.654 803.211 448.589 800.673 441.201C778.775 377.451 757.619 341.437 735.939 323.139C725.957 314.715 715.859 310.051 705.519 308.167C704.231 308.603 702.938 309.029 701.638 309.447C702.016 309.529 702.426 309.624 702.866 309.729C705.623 310.391 708.362 311.254 711.083 312.335C713.811 313.421 716.523 314.725 719.214 316.265C721.48 317.562 723.744 319.034 726.004 320.688C728.259 322.339 730.508 324.171 732.746 326.187C734.002 327.317 735.257 328.507 736.507 329.755C737.748 330.993 739 332.307 740.259 333.696C741.214 334.749 742.169 335.844 743.123 336.978C744.084 338.119 745.039 339.29 745.982 340.485C746.777 341.491 747.58 342.534 748.387 343.611C749.196 344.689 749.998 345.787 750.792 346.906C751.481 347.877 752.185 348.891 752.896 349.939C753.6 350.976 754.297 352.023 754.984 353.079C755.63 354.072 756.255 355.053 756.862 356.023C757.491 357.029 758.117 358.049 758.737 359.074C759.285 359.98 759.859 360.944 760.453 361.961C761.033 362.954 761.607 363.949 762.17 364.942C763.214 366.783 764.272 368.702 765.345 370.706C765.836 371.623 766.331 372.559 766.827 373.508C767.371 374.553 767.869 375.516 768.31 376.383C768.75 377.248 769.217 378.179 769.701 379.154C770.165 380.089 770.63 381.037 771.092 381.989C771.559 382.948 771.997 383.859 772.412 384.732C772.855 385.661 773.296 386.597 773.733 387.536C774.09 388.303 774.505 389.201 774.989 390.257C775.411 391.181 775.833 392.108 776.246 393.033C776.676 393.992 777.076 394.893 777.446 395.732C777.852 396.655 778.253 397.574 778.645 398.482L778.643 398.483C779.034 399.386 779.416 400.28 779.791 401.164C780.214 402.162 780.595 403.066 780.94 403.891C781.28 404.706 781.652 405.606 782.042 406.555C782.46 407.573 782.836 408.492 783.148 409.263C785.211 414.361 787.289 419.716 789.378 425.335C791.472 430.961 793.56 436.804 795.643 442.867C797.973 449.651 800.209 456.16 802.362 462.408H800.739C798.639 456.311 796.458 449.967 794.19 443.365C792.045 437.117 789.915 431.163 787.805 425.496C785.69 419.821 783.573 414.377 781.452 409.158C781.028 408.115 780.658 407.211 780.345 406.45C780.025 405.676 779.659 404.797 779.235 403.788C778.82 402.797 778.435 401.889 778.08 401.059C777.657 400.067 777.279 399.189 776.927 398.379C776.572 397.559 776.166 396.637 775.721 395.631C775.313 394.71 774.911 393.811 774.516 392.934C774.092 391.991 773.67 391.065 773.254 390.16V390.158C772.83 389.236 772.409 388.33 771.992 387.441C771.549 386.493 771.105 385.557 770.667 384.64C770.223 383.713 769.782 382.799 769.342 381.899C768.922 381.038 768.459 380.101 767.942 379.066C767.441 378.06 766.971 377.131 766.545 376.298C766.057 375.346 765.555 374.385 765.047 373.421C764.551 372.482 764.052 371.548 763.55 370.619C763.044 369.682 762.511 368.706 761.954 367.698C761.43 366.751 760.899 365.805 760.361 364.864C759.773 363.838 759.193 362.843 758.621 361.879C758.035 360.892 757.454 359.929 756.881 358.993C756.264 357.982 755.629 356.965 754.986 355.95C754.33 354.916 753.69 353.927 753.072 352.991V352.989C752.371 351.927 751.659 350.872 750.941 349.83C750.227 348.794 749.516 347.786 748.81 346.807C748.003 345.689 747.186 344.586 746.361 343.502C745.553 342.44 744.734 341.395 743.91 340.373C742.914 339.139 741.923 337.955 740.941 336.824C739.956 335.689 738.963 334.588 737.969 333.524L737.97 333.523C736.652 332.114 735.324 330.768 733.988 329.484C732.661 328.21 731.33 327.004 729.998 325.866C724.834 321.451 719.639 318.048 714.399 315.524C709.196 313.017 703.945 311.376 698.632 310.468C697.846 310.733 697.031 311.003 696.195 311.272V311.273L694.936 311.679C694.313 311.894 693.692 312.107 693.07 312.317C691.682 312.787 690.286 313.248 688.884 313.695C686.884 314.389 684.874 315.06 682.852 315.706C680.835 316.406 678.804 317.084 676.76 317.737C674.746 318.435 672.718 319.112 670.679 319.763C668.655 320.465 666.617 321.145 664.562 321.802C662.534 322.505 660.493 323.185 658.436 323.842C656.408 324.546 654.364 325.228 652.306 325.885C650.285 326.586 648.249 327.266 646.199 327.92C644.173 328.623 642.132 329.305 640.075 329.961C638.05 330.663 636.011 331.343 633.956 331.999C631.925 332.703 629.88 333.387 627.819 334.045C625.805 334.742 623.776 335.42 621.731 336.073C619.705 336.775 617.662 337.456 615.605 338.114C613.581 338.815 611.542 339.496 609.488 340.153C607.46 340.855 605.417 341.538 603.358 342.195C601.342 342.893 599.313 343.571 597.267 344.225C595.24 344.927 593.197 345.608 591.139 346.266C589.106 346.971 587.058 347.655 584.994 348.314C582.889 349.043 580.768 349.751 578.63 350.431C576.63 351.122 574.617 351.791 572.588 352.438L571.794 352.712C568.736 353.908 565.643 355.067 562.516 356.175C559.386 357.284 556.218 358.348 553.015 359.348C522.122 369.002 485.779 377.798 450.319 382.589C420.838 386.572 391.962 387.788 367.329 384.429C358.628 383.243 350.454 381.485 342.968 379.079C335.831 376.785 329.313 373.899 323.555 370.353C317.501 366.625 312.286 362.167 308.071 356.902C304.037 351.862 300.92 346.083 298.863 339.501C297.386 334.774 296.456 329.63 296.124 324.046C295.803 318.626 296.046 312.788 296.901 306.513C300.644 279.065 302.144 259.553 298.416 246.348C294.717 233.249 285.818 226.352 268.752 224.025C241.939 220.369 195.144 227.808 117.267 240.187L117.262 240.189L117.236 240.193V240.192L116.959 240.236C100.225 242.896 82.0516 245.785 62.1476 248.869C38.1806 252.582 16.1993 252.98 -3.99977 250.779L-3.99977 250.01V249.228C16.1224 251.443 38.0263 251.059 61.915 247.358L64.4831 246.96C39.5642 250.494 16.794 250.457 -3.99977 247.587V246.819C17.7944 249.844 41.7406 249.779 68.093 245.697C87.9272 242.624 106.285 239.704 123.181 237.019C201.182 224.619 248.044 217.169 275.025 220.849C310.176 225.641 311.731 249.095 304.159 304.626C302.597 316.087 303.101 326.055 305.376 334.672C309.072 348.673 317.449 359.129 329.222 366.674C341.026 374.237 356.248 378.885 373.596 381.251C409.586 386.159 454.707 381.253 497.51 372.219C456.529 380.431 413.939 384.65 379.614 379.97C362.443 377.629 347.33 373.057 335.512 365.648C323.662 358.219 315.124 347.939 311.135 334.199C308.516 325.176 307.86 314.661 309.52 302.485C317.019 247.491 315.524 224.27 281.043 219.568C254.171 215.904 207.349 223.347 129.42 235.735C112.58 238.413 94.2845 241.321 74.3289 244.413C45.4594 248.886 19.4374 248.596 -3.99977 244.665V243.88C19.3976 247.824 45.3803 248.124 74.2126 243.657C94.0468 240.585 112.405 237.665 129.301 234.98C207.301 222.58 254.164 215.13 281.144 218.809C316.296 223.602 317.851 247.056 310.279 302.587C308.634 314.653 309.281 325.062 311.87 333.985C315.803 347.532 324.227 357.67 335.917 365C347.638 372.348 362.647 376.884 379.715 379.211C415.722 384.121 460.87 379.208 503.691 370.166C462.69 378.387 420.075 382.613 385.734 377.931C368.582 375.592 353.484 371.029 341.672 363.635C329.83 356.221 321.287 345.964 317.282 332.254C314.641 323.21 313.974 312.665 315.64 300.446C323.139 245.451 321.643 222.23 287.163 217.529C260.291 213.864 213.469 221.308 135.541 233.696C118.7 236.373 100.405 239.282 80.449 242.374C49.0322 247.241 21.0117 246.435 -3.99942 241.466V240.678C20.9702 245.662 48.9522 246.479 80.3323 241.618C100.167 238.546 118.525 235.626 135.421 232.941C213.421 220.541 260.284 213.091 287.264 216.77C322.416 221.563 323.971 245.017 316.398 300.548C314.747 312.655 315.405 323.096 318.018 332.04C321.966 345.555 330.393 355.672 342.077 362.987C353.791 370.32 368.787 374.848 385.835 377.172C421.762 382.071 466.787 377.19 509.523 368.187C468.611 376.369 426.115 380.563 391.854 375.891C374.667 373.548 359.543 368.972 347.722 361.552C335.87 354.114 327.333 343.82 323.356 330.055C320.752 321.047 320.104 310.553 321.76 298.407C329.259 243.413 327.763 220.191 293.282 215.49C266.41 211.825 219.589 219.269 141.66 231.657C124.82 234.334 106.524 237.243 86.5686 240.335C52.5619 245.604 22.5336 244.226 -3.99977 238.109V237.313C22.4922 243.449 52.4804 244.842 86.4514 239.579C106.286 236.507 124.644 233.587 141.54 230.902C219.54 218.502 266.403 211.052 293.383 214.731C328.535 219.524 330.09 242.978 322.518 298.508C320.876 310.544 321.517 320.933 324.091 329.842C328.012 343.41 336.434 353.564 348.13 360.904C359.854 368.262 374.874 372.804 391.956 375.133C427.921 380.037 473.005 375.141 515.782 366.119C474.827 374.32 432.273 378.53 397.973 373.852C380.74 371.503 365.581 366.908 353.744 359.453C341.877 351.978 333.349 341.63 329.41 327.791C326.86 318.833 326.236 308.414 327.878 296.368C335.378 241.374 333.882 218.152 299.401 213.451C272.529 209.786 225.709 217.23 147.779 229.618C130.939 232.295 112.643 235.204 92.6876 238.296C56.0454 243.972 24.0038 241.96 -4 234.583V233.777C23.9607 241.177 55.9617 243.212 92.5708 237.54C112.405 234.468 130.763 231.548 147.659 228.863C225.66 216.463 272.522 209.013 299.503 212.692C334.655 217.485 336.209 240.939 328.637 296.47C327.01 308.406 327.625 318.722 330.146 327.581C334.03 341.224 342.443 351.43 354.153 358.805C365.892 366.199 380.947 370.76 398.074 373.094C434.037 377.998 479.119 373.103 521.893 364.083C480.941 372.282 438.391 376.491 404.094 371.813C386.808 369.457 371.608 364.842 359.756 357.346C347.874 349.831 339.353 339.422 335.458 325.496C332.969 316.595 332.371 306.26 333.998 294.329C341.497 239.335 340.002 216.113 305.521 211.412C278.649 207.747 231.827 215.191 153.899 227.579C137.059 230.256 118.763 233.165 98.8071 236.257C59.4691 242.351 25.4272 239.591 -3.99977 230.834V230.027C25.382 238.812 59.3862 241.591 98.6905 235.501C118.525 232.429 136.883 229.509 153.779 226.824C231.779 214.424 278.642 206.974 305.622 210.653C340.774 215.446 342.329 238.9 334.757 294.43C333.144 306.255 333.733 316.49 336.195 325.292C340.034 339.018 348.441 349.283 360.165 356.697C371.92 364.132 387.016 368.712 404.195 371.055C440.262 375.973 485.498 371.036 528.382 361.966C487.315 370.215 444.612 374.465 410.212 369.774C392.87 367.41 377.628 362.773 365.761 355.235C353.863 347.677 345.353 337.206 341.504 323.191C339.077 314.35 338.507 304.101 340.118 292.29C347.617 237.295 346.122 214.074 311.641 209.372C284.769 205.708 237.947 213.152 160.018 225.54C143.178 228.217 124.882 231.126 104.927 234.217C62.8247 240.74 26.803 237.104 -3.99988 226.842V226.023C26.7561 236.317 62.7388 239.98 104.81 233.462C124.644 230.39 143.002 227.47 159.898 224.784C237.899 212.385 284.762 204.935 311.742 208.614C346.894 213.407 348.448 236.861 340.876 292.391C339.28 304.099 339.841 314.248 342.241 322.99C346.034 336.803 354.431 347.129 366.173 354.587C377.945 362.064 393.08 366.666 410.314 369.016C446.204 373.91 491.175 369.043 533.871 360.059C493.002 368.223 450.562 372.403 416.337 367.737C398.937 365.364 383.651 360.704 371.764 353.119C359.848 345.516 351.344 334.978 347.546 320.869C345.184 312.094 344.644 301.938 346.237 290.251C353.737 235.256 352.241 212.035 317.76 207.333C290.888 203.669 244.067 211.113 166.138 223.501C149.298 226.178 131.002 229.087 111.046 232.178C66.1229 239.138 28.1213 234.534 -3.99977 222.65V221.819C28.0719 233.742 66.0339 238.379 110.93 231.423C130.764 228.351 149.122 225.431 166.018 222.745C244.018 210.346 290.881 202.896 317.862 206.575C353.013 211.368 354.568 234.822 346.996 290.352C345.417 301.934 345.949 311.99 348.287 320.671C352.031 334.58 360.418 344.973 372.176 352.474C383.963 359.995 399.145 364.62 416.439 366.978C452.524 371.899 497.791 366.954 540.695 357.875C499.607 366.132 456.873 370.389 422.451 365.695C404.993 363.316 389.664 358.632 377.762 351.003C365.83 343.357 357.338 332.752 353.591 318.549C351.292 309.837 350.781 299.772 352.357 288.212C359.856 233.217 358.361 209.996 323.88 205.294C297.008 201.63 250.186 209.074 172.257 221.462C155.417 224.139 137.122 227.048 117.166 230.139C69.3598 237.545 29.3795 231.871 -3.99977 218.243V217.399C29.3289 231.072 69.2668 236.786 117.049 229.384C136.883 226.311 155.241 223.392 172.138 220.706C250.138 208.307 297.001 200.856 323.981 204.535C359.133 209.328 360.688 232.782 353.116 288.313C351.553 299.771 352.058 309.738 354.331 318.353C358.025 332.354 366.403 342.813 378.176 350.358C389.98 357.924 405.203 362.571 422.553 364.937C458.552 369.845 503.688 364.937 546.502 355.898C505.51 364.114 462.905 368.338 428.572 363.656C411.055 361.268 395.679 356.561 383.761 348.886C371.811 341.193 363.331 330.519 359.635 316.219C357.401 307.573 356.918 297.605 358.477 286.172C365.976 231.178 364.48 207.956 329.999 203.255C303.127 199.59 256.306 207.034 178.377 219.423C161.537 222.099 143.241 225.009 123.286 228.1C72.5288 235.964 30.5771 229.104 -3.99977 213.609V212.749C30.5233 228.296 72.4321 235.205 123.169 227.345C143.003 224.272 161.361 221.353 178.257 218.667C256.257 206.267 303.12 198.818 330.101 202.496C365.253 207.289 366.807 230.743 359.235 286.274C357.69 297.607 358.166 307.478 360.375 316.027C364.018 330.125 372.384 340.65 384.175 348.242C395.997 355.853 411.265 360.524 428.673 362.898C464.596 367.797 509.617 362.918 552.349 353.917C511.442 362.098 468.954 366.29 434.695 361.618C417.116 359.221 401.696 354.49 389.758 346.768C377.79 339.026 369.319 328.281 365.678 313.881C363.51 305.307 363.055 295.435 364.596 284.133C372.095 229.139 370.6 205.917 336.119 201.216C309.247 197.551 262.426 204.995 184.496 217.383C167.656 220.06 149.361 222.969 129.405 226.061C75.6128 234.395 31.7142 226.187 -3.99977 208.694V207.832C31.6565 225.382 75.5161 233.636 129.288 225.306C149.123 222.233 167.481 219.314 184.377 216.628C262.377 204.228 309.24 196.778 336.22 200.457C371.372 205.25 372.927 228.705 365.355 284.235C363.828 295.436 364.276 305.211 366.421 313.696C370.011 327.892 378.367 338.488 390.174 346.126C402.012 353.783 417.325 358.478 434.796 360.86C470.835 365.774 516.03 360.847 558.886 351.791C517.849 360.026 475.183 364.265 440.808 359.577C423.171 357.172 407.706 352.416 395.753 344.647C383.769 336.86 375.311 326.046 371.724 311.547C369.619 303.041 369.192 293.267 370.716 282.094C378.215 227.1 376.719 203.879 342.238 199.177C315.366 195.512 268.545 202.956 190.616 215.344C173.776 218.021 155.48 220.93 135.525 224.022C78.6139 232.839 32.785 223.132 -3.99977 203.511V202.63C32.7244 222.317 78.5124 232.081 135.408 223.267C155.242 220.194 173.6 217.274 190.496 214.589C268.496 202.189 315.359 194.739 342.34 198.418C377.492 203.211 379.046 226.665 371.474 282.196C369.964 293.27 370.385 302.949 372.467 311.364C376.003 325.659 384.346 336.322 396.169 344.005C408.023 351.709 423.38 356.428 440.909 358.819C476.824 363.716 521.836 358.84 564.561 349.842C523.66 358.019 481.18 362.209 446.929 357.539C429.232 355.126 413.72 350.345 401.75 342.528C389.748 334.692 381.302 323.807 377.77 309.206C375.729 300.77 375.33 291.094 376.835 280.055C384.334 225.061 382.839 201.839 348.358 197.138C321.486 193.473 274.665 200.917 196.735 213.305C179.895 215.982 161.6 218.891 141.644 221.983C81.5303 231.296 33.7856 219.94 -3.99977 198.061V197.163C33.7211 219.115 81.4245 230.539 141.528 221.227C161.362 218.155 179.72 215.235 196.616 212.55C274.616 200.15 321.479 192.7 348.459 196.379C383.611 201.172 385.166 224.626 377.594 280.157C376.101 291.101 376.494 300.683 378.513 309.026C381.995 323.423 390.326 334.156 402.165 341.886C414.037 349.638 429.442 354.382 447.031 356.78C482.969 361.68 528.015 356.796 570.763 347.788C529.839 355.975 487.325 360.174 453.05 355.5C435.289 353.079 419.73 348.273 407.744 340.408C395.724 332.523 387.292 321.567 383.816 306.861C381.839 298.499 381.468 288.924 382.955 278.016C390.454 223.021 388.958 199.8 354.478 195.099C327.605 191.434 280.784 198.878 202.855 211.266C186.015 213.943 167.719 216.852 147.764 219.944C84.3566 229.767 34.7083 216.597 -3.99977 192.332L-3.99977 191.413C34.6401 215.76 84.2445 229.011 147.647 219.188C167.481 216.116 185.839 213.196 202.735 210.511C280.736 198.111 327.599 190.661 354.579 194.34C389.731 199.133 391.286 222.587 383.713 278.118C382.239 288.929 382.605 298.413 384.562 306.688C387.988 321.184 396.306 331.988 408.163 339.767C420.051 347.567 435.501 352.335 453.151 354.742C489.175 359.655 534.354 354.734 577.198 345.683C536.175 353.912 493.531 358.145 459.167 353.46C441.346 351.03 425.744 346.2 413.739 338.286C401.704 330.352 393.283 319.323 389.864 304.517C387.95 296.227 387.605 286.752 389.074 275.977C396.574 220.983 395.078 197.761 360.597 193.06C333.725 189.395 286.904 196.839 208.975 209.227C192.135 211.904 173.839 214.813 153.883 217.905C87.0833 228.254 35.552 213.086 -3.99977 186.306V185.366C35.4783 212.238 86.9653 227.498 153.767 217.149C173.601 214.077 191.959 211.157 208.855 208.472C286.855 196.072 333.718 188.622 360.698 192.301C395.85 197.094 397.405 220.548 389.833 276.079C388.376 286.76 388.717 296.144 390.61 304.346C393.981 318.945 402.286 329.822 414.158 337.647C426.061 345.494 441.556 350.286 459.268 352.702C495.121 357.59 540.041 352.739 582.701 343.77C541.87 351.918 499.481 356.086 465.291 351.423C447.405 348.985 431.754 344.128 419.732 336.165C407.68 328.181 399.273 317.078 395.912 302.166C394.061 293.949 393.743 284.577 395.194 273.938C402.693 218.944 401.197 195.722 366.717 191.021C339.844 187.356 293.023 194.8 215.094 207.188C198.254 209.865 179.958 212.774 160.003 215.866C89.7028 226.757 36.3089 209.391 -3.99977 179.964V179C36.2299 208.529 89.5769 226.003 159.886 215.11C179.721 212.038 198.078 209.118 214.975 206.433C292.975 194.033 339.838 186.583 366.818 190.262C401.97 195.055 403.525 218.509 395.953 274.039C394.514 284.587 394.827 293.87 396.659 301.999C399.972 316.701 408.265 327.65 420.154 335.526C432.075 343.422 447.617 348.241 465.392 350.665C501.44 355.581 546.652 350.651 589.517 341.59C548.472 349.829 505.794 354.07 471.406 349.382C453.459 346.935 437.763 342.053 425.727 334.042C413.656 326.008 405.264 314.832 401.962 299.815C400.173 291.675 399.881 282.405 401.314 271.899C408.813 216.904 407.317 193.683 372.836 188.981C345.964 185.317 299.143 192.761 221.214 205.149C204.374 207.826 186.078 210.735 166.123 213.827C92.2048 225.278 36.9747 205.495 -3.99977 173.291V172.301C36.8894 204.618 92.0713 224.526 166.006 213.071C185.84 209.998 204.198 207.079 221.094 204.394C299.094 191.994 345.957 184.544 372.938 188.223C408.09 193.016 409.644 216.47 402.072 272C400.652 282.414 400.94 291.596 402.711 299.654C405.967 314.459 414.243 325.478 426.149 333.403C438.084 341.347 453.672 346.191 471.507 348.623C507.426 353.521 552.448 348.642 595.181 339.642C554.275 347.822 511.785 352.014 477.526 347.343C459.518 344.888 443.774 339.98 431.719 331.917C419.634 323.834 411.256 312.585 408.013 297.463C406.285 289.398 406.019 280.231 407.433 269.86C414.932 214.865 413.437 191.644 378.956 186.942C352.084 183.278 305.262 190.722 227.333 203.11C210.493 205.787 192.198 208.696 172.242 211.788C94.5787 223.819 37.5429 201.375 -3.99977 166.264V165.247C37.4499 200.48 94.436 223.068 172.125 211.032C191.96 207.96 210.317 205.04 227.214 202.354C305.214 189.955 352.077 182.505 379.057 186.184C414.209 190.977 415.764 214.431 408.192 269.961C406.79 280.242 407.052 289.322 408.763 297.303C411.959 312.214 420.223 323.308 432.145 331.282C444.095 339.276 459.73 344.144 477.628 346.584C513.557 351.484 558.595 346.601 601.338 337.596C560.419 345.781 517.917 349.978 483.648 345.304C465.575 342.841 449.785 337.907 437.714 329.795C425.611 321.66 417.247 310.335 414.066 295.107C412.398 287.118 412.157 278.055 413.553 267.821C421.052 212.826 419.556 189.605 385.075 184.903C358.203 181.239 311.382 188.682 233.453 201.071C216.613 203.748 198.317 206.657 178.361 209.748C96.8137 222.382 38.0033 197.009 -3.99977 158.865V157.819C37.9037 196.094 96.6615 221.632 178.245 208.993C198.079 205.921 216.437 203.001 233.333 200.315C311.334 187.916 358.197 180.466 385.177 184.145C420.329 188.938 421.883 212.392 414.311 267.922C412.928 278.069 413.165 287.046 414.816 294.95C417.952 309.967 426.202 321.136 438.139 329.159C450.107 337.203 465.789 342.098 483.75 344.546C519.371 349.403 563.941 344.647 606.354 335.791L606.415 335.762C565.817 343.81 523.741 347.896 489.764 343.264C471.628 340.791 455.791 335.833 443.706 327.671C431.589 319.487 423.241 308.087 420.121 292.751C418.511 284.839 418.296 275.881 419.672 265.782C427.171 210.787 425.676 187.566 391.195 182.864C364.323 179.2 317.501 186.644 239.572 199.032C222.732 201.709 204.437 204.618 184.481 207.709C98.8948 220.969 38.3488 192.369 -3.99977 151.073V149.998C38.2397 191.434 98.7329 220.22 184.365 206.954C204.199 203.882 222.557 200.962 239.453 198.276C317.453 185.877 364.316 178.427 391.296 182.106C426.448 186.899 428.003 210.353 420.431 265.883C419.066 275.896 419.278 284.769 420.871 292.598C423.947 307.719 432.181 318.961 444.134 327.035C456.118 335.128 471.845 340.049 489.866 342.505C524.588 347.24 567.817 342.839 609.259 334.411L609.406 334.342C569.788 341.979 528.998 345.743 495.892 341.229C477.693 338.747 461.807 333.762 449.702 325.547C437.566 317.311 429.232 305.833 426.175 290.389C424.626 282.559 424.434 273.707 425.792 263.743C433.291 208.748 431.795 185.527 397.314 180.825C370.442 177.161 323.621 184.605 245.692 196.993C228.852 199.67 210.556 202.579 190.601 205.67C100.81 219.581 38.5691 187.428 -3.99977 142.866V141.758C38.4486 186.468 100.636 218.834 190.484 204.915C210.318 201.842 228.676 198.923 245.572 196.237C323.573 183.838 370.436 176.388 397.416 180.066C432.568 184.859 434.122 208.313 426.55 263.844C425.204 273.72 425.393 282.489 426.927 290.242C429.942 305.472 438.162 316.792 450.13 324.914C462.13 333.058 477.906 338.003 495.993 340.47C529.822 345.082 571.727 341.023 612.187 333.017L612.49 332.873C573.826 340.122 534.266 343.583 502.003 339.184C483.742 336.694 467.811 331.684 455.694 323.42C443.545 315.135 435.228 303.584 432.233 288.032C430.74 280.28 430.571 271.533 431.911 261.703C439.41 206.709 437.915 183.487 403.434 178.786C376.562 175.121 329.74 182.565 251.812 194.953C234.972 197.63 216.676 200.539 196.72 203.631C102.531 218.223 38.6506 182.132 -3.99977 134.196L-3.99977 133.021C38.52 181.123 102.33 217.481 196.604 202.876C216.438 199.803 234.796 196.884 251.692 194.198C329.692 181.799 376.555 174.349 403.535 178.027C438.687 182.82 440.242 206.275 432.67 261.805C431.341 271.549 431.508 280.215 432.985 287.888C435.939 303.224 444.143 314.615 456.125 322.788C468.14 330.981 483.958 335.952 502.104 338.426C535.076 342.921 575.719 339.181 615.219 331.576L615.6 331.395C577.902 338.262 539.553 341.434 508.129 337.15C489.804 334.651 473.825 329.614 461.692 321.299C449.526 312.963 441.224 301.334 438.292 285.674C436.855 278 436.709 269.359 438.031 259.664C445.53 204.67 444.035 181.449 409.553 176.747C382.681 173.083 335.86 180.526 257.931 192.915C241.091 195.591 222.795 198.501 202.84 201.592C104.023 216.901 38.5799 176.419 -3.99977 125.005V123.791C38.4355 175.377 103.807 216.161 202.723 200.837C222.557 197.764 240.915 194.844 257.811 192.159C335.812 179.759 382.674 172.309 409.655 175.988C444.807 180.781 446.362 204.235 438.789 259.766C437.479 269.378 437.622 277.938 439.044 285.532C441.936 300.976 450.124 312.443 462.123 320.667C474.153 328.911 490.021 333.908 508.23 336.391C540.349 340.771 579.748 337.335 618.278 330.123L618.575 329.981L618.802 329.874C582.046 336.376 544.857 339.28 514.242 335.106C495.858 332.599 479.834 327.538 467.686 319.172C455.508 310.786 447.224 299.085 444.354 283.317C442.971 275.721 442.848 267.184 444.151 257.625C451.65 202.631 450.154 179.409 415.673 174.708C388.801 171.044 341.98 178.487 264.051 190.875C247.211 193.553 228.915 196.461 208.96 199.553C105.283 215.615 38.3381 170.267 -3.99977 115.309V114.056C38.1786 169.187 105.051 214.878 208.843 198.798C228.677 195.725 247.035 192.805 263.931 190.12C341.931 177.721 388.794 170.27 415.774 173.949C450.926 178.742 452.481 202.196 444.909 257.727C443.617 267.207 443.738 275.665 445.106 283.181C447.935 298.729 456.108 310.27 468.12 318.542C480.163 326.835 496.074 331.856 514.344 334.348C545.647 338.616 583.862 335.461 621.45 328.623L622.053 328.339C586.239 334.486 550.187 337.135 520.367 333.069C501.92 330.554 485.85 325.467 473.686 317.051C461.49 308.613 453.222 296.836 450.415 280.962C449.087 273.45 448.984 265.017 450.27 255.586C457.769 200.592 456.274 177.37 421.793 172.669C394.921 169.005 348.099 176.448 270.17 188.836C253.33 191.513 235.034 194.422 215.079 197.514C106.268 214.372 37.9065 163.591 -3.99977 105.045V103.709C37.727 162.441 105.996 213.64 214.962 196.758C234.797 193.686 253.154 190.766 270.051 188.081C348.051 175.681 394.914 168.231 421.894 171.91C457.046 176.703 458.601 200.157 451.028 255.688C449.754 265.035 449.855 273.391 451.171 280.83C453.938 296.485 462.093 308.1 474.12 316.422C486.179 324.765 502.136 329.812 520.468 332.311C550.968 336.47 588.032 333.579 624.687 327.103L625.418 326.763C590.512 332.576 555.538 334.99 526.482 331.029C507.976 328.505 491.862 323.393 479.685 314.929C467.477 306.444 459.225 294.594 456.482 278.615C455.204 271.18 455.121 262.848 456.389 253.547C463.888 198.553 462.393 175.331 427.912 170.63C401.04 166.965 354.219 174.409 276.29 186.797C259.45 189.474 241.154 192.383 221.198 195.475C106.91 213.181 37.255 156.268 -3.99977 94.1118V92.7309C37.0546 155.064 106.617 212.453 221.082 194.719C240.916 191.647 259.274 188.727 276.17 186.042C354.171 173.642 401.033 166.192 428.014 169.871C463.166 174.664 464.72 198.118 457.148 253.649C455.891 262.868 455.973 271.124 457.237 278.486C459.943 294.244 468.081 305.93 480.123 314.3C492.196 322.691 508.195 327.763 526.584 330.27C556.322 334.325 592.305 331.678 628.06 325.539L628.876 325.165C594.858 330.66 560.922 332.853 532.607 328.992C514.041 326.461 497.884 321.324 485.691 312.811C473.468 304.275 465.233 292.354 462.55 276.273C461.322 268.913 461.258 260.682 462.509 251.508C470.008 196.514 468.513 173.292 434.032 168.591C407.16 164.926 360.338 172.37 282.41 184.758C265.569 187.435 247.274 190.344 227.318 193.436C107.177 212.049 36.3528 148.207 -3.99977 82.4953V81.0206C36.124 146.908 106.834 211.328 227.201 192.68C247.036 189.608 265.394 186.688 282.29 184.002C360.29 171.603 407.153 164.153 434.133 167.832C469.285 172.625 470.84 196.079 463.267 251.609C462.028 260.705 462.09 268.861 463.305 276.147C465.952 292.008 474.074 303.766 486.129 312.184C498.214 320.623 514.258 325.718 532.708 328.233C561.713 332.188 596.655 329.769 631.533 323.953L632.498 323.518C599.317 328.72 566.343 330.715 538.719 326.949C520.101 324.41 503.903 319.25 491.7 310.693C479.466 302.113 471.248 290.124 468.623 273.946C467.44 266.66 467.394 258.523 468.629 249.469C476.128 194.474 474.632 171.253 440.151 166.551C413.279 162.887 366.458 170.331 288.529 182.719C271.689 185.396 253.393 188.305 233.438 191.397C106.991 210.987 35.1565 139.24 -3.99977 70.1067L-3.99977 68.5297C34.8941 137.825 106.588 210.276 233.321 190.641C253.155 187.569 271.513 184.649 288.409 181.964C366.41 169.564 413.272 162.114 440.253 165.793C475.405 170.586 476.959 194.04 469.387 249.57C468.163 258.548 468.207 266.61 469.378 273.824C471.967 289.781 480.072 301.605 492.138 310.067C504.233 318.549 520.317 323.668 538.82 326.19C567.147 330.053 601.137 327.835 635.198 322.312L636.254 321.85C603.878 326.777 571.812 328.591 544.846 324.915C526.172 322.368 509.933 317.187 497.718 308.585C485.472 299.961 477.268 287.905 474.698 271.632C473.559 264.416 473.529 256.37 474.748 247.43C482.247 192.435 480.752 169.214 446.271 164.512C419.399 160.848 372.577 168.292 294.649 180.68C277.808 183.357 259.513 186.266 239.557 189.357C106.208 210.017 33.6006 129.097 -3.99977 56.7858V55.1166C33.2981 127.549 105.745 209.315 239.44 188.602C259.275 185.53 277.633 182.61 294.529 179.924C372.529 167.525 419.392 160.075 446.372 163.754C481.524 168.547 483.079 192.001 475.507 247.531C474.298 256.399 474.326 264.372 475.454 271.515C477.987 287.563 486.079 299.452 498.159 307.958C510.268 316.486 526.392 321.626 544.948 324.157C572.638 327.932 605.737 325.899 639.024 320.647L639.562 320.417H639.564L640.253 320.125C608.599 324.812 577.342 326.469 550.961 322.872C532.241 320.32 515.97 315.119 503.744 306.479C491.488 297.817 483.298 285.704 480.779 269.349C479.678 262.199 479.663 254.233 480.868 245.391C488.367 190.396 486.871 167.175 452.391 162.473C425.519 158.809 378.697 166.253 300.768 178.641C283.928 181.318 265.632 184.227 245.677 187.319C104.695 209.16 31.6037 117.462 -3.99977 42.4361V40.6259C31.2451 115.71 104.13 208.474 245.56 186.563C265.394 183.491 283.752 180.571 300.648 177.886C378.649 165.486 425.511 158.036 452.492 161.715C487.644 166.508 489.198 189.962 481.626 245.492C480.431 254.257 480.446 262.15 481.537 269.236C484.021 285.364 492.098 297.31 504.185 305.852C516.304 314.417 532.461 319.577 551.062 322.113C578.199 325.813 610.538 323.933 643.159 318.911L644.095 318.528L644.096 318.526L644.517 318.356C613.498 322.832 582.943 324.358 557.078 320.831C538.32 318.273 522.019 313.055 509.786 304.382C497.521 295.688 489.342 283.528 486.866 267.105C485.796 260.006 485.793 252.11 486.987 243.352C494.486 188.358 492.991 165.136 458.51 160.435C431.638 156.77 384.816 164.214 306.888 176.602C290.047 179.279 271.752 182.188 251.796 185.28C102.169 208.46 29.0285 103.76 -3.99977 26.8229L-3.99977 24.8837C28.6017 101.752 101.497 207.792 251.68 184.524C271.514 181.452 289.872 178.532 306.768 175.846C384.768 163.447 431.631 155.997 458.611 159.676C493.763 164.469 495.318 187.923 487.746 243.453C486.562 252.134 486.565 259.959 487.625 266.991C490.067 283.19 498.133 295.184 510.23 303.759C522.356 312.355 538.539 317.53 557.18 320.072C583.858 323.71 615.562 321.954 647.618 317.124C648.156 316.915 648.672 316.716 649.161 316.53C618.65 320.843 588.655 322.264 563.201 318.794C544.414 316.232 528.092 311.003 515.852 302.307C503.581 293.589 495.411 281.393 492.965 264.92C491.916 257.86 491.922 250.01 493.107 241.313C500.606 186.318 499.111 163.097 464.63 158.395C437.758 154.731 390.936 162.175 313.007 174.563C296.167 177.24 277.871 180.149 257.916 183.241C98.2562 207.976 25.6754 87.1025 -3.99977 9.72872V7.57667C25.1355 84.6488 97.3711 207.339 257.799 182.485C277.633 179.412 295.991 176.493 312.887 173.807C390.888 161.408 437.751 153.958 464.731 157.637C499.883 162.43 501.437 185.884 493.865 241.414C492.69 250.037 492.684 257.816 493.723 264.81C496.136 281.056 504.194 293.086 516.296 301.684C528.429 310.303 544.634 315.49 563.302 318.035C589.661 321.629 620.926 319.959 652.589 315.259L653.84 314.814H653.841L654.419 314.613C624.205 318.832 594.534 320.193 569.321 316.756C550.529 314.194 534.204 308.963 521.962 300.262C509.69 291.54 501.521 279.337 499.081 262.855C498.036 255.801 498.043 247.961 499.226 239.274C506.726 184.279 505.23 161.058 470.749 156.356C443.877 152.692 397.056 160.136 319.127 172.524C302.287 175.201 283.991 178.11 264.035 181.202C98.9763 206.774 26.9872 76.7244 -0.742913 0L0.0693064 0Z" fill="#45C2B1"/>
</svg>
