<svg width="415" height="192" viewBox="0 0 415 192" fill="none" xmlns="http://www.w3.org/2000/svg">
<path fill-rule="evenodd" clip-rule="evenodd" d="M3.05176e-05 0C18.2709 5.89024 42.0486 20.9548 69.0352 55.8137C124.178 127.041 150.512 121.343 195.049 111.706C200.564 110.513 206.357 109.259 212.484 108.09C213.235 107.946 213.983 107.8 214.727 107.651L215.881 107.379C217.291 107.034 218.692 106.697 220.083 106.372C221.493 106.027 222.893 105.69 224.284 105.365C225.694 105.019 227.095 104.682 228.486 104.357C229.896 104.012 231.296 103.675 232.687 103.35C234.098 103.005 235.498 102.669 236.889 102.343C238.299 101.998 239.699 101.662 241.09 101.336C242.501 100.991 243.901 100.655 245.292 100.329C246.702 99.984 248.102 99.6469 249.493 99.3218C286.951 90.1506 317.428 87.0894 351.463 140.2C367.98 165.975 389.9 181.538 411.543 190.606C412.696 191.09 413.849 191.552 415 191.999H413.682C412.942 191.704 412.203 191.403 411.462 191.093C389.773 182.005 367.802 166.403 351.24 140.558C324.019 98.0801 299.062 91.6537 270.955 95.4984C297.435 92.8756 321.314 100.717 347.262 141.207C363.779 166.982 385.699 182.546 407.342 191.613C407.653 191.744 407.965 191.872 408.276 191.999H407.024C385.411 182.898 363.541 167.316 347.039 141.565C319.817 99.0872 294.861 92.6606 266.753 96.5054C293.234 93.8827 317.113 101.725 343.06 142.214C359.207 167.411 380.517 182.848 401.684 192H400.491C379.645 182.771 358.746 167.398 342.837 142.573C315.616 100.095 290.659 93.668 262.552 97.5127C289.033 94.8902 312.912 102.732 338.859 143.222C354.427 167.516 374.796 182.737 395.208 192H394.067C373.964 182.674 353.979 167.523 338.636 143.58C311.414 101.102 286.458 94.6751 258.35 98.5198C284.831 95.8967 308.71 103.739 334.657 144.229C349.674 167.662 369.156 182.655 388.837 192H387.742C368.361 182.603 349.237 167.687 334.434 144.587C307.213 102.109 282.256 95.6827 254.149 99.5269C280.63 96.9043 304.508 104.746 330.456 145.236C344.944 167.845 363.59 182.597 382.56 192H381.506C362.825 182.555 344.518 167.885 330.233 145.594C303.011 103.116 278.055 96.6899 249.947 100.534C276.428 97.9114 300.307 105.754 326.254 146.243C340.236 168.061 358.089 182.561 376.368 192H375.353C357.353 182.531 339.818 168.115 326.031 146.601C298.81 104.123 273.853 97.6964 245.746 101.541C272.227 98.9181 296.106 106.76 322.053 147.25C335.546 168.307 352.647 182.547 370.255 192H369.274C351.935 182.525 335.137 168.374 321.83 147.608C294.608 105.13 269.652 98.7036 241.545 102.548C268.026 99.9252 291.904 107.768 317.851 148.257C330.874 168.579 347.256 182.552 364.212 192H363.263C346.568 182.538 330.472 168.657 317.628 148.615C290.407 106.137 265.45 99.7113 237.343 103.555C263.824 100.932 287.703 108.775 313.65 149.264C326.218 168.876 341.913 182.575 358.235 192H357.314C341.246 182.569 325.822 168.964 313.427 149.623C286.206 107.144 261.249 100.718 233.142 104.563C259.623 101.939 283.501 109.782 309.448 150.271C321.575 169.195 336.614 182.614 352.317 192H351.426C335.967 182.615 321.186 169.294 309.226 150.63C282.004 108.152 257.047 101.725 228.94 105.57C255.421 102.947 279.3 110.789 305.247 151.279C316.947 169.536 331.358 182.668 346.461 192H345.593C330.727 182.676 316.563 169.643 305.024 151.637C277.803 109.159 252.846 102.732 224.739 106.577C251.22 103.954 275.099 111.796 301.045 152.286C312.331 169.896 326.138 182.738 340.655 192H339.809C325.522 182.752 311.952 170.01 300.823 152.644C273.601 110.166 248.645 103.739 220.537 107.584C247.018 104.962 270.897 112.803 296.844 153.293C307.725 170.273 320.952 182.821 334.899 192H334.078C320.354 182.84 307.352 170.396 296.621 153.651C269.4 111.173 244.443 104.746 216.336 108.591C242.817 105.968 266.696 113.81 292.643 154.3C303.132 170.668 315.8 182.916 329.191 192H328.387C315.213 182.942 302.762 170.797 292.42 154.658C265.198 112.18 240.242 105.753 212.134 109.598C238.615 106.975 262.494 114.817 288.441 155.307C298.547 171.077 310.676 183.024 323.526 192H322.745C310.105 183.054 298.182 171.214 288.218 155.665C260.997 113.187 236.04 106.761 207.933 110.605C234.414 107.983 258.293 115.824 284.24 156.314C293.972 171.502 305.581 183.143 317.904 192H317.138C305.02 183.178 293.611 171.644 284.017 156.672C256.796 114.194 231.839 107.768 203.731 111.613C230.212 108.99 254.091 116.832 280.038 157.321C289.406 171.94 300.513 183.273 312.321 192H311.574C299.964 183.312 289.049 172.089 279.815 157.68C252.594 115.201 227.637 108.775 199.53 112.62C226.011 109.997 249.89 117.839 275.837 158.328C284.849 172.391 295.469 183.413 306.774 192H306.045C294.931 183.457 284.495 172.545 275.614 158.687C248.393 116.209 223.436 109.782 195.329 113.627C221.809 111.004 245.688 118.846 271.635 159.336C280.299 172.855 290.449 183.563 301.266 192H300.548C289.919 183.611 279.948 173.013 271.412 159.694C244.191 117.216 219.234 110.789 191.127 114.634C217.608 112.011 241.487 119.853 267.434 160.343C275.756 173.329 285.45 183.723 295.789 192H295.089C284.932 183.775 275.408 173.493 267.211 160.701C239.99 118.223 215.033 111.796 186.926 115.641C213.407 113.019 237.286 120.861 263.232 161.35C271.22 173.815 280.472 183.891 290.344 192H289.66C279.963 183.947 270.876 173.983 263.009 161.708C235.788 119.23 210.831 112.804 182.724 116.648C209.205 114.026 233.084 121.868 259.031 162.357C266.692 174.311 275.515 184.068 284.934 192H284.26C275.013 184.127 266.35 174.483 258.808 162.715C231.587 120.237 206.63 113.811 178.523 117.655C205.003 115.032 228.882 122.874 254.829 163.364C262.169 174.817 270.577 184.254 279.552 192H278.889C270.081 184.316 261.829 174.993 254.607 163.722C224.836 117.265 197.773 113.927 166.337 119.989C165.064 120.299 163.784 120.606 162.494 120.908C161.104 121.248 159.704 121.584 158.293 121.915C156.903 122.255 155.502 122.591 154.091 122.923C152.701 123.262 151.301 123.598 149.89 123.93C148.5 124.269 147.099 124.605 145.688 124.937C144.298 125.276 142.898 125.613 141.487 125.944C140.097 126.284 138.696 126.62 137.285 126.951C135.896 127.291 134.495 127.627 133.084 127.958C127.526 129.315 121.802 130.625 115.888 131.754C109.72 132.931 103.949 134.18 98.4575 135.369C62.0267 143.251 37.7498 148.495 0 111.323V110.727C28.7328 139.076 49.6427 142.823 74.0369 139.521C50.2341 141.929 29.2053 136.444 0 106.063V105.459C30.932 137.697 52.6707 141.975 78.2383 138.514C53.3091 141.037 31.4229 134.898 0 100.573V99.9619C33.1989 136.292 55.7303 141.123 82.4398 137.507C56.414 140.141 33.7068 133.342 0 94.8774V94.2512C35.5317 134.865 58.8203 140.266 86.6413 136.5C59.5483 139.242 36.0512 131.755 0 88.9752V88.3455C37.929 133.425 61.9401 139.405 90.8427 135.493C62.7117 138.339 38.4567 130.159 0 82.8911V82.2555C40.3882 131.97 65.0885 138.541 95.0441 134.486C65.9024 137.435 40.92 128.55 0 76.6367V75.994C42.9058 130.504 68.2649 137.672 99.2457 133.479C69.4934 136.489 44.08 127.174 1.61191 72.3182C1.07315 71.622 0.536163 70.9387 0 70.2586V69.6113C0.602142 70.3737 1.20627 71.1456 1.81186 71.9276C46.1761 129.233 71.8951 136.743 103.447 132.472C73.6948 135.482 48.2814 126.167 5.81332 71.311C3.85843 68.7858 1.92017 66.3649 0 64.044V63.4164C1.98615 65.812 3.99033 68.3075 6.01331 70.9205C50.3776 128.226 76.0965 135.735 107.648 131.464C77.8964 134.475 52.4828 125.159 10.0147 70.304C6.62372 65.9241 3.28461 61.8613 0 58.0863V57.4667C3.34933 61.3073 6.75494 65.4447 10.2148 69.9135C54.5791 127.219 80.298 134.728 111.85 130.457C82.0977 133.468 56.6842 124.152 14.2163 69.2971C9.36847 63.0351 4.62628 57.4203 3.05176e-05 52.3768V51.7611C4.68967 56.8623 9.49966 62.5557 14.4163 68.9066C58.7806 126.212 84.4995 133.721 116.051 129.45C86.2992 132.461 60.8858 123.145 18.4178 68.29C12.0909 60.1171 5.94272 53.0413 9.15527e-05 46.9114V46.3124C6.00577 52.4923 12.2211 59.6367 18.6178 67.8995C62.9821 125.205 88.701 132.714 120.253 128.443C90.5008 131.454 65.0873 122.138 22.6193 67.2829C14.7889 57.1684 7.23077 48.7248 0.00012207 41.6886V41.1019C7.2933 48.1809 14.9185 56.6866 22.8194 66.8924C67.1837 124.198 92.9026 131.707 124.455 127.436C94.7023 130.447 69.2888 121.131 26.8209 66.2757C17.4598 54.1839 8.4884 44.4844 0.000183105 36.7198V36.1409C8.54987 43.942 17.5888 53.7015 27.0208 65.8852C71.3852 123.191 97.104 130.7 128.656 126.429C98.9038 129.44 73.4904 120.124 31.0223 65.2686C20.1019 51.1627 9.71158 40.3096 0.000183105 31.9915V31.4199C9.77209 39.7678 20.2308 50.6804 31.2223 64.8781C75.5866 122.184 101.305 129.693 132.857 125.422C103.105 128.432 77.6917 119.117 35.2237 64.2615C22.7123 48.1005 10.8951 36.2047 0.000183105 27.5054V26.9479C10.9553 35.6712 22.8401 47.6167 35.4238 63.8709C79.7881 121.176 105.507 128.686 137.059 124.415C107.307 127.425 81.8932 118.11 39.4253 63.2543C25.287 44.9919 12.0361 32.1776 0.000183105 23.2682V22.7148C12.0953 31.6438 25.415 44.5085 39.6252 62.8638C83.9895 120.169 109.708 127.679 141.26 123.407C111.508 126.418 86.0947 117.103 43.6267 62.2472C27.8236 41.8344 13.1284 28.2244 0.000213623 19.271V18.7275C13.187 27.696 27.951 41.3498 43.8267 61.8566C88.191 119.162 113.91 126.672 145.462 122.4C115.71 125.411 90.2962 116.095 47.8282 61.24C30.317 38.6207 14.1656 24.3543 0.000274658 15.5222V14.9873C14.2239 23.8307 30.4441 38.1359 48.0282 60.8495C92.3925 118.155 118.111 125.664 149.663 121.393C119.911 124.404 94.4977 115.088 52.0297 60.2329C32.7617 35.3445 15.141 20.5696 0.000274658 12.0196V11.4908C15.1983 20.0485 32.8887 34.8598 52.2297 59.8424C96.594 117.148 122.313 124.657 153.865 120.386C124.113 123.397 98.6992 114.081 56.2312 59.2259C35.1529 31.999 16.0454 16.8734 0.000305176 8.76268V8.23938C16.1026 16.3562 35.2815 31.5161 56.4312 58.8354C100.796 116.14 126.514 123.651 158.066 119.379C128.314 122.39 102.901 113.074 60.4326 58.2188C37.4824 28.574 16.8686 13.2754 0.000366211 5.75842V5.24187C16.9252 12.7617 37.6103 28.0907 60.6326 57.8283C104.997 115.133 130.716 122.644 162.268 118.372C132.516 121.383 107.102 112.067 64.6342 57.2117C39.7407 25.0574 17.5969 9.77999 0.000396729 3.00579V2.49463C17.6535 9.27043 39.87 24.5756 64.8342 56.8213C109.198 114.127 134.917 121.636 166.469 117.365C136.717 120.376 111.304 111.061 68.8357 56.2048C41.9178 21.4353 18.2139 6.39737 3.05176e-05 0.509259V0Z" fill="url(#paint0_linear_175_7104)"/>
<defs>
<linearGradient id="paint0_linear_175_7104" x1="415" y1="96" x2="0" y2="96" gradientUnits="userSpaceOnUse">
<stop stop-color="#45C2B1"/>
<stop offset="1" stop-color="#45C2B1" stop-opacity="0"/>
</linearGradient>
</defs>
</svg>
