<svg width="299" height="128" viewBox="0 0 299 128" fill="none" xmlns="http://www.w3.org/2000/svg">
<path fill-rule="evenodd" clip-rule="evenodd" d="M61.0856 162.723C69.3036 171.59 76.2299 184.772 81.5971 198.764L101.808 193.349C96.4406 179.356 89.5144 166.174 81.2964 157.307C70.8707 146.044 58.9945 139.805 50.0898 124.109C31.4651 91.267 32.8322 57.0077 42.82 30.0994C47.6852 16.994 53.2055 3.94964 53.7677 -12.8125C54.1687 -24.7755 51.7702 -38.0315 47.3403 -49.9353L27.1296 -44.5198C31.5595 -32.6161 33.958 -19.3601 33.557 -7.397C32.9948 9.36504 27.4744 22.4094 22.6093 35.5149C12.6215 62.4231 11.2544 96.6824 29.8791 129.525C38.7838 145.221 50.6599 151.459 61.0856 162.723Z" fill="url(#paint0_linear_165_2317)"/>
<path fill-rule="evenodd" clip-rule="evenodd" d="M50.091 124.11C58.9956 139.806 70.8718 146.044 81.2975 157.308C89.5155 166.175 96.4417 179.357 101.809 193.349L122.02 187.934C116.652 173.941 109.726 160.759 101.508 151.892C91.0825 140.629 79.2064 134.391 70.3017 118.694C51.677 85.8521 53.0441 51.5928 63.032 24.6845C67.8971 11.579 73.4175 -1.46528 73.9797 -18.2274C74.3807 -30.1904 71.9822 -43.4464 67.5522 -55.3502L47.3414 -49.9347C51.7714 -38.031 54.1699 -24.775 53.7689 -12.8119C53.2067 3.95014 47.6863 16.9945 42.8212 30.1C32.8334 57.0082 31.4662 91.2675 50.091 124.11Z" fill="url(#paint1_linear_165_2317)"/>
<path fill-rule="evenodd" clip-rule="evenodd" d="M63.0322 24.6833C53.0443 51.5915 51.6772 85.8508 70.3019 118.693C79.2067 134.389 91.0828 140.628 101.508 151.891C109.727 160.758 116.653 173.94 122.02 187.933L142.231 182.517C136.863 168.525 129.937 155.343 121.719 146.476C111.293 135.212 99.4173 128.974 90.5127 113.278C71.8879 80.4354 73.2551 46.1761 83.2429 19.2678C88.108 6.16236 93.6284 -6.88195 94.1906 -23.6441C94.5916 -35.6071 92.1931 -48.8631 87.7631 -60.7668L67.5524 -55.3514C71.9824 -43.4477 74.3809 -30.1916 73.9799 -18.2286C73.4177 -1.4665 67.8973 11.5779 63.0322 24.6833Z" fill="url(#paint2_linear_165_2317)"/>
<path fill-rule="evenodd" clip-rule="evenodd" d="M83.2412 19.2685C73.2533 46.1767 71.8862 80.436 90.5109 113.278C99.4156 128.975 111.292 135.213 121.717 146.476C129.935 155.343 136.862 168.525 142.229 182.518L162.44 177.102C157.072 163.11 150.146 149.928 141.928 141.061C131.502 129.797 119.626 123.559 110.722 107.863C92.0969 75.0206 93.4641 40.7613 103.452 13.853C108.317 0.747564 113.837 -12.2968 114.4 -29.0589C114.801 -41.0219 112.402 -54.2779 107.972 -66.1816L87.7613 -60.7662C92.1913 -48.8624 94.5898 -35.6064 94.1888 -23.6433C93.6267 -6.8813 88.1063 6.16306 83.2412 19.2685Z" fill="url(#paint3_linear_165_2317)"/>
<path fill-rule="evenodd" clip-rule="evenodd" d="M263.928 108.372C261.244 120.16 261.837 135.039 264.185 149.84L243.974 155.256C241.626 140.454 241.033 125.575 243.717 113.787C247.114 98.8199 254.28 87.4793 254.144 69.4338C253.852 31.6791 235.538 2.6932 213.434 -15.6161C202.668 -24.5332 191.365 -33.0698 182.498 -47.3051C176.169 -57.4649 171.618 -70.1441 169.502 -82.6681L189.713 -88.0835C191.829 -75.5596 196.38 -62.8803 202.708 -52.7205C211.576 -38.4852 222.879 -29.9487 233.645 -21.0316C255.749 -2.7223 274.063 26.2636 274.354 64.0183C274.491 82.0639 267.325 93.4045 263.928 108.372Z" fill="url(#paint4_linear_165_2317)"/>
<path fill-rule="evenodd" clip-rule="evenodd" d="M254.143 69.4342C254.28 87.4798 247.114 98.8204 243.717 113.788C241.033 125.576 241.626 140.455 243.974 155.256L223.763 160.672C221.415 145.87 220.823 130.991 223.506 119.203C226.903 104.236 234.069 92.8952 233.933 74.8496C233.641 37.0949 215.327 8.10908 193.224 -10.2002C182.457 -19.1173 171.155 -27.6539 162.287 -41.8892C155.958 -52.049 151.407 -64.7282 149.292 -77.2522L169.502 -82.6677C171.618 -70.1437 176.169 -57.4644 182.497 -47.3046C191.365 -33.0694 202.668 -24.5328 213.434 -15.6157C235.538 2.69364 253.852 31.6795 254.143 69.4342Z" fill="url(#paint5_linear_165_2317)"/>
<path fill-rule="evenodd" clip-rule="evenodd" d="M193.222 -10.2004C215.326 8.10884 233.64 37.0947 233.932 74.8494C234.068 92.895 226.902 104.236 223.505 119.203C220.821 130.991 221.414 145.87 223.762 160.672L203.551 166.087C201.203 151.286 200.611 136.406 203.294 124.618C206.691 109.651 213.857 98.3104 213.721 80.2649C213.429 42.5102 195.115 13.5243 173.012 -4.78498C162.246 -13.7021 150.943 -22.2386 142.075 -36.4739C135.746 -46.6337 131.195 -59.313 129.08 -71.8369L149.29 -77.2524C151.406 -64.7285 155.957 -52.0491 162.285 -41.8893C171.153 -27.6541 182.456 -19.1175 193.222 -10.2004Z" fill="url(#paint6_linear_165_2317)"/>
<path fill-rule="evenodd" clip-rule="evenodd" d="M173.012 -4.78563C195.116 13.5236 213.43 42.5095 213.722 80.2642C213.858 98.3098 206.692 109.65 203.295 124.618C200.611 136.406 201.204 151.285 203.552 166.086L183.341 171.502C180.993 156.7 180.401 141.821 183.084 130.033C186.481 115.066 193.647 103.725 193.511 85.6797C193.219 47.925 174.905 18.9391 152.802 0.629819C142.036 -8.28729 130.733 -16.8238 121.865 -31.0591C115.536 -41.2189 110.985 -53.8982 108.87 -66.4221L129.08 -71.8376C131.196 -59.3137 135.747 -46.6343 142.075 -36.4745C150.943 -22.2393 162.246 -13.7027 173.012 -4.78563Z" fill="url(#paint7_linear_165_2317)"/>
<defs>
<linearGradient id="paint0_linear_165_2317" x1="15.2257" y1="-41.3302" x2="79.6954" y2="199.274" gradientUnits="userSpaceOnUse">
<stop stop-color="#48BEA0"/>
<stop offset="1" stop-color="#48BEA0" stop-opacity="0"/>
</linearGradient>
<linearGradient id="paint1_linear_165_2317" x1="35.4376" y1="-46.7451" x2="99.9073" y2="193.859" gradientUnits="userSpaceOnUse">
<stop stop-color="#48BEA0" stop-opacity="0"/>
<stop offset="1" stop-color="#48BEA0"/>
</linearGradient>
<linearGradient id="paint2_linear_165_2317" x1="55.6486" y1="-52.1618" x2="120.118" y2="188.442" gradientUnits="userSpaceOnUse">
<stop stop-color="#48BEA0"/>
<stop offset="1" stop-color="#48BEA0" stop-opacity="0"/>
</linearGradient>
<linearGradient id="paint3_linear_165_2317" x1="75.8576" y1="-57.5766" x2="140.327" y2="183.027" gradientUnits="userSpaceOnUse">
<stop stop-color="#48BEA0" stop-opacity="0"/>
<stop offset="1" stop-color="#48BEA0"/>
</linearGradient>
<linearGradient id="paint4_linear_165_2317" x1="201.617" y1="-91.2732" x2="266.087" y2="149.331" gradientUnits="userSpaceOnUse">
<stop stop-color="#48BEA0"/>
<stop offset="1" stop-color="#48BEA0" stop-opacity="0"/>
</linearGradient>
<linearGradient id="paint5_linear_165_2317" x1="181.406" y1="-85.8573" x2="245.876" y2="154.747" gradientUnits="userSpaceOnUse">
<stop stop-color="#48BEA0" stop-opacity="0"/>
<stop offset="1" stop-color="#48BEA0"/>
</linearGradient>
<linearGradient id="paint6_linear_165_2317" x1="161.194" y1="-80.442" x2="225.664" y2="160.162" gradientUnits="userSpaceOnUse">
<stop stop-color="#48BEA0"/>
<stop offset="1" stop-color="#48BEA0" stop-opacity="0"/>
</linearGradient>
<linearGradient id="paint7_linear_165_2317" x1="140.984" y1="-75.0272" x2="205.454" y2="165.577" gradientUnits="userSpaceOnUse">
<stop stop-color="#48BEA0" stop-opacity="0"/>
<stop offset="1" stop-color="#48BEA0"/>
</linearGradient>
</defs>
</svg>
