<svg width="346" height="389" viewBox="0 0 346 389" fill="none" xmlns="http://www.w3.org/2000/svg">
<mask id="mask0_427_4573" style="mask-type:alpha" maskUnits="userSpaceOnUse" x="0" y="0" width="346" height="389">
<rect width="346" height="389" fill="#D9D9D9"/>
</mask>
<g mask="url(#mask0_427_4573)">
<g opacity="0.1">
<path d="M140.248 301.538C142.395 297.82 144.116 293.896 145.636 289.589C158.763 252.369 136.661 219.65 115.289 188.009C96.9164 160.81 77.9185 132.686 80.2958 101.251C82.695 69.5482 108.02 39.302 148.042 20.3503C162.98 13.2763 178.927 7.78361 194.349 2.47107C213.516 -4.13065 233.335 -10.9576 251.397 -20.8809C280.58 -36.915 313.172 -69.7533 308.987 -109.535C306.588 -132.314 292.386 -151.932 278.651 -170.906C261.202 -195.008 244.721 -217.774 250.123 -246.552C252.68 -260.163 264.353 -272.878 278.522 -277.469C289.074 -280.891 298.74 -279.123 305.743 -272.491L306.657 -273.458C299.392 -280.339 288.987 -282.263 278.11 -278.736C263.503 -273.998 251.453 -260.866 248.815 -246.797C243.307 -217.457 260.727 -193.395 277.572 -170.126C291.205 -151.294 305.303 -131.82 307.662 -109.396C311.785 -70.2608 279.583 -37.8834 250.758 -22.0465C232.794 -12.1788 213.03 -5.37077 193.915 1.21272C178.459 6.53679 162.476 12.0417 147.473 19.1472C107.014 38.3075 81.4031 68.9621 78.9695 101.15C76.5575 133.048 95.6856 161.366 114.185 188.753C136.349 221.566 157.285 252.559 144.381 289.146C133.344 320.408 111.248 331.32 -11.4308 391.853C-35.9033 403.928 -63.641 417.614 -96.2801 433.916L-95.6866 435.106C-63.0487 418.807 -35.3133 405.121 -10.8414 393.047C95.5607 340.544 126.559 325.248 140.248 301.538Z" fill="#45C2B1"/>
<path d="M135.332 303.026C137.586 299.125 139.391 295.017 141.012 290.526C147.551 272.271 146.329 253.35 137.278 232.681C131.318 219.068 122.434 205.644 113.843 192.663C110.55 187.688 107.147 182.544 103.935 177.436C89.3858 154.308 76.411 129.125 79.9622 101.705C80.513 97.3889 81.4942 93.0831 82.8784 88.9043C91.4303 63.1815 116.038 39.9625 150.383 25.208C164.082 19.322 178.468 14.5347 192.379 9.9046C213.279 2.95006 234.888 -4.24175 254.183 -15.2184C280.334 -30.1132 308.77 -58.887 310.16 -94.9724C310.306 -98.4404 310.186 -101.951 309.806 -105.405C307.332 -127.844 294.035 -147.402 281.177 -166.316C275.382 -174.841 269.389 -183.655 264.583 -192.5C254.225 -211.509 251.194 -227.272 254.754 -243.61C257.697 -257.043 269.597 -269.656 283.689 -274.281C294.284 -277.758 304.085 -276.187 311.284 -269.861L312.162 -270.861C304.595 -277.511 294.336 -279.175 283.274 -275.546C268.754 -270.782 256.497 -257.765 253.453 -243.894C249.821 -227.22 252.892 -211.174 263.413 -191.864C268.25 -182.962 274.263 -174.119 280.077 -165.567C292.842 -146.788 306.045 -127.369 308.482 -105.26C308.855 -101.872 308.973 -98.4296 308.83 -95.0257C307.464 -59.4811 279.364 -31.0925 253.526 -16.3747C234.344 -5.463 212.797 1.70782 191.959 8.64196C178.021 13.2809 163.608 18.0771 149.856 23.9849C115.165 38.8912 90.2916 62.4013 81.615 88.4856C80.2037 92.7459 79.2036 97.1365 78.6424 101.536C75.0361 129.371 88.1254 154.806 102.809 178.145C106.027 183.266 109.437 188.417 112.732 193.397C121.292 206.332 130.144 219.707 136.057 233.214C145.091 253.841 146.266 271.908 139.758 290.076C128.926 320.117 109.412 332.965 0.598181 381.741C-12.2227 387.488 -26.4055 393.643 -41.4223 400.158C-59.6754 408.077 -80.3617 417.054 -102.805 427.125L-102.261 428.339C-79.8258 418.27 -59.1412 409.297 -40.8928 401.379C-25.8727 394.862 -11.6854 388.706 1.14159 382.955C94.307 341.192 122.288 325.616 135.332 303.026Z" fill="#45C2B1"/>
<path d="M130.801 303.582C133.008 299.761 134.817 295.757 136.389 291.461C143.14 273.03 142.029 253.985 132.993 233.238C127.491 220.594 119.378 208.164 111.534 196.143C107.568 190.067 103.468 183.784 99.7187 177.503C87.6226 157.263 74.4069 130.408 79.6301 102.16C80.4084 97.9494 81.5924 93.802 83.1482 89.8318C92.8682 65.2087 118.235 43.4228 152.725 30.0641C164.983 25.3155 177.675 21.2727 189.947 17.3623C212.773 10.0908 236.376 2.57212 256.971 -9.55767C282.482 -24.617 310.088 -53.8678 311.072 -90.7931C311.166 -94.3694 311.015 -97.897 310.626 -101.277C308.085 -123.337 295.678 -142.79 283.68 -161.603C277.88 -170.696 271.884 -180.099 267.229 -189.516C257.878 -208.334 255.384 -224.589 259.385 -240.671C262.766 -254.136 274.607 -266.357 288.845 -271.089C299.488 -274.625 309.427 -273.255 316.829 -267.232L317.669 -268.264C309.901 -274.585 299.515 -276.037 288.425 -272.351C273.77 -267.483 261.576 -254.885 258.094 -240.993C254.012 -224.586 256.536 -208.042 266.037 -188.924C270.723 -179.444 276.739 -170.011 282.558 -160.887C294.474 -142.202 306.798 -122.88 309.305 -101.124C309.687 -97.8063 309.834 -94.342 309.741 -90.8291C308.774 -54.4452 281.498 -25.5833 256.297 -10.7037C235.829 1.34976 213.347 8.51174 189.545 16.0949C177.251 20.0102 164.54 24.0596 152.245 28.8235C117.409 42.3164 91.7791 64.3819 81.9095 89.3442C80.3214 93.3943 79.1158 97.6246 78.3218 101.918C73.0177 130.604 86.3601 157.745 98.5767 178.186C102.339 184.489 106.447 190.783 110.42 196.871C118.234 208.845 126.315 221.228 131.775 233.769C140.666 254.188 141.767 272.91 135.14 291.004C123.524 322.69 98.5602 338.607 -5.49866 380.579C-19.5868 386.261 -35.1712 392.095 -51.6707 398.27C-68.928 404.732 -88.4895 412.054 -109.325 420.333L-108.835 421.57C-88.0113 413.295 -68.4558 405.976 -51.2038 399.517C-34.6961 393.338 -19.1061 387.501 -5.00217 381.812C85.5444 345.291 116.49 328.363 130.801 303.582Z" fill="#45C2B1"/>
<path d="M125.982 304.881C128.27 300.919 130.132 296.789 131.769 292.397C138.717 273.752 137.716 254.582 128.711 233.794C123.548 221.866 115.995 210.177 108.693 198.873C104.218 191.947 99.5892 184.783 95.5063 177.572C79.0321 148.528 73.8813 124.711 79.2958 102.617C80.309 98.4843 81.6939 94.4945 83.4139 90.76C98.2191 58.6599 134.661 41.9971 155.069 34.9196C165.642 31.2541 176.464 27.9912 186.93 24.8354C213.079 16.9511 237.779 9.50401 259.762 -3.89708C284.676 -19.1408 311.478 -48.8749 311.985 -86.6151C312.033 -90.2373 311.852 -93.781 311.449 -97.1479C308.849 -118.791 297.313 -138.092 286.155 -156.758C280.353 -166.464 274.355 -176.499 269.875 -186.531C261.378 -205.408 259.517 -221.676 264.017 -237.73C267.787 -251.005 279.832 -263.125 293.987 -267.892C304.683 -271.492 314.764 -270.325 322.376 -264.602L323.175 -265.667C315.203 -271.66 304.686 -272.898 293.563 -269.153C279.009 -264.254 266.617 -251.772 262.737 -238.091C258.146 -221.718 260.03 -205.162 268.662 -185.986C273.172 -175.885 279.191 -165.814 285.012 -156.076C296.098 -137.529 307.562 -118.351 310.128 -96.9889C310.524 -93.6811 310.701 -90.1965 310.655 -86.633C310.154 -49.4344 283.678 -20.0909 259.068 -5.03266C237.232 8.27907 212.612 15.7025 186.546 23.5611C176.067 26.7209 165.232 29.9885 154.634 33.6629C134.023 40.8079 97.2084 57.6483 82.2062 90.2039C80.45 94.0149 79.0367 98.0849 78.0024 102.299C72.5033 124.745 77.6975 148.871 94.3476 178.227C98.4505 185.473 103.09 192.652 107.574 199.595C114.848 210.854 122.37 222.496 127.489 234.323C136.352 254.781 137.343 273.624 130.521 291.932C118.957 322.976 95.7448 340.854 -11.5946 379.418C-26.6056 384.81 -43.1145 390.016 -60.5942 395.528C-78.0265 401.025 -96.0501 406.709 -115.843 413.543L-115.409 414.801C-95.6331 407.973 -77.6173 402.292 -60.1944 396.798C-42.7023 391.281 -26.1797 386.072 -11.1449 380.67C81.6366 347.337 111.878 329.307 125.982 304.881Z" fill="#45C2B1"/>
<path d="M121.185 306.098C123.536 302.027 125.455 297.798 127.147 293.333C134.291 274.473 133.402 255.18 124.426 234.35C119.529 222.973 112.399 211.858 105.503 201.108C100.621 193.496 95.573 185.624 91.2904 177.64C76.1704 149.512 72.1357 125.121 78.9557 103.073C80.2048 99.0448 81.7937 95.2149 83.6787 91.6903C95.7339 69.1324 121.931 50.6869 157.411 39.7739C166.004 37.131 174.731 34.676 183.171 32.3021C211.922 24.2155 239.078 16.5769 262.551 1.76468C294.061 -18.2096 312.88 -49.688 312.897 -82.436C312.898 -86.1622 312.693 -89.6236 312.27 -93.0185C309.624 -114.201 298.934 -133.3 288.596 -151.771C282.795 -162.137 276.796 -172.855 272.521 -183.544C264.843 -202.526 263.61 -218.809 268.648 -234.788C272.76 -247.848 284.973 -259.855 299.033 -264.671C309.818 -268.364 320.077 -267.407 327.923 -261.974L328.679 -263.069C320.479 -268.748 309.796 -269.765 298.602 -265.93C283.936 -260.907 271.677 -248.842 267.378 -235.188C262.243 -218.899 263.487 -202.33 271.287 -183.047C275.592 -172.28 281.612 -161.524 287.435 -151.122C297.711 -132.761 308.335 -113.778 310.95 -92.8536C311.365 -89.5143 311.567 -86.1071 311.565 -82.4371C311.553 -50.1446 292.962 -19.0888 261.84 0.640067C238.531 15.3477 211.466 22.961 182.811 31.0207C174.364 33.3968 165.629 35.8541 157.021 38.5021C121.203 49.5193 94.774 68.2204 82.5049 91.0624C80.5808 94.6618 78.9586 98.5701 77.6864 102.68C70.7538 125.085 74.8213 149.811 90.1187 178.27C94.4255 186.299 99.4873 194.192 104.384 201.826C111.251 212.531 118.349 223.599 123.204 234.877C132.038 255.374 132.92 274.34 125.903 292.861C113.986 324.308 90.4276 344.099 -17.6917 378.256C-33.5685 383.273 -50.8906 387.722 -69.2287 392.433C-86.0628 396.758 -103.469 401.231 -122.361 406.753L-121.986 408.031C-103.117 402.514 -85.7209 398.045 -68.8966 393.723C-50.5417 389.006 -33.2028 384.552 -17.2913 379.525C76.1298 350.012 106.76 331.08 121.185 306.098Z" fill="#45C2B1"/>
<path d="M116.554 306.928C118.898 302.872 120.83 298.67 122.524 294.269C129.768 275.46 128.966 255.489 120.142 234.908C115.454 223.958 108.65 213.295 102.071 202.983C96.8553 194.806 91.4602 186.35 87.076 177.709C73.1757 150.384 70.3296 125.427 78.6167 103.532C80.0939 99.6253 81.8825 95.9552 83.9403 92.6199C100.757 65.3227 134.45 51.455 159.754 44.6283C166.019 42.9387 172.269 41.3286 178.473 39.7294C210.241 31.5468 240.244 23.8167 265.34 7.42544C296.093 -12.7698 314.21 -44.8013 313.808 -78.2574C313.763 -82.0228 313.528 -85.5007 313.091 -88.8886C310.399 -109.638 300.503 -128.549 290.931 -146.837C284.904 -158.356 279.209 -169.237 275.165 -180.559C268.337 -199.669 267.738 -215.966 273.277 -231.848C277.83 -244.908 289.942 -256.529 304.127 -261.457C314.978 -265.228 325.399 -264.478 333.469 -259.346L334.182 -260.47C325.761 -265.824 314.934 -266.621 303.69 -262.715C289.137 -257.658 276.704 -245.717 272.021 -232.286C266.375 -216.102 266.976 -199.524 273.91 -180.112C277.988 -168.701 283.968 -157.273 289.752 -146.22C299.269 -128.035 309.109 -109.231 311.771 -88.7175C312.202 -85.3815 312.433 -81.9547 312.478 -78.2409C312.874 -45.2426 294.979 -13.6342 264.61 6.31191C239.7 22.5827 209.798 30.2854 178.141 38.4413C171.931 40.041 165.676 41.6522 159.407 43.3436C133.871 50.2331 99.8514 64.2527 82.8064 91.9217C80.7179 95.3313 78.8803 99.0755 77.3716 103.061C68.946 125.321 71.8111 150.639 85.8893 178.313C90.3022 187.011 95.7154 195.494 100.949 203.699C107.5 213.966 114.273 224.582 118.918 235.432C127.601 255.683 128.395 275.317 121.283 293.791C108.823 326.148 82.9681 347.92 -23.7884 377.097C-40.529 381.672 -58.6077 385.269 -77.7488 389.077C-94.0089 392.31 -110.822 395.655 -128.876 399.965L-128.567 401.26C-110.538 396.955 -93.7369 393.614 -77.4897 390.382C-58.3245 386.57 -40.2231 382.968 -23.4375 378.381C69.4591 352.992 101.452 333.082 116.554 306.928Z" fill="#45C2B1"/>
<path d="M112.003 307.598C114.31 303.605 116.231 299.482 117.904 295.205C125.339 276.181 124.651 256.082 115.86 235.466C111.342 224.86 104.797 214.562 98.468 204.604C92.9656 195.946 87.2765 186.994 82.8603 177.778C69.8776 150.769 68.3347 125.943 78.2727 103.989C79.986 100.204 81.9816 96.6916 84.199 93.5478C102.283 67.9303 136.543 55.4451 162.099 49.4819C165.6 48.6647 169.091 47.8616 172.564 47.0617C207.886 38.9354 241.248 31.2596 268.127 13.0848C298.132 -7.3248 315.548 -39.9097 314.72 -74.0773C314.628 -77.8852 314.364 -81.3792 313.912 -84.7592C311.196 -104.963 302.097 -123.57 293.296 -141.565C287.276 -153.875 281.591 -165.501 277.809 -177.572C271.799 -196.744 271.83 -213.057 277.906 -228.907C282.832 -241.76 295.117 -253.272 309.203 -258.237C320.125 -262.089 330.715 -261.549 339.018 -256.719L339.687 -257.87C331.041 -262.899 320.058 -263.476 308.761 -259.492C294.321 -254.403 281.719 -242.588 276.664 -229.383C270.474 -213.238 270.435 -196.648 276.538 -177.174C280.351 -165.007 286.059 -153.336 292.1 -140.981C300.854 -123.081 309.906 -104.572 312.593 -84.5821C313.038 -81.2517 313.299 -77.8047 313.389 -74.0454C314.206 -40.33 297.007 -8.16952 267.381 11.9833C240.708 30.0182 207.463 37.6669 172.267 45.7649C168.791 46.565 165.299 47.3672 161.795 48.1848C136.016 54.2013 101.438 66.8217 83.113 92.7808C80.8448 95.992 78.8104 99.5781 77.0609 103.44C66.9524 125.77 68.5006 150.974 81.6599 178.353C86.111 187.64 91.8219 196.627 97.3456 205.318C103.645 215.23 110.159 225.481 114.634 235.987C123.287 256.273 123.968 276.033 116.663 294.719C103.794 327.668 75.6807 351.514 -29.8826 375.938C-47.5149 380.017 -66.3379 382.678 -86.2672 385.494C-101.943 387.709 -118.151 390.001 -135.388 393.178L-135.147 394.487C-117.937 391.314 -101.743 389.026 -86.0815 386.812C-66.1218 383.992 -47.2708 381.327 -29.5825 377.235C62.9412 355.827 96.3258 334.752 112.003 307.598Z" fill="#45C2B1"/>
<path d="M301.935 -15.0714C311.457 -31.5612 316.335 -50.4551 315.632 -69.8986C315.494 -73.7621 315.199 -77.2727 314.734 -80.6301C312.007 -100.24 303.676 -118.483 295.619 -136.126C289.609 -149.284 283.934 -161.713 280.451 -174.585C275.248 -193.816 275.91 -210.143 282.536 -225.966C287.912 -238.798 300.068 -249.931 314.265 -255.011C325.263 -258.946 336.025 -258.619 344.568 -254.092L345.191 -255.269C336.313 -259.973 325.171 -260.326 313.817 -256.264C299.278 -251.062 286.824 -239.649 281.308 -226.48C274.562 -210.37 273.882 -193.769 279.166 -174.238C282.678 -161.259 288.375 -148.782 294.408 -135.573C302.425 -118.018 310.715 -99.8639 313.416 -80.447C313.875 -77.1349 314.165 -73.6685 314.303 -69.8493C315.545 -35.4111 299.038 -2.69942 270.153 17.6562C241.51 37.7041 204.25 45.0874 164.804 52.9043L164.182 53.0273C126.251 60.5445 99.0783 74.2091 83.4209 93.6414C80.9859 96.6597 78.7455 100.086 76.7532 103.821C65.0438 125.801 65.279 151.588 77.4318 178.395C81.8658 188.207 87.8351 197.627 93.6093 206.736C99.7087 216.36 106.015 226.312 110.35 236.542C118.972 256.863 119.542 276.75 112.045 295.649C98.9136 328.759 68.7132 354.887 -35.9789 374.78C-54.5464 378.308 -74.1201 379.954 -94.8419 381.697C-109.906 382.963 -125.484 384.273 -141.9 386.393L-141.729 387.713C-125.342 385.597 -109.781 384.288 -94.7307 383.022C-73.9729 381.277 -54.3661 379.629 -35.7294 376.088C69.557 356.081 99.9885 329.663 113.283 296.139C120.914 276.904 120.34 256.678 111.575 236.022C107.2 225.693 100.862 215.694 94.7335 206.024C88.9849 196.953 83.0403 187.574 78.6453 177.847C66.6681 151.428 66.4203 126.048 77.9288 104.447C79.878 100.783 82.0761 97.4303 84.456 94.4759C99.9146 75.2943 126.824 61.7876 164.441 54.3328L165.063 54.2093C204.651 46.3648 242.044 38.9549 270.917 18.7445C283.872 9.61798 294.37 -1.96907 301.935 -15.0714Z" fill="#45C2B1"/>
<path d="M302.576 -7.71019C312.536 -24.9618 317.533 -45.0115 316.545 -65.7182C316.359 -69.63 316.034 -73.1576 315.557 -76.5C312.831 -95.4646 305.239 -113.279 297.896 -130.508C291.899 -144.577 286.237 -157.866 283.093 -171.597C278.742 -190.613 280.073 -207.436 287.165 -223.026C292.906 -235.642 305.222 -246.663 319.314 -251.777C330.388 -255.798 341.328 -255.688 350.117 -251.468L350.694 -252.668C341.578 -257.044 330.274 -257.172 318.86 -253.028C304.443 -247.797 291.831 -236.511 285.954 -223.577C278.737 -207.711 277.376 -190.611 281.797 -171.3C284.966 -157.453 290.652 -144.111 296.672 -129.986C303.981 -112.836 311.539 -95.1029 314.239 -76.3118C314.711 -73.0106 315.031 -69.5242 315.216 -65.6543C316.894 -30.4818 301.082 2.78305 272.924 23.3288C244.732 43.7557 208.08 51.0581 166.571 57.8721C127.574 64.2724 100.476 76.2541 83.731 94.5029C81.1331 97.3355 78.6828 100.599 76.448 104.203C62.9451 126.059 61.8017 151.714 73.2063 178.438C77.5799 188.726 83.7792 198.526 89.7747 208.004C95.7117 217.39 101.849 227.094 106.065 237.096C114.659 257.452 115.117 277.465 107.427 296.578C90.7904 337.944 47.4745 360.264 -42.0719 373.624C-61.6205 376.54 -81.9426 377.091 -103.458 377.674C-117.891 378.064 -132.813 378.469 -148.409 379.609L-148.312 380.937C-132.746 379.798 -117.838 379.395 -103.422 379.004C-81.8655 378.42 -61.5048 377.868 -41.8752 374.94C48.207 361.501 91.8259 338.951 108.661 297.075C116.486 277.623 116.025 257.269 107.292 236.579C103.033 226.475 96.8648 216.724 90.8997 207.293C84.9326 197.859 78.7623 188.105 74.43 177.915C63.202 151.607 64.2974 126.388 77.5799 104.904C79.7699 101.37 82.1695 98.1741 84.7121 95.4027C101.247 77.3822 128.094 65.5345 166.786 59.1843C208.464 52.343 245.278 45.0041 273.707 24.4054C285.65 15.6914 295.4 4.71525 302.576 -7.71019Z" fill="#45C2B1"/>
<path d="M303.573 -0.492504C313.863 -18.312 318.768 -39.2853 317.457 -61.5379C317.223 -65.4823 316.871 -69.0253 316.377 -72.3713C313.67 -90.6353 306.783 -107.955 300.122 -124.704C294.138 -139.751 288.488 -153.962 285.732 -168.611C282.149 -187.673 284.13 -204.512 291.79 -220.088C302.353 -241.603 332.572 -258.831 355.666 -248.844L356.195 -250.065C332.445 -260.336 301.399 -242.706 290.597 -220.675C282.804 -204.832 280.785 -187.721 284.425 -168.364C287.203 -153.59 292.878 -139.32 298.886 -124.212C305.519 -107.533 312.376 -90.2874 315.061 -72.1767C315.549 -68.87 315.896 -65.3651 316.127 -61.4604C318.278 -25.0102 303.544 7.96259 275.695 29.0018C249.268 48.825 213.911 56.8158 168.955 62.7148C129.315 67.9168 101.54 78.5973 84.0409 95.3653C81.2701 98.0227 78.614 101.126 76.1456 104.586C60.9629 125.879 58.4122 152.122 68.9779 178.479C73.2602 189.205 79.6657 199.346 85.8616 209.153C91.6644 218.337 97.6647 227.835 101.781 237.651C110.343 258.039 110.69 278.179 102.809 297.509C85.535 339.868 38.9712 362.985 -48.1665 372.468C-68.7473 374.708 -89.8307 374.081 -112.152 373.419C-125.919 373.01 -140.156 372.588 -154.918 372.828L-154.897 374.158C-140.164 373.919 -125.943 374.342 -112.189 374.75C-89.8227 375.413 -68.6943 376.041 -48.0217 373.791C-0.778923 368.65 34.3474 359.537 59.3636 345.93C81.3997 333.943 95.5987 318.719 104.04 298.011C111.948 278.62 111.589 257.569 103.007 237.135C98.8493 227.218 92.8189 217.672 86.9866 208.441C80.823 198.686 74.4512 188.598 70.2137 177.985C59.8226 152.063 62.3217 126.282 77.2288 105.359C79.6501 101.966 82.2513 98.9265 84.9629 96.3265C102.249 79.7615 129.78 69.1988 169.129 64.0352C214.292 58.108 249.834 50.0635 276.496 30.0651C287.694 21.6044 296.8 11.2385 303.573 -0.492504Z" fill="#45C2B1"/>
<path d="M304.359 6.86234C315.052 -11.6576 320.02 -33.776 318.368 -57.3587C318.089 -61.3338 317.707 -64.8932 317.199 -68.2414C314.525 -85.7503 308.31 -102.503 302.298 -118.705C296.329 -134.797 290.689 -149.996 288.373 -165.623C285.54 -184.727 288.172 -201.582 296.419 -217.148C307.641 -238.353 337.754 -255.293 361.216 -246.221L361.696 -247.462C337.603 -256.779 306.732 -239.485 295.242 -217.772C286.858 -201.944 284.181 -184.823 287.056 -165.428C289.394 -149.663 295.056 -134.401 301.051 -118.243C307.038 -102.104 313.231 -85.4148 315.883 -68.0417C316.386 -64.7297 316.764 -61.2048 317.041 -57.2655C319.645 -20.0569 305.587 13.4548 278.467 34.6746C249.602 57.0909 209.923 63.7278 171.342 67.5597C129.808 71.6861 102.98 80.5282 84.3553 96.2308C81.4182 98.7083 78.5543 101.648 75.8441 104.97C58.7467 125.933 54.8084 152.055 64.7502 178.519C68.9146 189.654 75.5107 200.103 81.8881 210.205C87.5801 219.222 93.4654 228.544 97.4965 238.205C105.911 258.341 106.15 279.169 98.1892 298.437C80.0854 342.246 31.647 365.398 -54.2608 371.313C-75.9347 372.804 -97.7943 370.917 -120.937 368.92C-134.003 367.792 -147.515 366.626 -161.427 366.048L-161.482 367.378C-147.6 367.954 -134.103 369.119 -121.052 370.245C-97.8564 372.247 -75.9469 374.139 -54.1704 372.639C32.2998 366.687 81.0942 343.268 99.4202 298.946C107.519 279.343 107.279 258.162 98.7247 237.692C94.6506 227.929 88.7353 218.558 83.0143 209.495C76.6723 199.449 70.114 189.06 65.9963 178.052C56.2287 152.049 60.0966 126.398 76.8754 105.811C79.5329 102.553 82.3384 99.6723 85.2128 97.2482C103.621 81.7304 130.224 72.9822 171.474 68.8842C210.252 65.0317 250.153 58.3485 279.285 35.7242C289.555 27.689 297.977 17.9164 304.359 6.86234Z" fill="#45C2B1"/>
<path d="M305.208 14.2274C316.29 -4.96266 321.296 -28.2355 319.279 -53.1786C318.955 -57.1857 318.543 -60.7621 318.02 -64.1122C315.397 -80.8082 309.817 -96.9222 304.419 -112.507C298.462 -129.714 292.832 -145.968 291.01 -162.636C288.916 -181.787 292.199 -198.657 301.044 -214.21C314.156 -237.346 344.92 -251.085 366.766 -243.599L367.197 -244.858C342.156 -253.439 312.355 -236.465 300.054 -215.159C299.997 -215.061 299.944 -214.966 299.887 -214.868C290.898 -199.062 287.562 -181.93 289.686 -162.492C291.526 -145.673 297.178 -129.351 303.163 -112.07C308.539 -96.5424 314.099 -80.485 316.704 -63.9066C317.222 -60.5899 317.629 -57.0457 317.952 -53.071C321.022 -15.0935 307.641 18.956 281.236 40.3468C251.485 64.2752 208.153 70.0492 173.728 72.4058C143.361 74.4841 109.035 79.0436 84.6691 97.0997C81.5572 99.4051 78.4866 102.183 75.5449 105.358C56.7711 125.603 51.2988 152.286 60.5228 178.561C64.5477 190.08 71.317 200.807 77.8626 211.18C83.4613 220.053 89.2518 229.227 93.2093 238.759C101.596 258.926 101.72 279.884 93.569 299.367C74.6749 344.535 24.3222 367.69 -60.3573 370.159C-83.1809 370.825 -105.834 367.588 -129.82 364.159C-142.15 362.397 -154.898 360.575 -167.937 359.271L-168.069 360.596C-155.059 361.897 -142.323 363.717 -130.008 365.477C-105.966 368.913 -83.2565 372.158 -60.3172 371.49C17.9862 369.206 67.1767 349.253 89.4918 310.609C91.4727 307.178 93.2383 303.607 94.7973 299.881C103.088 280.062 102.964 258.75 94.4388 238.249C90.4386 228.614 84.6168 219.389 78.9889 210.47C72.4816 200.159 65.7545 189.498 61.7792 178.122C52.7224 152.326 58.0976 126.137 76.5197 106.262C79.4061 103.148 82.4149 100.425 85.4607 98.1688C109.552 80.3178 143.645 75.7991 173.818 73.7339C208.439 71.3642 252.03 65.5456 282.072 41.3831C291.459 33.7794 299.22 24.5988 305.208 14.2274Z" fill="#45C2B1"/>
<path d="M306.13 21.5971C317.579 1.76875 322.598 -22.6656 320.192 -48.9972C319.823 -53.0307 319.381 -56.6246 318.842 -59.9821C316.287 -75.8047 311.306 -91.2019 306.49 -106.092C300.539 -124.491 294.917 -141.87 293.649 -159.649C292.3 -178.574 296.363 -195.933 305.672 -211.271C319.782 -234.451 349.679 -247.777 372.316 -240.977L372.7 -242.252C349.518 -249.215 318.94 -235.627 304.535 -211.963C295.064 -196.372 290.95 -178.761 292.322 -159.554C293.6 -141.615 299.247 -124.16 305.223 -105.683C310.025 -90.8399 314.989 -75.4925 317.528 -59.771C318.063 -56.4428 318.501 -52.8788 318.865 -48.8765C322.408 -10.1221 309.702 24.4683 284.008 46.0211C260.435 65.6543 227.159 75.2871 176.112 77.2517C143.398 78.5126 109.715 81.8947 84.9862 97.9704C81.6965 100.109 78.419 102.726 75.2471 105.748C54.5151 125.492 47.6123 152.05 56.2975 178.604C60.164 190.484 67.0954 201.467 73.7979 212.088C79.3204 220.84 85.0327 229.89 88.926 239.314C97.2848 259.513 97.2922 280.6 88.9511 300.298C69.2726 346.741 16.9948 369.864 -66.4502 369.007C-90.4941 368.76 -113.971 364.076 -138.824 359.118C-150.371 356.814 -162.31 354.433 -174.444 352.497L-174.654 353.811C-162.545 355.743 -150.619 358.122 -139.085 360.423C-114.167 365.394 -90.6331 370.089 -66.4626 370.338C17.5703 371.2 70.278 347.814 90.1764 300.816C98.6608 280.783 98.653 259.34 90.1562 238.806C86.2179 229.275 80.4773 220.177 74.9241 211.378C68.2643 200.825 61.379 189.915 57.5626 178.191C49.0425 152.144 55.8217 126.092 76.1639 106.711C79.2784 103.746 82.4905 101.18 85.7108 99.0859C110.17 83.186 143.639 79.8348 176.164 78.5821C227.523 76.6044 261.047 66.8772 284.861 47.0421C293.406 39.8745 300.537 31.2835 306.13 21.5971Z" fill="#45C2B1"/>
<path d="M307.122 28.9616C318.916 8.53271 323.924 -17.0743 321.102 -44.8179C320.688 -48.8877 320.216 -52.4985 319.662 -55.8544C317.194 -70.7429 312.776 -85.3441 308.504 -99.4641C302.554 -119.131 296.932 -137.707 296.285 -156.663C295.636 -175.634 300.365 -193.019 310.297 -208.333C325.125 -231.157 354.805 -244.346 377.867 -238.357L378.201 -239.645C354.618 -245.769 324.301 -232.333 309.182 -209.058C299.064 -193.515 294.298 -175.866 294.954 -156.617C295.609 -137.487 301.254 -118.831 307.229 -99.079C311.49 -84.999 315.895 -70.4403 318.348 -55.6374C318.899 -52.3082 319.366 -48.7255 319.779 -44.6823C323.798 -5.1453 311.772 29.9842 286.781 51.6948C263.286 71.9615 228.878 81.6227 178.498 82.0986C145.699 82.4082 111.485 83.9554 85.3021 98.8436C81.832 100.816 78.3479 103.27 74.9502 106.14C52.5685 125.023 44.0176 152.13 52.0697 178.644C55.7645 190.87 62.8472 202.09 69.6973 212.941C75.157 221.59 80.8016 230.532 84.6402 239.868C92.9719 260.099 92.8658 281.317 84.3322 301.227C70.085 334.458 31.308 373.001 -72.5447 367.855C-97.885 366.599 -122.216 360.366 -147.977 353.766C-158.688 351.022 -169.765 348.184 -180.954 345.723L-181.24 347.023C-170.072 349.479 -159.008 352.314 -148.307 355.055C-122.48 361.672 -98.0847 367.922 -72.6116 369.184C-28.6859 371.361 7.5475 365.737 35.0847 352.471C59.1101 340.896 76.0919 323.832 85.5547 301.751C94.2324 281.504 94.342 259.931 85.8712 239.362C81.9883 229.919 76.3125 220.926 70.8238 212.231C64.0209 201.455 56.9873 190.312 53.3434 178.258C45.4522 152.27 53.8521 125.691 75.8083 107.157C79.1452 104.341 82.5602 101.933 85.9593 100C111.866 85.2705 145.886 83.7376 178.51 83.4295C229.222 82.9502 263.904 73.1866 287.653 52.7019C295.401 45.9702 301.92 37.9672 307.122 28.9616Z" fill="#45C2B1"/>
<path d="M308.546 35.946C320.57 15.1238 325.306 -11.1813 322.013 -40.6358C321.559 -44.7021 321.058 -48.3291 320.483 -51.724C318.121 -65.6135 314.231 -79.3315 310.467 -92.5992C304.506 -113.616 298.877 -133.468 298.92 -153.676C298.96 -172.697 304.345 -190.098 314.923 -205.395C330.469 -227.874 359.915 -240.919 383.417 -235.738L383.703 -237.037C359.704 -242.328 329.663 -229.051 313.828 -206.152C303.098 -190.625 297.63 -172.974 297.589 -153.679C297.544 -133.284 303.199 -113.346 309.187 -92.2361C312.94 -79.0024 316.822 -65.3187 319.17 -51.5018C319.741 -48.1317 320.239 -44.529 320.691 -40.4876C325.265 0.436258 314.206 35.189 289.552 57.3694C266.233 78.2069 230.686 87.8822 180.881 86.9465C149.51 86.3569 113.953 85.6892 85.6162 99.7204C81.9602 101.53 78.2709 103.823 74.6521 106.535C50.6626 124.512 40.3929 152.16 47.8432 178.686C51.3529 191.243 58.5811 202.686 65.5694 213.751C70.9765 222.311 76.5661 231.162 80.3568 240.424C88.6586 260.686 88.436 282.033 79.713 302.157C58.8393 350.244 1.14315 373.783 -78.6404 366.705C-105.362 364.335 -130.592 356.435 -157.304 348.072C-167.119 344.999 -177.268 341.821 -187.465 338.954L-187.825 340.235C-177.647 343.097 -167.508 346.271 -157.702 349.341C-130.92 357.726 -105.622 365.648 -78.7577 368.031C-35.4454 371.874 0.818032 367.151 29.0279 353.995C53.3512 342.653 71.2896 324.906 80.9343 302.687C89.8037 282.226 90.0306 260.522 81.5888 239.92C77.754 230.55 72.1317 221.648 66.6958 213.041C59.7574 202.056 52.5828 190.697 49.1252 178.327C41.8237 152.339 51.9112 125.24 75.4501 107.6C79.0047 104.937 82.623 102.686 86.2079 100.914C114.252 87.0254 149.638 87.691 180.857 88.2778C231.013 89.2194 266.858 79.4333 290.441 58.3599C297.633 51.8887 303.685 44.3648 308.546 35.946Z" fill="#45C2B1"/>
<path d="M309.694 43.2487C322.022 21.8964 326.687 -5.53269 322.924 -36.4547C322.43 -40.5191 321.9 -44.1628 321.304 -47.5944C319.07 -60.4165 315.671 -73.1656 312.383 -85.496C306.398 -107.947 300.743 -129.155 301.555 -150.69C302.273 -169.766 308.323 -187.181 319.548 -202.458C335.816 -224.601 365.012 -237.495 388.965 -233.12L389.205 -234.428C364.775 -238.891 335.031 -225.777 318.475 -203.246C307.101 -187.749 300.953 -170.087 300.223 -150.741C299.406 -129.005 305.085 -107.704 311.098 -85.1525C314.377 -72.8513 317.768 -60.1303 319.992 -47.3667C320.585 -43.9574 321.111 -40.3357 321.603 -36.2939C326.682 5.44526 316.278 40.7214 292.323 63.043C268.933 84.6986 233.259 94.1042 183.265 91.7947L180.774 91.6786C147.937 90.1548 113.98 88.5778 85.9331 100.599C82.0925 102.243 78.1969 104.374 74.3563 106.933C54.0242 120.478 35.2706 146.451 43.6172 178.728C46.9327 191.604 54.2957 203.254 61.4173 214.521C66.7787 223.004 72.3233 231.777 76.0711 240.979C84.2295 260.982 83.8815 283.039 75.0925 303.086C65.2909 325.456 47.0819 343.152 22.4391 354.268C-6.19891 367.188 -42.2582 370.985 -84.7343 365.556C-112.943 361.949 -139.133 352.25 -166.862 341.981C-175.701 338.708 -184.84 335.323 -193.976 332.185L-194.407 333.445C-185.288 336.577 -176.155 339.959 -167.324 343.23C-139.522 353.526 -113.262 363.25 -84.904 366.876C-42.1787 372.338 -5.8796 368.504 22.9871 355.482C47.9341 344.228 66.3743 326.294 76.3123 303.622C85.2459 283.241 85.5986 260.816 77.3034 240.477C73.5106 231.165 67.935 222.343 62.5423 213.81C55.4762 202.63 48.1697 191.07 44.9056 178.396C36.7348 146.795 55.1418 121.332 75.0936 108.041C78.8677 105.528 82.6909 103.436 86.456 101.822C114.225 89.9226 146.52 91.4212 180.713 93.009L183.202 93.1238C233.572 95.4517 269.562 85.9311 293.229 64.0187C299.706 57.9838 305.207 51.0169 309.694 43.2487Z" fill="#45C2B1"/>
<path d="M310.916 50.5265C323.526 28.6855 328.092 0.133467 323.837 -32.2736C323.306 -36.3192 322.746 -39.9801 322.126 -43.4644C320.042 -55.147 317.101 -66.8345 314.258 -78.1372C308.225 -102.114 302.528 -124.76 304.19 -147.705C305.573 -166.841 312.3 -184.273 324.173 -199.522C341.165 -221.335 370.091 -234.074 394.516 -230.502L394.708 -231.819C369.833 -235.457 340.396 -222.512 323.125 -200.339C311.079 -184.879 304.267 -167.202 302.861 -147.802C301.184 -124.643 306.908 -101.895 312.966 -77.8128C315.804 -66.5325 318.74 -54.8674 320.815 -43.2314C321.432 -39.7671 321.988 -36.1267 322.516 -32.1003C328.105 10.4597 318.367 46.2639 295.095 68.7174C271.697 91.1681 235.896 100.303 185.648 96.6436C183.003 96.4506 180.357 96.2503 177.716 96.0516C144.977 93.581 114.054 91.248 86.2458 101.48C82.2076 102.967 78.1069 104.936 74.0581 107.333C46.5782 123.616 32.9704 151.656 39.3931 178.77C42.5016 191.952 49.9965 203.8 57.2443 215.258C62.5691 223.676 68.075 232.38 71.7872 241.533C79.9176 261.565 79.4521 283.756 70.4739 304.017C47.9163 354.94 -12.3885 377.504 -90.8319 364.406C-120.644 359.428 -147.869 347.774 -176.691 335.435C-184.461 332.109 -192.495 328.67 -200.489 325.418L-200.989 326.652C-193.008 329.898 -184.979 333.335 -177.215 336.658C-149.588 348.485 -121.021 360.715 -91.0502 365.72C-48.8833 372.759 -12.5415 369.804 16.9658 356.934C42.5211 345.787 61.446 327.673 71.6906 304.556C80.8155 283.961 81.2878 261.402 73.0198 241.033C69.2636 231.77 63.7252 223.014 58.3689 214.546C51.1795 203.181 43.7452 191.43 40.6879 178.464C33.0502 146.221 54.2569 120.612 74.7369 108.478C78.7147 106.122 82.7411 104.187 86.705 102.729C114.243 92.598 145.025 94.9195 177.616 97.3789C180.258 97.5783 182.904 97.7778 185.55 97.9703C236.197 101.659 272.33 92.4041 296.017 69.6765C301.823 64.075 306.798 57.6583 310.916 50.5265Z" fill="#45C2B1"/>
<path d="M312.215 57.7759C325.085 35.4876 329.522 5.8222 324.748 -28.0916C324.182 -32.1091 323.594 -35.7865 322.947 -39.3346C321.035 -49.8136 318.515 -60.3541 316.077 -70.5471C309.959 -96.1305 304.181 -120.295 306.821 -144.72C308.791 -163.539 316.391 -181.475 328.8 -196.587C346.58 -218.066 375.219 -230.645 400.064 -227.886L400.211 -229.209C374.94 -232.015 345.828 -219.246 327.773 -197.434C315.203 -182.112 307.495 -163.938 305.498 -144.861C302.833 -120.209 308.637 -95.9366 314.782 -70.2378C317.215 -60.062 319.733 -49.5394 321.637 -39.0965C322.282 -35.5653 322.868 -31.9052 323.429 -27.9069C329.54 15.4834 320.46 51.8138 297.866 74.3915C274.838 97.2976 237.884 106.416 188.03 101.492C183.814 101.076 179.601 100.63 175.394 100.184C143.944 96.8581 114.237 93.715 86.5603 102.364C82.3226 103.687 78.0168 105.495 73.7612 107.737C51.4268 119.502 27.9167 145.174 35.1674 178.812C38.0636 192.293 45.6833 204.326 53.0531 215.964C58.3481 224.327 63.8245 232.975 67.5017 242.088C75.6066 262.15 75.022 284.474 65.8551 304.947C47.6511 345.603 -4.67428 382.277 -96.9263 363.259C-128.499 356.751 -158.177 342.308 -186.878 328.341C-193.457 325.139 -200.262 321.828 -207.001 318.653L-207.568 319.857C-200.836 323.028 -194.037 326.337 -187.46 329.538C-158.685 343.541 -128.931 358.02 -97.1945 364.563C-4.16978 383.74 48.6467 346.617 67.07 305.492C76.386 284.684 76.9779 261.99 68.736 241.59C65.0135 232.365 59.5048 223.665 54.1772 215.252C46.8718 203.714 39.3156 191.782 36.4698 178.532C29.3738 145.622 52.4596 120.463 74.3825 108.915C78.5666 106.71 82.7979 104.933 86.9563 103.633C114.371 95.0677 143.945 98.196 175.255 101.508C179.464 101.954 183.681 102.4 187.899 102.816C238.167 107.781 275.481 98.5348 298.807 75.3344C303.98 70.1643 308.457 64.2815 312.215 57.7759Z" fill="#45C2B1"/>
<path d="M313.59 64.9905C326.691 42.2983 330.975 11.5216 325.657 -23.9114C325.071 -27.8202 324.435 -31.62 323.768 -35.2053C322.053 -44.3935 319.937 -53.6769 317.889 -62.6551C311.664 -89.9492 305.786 -115.729 309.452 -141.737C312.07 -160.654 320.36 -178.604 333.424 -193.651C351.917 -214.814 380.252 -227.226 405.612 -225.27L405.714 -226.597C379.951 -228.584 351.18 -215.996 332.42 -194.526C319.183 -179.283 310.786 -161.093 308.134 -141.922C304.434 -115.672 310.614 -88.57 316.592 -62.3594C318.635 -53.3946 320.75 -44.1233 322.459 -34.9621C323.125 -31.3919 323.757 -27.6075 324.342 -23.7133C330.98 20.5138 322.561 57.3714 300.638 80.0658C277.698 103.724 240.612 112.565 190.41 106.34C184.885 105.656 179.358 104.9 173.844 104.147C144.704 100.166 114.573 96.0497 86.8727 103.248C82.3993 104.425 77.889 106.071 73.4608 108.141C47.7769 120.151 24.6716 146.675 30.942 178.853C33.618 192.625 41.3592 204.837 48.8457 216.647C54.1175 224.963 59.5684 233.561 63.2177 242.643C71.2727 262.677 70.5688 285.135 61.2344 305.878C43.0082 345.931 -10.9351 384.71 -103.023 362.112C-136.55 353.884 -167.549 336.949 -197.528 320.571C-202.851 317.662 -208.176 314.753 -213.518 311.888L-214.147 313.061C-208.809 315.924 -203.486 318.832 -198.167 321.738C-168.112 338.158 -137.036 355.136 -103.341 363.405C-10.4627 386.197 44.0102 346.951 62.4463 306.427C71.9327 285.348 72.6441 262.52 64.4526 242.147C60.757 232.951 55.2727 224.3 49.9696 215.934C42.5487 204.229 34.8756 192.125 32.2492 178.6C26.1132 147.124 48.8101 121.138 74.025 109.347C78.3803 107.311 82.8149 105.692 87.2084 104.535C114.653 97.4042 143.317 101.32 173.665 105.466C179.184 106.22 184.715 106.976 190.248 107.662C240.884 113.94 278.347 104.967 301.594 80.9918C306.179 76.2451 310.183 70.8907 313.59 64.9905Z" fill="#45C2B1"/>
<path d="M315.367 71.7524C328.631 48.7812 332.51 17.5895 326.569 -19.7298C325.965 -23.5261 325.3 -27.3431 324.589 -31.0756C323.102 -38.8793 321.368 -46.7938 319.692 -54.4473C313.594 -82.2797 307.288 -111.06 312.085 -138.755C315.344 -157.783 324.319 -175.754 338.048 -190.716C357.25 -211.564 385.265 -223.803 411.158 -222.657L411.218 -223.986C384.942 -225.15 356.53 -212.746 337.068 -191.617C323.171 -176.458 314.075 -158.26 310.774 -138.981C305.934 -111.029 312.267 -82.12 318.391 -54.163C320.066 -46.518 321.799 -38.6118 323.281 -30.8273C323.989 -27.1078 324.654 -23.3033 325.256 -19.5204C332.535 26.2054 324.981 62.6033 303.41 85.7414C280.598 110.142 243.381 118.704 192.793 111.19C186.055 110.19 179.207 109.037 172.583 107.921C144.229 103.148 114.911 98.2126 87.1831 104.136C82.4673 105.153 77.7501 106.638 73.1612 108.549C46.7764 119.431 20.9874 146.087 26.7176 178.895C29.1665 192.95 37.0254 205.332 44.6254 217.306C49.8783 225.582 55.3093 234.139 58.9336 243.198C66.97 263.278 66.1474 285.869 56.6158 306.808C36.1497 351.43 -23.028 385.482 -109.122 360.965C-144.851 350.791 -177.347 331.046 -208.773 311.95C-212.528 309.668 -216.281 307.389 -220.036 305.125L-220.723 306.266C-216.968 308.528 -213.218 310.807 -209.464 313.088C-177.963 332.228 -145.389 352.022 -109.485 362.246C-22.6348 386.977 37.1399 352.512 57.8253 307.36C67.5104 286.086 68.3414 263.124 60.1677 242.703C56.4991 233.53 51.0347 224.92 45.7494 216.593C38.2184 204.728 30.4318 192.46 28.0297 178.668C22.4262 146.582 47.7593 120.466 73.6701 109.778C78.1873 107.898 82.8268 106.437 87.4624 105.436C114.939 99.5668 144.132 104.482 172.362 109.234C178.991 110.35 185.846 111.504 192.597 112.507C243.643 120.089 281.254 111.39 304.383 86.6492C308.565 82.1644 312.23 77.186 315.367 71.7524Z" fill="#45C2B1"/>
<path d="M316.912 78.8469C330.387 55.5106 334.051 23.2887 327.48 -15.5478C326.889 -19.0945 326.211 -22.8238 325.41 -26.9456C324.181 -33.2622 322.817 -39.6863 321.498 -45.8993C315.197 -75.5807 308.681 -106.273 314.715 -135.773C318.615 -154.921 328.283 -172.905 342.671 -187.782C362.578 -208.315 390.255 -220.375 416.706 -220.041L416.723 -221.373C389.914 -221.71 361.873 -209.499 341.717 -188.707C327.151 -173.648 317.361 -155.436 313.412 -136.039C307.321 -106.268 313.866 -75.4383 320.197 -45.6221C321.514 -39.4155 322.877 -32.9969 324.103 -26.6916C324.902 -22.5818 325.577 -18.8642 326.168 -15.3268C334.042 31.219 327.132 68.1314 306.181 91.4161C283.852 116.199 245.466 124.714 195.172 116.04C187.381 114.697 179.456 113.109 171.791 111.574C144.038 106.015 115.337 100.265 87.4923 105.025C82.6076 105.864 77.6855 107.188 72.8597 108.958C44.9596 119.144 17.2984 145.39 22.4947 178.939C24.7103 193.27 32.683 205.815 40.3921 217.947C45.6307 226.189 51.047 234.712 54.6474 243.753C62.6688 263.884 61.7255 286.607 51.9967 307.739C30.721 353.753 -29.2232 387.705 -115.218 359.821C-153.492 347.411 -187.717 324.435 -220.815 302.215L-226.555 298.363L-227.298 299.468L-221.556 303.32C-188.382 325.591 -154.08 348.619 -115.629 361.087C-75.9293 373.96 -38.3213 374.45 -6.87096 362.506C20.5204 352.102 41.8632 332.853 53.2039 308.295C63.0899 286.83 64.0404 263.733 55.8843 243.26C52.237 234.103 46.787 225.527 41.5164 217.233C33.879 205.216 25.983 192.791 23.8089 178.735C18.7302 145.928 45.9107 120.214 73.3169 110.207C78.0686 108.465 82.9127 107.162 87.7173 106.337C115.318 101.619 143.895 107.343 171.53 112.879C179.203 114.416 187.138 116.006 194.947 117.352C245.713 126.107 284.519 117.447 307.172 92.3075C310.843 88.2247 314.094 83.7277 316.912 78.8469Z" fill="#45C2B1"/>
<path d="M318.513 85.9203C332.131 62.3334 335.565 29.1959 328.392 -11.3658C326.887 -19.8775 325.08 -28.5732 323.332 -36.9827C316.753 -68.6334 309.95 -101.363 317.348 -132.791C328.492 -180.16 373.596 -216.547 422.252 -217.429L422.228 -218.76C372.98 -217.868 327.339 -181.04 316.051 -133.097C308.586 -101.381 315.42 -68.5052 322.029 -36.712C323.774 -28.3124 325.579 -19.627 327.081 -11.1339C336.025 39.4509 328.387 78.3276 304.997 101.3C282.429 123.458 245.275 130.232 197.552 120.89C188.847 119.186 179.981 117.127 171.408 115.135C144.095 108.791 115.851 102.231 87.7989 105.914C65.2423 108.876 43.0909 121.361 29.9898 138.497C20.4305 151.006 16.3769 165.004 18.2698 178.982C20.2489 193.583 28.3327 206.286 36.15 218.57C41.3766 226.784 46.782 235.277 50.3629 244.307C62.1806 274.107 53.6062 310.048 28.5091 335.866C-6.25203 371.636 -62.2627 380.163 -121.317 358.676C-162.59 343.659 -198.424 317.194 -233.079 291.601L-233.869 292.671C-199.139 318.321 -163.226 344.844 -121.771 359.927C-62.2108 381.598 -5.67416 372.951 29.4639 336.794C54.918 310.597 63.6096 274.103 51.5987 243.816C47.9716 234.669 42.5331 226.122 37.2726 217.855C29.5319 205.692 21.5294 193.115 19.5893 178.803C17.744 165.183 21.7047 151.526 31.0477 139.305C43.9407 122.44 65.7546 110.151 87.9732 107.234C115.785 103.582 143.909 110.115 171.107 116.432C179.691 118.426 188.568 120.487 197.298 122.197C245.471 131.626 283.034 124.728 305.929 102.249C310.797 97.4682 314.996 92.0122 318.513 85.9203Z" fill="#45C2B1"/>
</g>
</g>
</svg>
