<svg width="690" height="201" viewBox="0 0 690 201" fill="none" xmlns="http://www.w3.org/2000/svg">
<path opacity="0.5" fill-rule="evenodd" clip-rule="evenodd" d="M6.10352e-05 201C30.3782 194.819 69.9122 179.011 114.781 142.433C206.464 67.6917 250.248 73.6707 324.298 83.7826C333.467 85.0348 343.1 86.3504 353.286 87.5777C354.535 87.7281 355.778 87.8817 357.017 88.0378L358.935 88.3238C361.28 88.686 363.608 89.0392 365.921 89.3806C368.265 89.7428 370.594 90.0963 372.907 90.4374C375.251 90.7996 377.58 91.1532 379.892 91.4942C382.236 91.8564 384.565 92.2099 386.878 92.551C389.223 92.9132 391.551 93.2662 393.863 93.6078C396.208 93.9703 398.536 94.323 400.849 94.6646C403.194 95.0272 405.522 95.3798 407.834 95.7214C410.179 96.0834 412.507 96.4372 414.82 96.7782C477.099 106.402 527.772 109.614 584.36 53.8832C611.823 26.8368 648.268 10.5055 684.252 0.99022C686.17 0.483094 688.086 -0.00248702 690 -0.471497L687.808 -0.471496C686.579 -0.161773 685.349 0.154404 684.118 0.47992C648.055 10.0159 611.527 26.3875 583.99 53.5075C538.73 98.0812 497.235 104.825 450.503 100.79C494.531 103.542 534.233 95.3138 577.375 52.8265C604.837 25.7801 641.282 9.44881 677.267 -0.0663441C677.785 -0.203627 678.303 -0.337569 678.821 -0.471496L676.738 -0.471495C640.804 9.07921 604.441 25.4297 577.004 52.4507C531.745 97.0244 490.25 103.768 443.518 99.7336C487.546 102.486 527.248 94.2569 570.389 51.7697C597.236 25.3299 632.666 9.13088 667.86 -0.471739L665.877 -0.471739C631.216 9.21196 596.469 25.3435 570.018 51.3936C524.759 95.9674 483.264 102.711 436.532 98.6766C480.56 101.429 520.263 93.1999 563.403 50.7126C589.289 25.2197 623.155 9.24744 657.093 -0.471738L655.196 -0.471738C621.771 9.31409 588.543 25.2128 563.033 50.3369C517.773 94.9101 476.279 101.654 429.546 97.6199C473.575 100.372 513.277 92.1431 556.418 49.6559C581.386 25.0662 613.778 9.3341 646.499 -0.471737L644.68 -0.471737C612.455 9.38863 580.659 25.0408 556.047 49.2801C510.788 93.8538 469.293 100.597 422.561 96.5631C466.589 99.3151 506.291 91.0863 549.432 48.5991C573.522 24.8745 604.524 9.39501 636.063 -0.471736L634.312 -0.471736C603.252 9.43853 572.812 24.8321 549.062 48.2233C503.802 92.797 462.308 99.5401 415.575 95.5063C459.604 98.2583 499.306 90.029 542.447 47.5424C565.693 24.648 595.376 9.43215 625.768 -0.471735L624.081 -0.471735C594.153 9.46453 564.999 24.5912 542.076 47.1665C496.817 91.7402 455.322 98.4839 408.59 94.4494C452.618 97.2019 492.32 88.9727 535.461 46.4857C557.896 24.39 586.328 9.44691 615.604 -0.471811L613.974 -0.47181C585.145 9.47019 557.216 24.3196 535.091 46.1096C489.831 90.6839 448.337 97.427 401.604 93.3926C445.633 96.1451 485.335 87.9153 528.476 45.4288C550.129 24.1042 577.366 9.44157 605.558 -0.471886L603.979 -0.471886C576.221 9.45632 549.459 24.022 528.105 45.0528C482.846 89.6271 441.351 96.3696 394.619 92.3358C438.647 95.0883 478.35 86.859 521.49 44.372C542.386 23.7928 568.482 9.41766 595.62 -0.471885L594.088 -0.471885C567.372 9.42395 541.728 23.7001 521.119 43.996C475.86 88.5703 434.365 95.3128 387.633 91.279C431.662 94.0315 471.364 85.8022 514.505 43.3152C534.667 23.458 559.672 9.37692 585.781 -0.471884L584.299 -0.471884C558.596 9.3758 534.02 23.3544 514.134 42.9392C468.875 87.5129 427.38 94.2566 380.648 90.2221C424.676 92.9742 464.378 84.7451 507.519 42.2583C526.972 23.1001 550.932 9.31976 576.044 -0.471883L574.6 -0.471883C549.884 9.31138 526.334 22.9873 507.148 41.8824C461.889 86.4561 420.394 93.1998 373.662 89.1653C417.69 91.9178 457.393 83.6886 500.533 41.2015C519.297 22.7227 542.253 9.24673 566.391 -0.471883L564.984 -0.471883C541.23 9.23237 518.667 22.6026 500.163 40.8256C454.903 85.3993 413.409 92.143 366.677 88.1085C410.705 90.8602 450.408 82.6315 493.548 40.1447C511.64 22.3267 533.63 9.15983 556.82 -0.471958L555.454 -0.471958C532.636 9.13966 511.019 22.1974 493.177 39.7688C447.918 84.3425 406.423 91.0861 359.691 87.0517C403.72 89.8039 443.422 81.5753 486.562 39.0879C504.002 21.9126 525.064 9.06026 547.33 -0.471957L545.994 -0.471957C524.089 9.03316 503.387 21.777 486.192 38.712C440.932 83.2857 399.438 90.0294 352.705 85.9949C396.734 88.7471 436.436 80.5184 479.577 38.0311C496.379 21.4831 516.546 8.94643 537.91 -0.471956L536.612 -0.471956C515.596 8.91508 495.773 21.3391 479.206 37.6551C433.947 82.2289 392.452 88.9726 345.72 84.9381C389.748 87.6903 429.451 79.4615 472.591 36.9743C488.773 21.0373 508.075 8.8219 528.563 -0.472032L527.29 -0.472032C507.142 8.7849 488.173 20.888 472.221 36.5983C426.961 81.172 385.467 87.9156 338.734 83.8812C382.763 86.6334 422.465 78.4047 465.606 35.9174C481.181 20.5772 499.648 8.68526 519.28 -0.472107L518.039 -0.472107C498.735 8.64452 480.588 20.4216 465.235 35.5415C419.976 80.1152 378.481 86.8588 331.749 82.8244C375.777 85.5766 415.48 77.348 458.62 34.8606C473.604 20.1044 491.261 8.53809 510.058 -0.472107L508.845 -0.472107C490.367 8.49248 473.015 19.9424 458.249 34.4847C412.99 79.0584 371.496 85.8021 324.763 81.7676C368.792 84.5198 408.494 76.2912 451.635 33.8038C466.039 19.6179 482.915 8.38079 500.899 -0.472106L499.707 -0.472106C482.034 8.33057 465.455 19.4516 451.264 33.428C406.005 78.0017 364.51 84.7452 317.778 80.7108C361.806 83.463 401.508 75.2343 444.649 32.747C458.486 19.1195 474.604 8.21338 491.794 -0.472105L490.63 -0.472105C473.742 8.15892 457.908 18.9481 444.278 32.3712C399.019 76.9449 357.524 83.6884 310.792 79.654C354.821 82.4056 394.523 74.177 437.664 31.6902C450.945 18.6102 466.326 8.03672 482.741 -0.472104L481.603 -0.472104C465.481 7.97852 450.372 18.4335 437.293 31.3145C392.033 75.8882 350.539 82.6313 303.807 78.5973C347.835 81.3489 387.537 73.1203 430.678 30.6335C443.415 18.0893 458.086 7.85128 473.746 -0.472104L472.625 -0.472103C457.25 7.7894 442.846 17.9087 430.307 30.2577C385.048 74.8314 343.553 81.5745 296.821 77.5406C340.849 80.2927 380.551 72.0639 423.692 29.5767C435.896 17.5583 449.875 7.65644 464.797 -0.472103L463.695 -0.472103C449.05 7.59147 435.331 17.3736 423.322 29.2009C373.823 77.9499 328.828 81.4527 276.56 75.0913C274.444 74.7662 272.315 74.4444 270.171 74.1268C267.86 73.7704 265.532 73.4177 263.186 73.07C260.875 72.7142 258.546 72.361 256.2 72.0131C253.889 71.6573 251.56 71.3042 249.214 70.9564C246.903 70.6 244.575 70.2473 242.229 69.8995C239.918 69.5432 237.589 69.1905 235.243 68.8428C232.932 68.4864 230.604 68.1338 228.258 67.7859C225.947 67.4296 223.619 67.0769 221.272 66.7291C212.032 65.3055 202.515 63.931 192.681 62.7461C182.426 61.511 172.831 60.2005 163.7 58.9532C103.129 50.6816 62.7647 45.1795 -1.00882e-05 84.1856L-1.00342e-05 84.8109C47.7727 55.0628 82.5384 51.1306 123.097 54.5957C83.5217 52.0688 48.5583 57.8249 -9.61152e-06 89.7047L-9.55676e-06 90.3388C51.4291 56.5103 87.573 52.0212 130.083 55.6525C88.6344 53.0053 52.2453 59.4467 -9.11407e-06 95.4649L-9.05864e-06 96.1067C55.1982 57.9848 92.6599 52.9153 137.068 56.7093C93.7967 53.9457 56.0427 61.0798 -8.59788e-06 101.442L-8.54114e-06 102.099C59.0768 59.4819 97.7977 53.8144 144.054 57.7661C99.008 54.8891 59.9406 62.745 -8.06303e-06 107.635L-8.00596e-06 108.296C63.0627 60.9932 102.985 54.7175 151.04 58.8229C104.268 55.8357 63.94 64.4202 -7.51168e-06 114.02L-7.45408e-06 114.687C67.1515 62.519 108.219 55.6245 158.025 59.8796C109.573 56.7851 68.0356 66.1081 -6.9449e-06 120.583L-6.88665e-06 121.257C71.3374 64.0579 113.501 56.5357 165.011 60.9364C115.543 57.7772 73.2895 67.5524 2.68005 125.114C1.78423 125.845 0.891412 126.562 -6.3669e-06 127.275L-6.30825e-06 127.955C1.00115 127.155 2.00555 126.345 3.01244 125.524C76.7748 65.3913 119.536 57.5115 171.996 61.9932C122.529 58.8341 80.275 68.6092 9.66552 126.171C6.41522 128.821 3.19256 131.361 -5.80373e-06 133.797L-5.74685e-06 134.455C3.30224 131.941 6.63452 129.323 9.99804 126.581C83.7604 66.448 126.522 58.5682 178.982 63.0499C129.514 59.8907 87.2606 69.666 16.651 127.228C11.0129 131.824 5.46111 136.087 -5.26384e-06 140.048L-5.20769e-06 140.698C5.56878 136.668 11.2311 132.327 16.9836 127.637C90.746 67.5048 133.508 59.6249 185.967 64.1066C136.5 60.9475 94.2461 70.7227 23.6368 128.284C15.5765 134.855 7.69189 140.747 5.62887e-05 146.039L5.63445e-05 146.685C7.79724 141.332 15.7946 135.358 23.9693 128.694C97.7316 68.5615 140.493 60.6817 192.953 65.1634C143.485 62.0043 101.232 71.7795 30.6223 129.341C20.1029 137.917 9.88067 145.342 0.000117819 151.774L0.000117873 152.403C9.98547 145.918 20.3193 138.421 30.9548 129.751C104.717 69.6183 147.479 61.7385 199.939 66.2203C150.471 63.0611 108.217 72.8363 37.608 130.398C24.5888 141.011 12.0223 149.872 0.000179328 157.255L0.000179381 157.87C12.1262 150.442 24.8044 141.517 37.9407 130.808C111.703 70.6751 154.464 62.7953 206.924 67.2771C157.457 64.1179 115.203 73.8931 44.5937 131.455C29.0295 144.143 14.1132 154.321 0.000301848 162.469L0.000301901 163.076C14.2155 154.89 29.244 144.649 44.9262 131.864C118.689 71.7319 161.45 63.8521 213.91 68.3339C164.442 65.1747 122.189 74.9499 51.5793 132.511C33.4224 147.313 16.147 158.702 0.000302277 167.43L0.000302328 168.03C16.2476 159.27 33.6368 147.819 51.9117 132.921C125.674 72.7887 168.435 64.9089 220.895 69.3907C171.428 66.2315 129.174 76.0067 58.5648 133.568C37.7627 150.527 18.1147 163.009 0.000302683 172.138L0.000302734 172.723C18.2149 163.569 37.975 151.034 58.8974 133.978C132.66 73.8456 175.421 65.9658 227.881 70.4475C178.414 67.2882 136.16 77.0636 65.5504 134.625C42.0433 153.789 20.0118 167.235 0.000303067 176.584L0.000303117 177.165C20.1103 167.795 42.2562 154.296 65.8829 135.035C139.645 74.9022 182.407 67.0224 234.867 71.5044C185.399 68.345 143.145 78.1202 72.536 135.682C46.2609 157.102 21.828 171.383 0.000364465 180.778L0.000364514 181.349C21.9254 171.938 46.4728 157.61 72.8684 136.092C146.631 75.9591 189.392 68.0793 241.852 72.5612C192.385 69.4019 150.131 79.1771 79.5215 136.739C50.4066 160.474 23.5524 175.444 0.000425839 184.712L0.000425888 185.273C23.6494 175.994 50.6179 160.983 79.8541 137.149C153.616 77.0159 196.378 69.1361 248.838 73.618C199.37 70.4586 157.117 80.2339 86.5073 137.796C54.4712 163.912 25.1741 179.416 0.000426157 188.388L0.000426205 188.942C25.2695 179.962 54.6824 164.421 86.8397 138.205C160.602 78.0727 203.364 70.1928 255.824 74.6747C206.356 71.5154 164.102 81.2906 93.4928 138.852C58.447 167.422 26.6779 183.294 0.000548522 191.805L0.00054857 192.354C26.773 183.837 58.6609 167.929 93.8253 139.262C167.588 79.1299 210.348 71.249 262.809 75.7315C213.342 72.5722 171.088 82.3474 100.478 139.909C62.3201 171.016 28.0466 187.07 0.00060983 194.958L0.000609877 195.5C28.1407 187.609 62.5328 171.524 100.811 140.319C174.573 80.1867 217.334 72.3058 269.795 76.7882C220.327 73.6289 178.073 83.4041 107.464 140.966C66.0748 174.706 29.2575 190.738 0.000671114 197.846L0.000671161 198.382C29.3517 191.272 66.2899 175.212 107.797 141.376C181.559 81.2428 224.32 73.363 276.78 77.8447C227.313 74.6855 185.059 84.4602 114.45 142.022C69.6946 178.507 30.2834 194.287 6.0989e-05 200.466L6.10352e-05 201Z" fill="url(#paint0_linear_135_681)"/>
<defs>
<linearGradient id="paint0_linear_135_681" x1="690" y1="100.264" x2="-8.69962e-06" y2="100.264" gradientUnits="userSpaceOnUse">
<stop stop-color="#45C2B1"/>
<stop offset="1" stop-color="#45C2B1" stop-opacity="0"/>
</linearGradient>
</defs>
</svg>
