<svg width="690" height="201" viewBox="0 0 690 201" fill="none" xmlns="http://www.w3.org/2000/svg">
<path opacity="0.5" fill-rule="evenodd" clip-rule="evenodd" d="M690 201C659.622 194.819 620.088 179.011 575.219 142.433C483.536 67.6917 439.752 73.6707 365.702 83.7826C356.533 85.0348 346.9 86.3504 336.714 87.5777C335.465 87.7281 334.222 87.8817 332.983 88.0378L331.065 88.3238C328.72 88.686 326.392 89.0392 324.079 89.3806C321.735 89.7428 319.406 90.0963 317.093 90.4374C314.749 90.7996 312.42 91.1532 310.108 91.4942C307.764 91.8564 305.435 92.2099 303.122 92.551C300.777 92.9132 298.449 93.2662 296.137 93.6078C293.792 93.9703 291.464 94.323 289.151 94.6646C286.806 95.0272 284.478 95.3798 282.166 95.7214C279.821 96.0834 277.493 96.4372 275.18 96.7782C212.901 106.402 162.228 109.614 105.64 53.8832C78.1774 26.8368 41.7322 10.5055 5.74771 0.99022C3.83006 0.483094 1.91392 -0.00248702 1.73992e-05 -0.471497L2.19184 -0.471496C3.42124 -0.161773 4.65113 0.154404 5.8822 0.47992C41.9445 10.0159 78.4733 26.3875 106.01 53.5075C151.27 98.0812 192.765 104.825 239.497 100.79C195.469 103.542 155.767 95.3138 112.625 52.8265C85.1629 25.7801 48.7177 9.44881 12.7332 -0.0663441C12.2149 -0.203627 11.6971 -0.337569 11.1792 -0.471496L13.2616 -0.471495C49.1958 9.07921 85.5589 25.4297 112.996 52.4507C158.255 97.0244 199.75 103.768 246.482 99.7336C202.454 102.486 162.752 94.2569 119.611 51.7697C92.7643 25.3299 57.3336 9.13088 22.14 -0.471739L24.1229 -0.471739C58.7838 9.21196 93.5311 25.3435 119.982 51.3936C165.241 95.9674 206.736 102.711 253.468 98.6766C209.44 101.429 169.737 93.1999 126.597 50.7126C100.711 25.2197 66.8451 9.24744 32.9068 -0.471738L34.8044 -0.471738C68.2291 9.31409 101.457 25.2128 126.967 50.3369C172.227 94.9101 213.721 101.654 260.454 97.6199C216.425 100.372 176.723 92.1431 133.582 49.6559C108.614 25.0662 76.222 9.3341 43.5006 -0.471737L45.3204 -0.471737C77.5451 9.38863 109.341 25.0408 133.953 49.2801C179.212 93.8538 220.707 100.597 267.439 96.5631C223.411 99.3151 183.709 91.0863 140.568 48.5991C116.478 24.8745 85.4764 9.39501 53.937 -0.471736L55.6881 -0.471736C86.7481 9.43853 117.188 24.8321 140.938 48.2233C186.198 92.797 227.692 99.5401 274.425 95.5063C230.396 98.2583 190.694 90.029 147.553 47.5424C124.307 24.648 94.6237 9.43215 64.2323 -0.471735L65.9191 -0.471735C95.8472 9.46453 125.001 24.5912 147.924 47.1665C193.183 91.7402 234.678 98.4839 281.41 94.4494C237.382 97.2019 197.68 88.9727 154.539 46.4857C132.104 24.39 103.672 9.44691 74.3956 -0.471811L76.0263 -0.47181C104.855 9.47019 132.784 24.3196 154.909 46.1096C200.169 90.6839 241.663 97.427 288.396 93.3926C244.367 96.1451 204.665 87.9153 161.524 45.4288C139.871 24.1042 112.634 9.44157 84.4423 -0.471886L86.0206 -0.471886C113.779 9.45632 140.541 24.022 161.895 45.0528C207.154 89.6271 248.649 96.3696 295.381 92.3358C251.353 95.0883 211.65 86.859 168.51 44.372C147.614 23.7928 121.518 9.41766 94.38 -0.471885L95.9118 -0.471885C122.628 9.42395 148.272 23.7001 168.881 43.996C214.14 88.5703 255.635 95.3128 302.367 91.279C258.338 94.0315 218.636 85.8022 175.495 43.3152C155.333 23.458 130.328 9.37692 104.219 -0.471884L105.701 -0.471884C131.404 9.3758 155.98 23.3544 175.866 42.9392C221.125 87.5129 262.62 94.2566 309.352 90.2221C265.324 92.9742 225.622 84.7451 182.481 42.2583C163.028 23.1001 139.068 9.31976 113.956 -0.471883L115.4 -0.471883C140.116 9.31138 163.666 22.9873 182.852 41.8824C228.111 86.4561 269.606 93.1998 316.338 89.1653C272.31 91.9178 232.607 83.6886 189.467 41.2015C170.703 22.7227 147.747 9.24673 123.609 -0.471883L125.016 -0.471883C148.77 9.23237 171.333 22.6026 189.837 40.8256C235.097 85.3993 276.591 92.143 323.323 88.1085C279.295 90.8602 239.592 82.6315 196.452 40.1447C178.36 22.3267 156.37 9.15983 133.18 -0.471958L134.546 -0.471958C157.364 9.13966 178.981 22.1974 196.823 39.7688C242.082 84.3425 283.577 91.0861 330.309 87.0517C286.28 89.8039 246.578 81.5753 203.438 39.0879C185.998 21.9126 164.936 9.06026 142.67 -0.471957L144.006 -0.471957C165.911 9.03316 186.613 21.777 203.808 38.712C249.068 83.2857 290.562 90.0294 337.295 85.9949C293.266 88.7471 253.564 80.5184 210.423 38.0311C193.621 21.4831 173.454 8.94643 152.09 -0.471956L153.388 -0.471956C174.404 8.91508 194.227 21.3391 210.794 37.6551C256.053 82.2289 297.548 88.9726 344.28 84.9381C300.252 87.6903 260.549 79.4615 217.409 36.9743C201.227 21.0373 181.925 8.8219 161.437 -0.472032L162.71 -0.472032C182.858 8.7849 201.827 20.888 217.779 36.5983C263.039 81.172 304.533 87.9156 351.266 83.8812C307.237 86.6334 267.535 78.4047 224.394 35.9174C208.819 20.5772 190.352 8.68526 170.72 -0.472107L171.961 -0.472107C191.265 8.64452 209.412 20.4216 224.765 35.5415C270.024 80.1152 311.519 86.8588 358.251 82.8244C314.223 85.5766 274.52 77.348 231.38 34.8606C216.396 20.1044 198.739 8.53809 179.942 -0.472107L181.155 -0.472107C199.633 8.49248 216.985 19.9424 231.751 34.4847C277.01 79.0584 318.504 85.8021 365.237 81.7676C321.208 84.5198 281.506 76.2912 238.365 33.8038C223.961 19.6179 207.085 8.38079 189.101 -0.472106L190.293 -0.472106C207.966 8.33057 224.545 19.4516 238.736 33.428C283.995 78.0017 325.49 84.7452 372.222 80.7108C328.194 83.463 288.492 75.2343 245.351 32.747C231.514 19.1195 215.396 8.21338 198.206 -0.472105L199.37 -0.472105C216.258 8.15892 232.092 18.9481 245.722 32.3712C290.981 76.9449 332.476 83.6884 379.208 79.654C335.179 82.4056 295.477 74.177 252.336 31.6902C239.055 18.6102 223.674 8.03672 207.259 -0.472104L208.397 -0.472104C224.519 7.97852 239.628 18.4335 252.707 31.3145C297.967 75.8882 339.461 82.6313 386.193 78.5973C342.165 81.3489 302.463 73.1203 259.322 30.6335C246.585 18.0893 231.914 7.85128 216.254 -0.472104L217.375 -0.472103C232.75 7.7894 247.154 17.9087 259.693 30.2577C304.952 74.8314 346.447 81.5745 393.179 77.5406C349.151 80.2927 309.449 72.0639 266.308 29.5767C254.104 17.5583 240.125 7.65644 225.203 -0.472103L226.305 -0.472103C240.95 7.59147 254.669 17.3736 266.678 29.2009C316.177 77.9499 361.172 81.4527 413.44 75.0913C415.556 74.7662 417.685 74.4444 419.829 74.1268C422.14 73.7704 424.468 73.4177 426.814 73.07C429.125 72.7142 431.454 72.361 433.8 72.0131C436.111 71.6573 438.44 71.3042 440.786 70.9564C443.097 70.6 445.425 70.2473 447.771 69.8995C450.082 69.5432 452.411 69.1905 454.757 68.8428C457.068 68.4864 459.396 68.1338 461.742 67.7859C464.053 67.4296 466.381 67.0769 468.728 66.7291C477.968 65.3055 487.485 63.931 497.319 62.7461C507.574 61.511 517.169 60.2005 526.3 58.9532C586.871 50.6816 627.235 45.1795 690 84.1856L690 84.8109C642.227 55.0628 607.462 51.1306 566.903 54.5957C606.478 52.0688 641.442 57.8249 690 89.7047L690 90.3388C638.571 56.5103 602.427 52.0212 559.917 55.6525C601.366 53.0053 637.755 59.4467 690 95.4649L690 96.1067C634.802 57.9848 597.34 52.9153 552.932 56.7093C596.203 53.9457 633.957 61.0798 690 101.442L690 102.099C630.923 59.4819 592.202 53.8144 545.946 57.7661C590.992 54.8891 630.059 62.745 690 107.635L690 108.296C626.937 60.9932 587.015 54.7175 538.96 58.8229C585.732 55.8357 626.06 64.4202 690 114.02L690 114.687C622.848 62.519 581.781 55.6245 531.975 59.8796C580.427 56.7851 621.964 66.1081 690 120.583L690 121.257C618.663 64.0579 576.499 56.5357 524.989 60.9364C574.457 57.7772 616.71 67.5524 687.32 125.114C688.216 125.845 689.109 126.562 690 127.275L690 127.955C688.999 127.155 687.994 126.345 686.988 125.524C613.225 65.3913 570.464 57.5115 518.004 61.9932C567.471 58.8341 609.725 68.6092 680.334 126.171C683.585 128.821 686.807 131.361 690 133.797L690 134.455C686.698 131.941 683.365 129.323 680.002 126.581C606.24 66.448 563.478 58.5682 511.018 63.0499C560.486 59.8907 602.739 69.666 673.349 127.228C678.987 131.824 684.539 136.087 690 140.048L690 140.698C684.431 136.668 678.769 132.327 673.016 127.637C599.254 67.5048 556.492 59.6249 504.033 64.1066C553.5 60.9475 595.754 70.7227 666.363 128.284C674.424 134.855 682.308 140.747 690 146.039L690 146.685C682.203 141.332 674.205 135.358 666.031 128.694C592.268 68.5615 549.507 60.6817 497.047 65.1634C546.515 62.0043 588.768 71.7795 659.378 129.341C669.897 137.917 680.119 145.342 690 151.774L690 152.403C680.015 145.918 669.681 138.421 659.045 129.751C585.283 69.6183 542.521 61.7385 490.061 66.2203C539.529 63.0611 581.783 72.8363 652.392 130.398C665.411 141.011 677.978 149.872 690 157.255L690 157.87C677.874 150.442 665.196 141.517 652.059 130.808C578.297 70.6751 535.536 62.7953 483.076 67.2771C532.543 64.1179 574.797 73.8931 645.406 131.455C660.97 144.143 675.887 154.321 690 162.469L690 163.076C675.785 154.89 660.756 144.649 645.074 131.864C571.311 71.7319 528.55 63.8521 476.09 68.3339C525.558 65.1747 567.811 74.9499 638.421 132.511C656.578 147.313 673.853 158.702 690 167.43L690 168.03C673.752 159.27 656.363 147.819 638.088 132.921C564.326 72.7887 521.565 64.9089 469.105 69.3907C518.572 66.2315 560.826 76.0067 631.435 133.568C652.237 150.527 671.885 163.009 690 172.138L690 172.723C671.785 163.569 652.025 151.034 631.103 133.978C557.34 73.8456 514.579 65.9658 462.119 70.4475C511.586 67.2882 553.84 77.0636 624.45 134.625C647.957 153.789 669.988 167.235 690 176.584L690 177.165C669.89 167.795 647.744 154.296 624.117 135.035C550.355 74.9022 507.593 67.0224 455.133 71.5044C504.601 68.345 546.855 78.1202 617.464 135.682C643.739 157.102 668.172 171.383 690 180.778L690 181.349C668.075 171.938 643.527 157.61 617.132 136.092C543.369 75.9591 500.608 68.0793 448.148 72.5612C497.615 69.4019 539.869 79.1771 610.478 136.739C639.593 160.474 666.448 175.444 690 184.712L690 185.273C666.351 175.994 639.382 160.983 610.146 137.149C536.384 77.0159 493.622 69.1361 441.162 73.618C490.63 70.4586 532.883 80.2339 603.493 137.796C635.529 163.912 664.826 179.416 690 188.388L690 188.942C664.731 179.962 635.318 164.421 603.16 138.205C529.398 78.0727 486.636 70.1928 434.176 74.6747C483.644 71.5154 525.898 81.2906 596.507 138.852C631.553 167.422 663.322 183.294 689.999 191.805L689.999 192.354C663.227 183.837 631.339 167.929 596.175 139.262C522.412 79.1299 479.652 71.249 427.191 75.7315C476.658 72.5722 518.912 82.3474 589.522 139.909C627.68 171.016 661.953 187.07 689.999 194.958L689.999 195.5C661.859 187.609 627.467 171.524 589.189 140.319C515.427 80.1867 472.666 72.3058 420.205 76.7882C469.673 73.6289 511.927 83.4041 582.536 140.966C623.925 174.706 660.742 190.738 689.999 197.846L689.999 198.382C660.648 191.272 623.71 175.212 582.203 141.376C508.441 81.2428 465.68 73.363 413.22 77.8447C462.687 74.6855 504.941 84.4602 575.55 142.022C620.305 178.507 659.717 194.287 690 200.466L690 201Z" fill="url(#paint0_linear_135_683)"/>
<defs>
<linearGradient id="paint0_linear_135_683" x1="8.69962e-06" y1="100.264" x2="690" y2="100.264" gradientUnits="userSpaceOnUse">
<stop stop-color="#45C2B1"/>
<stop offset="1" stop-color="#45C2B1" stop-opacity="0"/>
</linearGradient>
</defs>
</svg>
