<svg width="64" height="64" viewBox="0 0 64 64" fill="none" xmlns="http://www.w3.org/2000/svg">
<path d="M25.5798 36.04L22.5798 37.33C21.5698 37.76 20.4298 37.76 19.4298 37.33L16.4298 36.04C14.9598 35.41 14.0098 33.96 14.0098 32.36V27C14.0098 23.69 16.6998 21 20.0098 21H22.0098C25.3198 21 28.0098 23.69 28.0098 27V32.36C28.0098 33.96 27.0598 35.41 25.5898 36.04H25.5798Z" fill="#FFD29F"/>
<path d="M34.14 42C32.32 40.15 29.79 39 27 39H24C24 40.66 22.66 42 21 42C19.34 42 18 40.66 18 39H15C9.48 39 5 43.48 5 49V56H27L31 42H34.14Z" fill="#45C2B1"/>
<path d="M16 52H18C19.1 52 20 52.9 20 54V56H16V52Z" fill="#FFD29F"/>
<path d="M11 28.73C10.71 28.9 10.36 29 10 29C8.9 29 8 28.1 8 27C8 25.9 8.9 25 10 25C10.42 25 10.81 25.13 11.14 25.36" fill="#45C2B1"/>
<path d="M30.9994 28.73C31.2894 28.9 31.6394 29 31.9994 29C33.0994 29 33.9994 28.1 33.9994 27C33.9994 25.9 33.0994 25 31.9994 25C31.5794 25 31.1894 25.13 30.8594 25.36" fill="#45C2B1"/>
<path d="M18 36.71L19.42 37.32C20.43 37.76 21.57 37.76 22.58 37.32L24 36.71V39C24 40.66 22.66 42 21 42C19.34 42 18 40.66 18 39V36.71Z" fill="#FFD29F"/>
<path d="M27 56L31 42H53L49 56" fill="#1A428A"/>
<path d="M27.39 24.38C26.82 24.15 26.16 24 25.33 24C21 24 21 28 16.66 28C15.53 28 14.69 27.73 14 27.33V27C14 23.69 16.69 21 20 21H22C24.37 21 26.42 22.38 27.39 24.38Z" fill="#45C2B1"/>
<path d="M28 31.6V27C28 23.69 25.31 21 22 21H20C16.69 21 14 23.69 14 27V31H12C11.45 31 11 30.55 11 30V27C11 21.48 15.48 17 21 17C23.76 17 26.26 18.12 28.07 19.93C29.88 21.74 31 24.24 31 27V30.18C31 30.66 30.66 31.07 30.2 31.16L28 31.6Z" fill="#E7ECEF"/>
<path d="M40 48C40.55 48 41 48.45 41 49C41 49.55 40.55 50 40 50V48Z" fill="#3D756E"/>
<path d="M21 32.9997C20.89 32.4597 21.24 31.9297 21.78 31.8197L30 30.1797V27.3197C30 22.5297 26.39 18.3397 21.62 18.0197C16.38 17.6697 12 21.8297 12 26.9997V29.9997H14V31.9997H12C10.9 31.9997 10 31.0997 10 29.9997V27.3197C10 21.5997 14.24 16.5797 19.94 16.0497C26.48 15.4297 32 20.5797 32 26.9997V30.1797C32 31.1297 31.33 31.9497 30.39 32.1397L22.17 33.7797C21.63 33.8897 21.1 33.5397 20.99 32.9997H21Z" fill="#74D4C7"/>
<path d="M21 55.9995H19V53.9995C19 53.4495 18.55 52.9995 18 52.9995H11C10.45 52.9995 10 52.5495 10 51.9995V47.9995C10 47.7295 10.11 47.4795 10.29 47.2895L11.58 45.9995C11.97 45.6095 12.6 45.6095 12.99 45.9995C13.38 46.3895 13.38 47.0195 12.99 47.4095L11.99 48.4095V50.9995H17.99C19.65 50.9995 20.99 52.3395 20.99 53.9995V55.9995H21Z" fill="#74D4C7"/>
<path d="M53 56H3V58H53V56Z" fill="#3D756E"/>
<path d="M41 19.71L35 24L36 19H34C33.45 19 33 18.55 33 18V7C33 6.45 33.45 6 34 6H48C48.55 6 49 6.45 49 7V13H42C41.45 13 41 13.45 41 14V19.71Z" fill="#74D4C7"/>
<path d="M61 14V28C61 28.55 60.55 29 60 29H57L58 35L51 29H42C41.45 29 41 28.55 41 28V14C41 13.45 41.45 13 42 13H60C60.55 13 61 13.45 61 14Z" fill="#45C2B1"/>
</svg>
