<svg width="64" height="64" viewBox="0 0 64 64" fill="none" xmlns="http://www.w3.org/2000/svg">
<path d="M61.0125 63.9999H2.49805C5.0015 62.0495 7.39578 60.1792 9.7937 58.3216C14.6684 54.5325 19.5407 50.7397 24.4105 46.9433C24.7073 46.6915 25.0856 46.5564 25.4748 46.5631C29.6885 46.574 33.9027 46.574 38.1176 46.5631C38.4765 46.5384 38.8322 46.6451 39.1183 46.8633C46.3727 52.5275 53.6325 58.1821 60.8979 63.827C60.9361 63.8543 60.9525 63.9071 61.0125 63.9999Z" fill="#48BEA0"/>
<path d="M21.2538 44.6603L0 61.1929V28.1313L21.2538 44.6603Z" fill="#48BEA0"/>
<path d="M63.6248 61.1929L42.3691 44.6603L63.6248 28.1313V61.1929Z" fill="#48BEA0"/>
<path d="M55.6523 29.5832V19.4912C57.69 21.2014 59.6222 22.8297 61.5653 24.449C61.8309 24.6709 61.7927 24.7983 61.538 24.9948C59.6095 26.494 57.6882 27.9967 55.6523 29.5832Z" fill="#48BEA0"/>
<path d="M7.97236 19.4912V29.5596C6.96079 28.7809 6.02018 28.0586 5.08138 27.3327C4.10256 26.574 3.12556 25.8153 2.15584 25.0457C2.00483 24.9238 1.6446 24.8147 2.00119 24.5163L7.97236 19.4912Z" fill="#48BEA0"/>
<path d="M25.7354 4.54677L30.2965 0.695174C31.3881 -0.21451 32.2159 -0.236341 33.2803 0.658787C34.7794 1.91779 36.2749 3.18406 37.8905 4.54677H25.7354Z" fill="#48BEA0"/>
<path d="M31.8311 8.37305H49.4785C51.1542 8.37305 51.8242 9.05364 51.8242 10.7529C51.8242 17.7537 51.8284 24.7556 51.8369 31.7588C51.8574 32.008 51.8119 32.2584 51.7051 32.4844C51.5981 32.7104 51.4332 32.9046 51.2275 33.0469C47.271 36.0913 43.3288 39.1558 39.4014 42.2402C38.9921 42.5911 38.4687 42.7801 37.9297 42.7715C33.8361 42.7484 29.7435 42.7484 25.6523 42.7715C25.1728 42.7878 24.7037 42.6296 24.332 42.3262C20.3549 39.2078 16.3656 36.1044 12.3643 33.0176C12.1706 32.8842 12.0153 32.7025 11.9141 32.4902C11.8128 32.2779 11.7688 32.0421 11.7871 31.8076C11.8029 24.7729 11.8063 17.7379 11.7979 10.7031C11.7979 9.08044 12.4989 8.37096 14.1035 8.36914L31.8311 8.37305ZM45.0488 22.6299C43.1876 15.86 36.2576 11.6514 29.3604 13.0195C24.2044 14.042 20.6309 17.1184 18.917 22.0596C17.1741 27.0828 18.1674 31.7482 21.6914 35.7344C24.2694 38.6508 27.6032 40.1641 31.5312 40.2441C31.7734 40.2541 32.015 40.216 32.2422 40.1318C32.4696 40.0475 32.6782 39.9185 32.8555 39.7529C33.0326 39.5875 33.1758 39.389 33.2754 39.168C33.375 38.9468 33.429 38.7073 33.4355 38.4648C33.4717 37.4735 32.7093 36.6645 31.6396 36.5645C31.2486 36.5281 30.8591 36.4698 30.4717 36.4043C26.2582 35.6819 23.4332 33.2653 22.2852 29.1719C21.1899 25.2639 22.2453 21.8021 25.249 19.0439C28.3983 16.153 33.5901 15.6834 36.9814 18.0029C35.4625 17.6864 34.9365 17.8537 34.2598 18.998C33.9924 19.4545 33.8105 19.2034 33.5576 19.1143C32.2587 18.6315 30.8384 18.5839 29.5098 18.9775C28.181 19.3712 27.0157 20.1853 26.1895 21.2979C24.4538 23.583 24.1187 26.1394 24.8174 28.8594C25.9947 33.4348 30.7504 35.9725 34.5928 33.2637C34.8566 33.0763 34.9877 33.0892 35.1787 33.333C37.2855 36.0001 41.2534 35.0919 42.9727 32.9688C45.4451 29.9069 46.0748 26.3467 45.0488 22.6299Z" fill="#263C90"/>
<path d="M34.0407 26.3698C34.0571 27.6525 33.7423 28.8278 32.8636 29.7902C31.9212 30.8236 30.704 30.8728 29.6615 29.9631C27.8985 28.4203 27.7475 24.9671 29.3922 23.3133C30.12 22.5855 30.9933 22.2217 32.023 22.5674C33.3148 22.9985 33.7096 24.112 33.977 25.2855C34.0286 25.6445 34.0499 26.0072 34.0407 26.3698Z" fill="#263C90"/>
<path d="M38.0718 18.7106C41.8015 21.5889 42.6202 25.8862 40.6989 29.8343C40.5033 30.2129 40.2162 30.5369 39.8639 30.7767C39.3708 31.1278 38.805 31.3225 38.2519 31.0623C37.7516 30.8258 37.7934 30.2709 37.7934 29.7797C37.7934 26.2392 37.7934 22.6993 37.7934 19.16C37.6988 18.8944 37.6843 18.6761 38.0718 18.7106Z" fill="#263C90"/>
<path d="M38.0719 18.7104C37.9872 18.751 37.9158 18.8147 37.8659 18.8943C37.8159 18.9738 37.7896 19.0659 37.7899 19.1598C37.5788 18.8468 37.426 18.4884 37.0439 18.2501C37.5879 18.0918 37.7972 18.4684 38.0719 18.7104Z" fill="#151515"/>
</svg>
