<svg width="102" height="102" viewBox="0 0 102 102" fill="none" xmlns="http://www.w3.org/2000/svg">
<g clip-path="url(#clip0_59_1616)">
<path d="M83.3421 0H18.6592C15.8397 0 13.6836 2.1561 13.6836 4.97561V71.3171L45.6934 102H83.3421C86.1616 102 88.3177 99.8439 88.3177 97.0244V4.97561C88.3177 2.1561 86.1616 0 83.3421 0Z" fill="#4FDBC8"/>
<path d="M83.3421 0H18.6592C15.8397 0 13.6836 2.1561 13.6836 4.97561V71.3171L45.6934 102H83.3421C86.1616 102 88.3177 99.8439 88.3177 97.0244V4.97561C88.3177 2.1561 86.1616 0 83.3421 0Z" fill="#4FDBC8"/>
<path d="M88.3177 79.4439V4.97561C88.3177 2.1561 86.1616 0 83.3421 0H18.6592C15.8397 0 13.6836 2.1561 13.6836 4.97561" fill="#45C2B1"/>
<path d="M88.3166 79.4439V4.97561C88.3166 2.1561 86.1605 0 83.341 0H42.541" fill="#45C2B1"/>
<path d="M41.5469 72.3123V97.1903C41.5469 97.522 41.5469 97.8537 41.7127 98.1854L45.5274 101.834C45.8591 101.834 46.0249 102 46.3566 102H72.3957L41.5469 72.3123Z" fill="#45C2B1"/>
<path d="M41.5469 72.3123V97.1903C41.5469 97.522 41.5469 97.8537 41.7127 98.1854L45.5274 101.834C45.8591 101.834 46.0249 102 46.3566 102H59.6249L44.6981 77.122L41.5469 72.3123Z" fill="#45C2B1"/>
<path d="M45.6933 101.834V76.1269C45.6933 73.3073 43.5373 71.1512 40.7177 71.1512H13.6836L45.6933 101.834Z" fill="white"/>
<path d="M13.6836 71.3171L45.6933 101.834V76.2927" fill="#C9FBF3"/>
<path d="M16.0057 71.3171V4.97561C16.0057 2.1561 18.1618 0 20.9813 0H18.8252C16.0057 0 13.8496 2.1561 13.8496 4.97561V71.3171H16.0057Z" fill="#BEFDF2"/>
<path d="M35.5742 34.4976H41.0474C44.3645 34.4976 47.184 31.8439 47.184 28.361V23.0537C47.184 19.7366 44.5303 16.9171 41.0474 16.9171H35.7401C32.423 16.9171 29.6035 19.5708 29.6035 23.0537V28.361C29.6035 31.6781 32.2572 34.4976 35.5742 34.4976Z" fill="#45C2B1"/>
<path d="M56.9706 21.7269H77.2048C78.5316 21.7269 79.5267 20.7318 79.5267 19.405C79.5267 18.0781 78.5316 17.083 77.2048 17.083H56.9706C55.6438 17.083 54.6487 18.0781 54.6487 19.405C54.4828 20.5659 55.6438 21.7269 56.9706 21.7269Z" fill="#45C2B1"/>
<path d="M77.0387 29.6879H56.9704C55.6436 29.6879 54.6484 30.683 54.6484 32.0098C54.6484 33.3366 55.6436 34.3318 56.9704 34.3318H77.2045C78.5314 34.3318 79.5265 33.3366 79.5265 32.0098C79.5265 30.683 78.3655 29.6879 77.0387 29.6879Z" fill="#45C2B1"/>
<path d="M77.0382 42.4586H30.4333C29.1064 42.4586 28.1113 43.4537 28.1113 44.7806C28.1113 46.1074 29.1064 47.1025 30.4333 47.1025H77.204C78.5308 47.1025 79.526 46.1074 79.526 44.7806C79.526 43.4537 78.365 42.4586 77.0382 42.4586Z" fill="#45C2B1"/>
<path d="M77.0382 55.2292H30.4333C29.1064 55.2292 28.1113 56.2244 28.1113 57.5512C28.1113 58.878 29.1064 59.8731 30.4333 59.8731H77.204C78.5308 59.8731 79.526 58.878 79.526 57.5512C79.526 56.2244 78.365 55.2292 77.0382 55.2292Z" fill="#45C2B1"/>
<path d="M77.0387 67.8342H56.9704C55.6436 67.8342 54.6484 68.8293 54.6484 70.1562C54.6484 71.483 55.6436 72.4781 56.9704 72.4781H77.2045C78.5314 72.4781 79.5265 71.483 79.5265 70.1562C79.5265 68.8293 78.3655 67.8342 77.0387 67.8342Z" fill="#45C2B1"/>
<path d="M34.0819 32.0098H39.3892C42.7063 32.0098 45.5258 29.3562 45.5258 25.8732V20.5659C45.5258 17.2488 42.8721 14.4293 39.3892 14.4293H34.0819C30.7648 14.4293 27.9453 17.083 27.9453 20.5659V26.0391C27.9453 29.3562 30.7648 32.0098 34.0819 32.0098Z" fill="white"/>
<path d="M55.3122 19.2391H75.5463C76.8732 19.2391 77.8683 18.244 77.8683 16.9172C77.8683 15.5903 76.8732 14.5952 75.5463 14.5952H55.3122C53.9854 14.5952 52.9902 15.5903 52.9902 16.9172C52.9902 18.244 53.9854 19.2391 55.3122 19.2391Z" fill="white"/>
<path d="M75.5463 27.2001H55.3122C53.9854 27.2001 52.9902 28.1952 52.9902 29.522C52.9902 30.8489 53.9854 31.844 55.3122 31.844H75.5463C76.8732 31.844 77.8683 30.8489 77.8683 29.522C77.8683 28.1952 76.8732 27.2001 75.5463 27.2001Z" fill="white"/>
<path d="M75.5458 39.9708H28.7751C27.4482 39.9708 26.4531 40.9659 26.4531 42.2928C26.4531 43.6196 27.4482 44.6147 28.7751 44.6147H75.5458C76.8726 44.6147 77.8678 43.6196 77.8678 42.2928C77.8678 40.9659 76.8726 39.9708 75.5458 39.9708Z" fill="white"/>
<path d="M75.5458 52.7415H28.7751C27.4482 52.7415 26.4531 53.7366 26.4531 55.0634C26.4531 56.3902 27.4482 57.3854 28.7751 57.3854H75.5458C76.8726 57.3854 77.8678 56.3902 77.8678 55.0634C77.8678 53.9024 76.8726 52.7415 75.5458 52.7415Z" fill="white"/>
<path d="M75.5463 65.5122H55.3122C53.9854 65.5122 52.9902 66.5073 52.9902 67.8342C52.9902 69.161 53.9854 70.1561 55.3122 70.1561H75.5463C76.8732 70.1561 77.8683 69.161 77.8683 67.8342C77.8683 66.6732 76.8732 65.5122 75.5463 65.5122Z" fill="white"/>
</g>
<defs>
<clipPath id="clip0_59_1616">
<rect width="102" height="102" fill="white"/>
</clipPath>
</defs>
</svg>
