<svg width="1280" height="1156" viewBox="0 0 1280 1156" fill="none" xmlns="http://www.w3.org/2000/svg">
<path fill-rule="evenodd" clip-rule="evenodd" d="M589.645 320C620.023 310.183 659.557 285.075 704.426 226.977C796.109 108.265 839.893 117.762 913.943 133.823C923.112 135.811 932.744 137.901 942.931 139.85C944.18 140.089 945.423 140.333 946.661 140.581L948.58 141.035C950.924 141.611 953.253 142.172 955.566 142.714C957.91 143.289 960.238 143.851 962.551 144.392C964.896 144.968 967.224 145.529 969.537 146.071C971.881 146.646 974.21 147.208 976.522 147.749C978.867 148.325 981.195 148.885 983.508 149.428C985.853 150.004 988.181 150.564 990.493 151.107C992.838 151.682 995.166 152.242 997.479 152.785C999.824 153.36 1002.15 153.922 1004.46 154.464C1066.74 169.749 1117.42 174.851 1174 86.3331C1201.47 43.3751 1237.91 17.4359 1273.9 2.32265C1275.81 1.51719 1277.73 0.745927 1279.64 0.000995669H1277.45C1276.22 0.492932 1274.99 0.995135 1273.76 1.51214C1237.7 16.6582 1201.17 42.6614 1173.63 85.7363C1128.37 156.533 1086.88 167.244 1040.15 160.836C1084.18 165.207 1123.88 152.138 1167.02 84.6546C1194.48 41.6966 1230.93 15.7575 1266.91 0.644505C1267.43 0.426458 1267.95 0.213725 1268.47 0.000995669H1266.38C1230.45 15.1705 1194.09 41.1401 1166.65 84.0577C1121.39 154.855 1079.89 165.566 1033.16 159.158C1077.19 163.529 1116.89 150.459 1160.03 82.9761C1186.88 40.9816 1222.31 15.2525 1257.5 0.000624699H1255.52C1220.86 15.3813 1186.11 41.0033 1159.66 82.3788C1114.4 153.176 1072.91 163.887 1026.18 157.479C1070.2 161.85 1109.91 148.78 1153.05 81.2972C1178.93 40.8066 1212.8 15.4377 1246.74 0.000624699H1244.84C1211.42 15.5435 1178.19 40.7956 1152.68 80.7004C1107.42 151.496 1065.92 162.208 1019.19 155.8C1063.22 160.172 1102.92 147.102 1146.06 79.6188C1171.03 40.5627 1203.42 15.5753 1236.14 0.000624699H1234.32C1202.1 15.6619 1170.3 40.5223 1145.69 79.0219C1100.43 149.819 1058.94 160.529 1012.21 154.122C1056.23 158.493 1095.94 145.423 1139.08 77.9403C1163.17 40.2583 1194.17 15.672 1225.71 0.000624699H1223.96C1192.9 15.7412 1162.46 40.191 1138.71 77.3433C1093.45 148.14 1051.95 158.85 1005.22 152.443C1049.25 156.814 1088.95 143.744 1132.09 76.262C1155.34 39.8984 1185.02 15.7311 1215.41 0.000624699H1213.73C1183.8 15.7825 1154.64 39.8083 1131.72 75.6648C1086.46 146.462 1044.97 157.173 998.234 150.765C1042.26 155.137 1081.97 142.066 1125.11 74.5834C1147.54 39.4887 1175.97 15.7545 1205.25 0.000501043H1203.62C1174.79 15.7915 1146.86 39.3769 1124.74 73.9861C1079.48 144.784 1037.98 155.494 991.249 149.086C1035.28 153.458 1074.98 140.386 1118.12 72.9048C1139.77 39.0347 1167.01 15.746 1195.2 0.000377386H1193.62C1165.87 15.7694 1139.1 38.9042 1117.75 72.3076C1072.49 143.105 1031 153.815 984.263 147.408C1028.29 151.779 1067.99 138.709 1111.13 71.2263C1132.03 38.5402 1158.13 15.708 1185.26 0.000377386H1183.73C1157.02 15.718 1131.37 38.393 1110.76 70.6291C1065.5 141.427 1024.01 152.136 977.278 145.729C1021.31 150.101 1061.01 137.03 1104.15 69.5477C1124.31 38.0085 1149.32 15.6433 1175.43 0.000377386H1173.94C1148.24 15.6415 1123.66 37.8438 1103.78 68.9505C1058.52 139.747 1017.02 150.458 970.292 144.05C1014.32 148.422 1054.02 135.351 1097.16 67.8692C1116.62 37.44 1140.58 15.5525 1165.69 0.000377386H1164.24C1139.53 15.5392 1115.98 37.2609 1096.79 67.272C1051.53 138.069 1010.04 148.78 963.307 142.372C1007.34 146.744 1047.04 133.673 1090.18 66.1906C1108.94 36.8405 1131.9 15.4365 1156.04 0.000377386H1154.63C1130.87 15.4137 1108.31 36.6498 1089.81 65.5935C1044.55 136.39 1003.05 147.101 956.321 140.693C1000.35 145.064 1040.05 131.994 1083.19 64.5121C1101.28 36.2115 1123.28 15.2985 1146.46 0.000253729H1145.1C1122.28 15.2665 1100.66 36.0063 1082.82 63.9149C1037.56 134.712 996.068 145.423 949.335 139.015C993.364 143.386 1033.07 130.317 1076.21 62.8336C1093.65 35.5539 1114.71 15.1404 1136.97 0.000253729H1135.64C1113.73 15.0973 1093.03 35.3385 1075.84 62.2364C1030.58 133.033 989.082 143.744 942.35 137.336C986.378 141.708 1026.08 128.638 1069.22 61.155C1086.02 34.8717 1106.19 14.9595 1127.56 0.000253729H1126.26C1105.24 14.9098 1085.42 34.643 1068.85 60.5578C1023.59 131.355 982.097 142.066 935.364 135.658C979.393 140.029 1019.1 126.959 1062.24 59.4765C1078.42 34.1636 1097.72 14.7618 1118.21 0.000130073H1116.93C1096.79 14.703 1077.82 33.9265 1061.87 58.8792C1016.61 129.676 975.111 140.387 928.379 133.979C972.407 138.35 1012.11 125.281 1055.25 57.7978C1070.83 33.4328 1089.29 14.5447 1108.92 6.41582e-06H1107.68C1088.38 14.48 1070.23 33.1856 1054.88 57.2007C1009.62 127.998 968.126 138.708 921.393 132.301C965.422 136.672 1005.12 123.602 1048.26 56.1193C1063.25 32.6819 1080.91 14.311 1099.7 6.41582e-06H1098.49C1080.01 14.2385 1062.66 32.4245 1047.89 55.5222C1002.63 126.319 961.14 137.03 914.408 130.622C958.436 134.993 998.139 121.924 1041.28 54.4408C1055.68 31.9091 1072.56 14.0611 1090.54 6.41582e-06H1089.35C1071.68 13.9814 1055.1 31.6451 1040.91 53.8438C995.649 124.641 954.154 135.351 907.422 128.944C951.451 133.315 991.153 120.245 1034.29 52.7622C1048.13 31.1175 1064.25 13.7952 1081.44 6.41582e-06H1080.27C1063.39 13.7088 1047.55 30.8453 1033.92 52.1653C988.664 122.962 947.169 133.673 900.437 127.265C944.465 131.635 984.167 118.566 1027.31 51.0837C1040.59 30.3086 1055.97 13.5146 1072.39 6.41582e-06H1071.25C1055.13 13.4222 1040.02 30.028 1026.94 50.4869C981.678 121.284 940.183 131.994 893.451 125.587C937.48 129.957 977.182 116.887 1020.32 49.4053C1033.06 29.4813 1047.73 13.2201 1063.39 6.41582e-06H1062.27C1046.89 13.1218 1032.49 29.1944 1019.95 48.8084C974.692 119.605 933.197 130.315 886.466 123.908C930.493 128.279 970.196 115.21 1013.34 47.7267C1025.54 28.6378 1039.52 12.9106 1054.44 6.41582e-06H1053.34C1038.69 12.8074 1024.98 28.3445 1012.97 47.1298C963.468 124.558 918.472 130.122 866.204 120.018C864.089 119.502 861.96 118.991 859.816 118.486C857.505 117.92 855.176 117.36 852.83 116.808C850.519 116.242 848.19 115.681 845.845 115.129C843.534 114.564 841.205 114.003 838.859 113.45C836.548 112.884 834.219 112.324 831.873 111.772C829.562 111.206 827.234 110.646 824.888 110.093C822.577 109.527 820.248 108.967 817.902 108.415C815.591 107.849 813.263 107.289 810.917 106.736C801.676 104.475 792.159 102.292 782.325 100.41C772.07 98.4482 762.476 96.3668 753.345 94.3857C692.773 81.2478 652.409 72.5088 589.645 134.462V135.456C637.417 88.2066 672.183 81.961 712.742 87.4647C673.166 83.4512 638.203 92.5936 589.645 143.229V144.236C641.074 90.5057 677.218 83.3755 719.727 89.1432C678.279 84.9386 641.89 95.1695 589.645 152.378V153.397C644.843 92.8475 682.304 84.7956 726.713 90.8216C683.441 86.4322 645.687 97.7634 589.645 161.871V162.915C648.721 95.2255 687.442 86.2236 733.699 92.5002C688.653 87.9307 649.585 100.408 589.645 171.708V172.758C652.707 97.6258 692.629 87.658 740.684 94.1787C693.912 89.4342 653.585 103.069 589.645 181.848V182.907C656.796 100.049 697.864 89.0986 747.67 95.8571C699.217 90.942 657.68 105.75 589.645 192.272V193.343C660.982 102.494 703.145 90.546 754.655 97.5356C705.188 92.5179 662.934 108.044 592.325 199.47C591.429 200.63 590.536 201.769 589.645 202.902V203.981C590.646 202.711 591.65 201.424 592.657 200.121C666.419 104.611 709.181 92.0958 761.641 99.2142C712.173 94.1965 669.92 109.722 599.31 201.148C596.06 205.357 592.837 209.392 589.645 213.26V214.306C592.947 210.313 596.279 206.154 599.643 201.799C673.405 106.29 716.166 93.7743 768.626 100.893C719.159 95.8748 676.905 111.401 606.296 202.827C600.657 210.127 595.106 216.898 589.645 223.19V224.222C595.213 217.821 600.876 210.926 606.628 203.477C680.391 107.968 723.152 95.4526 775.612 102.571C726.144 97.5532 683.891 113.079 613.281 204.505C605.221 214.942 597.336 224.299 589.645 232.705V233.732C597.442 225.229 605.439 215.74 613.614 205.156C687.376 109.647 730.138 97.1311 782.598 104.25C733.13 99.2318 690.876 114.758 620.267 206.183C609.747 219.805 599.525 231.598 589.645 241.814V242.813C599.63 232.513 609.964 220.605 620.599 206.834C694.362 111.325 737.123 98.8096 789.583 105.928C740.116 100.91 697.862 116.436 627.253 207.862C614.233 224.719 601.667 238.792 589.645 250.519V251.497C601.771 239.699 614.449 225.522 627.585 208.513C701.347 113.004 744.109 100.488 796.569 107.607C747.101 102.589 704.848 118.115 634.238 209.54C618.674 229.693 603.758 245.859 589.645 258.8V259.765C603.86 246.763 618.888 230.498 634.571 210.191C708.333 114.682 751.095 102.167 803.554 109.285C754.087 104.267 711.833 119.793 641.224 211.219C623.067 234.729 605.791 252.817 589.645 266.681V267.633C605.892 253.72 623.281 235.533 641.556 211.87C715.319 116.361 758.08 103.845 810.54 110.964C761.073 105.946 718.819 121.472 648.209 212.897C627.407 239.833 607.759 259.659 589.645 274.158V275.087C607.859 260.548 627.62 240.639 648.542 213.548C722.304 118.039 765.066 105.524 817.526 112.642C768.058 107.624 725.804 123.151 655.195 214.576C631.688 245.014 609.656 266.371 589.645 281.22V282.142C609.755 267.26 631.901 245.819 655.527 215.227C729.29 119.718 772.051 107.202 824.511 114.321C775.044 109.303 732.79 124.829 662.181 216.255C635.905 250.276 611.473 272.959 589.645 287.882V288.787C611.57 273.84 636.117 251.084 662.513 216.906C736.275 121.396 779.037 108.881 831.497 116C782.029 110.981 739.776 126.508 669.166 217.933C640.051 255.632 613.197 279.41 589.645 294.13V295.021C613.294 280.282 640.262 256.44 669.499 218.584C743.261 123.075 786.022 110.559 838.482 117.678C789.015 112.66 746.761 128.186 676.152 219.612C644.116 261.092 614.819 285.717 589.645 299.967V300.849C614.914 286.586 644.327 261.9 676.484 220.263C750.247 124.753 793.008 112.238 845.468 119.356C796 114.338 753.747 129.864 683.137 221.29C648.092 266.668 616.322 291.878 589.645 305.396V306.268C616.418 292.74 648.305 267.473 683.47 221.941C757.233 126.433 799.993 113.915 852.454 121.035C802.986 116.017 760.732 131.543 690.123 222.969C651.965 272.377 617.691 297.874 589.645 310.403V311.264C617.785 298.731 652.177 273.182 690.455 223.62C764.218 128.111 806.979 115.594 859.439 122.713C809.972 117.695 767.718 133.221 697.109 224.647C655.719 278.238 618.902 303.7 589.645 314.99V315.842C618.996 304.549 655.934 279.041 697.441 225.298C771.203 129.789 813.965 117.273 866.425 124.391C816.958 119.374 774.704 134.899 704.094 226.325C659.339 284.275 619.928 309.338 589.645 319.151V320Z" fill="url(#paint0_linear_65_6268)"/>
<path fill-rule="evenodd" clip-rule="evenodd" d="M690 836C659.622 845.817 620.088 870.925 575.219 929.023C483.536 1047.73 439.752 1038.24 365.702 1022.18C356.533 1020.19 346.9 1018.1 336.714 1016.15C335.465 1015.91 334.222 1015.67 332.983 1015.42L331.065 1014.96C328.72 1014.39 326.392 1013.83 324.079 1013.29C321.735 1012.71 319.406 1012.15 317.093 1011.61C314.749 1011.03 312.42 1010.47 310.108 1009.93C307.764 1009.35 305.435 1008.79 303.122 1008.25C300.777 1007.68 298.449 1007.11 296.137 1006.57C293.792 1006 291.464 1005.44 289.151 1004.89C286.806 1004.32 284.478 1003.76 282.166 1003.21C279.821 1002.64 277.493 1002.08 275.18 1001.54C212.901 986.251 162.228 981.149 105.64 1069.67C78.1774 1112.62 41.7322 1138.56 5.7477 1153.68C3.83004 1154.48 1.91391 1155.25 0 1156H2.19182C3.42123 1155.51 4.65111 1155 5.88219 1154.49C41.9445 1139.34 78.4732 1113.34 106.01 1070.26C151.27 999.467 192.765 988.756 239.497 995.164C195.469 990.793 155.767 1003.86 112.625 1071.35C85.1628 1114.3 48.7177 1140.24 12.7332 1155.36C12.2149 1155.57 11.6971 1155.79 11.1792 1156H13.2616C49.1958 1140.83 85.5589 1114.86 112.996 1071.94C158.255 1001.15 199.75 990.434 246.482 996.842C202.454 992.471 162.751 1005.54 119.611 1073.02C92.7643 1115.02 57.3336 1140.75 22.14 1156H24.1228C58.7838 1140.62 93.5311 1115 119.982 1073.62C165.241 1002.82 206.736 992.113 253.468 998.521C209.44 994.15 169.737 1007.22 126.597 1074.7C100.711 1115.19 66.8451 1140.56 32.9068 1156H34.8044C68.2291 1140.46 101.457 1115.2 126.967 1075.3C172.227 1004.5 213.721 993.792 260.453 1000.2C216.425 995.828 176.723 1008.9 133.582 1076.38C108.614 1115.44 76.222 1140.42 43.5006 1156H45.3203C77.5451 1140.34 109.341 1115.48 133.953 1076.98C179.212 1006.18 220.707 995.471 267.439 1001.88C223.411 997.507 183.709 1010.58 140.568 1078.06C116.478 1115.74 85.4763 1140.33 53.937 1156H55.6881C86.7481 1140.26 117.188 1115.81 140.938 1078.66C186.198 1007.86 227.692 997.15 274.425 1003.56C230.396 999.186 190.694 1012.26 147.553 1079.74C124.307 1116.1 94.6236 1140.27 64.2323 1156H65.919C95.8472 1140.22 125.001 1116.19 147.924 1080.34C193.183 1009.54 234.678 998.827 281.41 1005.24C237.382 1000.86 197.68 1013.93 154.539 1081.42C132.104 1116.51 103.672 1140.25 74.3956 1156H76.0263C104.855 1140.21 132.784 1116.62 154.909 1082.01C200.169 1011.22 241.663 1000.51 288.396 1006.91C244.367 1002.54 204.665 1015.61 161.524 1083.1C139.871 1116.97 112.634 1140.25 84.4423 1156H86.0206C113.779 1140.23 140.541 1117.1 161.895 1083.69C207.154 1012.89 248.649 1002.19 295.381 1008.59C251.353 1004.22 211.65 1017.29 168.51 1084.77C147.614 1117.46 121.518 1140.29 94.38 1156H95.9118C122.628 1140.28 148.272 1117.61 168.88 1085.37C214.14 1014.57 255.635 1003.86 302.367 1010.27C258.338 1005.9 218.636 1018.97 175.495 1086.45C155.333 1117.99 130.328 1140.36 104.219 1156H105.701C131.404 1140.36 155.98 1118.16 175.866 1087.05C221.125 1016.25 262.62 1005.54 309.352 1011.95C265.324 1007.58 225.622 1020.65 182.481 1088.13C163.028 1118.56 139.068 1140.45 113.956 1156H115.4C140.116 1140.46 163.666 1118.74 182.852 1088.73C228.111 1017.93 269.606 1007.22 316.338 1013.63C272.31 1009.26 232.607 1022.33 189.467 1089.81C170.703 1119.16 147.747 1140.56 123.609 1156H125.016C148.77 1140.59 171.333 1119.35 189.837 1090.41C235.097 1019.61 276.591 1008.9 323.323 1015.31C279.295 1010.94 239.592 1024.01 196.452 1091.49C178.36 1119.79 156.37 1140.7 133.18 1156H134.546C157.364 1140.73 178.981 1119.99 196.823 1092.09C242.082 1021.29 283.577 1010.58 330.309 1016.99C286.28 1012.61 246.578 1025.68 203.438 1093.17C185.998 1120.45 164.936 1140.86 142.67 1156H144.006C165.911 1140.9 186.613 1120.66 203.808 1093.76C249.068 1022.97 290.562 1012.26 337.295 1018.66C293.266 1014.29 253.564 1027.36 210.423 1094.84C193.621 1121.13 173.454 1141.04 152.09 1156H153.388C174.404 1141.09 194.227 1121.36 210.794 1095.44C256.053 1024.65 297.548 1013.93 344.28 1020.34C300.252 1015.97 260.549 1029.04 217.409 1096.52C201.227 1121.84 181.925 1141.24 161.437 1156H162.71C182.858 1141.3 201.827 1122.07 217.779 1097.12C263.039 1026.32 304.533 1015.61 351.266 1022.02C307.237 1017.65 267.535 1030.72 224.394 1098.2C208.819 1122.57 190.352 1141.46 170.72 1156H171.961C191.265 1141.52 209.412 1122.81 224.765 1098.8C270.024 1028 311.519 1017.29 358.251 1023.7C314.223 1019.33 274.52 1032.4 231.38 1099.88C216.396 1123.32 198.739 1141.69 179.942 1156H181.155C199.633 1141.76 216.985 1123.58 231.75 1100.48C277.01 1029.68 318.504 1018.97 365.237 1025.38C321.208 1021.01 281.506 1034.08 238.365 1101.56C223.961 1124.09 207.085 1141.94 189.101 1156H190.293C207.966 1142.02 224.545 1124.35 238.736 1102.16C283.995 1031.36 325.49 1020.65 372.222 1027.06C328.194 1022.69 288.492 1035.75 245.351 1103.24C231.514 1124.88 215.396 1142.2 198.206 1156H199.37C216.258 1142.29 232.092 1125.15 245.721 1103.83C290.981 1033.04 332.476 1022.33 379.208 1028.73C335.179 1024.36 295.477 1037.43 252.336 1104.92C239.055 1125.69 223.674 1142.49 207.259 1156H208.397C224.519 1142.58 239.628 1125.97 252.707 1105.51C297.967 1034.72 339.461 1024.01 386.193 1030.41C342.165 1026.04 302.463 1039.11 259.322 1106.59C246.585 1126.52 231.914 1142.78 216.254 1156H217.375C232.75 1142.88 247.154 1126.81 259.693 1107.19C304.952 1036.39 346.447 1025.68 393.179 1032.09C349.151 1027.72 309.449 1040.79 266.308 1108.27C254.104 1127.36 240.125 1143.09 225.203 1156H226.305C240.95 1143.19 254.669 1127.66 266.678 1108.87C316.177 1031.44 361.172 1025.88 413.44 1035.98C415.556 1036.5 417.685 1037.01 419.829 1037.51C422.14 1038.08 424.468 1038.64 426.814 1039.19C429.125 1039.76 431.454 1040.32 433.8 1040.87C436.111 1041.44 438.44 1042 440.785 1042.55C443.096 1043.12 445.425 1043.68 447.771 1044.23C450.082 1044.79 452.411 1045.35 454.757 1045.91C457.068 1046.47 459.396 1047.03 461.742 1047.59C464.053 1048.15 466.381 1048.71 468.728 1049.26C477.968 1051.52 487.485 1053.71 497.319 1055.59C507.574 1057.55 517.169 1059.63 526.3 1061.61C586.871 1074.75 627.235 1083.49 690 1021.54V1020.54C642.227 1067.79 607.462 1074.04 566.903 1068.54C606.478 1072.55 641.442 1063.41 690 1012.77V1011.76C638.571 1065.49 602.427 1072.62 559.917 1066.86C601.366 1071.06 637.755 1060.83 690 1003.62V1002.6C634.802 1063.15 597.34 1071.2 552.932 1065.18C596.203 1069.57 633.957 1058.24 690 994.129V993.085C630.923 1060.77 592.202 1069.78 545.946 1063.5C590.992 1068.07 630.059 1055.59 690 984.292V983.242C626.937 1058.37 587.015 1068.34 538.96 1061.82C585.732 1066.57 626.06 1052.93 690 974.152V973.093C622.848 1055.95 581.781 1066.9 531.975 1060.14C580.427 1065.06 621.964 1050.25 690 963.728V962.657C618.663 1053.51 576.499 1065.45 524.989 1058.46C574.457 1063.48 616.71 1047.96 687.32 956.53C688.216 955.37 689.109 954.231 690 953.098V952.019C688.999 953.289 687.994 954.576 686.988 955.879C613.225 1051.39 570.464 1063.9 518.004 1056.79C567.471 1061.8 609.725 1046.28 680.334 954.852C683.585 950.643 686.807 946.608 690 942.74V941.694C686.698 945.687 683.365 949.846 680.002 954.201C606.24 1049.71 563.478 1062.23 511.018 1055.11C560.486 1060.13 602.739 1044.6 673.349 953.173C678.987 945.873 684.539 939.102 690 932.81V931.778C684.431 938.179 678.769 945.074 673.016 952.522C599.254 1048.03 556.492 1060.55 504.033 1053.43C553.5 1058.45 595.754 1042.92 666.363 951.495C674.424 941.058 682.308 931.701 690 923.295V922.268C682.203 930.771 674.205 940.26 666.031 950.844C592.268 1046.35 549.507 1058.87 497.047 1051.75C546.515 1056.77 588.768 1041.24 659.378 949.817C669.897 936.195 680.119 924.402 690 914.186V913.187C680.015 923.487 669.681 935.395 659.045 949.166C585.283 1044.67 542.521 1057.19 490.061 1050.07C539.529 1055.09 581.783 1039.56 652.392 948.138C665.411 931.281 677.978 917.208 690 905.481V904.503C677.874 916.301 665.196 930.478 652.059 947.487C578.297 1043 535.536 1055.51 483.076 1048.39C532.543 1053.41 574.797 1037.89 645.406 946.46C660.97 926.307 675.887 910.141 690 897.2V896.235C675.785 909.237 660.756 925.502 645.074 945.809C571.311 1041.32 528.55 1053.83 476.09 1046.71C525.558 1051.73 567.811 1036.21 638.421 944.781C656.578 921.271 673.853 903.183 690 889.319V888.367C673.752 902.28 656.363 920.467 638.088 944.13C564.326 1039.64 521.565 1052.15 469.104 1045.04C518.572 1050.05 560.826 1034.53 631.435 943.103C652.237 916.167 671.885 896.341 690 881.842V880.913C671.785 895.452 652.025 915.361 631.103 942.452C557.34 1037.96 514.579 1050.48 462.119 1043.36C511.586 1048.38 553.84 1032.85 624.45 941.424C647.957 910.986 669.988 889.629 690 874.78V873.858C669.89 888.74 647.744 910.181 624.117 940.773C550.355 1036.28 507.593 1048.8 455.133 1041.68C504.601 1046.7 546.855 1031.17 617.464 939.745C643.739 905.724 668.172 883.041 690 868.118V867.213C668.075 882.16 643.527 904.916 617.132 939.094C543.369 1034.6 500.608 1047.12 448.148 1040C497.615 1045.02 539.869 1029.49 610.478 938.067C639.593 900.368 666.448 876.59 690 861.87V860.979C666.351 875.718 639.382 899.56 610.146 937.416C536.384 1032.93 493.622 1045.44 441.162 1038.32C490.63 1043.34 532.883 1027.81 603.493 936.388C635.529 894.908 664.826 870.283 690 856.033V855.151C664.731 869.414 635.318 894.1 603.16 935.737C529.398 1031.25 486.636 1043.76 434.176 1036.64C483.644 1041.66 525.898 1026.14 596.507 934.71C631.553 889.332 663.322 864.122 689.999 850.604V849.732C663.227 863.26 631.339 888.527 596.175 934.059C522.412 1029.57 479.652 1042.08 427.191 1034.97C476.658 1039.98 518.912 1024.46 589.522 933.031C627.68 883.623 661.953 858.126 689.999 845.597V844.736C661.859 857.269 627.467 882.818 589.189 932.38C515.427 1027.89 472.666 1040.41 420.205 1033.29C469.673 1038.3 511.927 1022.78 582.536 931.353C623.925 877.762 660.742 852.3 689.999 841.01V840.158C660.648 851.451 623.71 876.959 582.203 930.702C508.441 1026.21 465.68 1038.73 413.22 1031.61C462.687 1036.63 504.941 1021.1 575.55 929.675C620.305 871.725 659.717 846.662 690 836.849V836Z" fill="url(#paint1_linear_65_6268)"/>
<path opacity="0.4" d="M1167.03 662.827C1162.55 671.677 1158.5 680.914 1157.12 690.735C1155.74 700.556 1157.28 711.124 1163.17 719.107C1169.34 727.472 1179.51 732.068 1189.72 734.035C1225.92 741.011 1262.27 719.124 1298.99 722.425C1311.3 723.531 1323.18 727.449 1335.38 729.464C1347.57 731.479 1360.8 731.392 1371.43 725.088C1383.05 718.201 1389.81 704.004 1388 690.622C1386.98 683.923 1384.11 677.643 1379.71 672.487C1375.31 667.331 1369.56 663.505 1363.11 661.438C1347.94 656.781 1330.66 662.317 1316.14 655.92C1303.32 650.269 1296 636.787 1290.56 623.869C1285.13 610.951 1280.18 597.031 1269.46 588.006C1264.58 583.973 1258.79 581.179 1252.6 579.861C1246.4 578.543 1239.98 578.74 1233.88 580.436C1218.89 584.751 1208.7 598.779 1200.06 610.959C1188.15 627.763 1176.35 644.388 1167.03 662.827Z" fill="#45C2B1"/>
<path opacity="0.4" d="M1237.87 786.347C1238.74 796.3 1241.93 805.911 1247.18 814.411C1252.43 822.912 1259.59 830.067 1268.1 835.304C1279.76 842.343 1294.21 845.432 1307.3 841.69C1325.19 836.58 1338.05 818.796 1339.33 800.241C1340.61 781.686 1331.28 763.22 1316.86 751.474C1304.37 741.298 1278.75 729.657 1262.05 734.348C1243.47 739.563 1236.58 770.018 1237.87 786.347Z" fill="#1A428A"/>
<path opacity="0.4" d="M113.265 379.466C117.74 370.616 121.794 361.379 123.175 351.558C124.556 341.737 123.007 331.169 117.121 323.186C110.953 314.821 100.78 310.225 90.5746 308.258C54.3746 301.282 18.0206 323.169 -18.6984 319.868C-31.0114 318.762 -42.8894 314.844 -55.0864 312.829C-67.2834 310.814 -80.5094 310.901 -91.1434 317.205C-102.763 324.092 -109.516 338.289 -107.709 351.671C-106.686 358.369 -103.815 364.65 -99.4172 369.805C-95.0197 374.961 -89.2709 378.788 -82.8174 380.855C-67.6534 385.512 -50.3654 379.976 -35.8494 386.373C-23.0244 392.024 -15.7084 405.506 -10.2724 418.424C-4.83641 431.342 0.10759 445.262 10.8276 454.287C15.712 458.319 21.4977 461.113 27.6932 462.431C33.8886 463.749 40.3107 463.552 46.4136 461.857C61.3966 457.542 71.5946 443.514 80.2276 431.334C92.1426 414.53 103.937 397.905 113.265 379.466Z" fill="#45C2B1"/>
<path opacity="0.4" d="M42.4205 255.946C41.5489 245.993 38.3609 236.382 33.1116 227.881C27.8622 219.38 20.6969 212.225 12.1885 206.989C0.527515 199.95 -13.9175 196.861 -27.0115 200.603C-44.8985 205.713 -57.7635 223.497 -59.0415 242.052C-60.3195 260.607 -50.9905 279.073 -36.5695 290.819C-24.0755 300.995 1.53652 312.636 18.2365 307.945C36.8195 302.73 43.7085 272.275 42.4205 255.946Z" fill="#1A428A"/>
<defs>
<linearGradient id="paint0_linear_65_6268" x1="1279.64" y1="160" x2="589.645" y2="160" gradientUnits="userSpaceOnUse">
<stop stop-color="#45C2B1"/>
<stop offset="1" stop-color="#45C2B1" stop-opacity="0"/>
</linearGradient>
<linearGradient id="paint1_linear_65_6268" x1="0" y1="996" x2="690" y2="996" gradientUnits="userSpaceOnUse">
<stop stop-color="#45C2B1"/>
<stop offset="1" stop-color="#45C2B1" stop-opacity="0"/>
</linearGradient>
</defs>
</svg>
