<svg width="30" height="44" viewBox="0 0 30 44" fill="none" xmlns="http://www.w3.org/2000/svg">
<path d="M1.90735e-06 14.5667C1.90735e-06 5.97495 7.43824 -0.879329 16.2263 0.0919184C23.0307 0.844036 28.4602 6.40179 29.0724 13.2203C29.4939 17.916 27.6841 22.2004 24.5844 25.1374C22.08 27.5101 20.4472 30.6575 19.7749 34.0418L19.7746 34.0437C19.7186 34.3252 19.4717 34.5276 19.1849 34.5276H9.94795C9.66111 34.5276 9.41421 34.3249 9.35829 34.0437C8.66476 30.5513 6.84704 27.4185 4.31677 24.9133C1.65146 22.2742 1.90735e-06 18.6141 1.90735e-06 14.5667Z" fill="#48BEA0"/>
<path d="M16.8806 34.5278C17.1926 27.6941 19.2401 20.0325 22.9071 14.4588C22.3897 15.1059 21.4116 15.4818 20.5834 15.4529C19.7552 15.424 18.9517 14.9849 18.4803 14.3036C18.2544 13.9768 18.1003 13.5838 18.1353 13.1882C18.1703 12.7925 18.4252 12.4033 18.8052 12.2877C19.3648 12.1172 19.9648 12.6209 20.0576 13.1984C20.1504 13.7759 19.8575 14.3538 19.4641 14.7867C18.8197 15.4955 17.8793 15.9269 16.9217 15.9524C15.9638 15.9779 15.002 15.5974 14.3207 14.9237C13.9254 14.5326 13.6127 14.0076 13.6488 13.4526C13.685 12.8975 14.1784 12.3596 14.73 12.4292C15.1542 12.4828 15.4829 12.8762 15.5514 13.2985C15.6199 13.7208 15.4688 14.1537 15.2322 14.5098C14.6969 15.3159 13.6983 15.7892 12.7354 15.6929C11.7725 15.5967 10.8873 14.9347 10.5228 14.0384C10.3474 13.6078 10.3646 12.9865 10.7986 12.8203C11.2483 12.6479 11.69 13.1524 11.7604 13.6291C11.8825 14.4542 11.3681 15.2954 10.6324 15.6884C9.89661 16.0814 8.99119 16.0699 8.20293 15.7972C7.41467 15.5244 6.83489 15.0306 6.22657 14.4596C9.89357 20.0329 11.9411 27.6945 12.253 34.5286" stroke="white" stroke-width="1.39515" stroke-miterlimit="10" stroke-linecap="round" stroke-linejoin="round"/>
<path d="M22.3696 4.97943C24.1112 6.10437 25.3446 7.6923 26.0389 9.64164C26.3356 10.4744 25.7033 11.4331 24.8957 11.6553C23.9895 11.9045 23.1799 11.3479 22.882 10.5121C22.4849 9.39664 21.7088 8.4467 20.7174 7.80643C18.9537 6.66703 20.593 3.83166 22.3696 4.97943Z" fill="white"/>
<path d="M10.0913 36.3557H19.0406C19.3925 36.3557 19.6778 36.0704 19.6778 35.7185V35.1649C19.6778 34.813 19.3925 34.5277 19.0406 34.5277H10.0913C9.73938 34.5277 9.45405 34.813 9.45405 35.1649V35.7185C9.45405 36.0704 9.73938 36.3557 10.0913 36.3557Z" fill="#275C51"/>
<path d="M10.0913 38.1837H19.0406C19.3925 38.1837 19.6778 37.8984 19.6778 37.5465V36.9929C19.6778 36.641 19.3925 36.3557 19.0406 36.3557H10.0913C9.73938 36.3557 9.45405 36.641 9.45405 36.9929V37.5465C9.45405 37.8984 9.73938 38.1837 10.0913 38.1837Z" fill="#C6FCEE"/>
<path d="M10.0913 40.0116H19.0406C19.3925 40.0116 19.6778 39.7263 19.6778 39.3744V38.8208C19.6778 38.4689 19.3925 38.1836 19.0406 38.1836H10.0913C9.73938 38.1836 9.45405 38.4689 9.45405 38.8208V39.3744C9.45405 39.7263 9.73938 40.0116 10.0913 40.0116Z" fill="#275C51"/>
<path d="M12.868 41.8395C12.868 42.7773 13.6281 43.5377 14.5659 43.5377C15.5036 43.5377 16.2638 42.7776 16.2638 41.8395C16.2638 40.9017 15.5036 40.1416 14.5659 40.1416C13.6285 40.1416 12.868 40.9017 12.868 41.8395Z" fill="#275C51"/>
<path d="M10.0913 41.8397H19.0406C19.3925 41.8397 19.6778 41.5544 19.6778 41.2025V40.649C19.6778 40.2971 19.3925 40.0117 19.0406 40.0117H10.0913C9.73938 40.0117 9.45405 40.2971 9.45405 40.649V41.2025C9.45405 41.5544 9.73938 41.8397 10.0913 41.8397Z" fill="#C6FCEE"/>
</svg>
