<svg width="202" height="690" viewBox="0 0 202 690" fill="none" xmlns="http://www.w3.org/2000/svg">
<path opacity="0.5" fill-rule="evenodd" clip-rule="evenodd" d="M-3.01609e-05 5.46692e-05C6.1808 30.3782 21.9886 69.9122 58.5671 114.781C133.308 206.464 127.329 250.248 117.217 324.298C115.965 333.467 114.65 343.1 113.422 353.286C113.272 354.535 113.118 355.778 112.962 357.017L112.676 358.935C112.314 361.28 111.961 363.608 111.619 365.921C111.257 368.265 110.904 370.594 110.563 372.907C110.2 375.251 109.847 377.58 109.506 379.892C109.144 382.236 108.79 384.565 108.449 386.878C108.087 389.223 107.734 391.551 107.392 393.863C107.03 396.208 106.677 398.536 106.335 400.849C105.973 403.194 105.62 405.522 105.279 407.834C104.917 410.179 104.563 412.507 104.222 414.82C94.598 477.099 91.3858 527.772 147.117 584.36C174.163 611.823 190.494 648.268 200.01 684.252C200.517 686.17 201.002 688.086 201.472 690L201.472 687.808C201.162 686.579 200.846 685.349 200.52 684.118C190.984 648.056 174.612 611.527 147.493 583.99C102.919 538.73 96.1754 497.235 100.21 450.503C97.4575 494.531 105.686 534.233 148.174 577.375C175.22 604.837 191.551 641.282 201.066 677.267C201.204 677.785 201.338 678.303 201.472 678.821L201.472 676.738C191.921 640.804 175.57 604.441 148.549 577.004C103.976 531.745 97.2319 490.25 101.266 443.518C98.5143 487.546 106.743 527.249 149.23 570.389C175.67 597.236 191.869 632.666 201.472 667.86L201.472 665.877C191.788 631.216 175.656 596.469 149.606 570.018C105.033 524.759 98.289 483.264 102.323 436.532C99.5715 480.56 107.8 520.263 150.287 563.403C175.78 589.289 191.753 623.155 201.472 657.093L201.472 655.196C191.686 621.771 175.787 588.543 150.663 563.033C106.09 517.773 99.3458 476.279 103.38 429.547C100.628 473.575 108.857 513.277 151.344 556.418C175.934 581.386 191.666 613.778 201.472 646.499L201.472 644.68C191.611 612.455 175.959 580.659 151.72 556.047C107.146 510.788 100.403 469.293 104.437 422.561C101.685 466.589 109.914 506.291 152.401 549.432C176.125 573.522 191.605 604.524 201.472 636.063L201.472 634.312C191.561 603.252 176.168 572.812 152.777 549.062C108.203 503.802 101.46 462.308 105.494 415.575C102.742 459.604 110.971 499.306 153.458 542.447C176.352 565.693 191.568 595.376 201.472 625.768L201.472 624.081C191.535 594.153 176.409 564.999 153.834 542.076C109.26 496.817 102.516 455.322 106.551 408.59C103.798 452.618 112.027 492.32 154.514 535.461C176.61 557.896 191.553 586.328 201.472 615.604L201.472 613.974C191.53 585.145 176.68 557.216 154.89 535.091C110.316 489.831 103.573 448.337 107.607 401.604C104.855 445.633 113.085 485.335 155.571 528.476C176.896 550.129 191.558 577.366 201.472 605.558L201.472 603.979C191.544 576.221 176.978 549.459 155.947 528.105C111.373 482.846 104.63 441.351 108.664 394.619C105.912 438.647 114.141 478.35 156.628 521.49C177.207 542.386 191.582 568.482 201.472 595.62L201.472 594.088C191.576 567.372 177.3 541.728 157.004 521.119C112.43 475.86 105.687 434.365 109.721 387.633C106.969 431.662 115.198 471.364 157.685 514.505C177.542 534.667 191.623 559.672 201.472 585.781L201.472 584.299C191.624 558.596 177.646 534.02 158.061 514.134C113.487 468.875 106.743 427.38 110.778 380.648C108.026 424.676 116.255 464.378 158.742 507.519C177.9 526.972 191.68 550.932 201.472 576.044L201.472 574.6C191.689 549.884 178.013 526.334 159.118 507.148C114.544 461.889 107.8 420.394 111.835 373.662C109.082 417.69 117.311 457.393 159.798 500.533C178.277 519.297 191.753 542.253 201.472 566.391L201.472 564.984C191.768 541.23 178.397 518.667 160.174 500.163C115.601 454.903 108.857 413.409 112.891 366.677C110.14 410.705 118.369 450.408 160.855 493.548C178.673 511.64 191.84 533.63 201.472 556.82L201.472 555.454C191.86 532.636 178.803 511.019 161.231 493.177C116.658 447.918 109.914 406.423 113.948 359.691C111.196 403.72 119.425 443.422 161.912 486.562C179.087 504.002 191.94 525.064 201.472 547.33L201.472 545.994C191.967 524.089 179.223 503.387 162.288 486.192C117.714 440.932 110.971 399.438 115.005 352.705C112.253 396.734 120.482 436.436 162.969 479.577C179.517 496.379 192.054 516.546 201.472 537.91L201.472 536.612C192.085 515.596 179.661 495.773 163.345 479.206C118.771 433.947 112.027 392.452 116.062 345.72C113.31 389.748 121.538 429.451 164.026 472.591C179.963 488.773 192.178 508.075 201.472 528.563L201.472 527.29C192.215 507.142 180.112 488.173 164.402 472.221C119.828 426.961 113.084 385.467 117.119 338.734C114.367 382.763 122.595 422.465 165.083 465.606C180.423 481.181 192.315 499.648 201.472 519.28L201.472 518.039C192.355 498.735 180.578 480.588 165.459 465.235C120.885 419.976 114.141 378.481 118.176 331.749C115.423 375.777 123.652 415.48 166.139 458.62C180.896 473.604 192.462 491.261 201.472 510.058L201.472 508.845C192.508 490.367 181.058 473.015 166.515 458.25C121.942 412.99 115.198 371.496 119.232 324.763C116.48 368.792 124.709 408.494 167.196 451.635C181.382 466.039 192.619 482.915 201.472 500.899L201.472 499.707C192.669 482.034 181.548 465.455 167.572 451.264C122.998 406.005 116.255 364.51 120.289 317.778C117.537 361.806 125.766 401.508 168.253 444.649C181.881 458.486 192.787 474.604 201.472 491.794L201.472 490.63C192.841 473.742 182.052 457.908 168.629 444.278C124.055 399.019 117.312 357.524 121.346 310.792C118.594 354.821 126.823 394.523 169.31 437.664C182.39 450.945 192.963 466.326 201.472 482.741L201.472 481.603C193.021 465.481 182.566 450.372 169.686 437.293C125.112 392.033 118.369 350.539 122.403 303.807C119.651 347.835 127.88 387.537 170.367 430.678C182.911 443.415 193.149 458.086 201.472 473.746L201.472 472.625C193.211 457.25 183.091 442.846 170.742 430.307C126.169 385.048 119.426 343.553 123.459 296.821C120.707 340.849 128.936 380.551 171.423 423.692C183.442 435.896 193.344 449.875 201.472 464.797L201.472 463.695C193.409 449.05 183.626 435.331 171.799 423.322C123.05 373.823 119.547 328.828 125.909 276.56C126.234 274.444 126.556 272.315 126.873 270.171C127.23 267.86 127.582 265.532 127.93 263.185C128.286 260.875 128.639 258.546 128.987 256.2C129.343 253.889 129.696 251.56 130.044 249.215C130.4 246.903 130.753 244.575 131.1 242.229C131.457 239.918 131.81 237.589 132.157 235.243C132.514 232.932 132.866 230.604 133.214 228.258C133.57 225.947 133.923 223.619 134.271 221.272C135.695 212.032 137.069 202.515 138.254 192.681C139.489 182.426 140.8 172.831 142.047 163.7C150.318 103.129 155.821 62.7647 116.814 -2.82913e-05L116.189 -2.82639e-05C145.937 47.7727 149.869 82.5385 146.404 123.097C148.931 83.5217 143.175 48.5583 111.295 -2.805e-05L110.661 -2.80223e-05C144.49 51.4291 148.979 87.573 145.348 130.083C147.995 88.6345 141.553 52.2454 105.535 -2.77982e-05L104.893 -2.77702e-05C143.015 55.1982 148.085 92.6599 144.291 137.068C147.054 93.7967 139.92 56.0427 99.558 -2.7537e-05L98.901 -2.75082e-05C141.518 59.0768 147.186 97.7977 143.234 144.054C146.111 99.008 138.255 59.9406 93.3647 -2.72662e-05L92.7039 -2.72373e-05C140.007 63.0627 146.283 102.985 142.177 151.04C145.164 104.268 136.58 63.94 86.9804 -2.69872e-05L86.3135 -2.6958e-05C138.481 67.1515 145.376 108.219 141.12 158.025C144.215 109.573 134.892 68.0357 80.4175 -2.67003e-05L79.743 -2.66708e-05C136.942 71.3374 144.464 113.501 140.064 165.011C143.223 115.543 133.448 73.2896 75.8859 2.68003C75.1554 1.78426 74.4384 0.891434 73.7247 -2.64077e-05L73.0455 -2.63781e-05C73.8455 1.00113 74.6555 2.00557 75.476 3.01247C135.609 76.7748 143.489 119.536 139.007 171.996C142.166 122.529 132.391 80.275 74.8291 9.66551C72.1792 6.41521 69.6389 3.19255 67.2035 -2.61227e-05L66.5449 -2.60939e-05C69.0587 3.30225 71.6774 6.63452 74.4193 9.99802C134.552 83.7604 142.432 126.522 137.95 178.982C141.109 129.514 131.334 87.2606 73.7724 16.651C69.1763 11.0129 64.9132 5.46115 60.9519 -2.58494e-05L60.3017 -2.5821e-05C64.3318 5.56877 68.6733 11.2311 73.3626 16.9837C133.495 90.746 141.375 133.508 136.893 185.967C140.053 136.5 130.277 94.2461 72.7158 23.6368C66.1448 15.5765 60.253 7.69187 54.9607 5.22668e-05L54.3147 5.2295e-05C59.6676 7.79726 65.6418 15.7946 72.306 23.9693C132.439 97.7315 140.318 140.493 135.837 192.953C138.996 143.485 129.221 101.232 71.659 30.6223C63.0829 20.1029 55.658 9.88066 49.2257 0.000130372L48.5972 0.000130399C55.0819 9.98549 62.5788 20.3193 71.2492 30.9548C131.382 104.717 139.262 147.479 134.78 199.939C137.939 150.471 128.164 108.217 70.6022 37.608C59.9887 24.5888 51.1285 12.0222 43.7452 0.000208466L43.1296 0.000208493C50.5578 12.1262 59.4832 24.8044 70.1924 37.9407C130.325 111.703 138.205 154.464 133.723 206.924C136.882 157.457 127.107 115.203 69.5454 44.5937C56.857 29.0295 46.6789 14.1132 38.5313 0.000286548L37.9239 0.000286574C46.1098 14.2154 56.3508 29.244 69.1356 44.9262C129.268 118.689 137.148 161.45 132.666 213.91C135.825 164.442 126.05 122.189 68.4886 51.5793C53.6867 33.4224 42.2982 16.1469 33.5697 0.000286765L32.97 0.000286791C41.7297 16.2476 53.1807 33.6368 68.0788 51.9117C128.211 125.674 136.091 168.435 131.609 220.896C134.769 171.428 124.993 129.174 67.4318 58.5648C50.4734 37.7627 37.9908 18.1147 28.8623 0.00028697L28.2773 0.000286996C37.4309 18.2149 49.9658 37.975 67.0219 58.8974C127.154 132.66 135.034 175.421 130.552 227.881C133.712 178.414 123.936 136.16 66.3749 65.5504C47.2115 42.0434 33.765 20.0118 24.416 0.000287165L23.8353 0.00028719C33.2048 20.1103 46.7042 42.2562 65.9651 65.8829C126.098 139.645 133.978 182.407 129.496 234.867C132.655 185.399 122.88 143.145 65.3181 72.536C43.8982 46.2609 29.6168 21.828 20.2217 0.000365203L19.6514 0.000365227C29.0624 21.9253 43.3897 46.4728 64.9082 72.8684C125.041 146.631 132.921 189.392 128.439 241.852C131.598 192.385 121.823 150.131 64.2612 79.5215C40.526 50.4065 25.5558 23.5524 16.2879 0.000443229L15.7266 0.000443253C25.0064 23.6493 40.0173 50.6179 63.8514 79.8541C123.984 153.616 131.864 196.378 127.382 248.838C130.541 199.37 120.766 157.117 63.2044 86.5072C37.0882 54.4713 21.5844 25.1741 12.6125 0.000443389L12.0576 0.000443414C21.0375 25.2695 36.5795 54.6825 62.7947 86.8397C122.927 160.602 130.807 203.364 126.325 255.824C129.485 206.356 119.709 164.102 62.1477 93.4928C33.5776 58.447 17.7058 26.6778 9.19495 0.000521393L8.64583 0.000521417C17.1631 26.773 33.0709 58.6609 61.7379 93.8253C121.87 167.588 129.751 210.348 125.269 262.809C128.428 213.342 118.653 171.088 61.0909 100.478C29.9836 62.3201 13.9303 28.0466 6.04248 0.000599385L5.50045 0.000599409C13.3913 28.1408 29.4765 62.5328 60.6812 100.811C120.813 174.573 128.694 217.334 124.212 269.795C127.371 220.327 117.596 178.073 60.0342 107.464C26.2936 66.0749 10.2624 29.2575 3.15404 0.000677366L2.61767 0.000677389C9.72775 29.3517 25.788 66.2899 59.6245 107.797C119.757 181.559 127.637 224.32 123.155 276.78C126.314 227.313 116.54 185.059 58.9775 114.45C22.4927 69.6946 6.71295 30.2834 0.534352 5.46458e-05L-3.01609e-05 5.46692e-05Z" fill="#45C2B1"/>
</svg>
