<svg width="1280" height="574" viewBox="0 0 1280 574" fill="none" xmlns="http://www.w3.org/2000/svg">
<path opacity="0.5" fill-rule="evenodd" clip-rule="evenodd" d="M373.237 401.905C373.426 405.096 373.775 408.168 374.278 411.127ZM950.959 455.652C951.586 456.788 952.249 458.002 952.941 459.283ZM952.941 459.283C953.557 460.424 954.178 461.584 954.802 462.766ZM954.802 462.766C955.409 463.918 956.03 465.108 956.663 466.344ZM956.663 466.344C957.29 467.567 957.869 468.712 958.404 469.785ZM958.404 469.785C958.919 470.818 959.506 472.008 960.141 473.308ZM960.141 473.308C960.691 474.434 961.241 475.571 961.788 476.715ZM961.788 476.715C962.339 477.868 962.891 479.032 963.436 480.197ZM963.436 480.197C963.963 481.32 964.487 482.449 965.004 483.574ZM965.004 483.574H965.005C965.532 484.721 966.057 485.873 966.574 487.022M966.574 487.022C967.081 488.148 967.581 489.266 968.072 490.375ZM968.072 490.375C968.517 491.38 969.014 492.513 969.569 493.792ZM969.569 493.792C970.086 494.986 970.576 496.117 971.003 497.12ZM971.003 497.12L971.867 499.15ZM983.254 527.936C982.79 526.688 982.325 525.449 981.861 524.219L983.08 527.473C984.811 532.12 986.541 536.888 988.269 541.779C986.588 537.019 984.917 532.405 983.254 527.936ZM971.867 499.15L971.377 497.99ZM971.377 497.99C970.895 496.853 970.42 495.742 969.957 494.671ZM969.957 494.671H969.955ZM969.955 494.671C969.452 493.506 968.956 492.369 968.471 491.267ZM968.471 491.267C967.94 490.057 967.444 488.941 966.987 487.923ZM966.987 487.923C966.464 486.752 965.944 485.608 965.431 484.487ZM965.431 484.487C964.992 483.529 964.466 482.394 963.873 481.118ZM963.873 481.118C963.326 479.943 962.779 478.783 962.239 477.648ZM962.239 477.648C961.665 476.441 961.117 475.303 960.605 474.249ZM960.605 474.249C960.031 473.066 959.455 471.894 958.883 470.74ZM958.883 470.74C958.335 469.635 957.762 468.496 957.161 467.314ZM957.161 467.315C956.485 465.986 955.876 464.803 955.329 463.755ZM955.329 463.755C954.721 462.589 954.109 461.433 953.495 460.287ZM953.495 460.287C952.229 457.924 950.946 455.595 949.646 453.301ZM827.79 387.758V387.759L826.755 388.056L827.566 387.825H827.57L828.637 387.528V387.527L828.99 387.428L828.996 387.426L829.972 387.163H829.975L830.951 386.908C831.627 386.734 832.283 386.566 832.907 386.413C833.562 386.252 834.215 386.096 834.861 385.948H834.865L836.284 385.631L836.287 385.629L837.702 385.328H837.704L838.431 385.176L838.435 385.174C838.928 385.076 839.481 384.969 840.092 384.857C840.696 384.746 841.243 384.648 841.743 384.562C842.21 384.482 842.741 384.396 843.312 384.307C843.894 384.217 844.411 384.139 844.875 384.073C845.296 384.013 845.755 383.95 846.261 383.885C846.776 383.819 847.234 383.761 847.647 383.714H847.65L847.852 383.692C848.293 383.642 848.766 383.592 849.262 383.543H849.266L850.668 383.413L850.672 383.411L851.741 383.323H851.749L852.818 383.248H852.827L853.339 383.222C853.745 383.2 854.163 383.177 854.599 383.159C855.006 383.141 855.43 383.124 855.857 383.112H855.859L857.039 383.083H857.043C857.434 383.077 857.832 383.072 858.229 383.071H858.235L858.558 383.075L859.316 383.082H859.32L860.08 383.095L860.419 383.1H860.429L861.264 383.127H861.269L862.104 383.163L862.459 383.179H862.463L863.402 383.229H863.407L864.346 383.291H864.355L864.674 383.317L864.678 383.319H864.681V383.318C865.116 383.35 865.545 383.382 866.066 383.431L866.264 383.45H866.265L866.666 383.489H866.675L867.195 383.55H867.197L867.57 383.594L868.158 383.664L868.348 383.686H868.352L868.884 383.749L868.888 383.751L869.378 383.814L869.389 383.816L869.968 383.907V383.905L870.277 383.953L870.279 383.954L870.8 384.035L870.947 384.058L871.361 384.122V384.121L871.418 384.13L871.422 384.132L871.61 384.161H871.616C878.334 385.298 884.973 387.368 891.549 390.535C898.12 393.7 904.632 397.965 911.103 403.497C912.768 404.92 914.432 406.428 916.093 408.023C917.742 409.606 919.401 411.289 921.066 413.07H921.068C922.3 414.387 923.538 415.762 924.778 417.19C926.023 418.625 927.26 420.102 928.483 421.618C929.491 422.868 930.511 424.17 931.537 425.518C932.544 426.841 933.565 428.22 934.59 429.641C935.479 430.874 936.366 432.13 937.245 433.406C938.118 434.673 939.003 435.986 939.898 437.342L939.899 437.342C940.718 438.582 941.514 439.812 942.285 441.026C943.054 442.239 943.842 443.502 944.644 444.815C945.373 446.01 946.097 447.208 946.809 448.407C947.462 449.507 948.11 450.615 948.749 451.728C948.31 450.961 947.875 450.209 947.443 449.473C946.765 448.313 946.056 447.122 945.319 445.904C944.541 444.616 943.766 443.355 943 442.13C942.205 440.858 941.429 439.64 940.682 438.492C939.813 437.156 938.952 435.862 938.104 434.611C937.252 433.356 936.385 432.107 935.505 430.868C934.509 429.465 933.519 428.109 932.538 426.8C931.558 425.493 930.566 424.205 929.567 422.941C928.384 421.441 927.207 419.996 926.04 418.612C924.868 417.219 923.69 415.869 922.51 414.569C920.986 412.886 919.443 411.269 917.889 409.717C916.347 408.178 914.802 406.715 913.257 405.323C910.499 402.84 907.734 400.587 904.968 398.562C902.205 396.54 899.427 394.735 896.636 393.137C893.323 391.24 890.001 389.642 886.672 388.317C883.333 386.989 879.979 385.932 876.61 385.124C876.122 385.007 875.58 384.884 874.997 384.758C874.458 384.643 873.918 384.532 873.381 384.43L873.332 384.42H873.33L873.082 384.373H873.08L872.944 384.346V384.345L872.494 384.259L872.374 384.236V384.237L871.649 384.109L871.605 384.102L871.593 384.1L870.831 383.983H870.83L870.545 383.94L870.528 383.937L870.506 383.932L870.178 383.88H870.175C869.876 383.832 869.573 383.784 869.261 383.742L869.246 383.74L869.235 383.738C868.924 383.698 868.571 383.657 868.217 383.617L867.759 383.566H867.757L867.567 383.544C867.059 383.485 866.559 383.428 866.124 383.387V383.388L865.43 383.331L865.094 383.304L864.297 383.241V383.24L863.471 383.187L862.641 383.143L862.339 383.129L861.289 383.085L860.242 383.055L859.47 383.043L858.698 383.037L858.036 383.032L857.577 383.042H857.575L856.627 383.057L855.677 383.081C855.28 383.094 854.869 383.111 854.445 383.131L853.205 383.199C852.799 383.223 852.372 383.252 851.922 383.286H851.92C851.519 383.314 851.082 383.351 850.633 383.389V383.388L849.308 383.512V383.513L847.975 383.655V383.656L846.935 383.78V383.779L845.902 383.911V383.912L845.237 384.004V384.005L843.84 384.21C843.345 384.286 842.877 384.361 842.447 384.432L841.042 384.675V384.674L839.644 384.932V384.933L838.267 385.205V385.204L836.895 385.491L836.299 385.618V385.617L835.349 385.829V385.83L834.395 386.05V386.05L833.809 386.189H833.806L833.358 386.295L832.647 386.464V386.463C831.863 386.657 831.053 386.867 830.226 387.087C829.404 387.307 828.589 387.532 827.79 387.758ZM817.913 390.855L817.695 390.931L817.915 390.856L819.156 390.44L819.612 390.289V390.288L820.059 390.137L820.188 390.094L819.944 390.174V390.173L818.932 390.509V390.51L817.913 390.855V390.855ZM816.331 391.406V391.407L816.251 391.435L816.47 391.358L816.331 391.406ZM803.069 396.492V396.493L802.929 396.55L803.998 396.113C804.688 395.831 805.514 395.499 806.426 395.135L806.866 394.961L806.868 394.959L808.341 394.379H808.343L809.813 393.81L809.815 393.808L811.273 393.253H811.277L812.73 392.71L812.732 392.708L813.548 392.408H813.55L815.095 391.846L814.737 391.974L813.65 392.368V392.369L812.555 392.773V392.772C811.985 392.983 811.367 393.214 810.577 393.516H810.575C809.887 393.777 809.222 394.035 808.59 394.279V394.28L807.052 394.885V394.884L805.498 395.504V395.505L804.283 395.996V395.995L803.069 396.492ZM800.874 397.404L799.838 397.842L801.21 397.266L800.874 397.405V397.404ZM795.595 399.661V399.662L794.751 400.032H794.752L796.619 399.22H796.621C797.62 398.787 798.601 398.366 799.559 397.961V397.96L798.675 398.333V398.334L797.957 398.641V398.64L795.595 399.661ZM766.319 413.204V413.205L765.308 413.687H765.31L767.113 412.829V412.828L768.147 412.335H768.149L771.789 410.606L773.476 409.806L775.584 408.81H775.585L779.45 406.994L779.87 406.797L779.872 406.795L783.494 405.112H783.496L786.327 403.811L787.657 403.203L787.659 403.201L789.856 402.207H789.858L792.046 401.227H792.048L792.876 400.86V400.858L794.558 400.117L793.219 400.705V400.706L792.024 401.235V401.234L790.356 401.981V401.982L788.679 402.738V402.737L785.5 404.186L784.373 404.704V404.704L782.292 405.667V405.668L780.198 406.643L780.197 406.641L779.062 407.172L776.184 408.523V408.524L772.676 410.183L772.253 410.384L768.458 412.187L766.319 413.204ZM746.977 422.337L745.642 422.955L747.77 421.971V421.972L751.01 420.458L754.281 418.921L754.39 418.87V418.869L757.654 417.326L760.76 415.851L761.071 415.704L764.554 414.046V414.045L764.701 413.975H764.7L761.071 415.702L759.962 416.228L757.466 417.413L753.936 419.081L753.589 419.245H753.587L750.449 420.718V420.72L746.978 422.336L746.977 422.337ZM741.879 424.684L740.56 425.284L741.476 424.869V424.87L744.581 423.447V423.446L745.283 423.121H745.282L743.582 423.903L741.881 424.682L741.879 424.684ZM730.04 429.96L728.414 430.662L729.489 430.199L729.49 430.201C730.379 429.817 731.351 429.392 732.405 428.93V428.929L733.882 428.279L735.356 427.626V427.627L738.389 426.268L738.489 426.222H738.488L736.798 426.98L735.12 427.729L735.118 427.73L733.441 428.472H733.439L731.744 429.217L730.042 429.958L730.04 429.96ZM724.978 432.124V432.124L726.61 431.435V431.434L728.051 430.819V430.818L728.365 430.683H728.364L726.682 431.403H726.68L724.978 432.124ZM724.57 432.296L723.437 432.772L723.861 432.595V432.596L724.57 432.296ZM716.484 435.611L716.275 435.694V435.695L716.484 435.611ZM718.655 434.738L718.581 434.769L718.655 434.739V434.738ZM714.27 436.487L712.813 437.056L713.904 436.63L714.27 436.487ZM710.596 437.907L710.594 437.909L712.544 437.159H712.542L710.596 437.907ZM706.481 439.449L706.48 439.45C707.85 438.945 709.216 438.434 710.575 437.917L708.64 438.647H708.638L706.481 439.449ZM694.868 443.496L694.551 443.6L695.363 443.333L694.868 443.496ZM690.666 444.843H690.664ZM690.664 444.843L690.055 445.031ZM690.055 445.031V445.032ZM601.744 467.316C599.62 467.726 597.492 468.128 595.364 468.52C597.493 468.128 599.62 467.726 601.744 467.316ZM411.539 461.31C411.139 461.096 410.741 460.88 410.347 460.661C410.741 460.88 411.14 461.096 411.539 461.31ZM387.862 442.137C384.294 437.68 381.313 432.753 378.984 427.324C381.313 432.751 384.29 437.675 387.85 442.125C390.189 445.046 392.781 447.766 395.607 450.292C392.785 447.77 390.198 445.054 387.862 442.137ZM374.278 411.127C373.775 408.16 373.425 405.078 373.236 401.879ZM374.645 413.134C374.52 412.497 374.402 411.854 374.291 411.207C374.402 411.854 374.52 412.498 374.645 413.134ZM375.29 416.105C375.074 415.2 374.874 414.282 374.688 413.352C374.874 414.282 375.074 415.199 375.29 416.105ZM376.427 420.305C376.304 419.901 376.185 419.493 376.069 419.083C376.185 419.493 376.304 419.899 376.427 420.305ZM373.119 399.289C373.086 398.254 373.069 397.206 373.069 396.149C373.069 397.207 373.087 398.255 373.119 399.289ZM373.236 401.879C373.2 401.257 373.168 400.631 373.144 400.001ZM376.01 304.969C371.385 288.805 360.396 280.165 339.466 277.092C360.415 280.172 371.413 288.922 376.045 305.325C380.149 319.859 379.206 340.402 375.754 368.366C379.233 340.199 380.177 319.527 376.01 304.969ZM318.981 275.785C288.126 275.756 242.852 282.364 177.778 292.64C242.852 282.365 288.126 275.757 318.981 275.785ZM81.9087 307.771C64.0907 310.531 47.1412 311.839 31.0421 311.83C47.1414 311.839 64.0909 310.531 81.9087 307.771ZM797.074 403.463L796.969 403.484ZM1013.85 329.539H1013.86L1014.54 329.214L1013.85 329.539ZM1008.64 331.994L1008.69 331.993L1011.51 330.653L1011.47 330.656L1008.64 331.994ZM1006.25 332.072H1006.26L1006.95 331.744L1006.25 332.072ZM1003.35 334.509H1003.41L1006.49 333.043L1006.42 333.047L1003.35 334.509ZM1001.05 334.523L1001.11 334.522L1003.91 333.187L1003.87 333.191L1001.05 334.523ZM998.662 334.6L998.67 334.599L999.358 334.273L998.662 334.6ZM995.971 338.029H995.95L993.843 339.029L995.971 338.029ZM997.954 337.076L997.989 337.078L1001.31 335.505L1001.25 335.506L1000.83 335.706L997.954 337.076ZM995.758 337.037L995.818 337.038L998.901 335.571L998.834 335.575L995.758 337.037ZM993.46 337.052L993.514 337.051L996.324 335.715L996.284 335.718L993.46 337.052ZM991.071 337.129L991.08 337.128L991.767 336.803L991.071 337.129ZM988.38 340.558H988.36L986.252 341.559L988.38 340.558ZM990.363 339.605L990.397 339.607L993.723 338.033L993.665 338.034L993.242 338.235L990.363 339.605ZM988.167 339.566L988.227 339.567L991.313 338.1L991.245 338.103L988.167 339.566ZM985.869 339.581L985.924 339.58L988.735 338.242L988.695 338.246L985.869 339.581ZM983.48 339.658L983.489 339.658L984.176 339.332L983.48 339.658ZM980.788 343.089H980.766L978.661 344.088L980.788 343.089ZM982.77 342.135L982.804 342.137L986.132 340.563L986.074 340.563L985.651 340.764L982.77 342.135ZM980.574 342.096L980.634 342.097L983.721 340.629L983.654 340.632L980.574 342.096ZM978.276 342.112L978.33 342.111L981.144 340.772L981.104 340.776L978.276 342.112ZM975.887 342.189L975.895 342.188L976.585 341.861L975.887 342.189ZM973.194 345.62L973.172 345.619L971.07 346.617L973.194 345.62ZM975.177 344.667L975.211 344.669L978.539 343.093L978.481 343.094L978.06 343.293L975.177 344.667ZM972.98 344.628H973.04L976.129 343.159L976.061 343.163L972.98 344.628ZM970.683 344.642L970.737 344.641L973.551 343.303L973.511 343.306L970.683 344.642ZM968.294 344.719H968.302L968.994 344.391L968.294 344.719ZM965.602 348.149H965.58L963.479 349.147L965.602 348.149ZM967.585 347.196L967.62 347.198L970.944 345.624L970.885 345.625L970.469 345.823L967.585 347.196ZM965.388 347.157L965.449 347.158L968.533 345.691L968.466 345.694L965.388 347.157ZM963.09 347.172L963.144 347.171L965.957 345.833L965.917 345.836L963.09 347.172ZM960.687 347.25L960.709 347.249L962.164 346.559L960.687 347.25ZM958.009 350.68H957.987L955.888 351.676L958.009 350.68ZM959.993 349.726L960.027 349.728L963.354 348.153L963.294 348.154L962.878 348.352L959.993 349.726ZM957.797 349.688H957.857L960.942 348.22L960.874 348.224L957.797 349.688ZM955.486 349.703L955.553 349.701L958.364 348.364L958.31 348.369L955.486 349.703ZM953.078 349.781L953.104 349.779L954.945 348.907L953.078 349.781ZM950.469 353.185L950.448 353.184L948.297 354.205L950.469 353.185ZM952.372 352.269L952.407 352.271L955.76 350.684L955.701 350.685L955.287 350.882L952.372 352.269ZM950.179 352.224H950.252L953.348 350.751L953.268 350.755L950.179 352.224ZM947.861 352.241L947.932 352.239L950.757 350.895L950.698 350.9L947.861 352.241ZM945.472 352.317H945.48L945.986 352.077L945.472 352.317ZM942.872 355.718H942.837L939.892 357.116L942.872 355.718ZM944.762 354.802L944.81 354.803L948.216 353.19L948.145 353.192L947.69 353.408L944.762 354.802ZM942.564 354.757L942.641 354.758L945.78 353.263L945.698 353.267L942.564 354.757ZM940.277 354.767L940.33 354.766L943.183 353.408L943.146 353.412L940.277 354.767ZM935.271 358.245H935.233L931.894 359.83L935.271 358.245ZM937.161 357.329L937.213 357.33L940.61 355.721L940.535 355.722L940.091 355.934L937.161 357.329ZM934.97 357.288H935.03L938.173 355.793L938.106 355.797L934.97 357.288ZM932.689 357.3L932.73 357.299L935.585 355.942L935.56 355.943L932.689 357.3ZM846.188 386.556L846.039 386.627L846.146 386.604L846.293 386.535L846.188 386.556ZM927.662 360.774H927.643L925.778 361.659L927.662 360.774ZM929.563 359.861L929.596 359.863L932.996 358.254L932.94 358.255L932.499 358.464L929.563 359.861ZM927.393 359.816H927.444L930.583 358.322L930.531 358.324L927.393 359.816ZM925.108 359.832H925.146L928.003 358.472L927.98 358.474L925.108 359.832ZM922.716 359.907L922.729 359.906L923.863 359.369L922.716 359.907ZM838.582 389.092L838.454 389.153L838.563 389.13L838.688 389.071L838.582 389.092ZM842.38 387.29L842.083 387.431L842.172 387.413L842.464 387.274L842.38 387.29ZM920.068 363.307H920.057L919.006 363.806L920.068 363.307ZM921.98 362.392H922.005L925.411 360.781L925.362 360.782L924.915 360.996L921.98 362.392ZM919.814 362.347H919.859L922.999 360.853L922.95 360.855L919.814 362.347ZM917.511 362.361L917.573 362.359L920.427 361L920.384 361.003L917.511 362.361ZM915.116 362.439L915.129 362.438L916.052 362L915.116 362.439ZM831.008 391.613L830.866 391.681L830.973 391.659L831.114 391.592L831.008 391.613ZM834.775 389.826L834.502 389.955L834.589 389.937L834.857 389.81L834.775 389.826ZM838.682 387.983L838.242 388.19L838.28 388.182L838.708 387.979L838.682 387.983ZM912.481 365.84H912.473L911.778 366.169L912.481 365.84ZM914.403 364.922L914.425 364.923L917.831 363.311L917.787 363.312L917.33 363.529L914.403 364.922ZM912.212 364.878H912.278L915.421 363.384L915.349 363.387L912.212 364.878ZM909.917 364.89L909.975 364.889L912.832 363.53L912.789 363.532L909.917 364.89ZM907.519 364.971L907.53 364.97L908.244 364.631L907.519 364.971ZM823.42 394.143L823.265 394.216L823.369 394.194L823.518 394.124L823.42 394.143ZM827.21 392.345L826.919 392.483L826.997 392.467L827.286 392.331L827.21 392.345ZM831.088 390.517L830.668 390.714L830.695 390.708L831.108 390.513L831.088 390.517ZM904.901 368.37H904.873L902.167 369.654L904.901 368.37ZM906.807 367.451L906.848 367.452L910.247 365.843L910.184 365.844L909.735 366.057L906.807 367.451ZM904.617 367.408H904.679L907.817 365.916L907.747 365.92L904.617 367.408ZM902.327 367.419L902.383 367.418L905.233 366.062L905.194 366.065L902.327 367.419ZM899.928 367.5H899.937L900.503 367.231L899.928 367.5ZM815.811 396.683L815.702 396.734L815.802 396.713L815.907 396.664L815.811 396.683ZM819.626 394.873L819.321 395.018L819.397 395.003L819.695 394.86L819.626 394.873ZM823.526 393.036L823.092 393.239L823.113 393.236L823.538 393.033L823.526 393.036ZM897.303 370.9H897.28L894.98 371.991L897.303 370.9ZM899.213 369.981L899.252 369.981L902.645 368.375L902.585 368.376L902.142 368.587L899.213 369.981ZM897.026 369.938H897.086L900.219 368.447L900.153 368.45L897.026 369.938ZM894.735 369.95L894.79 369.948L897.636 368.593L897.6 368.596L894.735 369.95ZM892.342 370.029H892.346L892.694 369.864L892.342 370.029ZM808.261 399.195L808.108 399.267L808.204 399.248L808.353 399.178L808.261 399.195ZM812.021 397.413L811.763 397.535L811.835 397.52L812.087 397.4L812.021 397.413ZM815.945 395.563L815.491 395.776L815.511 395.772L815.957 395.561L815.945 395.563ZM889.706 373.431H889.683L887.588 374.426L889.706 373.431ZM891.614 372.513L891.65 372.515L895.052 370.904H894.995L894.549 371.117L891.614 372.513ZM889.431 372.469L889.489 372.47L892.628 370.978L892.562 370.981L889.431 372.469ZM887.137 372.483L887.189 372.482L890.041 371.124L890.007 371.127L887.137 372.483ZM884.749 372.561H884.756L885.326 372.29L884.749 372.561ZM796.969 403.484L796.963 403.486L797.073 403.463M800.647 401.735L800.524 401.793L800.634 401.77L800.753 401.714L800.647 401.735ZM804.456 399.928L804.154 400.071L804.24 400.054L804.536 399.913L804.456 399.928ZM808.322 398.105L807.921 398.294L807.954 398.288L808.346 398.102L808.322 398.105ZM882.116 375.96H882.096L880.139 376.889L882.116 375.96ZM884.023 375.043L884.058 375.044L887.46 373.434L887.403 373.436L886.957 373.647L884.023 375.043ZM881.844 374.998H881.903L885.035 373.508L884.973 373.51L881.844 374.998ZM879.548 375.013L879.6 375.012L882.45 373.657L882.413 373.659L879.548 375.013ZM877.156 375.092H877.162L877.618 374.876L877.156 375.092ZM793.051 404.26L792.89 404.336L793.019 404.31L793.175 404.236L793.051 404.26ZM796.819 402.472L796.548 402.601L796.653 402.58L796.919 402.454L796.819 402.472ZM800.737 400.626L800.292 400.835L800.345 400.824L800.781 400.617L800.737 400.626ZM876.439 377.571L876.473 377.572L879.859 375.969H879.804L879.369 376.177L876.439 377.571ZM874.26 377.525H874.321L877.446 376.037L877.381 376.041L874.26 377.525ZM871.962 377.541L872.015 377.54L874.86 376.185L874.826 376.188L871.962 377.541ZM869.573 377.619L869.579 377.618L870.075 377.383L869.573 377.619ZM781.764 408.548L781.757 408.551L781.853 408.532L781.857 408.53L781.764 408.548ZM785.446 406.797L785.327 406.854L785.425 406.834L785.54 406.779L785.446 406.797ZM789.263 404.989L788.948 405.137L789.019 405.123L789.328 404.977L789.263 404.989ZM793.144 403.16L792.726 403.357L792.741 403.354L793.148 403.16L793.144 403.16ZM859.678 381.246L859.645 381.248L857.869 382.087L857.915 382.086L859.678 381.246ZM866.658 380.06L866.718 380.061L869.864 378.564L869.8 378.567L866.658 380.06ZM864.362 380.076L864.412 380.075L867.284 378.71L867.249 378.712L864.362 380.076ZM861.97 380.155H861.975L862.326 379.989L861.97 380.155ZM777.882 409.316L777.72 409.394L777.815 409.375L777.975 409.298L777.882 409.316ZM781.656 407.528L781.389 407.653L781.464 407.639L781.724 407.515L781.656 407.528ZM785.577 405.679L785.118 405.895L785.144 405.89L785.594 405.677L785.577 405.679ZM721.15 433.722L721.158 433.718L721.205 433.699H721.207L722.534 433.149V433.148L723.27 432.841H723.269L721.521 433.566H721.519L719.765 434.286L719.764 434.288L719.656 434.333L719.901 434.233L719.902 434.234L721.141 433.726V433.725L721.15 433.722ZM662.574 453.071V453.072L662.495 453.093C643.771 458.224 624.027 462.942 604.014 466.874C633.287 461.122 661.977 453.693 687.754 445.745C684.055 446.885 680.276 448.021 676.431 449.146C671.93 450.463 667.307 451.774 662.578 453.07L662.574 453.071ZM345.989 274.891C323.137 271.775 288.651 275.135 238.078 282.508C284.56 275.906 316.782 273.036 338.587 276.009C360.605 279.011 372.109 287.877 376.925 304.708C381.705 321.412 379.839 345.962 375.134 380.464C374.092 388.113 373.794 395.226 374.185 401.824C374.586 408.599 375.714 414.839 377.504 420.568C379.983 428.504 383.74 435.469 388.603 441.541C393.691 447.896 399.994 453.28 407.313 457.787C414.328 462.107 422.284 465.628 431.008 468.429C440.179 471.374 450.198 473.527 460.866 474.981C487.717 478.641 518.683 477.892 550.655 474.271C558.038 473.435 565.476 472.445 572.927 471.322C535.754 476.459 499.286 478.091 468.262 473.861C446.607 470.908 427.594 465.098 412.83 455.638C398.03 446.153 387.496 433.001 382.846 415.384C379.993 404.576 379.359 392.09 381.314 377.746C390.616 309.528 388.761 280.723 345.989 274.891ZM1021.45 327.006L1022.13 326.685L1021.45 327.007L1021.45 327.006ZM1016.29 329.462L1019.11 328.12L1019.07 328.123L1016.23 329.463L1016.29 329.462ZM1011 331.98L1014.09 330.511L1014.02 330.513L1010.94 331.98H1011ZM1005.58 334.55L1008.9 332.976L1008.84 332.977L1008.42 333.176L1005.54 334.547L1005.58 334.55ZM1001.43 336.5L1003.56 335.501H1003.54L1001.43 336.5ZM873.625 378.908L873.647 378.903L874.533 378.487H874.513L873.625 378.908ZM869.41 379.834L869.489 379.817L872.281 378.494L872.223 378.495L871.778 378.707L869.41 379.834ZM861.23 381.563L861.332 381.542L862.262 381.099L862.198 381.103L861.23 381.563ZM846.306 385.447L846.273 385.453L845.842 385.656L845.882 385.647L846.306 385.447ZM850.062 384.742L849.976 384.759L849.691 384.894L849.781 384.876L850.062 384.742ZM5.04775 0C39.4372 94.963 128.498 255.413 332.338 223.833C356.942 220.022 379.714 216.4 400.673 213.069C497.428 197.688 555.559 188.447 589.026 193.01C632.63 198.956 634.559 228.049 625.166 296.932C623.71 307.614 623.701 317.252 624.985 325.92C627.971 346.086 637.964 361.014 652.977 371.685C668.029 382.382 688.136 388.819 711.299 391.977C743.926 396.426 782.615 394.372 821.808 388.57C822.821 388.246 823.771 387.951 824.654 387.685C825.585 387.404 826.547 387.123 827.529 386.844H827.531C828.362 386.609 829.18 386.383 829.981 386.169C830.772 385.957 831.582 385.749 832.408 385.543C834.468 384.829 836.517 384.154 838.557 383.521C841.075 382.63 843.576 381.795 846.061 381.022C848.611 380.118 851.142 379.272 853.659 378.489C856.207 377.586 858.737 376.739 861.253 375.957C863.82 375.047 866.369 374.194 868.904 373.407C871.429 372.512 873.937 371.674 876.431 370.897C878.975 369.996 881.503 369.151 884.014 368.369C886.579 367.46 889.125 366.607 891.657 365.821C894.199 364.92 896.726 364.073 899.237 363.293C901.765 362.397 904.278 361.556 906.775 360.779C909.339 359.87 911.886 359.018 914.417 358.231C915.092 357.991 915.765 357.756 916.438 357.525C918.282 356.892 920.116 356.291 921.942 355.724C922.638 355.478 923.334 355.234 924.027 354.995C925.868 354.363 927.698 353.765 929.521 353.197C930.222 352.949 930.92 352.705 931.618 352.465C933.453 351.835 935.278 351.24 937.097 350.673C937.801 350.422 938.505 350.176 939.207 349.935C941.052 349.302 942.886 348.701 944.713 348.133C945.409 347.885 946.105 347.643 946.799 347.404C948.649 346.769 950.489 346.167 952.322 345.598C953.014 345.353 953.702 345.112 954.39 344.875C956.25 344.236 958.099 343.632 959.941 343.059C960.624 342.816 961.304 342.579 961.983 342.346C963.855 341.703 965.717 341.095 967.57 340.519C968.241 340.281 968.91 340.047 969.579 339.817C971.383 339.197 973.178 338.612 974.967 338.054C975.699 337.793 976.43 337.537 977.161 337.286C978.975 336.664 980.78 336.073 982.577 335.513C983.301 335.256 984.024 335.004 984.746 334.755C986.59 334.122 988.424 333.522 990.25 332.954C990.947 332.707 991.642 332.464 992.335 332.226C994.248 331.568 996.153 330.947 998.047 330.359C998.679 330.136 999.308 329.915 999.938 329.699C1001.82 329.053 1003.69 328.442 1005.55 327.864C1006.21 327.628 1006.88 327.397 1007.54 327.171C1009.39 326.535 1011.23 325.934 1013.06 325.364C1013.75 325.119 1014.44 324.877 1015.13 324.641C1016.98 324.006 1018.82 323.404 1020.65 322.835C1021.34 322.589 1022.03 322.348 1022.72 322.112C1024.57 321.476 1026.41 320.876 1028.24 320.305C1028.93 320.06 1029.62 319.818 1030.31 319.582C1032.16 318.947 1034 318.345 1035.83 317.776C1036.52 317.531 1037.21 317.289 1037.9 317.053C1039.75 316.418 1041.59 315.815 1043.42 315.246C1044.11 315.002 1044.8 314.76 1045.49 314.524C1047.34 313.888 1049.18 313.286 1051.01 312.717C1051.71 312.472 1052.39 312.23 1053.08 311.994C1054.93 311.359 1056.77 310.758 1058.6 310.188C1059.29 309.943 1059.98 309.701 1060.67 309.465C1062.52 308.829 1064.36 308.229 1066.2 307.658C1066.89 307.413 1067.57 307.171 1068.26 306.935C1131.87 285.087 1184.97 300.129 1241.97 466.037C1257.45 511.107 1269.63 546.516 1280 573.592H1278.99C1268.62 546.501 1256.47 511.18 1241.07 466.346C1189.26 315.537 1140.82 289.921 1084.77 303.107C1138.03 294.005 1184.73 324.039 1234.38 468.567C1249.38 512.245 1261.28 546.852 1271.44 573.592H1270.44C1260.28 546.844 1248.4 512.328 1233.47 468.875C1181.67 318.067 1133.23 292.451 1077.18 305.637C1130.44 296.535 1177.14 326.567 1226.78 471.096C1241.32 513.41 1252.95 547.21 1262.9 573.592H1261.89C1251.94 547.207 1240.34 513.499 1225.88 471.404C1174.08 320.595 1125.63 294.982 1069.59 308.166C1122.85 299.064 1169.55 329.098 1219.19 473.625C1233.27 514.599 1244.62 547.589 1254.35 573.592H1253.35C1243.61 547.592 1232.29 514.697 1218.29 473.934C1166.49 323.125 1118.04 297.51 1062 310.695C1115.26 301.594 1161.96 331.627 1211.6 476.155C1225.22 515.811 1236.29 547.989 1245.82 573.592H1244.81C1235.29 547.999 1224.25 515.914 1210.7 476.463C1158.9 325.655 1110.45 300.039 1054.4 313.225C1107.66 304.123 1154.37 334.157 1204.01 478.684C1217.19 517.045 1227.98 548.409 1237.29 573.592H1236.28C1226.97 548.423 1216.22 517.156 1203.11 478.992C1152.27 331 1104.67 303.569 1049.95 315.056L1049.22 315.365C1101.48 307.58 1147.52 338.864 1196.42 481.214C1209.16 518.301 1219.67 548.848 1228.77 573.592H1227.76C1218.67 548.868 1208.19 518.415 1195.52 481.522C1145.67 336.399 1098.93 307.206 1045.53 316.96L1044.21 317.539C1095.42 311.172 1140.74 343.747 1188.83 483.743C1201.14 519.576 1211.36 549.304 1220.25 573.592H1219.24C1210.36 549.329 1200.17 519.698 1187.93 484.051C1139.03 341.703 1093.13 310.894 1041 318.972L1039.2 319.783C1089.35 314.83 1133.96 348.628 1181.24 486.273C1193.12 520.872 1203.06 549.778 1211.73 573.592H1210.73C1202.07 549.807 1192.16 520.998 1180.34 486.581C1132.36 346.908 1087.26 314.619 1036.34 321.087L1034.15 322.097C1083.26 318.535 1127.17 353.487 1173.65 488.802C1183.3 516.899 1191.67 541.245 1199.1 562.104C1200.51 566.055 1201.89 569.884 1203.23 573.592H1202.22C1200.91 569.982 1199.57 566.259 1198.21 562.421C1190.74 541.471 1182.38 517.161 1172.75 489.111C1125.65 352.019 1081.34 318.377 1031.56 323.296L1029.04 324.478C1077.16 322.274 1120.36 358.3 1166.06 491.331C1176.02 520.333 1184.62 545.346 1192.26 566.723C1193.09 569.056 1193.91 571.346 1194.72 573.592H1193.71C1192.94 571.447 1192.15 569.266 1191.36 567.043C1183.73 545.674 1175.12 520.653 1165.16 491.64C1118.91 357.024 1075.35 322.156 1026.66 325.594L1023.83 326.931C1071 326.024 1113.52 363.033 1158.46 493.861C1168.79 523.932 1177.66 549.709 1185.45 571.43L1186.22 573.592H1185.21L1184.55 571.75C1176.68 549.79 1167.85 524.111 1157.56 494.169C1112.13 361.906 1069.28 325.936 1021.62 327.981L1018.53 329.448C1064.78 329.78 1106.66 367.685 1150.87 496.39C1161.14 526.272 1169.96 551.924 1177.72 573.592H1176.71C1168.91 551.796 1160.15 526.331 1149.97 496.699C1105.31 366.672 1063.14 329.714 1016.44 330.445L1016.01 330.647L1013.13 332.019C1058.52 333.526 1099.77 372.246 1143.28 498.92C1153.15 527.645 1161.68 552.453 1169.23 573.592H1168.22C1160.65 552.382 1152.18 527.737 1142.38 499.228C1098.44 371.317 1056.92 333.473 1011.13 332.973L1007.61 334.642C1052.18 337.253 1092.84 376.702 1135.69 501.449C1145.16 529.016 1153.4 552.978 1160.73 573.592H1159.72C1152.4 552.984 1144.2 529.153 1134.79 501.758C1091.54 375.856 1050.64 337.21 1005.69 335.549L1001.94 337.313C1045.76 340.942 1085.87 381.028 1128.1 503.978C1137.19 530.425 1145.14 553.552 1152.25 573.592H1151.24C1144.14 553.577 1136.23 530.573 1127.2 504.287C1084.6 380.26 1044.26 340.905 1000.11 338.172C998.791 338.785 997.472 339.398 996.148 340.01C1039.27 344.583 1078.85 385.243 1120.51 506.508C1129.21 531.846 1136.88 554.137 1143.76 573.592H1142.75C1135.89 554.177 1128.26 532.003 1119.61 506.816C1077.59 384.499 1037.78 344.543 994.336 340.844C992.961 341.475 991.581 342.105 990.196 342.731C1032.68 348.159 1071.79 389.312 1112.92 509.037C1121.25 533.275 1128.62 554.728 1135.27 573.592H1134.26C1127.64 554.793 1120.3 533.446 1112.02 509.346C1070.54 388.602 1031.22 348.113 988.419 343.531C986.977 344.18 985.527 344.826 984.072 345.467C1025.99 351.649 1064.68 393.22 1105.33 511.567C1113.29 534.731 1120.37 555.348 1126.79 573.592H1125.78C1119.39 555.417 1112.34 534.905 1104.43 511.875C1063.43 392.533 1024.54 351.594 982.318 346.238C980.813 346.895 979.301 347.549 977.782 348.196C1019.2 355.046 1057.51 396.974 1097.74 514.096C1105.33 536.198 1112.13 555.983 1118.31 573.592H1117.3C1111.15 556.045 1104.38 536.37 1096.84 514.405C1056.26 396.285 1017.75 354.972 976.023 348.943C974.451 349.607 972.872 350.265 971.284 350.916C1012.29 358.321 1050.27 400.536 1090.15 516.625C1097.38 537.674 1103.89 556.619 1109.83 573.592H1108.83C1102.91 556.691 1096.43 537.851 1089.25 516.934C1049.02 399.835 1010.82 358.225 969.511 351.64C967.86 352.31 966.199 352.971 964.531 353.623C968.461 354.382 972.365 355.461 976.246 356.9C1012.54 370.35 1046.79 415.034 1082.55 519.155C1089.43 539.162 1095.65 557.27 1101.36 573.592H1100.35C1094.67 557.346 1088.48 539.342 1081.65 519.463C1046 415.658 1011.94 371.145 975.919 357.793C971.587 356.188 967.227 355.037 962.829 354.285C961.082 354.959 959.325 355.624 957.56 356.275C962.018 357.175 966.441 358.492 970.838 360.279C1006.32 374.696 1039.91 419.651 1074.96 521.684C1081.48 540.663 1087.42 557.934 1092.88 573.592H1091.88C1086.44 558.014 1080.54 540.847 1074.06 521.992C1039.12 420.26 1005.71 375.476 970.48 361.16C965.631 359.189 960.743 357.8 955.812 356.916C953.982 357.581 952.141 358.235 950.291 358.873C955.367 359.92 960.398 361.509 965.395 363.72C1000.09 379.065 1033.03 424.24 1067.37 524.213C1073.54 542.177 1079.19 558.61 1084.41 573.592H1083.4C1078.21 558.689 1072.6 542.362 1066.47 524.522C1032.23 424.836 999.463 379.829 965.012 364.59C959.551 362.175 954.045 360.51 948.479 359.492C946.725 360.086 944.963 360.666 943.191 361.232L942.695 361.403C948.492 362.598 954.231 364.503 959.929 367.229C993.842 383.465 1026.14 428.812 1059.78 526.743C1065.61 543.702 1070.97 559.294 1075.94 573.592H1074.93C1069.99 559.378 1064.66 543.886 1058.88 527.051C1025.33 429.392 993.204 384.21 959.519 368.085C953.37 365.142 947.166 363.169 940.886 362.022C939.134 362.615 937.372 363.196 935.6 363.761L935.105 363.933C941.615 365.276 948.053 367.511 954.439 370.803C987.586 387.887 1019.24 433.361 1052.19 529.272C1057.67 545.236 1062.75 559.989 1067.47 573.592H1066.46C1061.77 560.073 1056.73 545.422 1051.29 529.581C1018.43 433.931 986.935 388.621 954.003 371.646C947.174 368.127 940.278 365.829 933.292 364.552C931.54 365.147 929.779 365.726 928.009 366.29L927.519 366.46C934.736 367.949 941.864 370.54 948.93 374.445C981.321 392.344 1012.34 437.899 1044.6 531.801C1049.75 546.781 1054.53 560.695 1059 573.592H1057.99C1053.55 560.78 1048.8 546.969 1043.7 532.11C1011.53 438.46 980.661 393.066 948.473 375.279C940.97 371.133 933.39 368.489 925.702 367.082C923.95 367.675 922.188 368.254 920.418 368.82L919.921 368.992C927.848 370.626 935.668 373.587 943.416 378.161C975.059 396.843 1005.44 442.434 1037.01 534.331C1041.82 548.336 1046.31 561.408 1050.53 573.592H1049.52C1045.34 561.496 1040.88 548.525 1036.11 534.639C1004.62 442.983 974.383 397.549 942.932 378.98C934.757 374.153 926.494 371.148 918.101 369.614C916.352 370.206 914.594 370.785 912.827 371.349L912.33 371.522C920.969 373.303 929.478 376.659 937.909 381.962C968.803 401.398 998.545 446.98 1029.42 536.86C1033.9 549.902 1038.1 562.133 1042.07 573.592H1041.06C1037.13 562.221 1032.96 550.093 1028.52 537.169C997.722 447.517 968.116 402.088 937.402 382.766C928.554 377.198 919.608 373.806 910.508 372.145C908.76 372.736 907.003 373.314 905.236 373.879L904.735 374.052C914.101 375.984 923.317 379.766 932.441 385.873C962.575 406.043 991.661 451.57 1021.83 539.39C1025.98 551.476 1029.89 562.866 1033.6 573.592H1032.59C1028.92 562.956 1025.04 551.668 1020.93 539.698C990.835 452.095 961.877 406.717 931.914 386.662C922.379 380.279 912.735 376.467 902.914 374.675C901.167 375.266 899.41 375.844 897.645 376.408L897.144 376.582C907.28 378.67 917.24 382.929 927.099 389.956C956.432 410.863 984.82 456.284 1014.24 541.919C1018.06 553.06 1021.69 563.609 1025.14 573.592H1024.13C1020.71 563.701 1017.12 553.254 1013.34 542.228C983.989 456.797 955.722 411.523 926.548 390.729C916.287 383.416 905.907 379.138 895.32 377.205C893.574 377.797 891.818 378.372 890.054 378.937L889.564 379.107C900.593 381.382 911.409 386.229 922.114 394.408C950.526 416.117 978.1 461.349 1006.65 544.448C1010.15 554.651 1013.49 564.361 1016.67 573.592H1015.66C1012.51 564.453 1009.21 554.847 1005.74 544.757C977.266 461.85 949.801 416.759 921.537 395.162C910.437 386.681 899.206 381.829 887.735 379.732C885.925 380.346 884.105 380.944 882.276 381.527L881.95 381.639C894.342 384.193 906.469 389.986 918.467 400.11C945.49 422.917 971.83 467.724 999.054 546.978C1002.24 556.254 1005.29 565.12 1008.21 573.592H1007.2C1004.31 565.214 1001.3 556.45 998.153 547.286C970.989 468.208 944.747 423.534 917.853 400.836C905.471 390.386 892.946 384.602 880.12 382.264C878.522 382.805 876.918 383.334 875.306 383.852C875.774 383.954 876.283 384.071 876.829 384.202C880.249 385.023 883.647 386.093 887.022 387.435C890.406 388.781 893.769 390.399 897.108 392.31C899.918 393.918 902.727 395.745 905.53 397.796C908.328 399.845 911.117 402.117 913.893 404.617C915.451 406.019 917.008 407.495 918.559 409.043C920.098 410.579 921.651 412.208 923.213 413.932C924.397 415.238 925.582 416.596 926.765 418.002C927.957 419.418 929.141 420.87 930.312 422.353C931.298 423.601 932.294 424.895 933.296 426.231C934.298 427.568 935.294 428.93 936.278 430.318C937.133 431.523 938.006 432.781 938.888 434.08C939.762 435.366 940.626 436.665 941.478 437.975C942.28 439.207 943.055 440.424 943.807 441.627C944.588 442.875 945.364 444.14 946.134 445.412C946.814 446.536 947.525 447.732 948.262 448.993C948.982 450.224 949.693 451.458 950.392 452.691C951.687 454.975 953 457.355 954.33 459.841C954.939 460.978 955.553 462.139 956.168 463.317C956.844 464.612 957.462 465.807 958.008 466.882C958.554 467.956 959.134 469.111 959.734 470.32C960.309 471.48 960.886 472.655 961.459 473.836C962.039 475.026 962.582 476.156 963.097 477.239C963.646 478.391 964.194 479.553 964.736 480.717C965.178 481.669 965.693 482.783 966.293 484.093C966.817 485.238 967.34 486.389 967.853 487.536C968.386 488.726 968.883 489.843 969.341 490.884C969.844 492.029 970.342 493.168 970.828 494.296L970.826 494.297C971.311 495.417 971.785 496.525 972.25 497.623C972.775 498.859 973.247 499.981 973.675 501.005C974.097 502.016 974.559 503.132 975.042 504.31C975.561 505.572 976.027 506.713 976.414 507.668C978.973 513.992 981.551 520.635 984.143 527.604C986.74 534.584 989.33 541.831 991.914 549.353C994.804 557.768 997.578 565.842 1000.25 573.592H998.235C995.629 566.029 992.925 558.16 990.112 549.97C987.45 542.22 984.808 534.835 982.19 527.805C979.568 520.765 976.941 514.012 974.311 507.538C973.785 506.244 973.326 505.123 972.937 504.179C972.54 503.219 972.086 502.128 971.561 500.877C971.045 499.648 970.568 498.522 970.128 497.492C969.603 496.262 969.134 495.172 968.698 494.168C968.257 493.151 967.753 492.006 967.201 490.759C966.695 489.617 966.196 488.501 965.706 487.413C965.181 486.244 964.657 485.095 964.141 483.972V483.97C963.615 482.826 963.093 481.702 962.576 480.599C962.026 479.423 961.476 478.263 960.932 477.125C960.382 475.976 959.835 474.841 959.289 473.725C958.767 472.657 958.193 471.495 957.552 470.21C956.93 468.963 956.348 467.81 955.819 466.777C955.214 465.596 954.591 464.404 953.961 463.209C953.345 462.044 952.727 460.885 952.104 459.733C951.476 458.57 950.815 457.36 950.124 456.109C949.474 454.935 948.815 453.761 948.148 452.594C947.419 451.321 946.699 450.088 945.99 448.892C945.262 447.667 944.542 446.473 943.832 445.311C943.066 444.057 942.279 442.796 941.481 441.537C940.666 440.254 939.873 439.028 939.107 437.866V437.864C938.237 436.546 937.354 435.237 936.464 433.945C935.578 432.66 934.696 431.409 933.82 430.196C932.819 428.808 931.805 427.44 930.782 426.096C929.779 424.778 928.763 423.482 927.741 422.214C926.506 420.684 925.277 419.215 924.059 417.812C922.837 416.404 921.606 415.038 920.372 413.718L920.373 413.717C918.739 411.969 917.091 410.3 915.433 408.707C913.788 407.127 912.136 405.631 910.485 404.219C904.079 398.743 897.634 394.521 891.135 391.39C884.681 388.281 878.167 386.245 871.577 385.118C870.602 385.448 869.591 385.782 868.554 386.117V386.118L866.991 386.62C866.219 386.888 865.449 387.152 864.677 387.413C862.956 387.996 861.224 388.567 859.485 389.122C857.005 389.982 854.51 390.815 852.003 391.616C849.5 392.485 846.981 393.325 844.445 394.135C841.947 395.002 839.432 395.841 836.902 396.649C834.392 397.52 831.863 398.363 829.315 399.177C826.8 400.05 824.267 400.894 821.716 401.709C819.2 402.581 816.665 403.428 814.112 404.243C811.605 405.112 809.079 405.955 806.537 406.767C804.024 407.639 801.492 408.484 798.94 409.299C796.428 410.169 793.898 411.013 791.349 411.827C788.83 412.7 786.293 413.548 783.737 414.364C781.238 415.23 778.721 416.07 776.185 416.88C773.672 417.752 771.138 418.596 768.587 419.412C766.075 420.282 763.547 421.127 760.999 421.941C758.483 422.812 755.949 423.659 753.394 424.474C750.894 425.34 748.376 426.181 745.839 426.992C743.324 427.863 740.79 428.708 738.237 429.524C735.715 430.398 733.175 431.247 730.615 432.064C728.004 432.969 725.373 433.847 722.721 434.691C720.24 435.548 717.743 436.378 715.226 437.18L714.241 437.52C710.448 439.004 706.611 440.441 702.732 441.816C698.85 443.192 694.92 444.511 690.946 445.752C652.626 457.727 607.545 468.638 563.558 474.58C526.988 479.522 491.169 481.03 460.613 476.863C449.821 475.392 439.681 473.212 430.395 470.227C421.542 467.382 413.456 463.801 406.314 459.403C398.805 454.779 392.336 449.248 387.107 442.718C382.103 436.466 378.237 429.297 375.686 421.132C373.853 415.269 372.699 408.888 372.288 401.961C371.89 395.238 372.19 387.996 373.251 380.213C377.894 346.165 379.755 321.961 375.13 305.582C370.542 289.333 359.503 280.777 338.334 277.891C305.073 273.356 247.027 282.583 150.425 297.939L150.419 297.942L150.387 297.946V297.945L150.043 298C129.286 301.299 106.742 304.883 82.0525 308.708C52.3228 313.315 25.0561 313.808 0.000286796 311.077V310.123V309.154C24.9607 311.901 52.1313 311.425 81.764 306.834L84.9495 306.34C54.039 310.724 25.7939 310.678 0.000286796 307.119V306.166C27.0348 309.918 56.7387 309.838 89.4274 304.773C114.031 300.962 136.803 297.34 157.761 294.009C254.517 278.628 312.647 269.387 346.115 273.951C389.719 279.896 391.647 308.989 382.254 377.872C380.317 392.089 380.942 404.453 383.764 415.143C388.348 432.51 398.74 445.479 413.344 454.839C427.986 464.221 446.868 469.986 468.387 472.92C513.03 479.009 569.001 472.923 622.096 461.717C571.26 471.904 518.43 477.137 475.852 471.332C454.553 468.428 435.805 462.757 421.146 453.566C406.447 444.351 395.856 431.599 390.907 414.555C387.659 403.363 386.846 390.32 388.905 375.217C398.207 306.999 396.352 278.194 353.58 272.362C320.247 267.817 262.167 277.05 165.501 292.417C144.612 295.738 121.917 299.346 97.1628 303.181C61.3517 308.729 29.0728 308.37 0.000286796 303.493V302.52C29.0235 307.412 61.2536 307.784 97.0185 302.244C121.622 298.433 144.394 294.811 165.353 291.48C262.108 276.099 320.238 266.857 353.706 271.421C397.31 277.366 399.238 306.46 389.846 375.342C387.805 390.31 388.608 403.221 391.82 414.29C396.699 431.095 407.148 443.671 421.648 452.762C436.188 461.878 454.806 467.504 475.978 470.391C520.643 476.481 576.646 470.387 629.763 459.171C578.903 469.368 526.042 474.61 483.443 468.802C462.167 465.902 443.44 460.242 428.788 451.069C414.098 441.872 403.501 429.149 398.533 412.143C395.256 400.924 394.429 387.843 396.496 372.687C405.798 304.469 403.943 275.664 361.172 269.832C327.838 265.287 269.759 274.521 173.092 289.887C152.203 293.208 129.508 296.816 104.754 300.651C65.7835 306.689 31.0256 305.689 0.00071699 299.526V298.548C30.9741 304.73 65.6843 305.744 104.61 299.714C129.213 295.903 151.985 292.282 172.944 288.95C269.699 273.569 327.83 264.328 361.297 268.891C404.901 274.837 406.83 303.93 397.437 372.813C395.389 387.832 396.205 400.783 399.445 411.878C404.343 428.643 414.797 441.192 429.29 450.265C443.821 459.362 462.422 464.979 483.569 467.861C528.135 473.938 583.986 467.883 636.997 456.716C586.248 466.865 533.534 472.068 491.036 466.273C469.716 463.365 450.956 457.689 436.292 448.485C421.591 439.259 411.001 426.49 406.067 409.415C402.837 398.241 402.033 385.224 404.087 370.158C413.389 301.94 411.534 273.135 368.763 267.303C335.429 262.758 277.35 271.991 180.683 287.358C159.794 290.679 137.099 294.287 112.345 298.122C70.1619 304.658 32.9134 302.949 0.000286796 295.361V294.374C32.8621 301.985 70.0608 303.713 112.2 297.185C136.804 293.374 159.576 289.752 180.534 286.421C277.29 271.04 335.42 261.799 368.888 266.362C412.492 272.308 414.42 301.401 405.027 370.284C402.991 385.213 403.786 398.1 406.979 409.151C411.843 425.982 422.29 438.577 436.798 447.682C451.341 456.81 469.972 462.443 491.161 465.332C535.775 471.415 591.699 465.342 644.762 454.151C593.959 464.324 541.173 469.546 498.625 463.743C477.248 460.829 458.445 455.13 443.762 445.882C429.042 436.61 418.462 423.773 413.576 406.607C410.414 395.495 409.64 382.571 411.677 367.629C420.98 299.411 419.124 270.606 376.353 264.774C343.019 260.228 284.941 269.462 188.274 284.829C167.384 288.15 144.689 291.758 119.936 295.593C74.4831 302.634 34.7372 300.139 0 290.987V289.988C34.6837 299.167 74.3792 301.692 119.791 294.656C144.394 290.845 167.166 287.223 188.125 283.892C284.88 268.511 343.011 259.27 376.478 263.833C420.083 269.778 422.011 298.872 412.618 367.754C410.599 382.561 411.363 395.357 414.49 406.346C419.307 423.27 429.744 435.929 444.269 445.078C458.831 454.25 477.506 459.907 498.751 462.803C543.361 468.886 599.282 462.814 652.342 451.625C601.543 461.796 548.762 467.016 506.218 461.214C484.776 458.291 465.922 452.566 451.22 443.268C436.481 433.947 425.911 421.035 421.079 403.761C417.991 392.719 417.25 379.898 419.268 365.099C428.57 296.881 426.715 268.076 383.944 262.245C350.611 257.699 292.531 266.933 195.865 282.3C174.975 285.62 152.28 289.229 127.527 293.064C78.73 300.623 36.5028 297.199 0.000286796 286.337V285.336C36.4468 296.233 78.6271 299.68 127.382 292.126C151.985 288.315 174.757 284.693 195.716 281.362C292.472 265.981 350.602 256.74 384.07 261.303C427.674 267.249 429.602 296.342 420.209 365.225C418.209 379.893 418.94 392.589 421.993 403.507C426.755 420.534 437.184 433.266 451.727 442.464C466.309 451.686 485.034 457.368 506.344 460.273C551.083 466.374 607.195 460.249 660.391 448.999C609.449 459.231 556.478 464.503 513.808 458.685C492.296 455.752 473.389 450 458.669 440.65C443.91 431.275 433.353 418.286 428.579 400.901C425.568 389.933 424.861 377.22 426.859 362.569C436.162 294.352 434.307 265.547 391.535 259.715C358.202 255.17 300.122 264.403 203.456 279.77C182.567 283.091 159.872 286.699 135.118 290.534C82.8924 298.625 38.2094 294.115 0.000143398 281.386V280.37C38.1513 293.139 82.7858 297.682 134.973 289.597C159.576 285.786 182.348 282.164 203.307 278.833C300.062 263.452 358.193 254.21 391.661 258.774C435.265 264.719 437.193 293.813 427.8 362.695C425.821 377.218 426.516 389.807 429.494 400.651C434.198 417.785 444.614 430.594 459.18 439.846C473.781 449.121 492.556 454.829 513.933 457.744C558.453 463.815 614.238 457.778 667.2 446.633C616.503 456.76 563.859 461.946 521.405 456.158C499.822 453.214 480.86 447.433 466.115 438.025C451.333 428.594 440.785 415.522 436.074 398.021C433.144 387.136 432.474 374.537 434.45 360.04C443.753 291.822 441.898 263.018 399.126 257.185C365.793 252.64 307.713 261.874 211.046 277.24C190.157 280.561 167.462 284.17 142.709 288.005C86.9836 296.637 39.8447 290.926 0.000286796 276.185V275.154C39.7835 289.944 86.8732 295.696 142.564 287.067C167.167 283.256 189.939 279.635 210.898 276.303C307.653 260.922 365.784 251.681 399.252 256.245C442.856 262.19 444.784 291.283 435.391 360.166C433.432 374.533 434.093 387.007 436.992 397.775C441.637 415.028 452.041 427.92 466.626 437.225C481.247 446.554 500.079 452.291 521.531 455.217C566.293 461.32 622.444 455.186 675.665 443.924C624.697 454.167 571.688 459.448 528.99 453.625C507.333 450.673 488.319 444.863 473.555 435.401C458.754 425.915 448.22 412.76 443.572 395.142C440.721 384.336 440.087 371.851 442.042 357.511C451.344 289.293 449.489 260.488 406.717 254.656C373.384 250.111 315.304 259.345 218.638 274.711C197.749 278.032 175.054 281.64 150.3 285.475C90.9988 294.662 41.4055 287.623 0.000286796 270.719V269.672C41.3426 286.632 90.8835 293.721 150.155 284.538C174.758 280.727 197.53 277.105 218.489 273.774C315.244 258.393 373.375 249.151 406.843 253.715C450.447 259.661 452.375 288.754 442.983 357.637C441.044 371.85 441.67 384.213 444.49 394.9C449.073 412.267 459.465 425.241 474.069 434.6C488.711 443.985 507.595 449.75 529.115 452.684C573.77 458.773 629.759 452.684 682.867 441.472C632.019 451.664 579.17 456.903 536.582 451.095C514.853 448.134 495.781 442.294 480.996 432.775C466.173 423.231 455.654 409.991 451.07 392.252C448.298 381.527 447.699 369.162 449.632 354.981C458.935 286.764 457.08 257.959 414.308 252.127C380.975 247.581 322.895 256.815 226.229 272.182C205.339 275.502 182.645 279.111 157.891 282.946C94.9297 292.7 42.8911 284.191 0.000286796 264.971V263.903C42.8242 283.188 94.8099 291.759 157.746 282.009C182.349 278.197 205.121 274.576 226.08 271.244C322.835 255.863 380.966 246.622 414.434 251.186C458.038 257.131 459.966 286.224 450.573 355.107C448.656 369.165 449.248 381.409 451.987 392.014C456.507 409.502 466.884 422.558 481.511 431.975C496.174 441.416 515.113 447.211 536.707 450.155C581.268 456.232 637.114 450.18 690.121 439.015C639.378 449.162 586.674 454.363 544.177 448.568C522.372 445.595 503.244 439.726 488.435 430.146C473.589 420.543 463.082 407.215 458.565 389.353C455.876 378.716 455.312 366.471 457.223 352.452C466.526 284.234 464.671 255.429 421.899 249.597C388.566 245.052 330.486 254.286 233.82 269.652C212.93 272.973 190.236 276.582 165.482 280.417C98.7553 290.754 44.3015 280.573 0.000286796 258.874V257.805C44.23 279.575 98.6354 289.813 165.337 279.48C189.94 275.668 212.712 272.047 233.671 268.715C330.426 253.334 388.557 244.093 422.025 248.656C465.629 254.602 467.557 283.695 458.164 352.578C456.27 366.472 456.826 378.598 459.487 389.122C463.94 406.733 474.305 419.877 488.951 429.35C503.636 438.849 522.631 444.672 544.303 447.628C589.007 453.723 645.069 447.611 698.229 436.378C647.325 446.593 594.4 451.851 551.76 446.036C529.882 443.052 510.699 437.153 495.872 427.516C481.006 417.856 470.514 404.442 466.065 386.457C463.454 375.906 462.925 363.782 464.814 349.923C474.117 281.705 472.261 252.9 429.49 247.068C396.156 242.522 338.077 251.756 241.41 267.123C220.521 270.444 197.826 274.052 173.073 277.887C102.478 288.825 45.6298 276.783 0.000286796 252.444V251.351C45.5547 275.772 102.352 287.883 172.928 276.95C197.531 273.139 220.303 269.517 241.262 266.186C338.017 250.805 396.148 241.564 429.616 246.127C473.22 252.072 475.148 281.166 465.755 350.048C463.882 363.786 464.404 375.792 466.987 386.23C471.373 403.962 481.722 417.189 496.388 426.72C511.092 436.276 530.142 442.129 551.885 445.095C596.436 451.17 652.271 445.122 705.269 433.961C654.534 444.103 601.84 449.3 559.353 443.507C537.401 440.514 518.159 434.584 503.31 424.888C488.422 415.167 477.946 401.665 473.564 383.553C471.033 373.089 470.538 361.087 472.405 347.393C481.708 279.175 479.853 250.371 437.081 244.538C403.748 239.993 345.668 249.227 249.001 264.593C228.112 267.914 205.417 271.523 180.664 275.357C106.096 286.91 46.8709 272.823 0.000286796 245.684V244.57C46.7909 271.8 105.964 285.971 180.519 274.421C205.122 270.61 227.894 266.988 248.853 263.657C345.608 248.276 403.739 239.034 437.207 243.598C480.811 249.543 482.739 278.637 473.346 347.519C471.495 361.095 471.983 372.981 474.486 383.33C478.806 401.188 489.14 414.503 503.826 424.091C518.552 433.707 537.661 439.591 559.479 442.566C604.058 448.644 659.935 442.586 712.963 431.412C662.198 441.568 609.462 446.777 566.945 440.979C544.914 437.975 525.614 432.014 510.746 422.258C495.836 412.477 485.376 398.887 481.064 380.645C478.612 370.272 478.152 358.394 479.996 344.864C489.299 276.646 487.443 247.841 444.672 242.009C411.338 237.464 353.259 246.697 256.593 262.064C235.703 265.385 213.009 268.993 188.255 272.828C109.602 285.013 48.0155 268.677 0.000286796 238.578V237.438C47.9309 267.639 109.462 284.076 188.11 271.891C212.713 268.08 235.485 264.458 256.444 261.127C353.199 245.746 411.33 236.505 444.798 241.068C488.402 247.014 490.33 276.107 480.937 344.99C479.109 358.4 479.563 370.164 481.99 380.429C486.24 398.411 496.557 411.813 511.266 421.462C526.013 431.138 545.178 437.053 567.071 440.038C611.757 446.132 667.799 440.028 720.944 428.801C670.057 439.009 617.161 444.26 574.534 438.448C552.427 435.434 533.074 429.442 518.182 419.625C503.253 409.784 492.808 396.103 488.566 377.736C486.192 367.453 485.765 355.7 487.587 342.335C496.89 274.117 495.035 245.312 452.263 239.48C418.93 234.935 360.85 244.168 264.184 259.535C243.294 262.856 220.6 266.464 195.846 270.299C112.984 283.136 49.062 264.322 0.000286796 231.102V229.936C48.9707 263.27 112.837 282.199 195.701 269.362C220.304 265.551 243.076 261.929 264.035 258.598C360.79 243.217 418.921 233.975 452.389 238.539C495.993 244.484 497.921 273.578 488.528 342.46C486.722 355.71 487.144 367.35 489.492 377.525C493.673 395.634 503.976 409.126 518.702 418.833C533.467 428.567 552.688 434.511 574.659 437.507C619.133 443.571 674.853 437.553 727.771 426.429C677.122 436.536 624.541 441.705 582.129 435.921C559.943 432.897 540.529 426.872 525.616 416.994C510.667 407.091 500.238 393.318 496.069 374.82C493.774 364.628 493.379 353.002 495.178 339.805C504.48 271.588 502.625 242.782 459.854 236.951C426.52 232.405 368.441 241.639 271.774 257.006C250.885 260.326 228.19 263.935 203.436 267.77C116.233 281.279 50.001 259.739 0.000286796 223.236V222.04C49.9029 258.669 116.077 280.344 203.292 266.832C227.895 263.021 250.667 259.4 271.626 256.068C368.381 240.687 426.512 231.446 459.98 236.01C503.584 241.955 505.512 271.048 496.119 339.931C494.336 353.015 494.723 364.53 496.996 374.613C501.106 392.85 511.392 406.432 526.14 416.202C540.927 425.996 560.207 431.974 582.255 434.98C626.971 441.078 683.054 434.963 736.226 423.724C685.311 433.944 632.372 439.205 589.716 433.389C567.453 430.354 547.983 424.298 533.052 414.361C518.08 404.395 507.67 390.532 503.574 371.904C501.354 361.807 500.993 350.308 502.769 337.276C512.072 269.058 510.217 240.253 467.445 234.421C434.112 229.876 376.032 239.109 279.366 254.476C258.476 257.797 235.782 261.405 211.028 265.24C119.337 279.445 50.8268 254.905 0.000286796 214.958V213.73C50.721 253.817 119.171 278.512 210.883 264.303C235.486 260.492 258.258 256.87 279.217 253.539C375.972 238.158 434.103 228.917 467.571 233.48C511.175 239.425 513.103 268.519 503.71 337.401C501.949 350.319 502.306 361.709 504.503 371.704C508.541 390.069 518.808 403.738 533.576 413.568C548.382 423.423 567.718 429.431 589.841 432.448C634.396 438.524 690.243 432.472 743.251 421.308C692.509 431.454 639.804 436.655 597.307 430.86C574.969 427.814 555.44 421.727 540.486 411.726C525.495 401.699 515.102 387.744 511.08 368.986C508.936 358.983 508.606 347.612 510.36 334.746C519.663 266.529 517.807 237.724 475.036 231.892C441.702 227.347 383.623 236.58 286.956 251.947C266.067 255.268 243.373 258.876 218.619 262.711C122.281 277.636 51.5317 249.795 0.000286796 206.242V204.98C51.4164 248.684 122.105 276.704 218.474 261.774C243.077 257.963 265.849 254.341 286.808 251.01C383.563 235.628 441.694 226.387 475.161 230.951C518.766 236.896 520.694 265.99 511.301 334.872C509.563 347.625 509.888 358.888 512.01 368.788C515.975 387.284 526.226 401.047 541.014 410.937C555.838 420.853 575.231 426.891 597.433 429.919C642.002 435.997 697.869 429.94 750.889 418.77C700.132 428.923 647.41 434.128 604.901 428.331C582.483 425.275 562.895 419.156 547.922 409.092C532.909 399.002 522.534 384.954 518.588 366.064C516.519 356.155 516.221 344.913 517.951 332.217C527.254 263.999 525.398 235.194 482.626 229.362C449.293 224.817 391.214 234.05 294.547 249.417C273.658 252.738 250.963 256.346 226.209 260.181C125.054 275.853 52.1028 244.379 0.000286796 197.064V195.766C51.9792 243.244 124.865 274.923 226.065 259.244C250.668 255.433 273.44 251.812 294.399 248.48C391.154 233.099 449.285 223.858 482.753 228.422C526.357 234.367 528.285 263.46 518.892 332.343C517.176 344.93 517.47 356.065 519.518 365.869C523.409 384.497 533.643 398.351 548.449 408.304C563.295 418.282 582.747 424.354 605.027 427.39C649.213 433.416 704.5 427.515 757.11 416.53L757.187 416.495C706.827 426.477 654.633 431.547 612.487 425.8C589.991 422.733 570.345 416.583 555.355 406.458C540.324 396.307 529.97 382.165 526.099 363.142C524.102 353.327 523.835 342.216 525.542 329.688C534.845 261.47 532.989 232.665 490.217 226.833C456.884 222.288 398.805 231.522 302.138 246.888C281.249 250.209 258.554 253.817 233.801 257.652C127.635 274.1 52.5314 238.624 0.000286796 187.398V186.064C52.3961 237.464 127.435 273.171 233.656 256.715C258.259 252.904 281.031 249.282 301.99 245.951C398.745 230.57 456.876 221.328 490.344 225.892C533.947 231.837 535.876 260.931 526.483 329.813C524.79 342.234 525.054 353.24 527.029 362.951C530.845 381.708 541.059 395.654 555.886 405.669C570.751 415.708 590.259 421.812 612.613 424.859C655.685 430.732 709.307 425.272 760.715 414.819L760.897 414.733C711.752 424.207 661.155 428.875 620.089 423.276C597.514 420.197 577.808 414.014 562.792 403.823C547.739 393.607 537.401 379.369 533.608 360.212C531.687 350.499 531.448 339.519 533.133 327.158C542.436 258.941 540.58 230.136 497.809 224.304C464.475 219.758 406.396 228.992 309.729 244.359C288.84 247.679 266.146 251.288 241.392 255.123C130.012 272.379 52.8046 232.494 0.000286796 177.218V175.843C52.6552 231.303 129.795 271.452 241.247 254.185C265.85 250.374 288.622 246.753 309.581 243.421C406.336 228.04 464.467 218.799 497.935 223.362C541.538 229.308 543.467 258.401 534.074 327.284C532.404 339.535 532.639 350.412 534.542 360.029C538.281 378.922 548.478 392.963 563.324 403.038C578.209 413.141 597.778 419.275 620.215 422.334C662.177 428.056 714.158 423.021 764.346 413.09L764.722 412.911C716.762 421.903 667.689 426.196 627.669 420.739C605.017 417.65 585.256 411.436 570.225 401.185C555.155 390.907 544.839 376.58 541.123 357.288C539.272 347.672 539.061 336.821 540.724 324.629C550.027 256.411 548.171 227.606 505.4 221.774C472.066 217.228 413.987 226.462 317.32 241.829C296.431 245.15 273.736 248.758 248.983 252.593C132.146 270.694 52.9057 225.924 0.000286796 166.463V165.005C52.7438 224.673 131.896 269.773 248.838 251.656C273.441 247.845 296.213 244.223 317.172 240.892C413.927 225.511 472.058 216.27 505.525 220.833C549.129 226.779 551.058 255.872 541.665 324.755C540.017 336.842 540.223 347.591 542.056 357.11C545.72 376.132 555.897 390.263 570.761 400.401C585.663 410.564 605.285 416.73 627.795 419.799C668.695 425.375 719.11 420.736 768.107 411.302L768.58 411.077C721.818 419.596 674.248 423.53 635.268 418.216C612.537 415.116 592.715 408.869 577.665 398.554C562.574 388.213 552.276 373.788 548.639 354.362C546.857 344.844 546.675 334.125 548.315 322.1C557.618 253.882 555.762 225.077 512.99 219.245C479.657 214.7 421.578 223.933 324.911 239.3C304.022 242.621 281.327 246.229 256.574 250.064C133.996 269.054 52.8181 218.838 0.000286796 155.061V153.556C52.639 217.546 133.728 268.136 256.429 249.127C281.032 245.316 303.804 241.694 324.763 238.363C421.518 222.982 479.649 213.74 513.116 218.304C556.72 224.249 558.649 253.343 549.256 322.225C547.631 334.148 547.809 344.767 549.572 354.187C553.159 373.344 563.316 387.569 578.2 397.769C593.123 407.996 612.806 414.195 635.394 417.275C675.235 422.708 724.108 418.445 771.902 409.499L772.27 409.324L772.552 409.19C726.958 417.256 680.827 420.859 642.851 415.681C620.047 412.571 600.17 406.293 585.101 395.915C569.995 385.513 559.718 370.998 556.159 351.439C554.444 342.017 554.29 331.428 555.906 319.57C565.209 251.352 563.354 222.548 520.582 216.715C487.249 212.17 429.169 221.404 332.503 236.77C311.613 240.091 288.918 243.7 264.165 247.535C135.56 267.459 52.5181 211.206 0.000286796 143.034V141.48C52.3202 209.867 135.271 266.544 264.02 246.598C288.623 242.786 311.395 239.165 332.354 235.834C429.109 220.453 487.24 211.211 520.707 215.775C564.311 221.72 566.24 250.814 556.847 319.696C555.244 331.455 555.395 341.947 557.092 351.271C560.601 370.558 570.739 384.873 585.64 395.134C600.578 405.421 620.315 411.65 642.977 414.74C681.807 420.035 729.211 416.121 775.836 407.639L776.585 407.287C732.159 414.912 687.438 418.198 650.448 413.154C627.566 410.034 607.632 403.725 592.543 393.285C577.415 382.818 567.159 368.209 563.677 348.518C562.03 339.2 561.902 328.739 563.497 317.041C572.8 248.823 570.945 220.018 528.173 214.186C494.839 209.641 436.76 218.875 340.093 234.241C319.204 237.562 296.509 241.17 271.755 245.005C136.781 265.917 51.9828 202.926 0.000286796 130.302V128.646C51.7601 201.499 136.445 265.009 271.611 244.068C296.214 240.257 318.986 236.635 339.945 233.304C436.7 217.923 494.831 208.682 528.298 213.245C571.902 219.191 573.831 248.284 564.438 317.167C562.857 328.761 562.983 339.126 564.614 348.354C568.047 367.774 578.163 382.181 593.082 392.504C608.04 402.853 627.834 409.114 650.574 412.213C688.408 417.373 734.384 413.786 779.853 405.754L780.758 405.332C737.46 412.543 694.076 415.537 658.034 410.623C635.078 407.492 615.089 401.151 599.985 390.653C584.841 380.127 574.606 365.427 571.202 345.607C569.618 336.384 569.515 326.048 571.088 314.512C580.39 246.294 578.535 217.489 535.763 211.657C502.43 207.112 444.351 216.345 347.684 231.712C326.795 235.033 304.1 238.641 279.346 242.476C137.578 264.439 51.1746 193.842 0.000286796 116.741V115.028C50.9259 192.348 137.214 263.537 279.202 241.539C303.805 237.728 326.577 234.106 347.536 230.775C444.291 215.394 502.422 206.152 535.889 210.716C579.493 216.661 581.422 245.755 572.029 314.637C570.47 326.074 570.571 336.315 572.14 345.447C575.496 364.993 585.591 379.49 600.528 389.872C615.504 400.281 635.35 406.572 658.16 409.682C695.049 414.712 739.684 411.429 784.036 403.814L785.048 403.349C742.851 410.166 700.755 412.886 665.631 408.096C642.602 404.957 622.56 398.585 607.436 388.024C592.273 377.436 582.058 362.649 578.73 342.701C577.207 333.572 577.128 323.362 578.679 311.982C587.981 243.765 586.126 214.959 543.355 209.128C510.021 204.582 451.942 213.816 355.275 229.183C334.386 232.503 311.691 236.112 286.937 239.947C137.909 263.035 50.0555 183.842 0.000286796 102.331V100.502C49.7716 182.231 137.483 262.141 286.793 239.009C311.396 235.198 334.168 231.576 355.127 228.245C451.882 212.864 510.013 203.623 543.48 208.186C587.084 214.132 589.013 243.225 579.62 312.108C578.082 323.39 578.159 333.507 579.667 342.545C582.95 362.22 593.025 376.805 607.978 387.247C622.97 397.715 642.871 404.036 665.757 407.155C701.736 412.062 745.08 409.061 788.344 401.846L789.541 401.306C748.382 407.759 707.479 410.234 673.213 405.562C650.119 402.413 630.026 396.013 614.889 385.398C599.713 374.754 589.519 359.883 586.262 339.815C584.796 330.777 584.739 320.683 586.27 309.452C595.572 241.235 593.717 212.43 550.945 206.598C517.612 202.052 459.533 211.286 362.866 226.653C341.977 229.974 319.282 233.582 294.528 237.417C137.679 261.718 48.5715 172.719 0.000286796 86.9636V85.0073C48.246 170.964 137.178 260.836 294.384 236.48C318.987 232.669 341.759 229.047 362.718 225.716C459.473 210.335 517.604 201.094 551.071 205.657C594.675 211.602 596.604 240.696 587.211 309.578C585.692 320.715 585.747 330.715 587.199 339.663C590.411 359.457 600.465 374.124 615.432 384.621C630.436 395.143 650.387 401.492 673.339 404.621C708.477 409.412 750.639 406.661 792.891 399.811L794.2 399.237C754.039 405.349 714.263 407.599 680.814 403.039C657.65 399.88 637.506 393.453 622.353 382.783C607.163 372.085 596.987 357.131 593.799 336.944C592.386 327.993 592.349 318.013 593.861 306.923C603.163 238.705 601.308 209.901 558.536 204.068C525.203 199.523 467.124 208.757 370.457 224.124C349.568 227.444 326.873 231.053 302.119 234.888C136.707 260.515 46.6415 160.138 0.000286796 70.4397V68.3692C46.2662 158.218 136.133 259.643 301.975 233.951C326.578 230.14 349.35 226.518 370.309 223.187C467.064 207.805 525.195 198.564 558.662 203.128C602.266 209.073 604.195 238.167 594.802 307.049C593.302 318.049 593.337 327.939 594.736 336.8C597.879 356.706 607.916 371.454 622.9 382.006C637.921 392.583 657.922 398.96 680.94 402.099C715.288 406.782 756.346 404.26 797.637 397.745L798.304 397.46H798.306L799.161 397.098C759.896 402.911 721.123 404.967 688.398 400.505C665.178 397.339 644.994 390.888 629.829 380.171C614.626 369.426 604.466 354.4 601.342 334.113C599.976 325.243 599.957 315.362 601.452 304.394C610.754 236.176 608.899 207.371 566.128 201.539C532.795 196.994 474.715 206.228 378.049 221.594C357.159 224.915 334.464 228.524 309.711 232.359C134.83 259.452 44.1644 145.706 0.000286796 52.6397V50.3942C43.7196 143.532 134.129 258.601 309.565 231.421C334.169 227.61 356.941 223.989 377.899 220.657C474.655 205.276 532.786 196.035 566.253 200.598C609.857 206.544 611.786 235.637 602.393 304.52C600.911 315.391 600.929 325.183 602.282 333.972C605.364 353.979 615.382 368.797 630.376 379.393C645.409 390.018 665.451 396.418 688.524 399.564C722.186 404.154 762.301 401.822 802.766 395.592L803.926 395.116L803.928 395.115L804.45 394.903C765.972 400.456 728.071 402.348 695.987 397.973C672.718 394.8 652.498 388.328 637.323 377.57C622.11 366.785 611.964 351.701 608.893 331.329C607.566 322.524 607.562 312.728 609.043 301.865C618.345 233.647 616.49 204.842 573.718 199.01C540.385 194.465 482.305 203.699 385.639 219.065C364.75 222.386 342.055 225.994 317.301 229.829C131.697 258.584 40.9701 128.708 0.000286796 33.2724V30.8669C40.4407 126.218 130.863 257.754 317.157 228.892C341.76 225.081 364.532 221.459 385.491 218.128C482.246 202.747 540.377 193.505 573.844 198.069C617.448 204.014 619.377 233.108 609.984 301.99C608.515 312.758 608.519 322.465 609.834 331.187C612.864 351.281 622.869 366.16 637.874 376.796C652.916 387.46 672.99 393.879 696.113 397.032C729.205 401.544 768.533 399.366 808.297 393.374C808.964 393.115 809.604 392.869 810.211 392.638C772.364 397.989 735.157 399.751 703.581 395.447C680.278 392.269 660.031 385.783 644.848 374.996C629.627 364.181 619.492 349.052 616.458 328.619C615.157 319.861 615.164 310.124 616.634 299.335C625.936 231.118 624.081 202.313 581.31 196.481C547.977 191.935 489.897 201.169 393.23 216.536C372.341 219.856 349.646 223.465 324.892 227.3C126.843 257.982 36.8107 108.046 0.000286796 12.0679V9.39845C36.141 105.002 125.745 257.193 324.747 226.363C349.351 222.551 372.123 218.93 393.081 215.598C489.837 200.217 547.968 190.976 581.435 195.54C625.039 201.485 626.968 230.578 617.575 299.461C616.117 310.158 616.11 319.806 617.399 328.482C620.392 348.635 630.387 363.557 645.399 374.222C660.449 384.914 680.551 391.348 703.707 394.506C736.404 398.964 775.187 396.891 814.463 391.061L816.014 390.51H816.016L816.733 390.26C779.254 395.494 742.448 397.182 711.173 392.918C687.863 389.741 667.613 383.252 652.427 372.459C637.204 361.639 627.072 346.502 624.044 326.058C622.748 317.308 622.756 307.582 624.225 296.806C633.527 228.588 631.672 199.783 588.9 193.951C555.567 189.406 497.488 198.64 400.821 214.006C379.932 217.327 357.237 220.936 332.483 224.771C127.736 256.491 38.438 95.1724 4.04024 0H5.04775Z" fill="#45C2B1"/>
</svg>
