<svg width="107" height="48" viewBox="0 0 107 48" fill="none" xmlns="http://www.w3.org/2000/svg">
<path d="M34.164 31.1537L27.6068 22.8064C26.4103 21.2774 25.0533 20.5919 23.7868 20.8622C22.5332 21.1291 21.5666 22.313 21.0939 24.2065L19.8237 29.2539C19.557 30.3192 18.9713 31.0697 18.19 31.3481C17.3994 31.6428 16.4741 31.4352 15.593 30.774L15.213 30.4893C13.9915 29.5881 12.7097 29.338 11.5817 29.7645C10.4536 30.191 9.67589 31.2552 9.3676 32.732L8.3301 37.7722C7.96297 39.5961 8.54063 41.4428 9.888 42.7106C11.2354 43.9784 13.116 44.4546 14.9062 43.9749L31.3398 39.5715C33.0656 39.1091 34.4443 37.8149 35.0108 36.117C35.6031 34.4123 35.2711 32.555 34.164 31.1537Z" fill="#45C2B1"/>
<path d="M11.8676 25.4778C14.2717 24.8336 15.6985 22.3624 15.0543 19.9583C14.4101 17.5541 11.9389 16.1274 9.53475 16.7716C7.13059 17.4158 5.70386 19.8869 6.34805 22.2911C6.99224 24.6952 9.46341 26.122 11.8676 25.4778Z" fill="#45C2B1"/>
<path d="M70.1914 20.38H64.4114C59.6714 20.38 55.8114 16.52 55.8114 11.78V6C55.8114 4.9 54.9114 4 53.8114 4H45.3314C39.1714 4 34.1914 8 34.1914 15.14V32.86C34.1914 40 39.1714 44 45.3314 44H61.0514C67.2114 44 72.1914 40 72.1914 32.86V22.38C72.1914 21.28 71.2914 20.38 70.1914 20.38ZM52.2514 27.06C51.9514 27.36 51.5714 27.5 51.1914 27.5C50.8114 27.5 50.4314 27.36 50.1314 27.06L48.6914 25.62V34C48.6914 34.82 48.0114 35.5 47.1914 35.5C46.3714 35.5 45.6914 34.82 45.6914 34V25.62L44.2514 27.06C43.6714 27.64 42.7114 27.64 42.1314 27.06C41.5514 26.48 41.5514 25.52 42.1314 24.94L46.1314 20.94C46.2714 20.82 46.4114 20.72 46.5714 20.64C46.6114 20.62 46.6714 20.6 46.7114 20.58C46.8314 20.54 46.9514 20.52 47.0914 20.5C47.1514 20.5 47.1914 20.5 47.2514 20.5C47.4114 20.5 47.5714 20.54 47.7314 20.6C47.7514 20.6 47.7514 20.6 47.7714 20.6C47.9314 20.66 48.0914 20.78 48.2114 20.9C48.2314 20.92 48.2514 20.92 48.2514 20.94L52.2514 24.94C52.8314 25.52 52.8314 26.48 52.2514 27.06Z" fill="#45C2B1"/>
<path d="M64.0508 17.62C65.9508 17.64 68.5908 17.64 70.8508 17.64C71.9908 17.64 72.5908 16.3 71.7908 15.5C68.9108 12.6 63.7508 7.37999 60.7908 4.41999C59.9708 3.59999 58.5508 4.15999 58.5508 5.29999V12.28C58.5508 15.2 61.0308 17.62 64.0508 17.62Z" fill="#45C2B1"/>
<path d="M72.2376 34.1817L72.2049 34.2005C72.0608 33.3475 72.0731 32.4259 72.2383 31.4487C72.0765 32.4131 72.0935 33.3286 72.2376 34.1817Z" fill="#45C2B1"/>
<path d="M83.4831 25.2823C85.176 25.7359 86.916 24.7313 87.3696 23.0384C87.8232 21.3455 86.8186 19.6055 85.1258 19.1519C83.4329 18.6983 81.6928 19.7029 81.2392 21.3958C80.7856 23.0886 81.7902 24.8287 83.4831 25.2823Z" fill="#45C2B1"/>
<path d="M95.6347 16.9711L84.8421 14.0792C80.1541 12.8231 76.6105 14.869 75.3544 19.5569L72.4625 30.3495C72.0864 31.7533 72.0032 33.0424 72.2037 34.2004C72.6556 36.9442 74.6561 38.9572 77.9402 39.8372L88.7329 42.7291C93.4208 43.9852 96.9644 41.9393 98.2205 37.2514L99.0108 34.3021L101.112 26.4588C102.369 21.7708 100.323 18.2272 95.6347 16.9711ZM97.3947 31.9365C96.6213 30.8045 94.9985 30.3696 93.7628 30.9634L87.1731 34.1256C85.9373 34.7193 84.3146 34.2845 83.5412 33.1524L83.2 32.6745C82.4995 31.631 81.0649 31.1637 79.8482 31.5831L74.1653 33.5251C74.0752 32.728 74.1321 31.846 74.3944 30.8672L77.2862 20.0746C78.2594 16.4427 80.6926 15.0379 84.3244 16.0111L95.1171 18.9029C98.7489 19.8761 100.154 22.3092 99.1806 25.9411L97.5241 32.1231L97.3947 31.9365Z" fill="#45C2B1"/>
</svg>
