<svg width="133" height="32" viewBox="0 0 133 32" fill="none" xmlns="http://www.w3.org/2000/svg">
<path d="M0.000282546 15.4882C0.000282538 6.91222 6.91228 0.0642166 15.4883 0.0642166C24.0643 0.000217413 30.9763 6.91222 30.9763 15.4882C30.9763 24.0642 24.0643 30.9762 15.4883 30.9762C6.91228 30.9762 0.000282554 24.0642 0.000282546 15.4882ZM5.88828 15.4242C5.88828 16.1602 5.92028 16.8642 5.92028 17.6002C5.92028 18.3362 5.98428 19.0402 6.01628 19.7442C6.11228 21.2482 6.65628 22.4642 7.61628 23.4242C8.60828 24.4482 9.82428 24.8962 11.2963 24.9922C11.9683 25.0242 12.7043 25.0562 13.4083 25.0562L15.5203 25.0562C16.1923 25.0562 16.8963 25.1202 17.6323 25.0562C18.3363 25.0242 19.0723 25.0242 19.7763 24.9922C21.2483 24.8962 22.4643 24.4482 23.3923 23.4242C24.4163 22.4642 24.9283 21.2482 24.9923 19.7442C25.0563 18.3682 25.0883 16.9282 25.0883 15.4882C25.0883 14.0482 25.0243 12.6082 24.9923 11.2322C24.9603 9.76022 24.4163 8.51222 23.3923 7.55222C22.5283 6.59222 21.3123 6.08022 19.7763 6.01622C19.0083 5.98422 18.3043 5.95222 17.5683 5.95222L13.3443 5.95222C12.6083 5.95222 11.9043 6.01622 11.2003 6.01622C9.72828 6.08022 8.51228 6.59222 7.61628 7.52022C6.65628 8.48022 6.11228 9.66422 6.01628 11.1682C5.98428 11.8082 5.98428 12.5442 5.92028 13.2802C5.88828 13.9522 5.88828 14.6882 5.88828 15.4242ZM7.61628 15.4562C7.61628 13.8882 7.64828 12.5122 7.74428 11.2322C7.80828 10.2402 8.16028 9.50422 8.80028 8.73622C9.40828 8.12822 10.2403 7.84022 11.2963 7.71222C11.9043 7.68022 12.6083 7.74422 13.2803 7.68022C14.0163 7.64822 14.7203 7.64822 15.4563 7.64822C16.1923 7.64822 16.8963 7.68022 17.6003 7.68022C18.3363 7.68022 19.0083 7.68022 19.6483 7.71222C20.7363 7.80822 21.5683 8.12822 22.2083 8.80022C22.8803 9.44022 23.1683 10.2722 23.2643 11.3282C23.3283 12.5762 23.3603 13.9522 23.3603 15.4882C23.3603 16.9602 23.2963 18.3682 23.2643 19.7122C23.2323 20.7682 22.9123 21.5362 22.2083 22.2082C21.5683 22.8482 20.7363 23.1682 19.6483 23.2642C19.0083 23.3282 18.3363 23.3602 17.6323 23.3602L15.5203 23.3602C14.7843 23.3602 14.0803 23.3602 13.4083 23.3602C12.6723 23.3602 11.9683 23.3282 11.3283 23.2642C10.3683 23.2002 9.50428 22.8482 8.83228 22.2082C8.12828 21.5362 7.80828 20.6722 7.74428 19.6482C7.64828 18.4642 7.61628 16.9922 7.61628 15.4562ZM19.2963 10.5922C19.2963 11.3282 19.6803 11.7122 20.4163 11.7122C21.2163 11.7122 21.5683 11.3282 21.5683 10.5922C21.5683 9.79222 21.2163 9.47222 20.4163 9.47222C19.6803 9.47222 19.2963 9.79222 19.2963 10.5922ZM10.5923 15.5522C10.5923 16.8642 11.1363 17.9522 12.0643 18.9762C12.9603 19.9362 14.0803 20.4482 15.4883 20.4482C16.8963 20.4482 17.9523 19.9362 18.9123 18.9762C19.8403 18.0482 20.3843 16.8642 20.3843 15.5522C20.3843 14.1762 19.8403 12.9922 18.9123 12.0642C17.9203 11.0722 16.8323 10.5922 15.4883 10.5922C14.1443 10.5922 13.0563 11.0722 12.0643 12.0642C11.1363 12.9922 10.5923 14.1762 10.5923 15.5522ZM12.3523 15.5522C12.3523 14.6242 12.6403 13.8882 13.2483 13.2482C13.8883 12.6402 14.6563 12.3202 15.4883 12.3202C16.3203 12.3202 17.0883 12.6402 17.7283 13.2482C18.3363 13.8882 18.6243 14.6242 18.6243 15.5522C18.6243 16.4162 18.3363 17.1522 17.7283 17.7282C17.0883 18.4322 16.3203 18.6882 15.4883 18.6882C14.6563 18.6882 13.8883 18.4322 13.2483 17.7282C12.6403 17.1522 12.3523 16.4162 12.3523 15.5522ZM50.609 15.5202C50.609 6.94422 57.521 0.0962181 66.097 0.0642166C74.673 0.000217366 81.585 6.94422 81.585 15.5202C81.585 24.0642 74.673 31.0082 66.097 31.0082C57.521 31.0082 50.609 24.0642 50.609 15.5202ZM61.969 8.16022C61.905 7.64822 61.745 7.23222 61.361 6.81622C60.977 6.46422 60.529 6.27222 59.889 6.27222C59.249 6.27222 58.769 6.46422 58.385 6.81622C58.001 7.23222 57.777 7.64822 57.841 8.16022C57.777 8.64022 58.065 9.08822 58.385 9.47222C58.705 9.82422 59.185 10.0802 59.825 10.0802C60.465 10.0802 60.977 9.88822 61.361 9.47222C61.745 9.12022 61.969 8.64022 61.969 8.16022ZM67.249 11.4882L63.665 11.4882L63.665 22.4322L67.377 22.4322L67.377 16.2882C67.377 15.9042 67.409 15.6482 67.505 15.4242C67.889 14.4642 68.561 14.0162 69.585 14.1122C70.609 14.2082 71.121 15.0082 71.121 16.5122L71.121 22.4322L74.737 22.4322L74.737 16.0962C74.737 14.6562 74.481 13.5042 73.809 12.7362C73.169 12.0322 72.433 11.4882 71.601 11.2962C70.769 11.1362 69.937 11.2322 69.105 11.4882C68.273 11.8082 67.697 12.3202 67.281 13.0242L67.249 13.0242L67.249 11.4882ZM58.001 11.4882L58.001 22.3042L61.713 22.3042L61.713 11.4882L58.001 11.4882ZM101.218 15.5522C101.218 7.00822 108.13 0.128218 116.706 0.128218C125.282 0.0642165 132.194 7.00822 132.194 15.5522C132.194 24.1282 125.282 31.0402 116.706 31.0402C108.13 31.0402 101.218 24.1282 101.218 15.5522ZM120.418 23.3282L125.538 23.3282L118.562 14.0802L124.802 7.39222L123.266 7.39222L117.89 13.2162L113.538 7.39222L108.482 7.39222L115.074 16.2242L108.482 23.3282L109.922 23.3282L115.778 17.1202L120.418 23.3282ZM110.69 8.44822L112.962 8.44822L123.33 22.2722L121.026 22.2722L110.69 8.44822Z" fill="white"/>
</svg>
