<svg width="309" height="101" viewBox="0 0 309 101" fill="none" xmlns="http://www.w3.org/2000/svg">
<path d="M9.91607 2.05034C12.2654 0.649006 14.9697 -0.0432995 17.7034 0.0563028C17.7059 0.0592734 17.7083 0.0624109 17.7107 0.0653936V0.0597992H29.6585V0.0524567H34.492V0.0563028H43.0776C43.0788 0.0579252 43.0799 0.0595703 43.0811 0.0611978V0.0524567H47.2415V0.0563028H55.8344C55.837 0.0597024 55.8392 0.0633648 55.8418 0.0667922H64.1623C64.1648 0.0701992 64.1672 0.0738527 64.1697 0.0772815V0.0524567H71.5164C71.0662 1.35825 70.4669 2.60791 69.7301 3.77619C68.5134 5.78721 66.9578 7.57276 65.1326 9.05375C64.8292 9.2901 64.5014 9.49862 64.1836 9.73417C64.1799 9.74235 64.177 9.75085 64.1732 9.75899C61.7699 11.5879 58.9655 12.8179 55.9921 13.3467C55.9902 13.3451 55.9885 13.3431 55.9865 13.3415C55.9859 13.3443 55.9855 13.3474 55.9848 13.3502C54.8056 13.6537 53.5892 13.7873 52.3722 13.7474C52.3712 13.7475 52.3701 13.7474 52.3691 13.7474C52.1447 13.8342 51.9016 13.8619 51.6635 13.8264C44.5481 13.8264 37.4338 13.8264 30.3207 13.8264C30.0995 13.8264 29.8783 13.7906 29.6606 13.7691C29.2679 13.85 28.8651 13.8706 28.4662 13.8299C26.2822 13.8299 24.0979 13.8729 21.9138 13.8299C20.4782 13.7727 19.1714 13.9946 17.9684 14.8002C17.9593 14.7979 17.9508 14.7943 17.9422 14.7918C15.1341 16.9475 15.3305 21.3625 17.8611 23.447C17.8635 23.4578 17.8651 23.4689 17.8674 23.4798C19.0566 24.2739 20.4721 24.6592 21.8998 24.5781C24.5278 24.5387 27.1595 24.5781 29.7767 24.5781C29.7803 24.5831 29.7837 24.5884 29.7872 24.5934L43.0776 24.5924C43.0785 24.5936 43.0795 24.595 43.0804 24.5962H55.8274C55.8282 24.5973 55.8288 24.5984 55.8295 24.5994C57.2418 24.5992 58.654 24.4618 60.0571 24.6798C60.1082 24.672 60.1701 24.6805 60.2466 24.7113C60.2593 24.7135 60.2721 24.7156 60.2847 24.7179C60.2835 24.7182 60.2822 24.7184 60.2809 24.7186C61.6589 24.7793 63.0133 25.0984 64.2735 25.6595C64.2753 25.6657 64.2764 25.6722 64.2781 25.6784C64.2846 25.6722 64.2911 25.6656 64.2983 25.6595C65.7731 26.1357 67.1331 26.9123 68.2927 27.9403C68.2967 27.9355 68.3006 27.9306 68.3049 27.9259C69.5509 28.642 70.4533 29.7338 71.3591 30.8294C71.9868 31.5164 72.4962 32.3029 72.8664 33.1566C72.8672 33.1631 72.8677 33.1698 72.8685 33.1762C72.8737 33.1698 72.8786 33.163 72.8843 33.1566C76.3859 39.5261 76.6116 45.8708 72.8773 52.2117C72.8694 52.203 72.8625 52.1936 72.8556 52.1847C72.8555 52.1853 72.8557 52.1842 72.8556 52.1847C71.7736 54.2328 70.2109 55.9892 68.3018 57.3008C68.3004 57.3074 68.2994 57.3141 68.2979 57.3207C67.1297 58.3045 65.7703 59.0359 64.3057 59.4689C62.9861 60.0251 61.579 60.3452 60.1487 60.4144C60.1474 60.4144 60.1462 60.414 60.1449 60.414C59.7511 60.6108 59.3218 60.4784 58.9138 60.5535L58.9173 60.5539C58.7061 60.7436 58.4482 60.6647 58.2012 60.6647H1.53434C1.28376 60.6647 0.990147 60.783 0.786096 60.5182H0.797634C0.796297 60.5169 0.794766 60.5157 0.793439 60.5144C2.06565 56.8839 3.33172 53.2474 4.592 49.6051C4.80324 48.9964 5.01472 48.3877 5.19374 47.7719C5.20457 47.7067 5.22796 47.6443 5.26297 47.5883C5.29804 47.5322 5.34402 47.4836 5.39793 47.4453C5.45184 47.407 5.51284 47.3798 5.5773 47.3652C5.64172 47.3506 5.70837 47.3491 5.77345 47.3603C7.15189 47.3925 8.53405 47.3958 9.91607 47.403V47.4355C9.92425 47.4234 9.9326 47.4113 9.94124 47.3995L17.7034 47.403H29.6547C29.6583 47.408 29.6619 47.4133 29.6655 47.4184V47.403H55.8344V47.3995C56.6819 47.3362 57.498 47.0521 58.2015 46.5754C58.9001 46.102 59.4632 45.4548 59.8361 44.6981C59.8365 44.6928 59.8373 44.6874 59.8375 44.682C60.1122 44.0273 60.2536 43.3242 60.2536 42.6142C60.2536 41.9043 60.1121 41.2014 59.8375 40.5468C59.8294 40.5206 59.8219 40.4942 59.8148 40.4677C59.0062 38.8845 57.7023 38.0472 55.997 37.7755L55.8274 37.7503L47.2345 37.729H29.7872V37.6992C29.7836 37.7043 29.7803 37.7096 29.7767 37.7146L17.7034 37.729V37.686C14.946 37.6339 12.4171 36.7823 10.0157 35.5052L9.78355 35.3804V35.423C5.28307 33.0278 2.17881 29.4367 0.832599 24.5137C-0.821514 18.5166 -0.0623436 12.8345 3.57173 7.68594C5.19007 5.31356 7.36938 3.37758 9.91607 2.05034ZM223.776 0.00595368C224.406 0.00601006 224.134 0.364249 224.041 0.607695C222.695 4.13376 220.371 7.20293 217.342 9.4548C216.119 10.3974 214.771 11.1638 213.335 11.7317C213.334 11.7307 213.333 11.7295 213.332 11.7285C213.332 11.7296 213.332 11.7306 213.332 11.7317C211.23 12.7253 208.946 13.2738 206.622 13.3429L206.599 13.3425C206.134 13.525 205.646 13.4324 205.168 13.4324H178.459C176.25 13.4324 174.162 13.848 172.261 15.0474C171.611 15.4858 171.005 15.9871 170.453 16.5439C170.451 16.5435 170.45 16.5426 170.448 16.5421C169.099 18.1888 168.253 20.1896 168.012 22.3047C167.971 22.6134 167.948 22.9241 167.943 23.2354C167.943 27.6357 167.997 32.0326 167.915 36.4293C167.865 39.2287 168.341 41.7989 170.309 43.9111C170.311 43.9091 170.312 43.9071 170.314 43.9051C171.86 45.2994 173.771 46.2247 175.824 46.5726C177.345 46.8447 178.885 46.7872 180.421 46.8338C180.423 46.8373 180.426 46.841 180.428 46.8446H205.122C205.125 46.848 205.127 46.8517 205.129 46.8551V46.8446H213.181V46.8303C215.193 46.8303 217.206 46.8207 219.218 46.8016C219.515 46.8016 219.698 46.8375 219.576 47.2135C218.444 50.6016 216.385 53.6047 213.633 55.8816C213.527 55.9609 213.415 56.0322 213.299 56.0959C213.298 56.1019 213.297 56.108 213.296 56.1141C212.076 57.2232 210.678 58.119 209.161 58.7637C207.942 59.3724 206.64 59.797 205.297 60.0238C205.294 60.0211 205.291 60.0178 205.288 60.0151C205.287 60.018 205.287 60.0209 205.287 60.0238C204.137 60.3494 202.95 60.5284 201.755 60.557L201.764 60.5574C201.552 60.7436 201.295 60.6647 201.048 60.6647H173.067C172.83 60.6648 172.573 60.7436 172.351 60.5539L172.413 60.5535C172.399 60.5501 172.386 60.5469 172.372 60.543L170.346 60.3749C166.823 60.0168 163.522 58.9928 160.554 57.0165C160.549 57.0096 160.545 57.0022 160.54 56.9952C160.54 57.0023 160.539 57.0094 160.539 57.0165C157.105 54.8373 154.404 51.6781 152.784 47.9474C151.746 45.5939 151.218 43.0473 151.234 40.4751C151.266 33.9123 151.09 27.3422 151.327 20.783C151.538 14.8575 153.575 9.57275 158.129 5.4947C158.891 4.78469 159.739 4.17496 160.655 3.68004C160.663 3.67381 160.671 3.66739 160.679 3.66151C163.146 2.03965 165.895 1.15539 168.756 0.596856C169.325 0.485864 169.902 0.425012 170.475 0.342663C170.475 0.346627 170.475 0.350588 170.474 0.354551C170.478 0.351745 170.482 0.348896 170.485 0.34616C172.938 -0.0834859 175.416 0.049114 177.89 0.0276318C178.729 0.0276318 179.568 0.0272178 180.41 0.0517574C180.41 0.0508441 180.41 0.0498734 180.41 0.0489602L184.449 0.0524567V0.058051C184.45 0.056258 184.451 0.0542437 184.453 0.0524567H192.773V0.0419673H205.122C205.123 0.0436034 205.124 0.0452214 205.125 0.0468623V0.0419673H213.181C213.183 0.0437924 213.184 0.0457298 213.185 0.0475616V0.0419673C216.715 0.0419673 220.246 0.0417571 223.776 0.00595368ZM253.461 0.0884702C255.204 -0.044001 256.952 0.0310563 258.695 0.0489602H263.658V0.0559531L269.021 0.0489602C269.887 0.0489602 270.754 0.0489322 271.621 0.0202892C271.731 0.0114333 271.841 0.0356664 271.937 0.0898688C272.034 0.14409 272.112 0.226035 272.161 0.324831C272.856 1.492 273.55 2.65211 274.241 3.8157C274.235 3.82207 274.23 3.82882 274.224 3.83528C274.228 3.83353 274.231 3.83177 274.234 3.83004C275.226 5.45189 276.232 7.05221 277.202 8.70271C277.843 9.76004 278.56 10.7986 279.11 11.9037L279.218 12.1257L279.552 12.6366C281.209 15.1978 282.716 17.8555 284.32 20.4501C284.415 20.622 284.501 20.7988 284.578 20.9798C284.578 20.9812 284.578 20.9827 284.578 20.984C284.579 20.9827 284.58 20.9812 284.582 20.9798C286.252 23.7272 287.93 26.4722 289.615 29.2147C289.705 29.3651 289.777 29.5264 289.855 29.6839C289.854 29.692 289.852 29.7 289.85 29.7081C291.518 32.308 293.092 34.954 294.649 37.6108C294.648 37.6124 294.646 37.614 294.645 37.6157C295.599 39.1894 296.553 40.7632 297.507 42.3369C298.71 44.324 299.959 46.2754 301.087 48.3054C302.34 50.5217 303.693 52.6735 304.982 54.8683C305.028 54.9662 305.065 55.068 305.093 55.1725C305.094 55.1833 305.095 55.1942 305.096 55.205C305.106 55.1928 305.117 55.1808 305.129 55.169C306.314 56.8589 307.278 58.6812 308.438 60.5144L305.011 60.5182H289.572C289.459 60.5567 289.336 60.5504 289.226 60.5028C289.113 60.4543 289.024 60.3652 288.975 60.2532C288.225 58.9798 287.475 57.7075 286.726 56.4364L284.478 52.627L284.212 52.2218C282.9 50.1848 281.803 47.985 280.514 45.9173C280.024 45.1261 279.576 44.3062 279.111 43.4971C279.108 43.4902 279.106 43.483 279.103 43.4761V43.5114C277.392 40.7724 275.745 37.994 274.137 35.1905C274.135 35.1836 274.132 35.1765 274.13 35.1695C272.602 32.6999 271.1 30.211 269.648 27.6934L269.028 26.612L268.34 25.4987C266.968 23.2692 265.625 21.0215 264.312 18.7557L263.658 17.6215L262.473 15.7418C261.234 17.7754 260.02 19.7733 258.806 21.7711C258.805 21.7697 258.804 21.768 258.803 21.7666C258.803 21.7681 258.803 21.7696 258.803 21.7711C257.75 23.8011 256.501 25.7095 255.358 27.6966C254.839 28.5988 254.281 29.4763 253.74 30.3679C252.755 32.0541 251.767 33.7404 250.793 35.4339C250.686 35.6165 250.435 35.8134 250.568 36.0174C250.7 36.2215 250.976 36.1034 251.187 36.107C251.989 36.1249 252.788 36.1249 253.59 36.1356H263.658C266.164 36.1356 268.702 36.1358 271.223 36.1C271.685 36.1 271.728 36.3147 271.703 36.6727C271.438 40.4929 269.945 43.7081 267.048 46.2645C266.126 47.0196 265.121 47.6671 264.052 48.1942C264.055 48.1941 264.059 48.1944 264.062 48.1942C262.422 49.0266 260.734 49.6544 258.879 49.6505L258.699 49.6481L253.59 49.6516H243.253C243.252 49.6499 243.251 49.648 243.249 49.6463V49.6516C242.594 49.5513 242.279 49.9201 241.975 50.4463C240.797 52.4692 239.583 54.4851 238.384 56.5008L236.236 60.1958C236.186 60.3078 236.104 60.4021 236 60.4661C235.895 60.53 235.774 60.5606 235.652 60.5539C233.443 60.5539 231.234 60.5324 229.024 60.5252C229.022 60.5222 229.02 60.5188 229.017 60.5158V60.5182H216.962L219.111 56.9378C220.636 54.4137 222.215 51.9252 223.672 49.3617C225.244 46.6084 226.93 43.9267 228.545 41.1985C228.649 41.0481 228.763 40.912 228.867 40.7688C228.868 40.7705 228.867 40.7723 228.868 40.774C229.942 38.9522 231.016 37.1269 232.118 35.3122C233.958 32.2522 235.805 29.1945 237.657 26.1392C237.76 25.9685 237.884 25.8118 238.012 25.6518C238.011 25.6485 238.01 25.645 238.008 25.6417C239.485 23.1641 240.968 20.6876 242.455 18.2124C242.659 17.8544 242.884 17.5427 243.103 17.2061C243.104 17.2072 243.105 17.2085 243.106 17.2096C243.106 17.2085 243.106 17.2072 243.106 17.2061C244.023 15.663 244.932 14.1128 245.86 12.5733C248.299 8.52986 250.742 4.48867 253.189 0.450005C253.274 0.326861 253.365 0.208218 253.462 0.0944142C253.462 0.092445 253.461 0.0904383 253.461 0.0884702ZM139.891 23.812C140.074 23.8118 140.676 23.495 140.429 24.1658C140.432 24.1807 140.436 24.1963 140.439 24.213C139.705 26.3783 138.512 28.3593 136.941 30.0203V30.0084C136.94 30.0124 136.939 30.0164 136.937 30.0203C135.577 31.6437 133.908 32.9821 132.029 33.9587C131.205 34.4367 130.324 34.8098 129.408 35.0689V35.0594C129.407 35.0612 129.405 35.0632 129.404 35.065C127.791 35.6981 126.081 36.0495 124.349 36.1035C123.396 36.1607 122.437 36.1035 121.484 36.1035C121.484 36.1023 121.483 36.1011 121.482 36.1H117.597C117.596 36.1022 117.594 36.1047 117.592 36.107H109.669C109.667 36.1046 109.666 36.1023 109.664 36.1H105.654C105.65 36.1058 105.646 36.112 105.641 36.1178L96.1102 36.107V36.1021C96.109 36.1037 96.1079 36.1054 96.1067 36.107C94.6173 36.1893 94.6172 36.1894 94.6172 37.686V46.2254C94.6173 46.8374 94.7747 47.0738 95.3868 46.9879C95.6249 46.9659 95.8647 46.9659 96.1029 46.9879C96.1072 46.9938 96.1112 46.9999 96.1155 47.0058H140.815C142.917 47.0058 145.015 47.0056 147.113 46.9841C147.578 46.9841 147.542 47.2422 147.532 47.5393C147.467 50.8314 146.163 53.9778 143.88 56.3504C143.045 57.2834 142.056 58.0648 140.954 58.6598C140.95 58.6584 140.946 58.6564 140.942 58.6549C140.944 58.6565 140.945 58.6583 140.947 58.6598C139.85 59.3813 138.623 59.8835 137.335 60.1385C137.327 60.1389 137.319 60.1383 137.311 60.1385C136.631 60.3803 135.915 60.5042 135.194 60.5039C133.749 60.5361 132.3 60.53 130.852 60.5235L129.404 60.5182H96.1102V60.4895C96.1077 60.493 96.1054 60.4966 96.1029 60.5L86.8407 60.5182L84.7453 60.5186C82.6497 60.5199 80.5523 60.5254 78.4552 60.5469C78.0615 60.5469 77.9328 60.4033 77.9793 60.0382C77.9847 59.9488 77.9847 59.859 77.9793 59.7696V24.5137C77.9793 23.9337 78.1046 23.7725 78.6954 23.7725C99.0939 23.794 119.493 23.8072 139.891 23.812ZM29.6956 60.5182H29.7123C29.7072 60.5173 29.7021 60.5167 29.697 60.5158C29.6965 60.5166 29.6961 60.5174 29.6956 60.5182ZM146.995 0.00245721C147.446 -0.0225831 147.567 0.142122 147.546 0.571682C147.388 3.25336 146.633 5.69872 144.957 7.82545C144.955 7.82274 144.953 7.81978 144.95 7.81706C144.95 7.82462 144.95 7.8322 144.95 7.83978C143.927 9.39712 142.538 10.6806 140.904 11.5779C139.696 12.3487 138.342 12.8618 136.927 13.0852V13.0754C136.246 13.3032 135.527 13.3967 134.81 13.3502L134.786 13.3499C134.536 13.4389 134.268 13.4651 134.005 13.4254H82.7481C81.3375 13.4254 79.9304 13.3751 78.5234 13.3859C78.0687 13.3859 77.965 13.2283 77.965 12.8058C77.9793 8.74813 77.9793 4.68209 77.965 0.607695C77.965 0.249657 77.9649 0.0240514 78.4447 0.0276318C81.198 0.0562737 83.9478 0.0526385 86.6796 0.0597992C86.6898 0.0717697 86.6989 0.0843495 86.7082 0.0965121V0.0524567H95.7022C95.7022 0.0540401 95.7022 0.0557683 95.7022 0.0573517C95.7033 0.0557636 95.7045 0.05404 95.7057 0.0524567H105.505C105.506 0.0540661 105.508 0.0557374 105.509 0.0573517V0.0524567H109.667C109.668 0.0513231 109.668 0.0500913 109.669 0.0489602H117.589C117.592 0.0525048 117.594 0.0562314 117.596 0.0597992H121.481C121.483 0.0562572 121.485 0.0524787 121.488 0.0489602H129.408C129.409 0.0513405 129.411 0.0539118 129.413 0.0563028H136.927C136.929 0.0597676 136.931 0.0633048 136.934 0.0667922H144.843C144.844 0.0684178 144.845 0.0700566 144.846 0.0716872V0.0381211C145.562 0.0381211 146.279 0.0382599 146.995 0.00245721Z" fill="white"/>
<path d="M151.233 91.9727C151.784 91.9629 152.332 92.0646 152.842 92.272C153.353 92.4795 153.816 92.7883 154.204 93.1797C154.593 93.5712 154.898 94.0375 155.101 94.55C155.304 95.0624 155.401 95.6108 155.386 96.1618C155.38 97.2746 154.931 98.3394 154.139 99.1216C153.348 99.9037 152.278 100.339 151.165 100.333C150.052 100.326 148.987 99.8775 148.205 99.0859C147.423 98.2943 146.987 97.2243 146.994 96.1115C146.986 95.5572 147.09 95.0068 147.302 94.4944C147.513 93.982 147.827 93.518 148.223 93.1307C148.62 92.7435 149.092 92.4411 149.609 92.2419C150.126 92.0429 150.679 91.9513 151.233 91.9727ZM255.617 91.9063C256.73 91.9125 257.795 92.3605 258.577 93.1517C259.36 93.943 259.796 95.013 259.79 96.1258C259.787 96.6768 259.675 97.2218 259.462 97.7296C259.248 98.2375 258.936 98.6984 258.545 99.0859C258.153 99.4734 257.688 99.7799 257.178 99.988C256.668 100.196 256.122 100.302 255.57 100.298C255.02 100.295 254.475 100.184 253.967 99.9702C253.459 99.7565 252.997 99.4448 252.61 99.053C252.223 98.6613 251.916 98.1968 251.708 97.6866C251.5 97.1764 251.394 96.6299 251.397 96.079C251.404 94.9662 251.852 93.9014 252.643 93.1189C253.434 92.3364 254.504 91.9002 255.617 91.9063ZM295.512 91.9185C296.622 91.9138 297.688 92.3503 298.477 93.1318C299.265 93.9133 299.71 94.9763 299.715 96.0863C299.717 96.6359 299.611 97.1808 299.403 97.6894C299.195 98.198 298.889 98.6607 298.502 99.051C298.115 99.4412 297.655 99.7517 297.148 99.9642C296.641 100.177 296.097 100.287 295.548 100.29C294.998 100.292 294.453 100.186 293.945 99.9779C293.436 99.7697 292.973 99.4635 292.583 99.0765C292.192 98.6895 291.882 98.2292 291.67 97.7223C291.457 97.2154 291.347 96.6716 291.344 96.122C291.34 95.012 291.776 93.9455 292.557 93.1573C293.339 92.3692 294.402 91.9233 295.512 91.9185ZM237.638 92.4846C239.042 91.6182 241.237 91.8329 242.153 92.9391C242.293 93.1115 242.413 93.299 242.511 93.4979C242.973 94.3607 242.93 94.4286 241.867 94.4286C241.666 94.4679 241.459 94.4421 241.274 94.3552C241.089 94.2683 240.937 94.1248 240.839 93.9454C240.435 93.369 239.121 93.3045 238.555 93.7377C238.433 93.8194 238.337 93.9343 238.279 94.0688C238.221 94.2034 238.202 94.352 238.226 94.4968C238.248 94.6188 238.308 94.7307 238.398 94.8157C238.488 94.9007 238.604 94.9543 238.727 94.9692C239.564 95.1947 240.424 95.3668 241.233 95.6496C242.697 96.158 243.188 97.1104 242.78 98.5139C242.529 99.3732 241.881 99.7993 241.076 100.064C239.371 100.626 237.495 100.064 236.743 98.7538C236.543 98.3957 236.242 97.9875 236.418 97.651C236.593 97.3146 237.069 97.5829 237.409 97.5328C237.57 97.4993 237.738 97.5256 237.88 97.6066C238.023 97.6876 238.132 97.8181 238.186 97.9733C238.609 98.7502 240.259 99.008 240.932 98.4496C241.039 98.3757 241.122 98.2732 241.173 98.1541C241.225 98.0351 241.241 97.9042 241.221 97.7761C241.202 97.6481 241.146 97.5281 241.062 97.43C240.977 97.332 240.866 97.2595 240.743 97.2213C240.258 97.0576 239.763 96.9287 239.26 96.8349C238.779 96.7365 238.308 96.5937 237.853 96.4087C237.469 96.2763 237.136 96.0275 236.9 95.6971C236.664 95.3667 236.537 94.9708 236.536 94.5646C236.509 94.1498 236.597 93.7355 236.792 93.3682C236.986 93.0008 237.28 92.6949 237.638 92.4846ZM91.5447 91.9727C92.3659 91.977 93.1673 92.2246 93.8478 92.6842C94.5283 93.144 95.0575 93.7953 95.3681 94.5556C95.6785 95.3158 95.7567 96.1512 95.5925 96.9559C95.4284 97.7605 95.0295 98.4985 94.446 99.0765C93.8626 99.6544 93.1208 100.047 92.3146 100.203C91.5084 100.36 90.6737 100.273 89.9164 99.9555C89.1591 99.6378 88.513 99.1029 88.0597 98.4181C87.6065 97.7332 87.3664 96.9292 87.3699 96.108C87.3635 95.5598 87.4674 95.0159 87.6755 94.5087C87.8835 94.0015 88.1916 93.5413 88.5811 93.1556C88.9705 92.7698 89.4335 92.4661 89.9426 92.2629C90.4517 92.0597 90.9966 91.9612 91.5447 91.9727ZM264.676 91.9378C265.532 91.8664 266.389 92.0613 267.13 92.4954C267.808 92.8927 268.354 93.4819 268.698 94.1888C268.974 94.7115 268.859 94.905 268.265 94.837H267.878C267.67 94.8728 267.456 94.8444 267.264 94.7555C267.072 94.6667 266.912 94.5213 266.804 94.3391C266.458 93.9233 265.978 93.6392 265.447 93.5342C264.916 93.4293 264.365 93.5102 263.886 93.7629C263.421 94.0146 263.043 94.4017 262.804 94.873C262.564 95.3443 262.473 95.8773 262.543 96.4013C262.571 96.8953 262.748 97.3694 263.052 97.7597C263.356 98.15 263.772 98.4382 264.244 98.5856C264.733 98.7547 265.264 98.7601 265.757 98.6013C266.25 98.4425 266.678 98.1279 266.976 97.7048C267.18 97.4399 268.462 97.1999 268.766 97.3859C268.981 97.5255 268.827 97.6975 268.766 97.8478C268.456 98.5961 267.922 99.2305 267.237 99.6642C266.553 100.098 265.752 100.31 264.942 100.272C264.098 100.268 263.277 100.002 262.59 99.5104C261.904 99.0191 261.387 98.3269 261.111 97.5293C260.815 96.7233 260.775 95.8454 260.996 95.0157C261.218 94.186 261.69 93.445 262.349 92.894C263.008 92.3431 263.821 92.0091 264.676 91.9378ZM16.6644 92.0836C17.9676 91.9618 17.9679 91.9548 17.9679 93.2258C17.9679 94.4324 17.9392 95.6389 17.9679 96.8419C18.0073 98.2346 18.8523 98.9292 20.0839 98.6321C20.85 98.4566 21.2581 97.9159 21.2724 96.9171C21.2939 95.51 21.3046 94.1029 21.2724 92.6958C21.2724 92.2053 21.3764 91.9796 21.892 92.0727C22.0699 92.0997 22.251 92.0997 22.429 92.0727C22.8478 92.0155 22.966 92.1912 22.9517 92.5993C22.9231 93.3797 22.9517 94.1601 22.9517 94.9405L22.9122 94.9622C22.9122 95.7463 22.9516 96.5304 22.9122 97.3073C22.7976 99.1189 21.5553 100.236 19.672 100.265C17.7888 100.293 16.4496 99.1905 16.3494 97.4003C16.2491 95.7533 16.3207 94.0957 16.3063 92.4416C16.3063 92.1803 16.4067 92.1158 16.6644 92.0836ZM205.43 91.9717C206.293 91.9079 207.155 92.1027 207.907 92.5311C208.641 92.9699 209.209 93.638 209.525 94.4321C209.672 94.7722 209.586 94.8618 209.239 94.8475C208.551 94.8189 207.946 94.8942 207.377 94.1853C206.367 92.9357 204.097 93.4692 203.496 94.9909C203.091 96.0291 203.138 97.0745 203.947 97.9373C204.663 98.725 205.587 98.8684 206.589 98.5712C206.903 98.5196 207.185 98.3475 207.373 98.0915C207.782 97.2859 208.476 97.3253 209.192 97.3754L209.593 97.3789C209.289 99.0402 207.624 100.282 205.741 100.265C204.885 100.276 204.047 100.017 203.347 99.524C202.648 99.0308 202.122 98.3287 201.845 97.5184C201.563 96.7134 201.528 95.8424 201.745 95.0174C201.962 94.1925 202.421 93.4513 203.063 92.8891C203.743 92.3549 204.567 92.0354 205.43 91.9717ZM245.189 92.4559C245.772 92.1011 246.449 91.9326 247.13 91.9727C248.838 91.9942 249.872 92.6887 250.256 93.9346C250.37 94.3141 250.316 94.468 249.897 94.443C249.325 94.4108 248.759 94.5538 248.329 93.8951C247.971 93.3581 246.704 93.3404 246.149 93.7199C246.026 93.7929 245.925 93.8982 245.857 94.0244C245.79 94.1506 245.758 94.2931 245.766 94.436C245.791 94.7939 246.063 94.8978 246.353 94.9909C247.309 95.288 248.319 95.3812 249.239 95.8251C249.595 95.9633 249.901 96.2051 250.118 96.5192C250.335 96.8332 250.453 97.205 250.456 97.5866C250.498 98.012 250.417 98.4405 250.223 98.8212C250.029 99.202 249.729 99.5191 249.36 99.7349C248.812 100.045 248.199 100.221 247.57 100.25C245.78 100.39 244.377 99.4842 243.99 97.9912C243.9 97.6546 243.904 97.4936 244.316 97.5115C244.935 97.5401 245.533 97.3898 245.923 98.181C246.242 98.829 247.943 98.8969 248.505 98.4279C248.615 98.3572 248.702 98.2562 248.755 98.137C248.809 98.0177 248.826 97.8853 248.806 97.7562C248.785 97.6272 248.727 97.5069 248.64 97.4101C248.552 97.3132 248.438 97.2439 248.311 97.2108C247.828 97.0444 247.332 96.9139 246.829 96.8206C246.347 96.7272 245.875 96.5843 245.422 96.3943C244.652 96.0363 244.151 95.5171 244.115 94.6042C244.072 94.181 244.15 93.7542 244.34 93.3737C244.53 92.9933 244.825 92.6749 245.189 92.4559ZM220.46 91.9727C222.25 91.9727 223.292 92.7101 223.643 94.0241C223.739 94.3821 223.643 94.4501 223.32 94.443C222.698 94.443 222.096 94.5504 221.634 93.8594C221.276 93.3438 220.044 93.3547 219.507 93.7199C219.388 93.7955 219.292 93.9022 219.229 94.0283C219.166 94.1544 219.138 94.2954 219.149 94.436C219.171 94.7939 219.443 94.9049 219.729 94.9944C220.685 95.2915 221.702 95.3738 222.615 95.8321C222.911 95.9742 223.171 96.1816 223.376 96.4384C223.58 96.6952 223.724 96.995 223.796 97.3153C223.869 97.6355 223.868 97.9679 223.793 98.2877C223.719 98.6075 223.573 98.9066 223.367 99.1621C222.39 100.326 221.043 100.39 219.676 100.139C219.132 100.05 218.625 99.8055 218.217 99.4352C217.808 99.065 217.516 98.5846 217.373 98.052C217.23 97.6152 217.345 97.4936 217.782 97.5115C218.362 97.5365 218.909 97.4149 219.267 98.1524C219.586 98.8075 221.24 98.9186 221.842 98.4496C221.952 98.3818 222.041 98.2841 222.097 98.1681C222.154 98.052 222.177 97.9222 222.164 97.7936C222.15 97.6651 222.099 97.5431 222.019 97.4419C221.939 97.3406 221.831 97.2639 221.709 97.2213C221.203 97.0484 220.685 96.9121 220.159 96.8132C219.702 96.7177 219.254 96.5823 218.82 96.4087C217.986 96.0506 217.477 95.4525 217.466 94.5216C217.444 94.0942 217.544 93.6692 217.755 93.2965C217.965 92.9237 218.278 92.6184 218.655 92.4164C219.203 92.1013 219.828 91.9476 220.46 91.9727ZM141.775 91.9657C142.636 91.8937 143.5 92.0806 144.255 92.5024C144.689 92.7546 145.069 93.0911 145.371 93.4919C145.674 93.8928 145.893 94.3502 146.016 94.837H144.559C144.312 94.837 144.223 94.6972 144.094 94.5325C143.726 94.0195 143.176 93.6672 142.556 93.5486C141.937 93.43 141.295 93.554 140.764 93.8951C139.69 94.5897 139.303 96.2011 139.944 97.4185C140.247 97.958 140.74 98.3663 141.326 98.5646C141.912 98.7629 142.551 98.7373 143.12 98.4926C143.423 98.4015 143.684 98.2061 143.857 97.9412C144.309 97.0532 145.111 97.3753 145.794 97.3681C146.185 97.3681 145.923 97.6581 145.87 97.8013C145.565 98.5514 145.036 99.1894 144.356 99.6282C143.675 100.067 142.876 100.286 142.067 100.254C141.212 100.257 140.377 99.9903 139.682 99.4915C138.987 98.9926 138.468 98.287 138.197 97.4754C137.931 96.6781 137.905 95.8203 138.122 95.0083C138.339 94.1963 138.79 93.4656 139.418 92.907C140.092 92.3657 140.913 92.0378 141.775 91.9657ZM1.05756 93.1112C1.97772 91.9117 3.29531 91.8079 4.63794 92.0371C5.86601 92.2376 6.60348 93.018 6.87918 94.2318C6.8803 94.2967 6.87436 94.3615 6.86135 94.4251H5.54388C5.4572 94.4244 5.37225 94.3999 5.29843 94.3545C5.22467 94.3091 5.16474 94.2444 5.125 94.1674C4.85457 93.824 4.47348 93.5845 4.04669 93.4898C3.61994 93.3952 3.17364 93.4513 2.78342 93.6482C2.64012 93.7144 2.51937 93.8212 2.43657 93.9556C2.3538 94.0899 2.31271 94.2458 2.31804 94.4035C2.31804 94.7615 2.56868 94.9047 2.86943 94.9835C3.64274 95.1876 4.43027 95.3418 5.19283 95.5996C6.52473 96.0292 7.02244 96.6522 7.01169 97.7478C7.01165 98.9114 6.35289 99.7168 5.07116 100.071C3.30603 100.558 1.19734 100.071 0.574353 98.145C0.406105 97.6331 0.481218 97.4828 1.03973 97.4971C1.5982 97.5114 2.11365 97.4971 2.45021 98.1628C2.78676 98.8288 4.45877 98.9004 5.03165 98.4314C5.1386 98.3591 5.2234 98.2585 5.2757 98.1405C5.32799 98.0225 5.34575 97.892 5.32745 97.7643C5.30913 97.6366 5.25545 97.5166 5.1722 97.4181C5.08888 97.3196 4.97939 97.2462 4.85647 97.2069C4.34942 97.0373 3.83142 96.9022 3.30614 96.8024C2.80558 96.6922 2.31644 96.5353 1.84532 96.3335C0.355906 95.6604 0.413128 93.9597 1.05756 93.1112ZM193.875 92.0801C194.867 91.9512 195.447 92.3019 195.931 93.1933C196.7 94.6255 197.631 95.9683 198.49 97.3503L198.496 97.3485C198.711 97.2123 198.548 96.9846 198.645 96.8062L198.613 94.7293C198.603 94.0375 198.591 93.3455 198.569 92.6528C198.569 92.2232 198.68 92.0835 199.124 92.0871C200.223 92.0871 200.224 92.0872 200.224 93.1612V99.5237C200.224 99.9819 200.102 100.093 199.636 100.143C198.677 100.243 198.1 99.9424 197.624 99.0688C196.789 97.5799 195.861 96.1449 194.846 94.7723C194.867 95.2414 194.903 95.7105 194.914 96.1832C194.939 97.3646 194.946 98.5461 194.971 99.7275C194.971 100.007 194.885 100.111 194.591 100.136C193.338 100.254 193.317 100.247 193.317 99.0114V92.6493C193.317 92.2125 193.453 92.1338 193.875 92.0801ZM157.245 92.0871C158.226 91.901 158.82 92.2805 159.307 93.1612C160.055 94.5539 160.972 95.8539 161.813 97.1929C161.821 97.1972 161.828 97.2022 161.835 97.2066C162.083 96.9714 161.883 96.6506 161.974 96.3873L161.97 94.5097C161.967 93.8836 161.96 93.2579 161.946 92.6349C161.946 92.259 161.988 92.0835 162.443 92.0871C163.582 92.0871 163.582 92.0657 163.582 93.1933V99.495C163.582 99.9711 163.492 100.114 162.969 100.157C162.57 100.226 162.159 100.157 161.804 99.9618C161.449 99.7667 161.171 99.4569 161.015 99.0831C160.195 97.5794 159.224 96.1615 158.258 94.7258C158.369 96.2367 158.34 97.7371 158.322 99.2373C158.322 99.5237 158.523 99.9534 158.165 100.075C157.724 100.156 157.273 100.156 156.833 100.075C156.65 100.075 156.704 99.8209 156.7 99.6705V92.5098C156.7 92.2019 156.783 92.0405 157.112 92.0871C157.156 92.0942 157.201 92.0942 157.245 92.0871ZM170.181 92.0871C170.635 92.0871 170.775 92.2304 170.721 92.6528C170.7 92.8311 170.7 93.0115 170.721 93.1898C170.764 93.5479 170.624 93.6516 170.274 93.6409C169.357 93.6194 168.44 93.6409 167.524 93.6409C167.109 93.6409 166.94 93.7162 166.947 94.1853C166.947 95.3524 166.947 95.3524 168.086 95.3524H169.965C170.302 95.3524 170.47 95.4348 170.424 95.7999C170.401 95.9782 170.401 96.1588 170.424 96.337C170.488 96.8096 170.291 96.9564 169.826 96.9349C169.045 96.8991 168.258 96.9349 167.477 96.9349C167.08 96.9349 166.926 97.021 166.944 97.4506C166.983 98.1667 166.944 98.9222 166.965 99.6597C166.983 100.082 166.84 100.182 166.432 100.179C165.322 100.179 165.322 100.197 165.322 99.1048L165.308 96.115C165.308 94.9764 165.329 93.8343 165.308 92.6958C165.308 92.2518 165.39 92.0763 165.884 92.0871C167.316 92.1229 168.748 92.1193 170.181 92.0871ZM117.939 92.1266C118.369 91.8545 119.794 92.2052 120.087 92.6528L123.059 97.4541V92.721C123.059 92.2197 123.181 92.0049 123.689 92.0944C123.867 92.1195 124.048 92.1195 124.226 92.0944C124.584 92.055 124.731 92.1803 124.728 92.5741C124.713 94.9204 124.713 97.2643 124.728 99.6058C124.728 100.018 124.591 100.097 124.197 100.15C123.217 100.276 122.608 99.9532 122.132 99.0475C121.437 97.7299 120.582 96.4946 119.787 95.2307C119.676 95.0517 119.629 94.801 119.35 94.7402C119.507 96.3298 119.454 97.916 119.486 99.4985C119.486 99.9854 119.378 100.215 118.859 100.136C118.658 100.115 118.455 100.115 118.254 100.136C117.943 100.161 117.824 100.046 117.824 99.7205V92.4846C117.824 92.3593 117.796 92.2161 117.939 92.1266ZM51.3346 92.1944C51.5586 92.0732 51.8189 92.0378 52.0671 92.0944C52.4488 92.1148 52.8313 92.1148 53.2129 92.0944C52.7153 92.8928 52.2677 93.5981 51.8273 94.307C51.4693 94.8941 50.8179 95.4848 50.8214 96.072C50.8249 96.6591 51.4693 97.2499 51.8381 97.8335C52.3 98.5496 52.7655 99.2908 53.2989 100.125H51.6053C51.3261 100.125 51.2258 99.9389 51.1112 99.767L49.6791 97.3789C49.2566 98.095 48.8233 98.7179 48.4868 99.3981C48.2039 99.9782 47.8423 100.254 47.1871 100.15C46.8123 100.116 46.4354 100.108 46.0595 100.129C46.8436 98.8612 47.5451 97.676 48.3077 96.5482C48.4502 96.3872 48.5291 96.1796 48.5291 95.9646C48.5291 95.7496 48.4502 95.5421 48.3077 95.3811C47.5917 94.3535 46.9581 93.2864 46.2134 92.1192H48.0035C48.2541 92.1192 48.3079 92.3592 48.4081 92.5203C48.827 93.2041 49.2386 93.8952 49.7112 94.6685C50.1158 93.9954 50.535 93.4012 50.85 92.7531C50.9384 92.5143 51.1106 92.3156 51.3346 92.1944ZM82.7367 92.0979C83.0554 92.0979 83.1843 92.2017 83.1521 92.5203C83.1306 92.7202 83.1306 92.9221 83.1521 93.122C83.2093 93.5408 83.0375 93.6769 82.6294 93.6447C82.2213 93.6125 81.7774 93.6626 81.3549 93.6447C80.9325 93.6268 80.8143 93.7627 80.8179 94.1744C80.8394 95.9395 80.7782 97.7083 80.8462 99.4698C80.882 100.322 80.3738 100.107 79.9119 100.154C79.3641 100.204 79.0955 100.086 79.142 99.4377C79.2136 98.5856 79.1672 97.7335 79.1672 96.8814V94.1349C79.1672 93.777 79.0811 93.591 78.6801 93.6304C78.4118 93.6447 78.1429 93.6447 77.8745 93.6304C76.8399 93.6304 76.6393 93.3651 76.8469 92.3447C76.9007 92.0799 77.0547 92.0979 77.2301 92.0979H82.7367ZM275.698 93.0682C275.949 92.3593 276.228 91.8399 277.098 92.1371C277.957 91.8758 278.286 92.3055 278.555 93.0786C279.3 95.2483 280.134 97.3752 280.961 99.5233C281.143 99.9923 281.101 100.143 280.56 100.136C279.436 100.136 279.386 100.161 279.067 99.0614C278.87 98.3742 278.537 98.102 277.846 98.2237C277.668 98.2523 277.487 98.2523 277.309 98.2237C276.02 97.9946 275.111 98.3207 274.921 99.7814C274.853 100.29 274.423 100.139 274.115 100.139C273.041 100.139 273.041 100.139 273.431 99.1548C274.19 97.132 274.971 95.1161 275.698 93.0682ZM84.8706 92.0871C85.9984 92.0871 85.9986 92.0693 85.9986 93.2007C85.9986 95.2558 85.9663 97.3109 86.0164 99.3625C86.0164 100.039 85.8159 100.24 85.1965 100.132C85.1301 100.122 85.0625 100.122 84.9961 100.132C84.5093 100.211 84.3335 100.043 84.3514 99.5202C84.3836 98.3817 84.3552 97.243 84.3552 96.1045V92.6241C84.3553 92.2232 84.4411 92.0835 84.8706 92.0871ZM231.065 92.1881C231.19 92.101 231.344 92.0647 231.495 92.0871C233.084 92.087 233.084 92.0693 233.643 93.5192C234.387 95.5027 235.118 97.49 235.881 99.4663C236.067 99.946 236.095 100.157 235.458 100.129C234.384 100.086 234.32 100.129 234.026 99.0544C233.822 98.3385 233.474 98.0986 232.755 98.1737C232.152 98.2202 231.546 98.2202 230.943 98.1737C230.585 98.1737 230.342 98.2598 230.281 98.6464C230.266 98.6889 230.247 98.7297 230.224 98.7681C229.679 100.261 229.679 100.261 228.029 100.071C228.605 98.5389 229.178 97.0208 229.747 95.5027C230.105 94.5218 230.496 93.548 230.821 92.5563C230.853 92.407 230.94 92.2753 231.065 92.1881ZM281.516 92.0762C282.35 92.1406 283.181 92.0979 284.008 92.0979H286.625C287.012 92.0979 287.151 92.2161 287.101 92.5884C287.08 92.744 287.08 92.9018 287.101 93.0573C287.169 93.5192 287.001 93.6731 286.521 93.6552C285.97 93.6552 285.243 93.4012 284.907 93.7521C284.57 94.1029 284.799 94.8582 284.792 95.4311C284.792 96.7951 284.76 98.1593 284.792 99.5198C284.792 100.039 284.634 100.211 284.144 100.143C283.989 100.118 283.83 100.118 283.675 100.143C283.231 100.204 283.098 100.021 283.102 99.581C283.124 97.8374 283.102 96.0936 283.123 94.35C283.123 93.8165 283.02 93.5515 282.432 93.6339C282.171 93.6697 281.892 93.6052 281.63 93.6339C280.972 93.7305 280.743 93.5192 280.771 92.814C280.796 92.2375 280.911 92.0368 281.516 92.0762ZM63.6034 92.0836C64.7454 92.0836 64.7453 92.0837 64.7453 93.1972C64.7453 95.2917 64.7238 97.3862 64.7453 99.4807C64.7453 100.021 64.5843 100.197 64.0653 100.136C63.9775 100.122 63.8879 100.122 63.8002 100.136C63.2346 100.225 63.0089 100.043 63.0411 99.4198C63.1056 98.335 63.0663 97.2392 63.0663 96.1471V92.6745C63.0663 92.2735 63.1236 92.08 63.6034 92.0836ZM301.179 92.1192C301.591 91.8651 303.016 92.1981 303.274 92.6098L306.002 96.9779C306.111 97.1668 306.245 97.3404 306.4 97.4936C306.264 95.904 306.332 94.325 306.296 92.7496C306.296 92.2305 306.414 92.012 306.951 92.0944C307.151 92.1159 307.353 92.1159 307.552 92.0944C307.835 92.0693 307.946 92.1696 307.943 92.4524V99.7527C307.948 99.8602 307.917 99.9664 307.853 100.053C307.588 100.3 306.034 100.053 305.837 99.7384C304.904 98.2465 303.973 96.751 303.045 95.252C302.912 95.0874 302.787 94.9083 302.683 94.7293C302.766 96.3405 302.683 97.9268 302.715 99.5093C302.715 100.014 302.593 100.225 302.085 100.136C301.885 100.113 301.683 100.113 301.484 100.136C301.154 100.168 301.068 100.021 301.068 99.7097V92.4773C301.068 92.352 301.036 92.2087 301.179 92.1192ZM111.466 92.4486C111.702 91.7866 112.243 92.2623 112.565 92.0979C113.932 92.1337 113.582 91.8725 114.051 93.0968C114.871 95.245 115.655 97.3934 116.478 99.5415C116.661 100.007 116.614 100.154 116.077 100.146C114.957 100.125 114.917 100.146 114.584 99.0723C114.384 98.4101 114.061 98.1021 113.36 98.2345C113.183 98.2649 113.003 98.2649 112.826 98.2345C111.541 98.009 110.617 98.3206 110.438 99.7884C110.435 99.8442 110.419 99.8988 110.393 99.9481C110.367 99.9975 110.33 100.041 110.285 100.075C110.241 100.109 110.19 100.133 110.135 100.145C110.08 100.157 110.024 100.158 109.969 100.146H109.031C108.72 100.146 108.619 100.021 108.737 99.7062C109.654 97.2907 110.564 94.8713 111.466 92.4486ZM288.863 92.0871C289.937 92.0871 289.937 92.0872 289.937 93.1828C289.937 95.2809 289.919 97.3791 289.937 99.4772C289.937 100.007 289.801 100.215 289.271 100.136C289.094 100.113 288.915 100.113 288.738 100.136C288.38 100.179 288.283 100.014 288.287 99.674C288.312 98.4889 288.301 97.3074 288.301 96.1223C288.301 94.9623 288.322 93.802 288.301 92.6419C288.301 92.1946 288.43 92.0835 288.863 92.0871ZM176.926 92.0871C177.355 92.0871 177.441 92.2268 177.438 92.6206C177.438 93.6339 177.438 93.6339 176.41 93.6339C175.673 93.6339 174.935 93.6554 174.198 93.6339C173.807 93.6339 173.653 93.709 173.653 94.1458C173.653 95.2628 173.632 95.2629 174.785 95.2629C175.386 95.2629 175.991 95.2808 176.575 95.2629C176.965 95.2629 177.18 95.3454 177.116 95.7786C177.096 95.9115 177.096 96.0467 177.116 96.1797C177.194 96.6951 177.012 96.8954 176.468 96.8489C175.669 96.7988 174.86 96.8489 174.058 96.831C173.732 96.831 173.654 96.9349 173.639 97.2499C173.586 98.5747 173.575 98.5747 174.885 98.5747C175.58 98.5747 176.271 98.5926 176.962 98.5747C177.32 98.5747 177.413 98.6643 177.42 99.0188C177.42 100.154 177.456 100.15 176.303 100.15H172.615C172.16 100.15 171.992 100.054 172.006 99.5667C172.046 98.3959 172.024 97.2358 172.024 96.0758V92.6601C172.024 92.2448 172.107 92.0799 172.569 92.0871C174.019 92.1193 175.472 92.1157 176.926 92.0871ZM215.87 92.0871C216.306 92.0871 216.385 92.2339 216.382 92.6241C216.382 93.6337 216.382 93.6339 215.411 93.6339C214.674 93.6339 213.936 93.6625 213.199 93.6339C212.726 93.6088 212.544 93.7628 212.608 94.2318C212.631 94.4088 212.631 94.5883 212.608 94.7653C212.565 95.1412 212.701 95.281 213.091 95.2702C213.872 95.2452 214.66 95.2987 215.44 95.2485C215.995 95.2128 216.156 95.4278 216.081 95.929C216.065 96.0405 216.065 96.1538 216.081 96.2653C216.167 96.7594 215.93 96.8563 215.483 96.8384C214.677 96.8062 213.872 96.8384 213.066 96.8384C212.708 96.8384 212.611 96.9244 212.601 97.2859C212.565 98.582 212.551 98.5821 213.818 98.5821C214.513 98.5821 215.207 98.6036 215.898 98.5821C216.288 98.5821 216.382 98.7038 216.382 99.0761C216.382 100.15 216.403 100.15 215.347 100.15H211.523C211.068 100.15 210.961 100.011 210.972 99.581C210.99 98.4174 210.972 97.2464 210.972 96.0828V92.6636C210.972 92.259 211.036 92.0763 211.509 92.0871C212.962 92.1193 214.416 92.1157 215.87 92.0871ZM54.4122 92.7175C54.4122 92.2126 54.5414 92.0013 55.0426 92.0944C55.198 92.1177 55.3561 92.1177 55.5115 92.0944C55.9339 92.0407 56.106 92.1874 56.0846 92.6419C56.0452 93.3293 56.0843 94.024 56.0664 94.715C56.0664 95.073 56.1239 95.245 56.5356 95.2307C57.4307 95.2021 58.3259 95.2057 59.2174 95.2307C59.5753 95.2307 59.6683 95.1018 59.6576 94.7653C59.6361 94.0493 59.6576 93.3332 59.6576 92.6171C59.6576 92.2162 59.7435 92.0801 60.1695 92.0801C61.3044 92.0801 61.3045 92.0585 61.3045 93.1933L61.3188 96.0793V99.5628C61.3188 99.9817 61.2328 100.146 60.7674 100.143C59.672 100.143 59.672 100.143 59.672 99.051V97.1786C59.672 96.8814 59.5753 96.7918 59.2852 96.7954C58.3687 96.7954 57.4521 96.8169 56.5391 96.7954C56.1811 96.7954 56.0736 96.91 56.0807 97.2573C56.1022 98.0127 56.0807 98.7752 56.0807 99.5307C56.1022 99.989 55.9661 100.204 55.4863 100.132C55.3533 100.115 55.2186 100.115 55.0856 100.132C54.5665 100.211 54.4051 100.018 54.4122 99.4772C54.4456 97.224 54.4456 94.9707 54.4122 92.7175ZM97.7135 92.0549C98.6874 91.9618 99.2388 92.3165 99.7079 93.165C100.524 94.6436 101.476 96.0294 102.443 97.4615C102.339 96.1833 102.361 94.9119 102.361 93.6409C102.384 93.3741 102.384 93.1059 102.361 92.8391C102.246 92.1624 102.554 92.0694 103.167 92.0479C103.883 92.0193 104.029 92.2662 104.015 92.9356C103.972 95.1232 103.983 97.3109 104.015 99.4985C104.015 100.018 103.847 100.075 103.378 100.129C102.429 100.236 101.892 99.8887 101.433 99.0544C100.588 97.5866 99.629 96.1688 98.7268 94.7188C98.7912 96.355 98.7268 97.9412 98.7554 99.5237C98.7554 100.046 98.5979 100.157 98.1145 100.143C97.1085 100.111 97.1086 100.143 97.1086 99.1583V92.7136C97.1086 92.2411 97.198 92.105 97.7135 92.0549ZM11.7665 92.0836C12.461 92.0442 12.7621 92.2592 12.9948 92.9286C13.7646 95.1413 14.6023 97.3255 15.4616 99.5058C15.6906 100.089 15.5186 100.193 14.9889 100.132C14.7892 100.107 14.5871 100.107 14.3875 100.132C14.0296 100.179 13.8791 100.011 13.7609 99.6957C13.1988 98.2135 13.1915 98.2167 11.6127 98.2167C10.0338 98.2167 10.0228 98.2168 9.48579 99.6488C9.3605 99.9853 9.21728 100.172 8.82356 100.132C8.42976 100.093 8.05353 100.129 7.56309 100.129C8.45102 97.7623 9.29983 95.492 10.1484 93.2185C10.5672 92.098 10.5708 92.1444 11.7665 92.0836ZM191.588 92.0909C191.946 92.0909 192.142 92.1768 192.078 92.5706C192.074 92.6147 192.074 92.6591 192.078 92.7031C192.078 93.6339 192.078 93.6339 191.176 93.6339H188.827C188.469 93.6339 188.315 93.6911 188.308 94.1028C188.286 95.2592 188.265 95.2594 189.411 95.2594H191.287C191.645 95.2594 191.838 95.349 191.788 95.7464C191.767 95.9463 191.766 96.148 191.788 96.3478C191.835 96.7058 191.698 96.8526 191.312 96.8419C190.46 96.8132 189.611 96.842 188.762 96.8241C188.405 96.8241 188.319 96.9422 188.308 97.2859C188.276 98.5712 188.265 98.5712 189.536 98.5712C190.209 98.5712 190.879 98.5891 191.552 98.5712C191.938 98.5712 192.096 98.6287 192.092 99.0726C192.092 100.147 192.092 100.147 191.043 100.147C189.815 100.147 188.584 100.125 187.352 100.147C186.847 100.147 186.636 100.053 186.672 99.495C186.704 98.3529 186.679 97.2141 186.679 96.072V92.5884C186.679 92.2304 186.765 92.0837 187.159 92.0909C188.634 92.1124 190.113 92.0909 191.588 92.0909ZM70.1627 92.1017C71.1114 92.1233 71.953 92.4026 72.311 93.3979C72.4962 93.8235 72.5184 94.3027 72.3732 94.7437C72.2279 95.1847 71.9253 95.5572 71.5232 95.7895C71.9726 96.0216 72.3313 96.398 72.541 96.8583C72.7507 97.3187 72.7993 97.8364 72.6795 98.3279C72.5895 98.7699 72.3628 99.1727 72.0313 99.4786C71.6997 99.7844 71.2801 99.9779 70.8323 100.032C69.5005 100.243 68.1504 100.09 66.8114 100.129C66.543 100.129 66.4534 99.9999 66.4533 99.7709V92.4598C66.4533 92.1376 66.618 92.1017 66.8757 92.1017H70.1627ZM33.059 92.7136C33.059 92.2411 33.1378 91.9977 33.6677 92.0801C33.8456 92.1087 34.0269 92.1087 34.2048 92.0801C34.6451 92.012 34.7168 92.2234 34.7096 92.6136C34.6882 93.7879 34.7023 94.948 34.7023 96.108C34.7023 97.2465 34.6737 98.3887 34.7023 99.5237C34.7238 100.046 34.5447 100.157 34.0614 100.143C33.059 100.111 33.059 100.143 33.059 99.1583V92.7136ZM270.216 92.7314C270.216 92.2446 270.317 92.0157 270.839 92.0944C270.995 92.1177 271.153 92.1177 271.308 92.0944C271.777 92.03 271.924 92.2125 271.91 92.6849C271.892 93.845 271.892 95.0087 271.892 96.1723V99.5237C271.892 99.9675 271.802 100.161 271.308 100.143C269.994 100.093 270.234 100.286 270.216 99.0331V92.7314ZM74.6235 92.1014C75.6976 92.13 75.6976 92.1015 75.6976 93.1468L75.6872 96.0793C75.6872 97.2393 75.6693 98.4029 75.6872 99.5628C75.6872 99.9817 75.6047 100.146 75.1393 100.143C74.0437 100.143 74.0435 100.143 74.0435 99.0688V92.7066C74.0435 92.252 74.1331 92.0871 74.6235 92.1014ZM44.8207 92.0905C45.1786 92.0906 45.3718 92.1804 45.3109 92.5706C45.3002 92.6369 45.3002 92.7046 45.3109 92.771C45.4255 93.4441 45.2001 93.7162 44.4697 93.6517C43.6712 93.5801 42.862 93.6516 42.0564 93.6265C41.6269 93.6266 41.5375 93.7663 41.541 94.1636C41.541 95.2377 41.5231 95.2377 42.6151 95.2377H44.4948C44.8528 95.2377 45.0426 95.3346 44.9997 95.7283C44.9801 95.951 44.9801 96.1751 44.9997 96.3978C45.0266 96.6999 44.9149 96.81 44.6354 96.8167H41.9599C41.6556 96.8167 41.5445 96.8884 41.5302 97.2213C41.4657 98.5603 41.4515 98.5604 42.7655 98.5604H44.842C45.1822 98.5604 45.3613 98.6322 45.3004 99.001C45.2951 99.0449 45.2951 99.0895 45.3004 99.1335C45.3004 100.136 45.3001 100.136 44.3263 100.136C43.0769 100.136 41.8202 100.114 40.5708 100.136C40.0624 100.136 39.8547 100.036 39.8869 99.4807C39.937 98.3493 39.9047 97.207 39.9047 96.0685V92.5849C39.9047 92.2054 40.0086 92.087 40.3917 92.0905C41.8668 92.112 43.3456 92.0905 44.8207 92.0905ZM128.319 92.1014C129.393 92.0799 130.467 92.0477 131.441 92.6276C132.202 93.0649 132.798 93.7415 133.135 94.5521C133.472 95.3626 133.532 96.2621 133.306 97.1104C132.891 98.8396 131.43 100.01 129.497 100.114C128.605 100.161 127.706 100.114 126.818 100.136C126.496 100.136 126.396 100.032 126.396 99.7132V92.4808C126.396 92.1945 126.482 92.0837 126.776 92.0944C127.288 92.1123 127.8 92.1014 128.319 92.1014ZM179.378 92.0762C180.313 92.1156 181.255 92.0762 182.193 92.0762C183.729 92.0762 184.667 92.7102 184.953 93.9024C185.293 95.4133 184.81 96.3802 183.267 97.1499L185.483 100.129H183.718C183.439 100.129 183.335 99.946 183.206 99.7705C182.683 99.0545 182.132 98.3384 181.652 97.5901C181.557 97.4251 181.407 97.2986 181.228 97.2331C181.05 97.1677 180.853 97.1673 180.674 97.2321C180.317 97.3144 180.502 97.6795 180.488 97.9087C180.458 98.4668 180.458 99.0264 180.488 99.5845C180.51 99.9819 180.395 100.139 179.969 100.129C178.562 100.089 178.834 100.272 178.823 99.0153V92.6528C178.823 92.2339 178.909 92.0583 179.378 92.0762ZM25.2325 92.0905C25.9915 92.1263 26.7542 92.0905 27.5132 92.0905C29.9119 92.1121 31.6161 93.72 31.652 95.9898C31.6949 98.3205 30.0622 100.014 27.6527 100.111C26.8043 100.143 25.9557 100.111 25.1073 100.111C24.6956 100.111 24.631 99.9565 24.6346 99.5985C24.6417 98.4457 24.6311 97.2643 24.6311 96.0793C24.6311 94.9408 24.6561 93.802 24.6311 92.6671C24.6311 92.1767 24.7814 92.0691 25.2325 92.0905ZM256.484 93.6909C256.006 93.4979 255.481 93.4512 254.977 93.5573C254.473 93.6634 254.012 93.9175 253.652 94.2867C253.292 94.6558 253.051 95.1238 252.958 95.6307C252.865 96.1375 252.926 96.6607 253.131 97.1331C253.337 97.6056 253.678 98.0064 254.112 98.2842C254.547 98.5619 255.054 98.7042 255.569 98.6929C255.911 98.704 256.252 98.6433 256.569 98.5153C256.887 98.3873 257.174 98.1947 257.413 97.9496C257.652 97.7043 257.837 97.4116 257.956 97.0908C258.076 96.7701 258.127 96.428 258.107 96.0863C258.105 95.571 257.949 95.0678 257.66 94.6412C257.371 94.2147 256.961 93.8839 256.484 93.6909ZM92.1073 93.7426C91.6265 93.6337 91.1244 93.669 90.6636 93.844C90.2027 94.0192 89.8035 94.3265 89.5164 94.7272C89.2293 95.128 89.0665 95.6045 89.0489 96.0971C89.0334 96.4322 89.0863 96.7669 89.2038 97.081C89.3213 97.3951 89.5013 97.6821 89.7328 97.9247C89.9644 98.1673 90.2427 98.3606 90.551 98.4926C90.8593 98.6246 91.1915 98.6928 91.5268 98.6929C92.0198 98.6982 92.5034 98.5579 92.917 98.2898C93.3307 98.0216 93.6563 97.6374 93.8527 97.1852C94.0491 96.733 94.1076 96.2329 94.0212 95.7475C93.9348 95.2621 93.7071 94.8129 93.3667 94.4563C93.0263 94.0997 92.5881 93.8515 92.1073 93.7426ZM296.071 93.693C295.583 93.5889 295.075 93.6317 294.611 93.8157C294.147 93.9998 293.748 94.3173 293.464 94.7276C293.181 95.1379 293.025 95.6232 293.016 96.122C293.002 96.458 293.056 96.7937 293.176 97.108C293.296 97.4222 293.479 97.7087 293.713 97.9496C293.948 98.1904 294.23 98.3805 294.541 98.5083C294.852 98.6361 295.186 98.6991 295.522 98.6929C296.021 98.697 296.511 98.5533 296.928 98.28C297.345 98.0067 297.673 97.6158 297.869 97.1569C298.064 96.698 298.12 96.1911 298.028 95.7006C297.937 95.2103 297.702 94.7579 297.354 94.4007C297.005 94.0434 296.559 93.7971 296.071 93.693ZM128.437 93.6339C128.1 93.6088 128.032 93.7806 128.032 94.0776V96.0793L128.036 97.2821C128.036 98.6104 128.036 98.6106 129.393 98.5569C130.001 98.566 130.59 98.3383 131.034 97.9223C131.478 97.5062 131.743 96.9339 131.774 96.3262C131.853 94.8977 131.086 93.8954 129.704 93.6912C129.289 93.6339 128.859 93.6625 128.437 93.6339ZM26.7255 93.63C26.3603 93.605 26.2779 93.7699 26.2779 94.1028V96.1076L26.2671 97.3073C26.2671 98.5961 26.2672 98.5963 27.581 98.5569C28.9594 98.5175 29.937 97.6078 30.0086 96.301C30.098 94.8547 29.2924 93.8558 27.8604 93.6695C27.4845 93.6302 27.0906 93.6551 26.7255 93.63ZM68.6802 96.7706C68.1827 96.7241 68.104 96.9316 68.104 97.3754C68.1255 98.5532 68.104 98.5534 69.289 98.5534C69.5789 98.5534 69.869 98.5678 70.1554 98.5499C70.7317 98.5176 71.0613 98.2275 71.0613 97.6261C71.0683 97.5081 71.0489 97.3897 71.0047 97.28C70.9604 97.1703 70.8923 97.0717 70.8054 96.9915C70.7184 96.9114 70.6145 96.8515 70.5015 96.8164C70.3886 96.7812 70.269 96.7718 70.1519 96.7884C69.6614 96.7705 69.1779 96.8171 68.6802 96.7706ZM151.151 93.5014C150.661 93.5108 150.185 93.6636 149.781 93.9405C149.377 94.2175 149.064 94.6068 148.879 95.0601C148.694 95.5134 148.645 96.0111 148.74 96.4915C148.834 96.9719 149.068 97.4139 149.411 97.7632C149.754 98.1125 150.192 98.354 150.67 98.4573C151.149 98.5605 151.648 98.5211 152.104 98.3443C152.561 98.1675 152.956 97.8608 153.24 97.4622C153.524 97.0635 153.685 96.5902 153.703 96.101C153.722 95.7587 153.669 95.4161 153.548 95.0954C153.427 94.7747 153.24 94.4826 153 94.2381C152.76 93.9935 152.472 93.8016 152.153 93.6748C151.835 93.548 151.493 93.4889 151.151 93.5014ZM277.112 93.7626C276.736 94.8008 276.41 95.7105 276.066 96.6772H277.821C278.068 96.6808 278.158 96.6053 278.068 96.3618L277.112 93.7626ZM111.57 96.652H113.671C113.342 95.7033 112.984 94.7973 112.626 93.7591C112.253 94.7758 111.928 95.6675 111.57 96.652ZM11.6127 93.7629C11.2296 94.8048 10.9253 95.6892 10.5673 96.6272H12.6581L11.6127 93.7629ZM231.018 96.6272H233.099C232.776 95.7143 232.447 94.8369 232.06 93.7629L231.018 96.6272ZM181.552 93.6517C180.478 93.6302 180.478 93.6876 180.478 94.7258C180.478 95.7641 180.478 95.7643 181.52 95.7643C181.806 95.7643 182.1 95.7856 182.382 95.7713C182.635 95.752 182.872 95.6411 183.048 95.4594C183.225 95.2777 183.329 95.0376 183.341 94.7846C183.353 94.5316 183.272 94.283 183.113 94.0856C182.954 93.8882 182.729 93.7553 182.479 93.7126C182.172 93.6707 181.862 93.6504 181.552 93.6517ZM70.1806 93.6986C69.5864 93.632 68.9877 93.6117 68.3904 93.6377C68.24 93.6306 68.1219 93.6913 68.1219 93.8559C68.1326 94.2962 67.968 94.7976 68.197 95.1555C68.3618 95.4202 68.8165 95.2058 69.153 95.2702C69.4716 95.2559 69.8048 95.2593 70.1306 95.2164C70.2253 95.2096 70.3179 95.184 70.4026 95.1412C70.4873 95.0983 70.5627 95.039 70.6243 94.9667C70.6859 94.8945 70.7328 94.8107 70.7617 94.7202C70.7906 94.6298 70.8011 94.5341 70.7928 94.4395C70.8097 94.2601 70.7547 94.0812 70.64 93.9423C70.5253 93.8034 70.3599 93.7158 70.1806 93.6986ZM261.541 85.528C261.901 85.5309 262.246 85.6762 262.499 85.9326C262.752 86.1889 262.893 86.5353 262.891 86.8955C262.889 87.0742 262.853 87.2509 262.783 87.4154C262.713 87.58 262.612 87.7292 262.485 87.8546C262.357 87.9799 262.207 88.0788 262.041 88.1458C261.875 88.2129 261.698 88.2469 261.519 88.2455C261.341 88.2441 261.164 88.2074 261 88.1378C260.835 88.0681 260.686 87.9665 260.561 87.8392C260.435 87.7119 260.336 87.5611 260.269 87.3955C260.202 87.2299 260.168 87.0528 260.17 86.8742C260.171 86.6955 260.207 86.5188 260.276 86.3543C260.346 86.1897 260.448 86.0406 260.575 85.9154C260.702 85.7903 260.853 85.6914 261.019 85.6249C261.185 85.5584 261.362 85.5257 261.541 85.528ZM292.941 85.528C293.302 85.5281 293.648 85.6704 293.904 85.9245C294.161 86.1787 294.306 86.5241 294.309 86.885C294.309 87.2458 294.165 87.5918 293.91 87.8469C293.655 88.102 293.309 88.2455 292.948 88.2455C292.587 88.2455 292.241 88.102 291.986 87.8469C291.731 87.5918 291.588 87.2458 291.588 86.885C291.588 86.5258 291.73 86.181 291.984 85.9266C292.237 85.6723 292.582 85.529 292.941 85.528ZM258.34 85.5385C258.519 85.5347 258.697 85.5669 258.863 85.6329C259.029 85.699 259.181 85.7977 259.308 85.9231C259.436 86.0486 259.537 86.1982 259.605 86.3633C259.674 86.5285 259.709 86.7061 259.708 86.885C259.701 87.2337 259.562 87.5669 259.318 87.8168C259.075 88.0667 258.746 88.2149 258.397 88.2312C258.219 88.2374 258.04 88.2077 257.873 88.1441C257.706 88.0805 257.554 87.9842 257.424 87.8609C257.295 87.7375 257.191 87.5895 257.12 87.4256C257.048 87.2617 257.011 87.0851 257.008 86.9063C257.001 86.7279 257.031 86.5499 257.095 86.3833C257.159 86.2166 257.256 86.0647 257.381 85.9368C257.505 85.8089 257.655 85.7077 257.819 85.6392C257.984 85.5708 258.162 85.5365 258.34 85.5385ZM178.856 85.5242C179.035 85.5228 179.212 85.557 179.378 85.6249C179.543 85.6928 179.693 85.7933 179.82 85.92C179.946 86.0466 180.046 86.197 180.113 86.3626C180.181 86.5283 180.214 86.7061 180.213 86.885C180.199 87.234 180.054 87.565 179.807 87.8123C179.561 88.0596 179.23 88.2053 178.881 88.2203C178.702 88.2236 178.525 88.1915 178.359 88.1256C178.193 88.0596 178.042 87.9613 177.914 87.8364C177.786 87.7114 177.685 87.5622 177.615 87.3976C177.546 87.233 177.51 87.0563 177.509 86.8777C177.504 86.699 177.534 86.521 177.6 86.3546C177.665 86.1882 177.764 86.037 177.89 85.9102C178.016 85.7834 178.167 85.6835 178.333 85.6172C178.499 85.5509 178.677 85.5192 178.856 85.5242ZM181.996 85.5242C182.174 85.517 182.353 85.546 182.52 85.6095C182.687 85.673 182.84 85.77 182.968 85.8941C183.097 86.0182 183.2 86.1671 183.27 86.3319C183.339 86.4966 183.375 86.6737 183.374 86.8525C183.375 87.0312 183.341 87.2084 183.273 87.3738C183.206 87.5392 183.106 87.6898 182.981 87.8168C182.855 87.9438 182.706 88.0448 182.541 88.114C182.376 88.1833 182.199 88.2194 182.021 88.2203C181.66 88.2102 181.317 88.061 181.064 87.8042C180.81 87.5474 180.666 87.2028 180.66 86.842C180.671 86.493 180.816 86.1614 181.065 85.9161C181.313 85.6709 181.647 85.5305 181.996 85.5242ZM235.419 72.3845C237.083 72.4203 237.087 72.3845 237.087 74.0457V83.4337C237.087 83.9669 236.94 84.0995 236.418 84.0924C233.532 84.0673 230.646 84.0924 227.76 84.0924C226.328 84.0924 225.827 83.8775 224.82 82.8536C223.99 83.8882 222.869 84.1281 221.598 84.1102C218.555 84.0673 215.513 84.0673 212.472 84.1102C211.552 84.1102 210.853 83.8667 210.323 82.9718C209.718 84.1565 208.673 84.1283 207.599 84.1032C206.188 84.071 204.777 84.1032 203.37 84.1032C203.302 84.0905 203.231 84.0922 203.163 84.1085C203.095 84.1248 203.031 84.1552 202.975 84.1976C202.919 84.2401 202.873 84.294 202.84 84.3553C202.806 84.4167 202.786 84.4846 202.78 84.5543C202.135 87.0174 200.656 88.0989 198.032 88.0595C197.965 88.0631 197.898 88.0631 197.832 88.0595C195.483 87.8089 196.041 88.2776 195.963 86.0329C195.963 85.632 196.088 85.5315 196.464 85.578C197.215 85.7105 197.983 85.7105 198.734 85.578C199.044 85.5322 199.34 85.417 199.6 85.241C199.86 85.065 200.077 84.8325 200.234 84.5613C200.431 84.2033 200.345 84.0959 199.951 84.1102C199.056 84.1595 198.159 84.0502 197.302 83.7879C195.318 83.147 194.234 81.6398 194.309 79.6134C194.38 77.7123 195.741 76.1405 197.735 75.675C199.346 75.2884 200.986 75.4634 202.615 75.4348C203.066 75.4349 202.937 75.7929 202.941 76.0149C202.941 77.7119 202.97 79.4129 202.941 81.1099C202.941 81.6826 203.113 81.8258 203.657 81.8043C204.792 81.7649 205.931 81.8043 207.065 81.8043L207.198 81.561C206.84 81.2388 206.482 80.8916 206.092 80.598C205.873 80.4387 205.71 80.2145 205.626 79.9575C205.542 79.7006 205.541 79.4235 205.622 79.1659C206.027 76.8458 208.154 75.2275 210.635 75.3491C211.777 75.3974 212.861 75.8603 213.686 76.6512C214.511 77.4422 215.019 78.507 215.114 79.6456C215.128 79.7664 215.111 79.8889 215.066 80.0019C215.021 80.1148 214.949 80.215 214.856 80.2935C214.366 80.724 213.931 81.2149 213.564 81.7543H215.712C216.314 81.7543 216.919 81.7257 217.502 81.7543C217.96 81.7793 218.061 81.6037 218.054 81.1777C218.032 79.5917 218.054 78.0054 218.054 76.4194C218.054 75.9792 218.168 75.8254 218.609 75.8684C219.207 75.9256 219.984 75.6283 220.356 75.9827C220.728 76.3372 220.463 77.1251 220.471 77.7194C220.471 78.8579 220.496 80.0001 220.471 81.1386C220.471 81.5788 220.549 81.7578 221.047 81.7578C222.941 81.7578 223.317 81.3998 223.32 79.4952C223.32 78.4677 223.346 77.4399 223.32 76.4124C223.32 75.9577 223.46 75.829 223.886 75.8684C224.484 75.922 225.264 75.6249 225.63 75.9827C225.995 76.3408 225.726 77.1251 225.741 77.7194C225.762 78.4783 225.719 79.2409 225.759 79.9998C225.762 80.311 225.841 80.617 225.99 80.8903C226.139 81.1637 226.353 81.3965 226.612 81.5679C226.872 81.7394 227.17 81.8445 227.48 81.8739C227.79 81.9032 228.103 81.856 228.39 81.7365C228.705 81.6255 228.587 81.3783 228.591 81.1742V75.9435C228.591 75.4996 228.67 75.2847 229.171 75.3348C229.616 75.376 230.065 75.376 230.51 75.3348C230.947 75.2955 231.025 75.4746 231.022 75.8684C231.022 77.6119 231.022 79.3556 231 81.0956C231 81.6503 231.176 81.7793 231.684 81.7543C232.486 81.7149 233.295 81.7149 234.101 81.7543C234.581 81.7758 234.699 81.6073 234.699 81.1456C234.677 78.464 234.699 75.775 234.67 73.1006C234.67 72.4848 234.853 72.3845 235.419 72.3845ZM102.604 75.3988C103.198 75.4561 103.961 75.1558 104.352 75.5243C104.742 75.8931 104.427 76.6235 104.462 77.1998C104.495 77.2535 104.498 77.3397 104.512 77.5222C106.772 75.1341 109.944 74.6795 112.357 76.3586C113.008 76.7807 113.541 77.3605 113.908 78.0439C114.275 78.7273 114.463 79.4927 114.455 80.2683V83.5515C114.455 83.9954 114.33 84.1064 113.897 84.1064H104.719C104.458 84.108 104.247 84.1376 104.119 84.5039C103.288 87.182 101.186 88.1056 98.6943 88.0483C97.1871 88.0124 95.7657 87.6509 94.6558 86.534C93.342 85.2236 93.202 83.5836 93.3954 81.8795C93.3954 81.8366 93.4169 81.7934 93.424 81.7505C93.9002 79.5236 93.4244 80.0892 95.6404 80.0033C95.9983 80.0033 96.0449 80.1072 95.9698 80.44C95.7443 81.4424 95.5438 82.4486 95.7478 83.4868C95.8164 83.9765 96.0285 84.4355 96.3572 84.805C96.6859 85.1744 97.1169 85.4385 97.5953 85.5637C98.2447 85.7474 98.9266 85.7878 99.5932 85.6819C101.244 85.4277 102.017 84.3749 102.039 82.3162C102.065 80.1919 102.065 78.0686 102.039 75.9467C102.039 75.4994 102.171 75.3524 102.604 75.3988ZM83.2416 75.6463C84.8492 75.2525 86.4926 75.4349 88.1216 75.3991C88.3937 75.3991 88.4581 75.5496 88.4545 75.7824C88.4151 78.5284 88.5941 81.2819 88.365 84.0172C88.1644 86.3873 86.7502 87.7228 84.3944 87.977C84.0007 88.031 83.6027 88.0502 83.2056 88.0343C81.3082 87.9054 81.2546 87.8157 81.4801 85.8861C81.5159 85.5603 81.6591 85.528 81.9133 85.5602C82.4016 85.6191 82.8928 85.6516 83.3846 85.6571C85.2285 85.6248 85.984 84.8654 86.0699 82.9249C85.6606 83.3716 85.1446 83.7072 84.5703 83.9001C83.9959 84.0929 83.3817 84.1368 82.7857 84.0277C82.1897 83.9186 81.6311 83.6601 81.1623 83.2763C80.6935 82.8925 80.3299 82.3957 80.1053 81.833C79.8441 81.2252 79.7193 80.5673 79.7403 79.9061C79.7612 79.2449 79.9272 78.5962 80.2263 78.0061C80.5254 77.416 80.9507 76.8989 81.4717 76.4911C81.9927 76.0833 82.5969 75.795 83.2416 75.6463ZM72.311 72.388C73.9685 72.4381 73.9721 72.3881 73.9721 74.06V83.4407C73.9721 83.9739 73.8251 84.1137 73.3026 84.0994C71.9171 84.0636 70.5314 84.0993 69.146 84.0742C68.072 84.0492 67.0513 83.8237 66.3173 82.9431C66.167 82.7641 66.1061 82.8286 65.9593 82.9431C63.8792 84.4503 62.3359 84.4967 60.1055 83.1435C59.9623 83.0575 59.8369 82.8715 59.6471 83.0648C58.659 84.0779 57.3948 84.1746 56.1024 84.0816C55.5153 84.0422 55.2682 84.1998 55.1143 84.7976C54.5951 86.7953 53.392 87.762 51.3084 87.9805C50.9522 88.0241 50.593 88.041 50.2343 88.0308C48.2437 87.9306 48.2041 87.8694 48.3759 85.8826C48.4046 85.5532 48.5374 85.5245 48.7951 85.5567C49.5901 85.6927 50.4026 85.6927 51.1976 85.5567C51.5789 85.495 51.9345 85.3243 52.221 85.0651C52.5075 84.8059 52.7128 84.4692 52.8122 84.0959C51.9171 84.1329 51.0204 84.0642 50.1413 83.8917C47.9931 83.3726 46.7399 81.8652 46.7291 79.8316C46.7183 77.798 48.0467 76.1329 50.1735 75.6317C51.781 75.2522 53.4245 75.4312 55.05 75.3918C55.4651 75.3919 55.3684 75.6749 55.372 75.904C55.372 77.644 55.3935 79.3878 55.372 81.1277C55.372 81.6217 55.4761 81.7722 55.9951 81.7686C58.0142 81.7686 58.0252 81.7683 58.5013 79.8064C58.6663 79.0435 58.9313 78.3055 59.2891 77.6117C60.1842 75.9755 61.602 75.1807 63.2883 75.374C64.1369 75.4757 64.9364 75.8271 65.5852 76.3834C66.2339 76.9398 66.7031 77.6766 66.9331 78.4998C67.0431 79.0009 67.1162 79.5097 67.1516 80.0215C67.1662 80.4405 67.3345 80.8398 67.6243 81.1428C67.9141 81.4457 68.3054 81.6316 68.7233 81.6648C69.5457 81.7554 70.374 81.7854 71.2008 81.7543C71.6946 81.7542 71.5589 81.3962 71.5589 81.1456V73.1722C71.5589 72.5922 71.6593 72.3701 72.311 72.388ZM117.857 77.0746C117.857 76.5841 117.968 76.3835 118.487 76.4372C118.91 76.4766 119.335 76.4766 119.758 76.4372C120.157 76.4037 120.274 76.5527 120.281 76.9019V80.8592L120.234 80.8736C120.234 82.1696 120.295 83.4657 120.234 84.7581C120.116 86.7953 118.666 87.8767 116.654 87.5259C115.304 87.2896 115.34 87.2965 115.58 85.9717C115.698 85.3668 115.841 85.1304 116.543 85.2557C117.531 85.449 117.849 85.1305 117.857 84.1102C117.857 81.7651 117.875 79.4198 117.857 77.0746ZM31.2894 75.6026C31.9932 75.3275 32.7644 75.274 33.4995 75.4491C35.2896 75.8072 36.3317 76.9528 36.8365 78.6498C36.9397 79.0609 36.9949 79.4829 37.0012 79.9068C36.9952 80.3494 37.1574 80.7778 37.4551 81.1054C37.7528 81.433 38.1639 81.6355 38.6051 81.6718C39.3826 81.7541 40.1649 81.7866 40.9466 81.7686C41.3296 81.7686 41.4408 81.6501 41.4372 81.2742C41.4157 79.8672 41.4373 78.46 41.4194 77.053C41.4194 76.6055 41.5054 76.3942 41.9994 76.4407C42.4231 76.4837 42.8502 76.4837 43.2739 76.4407C43.7678 76.3907 43.854 76.602 43.8504 77.0495C43.829 79.2144 43.829 81.3818 43.8504 83.5515C43.8504 83.9882 43.7358 84.1135 43.2956 84.1064C41.8885 84.0777 40.4776 84.1065 39.0669 84.0851C37.9929 84.0636 36.9726 83.8486 36.2243 82.9788C36.0632 82.789 35.9844 82.8356 35.8054 82.9788C33.847 84.4503 32.1032 84.5003 30.0051 83.1721C29.8584 83.0755 29.7364 82.8392 29.5072 83.0826C28.5871 84.0456 27.3948 84.1781 26.1632 84.0994C25.5009 84.0564 25.1787 84.1387 25.1143 84.9693C24.9675 86.8561 23.5209 87.8334 21.6126 87.5399C20.1805 87.3144 20.22 87.318 20.5171 85.9074C20.6281 85.3704 20.7391 85.127 21.4014 85.263C22.4754 85.4814 22.769 85.1483 22.7762 84.0529C22.7834 82.8821 22.7762 81.7182 22.7762 80.5582V76.9386C22.7762 76.5592 22.8873 76.4231 23.2703 76.4446C23.7387 76.4768 24.2091 76.4768 24.6776 76.4446C25.0999 76.4124 25.211 76.5627 25.2038 76.9708C25.1823 78.3564 25.2039 79.7419 25.186 81.1239C25.186 81.6108 25.2861 81.7756 25.8052 81.7756C27.8852 81.7756 27.9249 81.7756 28.3975 79.7421C28.5913 78.7539 28.9875 77.8163 29.5611 76.9886C29.9826 76.3614 30.5856 75.8778 31.2894 75.6026ZM305.447 72.4058C306.042 72.4738 306.833 72.1552 307.177 72.5418C307.47 72.8748 307.273 73.6482 307.277 74.2247C307.273 75.5852 307.27 76.9351 307.27 78.3099V83.5372C307.27 83.9596 307.184 84.1494 306.722 84.1029C306.127 84.0421 305.35 84.3426 304.974 83.9882C304.599 83.6337 304.856 82.8462 304.856 82.2484V73.0037C304.856 72.5419 304.967 72.3521 305.447 72.4058ZM239.339 72.4058C239.934 72.463 240.71 72.1661 241.079 72.5205C241.448 72.875 241.19 73.659 241.194 74.2534V83.4872C241.194 83.9955 241.061 84.1565 240.564 84.1029C239.991 84.042 239.246 84.3357 238.884 83.992C238.523 83.6483 238.781 82.8964 238.773 82.3235C238.763 80.938 238.773 79.5559 238.773 78.1739V72.9537C238.773 72.5026 238.91 72.37 239.339 72.4058ZM301.348 72.4306C301.92 72.5058 302.669 72.1911 303.023 72.5562C303.378 72.9213 303.123 73.6588 303.127 74.2352V83.419C303.127 83.9559 303.023 84.135 302.443 84.1351C297.524 84.11 292.601 84.1351 287.681 84.1351C286.45 84.135 285.254 84.006 284.377 82.9928C284.173 82.7638 284.069 82.9355 283.951 83.0536C282.619 84.407 280.127 84.5289 278.311 83.2686C278.253 83.2085 278.182 83.1617 278.104 83.1316C278.026 83.1015 277.942 83.0884 277.858 83.0938C277.774 83.0992 277.693 83.123 277.619 83.163C277.545 83.203 277.481 83.2588 277.431 83.326C276.842 83.8554 276.074 84.1407 275.283 84.1242C273.85 84.1457 272.418 84.1242 270.986 84.1242C270.263 84.1135 269.823 83.5907 269.339 83.0214C268.824 83.9774 268.018 84.1671 267.055 84.1277C265.784 84.0704 264.505 84.1277 263.231 84.099C262.053 84.074 260.968 83.7841 260.216 82.7816C257.492 84.894 254.441 84.5431 252.726 81.84C252.687 81.9295 252.643 82.0168 252.594 82.1012C251.709 83.5046 250.445 84.0597 248.888 83.7232C248.175 83.5587 247.53 83.18 247.039 82.6379C246.548 82.0957 246.235 81.4161 246.142 80.6907C245.745 77.8873 247.603 75.6243 250.503 75.3845C250.882 75.3522 251.265 75.3559 251.645 75.3523C252.024 75.3487 252.436 75.524 252.361 74.8652C252.34 74.6544 252.572 74.69 252.719 74.6757C254.749 74.4788 254.749 74.4789 254.749 76.4907C254.749 77.5648 254.731 78.6391 254.749 79.7131C254.781 81.2419 255.823 82.0403 257.309 81.6966C258.222 81.4854 258.712 80.8444 258.741 79.7739C258.763 78.836 258.763 77.8944 258.741 76.9565C258.741 76.5985 258.841 76.4336 259.232 76.4694C259.847 76.5231 260.639 76.2153 261.022 76.5911C261.405 76.967 261.115 77.7334 261.14 78.3313V79.9389C261.127 80.3584 261.27 80.7679 261.542 81.0875C261.814 81.4071 262.195 81.6139 262.612 81.6679C263.757 81.8827 264.91 81.7576 266.06 81.7826L266.231 81.5428L264.824 80.3435C264.728 80.2686 264.653 80.1703 264.605 80.0582C264.557 79.9461 264.539 79.8236 264.552 79.7026C264.669 78.5168 265.223 77.4167 266.106 76.6166C266.989 75.8166 268.139 75.3733 269.33 75.3733C270.522 75.3733 271.671 75.8166 272.554 76.6166C273.437 77.4167 273.991 78.5168 274.108 79.7026C274.118 79.8234 274.098 79.9449 274.051 80.0564C274.004 80.168 273.93 80.2667 273.836 80.3435C273.392 80.7731 272.955 81.2135 272.404 81.7505C273.478 81.7505 274.398 81.7755 275.318 81.7505C275.88 81.729 276.171 81.3459 276.321 80.8232C276.524 79.9318 276.78 79.0527 277.087 78.1914C277.946 76.1508 279.622 75.1054 281.548 75.4348C282.536 75.6056 283.436 76.1105 284.096 76.8652C284.756 77.6199 285.137 78.5789 285.175 79.5809C285.261 81.0989 285.759 81.6932 287.323 81.7505C289.647 81.8328 291.978 81.7757 294.302 81.79C294.62 81.79 294.659 81.6824 294.609 81.3889C294.223 78.8255 293.045 77.4503 289.737 77.7152C288.62 77.8047 288.626 77.8693 288.519 76.7918C288.412 75.7143 288.412 75.6746 289.593 75.4813C290.923 75.2671 292.286 75.4243 293.532 75.9359C295.443 76.6985 296.342 78.249 296.811 80.1358C297.219 81.7862 297.216 81.7934 298.902 81.7826C299.479 81.7826 300.231 82.0297 300.585 81.6788C300.939 81.3279 300.707 80.5367 300.71 79.9424V73.1037C300.71 72.6206 300.775 72.3555 301.348 72.4306ZM76.2599 72.4023C76.7934 72.456 77.6026 72.2197 77.9427 72.5097C78.3365 72.8677 78.0608 73.6374 78.0679 74.2282C78.0822 75.5887 78.0679 76.9529 78.0679 78.3134V83.4655C78.0679 83.9345 78.0036 84.1815 77.463 84.1064C76.9224 84.0312 76.1203 84.289 75.7802 83.999C75.3828 83.641 75.6547 82.8714 75.6511 82.277V73.0394C75.6512 72.5669 75.7265 72.3486 76.2599 72.4023ZM17.5238 72.4058C18.1182 72.4523 18.9023 72.2233 19.2675 72.524C19.6325 72.8248 19.3821 73.6517 19.3857 74.246V83.4837C19.3857 83.9883 19.2638 84.1529 18.7591 84.1064C18.1863 84.0491 17.4306 84.2782 17.0798 83.9882C16.729 83.6981 16.9722 82.9142 16.9651 82.327C16.9687 80.9665 16.9689 79.6058 16.9689 78.2453V72.9572C16.9689 72.5168 17.0834 72.37 17.5238 72.4058ZM122.515 72.395C123.109 72.463 123.893 72.1517 124.255 72.5132C124.616 72.8748 124.355 73.659 124.359 74.2569V81.1599C124.359 81.618 124.463 81.7756 124.942 81.7613C126.235 81.7291 127.527 81.7613 129.02 81.7613C128.48 81.2172 128.068 80.7695 127.624 80.3578C127.508 80.2558 127.42 80.125 127.37 79.9788C127.32 79.8325 127.308 79.6755 127.337 79.5236C127.465 78.3901 128.001 77.342 128.846 76.5761C129.691 75.8101 130.787 75.3787 131.927 75.3631C134.405 75.3023 136.435 76.9135 136.829 79.2407C136.897 79.4755 136.893 79.7254 136.817 79.9578C136.741 80.1903 136.597 80.3945 136.403 80.5438C136.002 80.8867 135.641 81.2749 135.329 81.7005C136.371 81.7005 137.395 81.8795 138.412 81.654C138.863 81.5537 139.013 81.1453 139.128 80.755C139.318 79.9301 139.55 79.1151 139.822 78.3134C140.667 76.1975 142.329 75.0911 144.248 75.3953C146.328 75.7032 147.828 77.3718 147.989 79.5987C148.129 81.3674 149.672 82.2767 151.333 81.5714C152.175 81.2134 152.429 80.4974 152.429 79.6739V73.0394C152.429 72.5598 152.508 72.3487 153.041 72.4023C153.574 72.456 154.366 72.2305 154.724 72.5167C155.082 72.8031 154.842 73.5908 154.845 74.1743V79.6057C154.845 80.9304 155.368 81.4999 156.686 81.7005C157.334 81.8007 157.982 81.7003 158.626 81.7683C159.142 81.8148 159.31 81.6681 159.303 81.1204C159.271 78.4853 159.321 75.8465 159.267 73.2114C159.267 72.4955 159.479 72.3806 160.119 72.3985C161.702 72.445 161.702 72.3987 161.702 73.9953V83.5155C161.702 83.9809 161.591 84.1207 161.115 84.1064C159.729 84.0742 158.34 84.1065 156.954 84.0851C155.766 84.0671 154.659 83.7841 153.879 82.7459C152.185 84.3105 150.298 84.3464 148.304 83.7557C148.062 83.7014 147.842 83.5768 147.67 83.3976C147.166 82.7032 146.811 83.0396 146.238 83.3976C144.595 84.4715 142.887 84.3069 141.258 83.3081C140.829 83.0433 140.567 82.95 140.155 83.3473C139.603 83.8519 138.873 84.1174 138.125 84.0851C136.672 84.1101 135.218 84.0851 133.764 84.0851C132.995 84.085 132.543 83.6159 132.081 82.9679C131.541 84.092 130.563 84.1099 129.532 84.0955C127.23 84.0633 124.924 84.0705 122.622 84.0955C122.125 84.0955 121.938 84.0095 121.942 83.4546C121.974 79.9674 121.967 76.4836 121.942 72.9964C121.942 72.5526 122.017 72.3378 122.515 72.395ZM13.4494 76.4446C14.0258 76.4947 14.7849 76.2654 15.1357 76.5554C15.551 76.8956 15.2681 77.6835 15.2752 78.2778C15.2967 80.0178 15.2752 81.7614 15.2752 83.505C15.2752 83.9632 15.1715 84.1171 14.6882 84.1064C13.2453 84.0742 11.7914 84.0959 10.0298 84.0959C8.59772 84.0028 6.84334 84.2856 5.11766 83.9347C2.08512 83.3189 0.534806 80.841 1.29742 77.9016C1.42273 77.4255 1.6269 77.1857 2.16385 77.2393C2.70085 77.293 3.30595 77.0854 3.596 77.3323C3.88601 77.5794 3.52436 78.2275 3.47782 78.7002C3.32388 80.2755 4.22623 81.4962 5.80157 81.661C8.02852 81.8973 10.2698 81.7112 12.5039 81.7613C12.9479 81.7613 12.862 81.4641 12.862 81.2099C12.862 79.8244 12.8799 78.4389 12.862 77.0533C12.862 76.6022 12.9553 76.398 13.4494 76.4446ZM173.299 74.6614C175.282 74.5397 175.283 74.5398 175.283 76.5233V79.6739C175.3 81.0416 175.999 81.7219 177.356 81.7613C177.825 81.7613 178.297 81.7398 178.763 81.7613C179.228 81.7828 179.285 81.6181 179.282 81.2208C179.26 79.8137 179.282 78.4065 179.282 76.9995C179.282 76.5663 179.382 76.3907 179.837 76.4372C180.431 76.4981 181.204 76.1938 181.58 76.5589C181.956 76.9241 181.691 77.7013 181.699 78.2956V83.4585C181.699 83.9382 181.609 84.1172 181.083 84.1029C179.787 84.0599 178.49 84.1029 177.191 84.1029C175.505 84.0957 174.147 83.4871 173.267 81.8186C172.45 83.3868 171.204 83.967 169.607 83.7379C167.703 83.4478 166.385 81.5893 166.596 79.6166C166.84 77.2249 168.548 75.5743 171.007 75.3666C171.453 75.3308 171.9 75.3238 172.347 75.3453C172.669 75.3453 172.934 75.381 172.873 74.9299C172.848 74.7259 172.98 74.6578 173.163 74.6614H173.299ZM185.759 75.3561C187.191 75.3168 188.623 75.3775 189.944 76.0327C190.69 76.3769 191.329 76.9183 191.79 77.5984C192.251 78.2786 192.518 79.0718 192.561 79.8924C192.669 81.1563 192.597 82.4344 192.626 83.7053C192.626 84.0634 192.458 84.0956 192.175 84.092C190.975 84.0956 189.758 84.0959 188.548 84.0959H184.996C184.638 84.0959 184.545 84.0025 184.531 83.6445C184.459 81.7542 184.448 81.7543 186.299 81.7543C187.416 81.7543 188.537 81.7328 189.651 81.7543C190.098 81.7543 190.273 81.6215 190.209 81.1847C190.2 81.0728 190.2 80.9603 190.209 80.8484C190.184 78.7396 189.386 77.8981 187.273 77.7655H186.94C186.457 77.7155 185.662 77.9661 185.554 77.6547C185.336 77.0138 185.472 76.2546 185.469 75.5421C185.469 75.356 185.623 75.3597 185.759 75.3561ZM63.0055 77.7694C62.2286 77.6871 61.7379 77.9807 61.3226 78.8113C61.1805 79.1111 61.0608 79.4211 60.9646 79.7386C60.4813 81.2637 60.7178 81.6326 62.3146 81.8868C62.6122 81.9526 62.9212 81.9486 63.217 81.8749C63.5128 81.8013 63.7877 81.6597 64.0198 81.462C64.2518 81.2643 64.4351 81.0154 64.5548 80.7351C64.6745 80.4547 64.7273 80.1503 64.7097 79.8459C64.6865 79.6291 64.6495 79.4137 64.5988 79.2015C64.5135 78.8277 64.3144 78.4891 64.0292 78.2327C63.744 77.9763 63.3863 77.8145 63.0055 77.7694ZM143.9 77.7799C143.091 77.694 142.601 78.0091 142.153 78.9327C142.027 79.1937 141.922 79.4643 141.838 79.7417C141.354 81.2562 141.598 81.6397 143.188 81.8903C144.512 82.1015 145.587 81.2528 145.587 79.8208C145.576 79.7384 145.558 79.5378 145.515 79.3445C145.453 78.9434 145.262 78.5731 144.971 78.2907C144.679 78.0084 144.303 77.829 143.9 77.7799ZM33.0125 77.7907C32.1783 77.6511 31.6306 77.9699 31.1831 78.9043C30.9886 79.3059 30.8339 79.7257 30.7212 80.1575C30.442 81.2458 30.6317 81.5285 31.7523 81.797C31.9479 81.8463 32.1465 81.8836 32.3467 81.9082C33.6391 82.0369 34.5771 81.1956 34.5771 79.8316C34.57 79.76 34.5735 79.6025 34.5485 79.4414C34.4962 79.0407 34.3202 78.666 34.045 78.3701C33.7696 78.0742 33.4084 77.8716 33.0125 77.7907ZM281.301 77.8047C280.47 77.6437 279.905 77.966 279.453 78.8788C279.295 79.1988 279.165 79.532 279.063 79.8743C278.651 81.267 278.888 81.5786 280.32 81.8543C281.752 82.1299 282.826 81.3244 282.826 79.8673C282.819 79.7992 282.819 79.6308 282.808 79.4806C282.765 79.0783 282.597 78.6996 282.326 78.3988C282.056 78.0979 281.697 77.8898 281.301 77.8047ZM200.266 77.7981C199.4 77.7981 198.551 77.7981 197.76 78.1561C197.429 78.2828 197.145 78.5079 196.946 78.8009C196.747 79.0939 196.643 79.4411 196.647 79.7952C196.651 80.1494 196.764 80.4938 196.97 80.7819C197.176 81.0701 197.466 81.2884 197.799 81.4071C198.576 81.6831 199.4 81.8047 200.223 81.7651C200.52 81.7723 200.606 81.6361 200.606 81.3606V79.7599C200.606 79.248 200.599 78.7252 200.624 78.2204C200.624 77.9663 200.581 77.7981 200.266 77.7981ZM109.948 77.8551C109.154 77.6965 108.333 77.7445 107.563 77.9946C106.027 78.4672 104.942 79.402 104.541 81.0131C104.412 81.5034 104.473 81.797 105.128 81.7613C106.152 81.7183 107.184 81.7613 108.215 81.7613L110.696 81.747C112.067 81.747 112.063 81.7897 112.046 80.3826C112.028 78.9758 111.329 78.1451 109.948 77.8551ZM52.6906 77.7872C51.8206 77.7908 50.9431 77.7835 50.1339 78.1666C49.8076 78.2946 49.5291 78.5211 49.3368 78.8141C49.1444 79.1072 49.0475 79.4526 49.0598 79.8029C49.064 80.1515 49.1739 80.4907 49.3745 80.7757C49.5752 81.0606 49.8576 81.2783 50.1843 81.3998C50.7252 81.6126 51.3 81.7268 51.8811 81.7365C52.98 81.8116 52.9804 81.8114 52.9804 80.7375V79.7994L52.9878 78.1953C52.9878 77.9877 52.9946 77.7873 52.6906 77.7872ZM85.7874 77.8016C84.9138 77.8016 84.0364 77.7944 83.2308 78.1883C82.8981 78.3279 82.6184 78.5697 82.4318 78.8785C82.2453 79.1873 82.1615 79.5473 82.1927 79.9068C82.2074 80.2876 82.3353 80.6556 82.5605 80.9631C82.7857 81.2705 83.0977 81.5037 83.4563 81.6326C83.8027 81.7649 84.1818 81.7861 84.5409 81.6938C84.9 81.6015 85.2219 81.3999 85.4615 81.1169C85.7082 80.8261 85.892 80.4872 86.001 80.1218C86.1101 79.7564 86.142 79.3723 86.0951 78.9939C86.0951 78.6681 86.095 78.3458 86.0986 78.1309C86.1021 77.9162 86.02 77.8016 85.7874 77.8016ZM132.039 77.7621C131.631 77.7702 131.23 77.8714 130.868 78.0582C130.506 78.245 130.191 78.5124 129.947 78.8397C129.892 78.8932 129.848 78.9582 129.82 79.0302C129.793 79.1022 129.781 79.1797 129.786 79.2568C129.791 79.3338 129.813 79.409 129.85 79.4767C129.887 79.5444 129.939 79.6031 130.001 79.6487C130.631 80.243 131.226 80.8768 131.817 81.5141C132.031 81.7289 132.164 81.754 132.389 81.5141C132.98 80.8768 133.582 80.2466 134.208 79.6487C134.271 79.6034 134.323 79.5451 134.361 79.4778C134.399 79.4103 134.423 79.3354 134.429 79.2582C134.436 79.181 134.425 79.103 134.399 79.0302C134.372 78.9575 134.331 78.8912 134.276 78.8362C134.016 78.4919 133.677 78.2146 133.288 78.0278C132.898 77.841 132.47 77.7499 132.039 77.7621ZM269.346 77.7582C268.918 77.7525 268.494 77.8514 268.113 78.046C267.731 78.2406 267.402 78.5253 267.155 78.8753C267.107 78.9238 267.07 78.9826 267.046 79.047C267.023 79.1114 267.014 79.1802 267.02 79.2484C267.026 79.3166 267.048 79.3829 267.082 79.4421C267.116 79.5013 267.163 79.5523 267.219 79.5914C267.847 80.1977 268.456 80.8209 269.046 81.4606C269.292 81.7397 269.446 81.7111 269.679 81.4606C270.266 80.8413 270.854 80.2252 271.469 79.6452C271.532 79.5995 271.584 79.5404 271.621 79.4725C271.659 79.4047 271.681 79.3295 271.687 79.2522C271.692 79.1749 271.68 79.0971 271.653 79.0246C271.625 78.9522 271.582 78.8864 271.527 78.8323C271.272 78.496 270.942 78.2237 270.564 78.0372C270.185 77.8508 269.768 77.7551 269.346 77.7582ZM210.213 77.7694C209.826 77.7792 209.447 77.8737 209.101 78.0463C208.755 78.2189 208.451 78.4655 208.211 78.7683C208.145 78.828 208.093 78.9021 208.059 78.9848C208.026 79.0675 208.012 79.1569 208.018 79.2459C208.024 79.3349 208.051 79.4215 208.095 79.4987C208.14 79.576 208.202 79.6422 208.276 79.6921C208.868 80.2368 209.431 80.8131 209.962 81.418C210.288 81.7937 210.467 81.679 210.732 81.3819C211.147 80.913 211.598 80.4798 212.038 80.0323C212.855 79.2088 212.783 78.7898 211.781 78.1739C211.308 77.891 210.763 77.7506 210.213 77.7694ZM252.1 77.6295C251.531 77.5039 250.939 77.5247 250.381 77.69C249.822 77.8553 249.315 78.1597 248.906 78.5746C248.107 79.5628 248.362 80.9232 249.436 81.3207C249.928 81.5218 250.479 81.5219 250.971 81.3211C251.463 81.1203 251.857 80.7345 252.067 80.2466C252.294 79.7137 252.391 79.1345 252.35 78.5568C252.2 78.3062 252.651 77.8157 252.1 77.6295ZM172.676 77.6295C171.663 77.2321 169.769 77.8624 169.228 78.8648C168.687 79.8673 168.985 80.9235 169.901 81.2994C170.388 81.5136 170.939 81.5281 171.437 81.34C171.934 81.1519 172.338 80.7762 172.561 80.2935C172.792 79.8043 172.896 79.2652 172.866 78.7253V77.9302C172.877 77.8656 172.864 77.799 172.829 77.7435C172.794 77.688 172.739 77.6472 172.676 77.6295ZM9.74348 72.653C9.92235 72.6466 10.1008 72.6769 10.2676 72.7418C10.4343 72.8068 10.5861 72.905 10.7134 73.0306C10.8408 73.1564 10.9413 73.307 11.0085 73.4729C11.0756 73.6388 11.1083 73.8168 11.1043 73.9957C11.1057 74.1747 11.0711 74.3522 11.0029 74.5177C10.9347 74.6832 10.8342 74.8336 10.7071 74.9596C10.58 75.0857 10.4291 75.1851 10.2631 75.2519C10.097 75.3188 9.91901 75.3517 9.73999 75.3488C9.38032 75.3358 9.03977 75.1838 8.79 74.9247C8.54022 74.6655 8.40061 74.3196 8.40084 73.9597C8.41108 73.6102 8.55697 73.2784 8.80748 73.0345C9.05804 72.7906 9.39383 72.6538 9.74348 72.653ZM6.55331 72.6387C6.91423 72.631 7.26375 72.7661 7.52533 73.0149C7.7869 73.2637 7.93948 73.6061 7.9498 73.967C7.94336 74.328 7.79742 74.6725 7.54246 74.9282C7.28744 75.1839 6.94303 75.331 6.58198 75.3383C6.23237 75.3331 5.89789 75.1944 5.64702 74.9509C5.39616 74.7073 5.24785 74.3771 5.23234 74.0278C5.22613 73.8495 5.25573 73.6716 5.31906 73.5048C5.38239 73.3379 5.47822 73.1852 5.60122 73.0558C5.72424 72.9265 5.87198 72.8229 6.03548 72.7513C6.1989 72.6797 6.37492 72.6415 6.55331 72.6387ZM44.1868 72.3233C44.5479 72.3297 44.8923 72.476 45.148 72.731C45.4037 72.986 45.5508 73.3301 45.5581 73.6911C45.5511 74.0407 45.4107 74.3744 45.1658 74.624C44.9209 74.8735 44.59 75.0201 44.2407 75.0338C44.0624 75.04 43.8846 75.0104 43.7179 74.9471C43.5513 74.8837 43.3988 74.7876 43.2697 74.6645C43.1407 74.5415 43.0374 74.394 42.9662 74.2306C42.895 74.0672 42.8573 73.8911 42.855 73.7128C42.8507 73.534 42.8819 73.3561 42.9466 73.1894C43.0113 73.0227 43.1082 72.8702 43.2319 72.7411C43.3557 72.6121 43.5038 72.5086 43.6676 72.4369C43.8314 72.3653 44.008 72.3266 44.1868 72.3233ZM41.0145 72.3415C41.1917 72.3415 41.3675 72.3765 41.5312 72.4443C41.6949 72.5121 41.8437 72.6113 41.969 72.7366C42.0943 72.8619 42.1938 73.0109 42.2617 73.1747C42.3295 73.3384 42.3644 73.5139 42.3645 73.6911C42.3626 73.8696 42.3255 74.046 42.255 74.21C42.1846 74.374 42.0822 74.5225 41.954 74.6467C41.8258 74.7709 41.6742 74.8682 41.5082 74.9334C41.3421 74.9986 41.1645 75.0305 40.9861 75.0268C40.637 75.015 40.3056 74.8699 40.0599 74.6215C39.8143 74.3732 39.6729 74.0403 39.6648 73.6911C39.6648 73.5139 39.6998 73.3384 39.7676 73.1747C39.8355 73.0109 39.9349 72.8619 40.0603 72.7366C40.1856 72.6113 40.3344 72.5121 40.498 72.4443C40.6618 72.3765 40.8373 72.3415 41.0145 72.3415ZM49.1028 72.4845C48.9668 71.3925 50.1017 70.4796 51.3154 70.7338C51.5803 70.7875 52.1066 70.6873 52.0315 71.1419C51.9778 71.5249 51.8167 72.0118 51.1472 71.8579C51.0519 71.8194 50.9485 71.8047 50.8462 71.8153C50.7439 71.8258 50.6456 71.8612 50.5602 71.9184C50.4747 71.9756 50.4047 72.053 50.356 72.1436C50.3072 72.2341 50.2815 72.3352 50.2808 72.438C50.2486 72.9643 50.5636 73.2113 51.0577 73.2471C51.3031 73.2668 51.5497 73.2668 51.7951 73.2471C52.2068 73.2113 52.4433 73.2472 52.4434 73.7985C52.4434 74.3498 52.139 74.2821 51.8025 74.2785C51.4659 74.2749 51.0755 74.2747 50.7175 74.2747C50.3826 74.2496 50.0461 74.2496 49.7112 74.2747C49.0704 74.3713 48.9059 73.9703 49.1028 73.5586C49.2997 73.1469 49.1315 72.8425 49.1028 72.4845ZM108.369 71.3352C108.73 71.3333 109.077 71.4749 109.334 71.7286C109.591 71.9823 109.737 72.3275 109.74 72.6887C109.739 72.8671 109.703 73.0436 109.633 73.2079C109.564 73.3722 109.462 73.5212 109.335 73.646C109.207 73.7709 109.056 73.8694 108.89 73.9355C108.725 74.0016 108.547 74.0342 108.369 74.0313C108.023 74.0135 107.698 73.8636 107.46 73.6128C107.221 73.362 107.089 73.0293 107.089 72.6834C107.089 72.3375 107.221 72.0046 107.46 71.7537C107.698 71.5029 108.023 71.353 108.369 71.3352ZM170.026 71.031C170.205 71.0251 170.383 71.0557 170.549 71.1209C170.716 71.1861 170.867 71.2845 170.994 71.41C171.121 71.5357 171.221 71.686 171.288 71.8516C171.355 72.0173 171.387 72.195 171.383 72.3737C171.39 72.5564 171.359 72.7385 171.293 72.909C171.227 73.0794 171.126 73.2346 170.998 73.3653C170.87 73.4958 170.717 73.5992 170.548 73.6687C170.379 73.7383 170.198 73.7728 170.015 73.7701C169.832 73.7675 169.651 73.7279 169.484 73.6534C169.317 73.5789 169.167 73.4709 169.043 73.3366C168.919 73.2023 168.824 73.0442 168.762 72.8719C168.701 72.6996 168.676 72.5166 168.688 72.3341C168.694 71.9844 168.838 71.6512 169.089 71.4072C169.34 71.1633 169.677 71.0282 170.026 71.031ZM173.263 71.031C173.612 71.0402 173.944 71.1839 174.19 71.4321C174.435 71.6803 174.575 72.0137 174.581 72.3628C174.572 72.7239 174.424 73.0675 174.168 73.3222C173.911 73.577 173.567 73.7234 173.206 73.7306C173.027 73.7274 172.851 73.6888 172.687 73.6173C172.524 73.5459 172.376 73.4429 172.252 73.3142C172.128 73.1855 172.031 73.0336 171.967 72.8674C171.902 72.701 171.87 72.5235 171.874 72.345C171.874 72.1661 171.911 71.989 171.982 71.8247C172.052 71.6604 172.156 71.5123 172.286 71.3894C172.416 71.2665 172.57 71.1713 172.738 71.1097C172.906 71.0481 173.084 71.0213 173.263 71.031ZM249.515 71.031C249.693 71.0261 249.871 71.0576 250.037 71.1237C250.204 71.1897 250.354 71.289 250.481 71.4153C250.608 71.5416 250.707 71.6923 250.774 71.8583C250.84 72.0242 250.872 72.2019 250.868 72.3806C250.863 72.7415 250.716 73.0858 250.458 73.3387C250.201 73.5915 249.854 73.7326 249.493 73.7306C249.144 73.7146 248.815 73.5679 248.569 73.3198C248.324 73.0717 248.18 72.7403 248.168 72.3915C248.164 72.213 248.196 72.0356 248.263 71.8698C248.329 71.704 248.428 71.553 248.553 71.4261C248.679 71.2992 248.828 71.1985 248.994 71.1307C249.159 71.0628 249.336 71.0291 249.515 71.031ZM252.737 71.031C253.087 71.0366 253.42 71.1779 253.667 71.4251C253.915 71.6723 254.056 72.0062 254.061 72.3558C254.055 72.716 253.91 73.0599 253.657 73.316C253.403 73.572 253.061 73.7206 252.701 73.7306C252.522 73.7288 252.345 73.6916 252.181 73.6212C252.017 73.5508 251.868 73.4485 251.743 73.3205C251.618 73.1924 251.52 73.0409 251.454 72.8747C251.388 72.7085 251.355 72.5308 251.358 72.352C251.357 72.1733 251.393 71.9963 251.462 71.8317C251.532 71.6671 251.634 71.5183 251.763 71.3946C251.892 71.271 252.045 71.175 252.212 71.1125C252.38 71.0499 252.558 71.0222 252.737 71.031Z" fill="white"/>
</svg>
