<svg width="155" height="50" viewBox="0 0 155 50" fill="none" xmlns="http://www.w3.org/2000/svg">
<path d="M4.95803 1.02517C6.13269 0.324503 7.48485 -0.0216498 8.8517 0.0281514C8.85297 0.0296367 8.85413 0.0312055 8.85537 0.0326968V0.0298996H14.8293V0.0262283H17.246V0.0281514H21.5388C21.5394 0.0289626 21.54 0.0297852 21.5405 0.0305989V0.0262283H23.6208V0.0281514H27.9172C27.9185 0.0298512 27.9196 0.0316824 27.9209 0.0333961H32.0812C32.0824 0.0350996 32.0836 0.0369264 32.0848 0.0386408V0.0262283H35.7582C35.5331 0.679128 35.2335 1.30396 34.865 1.8881C34.2567 2.89361 33.4789 3.78638 32.5663 4.52688C32.4146 4.64506 32.2507 4.74931 32.0918 4.86709C32.09 4.87118 32.0885 4.87543 32.0866 4.8795C30.885 5.79394 29.4827 6.40895 27.9961 6.67336C27.9951 6.67258 27.9942 6.67153 27.9933 6.67074C27.9929 6.67217 27.9927 6.67368 27.9924 6.67511C27.4028 6.82687 26.7946 6.89368 26.1861 6.87371C26.1856 6.87374 26.1851 6.87368 26.1845 6.87371C26.0723 6.91712 25.9508 6.93095 25.8318 6.91322C22.2741 6.91322 18.7169 6.91322 15.1604 6.91322C15.0498 6.91322 14.9391 6.8953 14.8303 6.88455C14.6339 6.925 14.4326 6.93533 14.2331 6.91497C13.1411 6.91497 12.0489 6.93645 10.9569 6.91497C10.2391 6.88634 9.58569 6.99733 8.98421 7.4001C8.97965 7.39895 8.9754 7.39716 8.9711 7.39591C7.56703 8.47375 7.66524 10.6813 8.93054 11.7235C8.93174 11.7289 8.93254 11.7345 8.93369 11.7399C9.52828 12.1369 10.236 12.3296 10.9499 12.289C12.2639 12.2694 13.5797 12.289 14.8883 12.289C14.8901 12.2916 14.8918 12.2942 14.8936 12.2967L21.5388 12.2962C21.5392 12.2968 21.5397 12.2975 21.5402 12.2981H27.9137C27.9141 12.2986 27.9144 12.2992 27.9148 12.2997C28.6209 12.2996 29.327 12.2309 30.0286 12.3399C30.0541 12.336 30.085 12.3403 30.1233 12.3556C30.1297 12.3568 30.136 12.3578 30.1424 12.359C30.1417 12.3591 30.1411 12.3592 30.1404 12.3593C30.8295 12.3897 31.5067 12.5492 32.1368 12.8298C32.1376 12.8329 32.1382 12.8361 32.139 12.8392C32.1423 12.8361 32.1456 12.8328 32.1492 12.8298C32.8865 13.0679 33.5666 13.4562 34.1463 13.9701C34.1484 13.9678 34.1503 13.9653 34.1525 13.963C34.7754 14.321 35.2266 14.8669 35.6795 15.4147C35.9934 15.7582 36.2481 16.1515 36.4332 16.5783C36.4336 16.5816 36.4339 16.5849 36.4343 16.5881C36.4368 16.5849 36.4393 16.5815 36.4421 16.5783C38.1929 19.7631 38.3058 22.9354 36.4386 26.1059C36.4347 26.1015 36.4313 26.0968 36.4278 26.0924C36.4277 26.0927 36.4278 26.0921 36.4278 26.0924C35.8868 27.1164 35.1054 27.9946 34.1509 28.6504C34.1502 28.6537 34.1497 28.6571 34.149 28.6604C33.5648 29.1523 32.8852 29.518 32.1528 29.7345C31.4931 30.0126 30.7895 30.1726 30.0744 30.2072C30.0737 30.2072 30.0731 30.207 30.0724 30.207C29.8756 30.3055 29.6609 30.2392 29.4569 30.2768L29.4586 30.277C29.353 30.3718 29.2241 30.3324 29.1006 30.3324H0.76717C0.641879 30.3324 0.495074 30.3915 0.393048 30.2591H0.398817C0.398149 30.2585 0.397383 30.2579 0.396719 30.2572C1.03282 28.442 1.66586 26.6237 2.296 24.8025C2.40162 24.4982 2.50736 24.1939 2.59687 23.886C2.60229 23.8534 2.61398 23.8222 2.63148 23.7942C2.64902 23.7661 2.67201 23.7418 2.69897 23.7227C2.72592 23.7035 2.75642 23.6899 2.78865 23.6826C2.82086 23.6753 2.85418 23.6746 2.88673 23.6802C3.57594 23.6963 4.26703 23.6979 4.95803 23.7015V23.7178C4.96213 23.7117 4.9663 23.7057 4.97062 23.6998L8.8517 23.7015H14.8273C14.8292 23.704 14.831 23.7067 14.8327 23.7092V23.7015H27.9172V23.6998C28.341 23.6681 28.749 23.5261 29.1008 23.2877C29.45 23.051 29.7316 22.7274 29.9181 22.3491C29.9182 22.3464 29.9186 22.3437 29.9188 22.341C30.0561 22.0137 30.1268 21.6621 30.1268 21.3071C30.1268 20.9522 30.0561 20.6007 29.9188 20.2734C29.9147 20.2603 29.911 20.2471 29.9074 20.2339C29.5031 19.4423 28.8512 19.0236 27.9985 18.8878L27.9137 18.8752L23.6173 18.8645H14.8936V18.8496C14.8918 18.8522 14.8902 18.8548 14.8883 18.8573L8.8517 18.8645V18.843C7.473 18.817 6.20853 18.3912 5.00786 17.7526L4.89177 17.6902V17.7115C2.64154 16.5139 1.08941 14.7184 0.416299 12.2569C-0.410757 9.25831 -0.0311718 6.41726 1.78586 3.84297C2.59503 2.65678 3.68469 1.68879 4.95803 1.02517ZM111.888 0.00297684C112.203 0.00300503 112.067 0.182124 112.02 0.303848C111.347 2.06688 110.185 3.60147 108.671 4.7274C108.06 5.19872 107.385 5.58191 106.668 5.86585C106.667 5.86536 106.667 5.86478 106.666 5.86428C106.666 5.8648 106.666 5.86533 106.666 5.86585C105.615 6.36265 104.473 6.63691 103.311 6.67144L103.299 6.67127C103.067 6.76252 102.823 6.7162 102.584 6.7162H89.2295C88.1249 6.7162 87.0812 6.92399 86.1306 7.5237C85.8055 7.74293 85.5026 7.99355 85.2265 8.27195C85.2256 8.27174 85.2248 8.27129 85.2239 8.27107C84.5493 9.0944 84.1265 10.0948 84.0058 11.1523C83.9856 11.3067 83.9742 11.4621 83.9717 11.6177C83.9717 13.8179 83.9985 16.0163 83.9573 18.2147C83.9323 19.6144 84.1704 20.8994 85.1545 21.9556C85.1553 21.9546 85.156 21.9536 85.1568 21.9526C85.9299 22.6497 86.8855 23.1124 87.9118 23.2863C88.6726 23.4224 89.4424 23.3936 90.2104 23.4169C90.2116 23.4187 90.2129 23.4205 90.2141 23.4223H102.561C102.562 23.424 102.563 23.4259 102.565 23.4276V23.4223H106.591V23.4152C107.597 23.4152 108.603 23.4104 109.609 23.4008C109.758 23.4008 109.849 23.4188 109.788 23.6068C109.222 25.3008 108.193 26.8024 106.816 27.9408C106.763 27.9805 106.707 28.0161 106.649 28.048C106.649 28.051 106.649 28.054 106.648 28.0571C106.038 28.6116 105.339 29.0595 104.58 29.3819C103.971 29.6862 103.32 29.8985 102.649 30.0119C102.647 30.0106 102.646 30.0089 102.644 30.0076C102.644 30.009 102.643 30.0105 102.643 30.0119C102.068 30.1747 101.475 30.2643 100.878 30.2785L100.882 30.2787C100.776 30.3718 100.647 30.3324 100.524 30.3324H86.5334C86.4152 30.3324 86.2863 30.3718 86.1753 30.277L86.2063 30.2768C86.1996 30.2751 86.1928 30.2735 86.1862 30.2715L85.1729 30.1875C83.4114 30.0084 81.7608 29.4964 80.2768 28.5083C80.2744 28.5048 80.2724 28.5011 80.2701 28.4976C80.27 28.5012 80.2697 28.5047 80.2696 28.5083C78.5526 27.4187 77.2019 25.8391 76.392 23.9737C75.873 22.7969 75.6088 21.5237 75.6169 20.2376C75.633 16.9561 75.5452 13.6711 75.6634 10.3915C75.769 7.42874 76.7876 4.78638 79.0647 2.74735C79.4453 2.39235 79.8697 2.08748 80.3275 1.84002C80.3314 1.83691 80.3353 1.8337 80.3394 1.83076C81.5728 1.01982 82.9476 0.577697 84.378 0.298428C84.6626 0.242932 84.951 0.212506 85.2374 0.171332C85.2374 0.173313 85.2373 0.175294 85.2372 0.177276C85.239 0.175872 85.2408 0.174448 85.2426 0.17308C86.4689 -0.041743 87.7078 0.024557 88.9449 0.0138159C89.3644 0.0138159 89.7839 0.0136089 90.2052 0.0258787C90.2052 0.0254221 90.2052 0.0249367 90.2052 0.0244801L92.2244 0.0262283V0.0290255C92.225 0.028129 92.2257 0.0271219 92.2263 0.0262283H96.3866V0.0209836H102.561C102.562 0.0218017 102.562 0.0226107 102.563 0.0234312V0.0209836H106.591C106.591 0.0218962 106.592 0.0228649 106.593 0.0237808V0.0209836C108.358 0.0209836 110.123 0.0208786 111.888 0.00297684ZM126.73 0.0442352C127.602 -0.0220005 128.476 0.0155281 129.348 0.0244801H131.829V0.0279766L134.51 0.0244801C134.943 0.0244801 135.377 0.0244661 135.81 0.0101446C135.865 0.00571665 135.921 0.0178332 135.969 0.0449345C136.017 0.072045 136.056 0.113018 136.081 0.162416C136.428 0.746003 136.775 1.32606 137.121 1.90785C137.118 1.91104 137.115 1.91441 137.112 1.91764C137.114 1.91677 137.115 1.91589 137.117 1.91502C137.613 2.72595 138.116 3.52611 138.601 4.35136C138.922 4.88003 139.28 5.3993 139.555 5.95187L139.609 6.06288L139.776 6.3183C140.604 7.59891 141.358 8.92775 142.16 10.2251C142.208 10.311 142.251 10.3994 142.289 10.4899C142.289 10.4906 142.289 10.4914 142.289 10.492C142.29 10.4913 142.29 10.4906 142.291 10.4899C143.126 11.8636 143.965 13.2361 144.808 14.6074C144.852 14.6826 144.888 14.7632 144.928 14.842C144.927 14.846 144.926 14.85 144.925 14.854C145.759 16.154 146.546 17.477 147.325 18.8054C147.324 18.8062 147.323 18.807 147.323 18.8079C147.799 19.5947 148.276 20.3816 148.753 21.1685C149.355 22.162 149.98 23.1377 150.543 24.1527C151.17 25.2609 151.847 26.3368 152.491 27.4342C152.514 27.4831 152.533 27.534 152.547 27.5863C152.547 27.5917 152.548 27.5971 152.548 27.6025C152.553 27.5964 152.559 27.5904 152.565 27.5845C153.157 28.4295 153.639 29.3406 154.219 30.2572L152.506 30.2591H144.786C144.73 30.2784 144.668 30.2752 144.613 30.2514C144.557 30.2272 144.512 30.1826 144.487 30.1266C144.113 29.4899 143.738 28.8538 143.363 28.2182L142.239 26.3135L142.106 26.1109C141.45 25.0924 140.902 23.9925 140.257 22.9587C140.012 22.5631 139.788 22.1531 139.555 21.7486C139.554 21.7451 139.553 21.7415 139.552 21.7381V21.7557C138.696 20.3862 137.872 18.997 137.069 17.5953C137.067 17.5918 137.066 17.5883 137.065 17.5848C136.301 16.35 135.55 15.1055 134.824 13.8467L134.514 13.306L134.17 12.7494C133.484 11.6346 132.812 10.5108 132.156 9.37788L131.829 8.81075L131.236 7.8709C130.617 8.88771 130.01 9.88665 129.403 10.8856C129.403 10.8848 129.402 10.884 129.401 10.8833C129.401 10.884 129.401 10.8848 129.401 10.8856C128.875 11.9006 128.25 12.8548 127.679 13.8483C127.42 14.2994 127.14 14.7382 126.87 15.1839C126.378 16.0271 125.884 16.8702 125.397 17.717C125.343 17.8083 125.218 17.9067 125.284 18.0087C125.35 18.1108 125.488 18.0517 125.594 18.0535C125.995 18.0624 126.394 18.0625 126.795 18.0678H131.829C133.082 18.0678 134.351 18.0679 135.611 18.05C135.842 18.05 135.864 18.1574 135.851 18.3364C135.719 20.2465 134.972 21.8541 133.524 23.1323C133.063 23.5098 132.56 23.8336 132.026 24.0971C132.028 24.0971 132.029 24.0972 132.031 24.0971C131.211 24.5133 130.367 24.8272 129.44 24.8253L129.349 24.8241L126.795 24.8258H121.626C121.626 24.825 121.625 24.824 121.625 24.8232V24.8258C121.297 24.7757 121.14 24.9601 120.988 25.2232C120.399 26.2346 119.792 27.2426 119.192 28.2504L118.118 30.0979C118.093 30.1539 118.052 30.2011 118 30.2331C117.948 30.265 117.887 30.2803 117.826 30.277C116.721 30.277 115.617 30.2662 114.512 30.2626C114.511 30.2611 114.51 30.2594 114.509 30.2579V30.2591H108.481L109.555 28.4689C110.318 27.2069 111.107 25.9626 111.836 24.6809C112.622 23.3042 113.465 21.9634 114.272 20.5993C114.324 20.5241 114.382 20.456 114.434 20.3844C114.434 20.3853 114.434 20.3862 114.434 20.387C114.971 19.4761 115.508 18.5635 116.059 17.6561C116.979 16.1261 117.902 14.5973 118.828 13.0696C118.88 12.9843 118.942 12.9059 119.006 12.8259C119.005 12.8243 119.005 12.8225 119.004 12.8209C119.743 11.582 120.484 10.3438 121.227 9.10621C121.329 8.92719 121.442 8.77134 121.551 8.60306C121.552 8.60359 121.552 8.60428 121.553 8.60481C121.553 8.60425 121.553 8.60362 121.553 8.60306C122.011 7.83151 122.466 7.05642 122.93 6.28665C124.15 4.26493 125.371 2.24434 126.594 0.225003C126.637 0.163431 126.683 0.104109 126.731 0.0472072C126.731 0.0462225 126.731 0.0452192 126.73 0.0442352ZM69.9456 11.906C70.037 11.9059 70.3382 11.7475 70.2143 12.0829C70.2161 12.0904 70.218 12.0982 70.2194 12.1065C69.8525 13.1891 69.2559 14.1796 68.4704 15.0102V15.0042C68.4698 15.0062 68.4693 15.0082 68.4687 15.0102C67.7883 15.8218 66.9542 16.4911 66.0144 16.9794C65.6024 17.2184 65.1621 17.4049 64.7039 17.5344V17.5297C64.7033 17.5306 64.7027 17.5316 64.7021 17.5325C63.8955 17.8491 63.0404 18.0248 62.1744 18.0517C61.6982 18.0804 61.2184 18.0517 60.7422 18.0517C60.7418 18.0512 60.7414 18.0506 60.741 18.05H58.7987C58.7978 18.0511 58.7971 18.0524 58.7962 18.0535H54.8346C54.8337 18.0523 54.8328 18.0512 54.832 18.05H52.8269C52.8248 18.0529 52.8228 18.056 52.8206 18.0589L48.0551 18.0535V18.051C48.0545 18.0518 48.054 18.0527 48.0534 18.0535C47.3086 18.0947 47.3086 18.0947 47.3086 18.843V23.1127C47.3086 23.4187 47.3874 23.5369 47.6934 23.494C47.8125 23.483 47.9324 23.483 48.0514 23.494C48.0536 23.4969 48.0556 23.5 48.0577 23.5029H70.4075C71.4583 23.5029 72.5074 23.5028 73.5564 23.4921C73.7891 23.4921 73.7712 23.6211 73.7658 23.7697C73.7334 25.4157 73.0813 26.9889 71.9398 28.1752C71.5226 28.6417 71.0278 29.0324 70.4772 29.33C70.4752 29.3292 70.4732 29.3282 70.4711 29.3275C70.472 29.3283 70.4727 29.3292 70.4736 29.33C69.9249 29.6907 69.3115 29.9418 68.6673 30.0693C68.6633 30.0695 68.6594 30.0692 68.6556 30.0693C68.3157 30.1902 67.9576 30.2521 67.5968 30.252C66.8745 30.2681 66.1502 30.265 65.4261 30.2618L64.7021 30.2591H48.0551V30.2448C48.0539 30.2465 48.0527 30.2483 48.0514 30.25L43.4204 30.2591L42.3727 30.2593C41.3248 30.26 40.2762 30.2627 39.2276 30.2735C39.0307 30.2735 38.9664 30.2017 38.9897 30.0191C38.9923 29.9744 38.9923 29.9295 38.9897 29.8848V12.2569C38.9897 11.9669 39.0523 11.8862 39.3477 11.8862C49.547 11.897 59.7463 11.9036 69.9456 11.906ZM14.8478 30.2591H14.8562C14.8536 30.2587 14.851 30.2584 14.8485 30.2579C14.8482 30.2583 14.848 30.2587 14.8478 30.2591ZM73.4973 0.00122861C73.7228 -0.0112915 73.7837 0.0710613 73.773 0.285841C73.6942 1.62668 73.3164 2.84936 72.4786 3.91273C72.4774 3.91137 72.4763 3.90989 72.4751 3.90853C72.4752 3.91231 72.475 3.9161 72.4751 3.91989C71.9634 4.69857 71.2689 5.34031 70.4522 5.78893C69.8482 6.17435 69.171 6.43092 68.4633 6.5426V6.5377C68.1228 6.6516 67.7635 6.69837 67.4052 6.67511L67.393 6.67494C67.2679 6.71946 67.1338 6.73256 67.0024 6.7127H41.3741C40.6687 6.7127 39.9652 6.68757 39.2617 6.69294C39.0343 6.69294 38.9825 6.61415 38.9825 6.40291C38.9896 4.37407 38.9896 2.34105 38.9825 0.303848C38.9825 0.124829 38.9825 0.0120257 39.2223 0.0138159C40.599 0.0281369 41.9739 0.0263193 43.3398 0.0298996C43.3449 0.0358849 43.3495 0.0421748 43.3541 0.0482561V0.0262283H47.8511C47.8511 0.0270201 47.8511 0.0278842 47.8511 0.0286759C47.8517 0.0278818 47.8523 0.02702 47.8528 0.0262283H52.7526C52.7532 0.0270331 52.7538 0.0278687 52.7544 0.0286759V0.0262283H54.8334C54.8338 0.0256616 54.8342 0.0250457 54.8346 0.0244801H58.7945C58.7958 0.0262524 58.7969 0.0281157 58.7982 0.0298996H60.7403C60.7415 0.0281286 60.7427 0.0262394 60.744 0.0244801H64.7039C64.7047 0.0256703 64.7055 0.0269559 64.7063 0.0281514H68.4633C68.4645 0.0298839 68.4657 0.0316524 68.4669 0.0333961H72.4214C72.422 0.0342089 72.4226 0.0350283 72.4232 0.0358436V0.0190606C72.7812 0.0190606 73.1393 0.01913 73.4973 0.00122861Z" fill="#48BEA0"/>
<path d="M75.6159 45.82C75.8915 45.8151 76.1653 45.8659 76.4206 45.9696C76.676 46.0734 76.9077 46.2278 77.1018 46.4235C77.2958 46.6192 77.4483 46.8524 77.5498 47.1086C77.6513 47.3648 77.7 47.639 77.6927 47.9145C77.6893 48.471 77.465 49.0033 77.0692 49.3944C76.6734 49.7855 76.1384 50.0033 75.582 50C75.0256 49.9967 74.4932 49.7724 74.1021 49.3766C73.711 48.9808 73.4931 48.4458 73.4964 47.8894C73.4923 47.6122 73.5447 47.337 73.6504 47.0808C73.7561 46.8246 73.9129 46.5926 74.1112 46.399C74.3095 46.2054 74.5454 46.0542 74.804 45.9546C75.0627 45.8551 75.339 45.8093 75.6159 45.82ZM127.808 45.7868C128.364 45.7899 128.897 46.0139 129.288 46.4095C129.68 46.8051 129.898 47.3401 129.895 47.8965C129.893 48.172 129.837 48.4445 129.73 48.6985C129.624 48.9524 129.468 49.1828 129.272 49.3766C129.076 49.5703 128.844 49.7236 128.589 49.8276C128.333 49.9316 128.06 49.9844 127.785 49.9829C127.509 49.9813 127.237 49.9255 126.983 49.8187C126.729 49.7119 126.498 49.556 126.305 49.3602C126.111 49.1643 125.957 48.932 125.853 48.6769C125.749 48.4219 125.697 48.1486 125.698 47.8731C125.701 47.3167 125.926 46.7843 126.321 46.3931C126.717 46.0018 127.252 45.7837 127.808 45.7868ZM147.755 45.7929C148.31 45.7905 148.844 46.0088 149.238 46.3995C149.632 46.7903 149.855 47.3218 149.857 47.8768C149.858 48.1516 149.805 48.424 149.701 48.6783C149.597 48.9326 149.444 49.164 149.25 49.3591C149.057 49.5542 148.827 49.7095 148.574 49.8157C148.32 49.922 148.048 49.9773 147.773 49.9785C147.499 49.9797 147.226 49.9266 146.972 49.8226C146.717 49.7185 146.486 49.5654 146.291 49.3719C146.096 49.1784 145.941 48.9482 145.834 48.6948C145.728 48.4413 145.673 48.1694 145.672 47.8946C145.669 47.3396 145.888 46.8064 146.278 46.4123C146.669 46.0182 147.2 45.7953 147.755 45.7929ZM118.819 46.0759C119.52 45.6427 120.618 45.7501 121.076 46.3032C121.146 46.3894 121.206 46.4831 121.255 46.5826C121.486 47.014 121.465 47.0479 120.933 47.0479C120.833 47.0676 120.729 47.0547 120.636 47.0112C120.544 46.9678 120.468 46.896 120.419 46.8063C120.217 46.5181 119.56 46.4859 119.277 46.7025C119.216 46.7433 119.168 46.8008 119.139 46.8681C119.11 46.9353 119.101 47.0096 119.112 47.082C119.123 47.143 119.154 47.199 119.199 47.2415C119.244 47.284 119.301 47.3108 119.363 47.3182C119.782 47.431 120.211 47.517 120.616 47.6584C121.348 47.9126 121.593 48.3888 121.389 49.0906C121.264 49.5202 120.94 49.7333 120.537 49.8657C119.685 50.1468 118.747 49.8657 118.371 49.2105C118.271 49.0315 118.121 48.8274 118.208 48.6591C118.296 48.4909 118.534 48.6251 118.704 48.6C118.785 48.5833 118.868 48.5964 118.94 48.6369C119.011 48.6774 119.066 48.7427 119.093 48.8203C119.304 49.2087 120.129 49.3376 120.466 49.0584C120.519 49.0215 120.561 48.9702 120.586 48.9107C120.612 48.8512 120.62 48.7857 120.61 48.7217C120.6 48.6577 120.573 48.5977 120.53 48.5486C120.488 48.4996 120.433 48.4634 120.371 48.4443C120.129 48.3624 119.881 48.298 119.63 48.2511C119.389 48.2019 119.154 48.1305 118.926 48.038C118.734 47.9718 118.568 47.8474 118.45 47.6822C118.331 47.517 118.268 47.319 118.267 47.1159C118.254 46.9085 118.298 46.7014 118.395 46.5177C118.493 46.334 118.639 46.1811 118.819 46.0759ZM45.7719 45.82C46.1824 45.8221 46.5832 45.9459 46.9234 46.1758C47.2637 46.4056 47.5283 46.7313 47.6835 47.1114C47.8388 47.4915 47.8778 47.9092 47.7958 48.3116C47.7137 48.7139 47.5142 49.0829 47.2225 49.3719C46.9308 49.6608 46.5599 49.8569 46.1568 49.9351C45.7537 50.0134 45.3364 49.9702 44.9577 49.8114C44.5791 49.6525 44.256 49.3851 44.0294 49.0427C43.8028 48.7003 43.6827 48.2982 43.6845 47.8876C43.6813 47.6135 43.7332 47.3416 43.8373 47.088C43.9413 46.8344 44.0953 46.6043 44.29 46.4114C44.4848 46.2185 44.7163 46.0667 44.9708 45.9651C45.2254 45.8635 45.4978 45.8142 45.7719 45.82ZM132.338 45.8025C132.766 45.7668 133.194 45.8643 133.564 46.0813C133.904 46.28 134.176 46.5746 134.348 46.928C134.486 47.1894 134.429 47.2862 134.132 47.2521H133.939C133.835 47.2701 133.727 47.2558 133.631 47.2114C133.535 47.167 133.455 47.0943 133.402 47.0032C133.228 46.7953 132.989 46.6532 132.723 46.6007C132.458 46.5483 132.182 46.5887 131.943 46.7151C131.71 46.8409 131.521 47.0345 131.401 47.2701C131.281 47.5058 131.236 47.7723 131.271 48.0343C131.285 48.2813 131.373 48.5183 131.525 48.7135C131.677 48.9086 131.885 49.0527 132.122 49.1264C132.366 49.211 132.632 49.2137 132.878 49.1343C133.124 49.0549 133.338 48.8976 133.487 48.686C133.59 48.5536 134.23 48.4336 134.383 48.5266C134.49 48.5964 134.413 48.6824 134.383 48.7575C134.227 49.1317 133.96 49.4489 133.618 49.6657C133.276 49.8826 132.875 49.9888 132.471 49.9696C132.049 49.9676 131.638 49.8345 131.295 49.5888C130.952 49.3432 130.693 48.9971 130.555 48.5983C130.407 48.1953 130.387 47.7563 130.498 47.3415C130.608 46.9267 130.845 46.5561 131.174 46.2806C131.503 46.0052 131.91 45.8382 132.338 45.8025ZM8.3317 45.8754C8.98333 45.8145 8.98345 45.811 8.98345 46.4466C8.98344 47.0498 8.96912 47.6531 8.98345 48.2546C9.00314 48.9509 9.42565 49.2983 10.0415 49.1497C10.4245 49.0619 10.6285 48.7916 10.6357 48.2922C10.6464 47.5886 10.6518 46.8851 10.6357 46.1815C10.6357 45.9363 10.6877 45.8234 10.9455 45.87C11.0345 45.8835 11.125 45.8835 11.214 45.87C11.4234 45.8414 11.4825 45.9292 11.4754 46.1333C11.4611 46.5235 11.4754 46.9137 11.4754 47.3039L11.4556 47.3147C11.4556 47.7068 11.4753 48.0988 11.4556 48.4873C11.3983 49.3931 10.7772 49.9516 9.83553 49.9659C8.89389 49.9802 8.22431 49.4289 8.17419 48.5338C8.12407 47.7103 8.15985 46.8815 8.15269 46.0544C8.15269 45.9238 8.20285 45.8915 8.3317 45.8754ZM102.715 45.8195C103.146 45.7876 103.577 45.885 103.953 46.0992C104.32 46.3186 104.604 46.6526 104.762 47.0497C104.836 47.2198 104.793 47.2645 104.619 47.2574C104.275 47.2431 103.973 47.2807 103.688 46.9263C103.183 46.3015 102.048 46.5682 101.747 47.3291C101.545 47.8482 101.568 48.3709 101.973 48.8023C102.331 49.1961 102.793 49.2678 103.294 49.1192C103.451 49.0934 103.592 49.0074 103.686 48.8794C103.89 48.4766 104.238 48.4963 104.596 48.5214L104.796 48.5231C104.644 49.3538 103.811 49.9749 102.87 49.9659C102.442 49.9718 102.023 49.8423 101.673 49.5956C101.323 49.349 101.06 48.998 100.922 48.5929C100.781 48.1904 100.764 47.7548 100.872 47.3423C100.981 46.9299 101.21 46.5593 101.531 46.2782C101.871 46.0111 102.283 45.8513 102.715 45.8195ZM122.594 46.0616C122.886 45.8842 123.224 45.7999 123.565 45.82C124.418 45.8307 124.936 46.178 125.127 46.8009C125.185 46.9907 125.158 47.0676 124.948 47.0551C124.662 47.039 124.379 47.1105 124.164 46.7812C123.985 46.5127 123.351 46.5038 123.074 46.6936C123.012 46.7301 122.962 46.7827 122.928 46.8458C122.894 46.9089 122.879 46.9802 122.882 47.0516C122.895 47.2306 123.031 47.2825 123.176 47.3291C123.654 47.4776 124.159 47.5242 124.619 47.7462C124.797 47.8153 124.95 47.9362 125.058 48.0932C125.167 48.2502 125.226 48.4361 125.228 48.6269C125.249 48.8396 125.208 49.0539 125.111 49.2442C125.014 49.4346 124.864 49.5932 124.68 49.7011C124.406 49.856 124.099 49.9442 123.785 49.9588C122.89 50.0286 122.188 49.5757 121.994 48.8292C121.95 48.661 121.952 48.5804 122.157 48.5894C122.467 48.6037 122.766 48.5285 122.961 48.9241C123.121 49.2481 123.971 49.2821 124.252 49.0476C124.307 49.0122 124.35 48.9617 124.377 48.9021C124.404 48.8425 124.413 48.7763 124.402 48.7117C124.392 48.6472 124.363 48.5871 124.319 48.5387C124.276 48.4902 124.218 48.4556 124.155 48.439C123.913 48.3558 123.666 48.2906 123.414 48.2439C123.173 48.1972 122.937 48.1258 122.711 48.0308C122.326 47.8518 122.075 47.5922 122.057 47.1357C122.035 46.9241 122.074 46.7107 122.169 46.5205C122.265 46.3303 122.412 46.1711 122.594 46.0616ZM110.229 45.82C111.124 45.82 111.645 46.1887 111.821 46.8457C111.869 47.0247 111.821 47.0587 111.66 47.0551C111.348 47.0551 111.048 47.1088 110.817 46.7633C110.638 46.5055 110.022 46.511 109.753 46.6936C109.694 46.7314 109.646 46.7847 109.614 46.8478C109.582 46.9108 109.569 46.9813 109.574 47.0516C109.585 47.2306 109.721 47.2861 109.864 47.3308C110.342 47.4794 110.851 47.5205 111.307 47.7497C111.455 47.8207 111.585 47.9244 111.687 48.0528C111.79 48.1812 111.862 48.3312 111.898 48.4913C111.934 48.6514 111.933 48.8176 111.896 48.9775C111.859 49.1374 111.786 49.287 111.683 49.4147C111.194 49.9964 110.521 50.0286 109.837 49.9033C109.565 49.8586 109.312 49.7364 109.108 49.5512C108.904 49.3661 108.757 49.1259 108.686 48.8596C108.615 48.6412 108.672 48.5804 108.89 48.5894C109.18 48.6019 109.454 48.5411 109.633 48.9098C109.793 49.2374 110.62 49.2929 110.92 49.0584C110.975 49.0246 111.02 48.9757 111.048 48.9177C111.077 48.8596 111.088 48.7947 111.081 48.7304C111.074 48.6662 111.049 48.6052 111.009 48.5546C110.969 48.5039 110.915 48.4656 110.854 48.4443C110.601 48.3578 110.342 48.2897 110.079 48.2402C109.85 48.1925 109.626 48.1248 109.409 48.038C108.992 47.8589 108.738 47.5599 108.733 47.0944C108.722 46.8807 108.772 46.6682 108.877 46.4819C108.982 46.2955 109.138 46.1428 109.327 46.0418C109.601 45.8843 109.914 45.8074 110.229 45.82ZM70.8868 45.8165C71.3177 45.7805 71.7495 45.8739 72.127 46.0848C72.3441 46.2109 72.5339 46.3792 72.6852 46.5796C72.8364 46.78 72.9461 47.0087 73.0077 47.2521H72.2791C72.1556 47.2521 72.1108 47.1822 72.0464 47.0999C71.8627 46.8434 71.5875 46.6672 71.2777 46.6079C70.9678 46.5486 70.6469 46.6106 70.3815 46.7812C69.8445 47.1285 69.6511 47.9342 69.9716 48.5429C70.1232 48.8126 70.3693 49.0168 70.6625 49.1159C70.9557 49.2151 71.2752 49.2023 71.5595 49.0799C71.7111 49.0344 71.8416 48.9367 71.9282 48.8042C72.1538 48.3603 72.5548 48.5213 72.8967 48.5177C73.0918 48.5177 72.9612 48.6627 72.9343 48.7343C72.7819 49.1093 72.5175 49.4283 72.1773 49.6477C71.8372 49.8671 71.4376 49.9765 71.0331 49.9607C70.6054 49.9623 70.1881 49.8288 69.8406 49.5794C69.4932 49.3299 69.2333 48.9771 69.098 48.5714C68.9652 48.1727 68.9521 47.7438 69.0606 47.3378C69.1691 46.9318 69.3944 46.5664 69.7085 46.2871C70.0456 46.0165 70.4559 45.8525 70.8868 45.8165ZM0.528294 46.3892C0.98837 45.7895 1.64717 45.7376 2.31848 45.8522C2.93251 45.9524 3.30125 46.3427 3.4391 46.9495C3.43966 46.982 3.43669 47.0144 3.43019 47.0462H2.77145C2.72811 47.0458 2.68563 47.0336 2.64873 47.0109C2.61185 46.9882 2.58188 46.9558 2.56201 46.9174C2.4268 46.7456 2.23625 46.6259 2.02286 46.5785C1.80948 46.5312 1.58633 46.5593 1.39122 46.6577C1.31957 46.6908 1.25919 46.7442 1.2178 46.8114C1.17641 46.8786 1.15587 46.9565 1.15853 47.0354C1.15853 47.2144 1.28385 47.286 1.43423 47.3254C1.82088 47.4274 2.21465 47.5045 2.59593 47.6334C3.26188 47.8483 3.51073 48.1597 3.50536 48.7075C3.50534 49.2893 3.17596 49.692 2.53509 49.8692C1.65253 50.1127 0.59818 49.8693 0.286688 48.9061C0.202564 48.6502 0.240121 48.575 0.519378 48.5822C0.798613 48.5894 1.05634 48.5822 1.22461 48.9151C1.39289 49.248 2.2289 49.2838 2.51533 49.0493C2.56881 49.0132 2.61121 48.9629 2.63736 48.9039C2.66351 48.8449 2.67239 48.7796 2.66324 48.7158C2.65408 48.6519 2.62723 48.5919 2.58561 48.5427C2.54395 48.4934 2.48921 48.4567 2.42775 48.4371C2.17422 48.3523 1.91522 48.2847 1.65258 48.2348C1.4023 48.1797 1.15773 48.1013 0.922171 48.0004C0.177465 47.6638 0.206076 46.8135 0.528294 46.3892ZM96.9372 45.8737C97.4331 45.8092 97.7231 45.9846 97.9648 46.4303C98.3497 47.1464 98.815 47.8178 99.2447 48.5088L99.2477 48.5079C99.355 48.4398 99.2737 48.3259 99.3218 48.2367L99.3062 47.1983C99.3011 46.8524 99.2949 46.5064 99.2842 46.16C99.2842 45.9452 99.3397 45.8754 99.5616 45.8772C100.111 45.8772 100.111 45.8772 100.111 46.4142V49.5955C100.111 49.8246 100.05 49.88 99.8176 49.9051C99.3378 49.9552 99.0496 49.8048 98.8115 49.368C98.3938 48.6236 97.9299 47.9061 97.4223 47.2198C97.4331 47.4543 97.451 47.6889 97.4564 47.9252C97.4689 48.5159 97.4726 49.1067 97.4851 49.6974C97.4851 49.837 97.442 49.8891 97.2952 49.9016C96.6687 49.9607 96.658 49.957 96.658 49.3394V46.1583C96.658 45.9399 96.726 45.9005 96.9372 45.8737ZM78.6218 45.8772C79.1123 45.7841 79.4095 45.9739 79.6529 46.4142C80.0271 47.1106 80.4854 47.7606 80.9061 48.4301C80.9098 48.4323 80.9133 48.4347 80.9169 48.4369C81.0412 48.3193 80.9411 48.1589 80.9867 48.0273L80.9847 47.0885C80.983 46.7754 80.9795 46.4626 80.9723 46.1511C80.9723 45.9631 80.9938 45.8754 81.2211 45.8772C81.7904 45.8772 81.7903 45.8665 81.7903 46.4303V49.5811C81.7903 49.8192 81.7456 49.8908 81.4842 49.9122C81.2846 49.9465 81.0792 49.9121 80.9017 49.8145C80.7242 49.717 80.5849 49.5621 80.5068 49.3752C80.0968 48.6233 79.6116 47.9144 79.1283 47.1965C79.1838 47.952 79.1696 48.7022 79.1606 49.4523C79.1607 49.5955 79.2608 49.8103 79.0818 49.8712C78.8617 49.9115 78.636 49.9115 78.4159 49.8712C78.3246 49.8712 78.3514 49.7441 78.3496 49.6689V46.0885C78.3496 45.9346 78.3909 45.8539 78.5556 45.8772C78.5775 45.8807 78.5999 45.8807 78.6218 45.8772ZM85.0898 45.8772C85.3171 45.8772 85.3869 45.9488 85.3601 46.16C85.3493 46.2492 85.3493 46.3394 85.3601 46.4285C85.3815 46.6076 85.3117 46.6594 85.1363 46.6541C84.678 46.6433 84.2197 46.6541 83.7615 46.6541C83.5538 46.6541 83.4696 46.6918 83.4732 46.9263C83.4732 47.5098 83.4732 47.5098 84.0424 47.5098H84.9823C85.1505 47.5098 85.2347 47.551 85.2114 47.7336C85.1998 47.8227 85.1998 47.913 85.2114 48.0021C85.2437 48.2384 85.1452 48.3118 84.9125 48.3011C84.5222 48.2832 84.1283 48.3011 83.738 48.3011C83.5394 48.3011 83.4625 48.3441 83.4714 48.5589C83.4911 48.917 83.4714 49.2947 83.4821 49.6635C83.491 49.8747 83.4194 49.9249 83.2153 49.9231C82.6604 49.9231 82.6604 49.932 82.6604 49.386L82.6533 47.8911C82.6533 47.3219 82.664 46.7508 82.6533 46.1815C82.6533 45.9595 82.6945 45.8718 82.9415 45.8772C83.6576 45.8951 84.3737 45.8933 85.0898 45.8772ZM58.9691 45.8969C59.1839 45.7609 59.8964 45.9363 60.0432 46.16L61.529 48.5607V46.1941C61.529 45.9435 61.5899 45.8361 61.8441 45.8808C61.9331 45.8934 62.0235 45.8934 62.1126 45.8808C62.2916 45.8611 62.3651 45.9238 62.3633 46.1207C62.3561 47.2938 62.3561 48.4658 62.3633 49.6366C62.3633 49.8424 62.2952 49.8819 62.0982 49.9088C61.6078 49.9714 61.3035 49.8102 61.0654 49.3574C60.7181 48.6986 60.2903 48.0809 59.8928 47.449C59.8374 47.3595 59.814 47.2341 59.6743 47.2037C59.7531 47.9986 59.7264 48.7916 59.7425 49.5829C59.7425 49.8263 59.6887 49.9409 59.4292 49.9016C59.3287 49.8909 59.2272 49.8909 59.1266 49.9016C58.9709 49.9141 58.9117 49.8568 58.9117 49.6939V46.0759C58.9117 46.0133 58.8975 45.9417 58.9691 45.8969ZM25.6668 45.9308C25.7788 45.8702 25.909 45.8525 26.0331 45.8808C26.2239 45.891 26.4152 45.891 26.606 45.8808C26.3571 46.28 26.1333 46.6327 25.9132 46.9871C25.7341 47.2807 25.4084 47.576 25.4102 47.8696C25.412 48.1632 25.7342 48.4586 25.9186 48.7504C26.1495 49.1084 26.3822 49.479 26.649 49.8962H25.8021C25.6625 49.8961 25.6124 49.8031 25.5551 49.7171L24.839 48.5231C24.6278 48.8811 24.4112 49.1926 24.2429 49.5327C24.1015 49.8227 23.9207 49.9607 23.5931 49.9088C23.4056 49.8915 23.2172 49.8879 23.0293 49.8979C23.4213 49.2642 23.7721 48.6716 24.1534 48.1077C24.2246 48.0272 24.264 47.9234 24.264 47.8159C24.264 47.7085 24.2246 47.6047 24.1534 47.5242C23.7954 47.0104 23.4785 46.4768 23.1062 45.8932H24.0013C24.1266 45.8932 24.1535 46.0132 24.2036 46.0938C24.413 46.4357 24.6188 46.7812 24.8551 47.1679C25.0574 46.8313 25.267 46.5342 25.4245 46.2102C25.4687 46.0908 25.5548 45.9914 25.6668 45.9308ZM41.3679 45.8826C41.5272 45.8826 41.5917 45.9345 41.5756 46.0938C41.5648 46.1937 41.5648 46.2947 41.5756 46.3946C41.6042 46.604 41.5183 46.6721 41.3142 46.656C41.1101 46.6399 40.8882 46.6649 40.677 46.656C40.4657 46.647 40.4067 46.715 40.4084 46.9208C40.4192 47.8034 40.3886 48.6878 40.4226 49.5685C40.4405 49.9946 40.1864 49.8872 39.9555 49.9105C39.6816 49.9356 39.5473 49.8765 39.5705 49.5525C39.6063 49.1264 39.5831 48.7004 39.5831 48.2743V46.9011C39.5831 46.7221 39.54 46.6291 39.3396 46.6488C39.2054 46.656 39.0709 46.656 38.9368 46.6488C38.4195 46.6488 38.3192 46.5162 38.423 46.006C38.4498 45.8736 38.5269 45.8826 38.6146 45.8826H41.3679ZM137.848 46.3677C137.974 46.0133 138.113 45.7536 138.548 45.9022C138.978 45.7715 139.143 45.9864 139.277 46.373C139.649 47.4578 140.066 48.5212 140.48 49.5953C140.571 49.8298 140.55 49.905 140.28 49.9014C139.717 49.9014 139.692 49.9139 139.533 49.3644C139.435 49.0207 139.268 48.8846 138.923 48.9455C138.834 48.9598 138.743 48.9598 138.654 48.9455C138.01 48.8309 137.555 48.994 137.46 49.7243C137.426 49.9784 137.211 49.9034 137.057 49.9033C136.52 49.9033 136.52 49.9033 136.715 49.411C137.095 48.3996 137.485 47.3917 137.848 46.3677ZM42.4348 45.8772C42.9987 45.8772 42.9988 45.8683 42.9988 46.434C42.9988 47.4615 42.9827 48.4891 43.0077 49.5149C43.0077 49.8532 42.9075 49.9535 42.5978 49.8998C42.5646 49.8945 42.5308 49.8945 42.4976 49.8998C42.2541 49.9392 42.1663 49.855 42.1752 49.5937C42.1913 49.0245 42.1771 48.4551 42.1771 47.8859V46.1457C42.1771 45.9452 42.2201 45.8754 42.4348 45.8772ZM115.532 45.9277C115.594 45.8841 115.671 45.866 115.747 45.8772C116.542 45.8772 116.542 45.8683 116.821 46.5932C117.193 47.585 117.558 48.5786 117.94 49.5668C118.033 49.8066 118.047 49.9122 117.729 49.8979C117.192 49.8764 117.159 49.8979 117.012 49.3609C116.91 49.0029 116.737 48.8829 116.377 48.9205C116.076 48.9438 115.773 48.9438 115.471 48.9205C115.292 48.9205 115.17 48.9635 115.14 49.1568C115.133 49.1781 115.123 49.1985 115.111 49.2177C114.839 49.9642 114.839 49.9641 114.014 49.8692C114.302 49.1031 114.589 48.344 114.873 47.585C115.052 47.0945 115.247 46.6076 115.41 46.1118C115.426 46.0371 115.469 45.9713 115.532 45.9277ZM140.758 45.8717C141.175 45.904 141.59 45.8826 142.003 45.8826H143.312C143.505 45.8826 143.575 45.9417 143.55 46.1278C143.539 46.2056 143.539 46.2845 143.55 46.3623C143.584 46.5932 143.5 46.6702 143.26 46.6612C142.984 46.6612 142.621 46.5342 142.453 46.7097C142.285 46.8851 142.399 47.2627 142.395 47.5492C142.395 48.2312 142.379 48.9133 142.395 49.5935C142.395 49.8531 142.317 49.9391 142.071 49.9051C141.994 49.8925 141.915 49.8925 141.837 49.9051C141.615 49.9355 141.549 49.8442 141.551 49.6241C141.561 48.7523 141.55 47.8804 141.561 47.0086C141.561 46.7419 141.509 46.6094 141.216 46.6506C141.085 46.6685 140.945 46.6363 140.815 46.6506C140.485 46.6989 140.371 46.5932 140.385 46.2406C140.398 45.9524 140.455 45.852 140.758 45.8717ZM31.8012 45.8754C32.3722 45.8754 32.3722 45.8755 32.3722 46.4322C32.3722 47.4795 32.3614 48.5267 32.3722 49.574C32.3722 49.8442 32.2916 49.932 32.0321 49.9016C31.9883 49.8944 31.9435 49.8944 31.8996 49.9016C31.6168 49.9463 31.504 49.855 31.5201 49.5435C31.5523 49.0011 31.5327 48.4532 31.5327 47.9072V46.1709C31.5327 45.9704 31.5613 45.8736 31.8012 45.8754ZM150.589 45.8932C150.795 45.7662 151.507 45.9327 151.636 46.1385L153.001 48.3226C153.055 48.4171 153.122 48.5038 153.199 48.5804C153.131 47.7856 153.165 46.9961 153.147 46.2084C153.147 45.9489 153.207 45.8397 153.475 45.8808C153.575 45.8916 153.676 45.8916 153.776 45.8808C153.917 45.8683 153.973 45.9184 153.971 46.0598V49.71C153.974 49.7637 153.958 49.8168 153.926 49.8603C153.794 49.9838 153.017 49.8603 152.918 49.7028C152.452 48.9569 151.986 48.2091 151.522 47.4597C151.456 47.3773 151.393 47.2878 151.341 47.1983C151.382 48.0039 151.341 48.797 151.357 49.5883C151.357 49.8407 151.296 49.9463 151.042 49.9016C150.942 49.89 150.841 49.8899 150.741 49.9016C150.577 49.9177 150.534 49.8442 150.534 49.6885V46.0723C150.534 46.0096 150.518 45.938 150.589 45.8932ZM55.7324 46.0579C55.8506 45.7269 56.1208 45.9648 56.2819 45.8826C56.9657 45.9005 56.7904 45.7699 57.0249 46.382C57.4348 47.4561 57.8269 48.5303 58.2387 49.6044C58.3299 49.837 58.3066 49.9104 58.0382 49.9068C57.4778 49.8961 57.4581 49.9068 57.2917 49.3698C57.1914 49.0387 57.0302 48.8847 56.6794 48.9509C56.5912 48.9661 56.5009 48.9661 56.4126 48.9509C55.77 48.8381 55.3081 48.9939 55.2186 49.7278C55.2169 49.7557 55.2092 49.783 55.196 49.8077C55.1829 49.8324 55.1644 49.854 55.1422 49.871C55.12 49.8879 55.0943 49.8999 55.067 49.9061C55.0398 49.9123 55.0114 49.9125 54.984 49.9068H54.5151C54.3594 49.9068 54.3092 49.8442 54.3683 49.6867C54.8265 48.479 55.2813 47.2693 55.7324 46.0579ZM144.431 45.8772C144.968 45.8772 144.968 45.8773 144.968 46.425C144.968 47.4741 144.959 48.5232 144.968 49.5722C144.968 49.8371 144.9 49.9409 144.635 49.9016C144.547 49.89 144.457 49.89 144.368 49.9016C144.189 49.9231 144.141 49.8407 144.143 49.6706C144.155 49.0781 144.15 48.4873 144.15 47.8948C144.15 47.3148 144.161 46.7346 144.15 46.1546C144.15 45.9309 144.214 45.8754 144.431 45.8772ZM88.4625 45.8772C88.6773 45.8772 88.7202 45.947 88.7184 46.1439C88.7184 46.6506 88.7184 46.6506 88.2046 46.6506C87.8358 46.6506 87.4671 46.6613 87.0983 46.6506C86.9032 46.6506 86.8261 46.6882 86.8261 46.9065C86.8261 47.465 86.8155 47.4651 87.3918 47.4651C87.6926 47.4651 87.9952 47.474 88.2869 47.4651C88.4821 47.4651 88.5896 47.5063 88.5574 47.7229C88.5476 47.7894 88.5475 47.857 88.5574 47.9235C88.5967 48.1812 88.5053 48.2813 88.2333 48.2581C87.8341 48.233 87.4295 48.2581 87.0286 48.2492C86.8657 48.2492 86.8263 48.3011 86.8191 48.4586C86.7923 49.121 86.7868 49.121 87.442 49.121C87.7893 49.121 88.1348 49.1299 88.4803 49.121C88.6593 49.121 88.7059 49.1658 88.7095 49.343C88.7095 49.9105 88.7274 49.9088 88.1509 49.9088H86.3071C86.0797 49.9088 85.9956 49.8604 86.0027 49.617C86.0224 49.0316 86.0116 48.4515 86.0116 47.8715V46.1637C86.0116 45.956 86.0529 45.8736 86.2838 45.8772C87.0088 45.8933 87.7357 45.8915 88.4625 45.8772ZM107.934 45.8772C108.153 45.8772 108.192 45.9506 108.19 46.1457C108.19 46.6505 108.19 46.6506 107.705 46.6506C107.336 46.6506 106.968 46.6649 106.599 46.6506C106.363 46.6381 106.271 46.715 106.304 46.9495C106.315 47.0381 106.315 47.1278 106.304 47.2163C106.282 47.4042 106.35 47.4741 106.545 47.4687C106.935 47.4562 107.329 47.483 107.72 47.4579C107.997 47.44 108.078 47.5475 108.04 47.7981C108.032 47.8539 108.032 47.9105 108.04 47.9663C108.083 48.2133 107.965 48.2618 107.741 48.2528C107.338 48.2367 106.935 48.2528 106.533 48.2528C106.354 48.2528 106.305 48.2958 106.3 48.4766C106.282 49.1246 106.275 49.1247 106.909 49.1247C107.256 49.1247 107.603 49.1354 107.949 49.1247C108.144 49.1247 108.19 49.1855 108.19 49.3717C108.19 49.9087 108.201 49.9088 107.673 49.9088H105.761C105.534 49.9087 105.48 49.8389 105.485 49.6241C105.494 49.0423 105.485 48.4568 105.485 47.875V46.1654C105.485 45.9631 105.518 45.8718 105.754 45.8772C106.481 45.8933 107.207 45.8915 107.934 45.8772ZM27.2056 46.1924C27.2056 45.9399 27.2702 45.8343 27.5208 45.8808C27.5985 45.8925 27.6776 45.8925 27.7553 45.8808C27.9665 45.854 28.0525 45.9273 28.0418 46.1546C28.0221 46.4983 28.0417 46.8456 28.0327 47.1911C28.0327 47.3701 28.0615 47.4561 28.2673 47.449C28.7149 47.4347 29.1625 47.4365 29.6082 47.449C29.7872 47.449 29.8337 47.3845 29.8283 47.2163C29.8176 46.8583 29.8283 46.5002 29.8283 46.1422C29.8283 45.9417 29.8713 45.8737 30.0843 45.8737C30.6517 45.8737 30.6517 45.8629 30.6517 46.4303L30.6589 47.8733V49.615C30.6589 49.8245 30.6159 49.9069 30.3832 49.9051C29.8355 49.9051 29.8355 49.9051 29.8355 49.3591V48.4229C29.8355 48.2743 29.7871 48.2295 29.6421 48.2313C29.1838 48.2313 28.7256 48.2421 28.2691 48.2313C28.0901 48.2313 28.0363 48.2886 28.0399 48.4623C28.0506 48.84 28.0399 49.2213 28.0399 49.599C28.0506 49.8281 27.9826 49.9356 27.7427 49.8998C27.6762 49.8909 27.6088 49.8909 27.5423 49.8998C27.2828 49.9392 27.2021 49.8425 27.2056 49.5722C27.2223 48.4456 27.2223 47.319 27.2056 46.1924ZM48.8563 45.8611C49.3432 45.8145 49.6189 45.9919 49.8535 46.4161C50.2616 47.1555 50.7378 47.8483 51.2211 48.5644C51.1692 47.9253 51.18 47.2896 51.18 46.6541C51.1917 46.5207 51.1917 46.3866 51.18 46.2532C51.1227 45.9149 51.2767 45.8683 51.5828 45.8576C51.9408 45.8433 52.0141 45.9667 52.0069 46.3014C51.9854 47.3952 51.9908 48.4891 52.0069 49.5829C52.0069 49.8424 51.9229 49.8711 51.6884 49.8979C51.214 49.9516 50.9453 49.778 50.7162 49.3609C50.2937 48.6269 49.814 47.918 49.3629 47.193C49.3951 48.0111 49.3629 48.8042 49.3772 49.5955C49.3772 49.8568 49.2984 49.9122 49.0568 49.9051C48.5537 49.889 48.5538 49.9051 48.5538 49.4128V46.1904C48.5538 45.9542 48.5985 45.8861 48.8563 45.8611ZM5.88278 45.8754C6.23003 45.8557 6.38058 45.9632 6.49693 46.298C6.88182 47.4043 7.30068 48.4964 7.73031 49.5866C7.84482 49.8782 7.75881 49.9302 7.49395 49.8998C7.39413 49.8873 7.29308 49.8873 7.19326 49.8998C7.01429 49.9231 6.93904 49.8389 6.87997 49.6815C6.59892 48.9404 6.59525 48.942 5.80586 48.942C5.0164 48.942 5.01092 48.942 4.74241 49.6581C4.67976 49.8263 4.60815 49.9195 4.41129 49.8998C4.21439 49.8801 4.02628 49.8981 3.78106 49.8981C4.22502 48.7148 4.64943 47.5796 5.0737 46.4429C5.28312 45.8826 5.28492 45.9058 5.88278 45.8754ZM95.7933 45.8791C95.9723 45.8791 96.0706 45.922 96.0384 46.1189C96.0366 46.141 96.0366 46.1632 96.0384 46.1852C96.0384 46.6506 96.0385 46.6506 95.5874 46.6506H94.4131C94.2341 46.6506 94.1571 46.6792 94.1535 46.885C94.1427 47.4632 94.132 47.4633 94.7049 47.4633H95.6428C95.8218 47.4633 95.9186 47.5081 95.8935 47.7069C95.8828 47.8068 95.8828 47.9076 95.8935 48.0075C95.9168 48.1866 95.8487 48.2599 95.6554 48.2546C95.2293 48.2403 94.805 48.2546 94.3808 48.2457C94.2018 48.2457 94.1589 48.3048 94.1535 48.4766C94.1374 49.1192 94.132 49.1192 94.7675 49.1192C95.104 49.1192 95.4388 49.1282 95.7753 49.1192C95.9687 49.1192 96.0474 49.148 96.0456 49.3699C96.0456 49.9069 96.0456 49.907 95.5211 49.907C94.9071 49.907 94.2913 49.8963 93.6755 49.907C93.4231 49.907 93.3174 49.8604 93.3353 49.5811C93.3514 49.0101 93.339 48.4407 93.339 47.8696V46.1278C93.339 45.9488 93.3819 45.8755 93.5788 45.8791C94.3164 45.8898 95.0558 45.8791 95.7933 45.8791ZM35.0809 45.8845C35.5552 45.8953 35.976 46.0349 36.155 46.5326C36.2476 46.7454 36.2587 46.985 36.1861 47.2055C36.1135 47.426 35.9622 47.6122 35.7611 47.7284C35.9858 47.8444 36.1652 48.0326 36.27 48.2628C36.3749 48.493 36.3992 48.7518 36.3393 48.9976C36.2943 49.2186 36.1809 49.42 36.0151 49.5729C35.8494 49.7258 35.6396 49.8226 35.4157 49.8497C34.7497 49.9553 34.0747 49.8784 33.4052 49.8981C33.271 49.8981 33.2262 49.8336 33.2262 49.7191V46.0635C33.2262 45.9024 33.3085 45.8845 33.4374 45.8845H35.0809ZM16.529 46.1904C16.529 45.9542 16.5684 45.8325 16.8334 45.8737C16.9223 45.888 17.013 45.888 17.1019 45.8737C17.3221 45.8396 17.3579 45.9453 17.3543 46.1404C17.3436 46.7276 17.3507 47.3076 17.3507 47.8876C17.3507 48.4569 17.3363 49.028 17.3507 49.5955C17.3614 49.8568 17.2719 49.9122 17.0302 49.9051C16.529 49.889 16.529 49.9051 16.529 49.4128V46.1904ZM135.108 46.1994C135.108 45.956 135.158 45.8415 135.419 45.8808C135.497 45.8925 135.576 45.8925 135.654 45.8808C135.888 45.8486 135.962 45.9399 135.954 46.1761C135.945 46.7561 135.946 47.338 135.946 47.9198V49.5955C135.946 49.8174 135.901 49.914 135.654 49.9051C134.997 49.88 135.117 49.9767 135.108 49.3502V46.1994ZM37.3113 45.8843C37.8483 45.8986 37.8483 45.8844 37.8483 46.407L37.8431 47.8733C37.8431 48.4533 37.8341 49.0351 37.8431 49.615C37.8431 49.8245 37.8018 49.9069 37.5691 49.9051C37.0213 49.9051 37.0212 49.9051 37.0212 49.368V46.1869C37.0212 45.9596 37.0661 45.8772 37.3113 45.8843ZM22.4099 45.8789C22.5888 45.8789 22.6854 45.9238 22.655 46.1189C22.6496 46.1521 22.6496 46.1859 22.655 46.2191C22.7123 46.5557 22.5995 46.6917 22.2343 46.6595C21.8351 46.6237 21.4305 46.6594 21.0277 46.6469C20.813 46.6469 20.7683 46.7168 20.77 46.9154C20.77 47.4525 20.7611 47.4525 21.3071 47.4525H22.2469C22.4259 47.4525 22.5208 47.5009 22.4994 47.6978C22.4895 47.8091 22.4895 47.9212 22.4994 48.0325C22.5128 48.1836 22.4569 48.2386 22.3172 48.242H20.9795C20.8273 48.242 20.7718 48.2778 20.7646 48.4443C20.7324 49.1138 20.7253 49.1138 21.3823 49.1138H22.4205C22.5906 49.1138 22.6802 49.1497 22.6497 49.3341C22.6471 49.3561 22.6471 49.3784 22.6497 49.4004C22.6497 49.9015 22.6496 49.9016 22.1627 49.9016C21.5379 49.9016 20.9096 49.8908 20.2849 49.9016C20.0307 49.9016 19.9268 49.8514 19.9429 49.574C19.968 49.0083 19.9519 48.4371 19.9519 47.8679V46.1261C19.9519 45.9363 20.0038 45.8771 20.1954 45.8789C20.9329 45.8896 21.6723 45.8789 22.4099 45.8789ZM64.1589 45.8843C64.6959 45.8736 65.233 45.8575 65.7199 46.1474C66.1005 46.3661 66.3984 46.7044 66.5671 47.1097C66.7357 47.5149 66.7657 47.9647 66.6526 48.3888C66.4449 49.2534 65.7145 49.8388 64.7479 49.8907C64.3021 49.914 63.8527 49.8908 63.4087 49.9016C63.2477 49.9016 63.1975 49.8495 63.1975 49.6902V46.074C63.1976 45.9309 63.2406 45.8755 63.3874 45.8808C63.6433 45.8898 63.8994 45.8843 64.1589 45.8843ZM89.6887 45.8717C90.1559 45.8914 90.6268 45.8717 91.0958 45.8717C91.8638 45.8717 92.3328 46.1887 92.4761 46.7848C92.6461 47.5403 92.4044 48.0237 91.6329 48.4086L92.7409 49.8979H91.8584C91.7188 49.8979 91.6669 49.8066 91.6025 49.7189C91.3411 49.3609 91.0653 49.0028 90.8254 48.6287C90.778 48.5462 90.703 48.4829 90.6137 48.4502C90.5243 48.4175 90.4262 48.4173 90.3367 48.4497C90.1578 48.4908 90.2507 48.6734 90.2436 48.788C90.2284 49.067 90.2284 49.3468 90.2436 49.6259C90.2543 49.8246 90.1971 49.9033 89.9841 49.8979C89.2806 49.8782 89.4166 49.9695 89.4112 49.3413V46.16C89.4112 45.9506 89.4542 45.8628 89.6887 45.8717ZM12.6157 45.8789C12.9952 45.8968 13.3766 45.8789 13.7561 45.8789C14.9555 45.8897 15.8076 46.6936 15.8255 47.8285C15.8469 48.9939 15.0306 49.8406 13.8259 49.889C13.4017 49.9051 12.9774 49.889 12.5532 49.889C12.3473 49.889 12.315 49.8119 12.3168 49.6329C12.3204 49.0565 12.3151 48.4658 12.3151 47.8733C12.3151 47.304 12.3276 46.7347 12.3151 46.1672C12.3151 45.922 12.3902 45.8682 12.6157 45.8789ZM128.241 46.6791C128.003 46.5826 127.74 46.5593 127.488 46.6123C127.236 46.6653 127.005 46.7924 126.826 46.977C126.646 47.1615 126.525 47.3955 126.478 47.649C126.432 47.9024 126.462 48.164 126.565 48.4002C126.668 48.6364 126.839 48.8369 127.056 48.9757C127.273 49.1146 127.526 49.1858 127.784 49.1801C127.955 49.1856 128.125 49.1553 128.284 49.0913C128.443 49.0273 128.586 48.931 128.706 48.8084C128.825 48.6858 128.918 48.5394 128.978 48.379C129.037 48.2187 129.063 48.0476 129.053 47.8768C129.052 47.6191 128.974 47.3675 128.83 47.1542C128.685 46.941 128.48 46.7756 128.241 46.6791ZM46.0531 46.7049C45.8128 46.6505 45.5617 46.6681 45.3313 46.7556C45.1009 46.8432 44.9013 46.9969 44.7577 47.1972C44.6141 47.3976 44.5328 47.6359 44.524 47.8822C44.5162 48.0497 44.5426 48.2171 44.6014 48.3742C44.6602 48.5312 44.7501 48.6747 44.8659 48.796C44.9817 48.9173 45.1209 49.0139 45.275 49.0799C45.4292 49.1459 45.5952 49.18 45.7629 49.1801C46.0094 49.1827 46.2512 49.1126 46.458 48.9785C46.6649 48.8444 46.8277 48.6523 46.9259 48.4263C47.0241 48.2002 47.0533 47.9501 47.0101 47.7074C46.9669 47.4647 46.8531 47.2401 46.6829 47.0618C46.5127 46.8835 46.2935 46.7594 46.0531 46.7049ZM148.035 46.6801C147.791 46.6281 147.537 46.6495 147.305 46.7415C147.073 46.8335 146.874 46.9923 146.732 47.1974C146.59 47.4026 146.512 47.6452 146.508 47.8946C146.5 48.0626 146.527 48.2305 146.587 48.3876C146.647 48.5448 146.739 48.688 146.856 48.8084C146.974 48.9288 147.114 49.0239 147.27 49.0878C147.426 49.1517 147.593 49.1832 147.761 49.1801C148.01 49.1822 148.255 49.1103 148.464 48.9736C148.672 48.837 148.836 48.6415 148.934 48.4121C149.032 48.1826 149.06 47.9292 149.014 47.684C148.968 47.4388 148.85 47.2126 148.676 47.034C148.502 46.8553 148.279 46.7322 148.035 46.6801ZM64.218 46.6506C64.0497 46.638 64.0157 46.7239 64.0157 46.8724V47.8733L64.0175 48.4747C64.0175 49.1388 64.0175 49.1389 64.6959 49.1121C65.0002 49.1166 65.2943 49.0028 65.5164 48.7948C65.7384 48.5867 65.8712 48.3006 65.8865 47.9967C65.9258 47.2825 65.5426 46.7813 64.8517 46.6792C64.6441 46.6506 64.4292 46.6649 64.218 46.6506ZM13.3622 46.6486C13.1797 46.6361 13.1385 46.7186 13.1385 46.885V47.8874L13.133 48.4873C13.133 49.1317 13.1331 49.1318 13.79 49.1121C14.4792 49.0924 14.968 48.6375 15.0038 47.9841C15.0485 47.261 14.6457 46.7615 13.9297 46.6684C13.7418 46.6487 13.5448 46.6612 13.3622 46.6486ZM34.3396 48.2189C34.0909 48.1957 34.0515 48.2994 34.0515 48.5214C34.0623 49.1102 34.0515 49.1103 34.644 49.1103C34.789 49.1103 34.934 49.1175 35.0772 49.1086C35.3654 49.0925 35.5301 48.9474 35.5302 48.6467C35.5337 48.5877 35.524 48.5285 35.5019 48.4736C35.4797 48.4188 35.4457 48.3695 35.4022 48.3294C35.3587 48.2893 35.3067 48.2594 35.2503 48.2418C35.1938 48.2242 35.134 48.2195 35.0755 48.2278C34.8302 48.2189 34.5884 48.2422 34.3396 48.2189ZM75.5748 46.5843C75.3301 46.589 75.0919 46.6654 74.8901 46.8039C74.6882 46.9424 74.5314 47.137 74.4388 47.3637C74.3463 47.5903 74.3222 47.8392 74.3694 48.0794C74.4167 48.3196 74.5334 48.5406 74.7049 48.7152C74.8764 48.8899 75.0954 49.0106 75.3346 49.0623C75.5739 49.1139 75.8233 49.0942 76.0516 49.0058C76.2798 48.9174 76.4773 48.764 76.6194 48.5647C76.7615 48.3654 76.8421 48.1287 76.8512 47.8841C76.8605 47.713 76.8341 47.5417 76.7736 47.3813C76.7131 47.221 76.6198 47.075 76.4997 46.9527C76.3796 46.8304 76.2353 46.7344 76.0761 46.671C75.9169 46.6076 75.7461 46.5781 75.5748 46.5843ZM138.555 46.7149C138.367 47.234 138.205 47.6889 138.033 48.1722H138.91C139.034 48.174 139.078 48.1363 139.034 48.0145L138.555 46.7149ZM55.7843 48.1596H56.8352C56.6705 47.6853 56.4913 47.2323 56.3123 46.7132C56.1261 47.2215 55.9633 47.6674 55.7843 48.1596ZM5.80586 46.7151C5.61431 47.236 5.46215 47.6782 5.28314 48.1472H6.32858L5.80586 46.7151ZM115.509 48.1472H116.549C116.388 47.6908 116.223 47.2521 116.03 46.7151L115.509 48.1472ZM90.7754 46.6595C90.2383 46.6487 90.2383 46.6774 90.2383 47.1965C90.2383 47.7157 90.2384 47.7158 90.7593 47.7158C90.9025 47.7158 91.0494 47.7264 91.1908 47.7193C91.317 47.7096 91.4354 47.6542 91.5236 47.5633C91.6119 47.4725 91.664 47.3525 91.6699 47.2259C91.6759 47.0994 91.6353 46.9751 91.556 46.8764C91.4766 46.7777 91.3639 46.7113 91.239 46.6899C91.0854 46.669 90.9304 46.6588 90.7754 46.6595ZM35.0898 46.6829C34.7927 46.6496 34.4934 46.6395 34.1947 46.6525C34.1195 46.6489 34.0605 46.6793 34.0604 46.7616C34.0658 46.9817 33.9835 47.2324 34.098 47.4114C34.1804 47.5437 34.4078 47.4365 34.576 47.4687C34.7353 47.4616 34.9019 47.4633 35.0648 47.4418C35.1121 47.4384 35.1585 47.4256 35.2008 47.4042C35.2432 47.3828 35.2808 47.3531 35.3116 47.317C35.3425 47.2809 35.3659 47.239 35.3804 47.1937C35.3948 47.1485 35.4001 47.1007 35.3959 47.0534C35.4044 46.9637 35.3769 46.8742 35.3195 46.8048C35.2621 46.7353 35.1795 46.6915 35.0898 46.6829ZM130.77 42.5976C130.95 42.5991 131.122 42.6717 131.249 42.7999C131.375 42.9281 131.446 43.1013 131.445 43.2814C131.444 43.3707 131.426 43.4591 131.391 43.5413C131.356 43.6236 131.306 43.6983 131.242 43.7609C131.178 43.8236 131.103 43.873 131.02 43.9065C130.937 43.9401 130.849 43.9571 130.759 43.9564C130.67 43.9557 130.582 43.9373 130.499 43.9025C130.417 43.8677 130.342 43.8169 130.28 43.7532C130.217 43.6896 130.168 43.6142 130.134 43.5314C130.101 43.4486 130.084 43.36 130.084 43.2707C130.085 43.1814 130.103 43.093 130.138 43.0108C130.172 42.9285 130.223 42.8539 130.287 42.7913C130.351 42.7288 130.426 42.6793 130.509 42.6461C130.592 42.6128 130.681 42.5965 130.77 42.5976ZM146.47 42.5976C146.65 42.5977 146.824 42.6688 146.952 42.7959C147.08 42.923 147.152 43.0957 147.154 43.2761C147.154 43.4565 147.082 43.6295 146.955 43.7571C146.827 43.8846 146.654 43.9564 146.474 43.9564C146.293 43.9564 146.12 43.8846 145.993 43.7571C145.865 43.6295 145.793 43.4565 145.793 43.2761C145.793 43.0965 145.865 42.9241 145.991 42.7969C146.118 42.6698 146.29 42.5981 146.47 42.5976ZM129.17 42.6029C129.259 42.601 129.348 42.6171 129.431 42.6501C129.514 42.6831 129.59 42.7325 129.654 42.7952C129.717 42.8579 129.768 42.9327 129.802 43.0153C129.837 43.0979 129.854 43.1867 129.853 43.2761C129.85 43.4505 129.78 43.6171 129.659 43.742C129.537 43.867 129.372 43.9411 129.198 43.9492C129.109 43.9523 129.02 43.9375 128.936 43.9057C128.853 43.8739 128.776 43.8257 128.712 43.7641C128.647 43.7024 128.595 43.6284 128.559 43.5464C128.524 43.4645 128.505 43.3762 128.504 43.2868C128.5 43.1976 128.515 43.1086 128.547 43.0253C128.579 42.9419 128.628 42.866 128.69 42.802C128.752 42.7381 128.827 42.6875 128.909 42.6532C128.992 42.619 129.08 42.6019 129.17 42.6029ZM89.4273 42.5957C89.5168 42.595 89.6056 42.6121 89.6883 42.6461C89.7711 42.68 89.8461 42.7303 89.9093 42.7936C89.9724 42.8569 90.0224 42.9321 90.0562 43.0149C90.0899 43.0978 90.1068 43.1867 90.1058 43.2761C90.0988 43.4506 90.0265 43.6161 89.9032 43.7398C89.7798 43.8634 89.6144 43.9363 89.4399 43.9438C89.3506 43.9454 89.2619 43.9294 89.1789 43.8964C89.0959 43.8634 89.0203 43.8143 88.9565 43.7518C88.8927 43.6893 88.8419 43.6147 88.8072 43.5324C88.7725 43.4501 88.7545 43.3618 88.7542 43.2725C88.7513 43.1831 88.7666 43.0941 88.7993 43.0109C88.8321 42.9277 88.8816 42.8521 88.9446 42.7887C89.0077 42.7253 89.0829 42.6754 89.166 42.6422C89.249 42.6091 89.338 42.5932 89.4273 42.5957ZM90.9974 42.5957C91.0867 42.5921 91.1759 42.6066 91.2595 42.6384C91.3431 42.6701 91.4194 42.7186 91.4838 42.7807C91.5482 42.8427 91.5994 42.9172 91.6343 42.9996C91.6691 43.0819 91.6869 43.1705 91.6866 43.2599C91.687 43.3492 91.67 43.4378 91.6362 43.5205C91.6025 43.6033 91.5527 43.6785 91.4899 43.742C91.427 43.8055 91.3523 43.856 91.27 43.8906C91.1876 43.9253 91.0991 43.9433 91.0098 43.9438C90.8295 43.9387 90.6581 43.8641 90.5313 43.7357C90.4046 43.6073 90.3323 43.435 90.3296 43.2546C90.3351 43.0801 90.4075 42.9143 90.5318 42.7917C90.6561 42.6691 90.8228 42.5989 90.9974 42.5957ZM117.709 36.0259C118.541 36.0438 118.543 36.0259 118.543 36.8565V41.5505C118.543 41.8171 118.47 41.8834 118.208 41.8798C116.765 41.8673 115.322 41.8798 113.879 41.8798C113.163 41.8798 112.913 41.7724 112.41 41.2604C111.994 41.7777 111.434 41.8977 110.799 41.8887C109.277 41.8673 107.756 41.8673 106.235 41.8887C105.775 41.8887 105.426 41.767 105.161 41.3195C104.859 41.9119 104.336 41.8978 103.799 41.8852C103.094 41.8691 102.388 41.8852 101.685 41.8852C101.65 41.8789 101.615 41.8797 101.581 41.8879C101.547 41.896 101.515 41.9112 101.487 41.9324C101.459 41.9537 101.436 41.9806 101.419 42.0113C101.403 42.042 101.392 42.0759 101.389 42.1108C101.067 43.3423 100.328 43.8831 99.0155 43.8634C98.9821 43.8652 98.9487 43.8652 98.9153 43.8634C97.741 43.7381 98.0202 43.9724 97.9809 42.8501C97.9809 42.6496 98.0435 42.5994 98.2314 42.6226C98.6068 42.6889 98.9911 42.6889 99.3665 42.6226C99.5217 42.5997 99.6697 42.5421 99.7996 42.4541C99.9294 42.3661 100.038 42.2499 100.117 42.1143C100.215 41.9353 100.172 41.8816 99.9751 41.8887C99.5275 41.9134 99.0791 41.8587 98.6505 41.7276C97.6588 41.4071 97.1163 40.6535 97.1538 39.6403C97.1896 38.6898 97.87 37.9039 98.8671 37.6711C99.6726 37.4778 100.493 37.5653 101.307 37.551C101.533 37.5511 101.468 37.7301 101.47 37.8411C101.47 38.6896 101.484 39.5401 101.47 40.3886C101.47 40.6749 101.556 40.7465 101.828 40.7358C102.396 40.7161 102.965 40.7358 103.532 40.7358L103.598 40.6141C103.419 40.453 103.24 40.2794 103.045 40.1326C102.936 40.053 102.855 39.9409 102.812 39.8124C102.77 39.6839 102.77 39.5454 102.811 39.4166C103.013 38.2565 104.076 37.4474 105.317 37.5082C105.888 37.5323 106.43 37.7638 106.843 38.1592C107.255 38.5547 107.509 39.0871 107.557 39.6564C107.563 39.7168 107.555 39.7781 107.533 39.8346C107.51 39.891 107.474 39.9411 107.428 39.9804C107.182 40.1956 106.965 40.4411 106.781 40.7108H107.856C108.156 40.7108 108.459 40.6965 108.751 40.7108C108.98 40.7233 109.03 40.6355 109.026 40.4225C109.016 39.6295 109.026 38.8363 109.026 38.0433C109.026 37.8232 109.084 37.7463 109.304 37.7678C109.603 37.7964 109.991 37.6478 110.177 37.825C110.364 38.0022 110.231 38.3962 110.235 38.6933C110.235 39.2625 110.247 39.8337 110.235 40.4029C110.235 40.623 110.274 40.7125 110.523 40.7125C111.47 40.7125 111.658 40.5335 111.66 39.5812C111.66 39.0675 111.672 38.5536 111.66 38.0398C111.66 37.8125 111.73 37.7481 111.943 37.7678C112.242 37.7946 112.632 37.6461 112.814 37.825C112.997 38.004 112.863 38.3962 112.87 38.6933C112.881 39.0728 112.859 39.4541 112.879 39.8335C112.88 39.9891 112.92 40.1421 112.995 40.2788C113.069 40.4155 113.176 40.5319 113.306 40.6176C113.436 40.7033 113.585 40.7559 113.74 40.7706C113.895 40.7852 114.051 40.7616 114.195 40.7019C114.352 40.6464 114.293 40.5228 114.295 40.4207V37.8054C114.295 37.5834 114.334 37.476 114.585 37.501C114.808 37.5216 115.032 37.5216 115.254 37.501C115.473 37.4814 115.512 37.5709 115.51 37.7678C115.51 38.6396 115.51 39.5114 115.5 40.3814C115.5 40.6588 115.587 40.7233 115.842 40.7108C116.243 40.6911 116.647 40.6911 117.05 40.7108C117.29 40.7215 117.349 40.6373 117.349 40.4064C117.338 39.0656 117.349 37.7211 117.335 36.3839C117.335 36.076 117.426 36.0259 117.709 36.0259ZM51.3015 37.533C51.5986 37.5617 51.9801 37.4115 52.1753 37.5958C52.3703 37.7802 52.2128 38.1454 52.2307 38.4335C52.2468 38.4604 52.2485 38.5035 52.2557 38.5947C53.3853 37.4007 54.9715 37.1734 56.178 38.0129C56.5034 38.224 56.7702 38.5139 56.9535 38.8556C57.1369 39.1973 57.2311 39.58 57.2271 39.9678V41.6094C57.2271 41.8313 57.1644 41.8868 56.9478 41.8868H52.3592C52.2284 41.8876 52.123 41.9024 52.0588 42.0856C51.6435 43.4246 50.5926 43.8864 49.3466 43.8578C48.5931 43.8398 47.8823 43.6591 47.3274 43.1006C46.6705 42.4454 46.6005 41.6254 46.6972 40.7734C46.6972 40.7519 46.708 40.7303 46.7115 40.7089C46.9496 39.5954 46.7117 39.8782 47.8197 39.8353C47.9987 39.8353 48.022 39.8872 47.9844 40.0536C47.8716 40.5548 47.7714 41.0579 47.8734 41.577C47.9077 41.8219 48.0138 42.0514 48.1781 42.2361C48.3425 42.4208 48.558 42.5529 48.7972 42.6155C49.1219 42.7073 49.4628 42.7275 49.7961 42.6746C50.6214 42.5475 51.0081 42.0211 51.0188 40.9917C51.0319 39.9296 51.0319 38.8679 51.0188 37.807C51.0188 37.5833 51.0851 37.5098 51.3015 37.533ZM41.6203 37.6568C42.4241 37.4599 43.2458 37.5511 44.0603 37.5332C44.1964 37.5332 44.2285 37.6084 44.2268 37.7248C44.2071 39.0978 44.2966 40.4746 44.182 41.8422C44.0817 43.0273 43.3746 43.695 42.1967 43.8221C41.9998 43.8491 41.8009 43.8587 41.6023 43.8508C40.6536 43.7863 40.6268 43.7415 40.7396 42.7767C40.7575 42.6138 40.8291 42.5976 40.9562 42.6137C41.2003 42.6432 41.4459 42.6594 41.6918 42.6622C42.6138 42.646 42.9915 42.2663 43.0345 41.2961C42.8298 41.5194 42.5718 41.6872 42.2846 41.7837C41.9974 41.8801 41.6904 41.902 41.3924 41.8475C41.0944 41.7929 40.815 41.6637 40.5806 41.4718C40.3462 41.2799 40.1645 41.0315 40.0522 40.7501C39.9216 40.4462 39.8592 40.1173 39.8696 39.7867C39.8801 39.4561 39.9631 39.1317 40.1126 38.8367C40.2622 38.5416 40.4749 38.283 40.7354 38.0792C40.9959 37.8753 41.298 37.7311 41.6203 37.6568ZM36.155 36.0276C36.9838 36.0527 36.9856 36.0276 36.9856 36.8636V41.554C36.9856 41.8206 36.9121 41.8905 36.6508 41.8833C35.9581 41.8654 35.2652 41.8833 34.5725 41.8707C34.0355 41.8582 33.5252 41.7455 33.1582 41.3052C33.083 41.2157 33.0525 41.2479 32.9792 41.3052C31.9391 42.0588 31.1675 42.082 30.0523 41.4054C29.9807 41.3624 29.918 41.2694 29.8231 41.366C29.329 41.8726 28.6969 41.9209 28.0507 41.8744C27.7572 41.8547 27.6336 41.9335 27.5567 42.2324C27.2971 43.2313 26.6955 43.7146 25.6537 43.8239C25.4756 43.8457 25.296 43.8541 25.1167 43.849C24.1214 43.7989 24.1016 43.7683 24.1875 42.7749C24.2018 42.6102 24.2682 42.5959 24.3971 42.612C24.7945 42.68 25.2008 42.68 25.5983 42.612C25.789 42.5811 25.9668 42.4958 26.11 42.3662C26.2532 42.2366 26.3559 42.0682 26.4056 41.8816C25.958 41.9001 25.5097 41.8657 25.0702 41.7795C23.9961 41.5199 23.3695 40.7662 23.3641 39.7494C23.3587 38.7326 24.0229 37.9001 25.0862 37.6494C25.89 37.4597 26.7118 37.5492 27.5245 37.5295C27.732 37.5296 27.6837 37.6711 27.6855 37.7856C27.6855 38.6556 27.6963 39.5275 27.6855 40.3975C27.6855 40.6445 27.7375 40.7197 27.997 40.7179C29.0066 40.7179 29.0121 40.7178 29.2502 39.7368C29.3327 39.3554 29.4651 38.9864 29.6441 38.6395C30.0916 37.8214 30.8005 37.4239 31.6437 37.5206C32.068 37.5715 32.4677 37.7472 32.7921 38.0253C33.1165 38.3035 33.3511 38.6719 33.466 39.0835C33.521 39.3341 33.5576 39.5885 33.5753 39.8444C33.5826 40.0539 33.6668 40.2535 33.8117 40.405C33.9566 40.5565 34.1522 40.6494 34.3611 40.666C34.7724 40.7113 35.1865 40.7263 35.5999 40.7108C35.8468 40.7107 35.779 40.5317 35.779 40.4064V36.4197C35.779 36.1297 35.8292 36.0187 36.155 36.0276ZM58.9278 38.3709C58.9278 38.1257 58.9835 38.0254 59.243 38.0522C59.4544 38.0719 59.6672 38.0719 59.8785 38.0522C60.0782 38.0355 60.1363 38.11 60.1399 38.2846V40.2632L60.1166 40.2704C60.1166 40.9184 60.1471 41.5664 60.1166 42.2127C60.0575 43.2313 59.3325 43.772 58.3264 43.5966C57.6515 43.4784 57.6694 43.4819 57.7894 42.8195C57.8484 42.517 57.92 42.3988 58.2708 42.4615C58.7649 42.5581 58.9242 42.3989 58.9278 41.8887C58.9278 40.7162 58.9368 39.5435 58.9278 38.3709ZM15.6442 37.6349C15.9961 37.4974 16.3817 37.4706 16.7493 37.5582C17.6443 37.7372 18.1654 38.31 18.4178 39.1585C18.4694 39.3641 18.497 39.5751 18.5001 39.787C18.4971 40.0083 18.5782 40.2225 18.727 40.3863C18.8759 40.5501 19.0815 40.6514 19.302 40.6695C19.6908 40.7107 20.082 40.7269 20.4728 40.7179C20.6643 40.7179 20.7199 40.6587 20.7181 40.4707C20.7074 39.7672 20.7181 39.0636 20.7092 38.3601C20.7092 38.1364 20.7522 38.0307 20.9992 38.054C21.2111 38.0755 21.4246 38.0755 21.6365 38.054C21.8834 38.029 21.9265 38.1346 21.9247 38.3584C21.914 39.4408 21.914 40.5245 21.9247 41.6094C21.9247 41.8277 21.8674 41.8904 21.6473 41.8868C20.9438 41.8725 20.2383 41.8869 19.533 41.8762C18.996 41.8654 18.4858 41.7579 18.1117 41.323C18.0311 41.2281 17.9917 41.2514 17.9022 41.323C16.923 42.0588 16.0511 42.0838 15.0021 41.4197C14.9287 41.3714 14.8677 41.2532 14.7531 41.3749C14.2931 41.8564 13.6969 41.9227 13.0811 41.8833C12.75 41.8618 12.5889 41.903 12.5567 42.3183C12.4833 43.2617 11.7599 43.7503 10.8058 43.6036C10.0898 43.4908 10.1095 43.4926 10.2581 42.7873C10.3136 42.5188 10.369 42.3971 10.7002 42.4651C11.2372 42.5743 11.384 42.4078 11.3876 41.8601C11.3912 41.2747 11.3876 40.6927 11.3876 40.1127V38.3029C11.3876 38.1132 11.4431 38.0452 11.6346 38.0559C11.8689 38.072 12.1041 38.072 12.3383 38.0559C12.5495 38.0398 12.605 38.115 12.6014 38.319C12.5907 39.0118 12.6014 39.7046 12.5925 40.3956C12.5925 40.639 12.6426 40.7214 12.9021 40.7214C13.9421 40.7214 13.962 40.7214 14.1982 39.7047C14.2952 39.2106 14.4932 38.7418 14.7801 38.3279C14.9908 38.0143 15.2923 37.7725 15.6442 37.6349ZM152.723 36.0365C153.02 36.0705 153.416 35.9112 153.588 36.1045C153.735 36.271 153.636 36.6577 153.638 36.946C153.636 37.6262 153.634 38.3012 153.634 38.9886V41.6022C153.634 41.8134 153.591 41.9083 153.36 41.8851C153.063 41.8547 152.675 42.0049 152.487 41.8277C152.299 41.6505 152.428 41.2567 152.428 40.9578V36.3355C152.428 36.1046 152.483 36.0097 152.723 36.0365ZM119.669 36.0365C119.966 36.0651 120.355 35.9167 120.539 36.0939C120.723 36.2711 120.595 36.6631 120.596 36.9603V41.5772C120.596 41.8314 120.53 41.9119 120.281 41.8851C119.995 41.8546 119.622 42.0015 119.442 41.8296C119.261 41.6578 119.39 41.2818 119.386 40.9954C119.381 40.3026 119.386 39.6116 119.386 38.9206V36.3105C119.386 36.0849 119.454 36.0186 119.669 36.0365ZM150.673 36.0489C150.96 36.0865 151.334 35.9292 151.511 36.1117C151.688 36.2943 151.561 36.663 151.563 36.9512V41.5431C151.563 41.8116 151.511 41.9011 151.221 41.9012C148.761 41.8886 146.3 41.9012 143.84 41.9012C143.224 41.9011 142.627 41.8366 142.188 41.33C142.086 41.2155 142.034 41.3014 141.975 41.3604C141.309 42.0371 140.063 42.0981 139.155 41.4679C139.126 41.4379 139.091 41.4145 139.051 41.3994C139.012 41.3844 138.97 41.3778 138.929 41.3805C138.887 41.3832 138.846 41.3951 138.809 41.4151C138.772 41.4351 138.74 41.463 138.715 41.4966C138.421 41.7613 138.036 41.904 137.641 41.8957C136.925 41.9065 136.209 41.8957 135.493 41.8957C135.131 41.8904 134.911 41.629 134.669 41.3443C134.411 41.8223 134.008 41.9172 133.527 41.8975C132.891 41.8688 132.252 41.8975 131.615 41.8831C131.026 41.8706 130.484 41.7257 130.108 41.2244C128.745 42.2806 127.22 42.1052 126.363 40.7536C126.343 40.7984 126.321 40.842 126.296 40.8842C125.854 41.5859 125.222 41.8635 124.444 41.6952C124.087 41.613 123.765 41.4236 123.519 41.1526C123.274 40.8815 123.117 40.5417 123.07 40.179C122.872 38.7773 123.801 37.6458 125.251 37.5258C125.441 37.5097 125.632 37.5116 125.822 37.5098C126.012 37.508 126.217 37.5956 126.18 37.2662C126.169 37.1608 126.286 37.1786 126.359 37.1715C127.374 37.073 127.374 37.0731 127.374 38.079C127.374 38.616 127.365 39.1532 127.374 39.6902C127.39 40.4546 127.911 40.8538 128.654 40.6819C129.11 40.5763 129.356 40.2558 129.37 39.7206C129.381 39.2516 129.381 38.7808 129.37 38.3119C129.37 38.1329 129.42 38.0504 129.615 38.0683C129.923 38.0952 130.319 37.9413 130.51 38.1292C130.702 38.3171 130.557 38.7003 130.57 38.9993V39.8031C130.563 40.0128 130.635 40.2176 130.771 40.3774C130.907 40.5372 131.097 40.6406 131.305 40.6676C131.878 40.775 132.455 40.7124 133.029 40.7249L133.115 40.605L132.412 40.0054C132.364 39.9679 132.326 39.9188 132.302 39.8627C132.278 39.8067 132.269 39.7454 132.276 39.6849C132.334 39.092 132.611 38.542 133.053 38.1419C133.494 37.7419 134.069 37.5203 134.665 37.5203C135.26 37.5203 135.835 37.7419 136.276 38.1419C136.718 38.542 136.995 39.092 137.054 39.6849C137.059 39.7453 137.049 39.8061 137.025 39.8618C137.001 39.9176 136.964 39.967 136.918 40.0054C136.696 40.2202 136.477 40.4404 136.201 40.7089C136.738 40.7089 137.199 40.7214 137.659 40.7089C137.94 40.6981 138.085 40.5066 138.16 40.2452C138.262 39.7995 138.39 39.36 138.543 38.9293C138.973 37.909 139.811 37.3863 140.774 37.551C141.268 37.6364 141.717 37.8889 142.048 38.2662C142.378 38.6436 142.568 39.1231 142.587 39.6241C142.63 40.3831 142.879 40.6802 143.661 40.7089C144.823 40.75 145.988 40.7214 147.15 40.7286C147.31 40.7286 147.329 40.6748 147.304 40.5281C147.111 39.2464 146.522 38.5588 144.868 38.6912C144.309 38.736 144.313 38.7683 144.259 38.2295C144.205 37.6907 144.205 37.6709 144.796 37.5743C145.461 37.4672 146.142 37.5458 146.765 37.8015C147.721 38.1828 148.171 38.9581 148.405 39.9015C148.609 40.7267 148.607 40.7303 149.451 40.7249C149.739 40.7249 150.115 40.8485 150.292 40.673C150.469 40.4976 150.353 40.102 150.355 39.8048V36.3855C150.355 36.1439 150.387 36.0114 150.673 36.0489ZM38.1295 36.0348C38.3962 36.0616 38.8008 35.9434 38.9709 36.0885C39.1678 36.2675 39.0299 36.6523 39.0335 36.9477C39.0406 37.628 39.0335 38.3101 39.0335 38.9903V41.5664C39.0335 41.8009 39.0013 41.9244 38.731 41.8868C38.4607 41.8492 38.0597 41.9781 37.8896 41.8331C37.6909 41.6541 37.8269 41.2693 37.8251 40.9721V36.3533C37.8251 36.1171 37.8627 36.0079 38.1295 36.0348ZM8.76142 36.0365C9.05859 36.0598 9.45067 35.9453 9.63326 36.0956C9.81578 36.246 9.69058 36.6595 9.69235 36.9566V41.5755C9.69234 41.8278 9.6314 41.9101 9.37907 41.8868C9.09264 41.8582 8.71483 41.9727 8.53939 41.8277C8.36401 41.6827 8.48563 41.2907 8.48205 40.9971C8.48384 40.3169 8.48398 39.6365 8.48398 38.9563V36.3122C8.48398 36.092 8.54123 36.0186 8.76142 36.0365ZM61.2568 36.0311C61.554 36.0651 61.9461 35.9095 62.1269 36.0902C62.3077 36.271 62.1771 36.6631 62.1788 36.962V40.4136C62.1789 40.6426 62.2308 40.7214 62.4706 40.7143C63.1168 40.6982 63.7631 40.7143 64.5096 40.7143C64.2393 40.4422 64.0335 40.2184 63.8115 40.0125C63.7534 39.9615 63.7095 39.8961 63.6844 39.823C63.6593 39.7499 63.6536 39.6713 63.6682 39.5954C63.7318 39.0287 64.0002 38.5046 64.4227 38.1216C64.8452 37.7387 65.393 37.523 65.9632 37.5152C67.202 37.4848 68.2171 38.2904 68.4141 39.454C68.4481 39.5714 68.4459 39.6963 68.408 39.8125C68.37 39.9288 68.2978 40.0309 68.201 40.1055C68.0003 40.277 67.8201 40.4711 67.6639 40.6839C68.1848 40.6839 68.6969 40.7734 69.2053 40.6606C69.4309 40.6105 69.5061 40.4063 69.5634 40.2111C69.6586 39.7987 69.7744 39.3912 69.9106 38.9903C70.333 37.9324 71.1638 37.3791 72.1233 37.5313C73.1634 37.6852 73.9135 38.5195 73.9941 39.633C74.0639 40.5173 74.8355 40.972 75.6661 40.6193C76.0868 40.4403 76.2138 40.0823 76.2138 39.6706V36.3533C76.2138 36.1135 76.2534 36.008 76.5199 36.0348C76.7866 36.0616 77.1823 35.9489 77.3614 36.0919C77.5404 36.2351 77.4204 36.629 77.4222 36.9208V39.6365C77.4222 40.2988 77.6837 40.5836 78.3425 40.6839C78.6664 40.734 78.9906 40.6838 79.3127 40.7178C79.5705 40.741 79.6546 40.6677 79.651 40.3938C79.6349 39.0763 79.66 37.7569 79.6332 36.4393C79.6332 36.0814 79.7389 36.0239 80.0592 36.0329C80.8504 36.0561 80.8505 36.033 80.8505 36.8313V41.5914C80.8505 41.8241 80.795 41.894 80.557 41.8868C79.8642 41.8707 79.1695 41.8869 78.4767 41.8762C77.8824 41.8672 77.3292 41.7257 76.939 41.2066C76.0922 41.9889 75.1487 42.0068 74.1516 41.7115C74.0307 41.6843 73.9203 41.622 73.8347 41.5324C73.5823 41.1852 73.405 41.3534 73.1186 41.5324C72.2969 42.0694 71.443 41.9871 70.6286 41.4877C70.4138 41.3553 70.283 41.3086 70.0772 41.5073C69.801 41.7596 69.4359 41.8923 69.0622 41.8762C68.3354 41.8887 67.6084 41.8762 66.8816 41.8762C66.4968 41.8761 66.2711 41.6416 66.0402 41.3176C65.7699 41.8796 65.2812 41.8886 64.7657 41.8814C63.6146 41.8653 62.4616 41.8689 61.3105 41.8814C61.0618 41.8814 60.9687 41.8384 60.9705 41.5609C60.9866 39.8173 60.983 38.0754 60.9705 36.3318C60.9705 36.1099 61.0081 36.0025 61.2568 36.0311ZM6.7242 38.0559C7.01242 38.081 7.39195 37.9663 7.56738 38.1113C7.77502 38.2814 7.63355 38.6753 7.63713 38.9725C7.64787 39.8425 7.63713 40.7143 7.63713 41.5861C7.63713 41.8152 7.58524 41.8922 7.3436 41.8868C6.62216 41.8707 5.89521 41.8816 5.01443 41.8816C4.29837 41.835 3.42118 41.9764 2.55834 41.801C1.04207 41.4931 0.266915 40.2541 0.648223 38.7844C0.710878 38.5464 0.81296 38.4265 1.08143 38.4533C1.34994 38.4801 1.65249 38.3763 1.79751 38.4998C1.94252 38.6233 1.76169 38.9474 1.73842 39.1837C1.66145 39.9714 2.11263 40.5817 2.9003 40.6641C4.01377 40.7823 5.13443 40.6892 6.25148 40.7143C6.47347 40.7143 6.4305 40.5657 6.4305 40.4386C6.4305 39.7458 6.43945 39.053 6.4305 38.3603C6.4305 38.1347 6.47716 38.0326 6.7242 38.0559ZM86.649 37.1643C87.6407 37.1035 87.6408 37.1035 87.6408 38.0952V39.6706C87.6497 40.3544 87.9988 40.6946 88.6773 40.7143C88.9118 40.7143 89.1481 40.7035 89.3808 40.7143C89.6135 40.725 89.6422 40.6427 89.6404 40.444C89.6297 39.7405 89.6404 39.0369 89.6404 38.3334C89.6404 38.1168 89.6905 38.029 89.9179 38.0522C90.215 38.0827 90.6017 37.9305 90.7897 38.1131C90.9777 38.2957 90.8452 38.6843 90.8488 38.9814V41.5629C90.8488 41.8027 90.8039 41.8922 90.5408 41.8851C89.8928 41.8636 89.2448 41.8851 88.595 41.8851C87.7518 41.8815 87.0732 41.5772 86.6328 40.7429C86.2246 41.527 85.6016 41.8171 84.8032 41.7026C83.8509 41.5575 83.192 40.6283 83.2977 39.6419C83.4194 38.4461 84.2734 37.6208 85.5032 37.5169C85.7259 37.499 85.9496 37.4955 86.1728 37.5063C86.3339 37.5063 86.4663 37.5241 86.4359 37.2986C86.4234 37.1966 86.4897 37.1625 86.581 37.1643H86.649ZM92.8789 37.5117C93.5949 37.492 94.3111 37.5224 94.9717 37.85C95.3447 38.0221 95.6638 38.2928 95.8944 38.6328C96.125 38.9729 96.2584 39.3695 96.2802 39.7798C96.3339 40.4117 96.2981 41.0508 96.3124 41.6863C96.3124 41.8653 96.2283 41.8814 96.0869 41.8796C95.4871 41.8814 94.8785 41.8816 94.2734 41.8816H92.4976C92.3185 41.8816 92.272 41.8349 92.2649 41.6559C92.2291 40.7107 92.2236 40.7108 93.1491 40.7108C93.7077 40.7108 94.2681 40.7 94.8248 40.7108C95.0486 40.7108 95.1362 40.6444 95.104 40.426C95.0995 40.37 95.0995 40.3138 95.104 40.2578C95.0915 39.2034 94.6923 38.7826 93.6362 38.7164H93.4696C93.2279 38.6914 92.8305 38.8167 92.7768 38.661C92.6676 38.3405 92.7357 37.9609 92.7339 37.6047C92.7339 37.5116 92.8108 37.5135 92.8789 37.5117ZM31.5023 38.7183C31.1138 38.6772 30.8685 38.824 30.6608 39.2393C30.5898 39.3892 30.5299 39.5442 30.4818 39.7029C30.2402 40.4655 30.3584 40.6499 31.1568 40.777C31.3056 40.8099 31.4601 40.8079 31.608 40.7711C31.7559 40.7342 31.8934 40.6635 32.0094 40.5646C32.1254 40.4658 32.217 40.3413 32.2769 40.2012C32.3367 40.061 32.3632 39.9088 32.3543 39.7566C32.3427 39.6482 32.3243 39.5405 32.2989 39.4344C32.2563 39.2474 32.1567 39.0782 32.0141 38.95C31.8715 38.8218 31.6927 38.7409 31.5023 38.7183ZM71.9497 38.7236C71.5452 38.6806 71.2999 38.8382 71.0761 39.3C71.0132 39.4305 70.9603 39.5658 70.9184 39.7045C70.6768 40.4617 70.7987 40.6535 71.5934 40.7788C72.2558 40.8844 72.7929 40.46 72.7929 39.744C72.7875 39.7028 72.7785 39.6025 72.757 39.5059C72.7261 39.3053 72.6306 39.1202 72.4848 38.979C72.3391 38.8378 72.1511 38.7481 71.9497 38.7236ZM16.5057 38.729C16.0887 38.6592 15.8148 38.8186 15.5911 39.2858C15.4938 39.4866 15.4165 39.6965 15.3601 39.9124C15.2205 40.4565 15.3154 40.5978 15.8757 40.7321C15.9735 40.7568 16.0728 40.7754 16.1729 40.7877C16.8191 40.8521 17.288 40.4314 17.2881 39.7494C17.2845 39.7136 17.2863 39.6348 17.2737 39.5543C17.2476 39.3539 17.1596 39.1666 17.022 39.0187C16.8843 38.8707 16.7037 38.7694 16.5057 38.729ZM140.65 38.736C140.235 38.6555 139.952 38.8166 139.726 39.273C139.647 39.433 139.582 39.5996 139.531 39.7708C139.325 40.4671 139.444 40.6229 140.16 40.7608C140.876 40.8986 141.413 40.4958 141.413 39.7673C141.409 39.7332 141.409 39.649 141.404 39.5739C141.382 39.3728 141.298 39.1834 141.163 39.033C141.027 38.8826 140.848 38.7785 140.65 38.736ZM100.133 38.7327C99.6994 38.7327 99.2751 38.7327 98.8795 38.9117C98.7141 38.975 98.5721 39.0876 98.4727 39.234C98.3732 39.3806 98.3209 39.5542 98.323 39.7312C98.3252 39.9083 98.3816 40.0805 98.4846 40.2246C98.5876 40.3687 98.7324 40.4778 98.8992 40.5372C99.2877 40.6752 99.6994 40.736 100.111 40.7162C100.26 40.7198 100.303 40.6517 100.303 40.5139V39.7136C100.303 39.4576 100.299 39.1962 100.312 38.9438C100.312 38.8168 100.29 38.7327 100.133 38.7327ZM54.9733 38.7612C54.5765 38.6819 54.1659 38.7059 53.781 38.8309C53.0131 39.0672 52.4705 39.5346 52.27 40.3402C52.2056 40.5853 52.2362 40.7321 52.5637 40.7143C53.0757 40.6928 53.5914 40.7143 54.1069 40.7143L55.3474 40.7071C56.0331 40.7071 56.0312 40.7285 56.0223 40.0249C56.0133 39.3215 55.6643 38.9062 54.9733 38.7612ZM26.3448 38.7272C25.9098 38.729 25.4711 38.7254 25.0665 38.9169C24.9033 38.9809 24.7641 39.0942 24.6679 39.2407C24.5717 39.3872 24.5233 39.5599 24.5294 39.7351C24.5315 39.9093 24.5864 40.0789 24.6868 40.2214C24.7871 40.3639 24.9283 40.4728 25.0917 40.5335C25.3621 40.6399 25.6495 40.697 25.9401 40.7019C26.4895 40.7394 26.4897 40.7393 26.4897 40.2026V39.7333L26.4934 38.9313C26.4934 38.8275 26.4968 38.7273 26.3448 38.7272ZM42.8932 38.7344C42.4564 38.7344 42.0177 38.7308 41.6149 38.9278C41.4486 38.9976 41.3087 39.1185 41.2154 39.2729C41.1222 39.4273 41.0803 39.6073 41.0959 39.787C41.1032 39.9774 41.1672 40.1614 41.2798 40.3152C41.3924 40.4689 41.5484 40.5855 41.7277 40.6499C41.9009 40.7161 42.0904 40.7267 42.27 40.6805C42.4495 40.6344 42.6105 40.5336 42.7303 40.3921C42.8536 40.2467 42.9455 40.0772 43 39.8945C43.0546 39.7118 43.0705 39.5198 43.0471 39.3305C43.0471 39.1677 43.047 39.0065 43.0488 38.8991C43.0506 38.7917 43.0095 38.7344 42.8932 38.7344ZM66.0188 38.7146C65.815 38.7187 65.6147 38.7693 65.4335 38.8627C65.2523 38.9561 65.0948 39.0898 64.9732 39.2535C64.9454 39.2802 64.9237 39.3127 64.9098 39.3487C64.8958 39.3847 64.8901 39.4235 64.8926 39.462C64.8952 39.5005 64.9061 39.5381 64.9246 39.572C64.9432 39.6058 64.969 39.6352 65.0001 39.658C65.3152 39.9551 65.6125 40.272 65.9078 40.5907C66.0152 40.6981 66.0814 40.7106 66.1942 40.5907C66.4895 40.272 66.7903 39.9569 67.1036 39.658C67.135 39.6353 67.1611 39.6062 67.1802 39.5725C67.1992 39.5388 67.2109 39.5013 67.2141 39.4627C67.2173 39.4241 67.2121 39.3851 67.1989 39.3487C67.1857 39.3124 67.1648 39.2792 67.1377 39.2517C67.0075 39.0796 66.8379 38.9409 66.6433 38.8475C66.4487 38.7541 66.2346 38.7086 66.0188 38.7146ZM134.673 38.7127C134.458 38.7099 134.247 38.7593 134.056 38.8566C133.865 38.9539 133.701 39.0963 133.577 39.2713C133.553 39.2955 133.534 39.3249 133.523 39.3571C133.511 39.3893 133.506 39.4237 133.51 39.4578C133.513 39.4919 133.523 39.5251 133.54 39.5547C133.558 39.5843 133.581 39.6098 133.609 39.6293C133.923 39.9325 134.228 40.2441 134.522 40.5639C134.646 40.7035 134.723 40.6892 134.839 40.5639C135.133 40.2543 135.426 39.9462 135.734 39.6562C135.765 39.6334 135.791 39.6038 135.81 39.5699C135.829 39.536 135.84 39.4984 135.843 39.4597C135.846 39.4211 135.84 39.3822 135.826 39.3459C135.812 39.3097 135.791 39.2768 135.763 39.2498C135.635 39.0816 135.471 38.9455 135.281 38.8522C135.092 38.759 134.884 38.7112 134.673 38.7127ZM105.106 38.7183C104.913 38.7232 104.723 38.7705 104.55 38.8568C104.377 38.9431 104.225 39.0664 104.105 39.2178C104.072 39.2476 104.046 39.2847 104.029 39.326C104.013 39.3674 104.005 39.4121 104.008 39.4566C104.012 39.5011 104.025 39.5444 104.047 39.583C104.069 39.6216 104.1 39.6547 104.137 39.6797C104.434 39.952 104.715 40.2401 104.98 40.5426C105.143 40.7305 105.233 40.6731 105.365 40.5246C105.573 40.2901 105.799 40.0735 106.019 39.8498C106.427 39.438 106.391 39.2285 105.89 38.9206C105.653 38.7791 105.381 38.7089 105.106 38.7183ZM126.049 38.6484C125.765 38.5855 125.469 38.596 125.19 38.6786C124.911 38.7613 124.657 38.9135 124.452 39.1209C124.053 39.615 124.18 40.2952 124.717 40.494C124.963 40.5945 125.239 40.5946 125.485 40.4942C125.731 40.3938 125.928 40.2009 126.033 39.9569C126.146 39.6905 126.195 39.4009 126.175 39.112C126.1 38.9867 126.325 38.7415 126.049 38.6484ZM86.3375 38.6484C85.8309 38.4497 84.8839 38.7648 84.6136 39.266C84.3432 39.7673 84.4918 40.2954 84.9501 40.4833C85.1935 40.5904 85.4692 40.5977 85.7179 40.5036C85.9666 40.4095 86.1685 40.2217 86.2801 39.9804C86.3954 39.7358 86.4478 39.4662 86.4324 39.1963V38.7987C86.438 38.7664 86.4314 38.7331 86.4139 38.7054C86.3964 38.6776 86.3691 38.6572 86.3375 38.6484ZM4.87125 36.1601C4.96069 36.1569 5.04993 36.172 5.13331 36.2045C5.21666 36.237 5.29254 36.2861 5.35621 36.3489C5.41991 36.4118 5.47017 36.4871 5.50376 36.5701C5.53733 36.653 5.55367 36.742 5.55167 36.8315C5.55238 36.9209 5.53504 37.0097 5.50097 37.0925C5.46688 37.1752 5.41661 37.2504 5.35307 37.3134C5.28953 37.3765 5.21405 37.4262 5.13104 37.4596C5.04799 37.493 4.95902 37.5095 4.8695 37.508C4.68967 37.5015 4.5194 37.4255 4.39451 37.296C4.26962 37.1664 4.19981 36.9934 4.19993 36.8134C4.20505 36.6387 4.278 36.4728 4.40325 36.3509C4.52853 36.2289 4.69642 36.1605 4.87125 36.1601ZM3.27617 36.153C3.45662 36.1491 3.63139 36.2167 3.76217 36.3411C3.89296 36.4655 3.96925 36.6367 3.97441 36.8171C3.97119 36.9976 3.89822 37.1699 3.77074 37.2977C3.64323 37.4255 3.47103 37.4991 3.2905 37.5028C3.1157 37.5002 2.94846 37.4308 2.82302 37.3091C2.69759 37.1873 2.62344 37.0222 2.61568 36.8475C2.61258 36.7584 2.62738 36.6694 2.65904 36.586C2.69071 36.5026 2.73862 36.4262 2.80012 36.3615C2.86163 36.2969 2.9355 36.2451 3.01725 36.2093C3.09896 36.1735 3.18697 36.1543 3.27617 36.153ZM22.0929 35.9953C22.2734 35.9985 22.4457 36.0716 22.5735 36.1991C22.7013 36.3266 22.7749 36.4987 22.7786 36.6792C22.7751 36.854 22.7049 37.0208 22.5824 37.1456C22.46 37.2704 22.2945 37.3437 22.1198 37.3505C22.0307 37.3536 21.9418 37.3388 21.8585 37.3071C21.7751 37.2755 21.6989 37.2274 21.6344 37.1659C21.5699 37.1044 21.5182 37.0306 21.4826 36.9489C21.447 36.8672 21.4282 36.7792 21.427 36.69C21.4249 36.6006 21.4405 36.5117 21.4728 36.4283C21.5052 36.345 21.5536 36.2687 21.6155 36.2042C21.6774 36.1396 21.7514 36.0879 21.8333 36.0521C21.9152 36.0163 22.0035 35.9969 22.0929 35.9953ZM20.5067 36.0044C20.5954 36.0044 20.6833 36.0218 20.7651 36.0558C20.847 36.0897 20.9214 36.1393 20.984 36.2019C21.0467 36.2646 21.0964 36.3391 21.1303 36.421C21.1642 36.5028 21.1817 36.5906 21.1817 36.6792C21.1808 36.7684 21.1622 36.8566 21.127 36.9386C21.0918 37.0206 21.0406 37.0949 20.9765 37.157C20.9124 37.219 20.8366 37.2677 20.7536 37.3003C20.6705 37.3329 20.5818 37.3489 20.4926 37.347C20.318 37.3411 20.1523 37.2685 20.0295 37.1444C19.9066 37.0202 19.8359 36.8538 19.8319 36.6792C19.8319 36.5906 19.8494 36.5028 19.8833 36.421C19.9172 36.3391 19.967 36.2646 20.0297 36.2019C20.0923 36.1393 20.1667 36.0897 20.2485 36.0558C20.3304 36.0219 20.4181 36.0044 20.5067 36.0044ZM24.5509 36.0759C24.4829 35.5299 25.0504 35.0734 25.6572 35.2005C25.7897 35.2274 26.0528 35.1773 26.0152 35.4045C25.9884 35.5961 25.9079 35.8395 25.5731 35.7626C25.5255 35.7433 25.4737 35.736 25.4226 35.7413C25.3715 35.7465 25.3223 35.7642 25.2796 35.7928C25.2369 35.8214 25.2019 35.8601 25.1775 35.9054C25.1531 35.9507 25.1403 36.0012 25.1399 36.0526C25.1238 36.3158 25.2813 36.4393 25.5284 36.4572C25.6511 36.467 25.7744 36.467 25.8971 36.4572C26.1029 36.4393 26.2212 36.4572 26.2212 36.7329C26.2212 37.0085 26.069 36.9747 25.9007 36.9729C25.7325 36.9711 25.5373 36.971 25.3583 36.971C25.1908 36.9584 25.0226 36.9584 24.8551 36.971C24.5347 37.0193 24.4525 36.8188 24.5509 36.6129C24.6493 36.4071 24.5653 36.2549 24.5509 36.0759ZM54.1838 35.5012C54.3644 35.5003 54.538 35.5711 54.6665 35.6979C54.795 35.8248 54.8681 35.9974 54.8695 36.178C54.869 36.2672 54.8509 36.3554 54.8162 36.4376C54.7814 36.5197 54.7306 36.5942 54.6669 36.6566C54.6031 36.7191 54.5275 36.7683 54.4447 36.8014C54.3618 36.8344 54.2731 36.8507 54.1838 36.8493C54.0111 36.8404 53.8484 36.7654 53.7293 36.64C53.6102 36.5146 53.5438 36.3483 53.5438 36.1753C53.5438 36.0024 53.6102 35.8359 53.7293 35.7105C53.8484 35.5851 54.0111 35.5101 54.1838 35.5012ZM85.0127 35.3491C85.102 35.3462 85.191 35.3615 85.2742 35.3941C85.3573 35.4266 85.4329 35.4758 85.4964 35.5386C85.5599 35.6015 85.61 35.6766 85.6434 35.7594C85.6769 35.8423 85.6932 35.9311 85.6912 36.0204C85.6943 36.1118 85.679 36.2029 85.6459 36.2881C85.6128 36.3733 85.5627 36.4509 85.4987 36.5162C85.4347 36.5815 85.3581 36.6332 85.2735 36.668C85.189 36.7028 85.0983 36.72 85.0069 36.7187C84.9155 36.7174 84.8252 36.6976 84.7417 36.6603C84.6582 36.623 84.5831 36.5691 84.5211 36.5019C84.459 36.4348 84.4113 36.3557 84.3807 36.2696C84.3501 36.1834 84.3374 36.0919 84.3433 36.0007C84.3466 35.8258 84.4186 35.6592 84.544 35.5372C84.6693 35.4152 84.8378 35.3477 85.0127 35.3491ZM86.631 35.3491C86.8055 35.3537 86.9715 35.4256 87.0943 35.5496C87.2171 35.6737 87.2872 35.8405 87.2899 36.015C87.2854 36.1956 87.2113 36.3674 87.0833 36.4947C86.9552 36.6221 86.7829 36.6953 86.6023 36.6989C86.5131 36.6973 86.425 36.678 86.3433 36.6423C86.2615 36.6066 86.1875 36.5551 86.1256 36.4907C86.0638 36.4264 86.0152 36.3504 85.9828 36.2673C85.9503 36.1841 85.9345 36.0954 85.9364 36.0061C85.9366 35.9167 85.9549 35.8281 85.9903 35.746C86.0257 35.6638 86.0776 35.5898 86.1426 35.5283C86.2076 35.4668 86.2844 35.4193 86.3684 35.3885C86.4524 35.3577 86.5417 35.3443 86.631 35.3491ZM124.757 35.3491C124.846 35.3467 124.935 35.3624 125.018 35.3955C125.101 35.4285 125.177 35.4781 125.24 35.5413C125.303 35.6044 125.353 35.6798 125.386 35.7628C125.42 35.8457 125.436 35.9346 125.433 36.0239C125.431 36.2044 125.357 36.3765 125.229 36.503C125.1 36.6294 124.926 36.6999 124.746 36.6989C124.572 36.6909 124.407 36.6176 124.284 36.4935C124.161 36.3695 124.09 36.2038 124.084 36.0294C124.082 35.9401 124.098 35.8514 124.131 35.7685C124.164 35.6856 124.213 35.6101 124.276 35.5467C124.339 35.4832 124.414 35.4329 124.496 35.399C124.579 35.365 124.668 35.3481 124.757 35.3491ZM126.368 35.3491C126.543 35.3519 126.71 35.4226 126.833 35.5462C126.957 35.6698 127.027 35.8367 127.03 36.0115C127.027 36.1916 126.955 36.3636 126.828 36.4916C126.701 36.6196 126.53 36.6939 126.35 36.6989C126.261 36.698 126.172 36.6794 126.09 36.6442C126.008 36.609 125.934 36.5579 125.871 36.4939C125.809 36.4298 125.76 36.3541 125.727 36.271C125.694 36.1879 125.677 36.099 125.679 36.0096C125.678 35.9203 125.696 35.8318 125.731 35.7495C125.765 35.6672 125.817 35.5928 125.881 35.5309C125.946 35.4691 126.022 35.4211 126.106 35.3899C126.189 35.3586 126.279 35.3447 126.368 35.3491Z" fill="#263C90"/>
</svg>
