<svg width="18" height="18" viewBox="0 0 18 18" fill="none" xmlns="http://www.w3.org/2000/svg">
<path d="M8.47266 0.302277C8.9138 -0.101224 9.09503 -0.100258 9.54004 0.302277C10.038 0.757584 10.5951 0.803221 11.1943 0.559113C11.7262 0.341919 11.9046 0.377268 12.1836 0.861847C12.5263 1.45744 13.0177 1.71174 13.7021 1.65189C14.2919 1.60073 14.44 1.70762 14.5664 2.29935C14.7083 2.96316 15.1114 3.33971 15.7568 3.45755C16.2278 3.54248 16.4201 3.79135 16.3584 4.26224C16.2619 4.98316 16.5517 5.50549 17.1914 5.84818C17.5774 6.05566 17.6926 6.35516 17.4814 6.77103C17.1629 7.39944 17.2392 7.98691 17.7393 8.49466C18.0692 8.83049 18.0906 9.15693 17.7549 9.49759C17.2394 10.0208 17.1601 10.6155 17.4893 11.2622C17.6889 11.656 17.5854 11.954 17.2139 12.149C16.5536 12.4984 16.2532 13.0287 16.3604 13.7691C16.4269 14.2304 16.2099 14.4935 15.7881 14.5572C15.067 14.6672 14.7013 15.0954 14.5439 15.7749C14.4185 16.3155 14.2358 16.4246 13.6904 16.3599C13.0507 16.2837 12.5693 16.5258 12.2314 17.0738C11.8811 17.6442 11.7563 17.6849 11.1455 17.4312C10.5345 17.1773 10.0227 17.2809 9.54102 17.7066C9.09901 18.0974 8.90099 18.0982 8.46875 17.7066C7.97258 17.2606 7.43137 17.1765 6.82227 17.4458C6.30208 17.6765 6.0984 17.622 5.8291 17.1558C5.46616 16.5295 4.95523 16.2481 4.22656 16.3716C3.83481 16.4381 3.56359 16.2749 3.4873 15.8687C3.34736 15.1294 2.9642 14.6584 2.17871 14.5415C1.77042 14.4807 1.58671 14.1995 1.64844 13.7691C1.75171 13.0529 1.48058 12.5141 0.839844 12.1724C0.421867 11.9494 0.324754 11.6488 0.538086 11.2154C0.837187 10.6054 0.756103 10.0413 0.291016 9.52689C-0.104759 9.08863 -0.094915 8.91513 0.307617 8.4595C0.75347 7.95855 0.819123 7.41043 0.552734 6.80814C0.328843 6.29955 0.382875 6.08713 0.860352 5.81888C1.48104 5.4704 1.74018 4.94946 1.65137 4.2554C1.59071 3.78265 1.78492 3.53759 2.25586 3.45267C2.90147 3.33678 3.30438 2.95653 3.44531 2.29446C3.5737 1.70273 3.70877 1.62394 4.36035 1.65579C5.00403 1.71744 5.47265 1.45781 5.80176 0.902863C6.11729 0.373161 6.26655 0.338277 6.81934 0.563019C7.41861 0.806205 7.97756 0.756564 8.47266 0.302277ZM8.99121 1.87161C7.09736 1.87953 5.28353 2.63795 3.94824 3.98099C2.61301 5.32401 1.86516 7.14186 1.86816 9.03568C1.87465 10.445 2.29813 11.8212 3.08594 12.9898C3.87387 14.1584 4.99077 15.0676 6.29492 15.6021C7.59913 16.1366 9.03259 16.2723 10.4141 15.9927C11.7953 15.7131 13.063 15.0311 14.0566 14.0318C15.0503 13.0323 15.7255 11.7604 15.9971 10.3775C16.2686 8.9944 16.1251 7.56136 15.583 6.26028C15.041 4.95927 14.1253 3.84808 12.9521 3.06693C11.779 2.28584 10.4006 1.86998 8.99121 1.87161Z" fill="#36937B"/>
<path d="M8.97852 2.69543C10.6568 2.69119 12.2686 3.3541 13.459 4.53723C14.6492 5.72042 15.3213 7.32773 15.3271 9.00598C15.3298 10.2562 14.9617 11.4795 14.2695 12.5206C13.5774 13.5617 12.5922 14.3742 11.4385 14.8556C10.2847 15.337 9.01398 15.4652 7.78711 15.2247C6.56023 14.9843 5.43165 14.3863 4.54492 13.505C3.65821 12.6237 3.05261 11.4989 2.80469 10.2736C2.55679 9.04825 2.67804 7.7769 3.15234 6.62024C3.62672 5.46351 4.43379 4.47301 5.4707 3.77454C6.50754 3.07621 7.72845 2.7004 8.97852 2.69543ZM8.99512 4.28723C8.61598 4.2921 8.54249 4.61059 8.50098 4.94055C8.39383 5.79775 8.2637 6.66153 7.84766 7.43958C7.47027 8.14593 7.01363 8.21795 6.43457 7.65442C6.15656 7.38799 5.9277 7.07487 5.67383 6.78528C5.53291 6.62415 5.36186 6.55521 5.16016 6.67102C5.0733 6.71601 5.00526 6.79082 4.96973 6.88196C4.93423 6.97307 4.93333 7.07426 4.9668 7.16614C5.39632 8.74043 5.83118 10.3175 6.25781 11.8956C6.33792 12.1919 6.50949 12.3086 6.81348 12.3038C7.53739 12.2961 8.26144 12.3038 8.98535 12.3038C9.69292 12.3048 10.4018 12.2855 11.1074 12.3077C11.4991 12.3231 11.6925 12.1645 11.7891 11.799C12.1977 10.2641 12.6097 8.73032 13.0254 7.19934C13.0861 6.96788 13.0597 6.78862 12.832 6.66321C12.6043 6.53786 12.4367 6.65263 12.29 6.82727C12.0844 7.07825 11.887 7.32996 11.6641 7.56067C10.9961 8.25567 10.4923 8.17935 10.0811 7.30286C9.72982 6.55396 9.58684 5.74528 9.49707 4.92981C9.46135 4.59774 9.37448 4.2824 8.99512 4.28723Z" fill="#48BEA0"/>
<path d="M6.19238 8.57823C7.35075 9.03096 8.2147 9.02324 9.00721 6.80978C9.26591 7.43627 9.44064 8.06469 9.94163 8.4846C10.5083 8.96146 11.1251 8.87555 11.8249 8.5512C11.5653 9.50879 11.323 10.3959 11.0855 11.284C11.0382 11.4597 10.9272 11.4944 10.7631 11.4935C9.59026 11.4886 8.41741 11.4829 7.24457 11.4935C6.97332 11.4935 6.93181 11.3294 6.88161 11.1421L6.19238 8.57823Z" fill="#36937B"/>
</svg>
