<svg width="69" height="86" viewBox="0 0 69 86" fill="none" xmlns="http://www.w3.org/2000/svg">
<path opacity="0.5" fill-rule="evenodd" clip-rule="evenodd" d="M119 87C115.349 81.4086 106.012 74.1321 84.4069 65.8735C40.261 48.9986 43.7925 40.9398 49.7651 27.3103C50.5047 25.6227 51.2818 23.8498 52.0067 21.9748C52.0955 21.745 52.1862 21.5162 52.2784 21.2882L52.4473 20.9351C52.6612 20.5036 52.8698 20.075 53.0715 19.6493C53.2855 19.2178 53.4943 18.7893 53.6957 18.3636C53.9096 17.9321 54.1185 17.5035 54.3199 17.0778C54.5339 16.6463 54.7427 16.2177 54.9441 15.7921C55.158 15.3605 55.3666 14.932 55.5683 14.5063C55.7824 14.0747 55.9908 13.6462 56.1925 13.2206C56.4067 12.789 56.615 12.3605 56.8167 11.9348C57.0305 11.5032 57.2395 11.0748 57.4409 10.6491C63.1252 -0.813967 65.0225 -10.1406 32.105 -20.5561C16.1301 -25.6108 6.48398 -32.3189 0.863759 -38.9421C0.56423 -39.295 0.277417 -39.6477 0.000396949 -40L0.000397045 -39.5966C0.183335 -39.3703 0.370091 -39.1439 0.562352 -38.9173C6.19477 -32.2798 15.8647 -25.5564 31.8831 -20.4879C58.2105 -12.1576 62.1936 -4.52016 59.8107 4.08128C61.4362 -4.0224 56.576 -11.3299 31.4808 -19.2704C15.5059 -24.3251 5.85983 -31.0331 0.239702 -37.6564C0.158616 -37.7518 0.0795058 -37.8471 0.000397438 -37.9424L0.000397529 -37.5591C5.64153 -30.9451 15.299 -24.2522 31.2589 -19.2022C57.5863 -10.8718 61.5695 -3.23443 59.1866 5.36704C60.812 -2.73667 55.9517 -10.0443 30.8566 -17.9847C15.24 -22.926 5.67204 -29.4473 0.000259963 -35.925L0.00026005 -35.56C5.71993 -29.1804 15.2481 -22.7849 30.6345 -17.9164C56.962 -9.58605 60.9452 -1.94867 58.5622 6.6528C60.1876 -1.45098 55.3274 -8.75853 30.2323 -16.6989C15.1749 -21.4633 5.74089 -27.6966 0.000260434 -33.9432L0.000260517 -33.594C5.78025 -27.4419 15.1708 -21.3261 30.0104 -16.6307C56.3375 -8.30032 60.3209 -0.662904 57.938 7.93854C59.5638 -0.165248 54.7032 -7.47275 29.6081 -15.4131C15.0842 -20.0087 5.79207 -25.9707 0.000260897 -31.9934L0.000260976 -31.6584C5.82428 -25.7272 15.0692 -19.875 29.3862 -15.3449C55.7136 -7.01459 59.6964 0.622829 57.3139 9.2243C58.9393 1.12048 54.079 -6.18693 28.9839 -14.1274C14.971 -18.5612 5.82805 -24.2674 0.000261353 -30.0725L0.000261429 -29.7502C5.85376 -24.0333 14.946 -18.4307 28.762 -14.0592C55.0894 -5.72881 59.0722 1.90858 56.6896 10.51C58.3151 2.40626 53.4545 -4.90119 28.3598 -12.8416C14.8372 -17.1203 5.84999 -22.5838 0.000261803 -28.1775L0.000261877 -27.8671C5.86911 -22.3586 14.8037 -16.9925 28.1378 -12.7734C54.4652 -4.44306 58.4484 3.19443 56.0654 11.7958C57.6912 3.69201 52.8306 -3.61551 27.7356 -11.5559C14.6848 -15.6853 5.8587 -20.9184 0.000216263 -26.3069L0.000216334 -26.0068C5.87245 -20.7007 14.6433 -15.56 27.5135 -11.4877C53.8413 -3.15724 57.8241 4.48007 55.4412 13.0815C57.067 4.97772 52.206 -2.3298 27.1114 -10.2702C14.516 -14.2555 5.85555 -19.2687 0.000170717 -24.4577L0.000170786 -24.1672C5.86426 -19.0581 14.4675 -14.1324 26.8893 -10.2019C53.2171 -1.8716 57.1996 5.76581 54.817 14.3673C56.4428 6.2635 51.5822 -1.04405 26.4872 -8.9844C14.3321 -12.8304 5.84143 -17.6337 0.000171151 -22.6286L0.000171218 -22.3467C5.84514 -17.4294 14.2774 -12.7093 26.2651 -8.9162C52.5929 -0.585839 56.5754 7.05165 54.1928 15.653C55.8186 7.54913 50.958 0.241725 25.863 -7.69867C14.1344 -11.4097 5.81736 -16.0121 0.000171582 -20.8176L0.000171646 -20.5448C5.8167 -15.8141 14.0732 -11.2907 25.6409 -7.63047C51.9684 0.699894 55.9515 8.3373 53.5686 16.9388C55.1941 8.83496 50.3336 1.52744 25.2388 -6.41294C13.923 -9.9934 5.7836 -14.4035 0.000172007 -19.0254L0.00017207 -18.7597C5.77866 -14.2105 13.8564 -9.87596 25.0167 -6.34469C51.3442 1.98564 55.3273 9.62305 52.9444 18.2245C54.5701 10.1207 49.7096 2.81319 24.6146 -5.12716C13.7 -8.58067 5.74047 -12.806 0.000172429 -17.2487L0.000172491 -16.9898C5.73199 -12.6177 13.6291 -8.46472 24.3925 -5.05896C50.72 3.2714 54.7031 10.9088 52.3202 19.5103C53.9454 11.4065 49.0852 4.09885 23.9904 -3.84143C13.4661 -7.17139 5.68914 -11.2189 0.000126863 -15.4871L0.000126923 -15.2358C5.67723 -11.0359 13.3898 -7.05718 23.7683 -3.77322C50.0958 4.55714 54.0789 12.1945 51.696 20.796C53.3216 12.6922 48.4613 5.38468 23.3662 -2.5557C13.2216 -5.76557 5.63033 -9.64231 0.000127278 -13.7405L0.000127336 -13.4945C5.61432 -9.4628 13.1415 -5.65242 23.1441 -2.48745C49.4716 5.84288 53.4547 13.4803 51.0718 22.0818C52.6974 13.978 47.8371 6.67043 22.742 -1.26992C12.9679 -4.36259 5.56309 -8.07436 0.000127689 -12.0067L0.000127746 -11.7677C5.54458 -7.89951 12.8828 -4.251 22.5199 -1.20172C48.8474 7.12864 52.8305 14.766 50.4476 23.3675C52.0732 15.2637 47.2128 7.95616 22.1178 0.0158113C12.7046 -2.96263 5.48954 -6.51524 8.21134e-05 -10.2862L8.2169e-05 -10.052C5.46769 -6.34346 12.6164 -2.85213 21.8956 0.0840136C48.2231 8.41437 52.2062 16.0518 49.8233 24.6533C51.4489 16.5494 46.5886 9.24192 21.4935 1.30156C12.4328 -1.56528 5.40883 -4.96414 3.65345e-05 -8.57765L3.65888e-05 -8.34914C5.38477 -4.79624 12.3409 -1.45597 21.2715 1.36976C47.5989 9.70012 51.582 17.3375 49.1991 25.939C50.8247 17.8352 45.9644 10.5277 20.8693 2.58732C12.1536 -0.170513 5.32191 -3.42055 3.69376e-05 -6.88031L3.69906e-05 -6.65702C5.29497 -3.25594 12.0578 -0.0622519 20.6473 2.65552C46.9747 10.9859 50.9579 18.6233 48.5749 27.2247C50.2005 19.1209 45.3403 11.8134 20.2451 3.87305C11.8662 1.22175 5.229 -1.88436 3.7338e-05 -5.19451L3.73901e-05 -4.97504C5.19934 -1.72221 11.768 1.32923 20.0231 3.94127C46.3506 12.2716 50.3336 19.909 47.9507 28.5105C49.5763 20.4067 44.716 13.0992 19.6209 5.1588C11.5718 2.61197 5.13012 -0.354668 3.77359e-05 -3.51868L3.77868e-05 -3.30437C5.09796 -0.195944 11.4706 2.71837 19.3989 5.227C45.7264 13.5574 49.7094 21.1948 47.3265 29.7962C48.9518 21.6924 44.0915 14.3849 18.9967 6.44453C11.271 4.00002 5.02577 1.16892 3.81317e-05 -1.85239L3.81814e-05 -1.64295C4.9914 1.32455 11.1666 4.10539 18.7748 6.51277C45.1023 14.8431 49.085 22.4805 46.7024 31.082C48.3276 22.9782 43.4674 15.6707 18.3726 7.73029C10.9634 5.38586 4.91624 2.68563 3.85249e-05 -0.196709L3.85739e-05 0.00966405C4.8797 2.83952 10.8566 5.49061 18.1506 7.79851C44.478 16.1289 48.4608 23.7663 46.0783 32.3677C47.7037 24.264 42.8434 16.9565 17.7483 9.01603C10.6497 6.76984 4.80116 4.19697 3.8916e-05 1.45038L3.89642e-05 1.65324C4.76278 4.34871 10.5406 6.87391 17.5264 9.08424C46.32 18.1949 48.3889 26.4766 44.6315 36.097C44.4395 36.4863 44.2495 36.8782 44.0618 37.2728C43.8514 37.6982 43.643 38.1268 43.4376 38.5586C43.2275 38.984 43.0189 39.4126 42.8134 39.8443C42.6033 40.2697 42.3947 40.6983 42.1892 41.1301C41.9788 41.5554 41.7704 41.984 41.565 42.4159C41.3546 42.8412 41.1462 43.2698 40.9408 43.7016C40.7304 44.127 40.5221 44.5555 40.3166 44.9873C40.1062 45.4127 39.8978 45.8412 39.6924 46.2731C38.8516 47.9739 38.0397 49.7255 37.3399 51.5355C36.6103 53.423 35.8363 55.189 35.0996 56.8696C30.214 68.0183 26.9642 75.4476 50.0031 87L50.3724 87C32.8017 78.2071 30.4792 71.8081 32.5258 64.3429C31.0333 71.6272 34.4332 78.0625 53.263 87L53.6375 87C33.6567 77.5341 31.0052 70.8815 33.15 63.0572C31.5865 70.6861 35.3911 77.3838 56.6652 87L57.0443 87C34.5276 76.8403 31.5333 69.9452 33.7742 61.7714C32.1419 69.736 36.3557 76.6849 60.1956 87L60.5837 87C35.4119 76.1264 32.0643 68.9996 34.3984 60.4857C32.6991 68.7768 37.3392 75.9674 63.8537 87L64.244 87C36.3045 75.3928 32.5977 68.0448 35.0226 59.1999C33.2583 67.8087 38.3287 75.2313 67.6245 87L68.0185 87C37.2057 74.6402 33.1335 67.0814 35.6468 57.9142C33.819 66.8323 39.3256 74.4775 71.5009 87L71.8993 87C38.1147 73.8698 33.6717 66.1093 36.271 56.6284C34.405 65.7333 40.1787 73.5105 74.1775 86.5067C74.609 86.6716 75.0325 86.8359 75.454 87L75.8552 87C75.3827 86.8157 74.9043 86.6309 74.4196 86.4455C38.9023 72.869 34.248 64.9984 36.8952 55.3427C35.0292 64.4476 40.8029 72.2247 74.8017 85.221C76.3669 85.8192 77.8673 86.4124 79.3058 87L79.6948 87C78.21 86.3922 76.6633 85.7789 75.0438 85.1598C39.5264 71.5832 34.8722 63.7126 37.5193 54.057C35.6533 63.1618 41.4271 70.939 75.4259 83.9352C78.1405 84.973 80.6586 85.9948 82.9983 87L83.3823 87C81.0019 85.975 78.4377 84.9328 75.6679 83.874C40.1506 70.2975 35.4964 62.4269 38.1435 52.7712C36.2775 61.8761 42.0512 69.6533 76.05 82.6495C79.9311 84.133 83.4111 85.5842 86.537 87L86.9186 87C83.7569 85.5648 80.2282 84.0929 76.292 82.5883C40.7747 69.0117 36.1205 61.1411 38.7677 51.4854C36.9017 60.5904 42.6754 68.3675 76.6742 81.3637C81.7396 83.2999 86.1251 85.1814 89.9244 87L90.2956 87C86.4654 85.1621 82.0374 83.2601 76.9162 81.3025C41.3989 67.726 36.7447 59.8554 39.3919 50.1997C37.5259 59.3046 43.2996 67.0817 77.2984 80.0779C83.5672 82.4742 88.8005 84.7872 93.1614 87L93.525 87C89.1376 84.7681 83.8658 82.4346 77.5404 80.0167C42.0231 66.4402 37.3689 58.5696 40.0161 48.9139C38.1501 58.0188 43.9238 65.796 77.9226 78.7922C85.4169 81.6569 91.4286 84.4023 96.241 86.9999L96.5998 86.9999C91.7648 84.3835 85.7159 81.6174 78.1646 78.731C42.6473 65.1544 37.9931 57.2838 40.6403 47.6282C38.7743 56.7331 44.548 64.5102 78.5468 77.5064C87.2895 80.8483 94.0161 84.028 99.1716 86.9999L99.5258 86.9999C94.3519 84.0095 87.5884 80.8089 78.7888 77.4452C43.2715 63.8687 38.6173 55.9981 41.2645 46.3424C39.3985 55.4473 45.1722 63.2245 79.171 76.2207C89.1874 80.0495 96.5603 83.6658 101.952 86.9999L102.298 86.9999C96.8909 83.6474 89.4873 80.0104 79.413 76.1595C43.8958 62.5829 39.2416 54.7123 41.8887 45.0567C40.0227 54.1615 45.7965 61.9387 79.7952 74.9349C91.1141 79.2616 99.0562 83.3167 104.578 86.9999L104.921 86.9999C99.3871 83.2985 91.4137 79.2224 80.0372 74.8737C44.5199 61.2972 39.8657 53.4266 42.5129 43.7709C40.6469 52.8758 46.4206 60.6529 80.4194 73.6492C93.071 78.4853 101.506 82.9824 107.056 86.9999L107.392 86.9999C101.834 82.9645 93.3714 78.4463 80.6615 73.588C45.1441 60.0114 40.4899 52.1408 43.1372 42.4852C41.2711 51.59 47.0448 59.3672 81.0437 72.3634C95.0628 77.7223 103.905 82.665 109.379 86.9999L109.711 86.9999C104.23 82.6471 95.3633 77.6834 81.2857 72.3022C45.7683 58.7257 41.1141 50.8551 43.7613 41.1994C41.8953 50.3043 47.669 58.0814 81.6678 71.0776C97.0934 76.9741 106.251 82.3665 111.55 86.9999L111.878 86.9999C106.574 82.3489 97.3938 76.9353 81.9099 71.0165C46.3925 57.4399 41.7383 49.5693 44.3855 39.9136C42.5194 49.0185 48.2932 56.7957 82.292 69.7919C99.1669 76.2424 108.542 82.0897 113.569 86.9999L113.893 86.9999C108.862 82.0722 99.4662 76.203 82.534 69.7307C47.017 56.154 42.3621 48.2838 45.0097 38.6279C43.1436 47.7328 48.9174 55.5099 82.9162 68.5062C101.29 75.5295 110.772 81.8378 115.431 86.9999L115.751 86.9999C111.09 81.8205 101.589 75.4903 83.1582 68.4449C47.6412 54.8684 42.9863 46.9979 45.6338 37.3421C43.7678 46.447 49.5415 54.2242 83.5403 67.2204C103.469 74.8384 112.938 81.6149 117.137 86.9999L117.453 86.9999C113.254 81.5976 103.768 74.7988 83.7823 67.1592C48.2649 53.5826 43.6107 45.712 46.2579 36.0564C44.3919 45.1612 50.1653 52.9384 84.1644 65.9346C105.714 74.1721 115.035 81.4261 118.684 87L119 87Z" fill="#45C2B1"/>
</svg>
