<svg width="1280" height="340" viewBox="0 0 1280 340" fill="none" xmlns="http://www.w3.org/2000/svg">
<path d="M947.963 79.8583C940.575 79.8583 933.247 80.6696 925.521 82.1097C858.761 94.5712 829.018 155.659 800.255 214.731C775.53 265.51 749.964 318.019 701.073 341.522C651.766 365.223 584.904 353.507 522.227 310.171C498.833 293.997 476.927 274.957 455.742 256.547C429.413 233.663 402.187 210.002 371.86 191.624C322.857 161.93 245.879 141.614 190.197 182.079C158.316 205.251 141.299 243.295 124.841 280.089C103.936 326.827 84.1909 370.975 36.6575 387.685C14.1746 395.585 -14.8174 389.129 -33.8495 371.965C-48.0271 359.184 -53.7096 343.258 -49.852 327.116L-52.0795 326.586C-56.0825 343.332 -49.9967 360.493 -35.3829 373.667C-15.7541 391.359 14.1811 398.018 37.4173 389.844C85.8798 372.809 106.749 326.147 126.932 281.025C143.266 244.505 160.156 206.742 191.543 183.933C246.317 144.118 322.272 164.249 370.673 193.579C400.833 211.859 427.983 235.455 454.24 258.276C475.472 276.728 497.427 295.809 520.924 312.054C584.287 355.862 652.004 367.653 702.065 343.585C751.674 319.736 777.418 266.866 802.314 215.735C832.141 154.475 860.315 96.61 925.941 84.3604C982.023 73.9117 1017.3 97.451 1213.05 228.188C1252.1 254.268 1296.36 283.828 1348.74 318.442L1350 316.533C1297.63 281.919 1253.37 252.362 1214.32 226.282C1044.54 112.892 995.074 79.8583 947.963 79.8583Z" fill="#45C2B1"/>
<path d="M954.408 85.903C946.656 85.9001 938.982 86.744 930.895 88.1932C898.064 94.1539 870.919 112.254 847.905 143.526C832.747 164.119 820.386 188.908 808.432 212.879C803.852 222.067 799.115 231.564 794.267 240.746C772.318 282.326 745.954 323.327 702.036 341.627C695.131 344.52 687.87 346.762 680.451 348.295C634.761 357.682 578.988 340.989 527.451 302.501C506.893 287.15 487.382 269.831 468.513 253.085C440.168 227.923 410.859 201.909 377.9 182.598C333.204 156.444 265.859 138.823 210.888 167.799C205.595 170.566 200.466 173.766 195.645 177.302C164.336 200.296 146.63 236.938 129.507 272.372C121.79 288.343 113.81 304.857 104.764 319.63C85.3481 351.42 64.4668 369.499 37.056 378.251C14.506 385.423 -14.5284 378.54 -33.5457 361.52C-47.8425 348.722 -53.9346 332.765 -50.7007 316.594L-52.9459 316.147C-56.3463 333.144 -49.9982 349.864 -35.0732 363.226C-15.4811 380.765 14.4632 387.832 37.7516 380.434C65.7259 371.5 86.995 353.117 106.718 320.826C115.823 305.958 123.828 289.39 131.569 273.368C148.571 238.188 166.15 201.805 197.001 179.151C201.728 175.68 206.758 172.543 211.953 169.827C266.097 141.281 332.579 158.731 376.742 184.573C409.507 203.77 438.731 229.71 466.993 254.797C485.898 271.576 505.446 288.928 526.082 304.339C578.143 343.211 634.578 360.05 680.915 350.538C688.478 348.975 695.881 346.688 702.921 343.739C747.503 325.164 774.145 283.775 796.292 241.814C801.153 232.612 805.896 223.099 810.483 213.903C822.394 190.018 834.709 165.318 849.751 144.886C872.715 113.677 898.629 96.3821 931.303 90.4479C985.39 80.7445 1021.33 98.7703 1187.63 218.96C1207.23 233.121 1228.6 248.961 1251.23 265.735C1278.74 286.122 1309.91 309.226 1344.23 334.006L1345.57 332.151C1311.26 307.38 1280.1 284.276 1252.6 263.895C1229.96 247.119 1208.58 231.273 1188.98 217.106C1046.58 114.202 999.296 85.9059 954.408 85.903Z" fill="#45C2B1"/>
<path d="M959.136 92.174C951.543 92.174 944.021 92.9225 936.266 94.2763C902.992 100.073 875.566 118.114 852.422 149.43C838.315 168.508 826.77 191.293 815.606 213.324C809.964 224.462 804.128 235.978 797.995 246.969C778.239 282.409 749.59 325.209 703.001 341.728C696.056 344.192 688.857 345.996 681.602 347.093C636.545 353.793 582.255 334.736 532.673 294.832C515.05 280.65 498.106 265.215 481.719 250.29C451.245 222.532 419.733 193.827 383.937 173.571C339.546 148.511 272.205 132.54 216.332 162.843C210.921 165.78 205.794 169.039 201.092 172.528C170.404 195.295 152.089 230.52 134.378 264.586C125.817 281.052 116.964 298.079 106.935 313.117C86.937 343.243 64.8595 360.944 37.4528 368.819C14.477 375.365 -13.9231 368.235 -33.2236 351.089C-47.6507 338.269 -54.1605 322.28 -51.5526 306.068L-53.8138 305.704C-56.5504 322.719 -49.7777 339.444 -34.7442 352.8C-14.8801 370.45 14.3845 377.783 38.0827 371.02C66.0444 362.986 88.5272 344.991 108.842 314.384C118.939 299.245 127.82 282.164 136.409 265.642C154.002 231.809 172.192 196.819 202.457 174.364C207.073 170.941 212.108 167.742 217.424 164.858C272.475 134.994 338.954 150.81 382.81 175.563C418.382 195.694 448.398 223.035 480.177 251.981C496.589 266.932 513.56 282.391 531.237 296.614C581.317 336.918 636.25 356.128 681.941 349.359C689.343 348.24 696.684 346.397 703.766 343.887C751.077 327.11 780.044 283.875 799.995 248.083C806.15 237.053 811.996 225.516 817.649 214.358C828.771 192.411 840.27 169.715 854.263 150.789C877.041 119.971 903.993 102.222 936.659 96.5299C993.873 86.5792 1039.07 110.086 1191.15 229.044C1211.74 245.149 1233.84 263.354 1257.24 282.629C1281.71 302.787 1309.46 325.638 1339.72 349.565L1341.14 347.769C1310.89 323.857 1283.16 301.013 1258.69 280.861C1235.28 261.576 1213.17 243.366 1192.56 227.243C1060.23 123.731 1008.38 92.1798 959.136 92.174Z" fill="#45C2B1"/>
<path d="M965.219 98.2395C957.345 98.2395 949.59 99.0178 941.636 100.357C907.873 106.046 880.168 124.03 856.936 155.335C843.603 173.292 832.682 194.604 822.119 215.212C815.648 227.84 808.955 240.901 801.721 253.19C772.614 302.728 741.553 330.896 703.969 341.836C696.939 343.882 689.802 345.251 682.757 345.901C622.183 351.456 565.998 311.486 537.892 287.162C523.334 274.561 509.16 261.241 495.452 248.359C461.205 216.174 428.856 185.774 389.972 164.545C345.82 140.532 278.45 126.174 221.773 157.89C216.334 160.934 211.209 164.253 206.538 167.751C176.522 190.247 157.685 224.044 139.469 256.732C129.996 273.729 120.202 291.301 109.107 306.608C88.2877 335.511 65.646 352.282 37.8497 359.388C14.8239 365.191 -13.6012 357.67 -32.8832 340.676C-47.4506 327.836 -54.3844 311.808 -52.4064 295.541L-54.6803 295.267C-56.7522 312.303 -49.5486 329.04 -34.3973 342.394C-14.5749 359.868 14.6876 367.594 38.4126 361.606C66.7626 354.36 89.8142 337.309 110.963 307.946C122.136 292.536 131.965 274.9 141.469 257.847C159.569 225.371 178.285 191.785 207.911 169.582C212.5 166.147 217.541 162.884 222.891 159.888C278.755 128.628 345.263 142.837 388.876 166.555C427.501 187.643 459.747 217.946 493.884 250.029C507.609 262.925 521.8 276.26 536.394 288.892C564.775 313.46 621.545 353.832 682.967 348.179C690.158 347.517 697.439 346.121 704.609 344.037C742.789 332.92 774.273 304.422 803.695 254.352C810.962 242.004 817.67 228.914 824.157 216.258C834.677 195.731 845.555 174.505 858.775 156.7C881.637 125.891 908.865 108.202 942.016 102.617C998.229 93.1405 1044.84 112.35 1194.66 239.13C1215.61 256.86 1237.58 276.982 1260.83 298.288C1284.02 319.537 1308 341.505 1335.21 365.122L1336.71 363.393C1309.52 339.796 1285.55 317.837 1262.38 296.6C1239.11 275.279 1217.13 255.14 1196.14 237.382C1066.64 127.796 1013.75 98.2424 965.219 98.2395Z" fill="#45C2B1"/>
<path d="M971.159 104.34C963.069 104.34 955.116 105.119 947.007 106.44C912.754 112.019 884.769 129.943 861.451 161.242C848.71 178.328 838.28 198.516 828.193 218.041C821.049 231.865 813.663 246.161 805.449 259.413C776.541 306.146 743.665 333.144 704.941 341.949C697.864 343.554 690.789 344.481 683.915 344.705C639.927 346.148 589.899 322.978 543.111 279.496C531.779 268.964 520.612 258.07 509.813 247.535C473.025 211.648 438.278 177.752 396.009 155.516C339.132 125.745 276.032 124.784 227.215 152.934C221.662 156.139 216.68 159.422 211.985 162.974C182.695 185.141 163.43 217.504 144.799 248.803C134.343 266.366 123.532 284.526 111.281 300.095C89.5996 327.868 66.3947 343.714 38.2488 349.955C15.2491 355.063 -13.1524 347.194 -32.4261 330.385C-47.209 317.491 -54.6084 301.38 -53.2622 285.012L-55.5448 284.827C-56.9522 301.934 -49.2761 318.729 -33.9312 332.112C-13.8277 349.646 14.699 357.532 38.7453 352.192C67.4381 345.828 91.0593 329.72 113.083 301.505C125.424 285.826 136.274 267.6 146.766 249.974C165.285 218.864 184.434 186.698 213.366 164.799C217.985 161.307 222.889 158.075 228.359 154.919C276.493 127.155 338.768 128.139 394.945 157.543C436.917 179.625 471.548 213.407 508.213 249.175C519.022 259.719 530.199 270.621 541.551 281.171C588.786 325.068 639.394 348.363 683.989 346.994C691.008 346.765 698.228 345.819 705.448 344.179C744.801 335.233 778.149 307.898 807.396 260.617C815.656 247.29 823.063 232.956 830.227 219.09C840.271 199.648 850.657 179.547 863.287 162.61C886.233 131.809 913.737 114.177 947.374 108.699C1004.49 99.4015 1054.25 117.481 1198.18 249.214C1219.31 268.557 1240.85 290.543 1263.64 313.817C1284.57 335.183 1306.21 357.273 1330.7 380.675L1332.28 379.017C1307.82 355.645 1286.2 333.567 1265.28 312.213C1242.46 288.918 1220.9 266.912 1199.72 247.526C1075.36 133.7 1020.8 104.343 971.159 104.34Z" fill="#45C2B1"/>
<path d="M976.38 110.528C968.319 110.525 960.395 111.261 952.378 112.523C918.118 117.911 889.046 136.289 865.968 167.146C853.684 183.552 843.647 202.866 833.94 221.542C826.243 236.351 818.283 251.666 809.179 265.633C780.417 309.858 745.676 335.571 705.917 342.06C698.824 343.22 691.816 343.712 685.075 343.515C629.928 341.941 580.273 303.662 548.329 271.827C540.421 263.945 532.644 256.016 524.924 248.147C485.397 207.846 448.064 169.785 402.046 146.49C345.491 118.037 282.169 118.597 232.659 147.981C227.086 151.288 222.106 154.631 217.433 158.197C188.829 180.061 169.162 211.079 150.143 241.077C138.163 259.97 126.848 277.817 113.455 293.586C90.8512 320.202 67.0805 335.118 38.6485 340.527C15.268 344.979 -12.4706 336.928 -32.0192 320.029C-46.9736 307.103 -54.822 290.929 -54.1177 274.487L-56.4064 274.391C-57.1405 291.546 -49.0121 308.367 -33.517 321.762C-13.46 339.099 15.0312 347.353 39.0764 342.776C68.0502 337.265 92.2391 322.105 115.201 295.071C128.697 279.177 140.582 260.433 152.077 242.303C170.989 212.475 190.545 181.632 218.824 160.017C223.424 156.504 228.332 153.212 233.828 149.95C282.662 120.968 345.161 120.441 401.014 148.536C446.693 171.658 483.899 209.591 523.289 249.749C531.016 257.627 538.799 265.562 546.713 273.449C578.951 305.577 629.113 344.211 685.01 345.806C691.888 345.984 699.049 345.501 706.286 344.321C746.708 337.725 781.973 311.672 811.099 266.883C820.264 252.823 828.249 237.457 835.973 222.598C845.637 204.003 855.63 184.776 867.803 168.518C890.51 138.156 919.086 120.08 952.735 114.784C1011.67 105.513 1066.36 125.31 1201.69 259.297C1222.92 280.307 1243.83 304.154 1265.97 329.402C1284.78 350.851 1304.23 373.028 1326.19 396.224L1327.85 394.65C1305.92 371.486 1286.49 349.325 1267.69 327.893C1245.52 302.613 1224.58 278.736 1203.31 257.669C1085.54 141.078 1028.35 110.531 976.38 110.528Z" fill="#45C2B1"/>
<path d="M981.295 116.733C973.359 116.73 965.562 117.416 957.748 118.602C923.002 123.889 893.642 142.207 870.484 173.046C858.565 188.904 848.85 207.517 839.456 225.516C831.288 241.165 822.842 257.345 812.908 271.856C783.829 314.44 748.161 338.099 706.894 342.178C699.779 342.882 692.828 342.93 686.235 342.33C632.501 337.422 584.419 297.11 553.544 264.156C549.314 259.641 545.114 255.13 540.933 250.642C498.434 204.998 458.291 161.885 408.081 137.466C351.85 110.313 288.308 112.394 238.103 143.024C232.508 146.439 227.528 149.838 222.88 153.419C195.109 174.851 175.208 204.419 155.964 233.016C142.8 252.578 130.365 271.053 115.631 287.075C92.2306 312.526 67.8952 326.515 39.0465 331.098C15.6555 334.816 -12.0689 326.413 -31.5885 309.693C-46.7253 296.731 -55.0317 280.485 -54.9781 263.956L-57.2683 263.95C-57.3241 281.162 -48.7341 298.025 -33.0787 311.431C-13.0699 328.572 15.3792 337.186 39.4059 333.358C68.7914 328.691 93.5478 314.476 117.317 288.626C132.168 272.476 144.649 253.928 157.864 234.295C177.006 205.851 196.801 176.437 224.278 155.232C228.859 151.705 233.771 148.35 239.295 144.981C288.836 114.756 351.56 112.716 407.081 139.527C456.906 163.758 496.907 206.718 539.257 252.202C543.439 256.692 547.64 261.207 551.873 265.725C583.018 298.964 631.575 339.635 686.027 344.609C692.763 345.226 699.858 345.172 707.119 344.456C749.091 340.308 785.32 316.316 814.798 273.15C824.808 258.526 833.287 242.284 841.486 226.575C850.838 208.659 860.508 190.132 872.314 174.424C895.1 144.077 923.96 126.06 958.092 120.868C1018.27 111.699 1077.99 133.076 1205.21 269.374C1226.46 292.141 1246.62 317.902 1267.96 345.178C1284.75 366.633 1302.11 388.815 1321.68 411.767L1323.42 410.282C1303.88 387.366 1286.54 365.201 1269.77 343.767C1248.39 316.45 1228.2 290.65 1206.88 267.812C1095.38 148.35 1035.25 116.733 981.295 116.733Z" fill="#45C2B1"/>
<path d="M337.035 111.312C304.269 111.309 271.917 120.296 243.546 138.072C237.908 141.602 232.929 145.062 228.326 148.643C201.45 169.579 181.431 197.69 162.072 224.876C147.633 245.153 133.995 264.303 117.809 280.569C93.6277 304.869 68.7273 317.93 39.4463 321.669C15.6988 324.699 -11.35 316.161 -31.1351 299.376C-46.4608 286.372 -55.2336 270.052 -55.8382 253.428L-58.127 253.511C-57.4985 270.789 -48.4384 287.696 -32.6173 301.121C-12.3557 318.312 15.3666 327.052 39.7371 323.941C69.5498 320.134 94.8731 306.864 119.433 282.186C135.752 265.785 149.443 246.561 163.937 226.206C183.201 199.154 203.121 171.18 229.733 150.45C234.274 146.917 239.19 143.502 244.763 140.01C295.015 108.53 357.964 104.984 413.151 130.516C467.67 155.952 510.73 205.124 556.318 257.182L557.036 258.002C600.873 308.06 644.615 336.797 687.045 343.411C693.637 344.442 700.671 344.833 707.951 344.589C750.78 343.127 789.006 320.59 818.499 279.416C829.306 264.366 838.207 247.366 846.814 230.924C855.908 213.554 865.313 195.594 876.827 180.332C899.693 150 928.838 132.04 963.452 126.953C1024.09 118.034 1089.01 140.559 1208.73 279.457C1229.96 304.091 1249.26 331.844 1269.68 361.225C1284.53 382.584 1299.88 404.671 1317.17 427.31L1318.99 425.92C1301.74 403.32 1286.4 381.257 1271.56 359.918C1251.1 330.486 1231.78 302.686 1210.46 277.96C1090.06 138.274 1024.51 115.654 963.118 124.686C927.887 129.862 898.239 148.121 874.998 178.954C863.371 194.362 853.923 212.408 844.785 229.861C836.214 246.232 827.351 263.161 816.637 278.079C787.573 318.657 749.964 340.864 707.873 342.298C700.736 342.546 693.848 342.155 687.398 341.15C645.513 334.617 602.232 306.136 558.758 256.493L558.039 255.673C512.289 203.427 469.074 154.079 414.115 128.44C389.368 116.987 363.069 111.312 337.035 111.312Z" fill="#45C2B1"/>
<path d="M347.454 104.024C313.176 104.024 278.999 113.828 248.991 133.116C243.322 136.759 238.344 140.278 233.774 143.865C207.858 164.244 187.843 190.884 168.485 216.651C152.678 237.692 137.748 257.564 119.99 274.062C95.3963 296.907 69.1816 309.398 39.8466 312.243C16.1067 314.542 -10.9138 305.671 -30.659 289.07C-46.1784 276.027 -55.427 259.63 -56.7 242.901L-58.9844 243.074C-57.6632 260.423 -48.1281 277.378 -32.1328 290.824C-11.9333 307.806 15.7361 316.892 40.0671 314.522C69.9207 311.626 96.5731 298.941 121.548 275.738C139.455 259.102 154.446 239.15 170.316 218.026C189.585 192.379 209.508 165.857 235.188 145.667C239.702 142.124 244.622 138.647 250.23 135.042C301.201 102.279 364.376 97.2222 419.221 121.507C473.917 145.944 516.334 194.281 562.201 250.275C605.291 302.883 646.461 332.956 688.063 342.209C694.519 343.643 701.49 344.487 708.783 344.716C752.971 346.034 792.187 325.665 822.199 285.677C833.767 270.308 843.038 252.637 852.004 235.548C860.882 218.626 870.063 201.131 881.341 186.242C904.282 155.922 933.712 138.021 968.811 133.035C1044.77 122.238 1115.3 167.584 1212.25 289.533C1233.42 316.156 1251.72 345.966 1271.1 377.527C1284.1 398.699 1297.54 420.589 1312.66 442.849L1314.55 441.561C1299.47 419.345 1286.04 397.476 1273.05 376.328C1253.63 344.708 1235.29 314.841 1214.04 288.108C1116.51 165.428 1045.38 119.828 968.489 130.769C932.769 135.844 902.833 154.043 879.515 184.858C868.122 199.899 858.898 217.481 849.976 234.484C841.052 251.493 831.824 269.08 820.368 284.303C790.823 323.67 752.298 343.736 708.854 342.427C701.705 342.203 694.877 341.377 688.559 339.972C647.478 330.836 606.725 301.022 563.972 248.827C517.918 192.602 475.308 144.057 420.151 119.414C396.891 109.114 372.144 104.027 347.454 104.024Z" fill="#45C2B1"/>
<path d="M357.351 96.3276C321.943 96.3247 286.467 107.059 254.435 128.16C248.758 131.902 243.781 135.474 239.219 139.089C214.332 158.838 194.447 184.002 175.217 208.338C157.943 230.202 141.627 250.848 122.168 267.559C96.8439 289.3 70.046 300.834 40.2439 302.82C-0.905994 305.591 -52.58 275.381 -57.5655 232.372L-59.8408 232.635C-54.7128 276.866 -1.72888 307.961 40.3958 305.104C70.71 303.086 97.9464 291.373 123.66 269.294C143.287 252.443 159.669 231.71 177.014 209.757C196.163 185.523 215.963 160.466 240.642 140.884C245.15 137.311 250.074 133.778 255.694 130.074C308.162 95.5076 369.976 89.0965 425.289 112.495C477.567 134.821 519.895 180.636 567.365 242.555C609.223 297.152 649.036 329.353 689.08 341.004C695.424 342.846 702.333 344.135 709.614 344.835C754.407 349.141 795.709 330.364 825.896 291.942C838.197 276.331 847.797 258.061 857.08 240.391C865.775 223.841 874.766 206.727 885.852 192.149C908.869 161.846 938.583 144.002 974.17 139.115C1052.16 128.413 1126.67 177.913 1215.77 299.609C1236.81 328.351 1254.02 360.309 1272.24 394.142C1283.47 415.009 1295.09 436.589 1308.15 458.381L1310.12 457.206C1297.09 435.456 1285.48 413.899 1274.25 393.053C1256 359.151 1238.76 327.125 1217.62 298.254C1169.31 232.276 1125.51 187.771 1083.71 162.198C1046.88 139.673 1011.98 131.612 973.858 136.849C938.158 141.748 907.096 160.394 884.029 190.765C872.828 205.493 863.791 222.692 855.053 239.326C845.818 256.904 836.267 275.079 824.097 290.525C794.409 328.312 753.838 346.77 709.833 342.557C702.694 341.868 695.926 340.606 689.719 338.803C650.161 327.295 610.733 295.356 569.183 241.159C521.493 178.956 478.925 132.912 426.184 110.387C403.942 100.979 380.66 96.3276 357.351 96.3276Z" fill="#45C2B1"/>
<path d="M367.635 88.8284C330.837 88.8284 293.601 100.455 259.88 123.207C254.195 127.042 249.22 130.674 244.667 134.312C220.876 153.36 201.258 177.037 182.286 199.935C163.442 222.675 145.644 244.157 124.349 261.053C98.3172 281.712 70.9365 292.291 40.643 293.395C-0.611321 294.915 -51.7649 264.616 -58.431 221.846L-60.6943 222.198C-53.8487 266.119 -1.51652 297.244 40.7264 295.685C71.5259 294.561 99.3442 283.82 125.772 262.848C147.254 245.8 165.126 224.232 184.048 201.396C202.947 178.588 222.49 155 246.097 136.101C250.6 132.502 255.528 128.905 261.16 125.104C314.369 89.2102 376.403 81.3259 431.359 103.485C489.598 127.212 533.628 180.633 572.532 234.83C614.416 293.174 650.675 325.546 690.1 339.791C696.319 342.036 703.163 343.775 710.445 344.955C756.395 352.398 798.711 335.792 829.595 298.207C842.606 282.421 852.501 263.602 862.069 245.406C870.608 229.167 879.437 212.375 890.365 198.056C913.133 168.193 943.964 149.916 979.528 145.202C1060.39 134.488 1136.57 186.752 1219.29 309.685C1240.16 340.7 1256.16 374.899 1273.09 411.106C1282.65 431.547 1292.54 452.686 1303.65 473.915L1305.68 472.853C1294.59 451.67 1284.72 430.555 1275.17 410.137C1258.19 373.847 1242.16 339.57 1221.19 308.408C1137.92 184.671 1061.04 132.105 979.227 142.93C943.047 147.727 911.689 166.308 888.545 196.667C877.5 211.138 868.625 228.016 860.042 244.339C850.527 262.433 840.688 281.145 827.826 296.753C797.48 333.681 755.927 349.986 710.811 342.695C703.669 341.538 696.963 339.835 690.878 337.638C651.915 323.557 615.99 291.439 574.393 233.494C535.287 179.02 490.998 125.309 432.219 101.362C411.408 92.9703 389.599 88.8284 367.635 88.8284Z" fill="#45C2B1"/>
<path d="M377.88 81.224C339.748 81.2211 300.76 93.7841 265.325 118.251C259.632 122.181 254.657 125.872 250.115 129.534C227.491 147.808 208.278 169.987 189.698 191.439C169.181 215.122 149.803 237.495 126.531 254.552C99.7943 274.149 71.8301 283.772 41.0419 283.972C-4.71742 284.339 -51.6597 250.315 -59.2992 211.317L-61.5459 211.758C-52.7894 256.457 -1.85456 286.265 40.4794 286.265C40.6745 286.265 40.8627 286.262 41.0571 286.262C72.3444 286.059 100.746 276.29 127.885 256.4C151.366 239.189 170.826 216.723 191.429 192.936C209.944 171.565 229.089 149.463 251.553 131.318C256.05 127.692 260.981 124.036 266.627 120.136C320.58 82.885 382.834 73.5309 437.429 94.4761C498.685 118.224 544.571 177.83 577.701 227.103C606.925 270.568 643.253 317.799 691.124 338.574C697.237 341.228 704.019 343.413 711.281 345.065C757.603 355.624 802.074 340.822 833.294 304.469C846.997 288.561 857.158 269.244 866.984 250.565C875.39 234.588 884.08 218.065 894.879 203.966C917.717 174.117 948.842 155.901 984.889 151.285C1068.46 140.58 1146.28 195.694 1222.82 319.761C1243.45 353.2 1258.11 389.743 1273.64 428.437C1281.62 448.327 1289.88 468.893 1299.15 489.444L1301.24 488.502C1291.99 467.995 1283.74 447.45 1275.77 427.584C1260.2 388.798 1245.5 352.165 1224.77 318.556C1153.99 203.832 1081.94 147.694 1005.15 147.688C998.333 147.688 991.492 148.129 984.598 149.012C947.931 153.709 916.278 172.229 893.061 202.573C882.145 216.824 873.407 233.437 864.957 249.497C855.19 268.066 845.091 287.263 831.558 302.975C800.909 338.666 757.257 353.188 711.79 342.835C704.666 341.212 698.019 339.072 692.036 336.474C644.707 315.932 608.641 269.014 579.603 225.827C546.284 176.273 500.108 116.318 438.253 92.3375C418.847 84.892 398.487 81.224 377.88 81.224Z" fill="#45C2B1"/>
<path d="M388.07 73.5132C348.67 73.5103 307.94 87.0539 270.771 113.295C265.077 117.315 260.102 121.066 255.562 124.757C234.181 142.178 215.521 162.849 197.475 182.836C175.177 207.535 154.116 230.866 128.713 248.051C101.671 266.345 72.3072 275.225 41.4407 274.549C-5.24234 273.466 -50.8232 240.378 -60.1676 200.794L-62.3965 201.318C-52.828 241.855 -6.27049 275.732 41.3873 276.839C72.77 277.539 102.553 268.516 129.997 249.948C155.629 232.608 176.782 209.176 199.176 184.372C217.164 164.447 235.764 143.845 257.008 126.535C261.506 122.873 266.441 119.155 272.092 115.168C326.796 76.5457 389.275 65.7185 443.5 85.4647C493.039 103.702 536.024 145.002 582.871 219.383C612.897 267.049 646.916 314.334 692.149 337.354C698.167 340.417 704.886 343.05 712.119 345.176C759.379 359.084 804.895 346.521 836.993 310.732C851.371 294.749 861.775 274.969 871.835 255.844C880.125 240.084 888.697 223.785 899.393 209.874C922.3 180.04 953.718 161.886 990.249 157.368C1076.39 146.735 1155.83 204.745 1226.34 329.834C1246.66 365.877 1259.88 404.892 1273.88 446.195C1280.38 465.384 1287.1 485.226 1294.66 504.972L1296.8 504.155C1289.26 484.447 1282.54 464.629 1276.05 445.462C1262.01 404.051 1248.76 364.941 1228.34 328.707C1157.32 202.739 1077.12 144.314 989.967 155.096C952.814 159.689 920.866 178.15 897.576 208.479C886.762 222.547 878.143 238.93 869.808 254.776C859.812 273.78 849.477 293.428 835.289 309.202C803.805 344.308 759.149 356.621 712.765 342.982C705.667 340.891 699.08 338.312 693.188 335.315C648.449 312.545 614.66 265.553 584.809 218.161C537.674 143.326 494.335 101.737 444.287 83.3149C426.254 76.7481 407.317 73.5132 388.07 73.5132Z" fill="#45C2B1"/>
<path d="M398.192 65.6975C357.6 65.6975 315.132 80.2671 276.216 108.342C270.507 112.46 265.533 116.271 261.008 119.983C240.944 136.47 222.987 155.617 205.62 174.132C181.432 199.92 158.586 224.279 130.895 241.554C103.181 258.843 73.2063 266.754 41.8396 265.129C-4.93081 262.669 -50.1204 229.787 -61.0383 190.267L-63.2451 190.876C-52.0806 231.29 -5.97492 264.908 41.7188 267.413C73.5852 269.118 103.988 261.037 132.108 243.498C160.052 226.062 182.998 201.599 207.291 175.701C224.607 157.236 242.513 138.146 262.462 121.755C266.949 118.069 271.887 114.291 277.556 110.197C333.017 70.1913 395.715 57.888 449.57 76.4505C499.986 94.0262 543.987 136.99 588.042 211.657C616.723 260.268 648.466 309.923 693.179 336.132C699.104 339.606 705.759 342.686 712.959 345.28C760.355 362.388 808.108 351.808 840.691 316.997C855.731 300.972 866.358 280.764 876.634 261.22C884.826 245.642 893.295 229.537 903.905 215.784C926.885 185.962 958.595 167.865 995.608 163.451C1057.39 156.091 1148.19 180.716 1229.87 339.907C1249.8 378.749 1261.45 420.371 1273.78 464.438C1278.9 482.762 1284.2 501.709 1290.16 520.501L1292.35 519.809C1286.4 501.053 1281.1 482.126 1275.98 463.821C1263.62 419.64 1251.95 377.909 1231.91 338.863C1197.36 271.531 1157.81 222.374 1114.34 192.751C1076.42 166.907 1036.38 156.282 995.337 161.179C957.699 165.666 925.456 184.065 902.092 214.385C891.36 228.296 882.843 244.491 874.607 260.152C864.402 279.561 853.848 299.629 839.02 315.43C807.082 349.55 760.247 359.9 713.736 343.127C706.668 340.577 700.142 337.559 694.337 334.157C650.097 308.223 618.543 258.845 590.015 210.493C545.669 135.334 501.28 92.0511 450.32 74.285C433.622 68.5303 416.087 65.7004 398.192 65.6975Z" fill="#45C2B1"/>
<path d="M407.374 57.5655C365.999 57.5626 322.724 73.1372 281.664 103.386C275.994 107.56 271.021 111.428 266.457 115.206C247.79 130.676 230.694 148.276 214.161 165.3C187.969 192.265 163.23 217.734 133.078 235.056C104.699 251.361 74.1346 258.309 42.2373 255.706C-4.63717 251.88 -49.4107 219.222 -61.9103 179.741L-64.0928 180.433C-51.3296 220.749 -5.69687 254.093 42.0513 257.99C74.4218 260.62 105.43 253.583 134.219 237.042C164.65 219.562 189.497 193.98 215.804 166.895C232.295 149.916 249.347 132.358 267.917 116.972C272.448 113.22 277.389 109.38 283.022 105.229C340.072 63.2016 401.376 49.7828 455.642 67.439C506.756 84.26 551.758 128.908 593.215 203.934C619.328 251.191 648.925 304.753 694.215 334.909C700.057 338.8 706.649 342.325 713.804 345.384C761.233 365.667 811.269 357.184 844.39 323.258C860.083 307.224 870.916 286.607 881.393 266.673C889.497 251.251 897.877 235.306 908.419 221.688C931.471 191.884 963.474 173.849 1000.97 169.534C1090.59 159.267 1175.31 224.995 1233.4 349.979C1252.86 391.839 1262.8 436.234 1273.31 483.236C1277.18 500.507 1281.18 518.366 1285.68 536.028L1287.89 535.461C1283.4 517.832 1279.41 499.991 1275.55 482.738C1265 435.611 1255.04 391.097 1235.48 349.013C1203.94 281.162 1165.7 231.185 1121.83 200.465C1084 173.977 1042.12 162.514 1000.71 167.259C962.585 171.645 930.045 189.981 906.607 220.286C895.943 234.063 887.515 250.1 879.366 265.606C868.966 285.397 858.21 305.862 842.752 321.657C810.306 354.897 761.243 363.18 714.704 343.279C707.677 340.273 701.21 336.817 695.484 333C650.659 303.157 621.205 249.852 595.22 202.824C553.47 127.271 508.046 82.2737 456.353 65.2619C440.522 60.1121 424.102 57.5655 407.374 57.5655Z" fill="#45C2B1"/>
<path d="M417.268 49.571C374.842 49.571 329.954 66.219 287.11 98.43C281.479 102.664 276.505 106.588 271.904 110.429C254.718 124.79 238.643 140.824 223.098 156.333C194.79 184.569 168.052 211.242 135.26 228.561C106.217 243.903 75.0573 249.87 42.6342 246.286C-4.35995 241.094 -48.6947 208.681 -62.7827 169.221L-64.9395 169.99C-50.5715 210.234 -5.43635 243.277 42.3825 248.564C75.2626 252.181 106.873 246.146 136.329 230.589C169.425 213.106 196.282 186.316 224.715 157.952C240.225 142.482 256.265 126.484 273.372 112.188C277.942 108.372 282.886 104.471 288.486 100.261C346.317 56.7811 407.837 41.9341 461.712 58.4272C514.108 74.652 558.817 119.721 598.389 196.21L600.359 200.021C626.34 250.267 653.206 302.227 695.252 333.68C701.006 337.989 707.533 341.961 714.651 345.482C752.329 364.128 807.169 369.728 848.087 329.52C864.423 313.501 875.449 292.505 886.112 272.198C894.141 256.91 902.444 241.1 912.932 227.598C935.723 198.229 968.891 179.77 1006.33 175.62C1048.1 170.98 1090.13 182.89 1127.9 210.049C1171.79 241.61 1208.48 292.079 1236.93 360.049C1255.83 405.189 1263.91 452.563 1272.46 502.719C1275.19 518.708 1278.01 535.24 1281.19 551.554L1283.44 551.113C1280.26 534.829 1277.44 518.309 1274.72 502.334C1266.14 452.044 1258.04 404.545 1239.04 359.166C1210.42 290.797 1173.48 240.002 1129.24 208.188C1091 180.695 1048.41 168.645 1006.08 173.341C968.018 177.564 934.297 196.332 911.124 226.193C900.511 239.856 892.161 255.756 884.085 271.133C873.504 291.283 862.562 312.117 846.484 327.886C806.422 367.25 752.64 361.728 715.667 343.431C708.675 339.969 702.268 336.071 696.624 331.849C655 300.705 629.447 251.289 602.394 198.968L600.424 195.16C560.555 118.095 515.403 72.6534 462.386 56.2378C447.82 51.7778 432.705 49.5739 417.268 49.571Z" fill="#45C2B1"/>
<path d="M427.064 41.49C383.667 41.49 337.189 59.2503 292.557 93.474C286.985 97.7469 282.011 101.731 277.352 105.652C261.735 118.809 246.849 133.247 232.452 147.209C201.912 176.828 173.066 204.802 137.443 222.067C107.737 236.47 75.9712 241.444 43.0313 236.869C-4.09337 230.315 -47.9654 198.17 -63.6574 158.698L-65.7852 159.545C-49.8037 199.744 -5.18644 232.474 42.7155 239.136C76.1192 243.785 108.321 238.727 138.442 224.13C174.397 206.704 203.371 178.602 234.046 148.854C248.415 134.92 263.272 120.508 278.828 107.406C283.459 103.505 288.406 99.5454 293.951 95.2931C352.566 50.3466 414.3 34.0532 467.784 49.4163C521.371 64.9669 565.786 110.459 603.565 188.488C605.554 192.597 607.532 196.712 609.508 200.818C633.994 251.732 657.123 299.821 696.296 332.458C701.986 337.196 708.449 341.613 715.504 345.584C763.412 372.526 816.906 368.679 851.786 335.78C868.756 319.806 879.964 298.443 890.802 277.784C898.766 262.606 906.999 246.913 917.446 233.506C940.302 204.155 973.771 185.756 1011.69 181.704C1106.98 171.506 1192.49 241.96 1240.47 370.126C1258.7 418.836 1264.75 469.433 1271.16 523.001C1272.89 537.442 1274.68 552.373 1276.71 567.083L1278.98 566.766C1276.95 552.08 1275.16 537.159 1273.44 522.729C1267.29 471.384 1260.94 418.29 1242.61 369.321C1216.82 300.427 1181.15 248.813 1136.59 215.913C1097.99 187.421 1054.71 174.804 1011.45 179.426C972.905 183.547 938.88 202.253 915.64 232.099C905.067 245.666 896.784 261.453 888.774 276.72C878.023 297.212 866.907 318.402 850.216 334.114C808.738 373.237 752.329 363.667 716.627 343.587C709.693 339.687 703.346 335.351 697.762 330.699C658.972 298.378 635.948 250.509 611.572 199.825C609.596 195.716 607.617 191.601 605.627 187.492C567.549 108.844 522.669 62.9607 468.42 47.2161C455.077 43.3835 441.234 41.49 427.064 41.49Z" fill="#45C2B1"/>
<path d="M436.748 33.3165C392.461 33.3136 344.436 52.225 298.004 88.5181C292.504 92.8178 287.53 96.8586 282.799 100.875C268.829 112.74 255.29 125.566 242.197 137.967C209.336 169.096 178.298 198.498 139.627 215.578C109.887 228.833 76.6207 232.939 43.4247 227.449C-3.88167 219.434 -47.2681 187.578 -64.5319 148.18L-66.6299 149.099C-49.0687 189.173 -4.99323 221.568 43.0461 229.709C76.6925 235.258 110.408 231.108 140.555 217.671C179.585 200.432 210.762 170.899 243.772 139.631C256.843 127.25 270.358 114.446 284.281 102.622C288.989 98.6237 293.939 94.601 299.414 90.3249C358.818 43.887 420.77 26.1597 473.855 40.4044C527.802 55.0128 573.185 102.238 608.741 180.767C611.748 187.407 614.708 194.069 617.664 200.722C639.766 250.452 660.641 297.426 697.342 331.229C702.96 336.405 709.359 341.266 716.361 345.679C753.11 368.84 811.594 381.787 855.483 342.041C873.081 326.127 884.457 304.418 895.46 283.422C903.366 268.337 911.542 252.735 921.958 239.415C944.882 210.076 978.652 191.74 1017.05 187.786C1093.3 179.934 1192.97 226.357 1244 380.195C1261.46 432.844 1265.48 489.497 1269.36 544.284C1270.25 556.844 1271.17 569.833 1272.23 582.608L1274.52 582.417C1273.45 569.657 1272.53 556.677 1271.64 544.123C1267.75 489.193 1263.73 432.396 1246.17 379.473C1194.71 224.347 1093.95 177.578 1016.82 185.507C977.792 189.527 943.464 208.17 920.154 238.004C909.609 251.488 901.385 267.182 893.431 282.36C882.522 303.174 871.242 324.701 853.946 340.341C811.007 379.231 753.653 366.474 717.582 343.74C710.697 339.401 704.409 334.624 698.894 329.546C662.542 296.062 641.759 249.299 619.756 199.791C616.799 193.135 613.835 186.467 610.827 179.823C574.976 100.641 529.093 52.9898 474.45 38.1907C462.295 34.93 449.677 33.3198 436.748 33.3165Z" fill="#45C2B1"/>
<path d="M446.317 25.0598C401.229 25.0598 351.679 45.1549 303.452 83.5652C298.131 87.8025 293.016 92.0188 288.247 96.0981C276.03 106.559 264.016 117.699 252.399 128.476C217.08 161.235 183.721 192.176 141.808 209.089C111.366 221.464 77.4842 224.553 43.8205 218.032C-3.62666 208.681 -46.5028 177.135 -65.4077 137.66L-67.4727 138.65C-48.2668 178.751 -4.75454 210.795 43.3813 220.281C77.4857 226.892 111.816 223.755 142.667 211.213C184.968 194.141 220.04 161.614 253.956 130.155C265.557 119.396 277.554 108.268 289.736 97.8396C294.483 93.7752 299.578 89.5767 304.878 85.3546C365.075 37.411 427.245 18.2461 479.926 31.3904C534.92 45.2205 580.002 92.8809 613.918 173.047C617.652 181.871 621.281 190.757 624.903 199.622C644.041 246.471 663.832 294.915 698.391 330.001C703.994 335.655 710.328 340.959 717.222 345.778C757.217 373.719 816.623 385.33 859.181 348.301C877.401 332.464 888.939 310.421 900.097 289.104C907.954 274.093 916.078 258.572 926.472 245.32C949.397 216.079 983.469 197.806 1022.41 193.87C1097.78 186.57 1201.98 233.592 1247.54 390.266C1264.12 447.307 1265.55 508.072 1266.94 566.84C1267.19 577.274 1267.43 587.714 1267.76 598.139L1270.05 598.067C1269.72 587.648 1269.48 577.215 1269.23 566.787C1267.84 507.873 1266.4 446.955 1249.74 389.627C1203.79 231.609 1098.44 184.199 1022.19 191.591C982.614 195.59 947.983 214.17 924.67 243.906C914.146 257.325 905.973 272.941 898.069 288.042C887.01 309.172 875.574 331.02 857.678 346.571C816.052 382.795 757.8 371.33 718.534 343.899C711.752 339.161 705.524 333.946 700.02 328.393C665.781 293.63 646.955 247.544 627.023 198.754C623.398 189.88 619.766 180.988 616.028 172.152C581.817 91.291 536.213 43.1838 480.483 29.1688C469.465 26.4194 458.041 25.0598 446.317 25.0598Z" fill="#45C2B1"/>
<path d="M454.865 16.5936C409.22 16.5907 359.4 37.6462 308.898 78.6089C303.761 82.7748 298.645 87.0506 293.694 91.321C283.345 100.252 273.042 109.645 263.079 118.728C226.849 151.762 189.386 185.919 143.987 202.6C112.827 214.114 78.3248 216.201 44.2153 208.615C-3.37325 197.937 -45.7152 166.719 -66.285 127.146L-68.3174 128.201C-47.444 168.359 -4.51527 200.027 43.7167 210.851C78.2628 218.518 113.208 216.416 144.779 204.747C190.597 187.911 228.229 153.601 264.622 120.421C274.573 111.348 284.864 101.963 295.189 93.0563C300.123 88.8012 305.221 84.537 310.34 80.386C372.219 30.1971 432.959 10.1379 485.998 22.3756C541.987 35.3767 586.768 83.4723 619.095 165.323C623.401 176.225 627.575 187.423 631.612 198.253C648.894 244.613 666.763 292.55 699.446 328.775C705.02 334.926 711.291 340.679 718.087 345.873C757.004 375.83 818.916 391.327 862.877 354.56C881.715 338.818 893.405 316.453 904.71 294.825C912.523 279.877 920.603 264.422 930.984 251.226C953.994 221.974 988.367 203.763 1027.77 199.952C1111.88 192.059 1213.54 250.949 1251.07 400.341C1266.65 462.338 1265.19 527.753 1263.77 591.014C1263.6 598.574 1263.43 606.126 1263.29 613.671L1265.58 613.713C1265.72 606.171 1265.89 598.621 1266.06 591.065C1267.48 527.654 1268.95 462.082 1253.29 399.78C1215.43 249.077 1112.64 189.653 1027.55 197.674C987.518 201.545 952.585 220.063 929.185 249.813C918.672 263.172 910.543 278.723 902.681 293.764C891.479 315.195 879.897 337.354 861.409 352.8C818.416 388.756 757.701 373.474 719.481 344.057C712.793 338.943 706.624 333.286 701.145 327.239C668.757 291.343 650.965 243.611 633.758 197.454C629.718 186.615 625.539 175.405 621.226 164.483C588.605 81.8892 543.282 33.3255 486.514 20.1452C476.233 17.7716 465.661 16.5936 454.865 16.5936Z" fill="#45C2B1"/>
<path d="M464.107 8.18807C417.738 8.18517 366.568 30.4483 314.346 73.6534C309.57 77.5864 304.596 81.8056 299.142 86.5442C290.786 93.8108 282.386 101.37 274.263 108.682C235.452 143.609 195.32 179.726 146.167 196.115C114.277 206.778 79.1589 207.843 44.6102 199.201C-3.11617 187.202 -44.9007 156.333 -67.1613 116.629L-69.1592 117.75C-46.5958 157.991 -4.27306 189.272 44.0528 201.42C79.0265 210.169 114.589 209.09 146.893 198.286C196.497 181.748 236.81 145.47 275.795 110.382C283.911 103.079 292.304 95.5259 300.645 88.2737C306.082 83.5475 311.041 79.3428 315.804 75.4184C378.393 23.6375 439.345 2.1766 492.07 13.3644C548.213 25.3163 593.93 75.1947 624.276 157.606C628.977 170.372 633.429 183.549 637.736 196.291C653.33 242.433 669.456 290.15 700.506 327.549C705.959 334.106 712.166 340.303 718.955 345.971C758.14 378.784 821.051 397.424 866.576 360.815C886.025 345.184 897.861 322.509 909.307 300.583C917.082 285.685 925.123 270.281 935.499 257.137C958.597 227.863 993.271 209.718 1033.13 206.035C1120.01 198.151 1222.18 258.27 1254.61 410.411C1269.05 478.125 1264.26 548.894 1259.62 617.336L1258.82 629.204L1261.11 629.359L1261.91 617.488C1266.55 548.892 1271.36 477.961 1256.85 409.934C1241.88 339.697 1210.25 283.232 1165.39 246.64C1126.32 214.773 1079.28 199.529 1032.92 203.757C992.429 207.494 957.191 225.949 933.7 255.718C923.192 269.032 915.101 284.532 907.276 299.522C895.939 321.242 884.217 343.699 865.141 359.032C820.62 394.828 758.915 376.447 720.424 344.215C713.739 338.633 707.63 332.535 702.267 326.085C671.489 289.014 655.433 241.503 639.905 195.557C635.594 182.8 631.136 169.608 626.424 156.813C595.793 73.6287 549.499 23.2491 492.547 11.1216C483.303 9.1629 473.805 8.18807 464.107 8.18807Z" fill="#45C2B1"/>
<path d="M473.271 -0.283827C426.405 -0.283827 374.069 23.1094 319.794 68.6971C308.405 78.2631 297.001 88.4375 285.973 98.2777C244.467 135.313 201.547 173.61 148.346 189.626C68.1676 213.774 -24.8622 177.865 -68.039 106.117L-70.001 107.298C-26.3016 179.92 67.8488 216.249 149.006 191.821C202.693 175.659 245.805 137.189 287.498 99.9865C298.513 90.1584 309.903 79.9959 321.268 70.4506C388.955 13.6 453.461 -8.46621 507.819 6.62526C560.255 21.192 602.317 70.7309 629.455 149.886C634.406 164.325 638.965 179.308 643.373 193.798C657.419 239.958 671.944 287.693 701.567 326.327C725.388 357.393 763.052 379.662 799.86 384.442C826.725 387.925 851.073 381.922 870.274 367.075C890.331 351.563 902.305 328.588 913.885 306.369C921.629 291.513 929.636 276.15 940.012 263.045C974.252 219.795 1035.19 201.65 1095.26 216.837C1178.47 237.862 1239.37 313.994 1258.15 420.485C1271.29 494.911 1262.68 571.081 1254.36 644.744L1256.63 645C1264.97 571.176 1273.6 494.839 1260.41 420.085C1241.46 312.682 1179.93 235.87 1095.82 214.615C1034.88 199.223 973.017 217.669 938.217 261.626C927.706 274.901 919.648 290.359 911.855 305.311C900.389 327.311 888.532 350.058 868.873 365.263C850.164 379.731 826.405 385.578 800.154 382.17C763.928 377.467 726.848 355.532 703.385 324.932C674.013 286.629 659.551 239.097 645.564 193.131C641.15 178.623 636.585 163.621 631.621 149.141C604.226 69.2404 561.628 19.1977 508.431 4.41919C497.119 1.27889 485.376 -0.283827 473.271 -0.283827Z" fill="#45C2B1"/>
</svg>
