<svg width="45" height="44" viewBox="0 0 45 44" fill="none" xmlns="http://www.w3.org/2000/svg">
<path d="M21.1925 20.7515H0L21.1925 43.7448L42.385 20.7515H21.1925Z" fill="#48BEA0"/>
<path d="M36.4787 11.1403H5.9063L0 20.7516H42.385L36.4787 11.1403Z" fill="#C6FCEE"/>
<path d="M11.0017 20.7515L16.0971 11.1401H11.0017H5.90625L11.0017 20.7515Z" fill="#48BEA0"/>
<path d="M21.1926 20.7515L26.288 11.1401H21.1926H16.0972L21.1926 20.7515Z" fill="#48BEA0"/>
<path d="M31.3832 20.7515L36.4787 11.1401H31.3832H26.2878L31.3832 20.7515Z" fill="#48BEA0"/>
<path d="M11.0017 20.7515L21.1925 43.7448V20.7515H11.0017Z" fill="#C6FCEE"/>
<path d="M36.4787 11.14L31.3833 20.7513H36.4787H42.385L36.4787 11.14Z" fill="#275C51"/>
<path d="M31.3832 20.7513L21.1924 43.7447L42.3849 20.7513H31.3832Z" fill="#275C51"/>
<path d="M7.61345 0L8.65706 3.74878L12.4059 4.7924L8.65706 5.836L7.61345 9.58547L6.56984 5.836L2.82104 4.7924L6.56984 3.74878L7.61345 0Z" fill="#48BEA0"/>
<path d="M2.19397 15.1595L2.67202 16.8761L4.38795 17.3535L2.67202 17.8316L2.19397 19.5475L1.71659 17.8316L0 17.3535L1.71659 16.8761L2.19397 15.1595Z" fill="#48BEA0"/>
<path d="M41.4641 6.00549L42.0767 8.20478L44.276 8.81675L42.0767 9.42873L41.4641 11.6287L40.8521 9.42873L38.6528 8.81675L40.8521 8.20478L41.4641 6.00549Z" fill="#48BEA0"/>
</svg>
