<svg width="246" height="340" viewBox="0 0 246 340" fill="none" xmlns="http://www.w3.org/2000/svg">
<path opacity="0.5" fill-rule="evenodd" clip-rule="evenodd" d="M172.494 284.174C173.863 284.092 175.182 283.943 176.451 283.727ZM195.561 36.2211C196.049 35.9518 196.57 35.6673 197.12 35.3706ZM197.12 35.3706C197.609 35.1062 198.107 34.8397 198.615 34.5719ZM198.615 34.5719C199.109 34.3113 199.62 34.0448 200.15 33.7729ZM200.15 33.7729C200.675 33.5039 201.167 33.2554 201.627 33.0258ZM201.627 33.0258C202.071 32.8046 202.581 32.5528 203.139 32.2803ZM203.139 32.2803C203.622 32.044 204.111 31.8082 204.601 31.5734ZM204.601 31.5734C205.096 31.3368 205.596 31.0998 206.096 30.866ZM206.096 30.866C206.578 30.64 207.062 30.4152 207.545 30.1933ZM207.545 30.1933L207.545 30.1929C208.038 29.9665 208.532 29.7412 209.025 29.5194M209.025 29.5194C209.508 29.3017 209.988 29.0871 210.464 28.8763ZM210.464 28.8763C210.895 28.6854 211.382 28.4721 211.931 28.2339ZM211.931 28.2339C212.443 28.0118 212.928 27.8018 213.359 27.6183ZM213.359 27.6183L214.23 27.2476ZM226.585 22.3604C226.049 22.5594 225.518 22.7592 224.99 22.9584L226.386 22.4349C228.381 21.6921 230.427 20.9495 232.526 20.208C230.483 20.9295 228.503 21.6466 226.585 22.3604ZM214.23 27.2476L213.732 27.458ZM213.732 27.458C213.244 27.6649 212.768 27.8687 212.308 28.0675ZM212.308 28.0675L212.308 28.0684ZM212.308 28.0684C211.808 28.284 211.32 28.497 210.847 28.7051ZM210.847 28.7051C210.328 28.9332 209.849 29.146 209.412 29.3418ZM209.412 29.3418C208.909 29.5666 208.418 29.7898 207.937 30.0097ZM207.937 30.0097C207.526 30.1981 207.039 30.4238 206.491 30.6784ZM206.491 30.6784C205.987 30.9135 205.489 31.1481 205.002 31.3798ZM205.002 31.3798C204.484 31.6262 203.995 31.8613 203.543 32.0812ZM203.543 32.0812C203.035 32.3276 202.532 32.5746 202.037 32.8201ZM202.037 32.8201C201.562 33.0556 201.074 33.3012 200.567 33.5591ZM200.567 33.5591C199.997 33.8494 199.489 34.1109 199.039 34.3455ZM199.039 34.3455C198.539 34.6067 198.042 34.8691 197.551 35.1328ZM197.551 35.1328C196.536 35.676 195.537 36.2269 194.552 36.7848ZM166.422 89.084L166.422 89.084L166.55 89.5283L166.451 89.1801L166.451 89.1784L166.323 88.7207L166.323 88.7207L166.28 88.569L166.279 88.5665L166.167 88.1476L166.167 88.146L166.057 87.7275C165.982 87.4372 165.91 87.1556 165.845 86.8876C165.775 86.6067 165.708 86.3264 165.645 86.0492L165.645 86.0477L165.509 85.4386L165.508 85.4373L165.379 84.83L165.379 84.8291L165.314 84.517L165.313 84.5152C165.271 84.3036 165.225 84.0665 165.177 83.8041C165.129 83.545 165.087 83.3099 165.05 83.0954C165.016 82.8951 164.979 82.667 164.941 82.4222C164.902 82.1725 164.869 81.9505 164.84 81.7511C164.815 81.5704 164.788 81.3735 164.76 81.1564C164.731 80.9353 164.707 80.7386 164.686 80.5617L164.686 80.5602L164.677 80.4735C164.655 80.2842 164.634 80.0815 164.613 79.8682L164.613 79.8665L164.557 79.265L164.556 79.2632L164.518 78.8043L164.518 78.801L164.486 78.3424L164.486 78.3382L164.475 78.1187C164.466 77.9443 164.456 77.7648 164.448 77.578C164.44 77.4032 164.433 77.2212 164.428 77.038L164.428 77.0373L164.416 76.5304L164.416 76.5287C164.413 76.3611 164.411 76.1903 164.41 76.0199L164.41 76.0174L164.412 75.8789L164.415 75.5532L164.415 75.5516L164.421 75.2254L164.423 75.08L164.423 75.0758L164.434 74.7173L164.434 74.7153L164.45 74.3569L164.457 74.2044L164.457 74.2027L164.478 73.7998L164.478 73.7973L164.505 73.3946L164.505 73.3906L164.516 73.2536L164.517 73.252L164.517 73.2508L164.516 73.2508C164.53 73.064 164.544 72.8797 164.565 72.6565L164.573 72.5714L164.573 72.5708L164.59 72.399L164.59 72.3949L164.616 72.1718L164.616 72.1709L164.635 72.0107L164.665 71.7585L164.674 71.6768L164.674 71.6752L164.701 71.447L164.702 71.445L164.729 71.2349L164.73 71.2299L164.769 70.9818L164.768 70.9818L164.789 70.849L164.789 70.8482L164.824 70.6247L164.834 70.5616L164.861 70.3838L164.861 70.3838L164.865 70.3593L164.866 70.3577L164.878 70.2768L164.878 70.2744C165.366 67.3911 166.254 64.5415 167.614 61.7193C168.972 58.8991 170.803 56.1041 173.177 53.3269C173.788 52.6124 174.435 51.898 175.12 51.1851C175.799 50.4777 176.521 49.7656 177.286 49.0507L177.286 49.0499C177.851 48.5214 178.441 47.9901 179.054 47.4579C179.67 46.9234 180.304 46.3924 180.954 45.8676C181.491 45.4348 182.05 44.997 182.628 44.5568C183.196 44.1244 183.788 43.6866 184.398 43.2464C184.927 42.8648 185.466 42.4841 186.013 42.1069C186.557 41.7321 187.121 41.3524 187.703 40.9683L187.703 40.9678C188.235 40.6163 188.763 40.2746 189.284 39.944C189.805 39.6138 190.347 39.2758 190.91 38.9316C191.423 38.6184 191.937 38.3079 192.452 38.0022C192.924 37.7221 193.4 37.4439 193.877 37.1697C193.548 37.358 193.225 37.5448 192.909 37.73C192.412 38.0209 191.9 38.3255 191.378 38.6418C190.825 38.9757 190.284 39.3084 189.758 39.637C189.212 39.9783 188.689 40.3111 188.196 40.6319C187.623 41.0047 187.068 41.3742 186.531 41.7383C185.992 42.1041 185.456 42.4761 184.924 42.8538C184.322 43.2813 183.74 43.7063 183.178 44.1274C182.617 44.548 182.065 44.9738 181.522 45.4022C180.878 45.9102 180.258 46.4154 179.664 46.9162C179.066 47.4192 178.487 47.9248 177.929 48.4309C177.207 49.0853 176.513 49.7474 175.847 50.4144C175.186 51.0762 174.558 51.7395 173.961 52.4025C172.895 53.5861 171.928 54.7727 171.059 55.9601C170.191 57.1458 169.416 58.3381 168.73 59.536C167.917 60.958 167.23 62.3836 166.662 63.8125C166.092 65.2455 165.638 66.6851 165.291 68.1307C165.241 68.3404 165.188 68.573 165.134 68.8231C165.085 69.0544 165.038 69.2863 164.993 69.5167L164.989 69.5376L164.989 69.5385L164.969 69.645L164.969 69.6459L164.957 69.7043L164.957 69.7043L164.92 69.8977L164.91 69.9489L164.911 69.9489L164.856 70.26L164.853 70.2791L164.852 70.284L164.802 70.611L164.802 70.6117L164.783 70.734L164.782 70.7413L164.78 70.7507L164.757 70.8917L164.757 70.8926C164.737 71.0209 164.716 71.1512 164.698 71.2849L164.697 71.2914L164.697 71.2964C164.679 71.4296 164.662 71.5812 164.645 71.7329L164.623 71.9295L164.623 71.9304L164.613 72.0121C164.588 72.2303 164.563 72.4445 164.546 72.6313L164.546 72.6313L164.522 72.9294L164.51 73.0736L164.483 73.4153L164.483 73.4153L164.46 73.7702L164.441 74.1262L164.435 74.2561L164.416 74.7065L164.403 75.1557L164.398 75.4872L164.396 75.8187L164.394 76.1027L164.398 76.2997L164.398 76.3006L164.404 76.7076L164.415 77.1151C164.42 77.2856 164.428 77.4618 164.436 77.6441L164.465 78.1762C164.475 78.3505 164.488 78.5336 164.502 78.7267L164.502 78.7276C164.515 78.8996 164.531 79.0874 164.547 79.2802L164.546 79.2802L164.6 79.8487L164.6 79.8487L164.661 80.4206L164.661 80.4206L164.715 80.867L164.714 80.867L164.771 81.3104L164.771 81.3104L164.811 81.5957L164.811 81.5957L164.899 82.1953C164.932 82.4079 164.964 82.609 164.994 82.7933L165.099 83.3965L165.098 83.3965L165.209 83.9965L165.21 83.9965L165.326 84.5873L165.326 84.5873L165.449 85.1762L165.503 85.4321L165.503 85.4321L165.594 85.8396L165.594 85.8396L165.689 86.2492L165.689 86.2492L165.749 86.5009L165.749 86.5018L165.794 86.6942L165.866 86.9996L165.866 86.9996C165.949 87.3358 166.039 87.6834 166.134 88.0385C166.228 88.3911 166.325 88.7411 166.422 89.084ZM167.751 93.3229L167.784 93.4165L167.751 93.3222L167.573 92.7895L167.508 92.5937L167.508 92.5937L167.443 92.4021L167.425 92.3468L167.459 92.4515L167.459 92.4515L167.602 92.8856L167.603 92.8856L167.751 93.3229L167.751 93.3229ZM167.987 94.0021L167.988 94.0021L168 94.0366L167.967 93.9426L167.987 94.0021ZM170.171 99.6942L170.171 99.6942L170.195 99.7539L170.008 99.2952C169.887 98.9989 169.744 98.6445 169.588 98.253L169.513 98.0646L169.513 98.0637L169.264 97.4314L169.264 97.4305L169.019 96.7996L169.018 96.7987L168.78 96.1729L168.78 96.1714L168.547 95.5476L168.546 95.5469L168.418 95.1965L168.418 95.1957L168.176 94.5324L168.231 94.6861L168.4 95.1528L168.401 95.1528L168.574 95.6229L168.574 95.6229C168.665 95.8673 168.764 96.1326 168.893 96.4717L168.893 96.4726C169.005 96.7677 169.116 97.0534 169.221 97.3243L169.221 97.3243L169.481 97.9844L169.48 97.9844L169.746 98.6515L169.747 98.6515L169.958 99.1731L169.957 99.1731L170.171 99.6942ZM170.562 100.636L170.75 101.081L170.502 100.492L170.562 100.636L170.562 100.636ZM171.53 102.902L171.531 102.902L171.69 103.264L171.69 103.264L171.341 102.462L171.341 102.461C171.156 102.033 170.975 101.612 170.801 101.2L170.8 101.2L170.961 101.58L170.961 101.58L171.093 101.888L171.092 101.888L171.53 102.902ZM177.343 115.467L177.343 115.467L177.55 115.901L177.55 115.9L177.182 115.126L177.182 115.126L176.97 114.682L176.97 114.681L176.228 113.119L175.885 112.395L175.457 111.49L175.457 111.49L174.678 109.831L174.593 109.651L174.592 109.65L173.87 108.096L173.87 108.095L173.312 106.88L173.051 106.309L173.05 106.308L172.623 105.365L172.623 105.364L172.203 104.425L172.203 104.424L172.045 104.069L172.044 104.069L171.726 103.347L171.978 103.922L171.979 103.922L172.206 104.434L172.206 104.434L172.526 105.15L172.527 105.15L172.851 105.87L172.851 105.87L173.472 107.234L173.695 107.718L173.695 107.718L174.108 108.611L174.109 108.611L174.527 109.51L174.526 109.51L174.754 109.998L175.334 111.233L175.335 111.233L176.047 112.738L176.133 112.92L176.907 114.549L177.343 115.467ZM181.263 123.768L181.528 124.341L181.106 123.428L181.106 123.428L180.457 122.037L179.797 120.633L179.775 120.586L179.774 120.586L179.112 119.186L178.479 117.852L178.416 117.719L177.705 116.224L177.704 116.224L177.674 116.161L177.674 116.161L178.415 117.719L178.641 118.195L179.149 119.266L179.866 120.781L179.936 120.93L179.936 120.931L180.568 122.278L180.569 122.278L181.263 123.768L181.263 123.768ZM182.27 125.956L182.528 126.522L182.349 126.129L182.35 126.129L181.739 124.797L181.739 124.797L181.599 124.495L181.599 124.496L181.935 125.225L182.269 125.955L182.27 125.956ZM184.534 131.037L184.836 131.735L184.637 131.274L184.638 131.273C184.473 130.892 184.291 130.475 184.093 130.022L184.092 130.022L183.813 129.388L183.533 128.756L183.533 128.756L182.95 127.454L182.93 127.411L182.93 127.412L183.256 128.137L183.577 128.857L183.578 128.858L183.896 129.578L183.896 129.578L184.216 130.306L184.534 131.036L184.534 131.037ZM185.463 133.21L185.463 133.21L185.168 132.509L185.167 132.509L184.903 131.891L184.903 131.891L184.845 131.756L184.845 131.757L185.154 132.479L185.154 132.479L185.463 133.21ZM185.537 133.385L185.741 133.871L185.665 133.689L185.666 133.689L185.537 133.385ZM186.96 136.855L186.996 136.945L186.996 136.945L186.96 136.855ZM186.585 135.923L186.599 135.955L186.586 135.923L186.585 135.923ZM187.336 137.806L187.58 138.431L187.397 137.963L187.336 137.806ZM187.945 139.382L187.946 139.383L187.624 138.546L187.624 138.547L187.945 139.382ZM188.607 141.149L188.607 141.149C188.391 140.561 188.171 139.975 187.949 139.392L188.263 140.222L188.263 140.223L188.607 141.149ZM190.344 146.133L190.389 146.269L190.274 145.92L190.344 146.133ZM190.922 147.936L190.922 147.937ZM190.922 147.937L191.003 148.198ZM191.003 148.198L191.003 148.198ZM200.567 186.101C200.743 187.012 200.916 187.925 201.084 188.839C200.916 187.925 200.743 187.012 200.567 186.101ZM197.99 267.735C197.898 267.907 197.805 268.077 197.711 268.246C197.805 268.077 197.898 267.906 197.99 267.735ZM189.761 277.897C187.848 279.428 185.733 280.708 183.403 281.707C185.733 280.708 187.846 279.43 189.756 277.902C191.01 276.898 192.177 275.786 193.261 274.573C192.179 275.784 191.013 276.894 189.761 277.897ZM176.451 283.727C175.178 283.943 173.856 284.093 172.482 284.174ZM177.313 283.569C177.04 283.623 176.764 283.674 176.486 283.721C176.764 283.674 177.04 283.623 177.313 283.569ZM178.588 283.292C178.2 283.385 177.806 283.471 177.407 283.551C177.806 283.471 178.199 283.385 178.588 283.292ZM180.391 282.804C180.217 282.857 180.042 282.908 179.866 282.958C180.042 282.908 180.217 282.857 180.391 282.804ZM171.371 284.224C170.927 284.239 170.477 284.246 170.023 284.246C170.478 284.246 170.927 284.238 171.371 284.224ZM172.482 284.174C172.215 284.19 171.947 284.203 171.676 284.214ZM130.89 282.983C123.952 284.969 120.244 289.685 118.925 298.668C120.247 289.677 124.002 284.956 131.042 282.968C137.28 281.207 146.097 281.612 158.099 283.093C146.01 281.6 137.138 281.195 130.89 282.983ZM118.364 307.46C118.352 320.703 121.188 340.133 125.598 368.063C121.188 340.133 118.352 320.703 118.364 307.46ZM132.092 409.209C133.277 416.856 133.838 424.131 133.834 431.04C133.838 424.131 133.277 416.856 132.092 409.209ZM173.162 102.267L173.171 102.312ZM141.435 9.2305L141.435 9.22669L141.296 8.93284L141.435 9.2305ZM142.489 11.4649L142.488 11.442L141.913 10.2329L141.914 10.2501L142.489 11.4649ZM142.522 12.4909L142.522 12.4867L142.381 12.1909L142.522 12.4909ZM143.568 13.7363L143.568 13.7105L142.939 12.3878L142.94 12.4167L143.568 13.7363ZM143.574 14.7221L143.573 14.6987L143 13.4943L143.002 13.5114L143.574 14.7221ZM143.607 15.7475L143.607 15.7438L143.467 15.4488L143.607 15.7475ZM145.079 16.9023L145.079 16.9112L145.508 17.8157L145.079 16.9023ZM144.67 16.0512L144.671 16.0361L143.995 14.6101L143.996 14.635L144.082 14.8157L144.67 16.0512ZM144.653 16.9938L144.653 16.968L144.024 15.6449L144.026 15.6736L144.653 16.9938ZM144.659 17.9801L144.659 17.9567L144.086 16.751L144.087 16.7681L144.659 17.9801ZM144.693 19.0056L144.692 19.0015L144.552 18.7068L144.693 19.0056ZM146.164 20.1602L146.164 20.1691L146.594 21.0736L146.164 20.1602ZM145.755 19.3092L145.756 19.2945L145.08 17.8671L145.081 17.8921L145.167 18.0737L145.755 19.3092ZM145.739 20.2518L145.739 20.2259L145.109 18.9017L145.11 18.9307L145.739 20.2518ZM145.745 21.2381L145.745 21.2146L145.17 20.0081L145.172 20.025L145.745 21.2381ZM145.778 22.2635L145.778 22.2594L145.638 21.9647L145.778 22.2635ZM147.25 23.4189L147.25 23.4284L147.679 24.3316L147.25 23.4189ZM146.841 22.5681L146.842 22.5533L146.166 21.1252L146.166 21.15L146.253 21.3316L146.841 22.5681ZM146.824 23.5105L146.825 23.4848L146.195 22.1597L146.196 22.1887L146.824 23.5105ZM146.831 24.4967L146.831 24.4735L146.256 23.2661L146.258 23.283L146.831 24.4967ZM146.864 25.5224L146.864 25.5186L146.723 25.2227L146.864 25.5224ZM148.337 26.6782L148.336 26.6876L148.765 27.5896L148.337 26.6782ZM147.928 25.8272L147.928 25.8124L147.252 24.384L147.252 24.4088L147.338 24.5895L147.928 25.8272ZM147.911 26.7697L147.911 26.7439L147.281 25.4186L147.282 25.4476L147.911 26.7697ZM147.917 27.7556L147.917 27.7327L147.342 26.5249L147.344 26.542L147.917 27.7556ZM147.95 28.781L147.95 28.7774L147.809 28.4807L147.95 28.781ZM149.422 29.9366L149.422 29.946L149.85 30.8476L149.422 29.9366ZM149.013 29.0852L149.014 29.0704L148.338 27.6435L148.339 27.6689L148.424 27.8476L149.013 29.0852ZM148.996 30.0281L148.997 30.0023L148.367 28.6785L148.369 28.7071L148.996 30.0281ZM149.003 31.0146L149.003 30.9915L148.428 29.7841L148.43 29.8012L149.003 31.0146ZM149.036 32.046L149.036 32.0366L148.74 31.4121L149.036 32.046ZM150.508 33.1953L150.508 33.2048L150.936 34.1056L150.508 33.1953ZM150.099 32.344L150.1 32.3293L149.424 30.9015L149.424 30.9269L149.509 31.1055L150.099 32.344ZM150.082 33.2864L150.082 33.2607L149.453 31.9365L149.454 31.9655L150.082 33.2864ZM150.089 34.278L150.088 34.2494L149.514 33.0429L149.516 33.0663L150.089 34.278ZM150.123 35.3117L150.122 35.3003L149.747 34.5102L150.123 35.3117ZM151.584 36.4312L151.583 36.4406L152.021 37.3636L151.584 36.4312ZM151.19 35.6146L151.191 35.5995L150.51 34.1603L150.51 34.1858L150.595 34.3636L151.19 35.6146ZM151.171 36.5559L151.171 36.5245L150.539 35.1956L150.541 35.2299L151.171 36.5559ZM151.178 37.5507L151.177 37.5201L150.601 36.3078L150.603 36.3332L151.178 37.5507ZM151.211 38.5759L151.211 38.5726L151.108 38.3556L151.211 38.5759ZM152.67 39.6921L152.67 39.7068L153.27 40.971L152.67 39.6921ZM152.278 38.8807L152.278 38.8603L151.586 37.3982L151.587 37.429L151.679 37.6239L152.278 38.8807ZM152.258 39.8241L152.259 39.7909L151.617 38.4438L151.619 38.479L152.258 39.8241ZM152.263 40.8056L152.262 40.7831L151.679 39.5585L151.681 39.5744L152.263 40.8056ZM153.755 42.9541L153.755 42.9706L154.435 44.4035L153.755 42.9541ZM153.362 42.1429L153.362 42.1206L152.672 40.6628L152.672 40.6951L152.763 40.8855L153.362 42.1429ZM153.344 43.0833L153.344 43.0575L152.703 41.7087L152.704 41.7374L153.344 43.0833ZM153.35 44.0622L153.349 44.0446L152.767 42.8197L152.767 42.8303L153.35 44.0622ZM165.906 81.1879L165.937 81.2516L165.927 81.2057L165.897 81.1429L165.906 81.1879ZM154.841 46.2198L154.841 46.228L155.221 47.0283L154.841 46.2198ZM154.449 45.404L154.45 45.3898L153.759 43.9306L153.759 43.9548L153.849 44.144L154.449 45.404ZM154.429 46.3352L154.429 46.3134L153.788 44.9662L153.789 44.9888L154.429 46.3352ZM154.436 47.3161L154.436 47.2997L153.853 46.0735L153.853 46.0833L154.436 47.3161ZM154.469 48.3428L154.468 48.3371L154.238 47.8504L154.469 48.3428ZM166.994 84.4523L167.021 84.5071L167.011 84.4605L166.985 84.4065L166.994 84.4523ZM166.221 82.8222L166.282 82.9494L166.274 82.9113L166.214 82.7859L166.221 82.8222ZM155.928 49.4794L155.928 49.484L156.142 49.9352L155.928 49.4794ZM155.535 48.6584L155.535 48.6477L154.844 47.186L154.844 47.2069L154.936 47.3989L155.535 48.6584ZM155.516 49.5881L155.516 49.5689L154.875 48.2213L154.876 48.2422L155.516 49.5881ZM155.522 50.5765L155.521 50.5499L154.938 49.325L154.939 49.3438L155.522 50.5765ZM155.555 51.6045L155.555 51.5991L155.367 51.2026L155.555 51.6045ZM168.076 87.703L168.106 87.7638L168.096 87.7177L168.068 87.6575L168.076 87.703ZM167.31 86.086L167.365 86.2034L167.357 86.1658L167.303 86.0508L167.31 86.086ZM166.519 84.4094L166.607 84.5983L166.604 84.5818L166.517 84.398L166.519 84.4094ZM157.015 52.7354L157.015 52.7387L157.156 53.037L157.015 52.7354ZM156.621 51.9106L156.621 51.9012L155.929 50.4391L155.93 50.4581L156.023 50.6542L156.621 51.9106ZM156.602 52.8508L156.602 52.8225L155.961 51.4737L155.962 51.5047L156.602 52.8508ZM156.607 53.8357L156.607 53.8108L156.023 52.5846L156.024 52.6031L156.607 53.8357ZM156.642 54.8649L156.641 54.8604L156.496 54.5539L156.642 54.8649ZM169.162 90.9596L169.194 91.026L169.184 90.9814L169.154 90.9175L169.162 90.9596ZM168.391 89.3329L168.45 89.458L168.443 89.4242L168.384 89.3003L168.391 89.3329ZM167.606 87.6686L167.69 87.8488L167.688 87.837L167.604 87.6599L167.606 87.6686ZM158.101 55.9889L158.101 56.0007L158.652 57.1623L158.101 55.9889ZM157.706 55.1706L157.707 55.153L157.016 53.6942L157.017 53.7212L157.108 53.9138L157.706 55.1706ZM157.688 56.1107L157.688 56.0841L157.047 54.7373L157.049 54.7671L157.688 56.1107ZM157.692 57.0933L157.692 57.0696L157.11 55.8463L157.111 55.863L157.692 57.0933ZM157.727 58.1229L157.727 58.1191L157.612 57.8763L157.727 58.1229ZM170.252 94.2254L170.274 94.2719L170.265 94.2291L170.244 94.1841L170.252 94.2254ZM169.476 92.5881L169.538 92.7189L169.531 92.6861L169.47 92.5582L169.476 92.5881ZM168.687 90.9139L168.774 91.1002L168.773 91.0912L168.686 90.909L168.687 90.9139ZM159.186 59.2497L159.186 59.2596L159.655 60.2467L159.186 59.2497ZM158.792 58.4299L158.792 58.413L158.103 56.9571L158.103 56.9829L158.194 57.173L158.792 58.4299ZM158.774 59.3687L158.774 59.3429L158.134 57.9981L158.135 58.0264L158.774 59.3687ZM158.779 60.352L158.778 60.3282L158.197 59.1066L158.198 59.1221L158.779 60.352ZM158.813 61.3787L158.813 61.3772L158.742 61.2276L158.813 61.3787ZM171.331 97.4658L171.362 97.5313L171.354 97.4899L171.323 97.4262L171.331 97.4658ZM170.566 95.8517L170.618 95.9624L170.612 95.9318L170.56 95.8235L170.566 95.8517ZM169.772 94.1677L169.863 94.3628L169.862 94.3541L169.771 94.1628L169.772 94.1677ZM160.273 62.5102L160.273 62.52L160.7 63.4191L160.273 62.5102ZM159.879 61.6915L159.88 61.6759L159.188 60.216L159.188 60.2405L159.28 60.4317L159.879 61.6915ZM159.86 62.6283L159.86 62.6034L159.22 61.2562L159.221 61.2844L159.86 62.6283ZM159.866 63.6129L159.866 63.5905L159.283 62.3663L159.284 62.381L159.866 63.6129ZM159.899 64.6376L159.899 64.6347L159.783 64.3903L159.899 64.6376ZM173.171 102.312L173.172 102.315L173.162 102.268M172.421 100.734L172.446 100.786L172.436 100.739L172.412 100.688L172.421 100.734ZM171.645 99.0987L171.707 99.2282L171.699 99.1915L171.639 99.0643L171.645 99.0987ZM170.863 97.4393L170.944 97.6117L170.941 97.5974L170.861 97.429L170.863 97.4393ZM161.358 65.7677L161.358 65.7763L161.757 66.6163L161.358 65.7677ZM160.965 64.9495L160.965 64.9343L160.274 63.4743L160.275 63.4988L160.366 63.69L160.965 64.9495ZM160.946 65.8846L160.946 65.8592L160.306 64.515L160.307 64.5414L160.946 65.8846ZM160.952 66.8701L160.951 66.8476L160.37 65.6243L160.371 65.6403L160.952 66.8701ZM160.986 67.8964L160.986 67.894L160.893 67.6981L160.986 67.8964ZM173.504 103.994L173.537 104.063L173.526 104.008L173.494 103.941L173.504 103.994ZM172.737 102.376L172.792 102.493L172.784 102.448L172.729 102.333L172.737 102.376ZM171.945 100.695L172.034 100.886L172.03 100.863L171.941 100.676L171.945 100.695ZM162.05 68.2045L162.05 68.1898L161.362 66.7363L161.362 66.76L161.451 66.9469L162.05 68.2045ZM162.03 69.1393L162.03 69.1135L161.392 67.7721L161.393 67.8L162.03 69.1393ZM162.037 70.1256L162.037 70.1031L161.455 68.8818L161.456 68.8966L162.037 70.1256ZM162.07 71.1511L162.07 71.1486L161.969 70.9357L162.07 71.1511ZM175.345 108.838L175.346 108.841L175.338 108.8L175.337 108.798L175.345 108.838ZM174.593 107.258L174.618 107.309L174.609 107.267L174.586 107.217L174.593 107.258ZM173.817 105.62L173.881 105.755L173.875 105.724L173.812 105.592L173.817 105.62ZM173.032 103.954L173.117 104.133L173.115 104.127L173.032 103.952L173.032 103.954ZM163.627 75.3978L163.628 75.4121L163.988 76.1744L163.987 76.1548L163.627 75.3978ZM163.118 72.4022L163.118 72.3764L162.476 71.0263L162.477 71.0537L163.118 72.4022ZM163.125 73.3876L163.125 73.366L162.538 72.1337L162.54 72.1484L163.125 73.3876ZM163.159 74.4144L163.159 74.412L163.087 74.2615L163.159 74.4144ZM175.675 110.504L175.708 110.574L175.7 110.533L175.667 110.464L175.675 110.504ZM174.907 108.884L174.961 108.999L174.955 108.967L174.902 108.855L174.907 108.884ZM174.114 107.201L174.206 107.398L174.204 107.387L174.112 107.194L174.114 107.201ZM186.149 134.853L186.147 134.849L186.139 134.829L186.139 134.828L185.903 134.259L185.903 134.259L185.771 133.943L185.771 133.944L186.082 134.693L186.082 134.694L186.391 135.447L186.392 135.448L186.411 135.494L186.368 135.389L186.369 135.388L186.151 134.857L186.151 134.857L186.149 134.853ZM194.453 159.993L194.454 159.993L194.463 160.027C196.665 168.063 198.69 176.537 200.378 185.126C197.909 172.563 194.721 160.249 191.309 149.186C191.799 150.774 192.286 152.396 192.769 154.046C193.334 155.978 193.897 157.962 194.453 159.991L194.453 159.993ZM117.98 295.868C116.643 305.676 118.085 320.477 121.25 342.183C118.416 322.233 117.184 308.404 118.46 299.045C119.749 289.595 123.554 284.658 130.778 282.591C137.947 280.539 148.483 281.34 163.291 283.359C166.574 283.807 169.627 283.934 172.459 283.767C175.367 283.595 178.045 283.11 180.504 282.342C183.91 281.279 186.899 279.666 189.505 277.579C192.232 275.395 194.543 272.69 196.478 269.548C198.332 266.538 199.843 263.123 201.045 259.379C202.309 255.443 203.233 251.143 203.857 246.564C205.428 235.04 205.107 221.75 203.552 208.028C203.194 204.859 202.769 201.666 202.287 198.469C204.491 214.423 205.192 230.075 203.376 243.39C202.109 252.684 199.616 260.844 195.555 267.181C191.484 273.533 185.84 278.054 178.279 280.049C173.64 281.274 168.281 281.546 162.125 280.707C132.846 276.715 120.484 277.511 117.98 295.868ZM140.348 5.9654L140.21 5.67487L140.348 5.96916L140.348 5.9654ZM141.402 8.18207L140.826 6.97137L140.827 6.98865L141.402 8.20533L141.402 8.18207ZM142.483 10.4533L141.852 9.12692L141.853 9.15558L142.483 10.4789L142.483 10.4533ZM143.585 12.779L142.91 11.3529L142.911 11.3784L142.996 11.5577L143.584 12.7941L143.585 12.779ZM144.422 14.5577L143.994 13.6451L143.994 13.6541L144.422 14.5577ZM162.624 69.4123L162.621 69.4025L162.443 69.0224L162.443 69.0311L162.624 69.4123ZM163.021 71.221L163.014 71.1874L162.446 69.989L162.446 70.014L162.537 70.2049L163.021 71.221ZM163.763 74.7319L163.754 74.6882L163.564 74.2889L163.566 74.3163L163.763 74.7319ZM165.43 81.1371L165.433 81.1514L165.52 81.3362L165.516 81.319L165.43 81.1371ZM165.128 79.5251L165.135 79.5618L165.193 79.6841L165.185 79.6456L165.128 79.5251ZM9.46984e-08 442.197C40.7572 427.437 109.621 389.213 96.0671 301.727C94.4312 291.167 92.8769 281.394 91.4472 272.399C84.8458 230.872 80.8795 205.923 82.8381 191.559C85.3898 172.845 97.8763 172.017 127.44 176.048C132.025 176.673 136.162 176.677 139.882 176.126C148.536 174.844 154.944 170.555 159.524 164.112C164.115 157.652 166.877 149.022 168.233 139.081C170.142 125.078 169.261 108.473 166.77 91.6516C166.631 91.2167 166.505 90.8088 166.391 90.43C166.27 90.0302 166.15 89.6173 166.03 89.196L166.03 89.1952C165.929 88.8387 165.832 88.4873 165.74 88.1436C165.649 87.8043 165.56 87.4565 165.471 87.1022C165.165 86.2177 164.875 85.3384 164.604 84.4631C164.221 83.3823 163.863 82.309 163.531 81.2423C163.143 80.148 162.78 79.0617 162.444 77.9814C162.056 76.8876 161.693 75.8017 161.357 74.7221C160.966 73.6202 160.6 72.5261 160.263 71.4385C159.878 70.3545 159.519 69.278 159.186 68.2079C158.799 67.1158 158.436 66.0309 158.1 64.953C157.71 63.8525 157.344 62.7594 157.007 61.673C156.62 60.5818 156.257 59.4971 155.922 58.4197C155.537 57.3345 155.176 56.2562 154.843 55.1845C154.452 54.0839 154.087 52.9909 153.749 51.9045C153.646 51.6148 153.545 51.3258 153.446 51.0371C153.174 50.2459 152.917 49.4587 152.673 48.6748C152.567 48.376 152.463 48.0776 152.36 47.7801C152.089 46.99 151.832 46.2043 151.589 45.4221C151.482 45.1213 151.377 44.8217 151.275 44.5221C151.004 43.7345 150.749 42.951 150.505 42.1706C150.398 41.8682 150.292 41.5662 150.189 41.265C149.917 40.4732 149.659 39.6861 149.415 38.9017C149.309 38.603 149.205 38.3044 149.103 38.0066C148.83 37.2124 148.572 36.4228 148.327 35.636C148.222 35.3392 148.118 35.044 148.017 34.7486C147.743 33.9504 147.484 33.1566 147.238 32.3662C147.133 32.0731 147.032 31.7812 146.931 31.4895C146.655 30.6862 146.395 29.8872 146.148 29.0917C146.045 28.8037 145.945 28.5167 145.846 28.2297C145.58 27.4553 145.329 26.6847 145.089 25.9173C144.977 25.6029 144.867 25.289 144.76 24.9755C144.493 24.1969 144.239 23.4224 143.999 22.6511C143.889 22.3401 143.78 22.0297 143.674 21.72C143.402 20.9287 143.144 20.1414 142.901 19.3576C142.795 19.0587 142.69 18.7604 142.588 18.4629C142.306 17.6417 142.039 16.8242 141.787 16.0112C141.691 15.7403 141.596 15.4701 141.504 15.2C141.226 14.3926 140.964 13.5895 140.716 12.7904C140.615 12.5064 140.516 12.2224 140.418 11.9391C140.146 11.145 139.888 10.3549 139.643 9.56849C139.538 9.27221 139.434 8.97661 139.333 8.68119C139.06 7.88696 138.802 7.09696 138.557 6.31054C138.452 6.01426 138.349 5.71866 138.247 5.42325C137.975 4.62901 137.717 3.83901 137.472 3.05259C137.367 2.75631 137.263 2.46028 137.162 2.16524C136.889 1.37106 136.631 0.581005 136.386 -0.205418C136.281 -0.501695 136.177 -0.797602 136.076 -1.09277C135.803 -1.88695 135.545 -2.67694 135.301 -3.46343C135.196 -3.76013 135.092 -4.0553 134.99 -4.35072C134.718 -5.14496 134.459 -5.93495 134.215 -6.72138C134.11 -7.01815 134.006 -7.31325 133.905 -7.60873C133.632 -8.40291 133.374 -9.19293 133.13 -9.97929C133.024 -10.2756 132.921 -10.5715 132.819 -10.8667C132.547 -11.6609 132.289 -12.4509 132.044 -13.2373C131.939 -13.534 131.835 -13.8291 131.734 -14.1246C122.357 -41.4236 128.812 -64.2163 200.019 -88.6761C219.362 -95.3208 234.559 -100.55 246.18 -105L246.18 -104.568C234.553 -100.116 219.394 -94.8995 200.151 -88.2896C135.425 -66.0555 124.431 -45.2639 130.091 -21.2087C126.184 -44.0675 139.074 -64.1109 201.104 -85.4184C219.85 -91.8577 234.704 -96.9676 246.18 -101.328L246.18 -100.896C234.7 -96.5352 219.886 -91.4379 201.237 -85.0315C136.511 -62.7975 125.517 -42.0059 131.176 -17.9507C127.27 -40.8095 140.159 -60.8525 202.19 -82.1603C220.351 -88.3986 234.857 -93.3896 246.18 -97.6591L246.18 -97.2272C234.856 -92.9572 220.389 -87.9796 202.322 -81.7735C137.596 -59.5395 126.603 -38.7479 132.262 -14.6927C128.356 -37.5511 141.246 -57.5945 203.275 -78.9023C220.861 -84.9433 235.02 -89.8136 246.18 -93.9929L246.18 -93.5608C235.021 -89.3824 220.903 -84.5251 203.408 -78.5156C138.682 -56.2815 127.688 -35.4896 133.347 -11.4346C129.441 -34.2933 142.331 -54.3364 204.361 -75.6442C221.381 -81.491 235.192 -86.2416 246.18 -90.3297L246.18 -89.8982C235.196 -85.8112 221.425 -81.0737 204.493 -75.2574C139.768 -53.0234 128.774 -32.2318 134.433 -8.17658C130.527 -31.0355 143.417 -51.0788 205.446 -72.3863C221.911 -78.0421 235.372 -82.6722 246.18 -86.6691L246.18 -86.2371C235.378 -82.2422 221.958 -77.626 205.579 -71.9994C142.062 -50.1811 130.289 -29.7508 135.219 -6.26321L135.352 -5.95107C132.01 -28.3824 145.437 -48.142 206.532 -69.1285C222.45 -74.5965 235.56 -79.1055 246.18 -83.0109L246.18 -82.5793C235.569 -78.6773 222.499 -74.1813 206.665 -68.7418C144.379 -47.3462 131.85 -27.2861 136.036 -4.36836L136.284 -3.80346C133.552 -25.778 147.533 -45.231 207.618 -65.8705C222.997 -71.1537 235.756 -75.5418 246.18 -79.3549L246.18 -78.9228C235.766 -75.1132 223.049 -70.7392 207.75 -65.4839C146.656 -44.4969 133.432 -24.7963 136.9 -2.42194L137.248 -1.65037C135.122 -23.1735 149.628 -42.3195 208.703 -62.6126C223.553 -67.714 235.959 -71.9801 246.18 -75.7009L246.18 -75.2688C235.972 -71.5526 223.607 -67.2999 208.836 -62.2258C148.889 -41.6333 135.031 -22.2788 137.808 -0.422418L138.241 0.517556C136.712 -20.5633 151.713 -39.4049 209.789 -59.3545C221.848 -63.497 232.297 -67.091 241.25 -70.2803C242.945 -70.8843 244.588 -71.4746 246.18 -72.0516L246.18 -71.6176C244.631 -71.0559 243.033 -70.4821 241.385 -69.8952C232.394 -66.6919 221.96 -63.1033 209.921 -58.9678C151.083 -38.7563 136.644 -19.7366 138.755 1.62696L139.263 2.71127C138.317 -17.9414 153.779 -36.4834 210.875 -56.0965C223.322 -60.3722 234.057 -64.0639 243.232 -67.3411C244.233 -67.6986 245.216 -68.0514 246.18 -68.3997L246.18 -67.9651C245.26 -67.6329 244.323 -67.2969 243.369 -66.956C234.198 -63.68 223.459 -59.9872 211.007 -55.7098C153.231 -35.8635 138.266 -17.1656 139.742 3.73082L140.315 4.94462C139.926 -15.298 155.81 -33.5506 211.96 -52.8384C224.866 -57.2714 235.93 -61.0772 245.252 -64.418L246.18 -64.7511L246.18 -64.3185L245.39 -64.0346C235.964 -60.6566 224.943 -56.8661 212.093 -52.4517C155.327 -32.9521 139.888 -14.5609 140.766 5.89544L141.396 7.2192C141.538 -12.6319 157.807 -30.6049 213.046 -49.5804C225.871 -53.9858 236.88 -57.7713 246.18 -61.1017L246.18 -60.6693C236.825 -57.321 225.896 -53.5623 213.178 -49.1937C157.372 -30.0236 141.51 -11.9252 141.824 8.1177L141.91 8.29993L142.499 9.53681C143.146 -9.94286 159.764 -27.6465 214.131 -46.3225C226.46 -50.5574 237.108 -54.2195 246.18 -57.4574L246.18 -57.0254C237.077 -53.7773 226.499 -50.1392 214.264 -45.9357C159.366 -27.0775 143.123 -9.25737 142.909 10.3972L143.625 11.9078C144.746 -7.22313 161.677 -24.6729 215.217 -43.0645C227.048 -47.1285 237.333 -50.6647 246.18 -53.812L246.18 -53.3791C237.335 -50.2336 227.107 -46.7165 215.349 -42.6777C161.314 -24.1158 144.727 -6.55924 144.014 12.7309L144.772 14.341C146.329 -4.46796 163.533 -21.6797 216.303 -39.8065C227.653 -43.7053 237.579 -47.1182 246.18 -50.169L246.18 -49.7361C237.59 -46.6903 227.717 -43.295 216.435 -39.4198C163.204 -21.1346 146.313 -3.82456 145.14 15.1278C145.403 15.6919 145.666 16.258 145.929 16.8265C147.892 -1.68205 165.343 -18.6704 217.388 -36.5485C228.263 -40.2839 237.83 -43.5737 246.18 -46.5267L246.18 -46.0939C237.847 -43.1478 228.331 -39.8751 217.521 -36.1619C165.023 -18.1283 147.875 -1.04311 146.287 17.6043C146.558 18.1941 146.828 18.7864 147.097 19.381C149.427 1.14532 167.089 -15.6392 218.474 -33.2905C228.876 -36.864 238.084 -40.0297 246.18 -42.8847L246.18 -42.4513C238.112 -39.6066 228.95 -36.4569 218.606 -32.9039C166.784 -15.1029 149.407 1.77518 147.44 20.1434C147.718 20.7626 147.996 21.3847 148.271 22.0092C150.924 4.01658 168.766 -12.5847 219.559 -30.0325C229.501 -33.4478 238.35 -36.4905 246.18 -39.2452L246.18 -38.8119C238.38 -36.0681 229.576 -33.0411 219.692 -29.646C168.471 -12.0514 150.901 4.64065 148.602 22.762C148.884 23.4079 149.165 24.0569 149.442 24.7089C152.382 6.93079 170.377 -9.50749 220.645 -26.7745C230.131 -30.0334 238.622 -32.9525 246.18 -35.6056L246.18 -35.1727C238.649 -32.5294 230.205 -29.6264 220.777 -26.388C170.082 -8.97373 152.351 7.55695 149.763 25.4637C150.048 26.1384 150.33 26.8162 150.61 27.4976C153.788 9.89886 171.906 -6.4015 221.73 -23.5166C230.764 -26.6197 238.895 -29.4155 246.18 -31.9668L246.18 -31.5339C238.926 -28.9937 230.84 -26.2139 221.863 -23.1301C171.605 -5.86619 153.746 10.53 150.921 28.2586C151.208 28.9673 151.492 29.6802 151.771 30.3962C152.097 28.7093 152.56 27.034 153.178 25.368C158.951 9.79259 178.129 -4.90841 222.816 -20.2586C231.403 -23.2084 239.175 -25.8795 246.18 -28.3282L246.18 -27.8958C239.207 -25.4589 231.48 -22.8029 222.949 -19.872C178.396 -4.56796 159.292 10.0477 153.561 25.5086C152.872 27.3676 152.378 29.2391 152.056 31.1266C152.345 31.8763 152.63 32.6303 152.91 33.3878C153.296 31.4748 153.861 29.5764 154.628 27.6893C160.816 12.4609 180.11 -1.95782 223.902 -17.0006C232.047 -19.7987 239.46 -22.347 246.18 -24.6918L246.18 -24.2589C239.494 -21.9266 232.126 -19.3938 224.034 -16.6141C180.372 -1.61571 161.15 12.7224 155.006 27.8429C154.16 29.9241 153.564 32.0217 153.185 34.1381C153.47 34.9237 153.751 35.7139 154.025 36.5079C154.474 34.3294 155.156 32.17 156.105 30.0251C162.691 15.136 182.079 0.995942 224.987 -13.7427C232.697 -16.3914 239.75 -18.8154 246.18 -21.0553L246.18 -20.6229C239.784 -18.3953 232.776 -15.9863 225.12 -13.3562C182.336 1.34012 163.019 15.4036 156.479 30.1895C155.442 32.5334 154.727 34.8967 154.29 37.2853C154.545 38.0382 154.794 38.7947 155.037 39.5551L155.111 39.7679C155.624 37.2801 156.441 34.8167 157.611 32.3712C164.579 17.8159 184.042 3.95349 226.073 -10.4847C233.351 -12.9849 240.044 -15.2851 246.18 -17.4197L246.18 -16.9868C240.079 -14.8655 233.431 -12.5803 226.205 -10.0981C184.291 4.29975 164.899 18.0898 157.978 32.5471C156.715 35.1862 155.868 37.8491 155.376 40.5441C155.631 41.2963 155.88 42.0524 156.123 42.8131L156.196 43.0257C156.773 40.2315 157.732 37.4681 159.145 34.7277C166.477 20.501 185.994 6.91362 227.158 -7.22671C234.01 -9.58019 240.342 -11.7567 246.18 -13.7844L246.18 -13.3519C240.378 -11.337 234.09 -9.17558 227.291 -6.84013C186.239 7.26136 166.792 20.7805 159.507 34.9148C157.996 37.8457 157.01 40.8054 156.462 43.8038C156.717 44.5554 156.966 45.3112 157.208 46.071L157.281 46.2811C157.92 43.1838 159.032 40.1247 160.708 37.092C168.39 23.1899 187.942 9.87523 228.244 -3.96876C234.673 -6.17718 240.645 -8.22981 246.18 -10.1496L246.18 -9.71682C240.681 -7.80973 234.754 -5.773 228.376 -3.58218C188.183 10.2246 168.7 23.4735 161.066 37.2882C159.287 40.5081 158.152 43.7617 157.548 47.0613C157.803 47.8129 158.051 48.5691 158.294 49.3288L158.368 49.5423C159.069 46.1401 160.34 42.7839 162.303 39.4586C170.321 25.8778 189.888 12.8376 229.33 -0.710876C235.34 -2.77571 240.951 -4.70365 246.18 -6.5148L246.18 -6.08227C240.988 -4.28436 235.422 -2.37153 229.462 -0.324116C190.124 13.1888 170.624 26.1676 162.655 39.6663C160.583 43.1747 159.293 46.7212 158.635 50.3234C158.889 51.0738 159.137 51.8287 159.379 52.5869L159.453 52.8002C160.218 49.0927 161.658 45.4404 163.934 41.8219C172.276 28.5628 191.839 15.7977 230.415 2.54713C236.012 0.624467 241.262 -1.17961 246.18 -2.88121L246.18 -2.44901C241.3 -0.760524 236.094 1.0284 230.547 2.93383C192.07 16.1509 172.572 28.8573 164.279 42.0394C161.89 45.8372 160.434 49.6768 159.721 53.5822C159.975 54.3326 160.223 55.0868 160.465 55.8449L160.539 56.0599C161.369 52.0402 162.992 48.0848 165.613 44.1689C174.27 31.2354 193.809 18.7521 231.501 5.80514C236.688 4.02304 241.577 2.3433 246.18 0.752111L246.18 1.18452C241.615 2.76216 236.77 4.42698 231.633 6.19184C194.035 19.1068 174.559 31.5354 165.951 44.3952C163.212 48.4875 161.576 52.6262 160.807 56.8413C161.061 57.5914 161.309 58.3456 161.551 59.1028L161.625 59.3178C162.521 54.9677 164.35 50.6929 167.365 46.4617C176.338 33.8721 195.833 21.6884 232.586 9.06309C237.368 7.42045 241.895 5.86479 246.18 4.38525L246.18 4.81724C241.935 6.28293 237.451 7.82433 232.719 9.44979C196.053 22.0447 176.622 34.1769 167.697 46.698C164.558 51.102 162.722 55.5571 161.893 60.1006C162.147 60.8501 162.394 61.6039 162.636 62.3608L162.709 62.5713C163.685 57.8378 165.766 53.1955 169.276 48.6009C178.593 36.4069 198.006 24.5723 233.672 12.321C238.051 10.8169 242.218 9.38425 246.18 8.01752L246.18 8.44992C242.258 9.8033 238.135 11.22 233.804 12.7077C198.222 24.9303 178.869 36.7179 169.6 48.8487C165.96 53.6127 163.877 58.4328 162.977 63.3561C163.241 64.133 163.497 64.9141 163.747 65.6993L163.796 65.839C164.892 60.5203 167.378 55.3156 171.723 50.1664C181.512 38.5684 200.743 27.2632 234.757 15.579C238.739 14.2115 242.544 12.9043 246.18 11.6504L246.18 12.0824C242.584 13.322 238.823 14.6145 234.89 15.9657C200.95 27.6242 181.776 38.8873 172.035 50.4297C167.55 55.7439 165.067 61.1199 164.064 66.6246C164.296 67.3101 164.523 67.9988 164.746 68.6907C164.789 68.4897 164.84 68.2714 164.896 68.0368C165.248 66.5691 165.707 65.1108 166.283 63.6622C166.861 62.2099 167.556 60.7663 168.376 59.3334C169.066 58.1272 169.85 56.9219 170.73 55.7189C171.609 54.5181 172.585 53.3209 173.658 52.1294C174.26 51.4608 174.893 50.7925 175.557 50.1268C176.216 49.4663 176.916 48.7997 177.656 48.1293C178.216 47.6212 178.799 47.1127 179.403 46.6048C180.01 46.0931 180.633 45.5849 181.27 45.0826C181.805 44.6592 182.361 44.2318 182.934 43.8021C183.508 43.3718 184.093 42.9445 184.688 42.5219C185.205 42.155 185.745 41.7805 186.303 41.4017C186.855 41.0268 187.412 40.6561 187.975 40.2902C188.503 39.946 189.026 39.6134 189.542 39.2906C190.078 38.9554 190.62 38.6222 191.167 38.292C191.649 38.0002 192.162 37.6948 192.703 37.3785C193.232 37.0695 193.761 36.7643 194.29 36.4646C195.271 35.9087 196.292 35.3451 197.359 34.7741C197.847 34.5128 198.345 34.2493 198.851 33.9853C199.407 33.6954 199.92 33.4301 200.381 33.1956C200.842 32.9614 201.338 32.7125 201.857 32.455C202.355 32.2081 202.859 31.9604 203.366 31.7144C203.876 31.4658 204.362 31.2325 204.826 31.0114C205.321 30.7759 205.819 30.5408 206.319 30.3083C206.728 30.1183 207.206 29.8972 207.768 29.6397C208.26 29.4149 208.753 29.1905 209.246 28.9703C209.756 28.7417 210.236 28.5284 210.682 28.3318C211.174 28.1156 211.663 27.9023 212.147 27.6933L212.147 27.6942C212.628 27.4861 213.104 27.2826 213.575 27.083C214.106 26.8578 214.587 26.6551 215.026 26.4717C215.46 26.2906 215.939 26.0924 216.445 25.8847C216.987 25.6623 217.476 25.4621 217.886 25.2961C220.6 24.1979 223.452 23.0915 226.443 21.9789C229.438 20.8643 232.549 19.7527 235.777 18.6437C239.388 17.4032 242.854 16.2126 246.18 15.0666L246.18 15.9306C242.934 17.049 239.557 18.2097 236.042 19.4172C232.715 20.5594 229.546 21.6934 226.528 22.8169C223.507 23.9426 220.609 25.0698 217.83 26.1987C217.275 26.4244 216.794 26.6214 216.389 26.7885C215.977 26.9586 215.509 27.1536 214.971 27.3791C214.444 27.6003 213.961 27.805 213.519 27.9939C212.991 28.2191 212.523 28.4206 212.092 28.6077C211.655 28.797 211.164 29.0131 210.629 29.2502C210.139 29.4673 209.66 29.6815 209.193 29.8916C208.691 30.1172 208.198 30.342 207.716 30.5635L207.715 30.5635C207.224 30.7892 206.742 31.0135 206.268 31.2351C205.764 31.4712 205.266 31.7075 204.777 31.9409C204.284 32.1768 203.797 32.4117 203.318 32.646C202.86 32.8699 202.361 33.1164 201.81 33.3915C201.274 33.6584 200.78 33.9081 200.336 34.1353C199.829 34.3949 199.318 34.6622 198.805 34.9328C198.305 35.1968 197.807 35.4624 197.313 35.7297C196.814 35.9991 196.294 36.2827 195.758 36.5794C195.254 36.8584 194.75 37.1411 194.249 37.4276C193.702 37.7404 193.173 38.0493 192.66 38.3538C192.134 38.666 191.622 38.975 191.123 39.28C190.585 39.6086 190.044 39.9466 189.503 40.2891C188.953 40.6385 188.426 40.9789 187.928 41.308L187.927 41.308C187.361 41.6811 186.8 42.0601 186.245 42.4423C185.693 42.8224 185.157 43.2009 184.636 43.5769C184.04 44.0065 183.453 44.4419 182.876 44.8807C182.31 45.3112 181.754 45.7472 181.21 46.1859C180.553 46.7161 179.923 47.2436 179.321 47.7665C178.717 48.2907 178.13 48.8193 177.564 49.3487L177.563 49.3482C176.813 50.0496 176.097 50.7567 175.413 51.4683C174.735 52.1746 174.093 52.8834 173.487 53.5921C171.136 56.3415 169.324 59.1075 167.981 61.897C166.646 64.6668 165.773 67.4626 165.289 70.291C165.43 70.7097 165.574 71.1432 165.717 71.5883L165.718 71.5883L165.934 72.2591C166.048 72.5906 166.162 72.9212 166.274 73.2523C166.524 73.9913 166.769 74.7344 167.007 75.4807C167.376 76.5454 167.734 77.6159 168.078 78.692C168.45 79.7662 168.811 80.8472 169.159 81.9357C169.531 83.0078 169.891 84.0873 170.238 85.1732C170.611 86.2503 170.974 87.3358 171.323 88.4296C171.697 89.509 172.06 90.5959 172.409 91.6909C172.784 92.7708 173.147 93.8588 173.497 94.9545C173.87 96.0303 174.232 97.1144 174.581 98.2056C174.955 99.2843 175.317 100.371 175.667 101.466C176.041 102.544 176.403 103.63 176.752 104.724C177.127 105.805 177.491 106.894 177.841 107.991C178.213 109.063 178.573 110.144 178.921 111.232C179.295 112.311 179.657 113.398 180.007 114.494C180.381 115.571 180.743 116.657 181.093 117.75C181.467 118.83 181.83 119.918 182.18 121.014C182.552 122.087 182.913 123.168 183.261 124.256C183.635 125.336 183.997 126.423 184.348 127.519C184.723 128.602 185.087 129.692 185.438 130.79C185.826 131.911 186.203 133.04 186.565 134.179C186.933 135.243 187.289 136.315 187.633 137.395L187.779 137.818C188.416 139.446 189.033 141.093 189.623 142.757C190.214 144.424 190.78 146.11 191.312 147.816C196.452 164.263 201.135 183.611 203.685 202.49C205.806 218.185 206.453 233.558 204.665 246.673C204.033 251.305 203.098 255.657 201.817 259.642C200.596 263.442 199.059 266.912 197.171 269.977C195.187 273.2 192.813 275.977 190.01 278.221C187.327 280.368 184.25 282.028 180.746 283.123C178.229 283.909 175.491 284.405 172.518 284.581C169.632 284.752 166.524 284.623 163.184 284.168C148.571 282.175 138.182 281.376 131.153 283.361C124.179 285.33 120.507 290.068 119.268 299.154C117.322 313.429 121.282 338.342 127.873 379.803L127.874 379.805L127.876 379.819L127.875 379.819L127.898 379.966C129.315 388.875 130.853 398.551 132.495 409.147C134.472 421.907 134.683 433.609 133.511 444.363L133.102 444.363L132.686 444.363C133.865 433.65 133.661 421.989 131.69 409.271L131.478 407.904C133.36 421.17 133.34 433.293 131.812 444.363L131.403 444.363C133.014 432.76 132.979 420.012 130.806 405.982C129.17 395.422 127.616 385.649 126.186 376.654C119.584 335.127 115.618 310.178 117.577 295.814C120.128 277.1 132.615 276.272 162.179 280.303C168.281 281.135 173.587 280.867 178.175 279.656C185.629 277.688 191.195 273.228 195.212 266.96C199.239 260.676 201.713 252.572 202.973 243.336C205.586 224.176 202.974 200.154 198.164 177.366C202.537 199.184 204.783 221.858 202.291 240.132C201.045 249.274 198.611 257.32 194.666 263.612C190.711 269.92 185.238 274.466 177.923 276.59C173.119 277.984 167.521 278.333 161.039 277.449C131.761 273.457 119.398 274.253 116.895 292.61C114.944 306.917 118.907 331.844 125.502 373.332C126.928 382.297 128.476 392.038 130.122 402.662C132.503 418.032 132.349 431.886 130.256 444.363L129.839 444.363C131.938 431.907 132.098 418.074 129.72 402.724C128.084 392.164 126.53 382.391 125.1 373.396C118.499 331.869 114.532 306.92 116.491 292.556C119.043 273.842 131.529 273.014 161.093 277.045C167.517 277.921 173.059 277.577 177.809 276.198C185.022 274.104 190.419 269.62 194.321 263.396C198.233 257.156 200.648 249.165 201.887 240.078C204.501 220.909 201.885 196.872 197.072 174.075C201.448 195.904 203.698 218.591 201.205 236.874C199.96 246.006 197.531 254.043 193.594 260.332C189.647 266.637 184.187 271.185 176.888 273.317C172.073 274.723 166.459 275.078 159.954 274.191C130.675 270.199 118.312 270.995 115.809 289.352C113.859 303.658 117.822 328.586 124.417 370.074C125.842 379.039 127.391 388.78 129.037 399.404C131.628 416.13 131.199 431.047 128.553 444.363L128.134 444.363C130.787 431.07 131.222 416.172 128.634 399.466C126.999 388.906 125.444 379.133 124.015 370.138C117.413 328.611 113.447 303.662 115.406 289.298C117.957 270.584 130.444 269.756 160.008 273.787C166.454 274.666 172.012 274.316 176.774 272.925C183.969 270.823 189.355 266.337 193.249 260.116C197.154 253.88 199.564 245.897 200.801 236.82C203.41 217.693 200.811 193.722 196.018 170.97C200.374 192.751 202.607 215.376 200.12 233.616C198.872 242.766 196.436 250.818 192.486 257.111C188.526 263.421 183.045 267.966 175.717 270.083C170.921 271.469 165.334 271.815 158.868 270.933C129.59 266.941 117.227 267.737 114.724 286.094C112.773 300.4 116.736 325.327 123.331 366.816C124.756 375.781 126.305 385.522 127.951 396.146C130.756 414.25 130.023 430.237 126.766 444.363L126.342 444.363C129.609 430.259 130.351 414.294 127.549 396.208C125.913 385.648 124.359 375.875 122.929 366.88C116.328 325.353 112.361 300.404 114.32 286.04C116.872 267.326 129.358 266.498 158.922 270.53C165.33 271.403 170.861 271.062 175.603 269.692C182.827 267.604 188.233 263.12 192.14 256.894C196.058 250.652 198.476 242.656 199.716 233.562C202.327 214.414 199.72 190.412 194.917 167.638C199.283 189.442 201.525 212.097 199.034 230.358C197.783 239.533 195.337 247.603 191.368 253.905C187.389 260.223 181.879 264.763 174.512 266.86C169.743 268.218 164.196 268.55 157.783 267.676C128.504 263.683 116.141 264.479 113.638 282.836C111.687 297.143 115.65 322.069 122.246 363.558C123.671 372.524 125.22 382.264 126.866 392.888C129.888 412.396 128.816 429.454 124.889 444.363L124.46 444.363C128.399 429.477 129.483 412.44 126.463 392.95C124.828 382.391 123.273 372.617 121.843 363.622C115.242 322.095 111.276 297.146 113.235 282.782C115.786 264.068 128.273 263.24 157.837 267.272C164.191 268.138 169.683 267.81 174.4 266.468C181.663 264.401 187.097 259.921 191.023 253.688C194.96 247.438 197.388 239.422 198.63 230.304C201.241 211.158 198.635 187.157 193.833 164.385C198.198 186.187 200.439 208.84 197.949 227.099C196.694 236.302 194.237 244.394 190.246 250.704C186.246 257.03 180.704 261.567 173.29 263.641C168.551 264.966 163.049 265.284 156.697 264.418C127.419 260.425 115.056 261.221 112.553 279.578C110.602 293.885 114.565 318.812 121.16 360.3C122.585 369.266 124.134 379.006 125.78 389.63C129.024 410.573 127.555 428.697 122.893 444.363L122.464 444.363C127.14 428.721 128.62 410.617 125.378 389.692C123.742 379.133 122.188 369.359 120.758 360.364C114.156 318.837 110.19 293.888 112.149 279.524C114.7 260.81 127.187 259.982 156.751 264.014C163.046 264.872 168.495 264.559 173.181 263.248C180.489 261.204 185.954 256.728 189.901 250.487C193.859 244.228 196.298 236.191 197.545 227.045C200.163 207.844 197.535 183.761 192.706 160.93C197.098 182.794 199.36 205.528 196.863 223.842C195.604 233.075 193.135 241.189 189.122 247.507C185.099 253.841 179.524 258.372 172.063 260.421C167.356 261.714 161.899 262.017 155.611 261.159C126.333 257.167 113.97 257.963 111.467 276.32C109.516 290.627 113.479 315.554 120.074 357.042C121.5 366.008 123.048 375.748 124.694 386.372C128.167 408.787 126.231 427.964 120.768 444.363L120.332 444.363C125.812 427.989 127.762 408.832 124.292 386.434C122.656 375.875 121.102 366.101 119.672 357.106C113.071 315.58 109.105 290.63 111.063 276.266C113.615 257.552 126.102 256.724 155.665 260.756C161.898 261.605 167.301 261.307 171.955 260.029C179.309 258.01 184.807 253.539 188.778 247.288C192.758 241.021 195.208 232.963 196.459 223.788C199.065 204.681 196.474 180.739 191.691 158.008C196.037 179.766 198.262 202.361 195.778 220.581C194.515 229.845 192.034 237.983 187.996 244.311C183.948 250.656 178.338 255.183 170.827 257.205C166.155 258.462 160.748 258.75 154.526 257.901C125.247 253.909 112.885 254.705 110.381 273.062C108.431 287.369 112.394 312.296 118.989 353.784C120.414 362.75 121.963 372.49 123.609 383.114C127.314 407.031 124.863 427.262 118.536 444.363L118.093 444.363C124.441 427.289 126.91 407.078 123.207 383.176C121.571 372.617 120.016 362.843 118.587 353.848C111.985 312.322 108.019 287.372 109.978 273.008C112.529 254.294 125.016 253.466 154.58 257.498C160.746 258.338 166.1 258.055 170.721 256.81C178.126 254.817 183.659 250.352 187.653 244.092C191.657 237.817 194.119 229.734 195.374 220.527C197.994 201.316 195.361 177.216 190.528 154.375C194.924 176.25 197.19 199 194.691 217.326C193.424 226.621 190.931 234.782 186.87 241.118C182.799 247.471 177.153 251.992 169.591 253.986C164.953 255.21 159.595 255.482 153.44 254.643C124.162 250.651 111.799 251.447 109.296 269.804C107.345 284.111 111.308 309.038 117.903 350.526C119.329 359.491 120.877 369.232 122.523 379.856C126.466 405.308 123.445 426.592 116.19 444.363L115.74 444.363C123.02 426.619 126.062 405.357 122.121 379.918C120.485 369.359 118.931 359.585 117.501 350.59C110.9 309.064 106.933 284.114 108.892 269.75C111.444 251.036 123.93 250.208 153.494 254.24C159.594 255.071 164.9 254.803 169.487 253.593C176.941 251.626 182.509 247.165 186.526 240.898C190.554 234.613 193.028 226.509 194.288 217.272C196.901 198.107 194.288 174.077 189.475 151.283C193.85 173.107 196.098 195.789 193.606 214.068C192.335 223.394 189.828 231.579 185.743 237.924C181.647 244.287 175.964 248.801 168.351 250.769C163.748 251.958 158.441 252.215 152.354 251.385C123.076 247.393 110.713 248.189 108.21 266.546C106.259 280.853 110.222 305.78 116.818 347.268C118.243 356.234 119.792 365.974 121.438 376.598C125.624 403.62 121.972 425.955 113.723 444.363L113.265 444.363C121.542 425.984 125.22 403.672 121.035 376.66C119.4 366.101 117.845 356.327 116.415 347.332C109.814 305.806 105.848 280.856 107.806 266.492C110.358 247.778 122.845 246.95 152.408 250.982C158.442 251.804 163.697 251.551 168.249 250.375C175.754 248.435 181.358 243.981 185.399 237.704C189.451 231.41 191.939 223.282 193.202 214.014C195.81 194.889 193.213 170.92 188.421 148.17C192.776 169.948 195.008 192.569 192.521 210.808C191.245 220.166 188.726 228.376 184.615 234.732C180.493 241.103 174.773 245.613 167.106 247.552C162.541 248.706 157.286 248.948 151.269 248.128C121.991 244.135 109.628 244.931 107.125 263.288C105.174 277.595 109.137 302.522 115.732 344.01C117.157 352.976 118.706 362.716 120.352 373.34C124.789 401.978 120.419 425.35 111.106 444.363L110.647 444.363C119.991 425.38 124.385 402.03 119.95 373.402C118.314 362.843 116.76 353.069 115.33 344.074C108.729 302.548 104.762 277.598 106.721 263.234C109.273 244.52 121.759 243.692 151.323 247.724C157.286 248.537 162.491 248.298 167.007 247.156C174.566 245.245 180.207 240.796 184.273 234.51C188.35 228.208 190.849 220.055 192.117 210.754C194.734 191.567 192.11 167.506 187.289 144.69C191.673 166.538 193.93 189.253 191.434 207.553C190.154 216.943 187.622 225.176 183.486 231.54C179.34 237.92 173.583 242.423 165.863 244.333C161.335 245.453 156.132 245.68 150.183 244.87C120.905 240.877 108.542 241.673 106.039 260.03C104.088 274.337 108.051 299.264 114.647 340.752C116.072 349.718 117.621 359.458 119.266 370.082C123.961 400.381 118.793 424.779 108.346 444.363L107.878 444.363C118.359 424.812 123.557 400.435 118.864 370.144C117.228 359.585 115.674 349.811 114.244 340.816C107.643 299.29 103.677 274.34 105.635 259.976C108.187 241.262 120.674 240.434 150.237 244.466C156.133 245.27 161.286 245.046 165.766 243.937C173.377 242.055 179.053 237.613 183.144 231.319C187.245 225.008 189.758 216.832 191.03 207.5C193.638 188.379 191.042 164.415 186.252 141.669C190.605 163.444 192.835 186.06 190.349 204.294C189.064 213.716 186.519 221.975 182.358 228.348C178.186 234.737 172.391 239.234 164.617 241.114C160.126 242.201 154.975 242.413 149.098 241.612C119.819 237.619 107.457 238.415 104.953 256.772C103.003 271.079 106.966 296.006 113.561 337.494C114.986 346.46 116.535 356.2 118.181 366.824C123.139 398.828 117.093 424.247 105.445 444.363L104.967 444.363C116.654 424.281 122.736 398.884 117.779 366.886C116.143 356.327 114.588 346.553 113.159 337.558C106.557 296.032 102.591 271.082 104.55 256.719C107.101 238.004 119.588 237.176 149.152 241.208C154.978 242.002 160.08 241.793 164.522 240.718C172.186 238.865 177.9 234.429 182.016 228.126C186.143 221.806 188.668 213.605 189.945 204.24C192.554 185.107 189.953 161.126 185.158 138.367C189.516 160.155 191.752 182.788 189.264 201.036C187.975 210.491 185.416 218.775 181.229 225.156C177.031 231.555 171.198 236.045 163.369 237.895C158.917 238.948 153.819 239.145 148.012 238.354C118.734 234.361 106.371 235.157 103.868 253.515C101.917 267.821 105.88 292.748 112.475 334.236C113.901 343.202 115.449 352.942 117.095 363.566C122.325 397.323 115.314 423.755 102.395 444.363L101.906 444.363C114.868 423.792 121.923 397.383 116.693 363.628C115.057 353.069 113.503 343.295 112.073 334.3C105.472 292.774 101.505 267.824 103.464 253.461C106.016 234.746 118.502 233.918 148.066 237.95C153.822 238.735 158.871 238.54 163.277 237.498C170.994 235.674 176.746 231.246 180.887 224.933C185.04 218.604 187.579 210.378 188.86 200.982C191.476 181.803 188.856 157.75 184.037 134.941C188.418 156.781 190.672 179.484 188.177 197.779C186.884 207.267 184.312 215.573 180.099 221.965C175.875 228.372 170.003 232.855 162.121 234.675C157.707 235.694 152.663 235.878 146.927 235.096C117.648 231.103 105.285 231.899 102.782 250.256C100.832 264.563 104.795 289.49 111.39 330.978C112.815 339.944 114.364 349.684 116.01 360.308C121.519 395.872 113.444 423.306 99.1868 444.363L98.6862 444.363C112.993 423.346 121.117 395.935 115.607 360.37C113.972 349.811 112.417 340.037 110.988 331.042C104.386 289.516 100.42 264.567 102.379 250.203C104.93 231.488 117.417 230.66 146.981 234.692C152.667 235.467 157.663 235.286 162.03 234.278C169.802 232.484 175.593 228.062 179.759 221.742C183.937 215.404 186.488 207.155 187.774 197.725C190.376 178.638 187.793 154.723 183.019 132.011C187.357 153.749 189.575 176.317 187.093 194.519C185.795 204.041 183.209 212.374 178.97 218.774C174.719 225.19 168.808 229.666 160.869 231.455C156.495 232.441 151.505 232.61 145.841 231.838C116.563 227.845 104.2 228.641 101.697 246.999C99.746 261.305 103.709 286.232 110.304 327.72C111.729 336.686 113.278 346.426 114.924 357.05C120.722 394.477 111.477 422.903 95.8107 444.363L95.2974 444.363C111.018 422.945 120.321 394.544 114.522 357.112C112.886 346.553 111.332 336.779 109.902 327.784C103.301 286.258 99.3345 261.309 101.293 246.945C103.845 228.23 116.331 227.402 145.895 231.434C151.511 232.199 156.452 232.033 160.78 231.058C168.607 229.294 174.436 224.879 178.63 218.549C182.833 212.203 185.399 203.928 186.689 194.465C189.306 175.274 186.682 151.203 181.858 128.382C186.245 150.235 188.502 172.955 186.006 191.263C184.704 200.818 182.105 209.175 177.84 215.582C173.562 222.008 167.612 226.476 159.618 228.234C155.284 229.187 150.349 229.342 144.755 228.58C115.477 224.587 103.114 225.383 100.611 243.741C98.6604 258.047 102.623 282.974 109.219 324.462C110.644 333.428 112.193 343.168 113.839 353.792C119.935 393.145 109.403 422.549 92.2577 444.363L91.7308 444.363C108.936 422.594 119.535 393.216 113.436 353.854C111.8 343.295 110.246 333.521 108.816 324.526C102.215 283 98.2487 258.051 100.207 243.687C102.759 224.972 115.246 224.144 144.809 228.176C150.353 228.932 155.242 228.779 159.532 227.835C167.414 226.102 173.28 221.696 177.499 215.358C181.729 209.003 184.308 200.704 185.602 191.209C188.21 172.087 185.613 148.118 180.821 125.367C185.176 147.145 187.408 169.766 184.921 188.005C183.614 197.592 181.001 205.974 176.709 212.392C172.405 218.826 166.416 223.287 158.365 225.013C154.072 225.933 149.191 226.074 143.67 225.322C114.391 221.329 102.029 222.125 99.5256 240.483C97.5749 254.789 101.538 279.716 108.133 321.204C109.558 330.17 111.107 339.91 112.753 350.534C119.159 391.881 107.209 422.246 88.517 444.363L87.9754 444.363C106.733 422.296 118.759 391.957 112.351 350.596C110.715 340.037 109.161 330.263 107.731 321.268C101.129 279.742 97.1631 254.793 99.1219 240.429C101.673 221.714 114.16 220.887 143.724 224.918C149.197 225.664 154.031 225.524 158.28 224.614C166.219 222.912 172.125 218.512 176.37 212.166C180.626 205.803 183.218 197.48 184.517 187.951C187.125 168.822 184.526 144.845 179.732 122.089C184.089 143.874 186.323 166.501 183.836 184.746C182.524 194.368 179.897 202.774 175.578 209.201C171.248 215.644 165.218 220.097 157.111 221.79C152.858 222.678 148.033 222.806 142.584 222.064C113.306 218.071 100.943 218.867 98.44 237.225C96.4892 251.531 100.452 276.458 107.047 317.947C108.473 326.912 110.021 336.652 111.667 347.276C118.393 390.691 104.885 422.001 84.5777 444.363L84.021 444.363C104.398 422.054 117.994 390.772 111.265 347.338C109.629 336.779 108.075 327.005 106.645 318.01C100.044 276.484 96.0776 251.535 98.0363 237.171C100.588 218.456 113.075 217.629 142.638 221.66C148.04 222.396 152.82 222.27 157.027 221.391C165.022 219.721 170.968 215.329 175.24 208.974C179.522 202.602 182.128 194.254 183.432 184.692C186.018 165.727 183.485 141.999 178.771 119.419L178.756 119.386C183.04 141 185.216 163.401 182.749 181.49C181.433 191.145 178.793 199.577 174.448 206.011C170.091 212.462 164.021 216.906 155.857 218.567C151.645 219.424 146.876 219.539 141.499 218.806C112.22 214.813 99.8576 215.609 97.3546 233.967C95.4037 248.273 99.3668 273.2 105.962 314.689C107.387 323.654 108.936 333.394 110.582 344.018C117.641 389.583 102.415 421.817 80.4295 444.363L79.8568 444.363C101.917 421.875 117.242 389.67 110.18 344.08C108.544 333.521 106.989 323.747 105.56 314.752C98.9583 273.226 94.992 248.277 96.9506 233.913C99.5023 215.198 111.989 214.371 141.553 218.402C146.884 219.129 151.607 219.015 155.775 218.168C163.825 216.53 169.811 212.146 174.109 205.782C178.418 199.403 181.037 191.03 182.345 181.436C184.866 162.95 182.523 139.936 178.036 117.872L177.999 117.794C182.065 138.886 184.069 160.602 181.666 178.227C180.345 187.916 177.691 196.374 173.317 202.818C168.932 209.279 162.822 213.716 154.599 215.344C150.431 216.169 145.718 216.271 140.413 215.548C111.135 211.555 98.7719 212.351 96.269 230.709C94.318 245.015 98.2811 269.942 104.876 311.43C106.302 320.396 107.85 330.136 109.496 340.76C116.902 388.564 99.784 421.7 76.0601 444.363L75.4699 444.363C99.273 421.764 116.505 388.656 109.094 340.822C107.458 330.263 105.904 320.489 104.474 311.494C97.8727 269.968 93.9065 245.019 95.865 230.655C98.4167 211.94 110.903 211.113 140.467 215.144C145.725 215.861 150.393 215.76 154.521 214.943C162.629 213.338 168.656 208.962 172.98 202.59C177.316 196.202 179.949 187.803 181.262 178.173C183.717 160.163 181.556 137.854 177.294 116.313L177.217 116.152C181.077 136.736 182.919 157.798 180.577 174.974C179.251 184.696 176.584 193.177 172.185 199.628C167.774 206.096 161.624 210.524 153.345 212.119C149.217 212.913 144.56 213.003 139.327 212.29C110.049 208.297 97.6862 209.094 95.1832 227.451C93.2323 241.757 97.1953 266.684 103.791 308.172C105.216 317.138 106.765 326.878 108.41 337.502C116.179 387.648 96.9645 421.657 71.4445 444.363L70.8187 444.363C96.4276 421.726 115.784 387.755 108.008 337.564C106.373 327.005 104.818 317.231 103.389 308.236C96.7872 266.71 92.8209 241.761 94.7794 227.397C97.3312 208.682 109.818 207.855 139.381 211.886C144.569 212.593 149.183 212.505 153.268 211.718C161.432 210.146 167.497 205.778 171.848 199.398C176.21 193.002 178.856 184.581 180.173 174.92C182.567 157.366 180.576 135.729 176.527 114.699L176.43 114.496C180.086 134.566 181.775 154.983 179.494 171.712C178.164 181.468 175.482 189.976 171.055 196.435C166.617 202.912 160.426 207.332 152.089 208.893C148.004 209.658 143.403 209.736 138.242 209.032C108.964 205.039 96.6009 205.836 94.0978 224.193C92.1469 238.499 96.1099 263.426 102.705 304.915C104.13 313.88 105.679 323.62 107.325 334.244C115.475 386.853 93.9232 421.694 66.5508 444.363L65.9049 444.363C93.3685 421.771 115.081 386.968 106.923 334.307C105.287 323.747 103.733 313.974 102.303 304.978C95.7016 263.452 91.7353 238.503 93.694 224.139C96.2456 205.424 108.732 204.597 138.296 208.628C143.413 209.326 147.971 209.249 152.014 208.492C160.236 206.953 166.341 202.594 170.719 196.206C175.108 189.801 177.768 181.353 179.09 171.659C181.422 154.559 179.593 133.583 175.753 113.071L175.678 112.912L175.62 112.791C179.082 132.36 180.628 152.159 178.406 168.458C177.071 178.245 174.377 186.776 169.923 193.244C165.458 199.727 159.229 204.138 150.834 205.665C146.791 206.402 142.245 206.467 137.156 205.774C107.878 201.781 95.5152 202.577 93.0121 220.935C91.0614 235.241 95.0243 260.168 101.62 301.656C103.045 310.622 104.593 320.362 106.239 330.986C114.791 386.182 90.6477 421.823 61.3889 444.363L60.7219 444.363C90.073 421.908 114.398 386.306 105.837 331.049C104.202 320.489 102.647 310.716 101.217 301.72C94.6161 260.194 90.6497 235.245 92.6084 220.881C95.16 202.166 107.647 201.339 137.21 205.37C142.257 206.058 146.76 205.993 150.762 205.265C159.04 203.759 165.184 199.408 169.588 193.013C174.003 186.601 176.676 178.13 178.002 168.404C180.275 151.738 178.595 131.393 174.955 111.382L174.804 111.061C178.076 130.128 179.486 149.322 177.322 165.197C175.983 175.018 173.275 183.574 168.794 190.05C164.302 196.542 158.032 200.944 149.581 202.439C145.581 203.146 141.092 203.2 136.071 202.516C106.792 198.523 94.4297 199.32 91.9267 217.677C89.9759 231.983 93.9389 256.91 100.534 298.399C101.959 307.364 103.508 317.104 105.154 327.729C114.129 385.658 87.0938 422.053 55.9245 444.363L55.2134 444.363C86.4814 422.148 113.739 385.803 104.752 327.791C103.116 317.231 101.562 307.458 100.132 298.462C93.5305 256.936 89.5641 231.987 91.5228 217.623C94.0745 198.908 106.561 198.081 136.125 202.112C141.101 202.791 145.55 202.737 149.51 202.036C157.845 200.563 164.028 196.222 168.459 189.818C172.9 183.398 175.587 174.903 176.918 165.144C179.132 148.906 177.593 129.173 174.145 109.658L173.964 109.27C177.059 127.853 178.344 146.473 176.235 161.942C174.892 171.794 172.17 180.373 167.664 186.856C163.147 193.355 156.838 197.748 148.331 199.209C144.373 199.889 139.937 199.933 134.985 199.258C105.707 195.266 93.3441 196.062 90.8411 214.419C88.8903 228.725 92.8533 253.652 99.4485 295.141C100.874 304.106 102.422 313.847 104.068 324.471C113.495 385.316 83.1949 422.4 50.1039 444.363L49.3687 444.363C82.554 422.506 113.107 385.472 103.666 324.533C102.03 313.973 100.476 304.2 99.0462 295.204C92.4449 253.678 88.4785 228.729 90.4372 214.365C92.9889 195.65 105.475 194.823 135.039 198.854C139.948 199.523 144.343 199.48 148.262 198.807C156.652 197.366 162.873 193.033 167.329 186.622C171.797 180.195 174.497 171.677 175.831 161.887C177.99 146.055 176.581 126.898 173.313 107.863L173.113 107.429C176.039 125.539 177.206 143.606 175.151 158.681C173.803 168.565 171.069 177.167 166.536 183.658C161.992 190.165 155.645 194.55 147.084 195.978C143.166 196.632 138.784 196.666 133.9 196C104.621 192.008 92.2585 192.804 89.7555 211.161C87.8046 225.467 91.7677 250.394 98.363 291.883C99.7882 300.848 101.337 310.589 102.983 321.213C112.892 385.174 78.9033 422.88 43.9194 444.363L43.1343 444.363C78.2117 423.002 112.508 385.357 102.58 321.275C100.945 310.715 99.3903 300.942 97.9605 291.946C91.3592 250.42 87.393 225.471 89.3515 211.107C91.9032 192.393 104.39 191.565 133.954 195.596C138.796 196.256 143.138 196.223 147.017 195.576C155.461 194.167 161.721 189.843 166.203 183.425C170.695 176.991 173.408 168.45 174.747 158.627C176.853 143.185 175.565 124.582 172.468 106.014L172.237 105.5C175.006 123.165 176.068 140.72 174.063 155.427C172.711 165.339 169.965 173.963 165.409 180.459C160.841 186.972 154.458 191.348 145.845 192.745C141.966 193.375 137.634 193.399 132.814 192.742C103.536 188.75 91.1727 189.546 88.6697 207.903C86.7189 222.209 90.6819 247.136 97.2772 288.625C98.7024 297.59 100.251 307.331 101.897 317.955C112.327 385.273 74.1294 423.517 37.3239 444.363L36.4843 444.363C73.3761 423.657 111.948 385.488 101.495 318.017C99.8592 307.457 98.3048 297.684 96.8751 288.688C90.2737 247.162 86.3075 222.213 88.2659 207.849C90.8177 189.135 103.304 188.307 132.868 192.338C137.648 192.99 141.94 192.966 145.78 192.343C154.276 190.965 160.57 186.649 165.075 180.226C169.591 173.786 172.316 165.223 173.659 155.373C175.716 140.292 174.535 122.196 171.595 104.062L171.349 103.5C173.972 120.737 174.938 137.809 172.98 152.165C171.625 162.107 168.866 170.752 164.286 177.255C159.695 183.775 153.277 188.142 144.613 189.511C140.772 190.117 136.488 190.133 131.728 189.484C102.45 185.492 90.0873 186.288 87.5842 204.645C85.6334 218.951 89.5963 243.878 96.1916 285.367C97.6168 294.332 99.1655 304.073 100.811 314.697C111.81 385.69 68.7296 424.345 30.232 444.363L29.3434 444.363C67.9056 424.506 111.436 385.936 100.409 314.759C98.7737 304.199 97.2191 294.426 95.7895 285.431C89.188 243.904 85.2217 218.955 87.1805 204.591C89.7321 185.876 102.219 185.049 131.783 189.08C136.504 189.724 140.748 189.709 144.551 189.108C153.095 187.759 159.424 183.452 163.953 177.021C168.493 170.574 171.23 161.99 172.577 152.111C174.587 137.369 173.505 119.747 170.708 102.025L170.586 101.739L170.586 101.738L170.431 101.371C172.925 118.224 173.808 134.864 171.893 148.909C170.534 158.875 167.765 167.538 163.165 174.047C158.554 180.572 152.105 184.932 143.398 186.273C139.591 186.859 135.35 186.868 130.643 186.226C101.365 182.233 89.0018 183.03 86.4987 201.387C84.548 215.693 88.5108 240.62 95.1061 282.109C96.5314 291.074 98.08 300.814 99.726 311.439C111.354 386.495 62.5354 425.408 22.5924 444.363L21.6287 444.363C61.6027 425.599 110.989 386.796 99.3238 311.501C97.6881 300.941 96.1337 291.168 94.7039 282.173C88.1026 240.646 84.1362 215.697 86.0949 201.333C88.6466 182.619 101.133 181.791 130.697 185.822C135.363 186.458 139.566 186.451 143.338 185.87C151.924 184.547 158.284 180.247 162.832 173.812C167.392 167.36 170.139 158.758 171.489 148.856C173.459 134.408 172.458 117.191 169.784 99.8242L169.58 99.3261L169.579 99.3252L169.488 99.1013C171.872 115.616 172.684 131.882 170.806 145.652C169.444 155.639 166.667 164.318 162.049 170.831C157.42 177.36 150.947 181.714 142.203 183.032C138.424 183.602 134.22 183.604 129.557 182.968C100.279 178.976 87.9163 179.772 85.4133 198.129C83.4624 212.435 87.4254 237.363 94.0206 278.851C95.4459 287.816 96.9945 297.557 98.6405 308.181C110.982 387.84 55.2404 426.779 14.2802 444.363L13.2477 444.363C54.1716 427.007 110.625 388.198 98.2381 308.243C96.6025 297.683 95.0481 287.91 93.6183 278.915C87.017 237.388 83.0506 212.439 85.0092 198.075C87.561 179.361 100.048 178.533 129.611 182.564C134.233 183.195 138.399 183.193 142.142 182.628C150.767 181.328 157.152 177.034 161.717 170.594C166.294 164.138 169.049 155.523 170.402 145.598C172.339 131.396 171.404 114.517 168.832 97.4502C168.721 97.1641 168.615 96.8894 168.516 96.6287C170.813 112.872 171.569 128.841 169.722 142.393C168.358 152.395 165.574 161.084 160.944 167.601C156.303 174.134 149.81 178.483 141.04 179.786C137.281 180.344 133.102 180.341 128.472 179.71C99.1934 175.718 86.8305 176.514 84.3276 194.871C82.3766 209.177 86.3397 234.104 92.935 275.593C94.3602 284.558 95.9089 294.299 97.5549 304.923C110.724 389.923 46.3723 428.564 5.17944 444.363L4.03372 444.363C45.0659 428.852 110.385 390.395 97.1526 304.985C95.5169 294.425 93.9625 284.652 92.5327 275.657C85.9314 234.13 81.9652 209.181 83.9236 194.817C86.4754 176.103 98.962 175.275 128.526 179.306C133.117 179.932 137.258 179.935 140.981 179.382C149.631 178.097 156.035 173.808 160.612 167.364C165.201 160.905 167.963 152.278 169.318 142.339C171.231 128.306 170.342 111.661 167.84 94.8037L167.603 94.138L167.603 94.1371L167.496 93.8297C169.742 109.915 170.467 125.712 168.637 139.135C167.273 149.139 164.488 157.83 159.856 164.348C155.212 170.881 148.715 175.23 139.941 176.53C136.185 177.086 132.011 177.082 127.386 176.452C98.1079 172.46 85.745 173.256 83.242 191.613C81.2911 205.919 85.2542 230.846 91.8495 272.335C93.2747 281.3 94.8234 291.041 96.4693 301.665C110.084 389.54 40.8471 427.866 7.57969e-08 442.629L9.46984e-08 442.197Z" fill="#45C2B1"/>
</svg>
