<svg width="44" height="44" viewBox="0 0 44 44" fill="none" xmlns="http://www.w3.org/2000/svg">
<path d="M21.2233 43.2163C32.9446 43.2163 42.4466 33.7143 42.4466 21.993C42.4466 10.2717 32.9446 0.769653 21.2233 0.769653C9.502 0.769653 0 10.2717 0 21.993C0 33.7143 9.502 43.2163 21.2233 43.2163Z" fill="#275C51"/>
<path d="M21.2237 39.5893C11.5204 39.5893 3.6272 31.6961 3.6272 21.9928C3.6272 12.2895 11.5204 4.39624 21.2237 4.39624C30.9271 4.39624 38.8203 12.2895 38.8203 21.9928C38.8203 31.6953 30.9271 39.5893 21.2237 39.5893ZM21.2237 7.58908C13.2817 7.58908 6.82003 14.0508 6.82003 21.9928C6.82003 29.9348 13.2817 36.3965 21.2237 36.3965C29.1666 36.3965 35.6275 29.9348 35.6275 21.9928C35.6275 14.0508 29.1666 7.58908 21.2237 7.58908Z" fill="#F1FFFC"/>
<path d="M21.2237 33.1342C15.0802 33.1342 10.0823 28.1363 10.0823 21.9928C10.0823 15.8493 15.0802 10.8513 21.2237 10.8513C27.3672 10.8513 32.3652 15.8493 32.3652 21.9928C32.3652 28.1363 27.3672 33.1342 21.2237 33.1342ZM21.2237 14.0441C16.8407 14.0441 13.2751 17.6097 13.2751 21.9928C13.2751 26.3758 16.8407 29.9414 21.2237 29.9414C25.6067 29.9414 29.1723 26.3758 29.1723 21.9928C29.1723 17.6097 25.6067 14.0441 21.2237 14.0441Z" fill="#F1FFFC"/>
<path d="M25.8865 21.993C25.8865 24.5685 23.7987 26.6562 21.2233 26.6562C18.6478 26.6562 16.5601 24.5685 16.5601 21.993C16.5601 19.4176 18.6478 17.3298 21.2233 17.3298C23.7987 17.3298 25.8865 19.4176 25.8865 21.993Z" fill="#48BEA0"/>
<path d="M21.9925 21.7027C21.8702 21.7027 21.7471 21.6555 21.6537 21.5621C21.466 21.3745 21.466 21.0712 21.6537 20.8844L36.3458 6.19223C36.5334 6.00461 36.8368 6.00461 37.0236 6.19223C37.2112 6.37985 37.2112 6.68319 37.0236 6.86998L22.3314 21.5621C22.238 21.6555 22.1157 21.7027 21.9925 21.7027Z" fill="#48BEA0"/>
<path d="M38.9517 7.19567H36.02V4.26318L40.2832 0V2.93167H43.2157L38.9517 7.19567Z" fill="#48BEA0"/>
</svg>
