<svg width="20" height="20" viewBox="0 0 20 20" fill="none" xmlns="http://www.w3.org/2000/svg">
<path d="M10 14.4584C10.7502 14.4584 11.3583 13.8502 11.3583 13.1C11.3583 12.3498 10.7502 11.7417 10 11.7417C9.24981 11.7417 8.64166 12.3498 8.64166 13.1C8.64166 13.8502 9.24981 14.4584 10 14.4584Z" fill="#D4D4D4"/>
<path d="M15.2334 7.94175V6.90008C15.2334 4.65008 14.6917 1.66675 10 1.66675C5.30835 1.66675 4.76669 4.65008 4.76669 6.90008V7.94175C2.43335 8.23341 1.66669 9.41675 1.66669 12.3251V13.8751C1.66669 17.2917 2.70835 18.3334 6.12502 18.3334H13.875C17.2917 18.3334 18.3334 17.2917 18.3334 13.8751V12.3251C18.3334 9.41675 17.5667 8.23341 15.2334 7.94175ZM10 15.6167C8.60835 15.6167 7.48335 14.4834 7.48335 13.1001C7.48335 11.7084 8.61669 10.5834 10 10.5834C11.3834 10.5834 12.5167 11.7167 12.5167 13.1001C12.5167 14.4917 11.3917 15.6167 10 15.6167ZM6.12502 7.86675C6.05835 7.86675 6.00002 7.86675 5.93335 7.86675V6.90008C5.93335 4.45841 6.62502 2.83341 10 2.83341C13.375 2.83341 14.0667 4.45841 14.0667 6.90008V7.87508C14 7.87508 13.9417 7.87508 13.875 7.87508H6.12502V7.86675Z" fill="#D4D4D4"/>
</svg>
