<svg width="28" height="28" viewBox="0 0 28 28" fill="none" xmlns="http://www.w3.org/2000/svg">
<path d="M12.9788 10.029C13.04 9.72201 13.2566 9.66878 13.5285 9.66878C16.3162 9.67242 19.103 9.67096 21.8906 9.67096C23.4066 9.67096 24.924 9.69503 26.4392 9.66149C27.2165 9.64399 27.7495 9.90503 27.9945 10.6655C27.9945 10.8296 27.9945 10.9937 27.9945 11.1577C27.9456 11.4757 27.7808 11.7214 27.5519 11.9445C26.9284 12.5541 26.321 13.1812 25.6976 13.7908C25.5357 13.949 25.5357 14.0518 25.6976 14.21C26.3145 14.8138 26.9139 15.4358 27.5329 16.0366C27.7838 16.2801 27.9595 16.5463 27.9938 16.8977C27.9938 17.0618 27.9938 17.2259 27.9938 17.3899C27.907 17.4432 27.9157 17.546 27.8756 17.6233C27.6634 18.0316 27.3419 18.3087 26.8759 18.316C25.6502 18.3349 24.4245 18.3269 23.1988 18.3262C22.9435 18.3262 22.8116 18.1723 22.7605 17.9353C22.751 17.6707 22.8859 17.4993 23.1514 17.4417C23.268 17.4162 23.3869 17.4227 23.5043 17.4227C24.4763 17.422 25.449 17.4227 26.4209 17.4227C26.5026 17.4227 26.5843 17.422 26.6659 17.4213C26.8307 17.4198 26.9744 17.3775 27.048 17.2135C27.1246 17.0443 27.0451 16.9116 26.9314 16.7964C26.5799 16.4405 26.235 16.0774 25.8646 15.7405C25.4548 15.3009 25.0188 14.8874 24.5995 14.4572C24.2626 14.1116 24.259 13.8892 24.5951 13.5487C25.3308 12.8042 26.0739 12.067 26.811 11.324C26.9554 11.1782 27.1479 11.0374 27.0393 10.7895C26.9328 10.546 26.7002 10.5824 26.4931 10.5824C22.2472 10.581 18.0005 10.5817 13.7546 10.581C13.6 10.581 13.4447 10.5941 13.293 10.5525C13.021 10.476 12.9102 10.2915 12.9788 10.029Z" fill="white"/>
<path d="M12.979 10.029C13.0155 10.379 13.1409 10.4913 13.5142 10.4913C15.577 10.4927 17.6406 10.492 19.7034 10.492C21.9937 10.492 24.284 10.492 26.5743 10.4927C26.7005 10.4927 26.8295 10.4723 26.9491 10.5336C27.2204 10.6721 27.2488 10.99 27.0002 11.2416C26.3031 11.9467 25.6009 12.6467 24.9002 13.3482C24.249 14.0008 24.2519 13.9971 24.898 14.6526C25.2414 15.0012 25.6104 15.3242 25.9181 15.7077C25.9531 15.9454 25.8022 16.0789 25.6337 16.1934C25.4069 16.3472 25.1488 16.3837 24.879 16.3829C23.3886 16.3808 21.8982 16.3822 20.4085 16.3822C16.2647 16.3822 12.1208 16.3822 7.97767 16.3822C7.14205 16.3822 6.91382 16.6126 6.91163 17.4534C6.9109 17.8814 6.92038 18.3094 6.90726 18.7374C6.89486 19.1399 6.71549 19.4323 6.31882 19.5643C6.17444 19.5876 6.07892 19.5001 5.98851 19.409C4.34861 17.7684 2.70653 16.1299 1.07465 14.4813C0.704235 14.1072 0.723923 13.868 1.1308 13.459C2.40028 12.1815 3.67486 10.9084 4.94726 9.63305C5.64798 8.93086 6.34798 8.2294 7.04871 7.52722C7.15809 7.41784 7.26746 7.30774 7.40382 7.23117C7.69038 7.07076 8.00174 7.19034 8.10746 7.50097C8.14976 7.62419 8.15048 7.75107 8.15048 7.87867C8.15121 8.55242 8.14976 9.22617 8.15121 9.89992C8.15194 10.3236 8.25621 10.4278 8.68788 10.4293C9.61465 10.4322 10.5422 10.4176 11.4689 10.4373C11.7919 10.4446 12.0019 10.3155 12.1718 10.0684C12.4394 10.0501 12.7129 10.1158 12.979 10.029Z" fill="white"/>
<path d="M12.1703 10.0691C12.0638 10.4169 11.9683 10.4905 11.6066 10.4913C10.6077 10.4927 9.60798 10.4927 8.60902 10.4913C8.20215 10.4905 8.07017 10.3586 8.06944 9.95242C8.06798 9.22398 8.06652 8.49627 8.07017 7.76784C8.0709 7.5469 8.04465 7.342 7.81132 7.24502C7.57944 7.14877 7.41757 7.27273 7.26079 7.43023C5.20017 9.49742 3.13736 11.5624 1.07673 13.6296C0.806212 13.9009 0.800378 14.0919 1.06215 14.3544C2.76329 16.0614 4.4659 17.7654 6.16923 19.4702C6.18819 19.4892 6.21225 19.5023 6.23413 19.5184C6.53236 19.6729 6.72267 19.9493 6.96257 20.1695C7.10986 20.3044 7.23527 20.4641 7.40152 20.5778C7.67861 20.7667 7.92069 20.661 7.97975 20.3292C7.99871 20.2213 7.99507 20.1112 7.99507 20.0018C7.99579 19.355 7.99142 18.709 7.99725 18.0622C8.00163 17.613 8.17809 17.4359 8.62361 17.4162C8.70527 17.4125 8.78694 17.414 8.86861 17.414C12.9673 17.414 17.0666 17.414 21.1653 17.414C21.3199 17.414 21.4752 17.4023 21.6261 17.4431C21.9025 17.5175 22.0133 17.694 21.9557 17.963C21.9003 18.2729 21.6859 18.3305 21.4125 18.3298C19.249 18.3262 17.0863 18.3276 14.9229 18.3276C12.9957 18.3276 11.0692 18.3305 9.14204 18.3233C8.9459 18.3225 8.87517 18.359 8.88173 18.5734C8.8985 19.1377 8.88975 19.7021 8.88684 20.2672C8.88392 20.8863 8.61632 21.3281 8.10444 21.5206C7.55902 21.7263 7.10111 21.5695 6.69569 21.1619C4.63652 19.0911 2.57152 17.0261 0.508712 14.9581C-0.0972259 14.3508 -0.0979551 13.6478 0.506524 13.0419C2.57517 10.9681 4.65329 8.90315 6.70954 6.81627C7.44965 6.06523 8.54632 6.40357 8.81465 7.21732C8.87225 7.39159 8.88829 7.57242 8.88757 7.75544C8.88611 8.31982 8.89486 8.88492 8.88246 9.44929C8.87809 9.63377 8.93642 9.67607 9.11142 9.67388C9.93829 9.66513 10.7659 9.67898 11.5928 9.66513C11.9012 9.66148 12.1025 9.75554 12.1703 10.0691Z" fill="white"/>
<path d="M21.9552 17.9638C21.9129 17.6065 21.7919 17.5088 21.3865 17.5088C17.9718 17.5081 14.5571 17.5088 11.1431 17.5088C10.2987 17.5088 9.45437 17.5073 8.60927 17.5095C8.20167 17.5103 8.07042 17.6408 8.06969 18.0469C8.06823 18.7746 8.0675 19.5031 8.07042 20.2308C8.07115 20.451 8.04563 20.6566 7.81302 20.7543C7.58115 20.8513 7.41635 20.731 7.2625 20.5706C6.92271 20.2177 6.57781 19.8691 6.23438 19.5191C6.65 19.3733 6.82281 19.14 6.82427 18.7148C6.82573 18.2227 6.82354 17.7312 6.825 17.239C6.82646 16.6119 7.13927 16.2969 7.75979 16.2962C13.4874 16.2962 19.215 16.2955 24.9419 16.2969C25.3896 16.2969 25.7403 16.1504 25.9168 15.7078C26.3375 16.0534 26.6992 16.4603 27.0776 16.8489C27.195 16.9692 27.2045 17.126 27.1265 17.2806C27.0375 17.457 26.888 17.511 26.6992 17.5103C25.5821 17.5073 24.465 17.5088 23.3486 17.5095C22.9658 17.5095 22.8732 17.5781 22.7609 17.9354C22.4926 17.9397 22.2221 17.8923 21.9552 17.9638Z" fill="white"/>
</svg>
