<svg width="37" height="64" viewBox="0 0 37 64" fill="none" xmlns="http://www.w3.org/2000/svg">
<path d="M5.81836 0.00488281H30.7754C34.2109 0.00488281 36.625 2.42291 36.625 5.89746C36.6354 14.6351 36.6347 23.374 36.623 32.1143V58.0469C36.623 60.954 34.9504 63.1516 32.2695 63.8691C31.7944 63.9755 31.3066 64.0177 30.8203 63.9941C22.5013 63.9941 14.1823 63.9941 5.86328 63.9941C2.4746 63.9941 0.03914 61.5878 0.0136719 58.1953C-0.0175244 54.5571 0.0136705 50.9185 0.0136719 47.2764V6.04785C0.0136719 3.03165 1.62601 0.882624 4.37109 0.137695C4.84523 0.0289195 5.33235 -0.0159005 5.81836 0.00488281ZM11.752 59.4697C10.9662 59.4619 10.3632 59.6929 10.3438 60.5664C10.3245 61.4396 10.9292 61.7529 11.6895 61.7529C16.0986 61.7646 20.5131 61.7646 24.9326 61.7529C25.6968 61.7529 26.3242 61.4486 26.2969 60.583C26.2694 59.7178 25.6947 59.4737 24.9053 59.4736H18.2754C16.0996 59.4736 13.9258 59.4853 11.752 59.4697ZM11.5625 18.3877C8.60662 17.6897 5.26266 19.3612 4.10449 22.1416C3.63568 23.2171 3.42643 24.3883 3.49414 25.5596C3.42597 27.6009 3.88413 29.4494 4.63281 31.2197C7.05249 36.8915 11.1649 41.1437 16.1367 44.6123C19.1043 46.6791 22.3667 48.0351 26.0811 47.9961C30.622 47.9453 33.3034 45.1348 33.1338 40.5762C33.0908 39.2447 32.4294 38.2795 31.1836 37.8467C29.4171 37.2325 27.6405 36.6377 25.8545 36.0801C24.1232 35.5362 22.8931 36.038 22.0605 37.666C21.7858 38.1979 21.5417 38.2699 21.0176 38.0557C17.4749 36.6265 15.01 34.1151 13.4502 30.6465C13.1499 29.9738 13.3038 29.6225 13.9551 29.2812C15.3374 28.5598 15.9143 27.2847 15.4834 25.875C14.9082 23.9916 14.2655 22.1315 13.6221 20.2695C13.4763 19.8017 13.2084 19.3804 12.8467 19.0498C12.4849 18.7193 12.0415 18.4909 11.5625 18.3877ZM12.9082 2.24316C12.4215 2.22886 11.9355 2.29913 11.4727 2.4502C9.95002 2.99818 8.96323 4.56227 9.1582 6.09473C9.39428 7.82978 10.7886 9.06933 12.668 9.1123C14.5475 9.1552 16.4311 9.12207 18.3125 9.12207C20.196 9.12012 22.0803 9.16299 23.9502 9.10645C26.2681 9.0438 27.9371 6.97572 27.3818 4.93848C26.91 3.21876 25.648 2.25488 23.7119 2.24316C20.1107 2.22757 16.5094 2.24316 12.9082 2.24316Z" fill="#48BEA0"/>
<path d="M25.6499 45.6869C22.7915 45.6733 20.2645 44.6145 17.9501 43.0644C13.1243 39.8316 9.13501 35.8229 6.77574 30.4121C5.82813 28.2362 5.38943 25.9685 6.02896 23.5878C6.6685 21.2071 8.52472 20.5149 10.726 20.5754C11.1706 20.589 11.4163 20.8093 11.5586 21.2441C12.1046 22.9327 12.6837 24.6115 13.2452 26.2941C13.4187 26.8108 13.2218 27.1248 12.7421 27.3899C10.9503 28.3785 10.5486 29.328 11.2856 31.2077C12.9995 35.5752 16.09 38.5974 20.4712 40.2626C22.031 40.8475 23.2146 40.3776 23.9574 38.8977C24.3182 38.1802 24.7374 38.0495 25.4354 38.2894C26.8977 38.8002 28.3484 39.3559 29.84 39.7654C30.8344 40.0383 31.0099 40.6291 30.8968 41.4987C30.5341 44.4488 28.9353 45.7298 25.6499 45.6869Z" fill="#263C90"/>
<path d="M18.2734 6.84517C16.4912 6.84517 14.7091 6.84517 12.925 6.84517C11.9599 6.84517 11.451 6.42986 11.4861 5.67528C11.529 4.74133 12.1705 4.51904 12.9582 4.51904H23.6548C24.4347 4.51904 25.0938 4.71403 25.1386 5.66163C25.1776 6.4591 24.6765 6.84712 23.6217 6.85102C21.8396 6.84907 20.0672 6.84517 18.2734 6.84517Z" fill="#263C90"/>
</svg>
