<svg width="64" height="64" viewBox="0 0 64 64" fill="none" xmlns="http://www.w3.org/2000/svg">
<path d="M57.5002 11V31H56.5002C56.5002 29.34 53.3702 28 49.5002 28C46.9502 28 44.7202 28.58 43.5002 29.46C42.8602 29.9 42.5002 30.43 42.5002 31C42.5002 30.43 42.1402 29.9 41.5002 29.46C40.2802 28.58 38.0502 28 35.5002 28C31.6302 28 28.5002 29.34 28.5002 31H25.1602C26.5902 30.36 27.5002 28.93 27.5002 27.36V26.6L29.7002 26.16C30.1602 26.07 30.5002 25.66 30.5002 25.18V22C30.5002 19.24 29.3802 16.74 27.5702 14.93L27.5002 14.86V11H28.1202C31.3702 11 34.5302 11.8 37.5102 13.1C38.5602 13.56 39.9402 13.88 41.5002 13.96C41.8302 13.99 42.1602 14 42.5002 14C42.8402 14 43.1702 13.99 43.5002 13.96C45.0602 13.88 46.4402 13.56 47.4902 13.1C50.4702 11.8 53.6302 11 56.8802 11H57.5002Z" fill="#3D756E"/>
<path d="M25.0798 31.04L22.0798 32.33C21.0698 32.76 19.9298 32.76 18.9298 32.33L15.9298 31.04C14.4598 30.41 13.5098 28.96 13.5098 27.36V22C13.5098 18.69 16.1998 16 19.5098 16H21.5098C24.8198 16 27.5098 18.69 27.5098 22V27.36C27.5098 28.96 26.5598 30.41 25.0898 31.04H25.0798Z" fill="#FFD29F"/>
<path d="M33.64 37C31.82 35.15 29.29 34 26.5 34H23.5C23.5 35.66 22.16 37 20.5 37C18.84 37 17.5 35.66 17.5 34H14.5C8.98 34 4.5 38.48 4.5 44V51H26.5L30.5 37H33.64Z" fill="#45C2B1"/>
<path d="M15.5 47H17.5C18.6 47 19.5 47.9 19.5 49V51H15.5V47Z" fill="#FFD29F"/>
<path d="M10.5 23.73C10.21 23.9 9.86 24 9.5 24C8.4 24 7.5 23.1 7.5 22C7.5 20.9 8.4 20 9.5 20C9.92 20 10.31 20.13 10.64 20.36" fill="#45C2B1"/>
<path d="M30.4994 23.73C30.7894 23.9 31.1394 24 31.4994 24C32.5994 24 33.4994 23.1 33.4994 22C33.4994 20.9 32.5994 20 31.4994 20C31.0794 20 30.6894 20.13 30.3594 20.36" fill="#45C2B1"/>
<path d="M17.5 31.71L18.92 32.32C19.93 32.76 21.07 32.76 22.08 32.32L23.5 31.71V34C23.5 35.66 22.16 37 20.5 37C18.84 37 17.5 35.66 17.5 34V31.71Z" fill="#FFD29F"/>
<path d="M26.5 51L30.5 37H52.5L48.5 51" fill="#1A428A"/>
<path d="M26.89 19.38C26.32 19.15 25.66 19 24.83 19C20.5 19 20.5 23 16.16 23C15.03 23 14.19 22.73 13.5 22.33V22C13.5 18.69 16.19 16 19.5 16H21.5C23.87 16 25.92 17.38 26.89 19.38Z" fill="#45C2B1"/>
<path d="M27.5 26.6V22C27.5 18.69 24.81 16 21.5 16H19.5C16.19 16 13.5 18.69 13.5 22V26H11.5C10.95 26 10.5 25.55 10.5 25V22C10.5 16.48 14.98 12 20.5 12C23.26 12 25.76 13.12 27.57 14.93C29.38 16.74 30.5 19.24 30.5 22V25.18C30.5 25.66 30.16 26.07 29.7 26.16L27.5 26.6Z" fill="#E7ECEF"/>
<path d="M39.5 43C40.05 43 40.5 43.45 40.5 44C40.5 44.55 40.05 45 39.5 45V43Z" fill="#3D756E"/>
<path d="M20.5 50.9995H18.5V48.9995C18.5 48.4495 18.05 47.9995 17.5 47.9995H10.5C9.95 47.9995 9.5 47.5495 9.5 46.9995V42.9995C9.5 42.7295 9.61 42.4795 9.79 42.2895L11.08 40.9995C11.47 40.6095 12.1 40.6095 12.49 40.9995C12.88 41.3895 12.88 42.0195 12.49 42.4095L11.49 43.4095V45.9995H17.49C19.15 45.9995 20.49 47.3395 20.49 48.9995V50.9995H20.5Z" fill="#74D4C7"/>
<path d="M52.5 51H2.5V53H52.5V51Z" fill="#3D756E"/>
<path d="M20.5 27.9997C20.39 27.4597 20.74 26.9297 21.28 26.8197L29.5 25.1797V22.3197C29.5 17.5297 25.89 13.3397 21.12 13.0197C15.88 12.6697 11.5 16.8297 11.5 21.9997V24.9997H13.5V26.9997H11.5C10.4 26.9997 9.5 26.0997 9.5 24.9997V22.3197C9.5 16.5997 13.74 11.5797 19.44 11.0497C25.98 10.4297 31.5 15.5797 31.5 21.9997V25.1797C31.5 26.1297 30.83 26.9497 29.89 27.1397L21.67 28.7797C21.13 28.8897 20.6 28.5397 20.49 27.9997H20.5Z" fill="#74D4C7"/>
<path d="M43.5 13.96V31H41.5V13.96C41.83 13.99 42.16 14 42.5 14C42.84 14 43.17 13.99 43.5 13.96Z" fill="#45C2B1"/>
<path d="M61.5 13H57.5V31H61.5V13Z" fill="#45C2B1"/>
<path d="M42.5 31C42.5 29.34 45.63 28 49.5 28C53.37 28 56.5 29.34 56.5 31" fill="#74D4C7"/>
<path d="M28.5 31C28.5 29.34 31.63 28 35.5 28C39.37 28 42.5 29.34 42.5 31" fill="#74D4C7"/>
<path d="M52.5 17H48.5V19H52.5V17Z" fill="#74D4C7"/>
<path d="M54.5 22H46.5V24H54.5V22Z" fill="#74D4C7"/>
</svg>
