<svg width="16" height="16" viewBox="0 0 16 16" fill="none" xmlns="http://www.w3.org/2000/svg">
<path d="M4.00033 8.66675C2.16033 8.66675 0.666992 10.1534 0.666992 12.0001C0.666992 13.8467 2.16033 15.3334 4.00033 15.3334C5.84033 15.3334 7.33366 13.8401 7.33366 12.0001C7.33366 10.1601 5.84699 8.66675 4.00033 8.66675ZM2.64033 10.6401H4.00033C4.25366 10.6401 4.45366 10.8467 4.45366 11.0934C4.45366 11.3401 4.25366 11.5467 4.00033 11.5467H2.64033C2.38699 11.5467 2.18699 11.3401 2.18699 11.0934C2.18699 10.8467 2.38699 10.6401 2.64033 10.6401ZM5.36033 13.3601H2.64033C2.38699 13.3601 2.18699 13.1534 2.18699 12.9067C2.18699 12.6601 2.39366 12.4534 2.64033 12.4534H5.36699C5.62033 12.4534 5.82032 12.6601 5.82032 12.9067C5.82032 13.1534 5.61366 13.3601 5.36033 13.3601Z" fill="#45C2B1"/>
<path d="M11.333 2H4.66634C2.66634 2 1.33301 3 1.33301 5.33333V7.42667C1.33301 7.91333 1.83301 8.22 2.27967 8.02667C3.01301 7.70667 3.84634 7.58667 4.71967 7.72667C6.46634 8.01333 7.89301 9.39333 8.24634 11.1267C8.34634 11.6333 8.35967 12.1267 8.29301 12.6C8.23967 12.9933 8.55967 13.34 8.95301 13.34H11.333C13.333 13.34 14.6663 12.34 14.6663 10.0067V5.33333C14.6663 3 13.333 2 11.333 2ZM11.6463 5.72667L9.55967 7.39333C9.11967 7.74667 8.55967 7.92 7.99967 7.92C7.43967 7.92 6.87301 7.74667 6.43967 7.39333L4.35301 5.72667C4.13967 5.55333 4.10634 5.23333 4.27301 5.02C4.44634 4.80667 4.75967 4.76667 4.97301 4.94L7.05967 6.60667C7.56634 7.01333 8.42634 7.01333 8.93301 6.60667L11.0197 4.94C11.233 4.76667 11.553 4.8 11.7197 5.02C11.893 5.23333 11.8597 5.55333 11.6463 5.72667Z" fill="#45C2B1"/>
</svg>
