<svg width="316" height="308" viewBox="0 0 316 308" fill="none" xmlns="http://www.w3.org/2000/svg">
<path fill-rule="evenodd" clip-rule="evenodd" d="M78.4235 262.722C86.6415 271.589 93.5678 284.771 98.935 298.763L119.146 293.348C113.778 279.355 106.852 266.173 98.6343 257.306C88.2086 246.043 76.3324 239.804 67.4277 224.108C48.803 191.266 50.1701 157.007 60.1579 130.098C65.0231 116.993 70.5434 103.949 71.1056 87.1865C71.5066 75.2234 69.1081 61.9674 64.6782 50.0636L44.4674 55.4791C48.8974 67.3828 51.2959 80.6389 50.8949 92.6019C50.3327 109.364 44.8123 122.408 39.9472 135.514C29.9594 162.422 28.5923 196.681 47.217 229.524C56.1217 245.22 67.9978 251.458 78.4235 262.722Z" fill="url(#paint0_linear_48_5177)"/>
<path fill-rule="evenodd" clip-rule="evenodd" d="M67.4279 224.109C76.3326 239.805 88.2087 246.043 98.6345 257.307C106.852 266.174 113.779 279.356 119.146 293.348L139.357 287.933C133.989 273.94 127.063 260.758 118.845 251.891C108.419 240.628 96.5433 234.389 87.6386 218.693C69.0139 185.851 70.381 151.592 80.3689 124.683C85.234 111.578 90.7544 98.5336 91.3166 81.7715C91.7176 69.8085 89.3191 56.5525 84.8891 44.6487L64.6783 50.0642C69.1083 61.9679 71.5068 75.2239 71.1058 87.187C70.5436 103.949 65.0232 116.993 60.1581 130.099C50.1703 157.007 48.8031 191.266 67.4279 224.109Z" fill="url(#paint1_linear_48_5177)"/>
<path fill-rule="evenodd" clip-rule="evenodd" d="M80.3701 124.682C70.3822 151.59 69.0151 185.85 87.6398 218.692C96.5445 234.388 108.421 240.627 118.846 251.89C127.064 260.757 133.991 273.939 139.358 287.932L159.569 282.516C154.201 268.524 147.275 255.342 139.057 246.475C128.631 235.211 116.755 228.973 107.851 213.277C89.2258 180.434 90.593 146.175 100.581 119.267C105.446 106.161 110.966 93.117 111.528 76.3549C111.93 64.3919 109.531 51.1359 105.101 39.2322L84.8903 44.6476C89.3203 56.5513 91.7188 69.8074 91.3178 81.7704C90.7556 98.5325 85.2352 111.577 80.3701 124.682Z" fill="url(#paint2_linear_48_5177)"/>
<path fill-rule="evenodd" clip-rule="evenodd" d="M100.579 119.267C90.5912 146.176 89.2241 180.435 107.849 213.277C116.753 228.974 128.63 235.212 139.055 246.475C147.273 255.342 154.2 268.524 159.567 282.517L179.778 277.101C174.41 263.109 167.484 249.927 159.266 241.06C148.84 229.796 136.964 223.558 128.06 207.862C109.435 175.02 110.802 140.76 120.79 113.852C125.655 100.747 131.175 87.7022 131.738 70.9401C132.139 58.9771 129.74 45.7211 125.31 33.8174L105.099 39.2328C109.529 51.1366 111.928 64.3926 111.527 76.3557C110.965 93.1177 105.444 106.162 100.579 119.267Z" fill="url(#paint3_linear_48_5177)"/>
<path fill-rule="evenodd" clip-rule="evenodd" d="M281.265 208.371C278.581 220.159 279.174 235.038 281.522 249.839L261.311 255.255C258.963 240.453 258.37 225.574 261.054 213.786C264.451 198.819 271.617 187.478 271.481 169.433C271.189 131.678 252.875 102.692 230.771 84.3828C220.005 75.4657 208.702 66.9292 199.834 52.6939C193.506 42.534 188.955 29.8548 186.839 17.3308L207.05 11.9154C209.166 24.4393 213.716 37.1186 220.045 47.2784C228.913 61.5137 240.216 70.0502 250.982 78.9673C273.086 97.2766 291.4 126.263 291.691 164.017C291.828 182.063 284.662 193.403 281.265 208.371Z" fill="url(#paint4_linear_48_5177)"/>
<path fill-rule="evenodd" clip-rule="evenodd" d="M271.481 169.433C271.618 187.479 264.452 198.819 261.055 213.787C258.371 225.575 258.964 240.454 261.312 255.255L241.101 260.671C238.753 245.869 238.16 230.99 240.844 219.202C244.241 204.235 251.407 192.894 251.271 174.848C250.979 137.094 232.665 108.108 210.561 89.7986C199.795 80.8815 188.492 72.345 179.625 58.1097C173.296 47.9499 168.745 35.2706 166.629 22.7466L186.84 17.3312C188.956 29.8551 193.507 42.5344 199.835 52.6942C208.703 66.9295 220.006 75.466 230.772 84.3831C252.876 102.692 271.19 131.678 271.481 169.433Z" fill="url(#paint5_linear_48_5177)"/>
<path fill-rule="evenodd" clip-rule="evenodd" d="M210.559 89.7985C232.663 108.108 250.977 137.094 251.268 174.848C251.405 192.894 244.239 204.235 240.842 219.202C238.158 230.99 238.751 245.869 241.099 260.67L220.888 266.086C218.54 251.285 217.948 236.405 220.631 224.617C224.028 209.65 231.194 198.309 231.058 180.264C230.766 142.509 212.452 113.523 190.349 95.2139C179.582 86.2968 168.28 77.7603 159.412 63.525C153.083 53.3652 148.532 40.6859 146.417 28.162L166.627 22.7465C168.743 35.2704 173.294 47.9498 179.622 58.1096C188.49 72.3448 199.793 80.8814 210.559 89.7985Z" fill="url(#paint6_linear_48_5177)"/>
<path fill-rule="evenodd" clip-rule="evenodd" d="M190.35 95.2133C212.454 113.523 230.768 142.508 231.059 180.263C231.196 198.309 224.03 209.649 220.633 224.617C217.949 236.405 218.542 251.284 220.89 266.085L200.679 271.501C198.331 256.699 197.738 241.82 200.422 230.032C203.819 215.065 210.985 203.724 210.849 185.679C210.557 147.924 192.243 118.938 170.14 100.629C159.373 91.7116 148.071 83.1751 139.203 68.9398C132.874 58.78 128.323 46.1007 126.208 33.5768L146.418 28.1613C148.534 40.6852 153.085 53.3646 159.413 63.5244C168.281 77.7596 179.584 86.2962 190.35 95.2133Z" fill="url(#paint7_linear_48_5177)"/>
<defs>
<linearGradient id="paint0_linear_48_5177" x1="32.5636" y1="58.6687" x2="97.0333" y2="299.273" gradientUnits="userSpaceOnUse">
<stop stop-color="#48BEA0"/>
<stop offset="1" stop-color="#48BEA0" stop-opacity="0"/>
</linearGradient>
<linearGradient id="paint1_linear_48_5177" x1="52.7745" y1="53.2538" x2="117.244" y2="293.858" gradientUnits="userSpaceOnUse">
<stop stop-color="#48BEA0" stop-opacity="0"/>
<stop offset="1" stop-color="#48BEA0"/>
</linearGradient>
<linearGradient id="paint2_linear_48_5177" x1="72.9865" y1="47.8372" x2="137.456" y2="288.441" gradientUnits="userSpaceOnUse">
<stop stop-color="#48BEA0"/>
<stop offset="1" stop-color="#48BEA0" stop-opacity="0"/>
</linearGradient>
<linearGradient id="paint3_linear_48_5177" x1="93.1955" y1="42.4224" x2="157.665" y2="283.026" gradientUnits="userSpaceOnUse">
<stop stop-color="#48BEA0" stop-opacity="0"/>
<stop offset="1" stop-color="#48BEA0"/>
</linearGradient>
<linearGradient id="paint4_linear_48_5177" x1="218.954" y1="8.72573" x2="283.424" y2="249.33" gradientUnits="userSpaceOnUse">
<stop stop-color="#48BEA0"/>
<stop offset="1" stop-color="#48BEA0" stop-opacity="0"/>
</linearGradient>
<linearGradient id="paint5_linear_48_5177" x1="198.744" y1="14.1416" x2="263.214" y2="254.746" gradientUnits="userSpaceOnUse">
<stop stop-color="#48BEA0" stop-opacity="0"/>
<stop offset="1" stop-color="#48BEA0"/>
</linearGradient>
<linearGradient id="paint6_linear_48_5177" x1="178.531" y1="19.5569" x2="243.001" y2="260.161" gradientUnits="userSpaceOnUse">
<stop stop-color="#48BEA0"/>
<stop offset="1" stop-color="#48BEA0" stop-opacity="0"/>
</linearGradient>
<linearGradient id="paint7_linear_48_5177" x1="158.322" y1="24.9717" x2="222.792" y2="265.576" gradientUnits="userSpaceOnUse">
<stop stop-color="#48BEA0" stop-opacity="0"/>
<stop offset="1" stop-color="#48BEA0"/>
</linearGradient>
</defs>
</svg>
