<svg width="64" height="64" viewBox="0 0 64 64" fill="none" xmlns="http://www.w3.org/2000/svg">
<path d="M26.5798 39.04L23.5798 40.33C22.5698 40.76 21.4298 40.76 20.4298 40.33L17.4298 39.04C15.9598 38.41 15.0098 36.96 15.0098 35.36V30C15.0098 26.69 17.6998 24 21.0098 24H23.0098C26.3198 24 29.0098 26.69 29.0098 30V35.36C29.0098 36.96 28.0598 38.41 26.5898 39.04H26.5798Z" fill="#FFD29F"/>
<path d="M35.14 45C33.32 43.15 30.79 42 28 42H25C25 43.66 23.66 45 22 45C20.34 45 19 43.66 19 42H16C10.48 42 6 46.48 6 52V59H28L32 45H35.14Z" fill="#45C2B1"/>
<path d="M17 55H19C20.1 55 21 55.9 21 57V59H17V55Z" fill="#FFD29F"/>
<path d="M12 31.73C11.71 31.9 11.36 32 11 32C9.9 32 9 31.1 9 30C9 28.9 9.9 28 11 28C11.42 28 11.81 28.13 12.14 28.36" fill="#45C2B1"/>
<path d="M31.9994 31.73C32.2894 31.9 32.6394 32 32.9994 32C34.0994 32 34.9994 31.1 34.9994 30C34.9994 28.9 34.0994 28 32.9994 28C32.5794 28 32.1894 28.13 31.8594 28.36" fill="#45C2B1"/>
<path d="M19 39.71L20.42 40.32C21.43 40.76 22.57 40.76 23.58 40.32L25 39.71V42C25 43.66 23.66 45 22 45C20.34 45 19 43.66 19 42V39.71Z" fill="#FFD29F"/>
<path d="M28 59L32 45H54L50 59" fill="#1A428A"/>
<path d="M28.39 27.38C27.82 27.15 27.16 27 26.33 27C22 27 22 31 17.66 31C16.53 31 15.69 30.73 15 30.33V30C15 26.69 17.69 24 21 24H23C25.37 24 27.42 25.38 28.39 27.38Z" fill="#45C2B1"/>
<path d="M29 34.6V30C29 26.69 26.31 24 23 24H21C17.69 24 15 26.69 15 30V34H13C12.45 34 12 33.55 12 33V30C12 24.48 16.48 20 22 20C24.76 20 27.26 21.12 29.07 22.93C30.88 24.74 32 27.24 32 30V33.18C32 33.66 31.66 34.07 31.2 34.16L29 34.6Z" fill="#E7ECEF"/>
<path d="M41 51C41.55 51 42 51.45 42 52C42 52.55 41.55 53 41 53V51Z" fill="#3D756E"/>
<path d="M22 35.9997C21.89 35.4597 22.24 34.9297 22.78 34.8197L31 33.1797V30.3197C31 25.5297 27.39 21.3397 22.62 21.0197C17.38 20.6697 13 24.8297 13 29.9997V32.9997H15V34.9997H13C11.9 34.9997 11 34.0997 11 32.9997V30.3197C11 24.5997 15.24 19.5797 20.94 19.0497C27.48 18.4297 33 23.5797 33 29.9997V33.1797C33 34.1297 32.33 34.9497 31.39 35.1397L23.17 36.7797C22.63 36.8897 22.1 36.5397 21.99 35.9997H22Z" fill="#74D4C7"/>
<path d="M22 58.9995H20V56.9995C20 56.4495 19.55 55.9995 19 55.9995H12C11.45 55.9995 11 55.5495 11 54.9995V50.9995C11 50.7295 11.11 50.4795 11.29 50.2895L12.58 48.9995C12.97 48.6095 13.6 48.6095 13.99 48.9995C14.38 49.3895 14.38 50.0195 13.99 50.4095L12.99 51.4095V53.9995H18.99C20.65 53.9995 21.99 55.3395 21.99 56.9995V58.9995H22Z" fill="#74D4C7"/>
<path d="M54 59H4V61H54V59Z" fill="#3D756E"/>
<path d="M37 10.4498L40.07 9.42982C40.79 9.18982 41.58 9.37982 42.12 9.90982L53.1 20.8898C53.64 21.4298 53.82 22.2198 53.58 22.9398L52.56 26.0098L56.8 30.2498L59.44 25.8598C60.38 24.2898 60.14 22.2698 58.84 20.9698L42.03 4.16982C40.73 2.86982 38.72 2.61982 37.14 3.56982L32.75 6.20982L36.99 10.4498H37Z" fill="#45C2B1"/>
<path d="M33.4601 13.9802C32.8901 13.4102 32.5801 12.6602 32.5801 11.8602C32.5801 11.0602 32.8901 10.3102 33.4601 9.74023L34.8701 11.1602C34.6801 11.3502 34.5801 11.6002 34.5801 11.8702C34.5801 12.1402 34.6801 12.3902 34.8701 12.5802L33.4601 14.0002V13.9802Z" fill="#3D756E"/>
<path d="M31.3409 16.1101C29.0009 13.7701 29.0009 9.96012 31.3409 7.62012L32.7509 9.03012C31.1909 10.5901 31.1909 13.1301 32.7509 14.6901L31.3409 16.1001V16.1101Z" fill="#3D756E"/>
<path d="M29.2204 18.23C25.7104 14.72 25.7104 9.01 29.2204 5.5L30.6304 6.91C27.9004 9.64 27.9004 14.08 30.6304 16.81L29.2204 18.22V18.23Z" fill="#3D756E"/>
<path d="M51.1395 30.4201C50.3695 30.4201 49.5995 30.1301 49.0195 29.5401L50.4295 28.1201C50.8195 28.5101 51.4495 28.5101 51.8495 28.1201L53.2595 29.5401C52.6795 30.1201 51.9095 30.4201 51.1395 30.4201Z" fill="#3D756E"/>
<path d="M51.1404 33.4198C49.6004 33.4198 48.0704 32.8398 46.9004 31.6698L48.3104 30.2598C49.8704 31.8198 52.4104 31.8198 53.9704 30.2598L55.3804 31.6698C54.2104 32.8398 52.6704 33.4198 51.1404 33.4198Z" fill="#3D756E"/>
<path d="M51.1393 36.4199C48.8393 36.4199 46.5293 35.5399 44.7793 33.7899L46.1893 32.3799C48.9193 35.1099 53.3593 35.1099 56.0893 32.3799L57.4993 33.7899C55.7493 35.5399 53.4393 36.4199 51.1393 36.4199Z" fill="#3D756E"/>
</svg>
